<svg xmlns="http://www.w3.org/2000/svg" xmlns:xlink="http://www.w3.org/1999/xlink" width="174px" height="30px" viewBox="0 0 1745 307" version="1.1">
<defs>
<path id="gl5643" d="M 66 9 C 62 10 54 15 48 19 C 15 37 8 60 8 158 C 8 229 13 255 30 272 C 36 278 54 288 62 292 C 70 295 91 293 105 291 C 142 284 155 269 164 227 C 170 194 170 192 142 193 C 118 193 119 192 118 214 C 117 245 108 257 90 255 C 71 252 62 244 59 223 C 55 206 55 97 58 83 C 62 58 70 50 93 48 C 107 45 116 56 117 81 C 118 97 120 99 146 99 C 168 99 169 96 164 71 C 158 37 143 19 116 13 C 89 7 78 6 66 9 z" fill="black"/><!-- width=177 height=307 -->
<path id="gl5644" d="M 49 8 C 42 9 36 13 26 22 C 16 33 14 40 12 58 C 12 67 10 75 10 79 C 9 84 9 140 9 148 C 12 164 14 183 14 184 C 15 186 16 189 19 193 C 27 213 44 222 66 218 C 70 218 75 217 78 218 C 86 219 104 217 112 213 C 133 205 144 187 144 162 C 144 152 144 145 145 140 C 148 129 147 66 144 61 C 142 61 141 57 141 54 C 138 37 120 15 109 13 C 106 13 103 12 100 10 C 98 9 90 8 80 8 C 70 8 61 7 60 7 C 57 7 52 7 49 8 M 90 43 C 102 51 102 57 102 116 C 102 170 102 175 97 181 C 90 188 70 189 61 183 C 52 178 52 178 52 115 C 52 96 52 78 52 58 C 54 56 55 55 56 52 C 62 40 79 36 90 43 z" fill="black"/><!-- width=163 height=230 -->
<path id="gl5645" d="M 78 9 C 70 12 68 14 62 19 C 56 24 51 24 49 20 C 42 10 40 9 28 10 C 4 12 4 12 7 49 C 7 64 8 105 8 141 C 7 213 7 211 13 214 C 19 217 48 217 49 213 C 50 212 50 196 50 180 C 49 74 49 63 52 57 C 54 55 55 51 55 51 C 55 48 66 43 72 43 C 81 43 87 46 92 56 C 94 61 94 61 94 135 C 94 220 93 213 106 212 C 110 212 118 212 126 213 C 134 213 138 213 139 212 C 141 211 140 55 138 43 C 134 26 127 16 114 10 C 105 7 86 7 78 9 z" fill="black"/><!-- width=153 height=225 -->
<path id="gl4625" d="M 28 7 C 23 9 22 14 23 37 C 23 45 23 52 24 60 C 23 61 22 62 20 63 C 19 64 17 67 15 67 C 9 67 7 72 7 80 C 7 91 8 95 15 97 C 24 101 24 97 24 176 C 24 255 24 253 31 260 C 39 268 45 270 64 270 C 84 270 86 269 89 263 C 90 255 89 238 86 237 C 86 237 83 237 79 236 C 67 231 68 236 68 165 C 68 145 67 124 67 104 C 68 102 69 101 71 100 C 73 97 75 97 79 97 C 86 97 89 94 89 80 C 89 69 86 68 79 67 C 68 64 68 63 68 36 C 69 8 69 9 55 7 C 44 6 30 6 28 7 z" fill="black"/><!-- width=100 height=282 -->
<path id="gl4628" d="M 52 8 C 34 13 20 23 14 40 C 5 61 7 154 15 182 C 22 206 41 216 80 217 C 119 220 144 196 145 158 C 145 147 142 146 120 147 C 101 147 101 147 100 161 C 97 181 92 186 76 186 C 64 186 58 183 54 172 C 50 163 48 132 52 126 C 54 121 60 117 65 119 C 67 119 84 120 102 120 C 138 122 141 121 144 116 C 145 113 145 89 144 73 C 140 33 134 21 114 11 C 110 10 107 8 103 7 C 96 7 89 7 83 7 C 65 7 60 7 52 8 M 89 40 C 98 45 102 55 101 73 C 101 82 101 83 97 86 C 96 88 95 89 92 90 C 88 90 82 90 76 90 C 52 90 50 88 50 69 C 50 47 58 38 76 38 C 80 38 84 38 89 40 z" fill="black"/><!-- width=156 height=231 -->
<path id="gl5646" d="M 84 7 C 73 8 72 9 66 16 C 55 28 52 30 48 22 C 43 15 45 16 25 14 C 16 13 9 15 7 19 C 6 21 6 27 7 57 C 7 76 7 120 7 152 C 7 204 8 211 9 212 C 13 216 43 217 46 213 C 48 213 49 212 49 212 C 49 187 49 162 49 138 C 49 69 49 63 51 58 C 60 40 82 42 91 60 C 93 66 93 92 93 177 C 92 211 93 218 97 217 C 97 217 106 216 116 216 C 139 214 140 213 139 199 C 139 194 138 160 138 122 C 135 42 135 39 132 32 C 127 21 120 15 109 12 C 105 10 100 9 99 8 C 94 6 94 6 84 7 z" fill="black"/><!-- width=148 height=225 -->
<path id="gl4625" d="M 28 7 C 23 9 22 14 23 37 C 23 45 23 52 24 60 C 23 61 22 62 20 63 C 19 64 17 67 15 67 C 9 67 7 72 7 80 C 7 91 8 95 15 97 C 24 101 24 97 24 176 C 24 255 24 253 31 260 C 39 268 45 270 64 270 C 84 270 86 269 89 263 C 90 255 89 238 86 237 C 86 237 83 237 79 236 C 67 231 68 236 68 165 C 68 145 67 124 67 104 C 68 102 69 101 71 100 C 73 97 75 97 79 97 C 86 97 89 94 89 80 C 89 69 86 68 79 67 C 68 64 68 63 68 36 C 69 8 69 9 55 7 C 44 6 30 6 28 7 z" fill="black"/><!-- width=100 height=282 -->
<path id="gl4633" d="M 52 8 C 15 13 -1 46 14 85 C 20 99 37 116 56 127 C 68 134 86 147 89 151 C 95 160 95 173 89 182 C 85 187 80 189 70 189 C 56 189 51 183 50 165 C 49 149 49 149 27 151 C 4 151 2 153 9 177 C 17 211 41 224 83 218 C 123 213 140 195 137 158 C 136 135 129 127 77 92 C 57 79 55 75 52 71 C 44 55 55 38 73 39 C 85 40 92 46 93 61 C 94 71 95 71 117 73 C 133 73 135 71 136 70 C 140 65 137 47 130 35 C 127 29 116 17 112 17 C 112 17 110 16 110 15 C 103 9 75 5 52 8 z" fill="black"/><!-- width=149 height=231 -->
</defs>
<use xlink:href="#gl5643" x="0" y="0"/>
<use xlink:href="#gl5644" x="268" y="71"/>
<use xlink:href="#gl5645" x="523" y="71"/>
<use xlink:href="#gl4625" x="754" y="16"/>
<use xlink:href="#gl4628" x="936" y="70"/>
<use xlink:href="#gl5646" x="1190" y="67"/>
<use xlink:href="#gl4625" x="1423" y="15"/>
<use xlink:href="#gl4633" x="1596" y="66"/>
</svg>