<svg xmlns="http://www.w3.org/2000/svg" xmlns:xlink="http://www.w3.org/1999/xlink" width="624px" height="23px" viewBox="0 0 6244 233" version="1.1">
<defs>
<path id="gl23830" d="M 68 7 C 66 9 63 13 49 32 C 46 34 42 42 36 46 C 31 52 26 60 24 62 C 22 66 18 72 14 75 C 0 90 3 99 22 96 C 32 94 52 96 56 97 C 60 99 60 102 60 124 C 58 135 60 139 61 140 C 64 142 72 142 75 139 C 76 138 78 138 79 136 C 79 129 79 123 79 117 C 79 110 78 104 78 97 C 79 97 80 97 81 96 C 84 96 87 96 90 96 C 96 97 104 93 104 90 C 104 85 99 82 90 82 C 78 81 78 85 79 43 C 79 15 79 7 78 6 C 75 3 72 3 68 7 M 60 61 C 60 66 60 72 61 78 C 60 79 58 79 57 80 C 55 82 52 82 42 82 C 25 82 24 80 32 70 C 39 61 40 58 45 51 C 51 43 52 43 56 43 C 58 43 58 44 60 61 z" fill="black"/><!-- width=111 height=150 -->
<path id="gl516" d="M 15 7 C 2 11 5 31 18 31 C 30 31 35 18 27 10 C 24 9 23 7 22 7 C 22 7 20 6 19 6 C 19 6 17 6 15 7 z" fill="black"/><!-- width=44 height=43 -->
<path id="gl5662" d="M 7 7 C 3 9 6 12 10 14 C 13 15 15 18 18 19 C 18 20 19 21 20 23 C 20 41 20 59 20 78 C 21 140 20 141 12 145 C 6 147 4 150 7 152 C 8 153 102 155 106 153 C 108 152 112 145 116 136 C 118 127 118 124 114 122 C 111 119 108 120 102 130 C 95 141 91 142 75 144 C 52 145 41 140 41 128 C 41 124 41 100 41 73 C 42 18 41 19 51 14 C 57 12 58 7 54 6 C 51 4 9 4 7 7 z" fill="black"/><!-- width=128 height=164 -->
<path id="gl5" d="M 38 7 C 19 13 8 30 8 56 C 8 80 20 96 42 99 C 55 101 71 96 78 89 C 85 79 80 76 69 82 C 49 91 24 76 24 51 C 24 40 24 40 53 40 C 61 40 69 40 78 40 C 78 39 79 38 80 36 C 84 33 84 28 80 22 C 74 8 56 2 38 7 M 57 15 C 65 20 65 28 57 30 C 52 33 35 33 33 30 C 30 28 30 25 34 22 C 40 14 50 12 57 15 z" fill="black"/><!-- width=94 height=112 -->
<path id="gl7" d="M 37 6 C 18 9 1 26 4 33 C 8 41 19 36 24 26 C 26 19 31 16 36 16 C 47 16 50 22 50 36 C 50 47 48 49 33 54 C 9 60 2 68 4 83 C 7 98 23 104 39 95 C 42 94 46 92 48 90 C 50 92 54 94 57 95 C 65 100 72 101 78 96 C 87 93 87 88 78 87 C 68 85 65 79 68 54 C 69 23 68 13 58 8 C 52 4 43 3 37 6 M 48 62 C 57 70 48 88 34 88 C 17 88 18 68 37 62 C 44 58 44 58 48 62 z" fill="black"/><!-- width=94 height=110 -->
<path id="gl4" d="M 16 9 C 8 13 7 16 12 24 C 13 28 14 32 14 54 C 14 80 13 86 8 87 C 6 90 3 94 4 95 C 7 99 44 99 45 95 C 47 92 44 90 40 90 C 39 90 37 87 35 86 C 34 85 33 84 32 84 C 32 74 32 65 32 56 C 32 29 32 29 34 26 C 38 22 43 22 49 24 C 59 28 66 24 66 17 C 66 4 55 2 44 11 C 37 16 34 14 32 9 C 29 4 26 3 16 9 z" fill="black"/><!-- width=76 height=108 -->
<path id="gl3" d="M 20 8 C 10 13 8 16 13 23 C 16 27 16 28 16 50 C 17 79 16 83 10 89 C 2 96 3 98 25 99 C 46 99 49 96 40 88 C 39 86 36 85 35 84 C 35 75 35 66 35 57 C 33 23 36 20 54 20 C 73 20 75 23 75 56 C 74 83 74 85 67 89 C 64 93 64 96 67 98 C 71 99 101 99 104 98 C 105 95 104 91 99 89 C 94 85 94 83 93 52 C 93 25 93 23 90 18 C 81 3 67 2 44 12 C 39 13 39 13 36 10 C 31 5 27 5 20 8 z" fill="black"/><!-- width=115 height=110 -->
<path id="gl2" d="M 18 4 C 11 8 9 19 14 25 C 27 37 43 19 32 7 C 28 3 23 3 18 4 M 18 61 C 9 66 8 70 13 79 C 14 82 16 85 14 110 C 14 119 14 128 14 137 C 13 139 12 140 9 142 C 4 148 4 148 7 150 C 8 152 12 152 24 152 C 45 152 48 150 39 140 C 37 139 35 138 34 137 C 34 124 34 112 34 100 C 34 79 33 61 33 60 C 32 58 25 58 18 61 z" fill="black"/><!-- width=54 height=163 -->
<path id="gl3" d="M 20 8 C 10 13 8 16 13 23 C 16 27 16 28 16 50 C 17 79 16 83 10 89 C 2 96 3 98 25 99 C 46 99 49 96 40 88 C 39 86 36 85 35 84 C 35 75 35 66 35 57 C 33 23 36 20 54 20 C 73 20 75 23 75 56 C 74 83 74 85 67 89 C 64 93 64 96 67 98 C 71 99 101 99 104 98 C 105 95 104 91 99 89 C 94 85 94 83 93 52 C 93 25 93 23 90 18 C 81 3 67 2 44 12 C 39 13 39 13 36 10 C 31 5 27 5 20 8 z" fill="black"/><!-- width=115 height=110 -->
<path id="gl10008" d="M 35 4 C 34 4 32 6 29 6 C 8 12 1 39 16 59 C 20 66 20 67 14 75 C 6 82 6 87 13 94 C 20 102 20 103 13 112 C 3 121 2 128 7 137 C 18 162 72 158 89 131 C 98 119 98 102 89 94 C 82 87 82 87 55 87 C 48 87 39 87 30 87 C 30 86 29 84 28 83 C 20 75 27 68 44 68 C 67 66 77 57 80 36 C 81 27 82 23 89 23 C 93 23 98 19 98 18 C 98 13 94 12 84 12 C 75 12 71 11 65 8 C 57 6 39 3 35 4 M 50 16 C 62 19 66 46 55 56 C 43 66 27 55 27 36 C 27 20 38 11 50 16 M 71 104 C 80 108 83 120 77 129 C 66 144 33 145 24 131 C 19 123 22 110 30 105 C 35 102 64 100 71 104 z" fill="black"/><!-- width=107 height=163 -->
<path id="gl1" d="M 20 11 C 18 13 14 17 11 19 C 4 23 4 25 8 30 C 11 31 12 34 13 35 C 13 36 13 50 13 66 C 13 96 14 103 23 106 C 34 111 54 109 57 103 C 61 98 58 95 49 96 C 33 96 31 94 31 58 C 30 28 30 29 42 29 C 55 30 57 30 60 28 C 62 25 62 24 60 22 C 58 18 58 18 47 18 C 35 17 34 17 31 9 C 29 3 24 3 20 11 z" fill="black"/><!-- width=71 height=121 -->
<path id="gl0" d="M 42 6 C 27 8 16 17 10 31 C 5 42 6 67 11 77 C 30 111 83 106 95 68 C 106 31 78 -1 42 6 M 61 18 C 81 28 82 73 63 86 C 45 99 23 78 26 47 C 27 22 42 8 61 18 z" fill="black"/><!-- width=111 height=111 -->
<path id="gl264" d="M 122 6 C 119 7 119 9 122 15 C 125 20 125 20 118 42 C 111 58 109 62 105 60 C 103 59 103 58 96 41 C 87 20 87 19 94 13 C 97 10 98 9 97 8 C 96 6 93 6 77 6 C 60 6 60 6 60 8 C 59 10 62 13 65 17 C 73 23 73 26 65 43 C 55 68 53 68 42 41 C 36 23 36 19 40 14 C 45 7 42 6 24 6 C 2 6 0 7 10 17 C 13 20 17 25 18 27 C 24 41 36 71 40 82 C 41 87 43 93 45 94 C 49 99 54 96 57 86 C 63 65 74 43 77 43 C 81 43 87 60 96 83 C 98 93 101 97 105 96 C 108 96 109 92 115 77 C 116 74 120 65 122 58 C 125 52 130 41 133 35 C 137 25 139 21 144 17 C 152 9 152 9 149 6 C 146 3 127 3 122 6 z" fill="black"/><!-- width=160 height=107 -->
<path id="gl0" d="M 42 6 C 27 8 16 17 10 31 C 5 42 6 67 11 77 C 30 111 83 106 95 68 C 106 31 78 -1 42 6 M 61 18 C 81 28 82 73 63 86 C 45 99 23 78 26 47 C 27 22 42 8 61 18 z" fill="black"/><!-- width=111 height=111 -->
<path id="gl4" d="M 16 9 C 8 13 7 16 12 24 C 13 28 14 32 14 54 C 14 80 13 86 8 87 C 6 90 3 94 4 95 C 7 99 44 99 45 95 C 47 92 44 90 40 90 C 39 90 37 87 35 86 C 34 85 33 84 32 84 C 32 74 32 65 32 56 C 32 29 32 29 34 26 C 38 22 43 22 49 24 C 59 28 66 24 66 17 C 66 4 55 2 44 11 C 37 16 34 14 32 9 C 29 4 26 3 16 9 z" fill="black"/><!-- width=76 height=108 -->
<path id="gl4" d="M 16 9 C 8 13 7 16 12 24 C 13 28 14 32 14 54 C 14 80 13 86 8 87 C 6 90 3 94 4 95 C 7 99 44 99 45 95 C 47 92 44 90 40 90 C 39 90 37 87 35 86 C 34 85 33 84 32 84 C 32 74 32 65 32 56 C 32 29 32 29 34 26 C 38 22 43 22 49 24 C 59 28 66 24 66 17 C 66 4 55 2 44 11 C 37 16 34 14 32 9 C 29 4 26 3 16 9 z" fill="black"/><!-- width=76 height=108 -->
<path id="gl263" d="M 9 4 C 4 7 4 9 9 16 C 16 22 17 22 26 46 C 41 86 42 89 33 107 C 27 119 23 123 16 125 C 3 129 2 144 14 147 C 24 149 29 142 53 88 C 57 79 63 67 66 62 C 69 56 74 44 78 37 C 82 29 87 22 91 17 C 100 7 99 3 82 3 C 67 3 63 6 69 14 C 72 19 72 22 66 38 C 58 58 57 61 53 61 C 49 61 47 57 41 39 C 36 23 36 19 38 13 C 41 9 41 8 38 7 C 36 4 14 3 9 4 z" fill="black"/><!-- width=107 height=157 -->
<path id="gl512" d="M 20 8 C 9 13 7 17 13 24 C 14 26 15 27 17 29 C 17 48 17 69 17 88 C 17 108 17 127 17 148 C 14 149 13 152 10 153 C 4 159 4 161 7 163 C 9 164 42 164 43 163 C 47 161 46 158 41 154 C 34 149 34 149 35 76 C 35 -1 36 1 20 8 z" fill="black"/><!-- width=55 height=175 -->
<path id="gl5391" d="M 36 5 C 17 12 7 26 6 49 C 3 78 20 98 46 98 C 65 98 88 83 79 75 C 78 73 71 75 70 76 C 70 78 66 80 64 81 C 45 89 22 73 21 49 C 21 39 21 39 47 39 C 79 40 83 39 80 25 C 78 10 54 0 36 5 M 58 16 C 61 20 63 23 60 27 C 56 31 30 31 27 27 C 22 18 47 8 58 16 z" fill="black"/><!-- width=92 height=109 -->
<path id="gl514" d="M 28 6 C 17 9 9 18 9 29 C 9 41 13 46 32 57 C 47 67 50 73 46 82 C 39 93 26 90 17 77 C 13 70 12 69 9 70 C 6 70 6 70 6 78 C 6 93 12 96 31 96 C 52 96 62 89 63 74 C 64 60 58 52 41 42 C 27 34 23 28 27 21 C 31 11 41 11 50 21 C 59 29 64 29 63 18 C 62 8 55 4 42 4 C 37 4 31 4 28 6 z" fill="black"/><!-- width=75 height=108 -->
<path id="gl514" d="M 28 6 C 17 9 9 18 9 29 C 9 41 13 46 32 57 C 47 67 50 73 46 82 C 39 93 26 90 17 77 C 13 70 12 69 9 70 C 6 70 6 70 6 78 C 6 93 12 96 31 96 C 52 96 62 89 63 74 C 64 60 58 52 41 42 C 27 34 23 28 27 21 C 31 11 41 11 50 21 C 59 29 64 29 63 18 C 62 8 55 4 42 4 C 37 4 31 4 28 6 z" fill="black"/><!-- width=75 height=108 -->
<path id="gl8710" d="M 20 7 C 10 12 10 14 14 21 C 15 24 16 26 18 27 C 18 37 16 46 16 55 C 16 85 16 85 9 89 C 4 91 4 91 7 95 C 8 97 37 97 43 96 C 48 93 46 92 40 86 C 39 85 37 84 36 83 C 36 73 36 64 36 55 C 36 46 36 37 36 28 C 37 26 38 25 40 24 C 48 15 62 14 69 22 C 72 24 73 25 74 27 C 74 34 74 43 74 51 C 75 83 75 84 69 87 C 58 93 62 96 84 97 C 108 98 110 97 99 86 C 98 85 96 83 93 81 C 93 73 93 63 93 55 C 93 30 95 28 97 25 C 104 16 119 15 128 22 C 133 27 133 32 133 61 C 132 68 132 75 132 84 C 131 85 129 86 127 87 C 122 92 122 93 126 96 C 129 98 161 98 163 96 C 167 93 166 91 161 89 C 152 85 152 83 151 54 C 151 16 150 12 137 6 C 127 2 109 4 105 9 C 104 10 101 12 97 13 C 96 14 93 15 91 16 C 90 15 89 14 87 13 C 74 3 64 1 51 7 C 40 13 38 12 36 7 C 33 1 28 1 20 7 z" fill="black"/><!-- width=173 height=107 -->
<path id="gl5391" d="M 36 5 C 17 12 7 26 6 49 C 3 78 20 98 46 98 C 65 98 88 83 79 75 C 78 73 71 75 70 76 C 70 78 66 80 64 81 C 45 89 22 73 21 49 C 21 39 21 39 47 39 C 79 40 83 39 80 25 C 78 10 54 0 36 5 M 58 16 C 61 20 63 23 60 27 C 56 31 30 31 27 27 C 22 18 47 8 58 16 z" fill="black"/><!-- width=92 height=109 -->
<path id="gl7" d="M 37 6 C 18 9 1 26 4 33 C 8 41 19 36 24 26 C 26 19 31 16 36 16 C 47 16 50 22 50 36 C 50 47 48 49 33 54 C 9 60 2 68 4 83 C 7 98 23 104 39 95 C 42 94 46 92 48 90 C 50 92 54 94 57 95 C 65 100 72 101 78 96 C 87 93 87 88 78 87 C 68 85 65 79 68 54 C 69 23 68 13 58 8 C 52 4 43 3 37 6 M 48 62 C 57 70 48 88 34 88 C 17 88 18 68 37 62 C 44 58 44 58 48 62 z" fill="black"/><!-- width=94 height=110 -->
<path id="gl3" d="M 20 8 C 10 13 8 16 13 23 C 16 27 16 28 16 50 C 17 79 16 83 10 89 C 2 96 3 98 25 99 C 46 99 49 96 40 88 C 39 86 36 85 35 84 C 35 75 35 66 35 57 C 33 23 36 20 54 20 C 73 20 75 23 75 56 C 74 83 74 85 67 89 C 64 93 64 96 67 98 C 71 99 101 99 104 98 C 105 95 104 91 99 89 C 94 85 94 83 93 52 C 93 25 93 23 90 18 C 81 3 67 2 44 12 C 39 13 39 13 36 10 C 31 5 27 5 20 8 z" fill="black"/><!-- width=115 height=110 -->
<path id="gl257" d="M 31 6 C 24 8 17 13 13 20 C 6 35 11 45 33 58 C 48 69 52 77 45 85 C 37 94 25 91 19 80 C 11 66 3 67 6 82 C 7 93 13 99 28 100 C 53 104 72 83 62 62 C 60 55 56 52 42 44 C 26 34 22 26 30 18 C 37 12 46 14 53 24 C 60 33 67 29 64 18 C 62 7 50 3 31 6 z" fill="black"/><!-- width=78 height=112 -->
<path id="gl513" d="M 14 8 C 4 12 3 15 8 24 C 9 25 10 27 12 30 C 12 51 12 72 12 94 C 10 165 10 160 20 161 C 24 162 31 164 37 165 C 72 172 101 146 98 111 C 96 82 71 63 45 72 C 30 78 28 76 30 49 C 31 14 31 9 30 7 C 27 4 21 4 14 8 M 56 85 C 70 90 77 101 77 118 C 78 141 68 155 50 155 C 35 155 30 147 30 118 C 28 106 30 94 30 92 C 32 83 43 80 56 85 z" fill="black"/><!-- width=112 height=177 -->
<path id="gl261" d="M 39 6 C 18 10 7 26 7 54 C 7 73 9 79 18 87 C 32 102 63 102 75 87 C 83 80 76 76 67 81 C 46 92 23 75 21 51 C 21 40 23 39 50 40 C 76 41 80 40 81 30 C 81 13 59 1 39 6 M 54 15 C 62 18 62 28 54 30 C 50 32 34 32 30 31 C 28 29 28 25 32 20 C 37 14 46 12 54 15 z" fill="black"/><!-- width=91 height=111 -->
<path id="gl777" d="M 44 6 C 29 9 18 17 12 29 C 3 48 7 75 19 86 C 37 103 68 101 83 85 C 91 75 85 68 75 75 C 68 81 65 83 55 83 C 31 83 16 55 28 32 C 37 13 55 11 72 23 C 79 31 89 21 84 11 C 80 4 58 2 44 6 z" fill="black"/><!-- width=98 height=110 -->
<path id="gl0" d="M 42 6 C 27 8 16 17 10 31 C 5 42 6 67 11 77 C 30 111 83 106 95 68 C 106 31 78 -1 42 6 M 61 18 C 81 28 82 73 63 86 C 45 99 23 78 26 47 C 27 22 42 8 61 18 z" fill="black"/><!-- width=111 height=111 -->
<path id="gl259" d="M 19 8 C 9 13 8 16 13 25 C 19 38 17 88 9 88 C 9 88 8 91 7 92 C 3 98 6 100 24 100 C 46 100 48 98 40 88 C 39 87 37 86 35 83 C 35 75 35 66 35 58 C 34 29 35 27 43 22 C 49 18 62 19 69 24 C 74 29 74 34 74 55 C 74 79 74 83 69 88 C 65 92 64 97 66 98 C 66 98 74 100 83 100 C 104 100 107 97 98 88 C 97 87 95 86 93 83 C 93 75 93 66 93 58 C 93 33 93 32 96 28 C 102 17 123 17 129 29 C 132 33 132 37 132 56 C 132 81 132 85 125 88 C 122 92 122 97 124 98 C 128 100 158 100 160 97 C 163 96 163 93 158 90 C 151 85 150 82 150 55 C 150 28 150 23 145 16 C 137 3 118 2 101 12 C 93 17 90 17 83 13 C 72 4 64 3 51 8 C 40 13 38 13 35 9 C 32 4 28 4 19 8 z" fill="black"/><!-- width=172 height=109 -->
<path id="gl2" d="M 18 4 C 11 8 9 19 14 25 C 27 37 43 19 32 7 C 28 3 23 3 18 4 M 18 61 C 9 66 8 70 13 79 C 14 82 16 85 14 110 C 14 119 14 128 14 137 C 13 139 12 140 9 142 C 4 148 4 148 7 150 C 8 152 12 152 24 152 C 45 152 48 150 39 140 C 37 139 35 138 34 137 C 34 124 34 112 34 100 C 34 79 33 61 33 60 C 32 58 25 58 18 61 z" fill="black"/><!-- width=54 height=163 -->
<path id="gl3" d="M 20 8 C 10 13 8 16 13 23 C 16 27 16 28 16 50 C 17 79 16 83 10 89 C 2 96 3 98 25 99 C 46 99 49 96 40 88 C 39 86 36 85 35 84 C 35 75 35 66 35 57 C 33 23 36 20 54 20 C 73 20 75 23 75 56 C 74 83 74 85 67 89 C 64 93 64 96 67 98 C 71 99 101 99 104 98 C 105 95 104 91 99 89 C 94 85 94 83 93 52 C 93 25 93 23 90 18 C 81 3 67 2 44 12 C 39 13 39 13 36 10 C 31 5 27 5 20 8 z" fill="black"/><!-- width=115 height=110 -->
<path id="gl1795" d="M 33 7 C 10 14 1 40 16 60 C 22 67 22 72 16 76 C 7 82 7 88 15 97 C 21 104 20 106 14 114 C 7 122 6 123 6 131 C 6 167 76 167 94 131 C 98 122 98 108 96 102 C 90 91 80 87 54 88 C 34 90 30 88 27 82 C 25 74 31 70 46 69 C 69 68 79 58 81 38 C 82 30 85 26 92 25 C 96 24 97 22 98 20 C 100 15 96 13 84 13 C 78 13 73 12 66 9 C 55 6 42 4 33 7 M 56 20 C 70 32 62 63 45 61 C 32 60 25 42 31 26 C 36 15 48 13 56 20 M 70 105 C 82 109 85 125 75 135 C 61 150 28 146 25 129 C 22 120 26 111 34 106 C 39 104 62 104 70 105 z" fill="black"/><!-- width=109 height=168 -->
<path id="gl260" d="M 15 7 C 7 11 6 14 11 22 C 11 23 12 25 13 27 C 13 45 13 63 13 82 C 14 147 14 147 8 153 C 1 160 3 163 23 163 C 41 163 44 160 36 152 C 35 151 33 149 31 147 C 31 124 31 100 31 77 C 31 2 31 3 25 3 C 24 3 19 6 15 7 z" fill="black"/><!-- width=51 height=172 -->
<path id="gl8459" d="M 41 3 C 15 11 2 36 8 66 C 14 95 53 107 77 87 C 87 77 80 69 71 77 C 51 90 24 75 23 50 C 22 39 22 39 52 39 C 82 39 83 37 83 28 C 82 13 60 0 41 3 M 57 15 C 62 19 62 25 58 28 C 55 30 33 30 30 28 C 28 25 28 23 33 19 C 41 13 51 12 57 15 z" fill="black"/><!-- width=94 height=107 -->
<path id="gl515" d="M 32 6 C 12 9 3 27 13 43 C 16 48 22 53 33 59 C 42 64 45 70 45 76 C 45 94 28 95 17 79 C 9 68 6 68 6 79 C 6 91 11 96 22 97 C 51 102 71 82 60 60 C 56 55 51 50 40 44 C 27 35 23 29 27 22 C 30 12 40 12 50 22 C 58 29 63 29 63 21 C 63 8 51 3 32 6 z" fill="black"/><!-- width=74 height=110 -->
<path id="gl514" d="M 28 6 C 17 9 9 18 9 29 C 9 41 13 46 32 57 C 47 67 50 73 46 82 C 39 93 26 90 17 77 C 13 70 12 69 9 70 C 6 70 6 70 6 78 C 6 93 12 96 31 96 C 52 96 62 89 63 74 C 64 60 58 52 41 42 C 27 34 23 28 27 21 C 31 11 41 11 50 21 C 59 29 64 29 63 18 C 62 8 55 4 42 4 C 37 4 31 4 28 6 z" fill="black"/><!-- width=75 height=108 -->
<path id="gl4" d="M 16 9 C 8 13 7 16 12 24 C 13 28 14 32 14 54 C 14 80 13 86 8 87 C 6 90 3 94 4 95 C 7 99 44 99 45 95 C 47 92 44 90 40 90 C 39 90 37 87 35 86 C 34 85 33 84 32 84 C 32 74 32 65 32 56 C 32 29 32 29 34 26 C 38 22 43 22 49 24 C 59 28 66 24 66 17 C 66 4 55 2 44 11 C 37 16 34 14 32 9 C 29 4 26 3 16 9 z" fill="black"/><!-- width=76 height=108 -->
<path id="gl520" d="M 40 6 C 18 13 7 31 8 59 C 8 87 23 102 49 102 C 67 102 89 87 81 79 C 78 77 77 77 70 82 C 49 94 27 79 23 52 C 22 49 23 46 24 44 C 25 43 27 43 28 41 C 34 41 40 41 47 41 C 77 43 84 41 84 31 C 84 14 59 1 40 6 M 60 19 C 63 22 63 28 60 30 C 56 33 33 33 30 30 C 27 27 31 20 41 15 C 46 14 56 15 60 19 z" fill="black"/><!-- width=94 height=113 -->
<path id="gl515" d="M 32 6 C 12 9 3 27 13 43 C 16 48 22 53 33 59 C 42 64 45 70 45 76 C 45 94 28 95 17 79 C 9 68 6 68 6 79 C 6 91 11 96 22 97 C 51 102 71 82 60 60 C 56 55 51 50 40 44 C 27 35 23 29 27 22 C 30 12 40 12 50 22 C 58 29 63 29 63 21 C 63 8 51 3 32 6 z" fill="black"/><!-- width=74 height=110 -->
<path id="gl1024" d="M 15 8 C 8 14 7 17 9 24 C 12 30 13 31 13 83 C 13 102 13 120 13 138 C 12 139 10 142 9 143 C 3 153 6 155 25 155 C 43 155 47 153 37 145 C 32 140 30 136 30 120 C 30 102 31 100 44 100 C 77 100 100 76 98 43 C 97 14 72 0 46 9 C 36 13 35 13 31 8 C 27 4 21 4 15 8 M 60 21 C 89 31 82 89 51 89 C 43 89 35 86 32 81 C 30 76 30 35 31 29 C 35 20 47 17 60 21 z" fill="black"/><!-- width=109 height=165 -->
<path id="gl0" d="M 42 6 C 27 8 16 17 10 31 C 5 42 6 67 11 77 C 30 111 83 106 95 68 C 106 31 78 -1 42 6 M 61 18 C 81 28 82 73 63 86 C 45 99 23 78 26 47 C 27 22 42 8 61 18 z" fill="black"/><!-- width=111 height=111 -->
<path id="gl3" d="M 20 8 C 10 13 8 16 13 23 C 16 27 16 28 16 50 C 17 79 16 83 10 89 C 2 96 3 98 25 99 C 46 99 49 96 40 88 C 39 86 36 85 35 84 C 35 75 35 66 35 57 C 33 23 36 20 54 20 C 73 20 75 23 75 56 C 74 83 74 85 67 89 C 64 93 64 96 67 98 C 71 99 101 99 104 98 C 105 95 104 91 99 89 C 94 85 94 83 93 52 C 93 25 93 23 90 18 C 81 3 67 2 44 12 C 39 13 39 13 36 10 C 31 5 27 5 20 8 z" fill="black"/><!-- width=115 height=110 -->
<path id="gl514" d="M 28 6 C 17 9 9 18 9 29 C 9 41 13 46 32 57 C 47 67 50 73 46 82 C 39 93 26 90 17 77 C 13 70 12 69 9 70 C 6 70 6 70 6 78 C 6 93 12 96 31 96 C 52 96 62 89 63 74 C 64 60 58 52 41 42 C 27 34 23 28 27 21 C 31 11 41 11 50 21 C 59 29 64 29 63 18 C 62 8 55 4 42 4 C 37 4 31 4 28 6 z" fill="black"/><!-- width=75 height=108 -->
<path id="gl2" d="M 18 4 C 11 8 9 19 14 25 C 27 37 43 19 32 7 C 28 3 23 3 18 4 M 18 61 C 9 66 8 70 13 79 C 14 82 16 85 14 110 C 14 119 14 128 14 137 C 13 139 12 140 9 142 C 4 148 4 148 7 150 C 8 152 12 152 24 152 C 45 152 48 150 39 140 C 37 139 35 138 34 137 C 34 124 34 112 34 100 C 34 79 33 61 33 60 C 32 58 25 58 18 61 z" fill="black"/><!-- width=54 height=163 -->
<path id="gl513" d="M 14 8 C 4 12 3 15 8 24 C 9 25 10 27 12 30 C 12 51 12 72 12 94 C 10 165 10 160 20 161 C 24 162 31 164 37 165 C 72 172 101 146 98 111 C 96 82 71 63 45 72 C 30 78 28 76 30 49 C 31 14 31 9 30 7 C 27 4 21 4 14 8 M 56 85 C 70 90 77 101 77 118 C 78 141 68 155 50 155 C 35 155 30 147 30 118 C 28 106 30 94 30 92 C 32 83 43 80 56 85 z" fill="black"/><!-- width=112 height=177 -->
<path id="gl512" d="M 20 8 C 9 13 7 17 13 24 C 14 26 15 27 17 29 C 17 48 17 69 17 88 C 17 108 17 127 17 148 C 14 149 13 152 10 153 C 4 159 4 161 7 163 C 9 164 42 164 43 163 C 47 161 46 158 41 154 C 34 149 34 149 35 76 C 35 -1 36 1 20 8 z" fill="black"/><!-- width=55 height=175 -->
<path id="gl21260" d="M 39 7 C 13 16 0 46 11 75 C 19 100 59 107 77 88 C 86 80 81 72 70 80 C 50 92 23 76 23 50 C 23 42 24 40 40 42 C 77 43 84 42 84 32 C 84 14 59 1 39 7 M 58 18 C 63 22 63 28 59 30 C 54 33 32 33 30 30 C 23 22 48 11 58 18 z" fill="black"/><!-- width=93 height=111 -->
<path id="gl516" d="M 15 7 C 2 11 5 31 18 31 C 30 31 35 18 27 10 C 24 9 23 7 22 7 C 22 7 20 6 19 6 C 19 6 17 6 15 7 z" fill="black"/><!-- width=44 height=43 -->
<path id="gl1797" d="M 12 7 C 7 10 3 31 6 35 C 8 39 9 38 16 31 C 25 21 29 20 44 20 C 66 19 64 13 64 81 C 64 148 65 142 48 151 C 44 152 43 154 45 157 C 48 160 99 160 101 157 C 103 153 102 152 96 148 C 84 143 85 147 85 82 C 85 62 85 43 85 24 C 87 24 88 22 89 21 C 91 19 93 19 106 20 C 124 20 125 21 134 33 C 137 39 141 39 143 36 C 145 33 146 27 146 20 C 147 7 146 4 139 6 C 136 6 131 7 129 7 C 125 8 102 8 76 8 C 32 8 29 8 22 6 C 14 3 15 3 12 7 z" fill="black"/><!-- width=157 height=169 -->
<path id="gl17667" d="M 8 7 C 6 9 7 12 13 16 C 22 21 22 21 21 81 C 21 142 21 139 11 144 C 6 147 3 152 7 153 C 8 153 19 153 33 153 C 55 154 58 153 59 152 C 61 148 59 147 51 143 C 42 141 42 138 42 111 C 42 82 40 82 63 84 C 79 85 79 85 86 97 C 89 101 90 102 94 100 C 97 97 97 61 94 58 C 91 55 87 56 84 64 C 80 71 76 72 60 74 C 40 74 42 75 42 44 C 42 37 42 29 42 21 C 42 21 43 19 44 18 C 45 17 47 16 48 14 C 53 14 58 16 63 16 C 82 17 86 18 91 27 C 100 40 105 38 103 21 C 103 4 107 4 54 4 C 17 4 8 6 8 7 z" fill="black"/><!-- width=113 height=163 -->
</defs>
<use xlink:href="#gl23830" x="0" y="63"/>
<use xlink:href="#gl516" x="111" y="135"/>
<use xlink:href="#gl5662" x="364" y="12"/>
<use xlink:href="#gl5" x="481" y="66"/>
<use xlink:href="#gl7" x="570" y="67"/>
<use xlink:href="#gl4" x="662" y="67"/>
<use xlink:href="#gl3" x="732" y="66"/>
<use xlink:href="#gl2" x="848" y="11"/>
<use xlink:href="#gl3" x="904" y="65"/>
<use xlink:href="#gl10008" x="1017" y="68"/>
<use xlink:href="#gl1" x="1174" y="58"/>
<use xlink:href="#gl0" x="1239" y="67"/>
<use xlink:href="#gl264" x="1396" y="69"/>
<use xlink:href="#gl0" x="1546" y="67"/>
<use xlink:href="#gl4" x="1658" y="67"/>
<use xlink:href="#gl4" x="1731" y="66"/>
<use xlink:href="#gl263" x="1801" y="70"/>
<use xlink:href="#gl512" x="1955" y="0"/>
<use xlink:href="#gl5391" x="2010" y="69"/>
<use xlink:href="#gl514" x="2095" y="68"/>
<use xlink:href="#gl514" x="2166" y="68"/>
<use xlink:href="#gl8710" x="2294" y="67"/>
<use xlink:href="#gl5391" x="2466" y="68"/>
<use xlink:href="#gl7" x="2555" y="67"/>
<use xlink:href="#gl3" x="2644" y="66"/>
<use xlink:href="#gl257" x="2755" y="67"/>
<use xlink:href="#gl513" x="2885" y="2"/>
<use xlink:href="#gl261" x="2994" y="67"/>
<use xlink:href="#gl777" x="3079" y="68"/>
<use xlink:href="#gl0" x="3169" y="66"/>
<use xlink:href="#gl259" x="3278" y="65"/>
<use xlink:href="#gl2" x="3452" y="11"/>
<use xlink:href="#gl3" x="3508" y="66"/>
<use xlink:href="#gl1795" x="3620" y="65"/>
<use xlink:href="#gl260" x="3777" y="3"/>
<use xlink:href="#gl8459" x="3828" y="69"/>
<use xlink:href="#gl515" x="3916" y="67"/>
<use xlink:href="#gl514" x="3985" y="69"/>
<use xlink:href="#gl4" x="4118" y="66"/>
<use xlink:href="#gl520" x="4182" y="64"/>
<use xlink:href="#gl515" x="4272" y="68"/>
<use xlink:href="#gl1024" x="4346" y="65"/>
<use xlink:href="#gl0" x="4455" y="66"/>
<use xlink:href="#gl3" x="4564" y="65"/>
<use xlink:href="#gl514" x="4676" y="68"/>
<use xlink:href="#gl2" x="4752" y="11"/>
<use xlink:href="#gl513" x="4807" y="1"/>
<use xlink:href="#gl512" x="4914" y="0"/>
<use xlink:href="#gl21260" x="4968" y="66"/>
<use xlink:href="#gl516" x="5062" y="134"/>
<use xlink:href="#gl1797" x="5535" y="6"/>
<use xlink:href="#gl17667" x="6131" y="11"/>
</svg>