<svg xmlns="http://www.w3.org/2000/svg" xmlns:xlink="http://www.w3.org/1999/xlink" width="623px" height="113px" viewBox="0 0 6235 1138" version="1.1">
<defs>
<path id="gl23832" d="M 76 3 C 74 6 72 6 70 6 C 68 6 67 7 66 8 C 64 10 62 10 62 10 C 55 10 26 33 20 44 C 15 51 7 69 7 70 C 7 72 7 75 6 79 C 3 85 3 109 6 114 C 7 115 7 117 7 118 C 7 126 20 140 27 141 C 30 141 33 142 37 144 C 50 148 78 134 84 121 C 84 118 86 116 86 115 C 90 111 90 90 86 84 C 78 67 57 60 43 68 C 32 74 33 78 46 79 C 56 79 62 82 67 92 C 70 99 70 110 66 116 C 66 117 64 118 64 121 C 64 123 62 127 61 128 C 54 135 36 133 30 124 C 27 120 26 116 26 114 C 26 114 25 111 24 109 C 20 102 24 78 30 66 C 32 62 34 56 37 52 C 44 38 78 13 88 12 C 90 12 98 6 98 4 C 98 1 82 1 76 3 z" fill="black"/><!-- width=106 height=154 -->
<path id="gl516" d="M 15 7 C 2 11 5 31 18 31 C 30 31 35 18 27 10 C 24 9 23 7 22 7 C 22 7 20 6 19 6 C 19 6 17 6 15 7 z" fill="black"/><!-- width=44 height=43 -->
<path id="gl1562" d="M 78 4 C 73 6 68 12 65 19 C 64 24 59 38 54 51 C 49 64 41 85 36 100 C 21 138 18 141 9 144 C 4 146 3 149 6 153 C 9 156 42 155 46 151 C 48 149 48 149 43 145 C 37 140 37 138 43 118 C 49 98 49 98 69 97 C 94 95 94 95 102 116 C 108 135 108 140 102 144 C 97 148 95 151 99 154 C 103 155 145 155 148 153 C 150 150 150 146 146 145 C 135 141 133 139 129 133 C 125 125 93 31 88 14 C 87 6 83 3 78 4 M 77 43 C 79 47 89 77 88 80 C 87 85 82 87 72 85 C 56 84 56 83 63 62 C 69 41 72 39 77 43 z" fill="black"/><!-- width=159 height=165 -->
<path id="gl260" d="M 15 7 C 7 11 6 14 11 22 C 11 23 12 25 13 27 C 13 45 13 63 13 82 C 14 147 14 147 8 153 C 1 160 3 163 23 163 C 41 163 44 160 36 152 C 35 151 33 149 31 147 C 31 124 31 100 31 77 C 31 2 31 3 25 3 C 24 3 19 6 15 7 z" fill="black"/><!-- width=51 height=172 -->
<path id="gl1" d="M 20 11 C 18 13 14 17 11 19 C 4 23 4 25 8 30 C 11 31 12 34 13 35 C 13 36 13 50 13 66 C 13 96 14 103 23 106 C 34 111 54 109 57 103 C 61 98 58 95 49 96 C 33 96 31 94 31 58 C 30 28 30 29 42 29 C 55 30 57 30 60 28 C 62 25 62 24 60 22 C 58 18 58 18 47 18 C 35 17 34 17 31 9 C 29 3 24 3 20 11 z" fill="black"/><!-- width=71 height=121 -->
<path id="gl8" d="M 20 8 C 9 12 8 16 13 25 C 14 26 15 29 15 30 C 15 49 15 67 15 87 C 15 148 16 148 9 154 C 6 158 4 159 6 160 C 8 163 41 164 43 162 C 45 160 45 157 41 153 C 38 152 36 148 36 147 C 35 142 35 95 36 93 C 41 84 55 82 64 87 C 75 91 76 95 75 124 C 75 131 75 140 75 148 C 73 150 71 151 70 153 C 64 158 64 158 65 162 C 67 165 104 164 106 160 C 107 158 107 158 104 156 C 94 148 93 145 94 118 C 95 99 94 89 89 82 C 81 71 66 67 52 73 C 36 81 33 78 35 61 C 36 44 36 9 35 7 C 32 4 27 4 20 8 z" fill="black"/><!-- width=117 height=174 -->
<path id="gl0" d="M 42 6 C 27 8 16 17 10 31 C 5 42 6 67 11 77 C 30 111 83 106 95 68 C 106 31 78 -1 42 6 M 61 18 C 81 28 82 73 63 86 C 45 99 23 78 26 47 C 27 22 42 8 61 18 z" fill="black"/><!-- width=111 height=111 -->
<path id="gl256" d="M 16 4 C 4 6 3 9 9 18 C 12 23 13 23 13 49 C 13 63 13 78 14 80 C 18 95 38 101 57 94 C 68 89 68 89 72 94 C 75 98 78 98 93 94 C 105 91 108 88 99 83 C 89 79 89 79 90 42 C 90 23 90 7 90 7 C 89 3 84 3 75 4 C 62 6 59 9 67 16 C 68 18 70 22 70 24 C 73 31 73 69 70 74 C 65 86 41 88 33 77 C 31 72 31 72 31 39 C 31 28 32 17 32 7 C 31 6 29 6 28 4 C 26 2 24 2 16 4 z" fill="black"/><!-- width=114 height=109 -->
<path id="gl1795" d="M 33 7 C 10 14 1 40 16 60 C 22 67 22 72 16 76 C 7 82 7 88 15 97 C 21 104 20 106 14 114 C 7 122 6 123 6 131 C 6 167 76 167 94 131 C 98 122 98 108 96 102 C 90 91 80 87 54 88 C 34 90 30 88 27 82 C 25 74 31 70 46 69 C 69 68 79 58 81 38 C 82 30 85 26 92 25 C 96 24 97 22 98 20 C 100 15 96 13 84 13 C 78 13 73 12 66 9 C 55 6 42 4 33 7 M 56 20 C 70 32 62 63 45 61 C 32 60 25 42 31 26 C 36 15 48 13 56 20 M 70 105 C 82 109 85 125 75 135 C 61 150 28 146 25 129 C 22 120 26 111 34 106 C 39 104 62 104 70 105 z" fill="black"/><!-- width=109 height=168 -->
<path id="gl8" d="M 20 8 C 9 12 8 16 13 25 C 14 26 15 29 15 30 C 15 49 15 67 15 87 C 15 148 16 148 9 154 C 6 158 4 159 6 160 C 8 163 41 164 43 162 C 45 160 45 157 41 153 C 38 152 36 148 36 147 C 35 142 35 95 36 93 C 41 84 55 82 64 87 C 75 91 76 95 75 124 C 75 131 75 140 75 148 C 73 150 71 151 70 153 C 64 158 64 158 65 162 C 67 165 104 164 106 160 C 107 158 107 158 104 156 C 94 148 93 145 94 118 C 95 99 94 89 89 82 C 81 71 66 67 52 73 C 36 81 33 78 35 61 C 36 44 36 9 35 7 C 32 4 27 4 20 8 z" fill="black"/><!-- width=117 height=174 -->
<path id="gl8" d="M 20 8 C 9 12 8 16 13 25 C 14 26 15 29 15 30 C 15 49 15 67 15 87 C 15 148 16 148 9 154 C 6 158 4 159 6 160 C 8 163 41 164 43 162 C 45 160 45 157 41 153 C 38 152 36 148 36 147 C 35 142 35 95 36 93 C 41 84 55 82 64 87 C 75 91 76 95 75 124 C 75 131 75 140 75 148 C 73 150 71 151 70 153 C 64 158 64 158 65 162 C 67 165 104 164 106 160 C 107 158 107 158 104 156 C 94 148 93 145 94 118 C 95 99 94 89 89 82 C 81 71 66 67 52 73 C 36 81 33 78 35 61 C 36 44 36 9 35 7 C 32 4 27 4 20 8 z" fill="black"/><!-- width=117 height=174 -->
<path id="gl2" d="M 18 4 C 11 8 9 19 14 25 C 27 37 43 19 32 7 C 28 3 23 3 18 4 M 18 61 C 9 66 8 70 13 79 C 14 82 16 85 14 110 C 14 119 14 128 14 137 C 13 139 12 140 9 142 C 4 148 4 148 7 150 C 8 152 12 152 24 152 C 45 152 48 150 39 140 C 37 139 35 138 34 137 C 34 124 34 112 34 100 C 34 79 33 61 33 60 C 32 58 25 58 18 61 z" fill="black"/><!-- width=54 height=163 -->
<path id="gl1795" d="M 33 7 C 10 14 1 40 16 60 C 22 67 22 72 16 76 C 7 82 7 88 15 97 C 21 104 20 106 14 114 C 7 122 6 123 6 131 C 6 167 76 167 94 131 C 98 122 98 108 96 102 C 90 91 80 87 54 88 C 34 90 30 88 27 82 C 25 74 31 70 46 69 C 69 68 79 58 81 38 C 82 30 85 26 92 25 C 96 24 97 22 98 20 C 100 15 96 13 84 13 C 78 13 73 12 66 9 C 55 6 42 4 33 7 M 56 20 C 70 32 62 63 45 61 C 32 60 25 42 31 26 C 36 15 48 13 56 20 M 70 105 C 82 109 85 125 75 135 C 61 150 28 146 25 129 C 22 120 26 111 34 106 C 39 104 62 104 70 105 z" fill="black"/><!-- width=109 height=168 -->
<path id="gl8" d="M 20 8 C 9 12 8 16 13 25 C 14 26 15 29 15 30 C 15 49 15 67 15 87 C 15 148 16 148 9 154 C 6 158 4 159 6 160 C 8 163 41 164 43 162 C 45 160 45 157 41 153 C 38 152 36 148 36 147 C 35 142 35 95 36 93 C 41 84 55 82 64 87 C 75 91 76 95 75 124 C 75 131 75 140 75 148 C 73 150 71 151 70 153 C 64 158 64 158 65 162 C 67 165 104 164 106 160 C 107 158 107 158 104 156 C 94 148 93 145 94 118 C 95 99 94 89 89 82 C 81 71 66 67 52 73 C 36 81 33 78 35 61 C 36 44 36 9 35 7 C 32 4 27 4 20 8 z" fill="black"/><!-- width=117 height=174 -->
<path id="gl260" d="M 15 7 C 7 11 6 14 11 22 C 11 23 12 25 13 27 C 13 45 13 63 13 82 C 14 147 14 147 8 153 C 1 160 3 163 23 163 C 41 163 44 160 36 152 C 35 151 33 149 31 147 C 31 124 31 100 31 77 C 31 2 31 3 25 3 C 24 3 19 6 15 7 z" fill="black"/><!-- width=51 height=172 -->
<path id="gl261" d="M 39 6 C 18 10 7 26 7 54 C 7 73 9 79 18 87 C 32 102 63 102 75 87 C 83 80 76 76 67 81 C 46 92 23 75 21 51 C 21 40 23 39 50 40 C 76 41 80 40 81 30 C 81 13 59 1 39 6 M 54 15 C 62 18 62 28 54 30 C 50 32 34 32 30 31 C 28 29 28 25 32 20 C 37 14 46 12 54 15 z" fill="black"/><!-- width=91 height=111 -->
<path id="gl1025" d="M 7 8 C 4 11 4 11 12 17 C 18 23 19 24 26 38 C 28 47 33 59 36 65 C 39 72 42 80 43 84 C 48 102 54 100 62 80 C 67 68 70 60 84 31 C 88 24 90 19 95 16 C 102 11 102 9 99 7 C 97 4 77 4 72 6 C 69 7 69 12 72 16 C 74 19 74 22 68 37 C 62 56 59 63 57 63 C 54 63 51 59 48 51 C 46 46 43 38 42 34 C 38 26 38 18 41 14 C 46 7 42 4 23 4 C 11 4 9 6 7 8 z" fill="black"/><!-- width=110 height=107 -->
<path id="gl261" d="M 39 6 C 18 10 7 26 7 54 C 7 73 9 79 18 87 C 32 102 63 102 75 87 C 83 80 76 76 67 81 C 46 92 23 75 21 51 C 21 40 23 39 50 40 C 76 41 80 40 81 30 C 81 13 59 1 39 6 M 54 15 C 62 18 62 28 54 30 C 50 32 34 32 30 31 C 28 29 28 25 32 20 C 37 14 46 12 54 15 z" fill="black"/><!-- width=91 height=111 -->
<path id="gl260" d="M 15 7 C 7 11 6 14 11 22 C 11 23 12 25 13 27 C 13 45 13 63 13 82 C 14 147 14 147 8 153 C 1 160 3 163 23 163 C 41 163 44 160 36 152 C 35 151 33 149 31 147 C 31 124 31 100 31 77 C 31 2 31 3 25 3 C 24 3 19 6 15 7 z" fill="black"/><!-- width=51 height=172 -->
<path id="gl514" d="M 28 6 C 17 9 9 18 9 29 C 9 41 13 46 32 57 C 47 67 50 73 46 82 C 39 93 26 90 17 77 C 13 70 12 69 9 70 C 6 70 6 70 6 78 C 6 93 12 96 31 96 C 52 96 62 89 63 74 C 64 60 58 52 41 42 C 27 34 23 28 27 21 C 31 11 41 11 50 21 C 59 29 64 29 63 18 C 62 8 55 4 42 4 C 37 4 31 4 28 6 z" fill="black"/><!-- width=75 height=108 -->
<path id="gl0" d="M 42 6 C 27 8 16 17 10 31 C 5 42 6 67 11 77 C 30 111 83 106 95 68 C 106 31 78 -1 42 6 M 61 18 C 81 28 82 73 63 86 C 45 99 23 78 26 47 C 27 22 42 8 61 18 z" fill="black"/><!-- width=111 height=111 -->
<path id="gl5138" d="M 50 6 C 29 12 18 28 16 58 C 14 66 13 71 11 75 C 8 80 7 82 8 84 C 14 92 14 91 14 118 C 14 147 13 148 9 153 C 2 160 6 163 25 163 C 45 163 49 161 40 154 C 33 148 32 144 32 116 C 32 92 32 91 35 88 C 38 86 39 86 46 86 C 55 87 61 85 61 80 C 61 76 58 74 46 74 C 32 74 29 70 34 44 C 39 17 48 12 66 24 C 75 30 84 27 84 18 C 84 7 66 1 50 6 z" fill="black"/><!-- width=92 height=173 -->
<path id="gl7" d="M 37 6 C 18 9 1 26 4 33 C 8 41 19 36 24 26 C 26 19 31 16 36 16 C 47 16 50 22 50 36 C 50 47 48 49 33 54 C 9 60 2 68 4 83 C 7 98 23 104 39 95 C 42 94 46 92 48 90 C 50 92 54 94 57 95 C 65 100 72 101 78 96 C 87 93 87 88 78 87 C 68 85 65 79 68 54 C 69 23 68 13 58 8 C 52 4 43 3 37 6 M 48 62 C 57 70 48 88 34 88 C 17 88 18 68 37 62 C 44 58 44 58 48 62 z" fill="black"/><!-- width=94 height=110 -->
<path id="gl3" d="M 20 8 C 10 13 8 16 13 23 C 16 27 16 28 16 50 C 17 79 16 83 10 89 C 2 96 3 98 25 99 C 46 99 49 96 40 88 C 39 86 36 85 35 84 C 35 75 35 66 35 57 C 33 23 36 20 54 20 C 73 20 75 23 75 56 C 74 83 74 85 67 89 C 64 93 64 96 67 98 C 71 99 101 99 104 98 C 105 95 104 91 99 89 C 94 85 94 83 93 52 C 93 25 93 23 90 18 C 81 3 67 2 44 12 C 39 13 39 13 36 10 C 31 5 27 5 20 8 z" fill="black"/><!-- width=115 height=110 -->
<path id="gl10510" d="M 6 7 C 2 10 5 12 12 16 C 18 20 37 42 38 49 C 40 52 38 55 26 69 C 20 77 16 80 11 83 C 3 86 2 88 3 90 C 5 93 7 94 20 94 C 36 94 38 93 36 86 C 33 81 33 76 37 70 C 45 60 47 60 54 69 C 60 76 60 81 56 85 C 54 88 52 91 54 93 C 55 93 64 94 74 94 C 91 94 94 94 95 91 C 98 89 96 86 91 84 C 84 81 80 77 69 62 C 56 45 56 44 64 33 C 74 21 77 18 85 16 C 99 10 95 3 77 5 C 60 5 60 5 60 13 C 61 31 50 38 42 25 C 38 20 38 18 41 10 C 42 6 41 6 22 5 C 11 5 8 5 6 7 z" fill="black"/><!-- width=105 height=104 -->
<path id="gl2" d="M 18 4 C 11 8 9 19 14 25 C 27 37 43 19 32 7 C 28 3 23 3 18 4 M 18 61 C 9 66 8 70 13 79 C 14 82 16 85 14 110 C 14 119 14 128 14 137 C 13 139 12 140 9 142 C 4 148 4 148 7 150 C 8 152 12 152 24 152 C 45 152 48 150 39 140 C 37 139 35 138 34 137 C 34 124 34 112 34 100 C 34 79 33 61 33 60 C 32 58 25 58 18 61 z" fill="black"/><!-- width=54 height=163 -->
<path id="gl10755" d="M 39 4 C 17 11 6 27 6 53 C 6 77 17 91 37 95 C 52 99 70 94 78 84 C 85 75 78 69 69 77 C 59 84 39 82 31 72 C 23 62 18 45 23 41 C 26 38 27 38 50 38 C 77 39 79 38 82 32 C 86 16 60 0 39 4 M 55 14 C 60 17 63 22 60 27 C 58 29 57 29 43 29 C 27 29 24 28 29 22 C 36 13 47 11 55 14 z" fill="black"/><!-- width=93 height=108 -->
<path id="gl1" d="M 20 11 C 18 13 14 17 11 19 C 4 23 4 25 8 30 C 11 31 12 34 13 35 C 13 36 13 50 13 66 C 13 96 14 103 23 106 C 34 111 54 109 57 103 C 61 98 58 95 49 96 C 33 96 31 94 31 58 C 30 28 30 29 42 29 C 55 30 57 30 60 28 C 62 25 62 24 60 22 C 58 18 58 18 47 18 C 35 17 34 17 31 9 C 29 3 24 3 20 11 z" fill="black"/><!-- width=71 height=121 -->
<path id="gl263" d="M 9 4 C 4 7 4 9 9 16 C 16 22 17 22 26 46 C 41 86 42 89 33 107 C 27 119 23 123 16 125 C 3 129 2 144 14 147 C 24 149 29 142 53 88 C 57 79 63 67 66 62 C 69 56 74 44 78 37 C 82 29 87 22 91 17 C 100 7 99 3 82 3 C 67 3 63 6 69 14 C 72 19 72 22 66 38 C 58 58 57 61 53 61 C 49 61 47 57 41 39 C 36 23 36 19 38 13 C 41 9 41 8 38 7 C 36 4 14 3 9 4 z" fill="black"/><!-- width=107 height=157 -->
<path id="gl0" d="M 42 6 C 27 8 16 17 10 31 C 5 42 6 67 11 77 C 30 111 83 106 95 68 C 106 31 78 -1 42 6 M 61 18 C 81 28 82 73 63 86 C 45 99 23 78 26 47 C 27 22 42 8 61 18 z" fill="black"/><!-- width=111 height=111 -->
<path id="gl5640" d="M 6 6 C 3 8 3 9 9 14 C 17 19 16 19 25 42 C 29 51 34 63 35 66 C 37 70 40 77 42 84 C 45 94 47 96 50 96 C 54 96 55 92 59 81 C 61 76 65 66 69 59 C 72 50 77 39 80 34 C 86 22 89 18 95 14 C 98 12 100 11 98 8 C 98 7 98 6 98 4 C 94 4 89 4 84 4 C 66 4 65 6 70 13 C 71 16 72 17 74 19 C 72 22 71 24 70 28 C 68 33 65 42 63 47 C 59 59 58 61 54 61 C 51 61 49 58 42 37 C 40 30 38 24 35 19 C 37 17 38 16 39 13 C 45 6 43 4 23 4 C 12 4 7 4 6 6 z" fill="black"/><!-- width=110 height=105 -->
<path id="gl10755" d="M 39 4 C 17 11 6 27 6 53 C 6 77 17 91 37 95 C 52 99 70 94 78 84 C 85 75 78 69 69 77 C 59 84 39 82 31 72 C 23 62 18 45 23 41 C 26 38 27 38 50 38 C 77 39 79 38 82 32 C 86 16 60 0 39 4 M 55 14 C 60 17 63 22 60 27 C 58 29 57 29 43 29 C 27 29 24 28 29 22 C 36 13 47 11 55 14 z" fill="black"/><!-- width=93 height=108 -->
<path id="gl4" d="M 16 9 C 8 13 7 16 12 24 C 13 28 14 32 14 54 C 14 80 13 86 8 87 C 6 90 3 94 4 95 C 7 99 44 99 45 95 C 47 92 44 90 40 90 C 39 90 37 87 35 86 C 34 85 33 84 32 84 C 32 74 32 65 32 56 C 32 29 32 29 34 26 C 38 22 43 22 49 24 C 59 28 66 24 66 17 C 66 4 55 2 44 11 C 37 16 34 14 32 9 C 29 4 26 3 16 9 z" fill="black"/><!-- width=76 height=108 -->
<path id="gl5398" d="M 18 7 C 7 10 4 15 10 23 C 12 24 12 25 13 26 C 13 46 13 65 13 85 C 14 150 13 152 7 157 C 4 158 4 159 4 162 C 4 164 6 164 21 165 C 31 165 39 165 41 164 C 43 163 43 159 39 156 C 31 151 31 153 32 76 C 32 -2 34 1 18 7 z" fill="black"/><!-- width=53 height=176 -->
<path id="gl0" d="M 42 6 C 27 8 16 17 10 31 C 5 42 6 67 11 77 C 30 111 83 106 95 68 C 106 31 78 -1 42 6 M 61 18 C 81 28 82 73 63 86 C 45 99 23 78 26 47 C 27 22 42 8 61 18 z" fill="black"/><!-- width=111 height=111 -->
<path id="gl3" d="M 20 8 C 10 13 8 16 13 23 C 16 27 16 28 16 50 C 17 79 16 83 10 89 C 2 96 3 98 25 99 C 46 99 49 96 40 88 C 39 86 36 85 35 84 C 35 75 35 66 35 57 C 33 23 36 20 54 20 C 73 20 75 23 75 56 C 74 83 74 85 67 89 C 64 93 64 96 67 98 C 71 99 101 99 104 98 C 105 95 104 91 99 89 C 94 85 94 83 93 52 C 93 25 93 23 90 18 C 81 3 67 2 44 12 C 39 13 39 13 36 10 C 31 5 27 5 20 8 z" fill="black"/><!-- width=115 height=110 -->
<path id="gl5636" d="M 28 6 C 8 14 1 39 15 60 C 21 67 20 68 13 77 C 10 80 7 84 7 86 C 7 89 13 97 16 100 C 20 103 19 107 13 114 C -3 134 8 155 37 157 C 71 159 96 140 96 114 C 96 94 85 88 54 89 C 33 90 27 89 26 83 C 24 73 28 70 45 70 C 60 68 65 66 72 57 C 77 53 79 43 79 36 C 79 28 82 26 89 24 C 97 21 100 19 96 14 C 94 12 94 10 84 10 C 77 10 72 10 65 8 C 53 3 38 3 28 6 M 54 16 C 61 22 64 37 60 48 C 55 65 37 65 30 49 C 20 28 37 4 54 16 M 71 107 C 77 109 79 113 79 122 C 79 129 79 130 74 134 C 61 148 31 147 24 132 C 19 123 24 109 35 106 C 41 103 64 105 71 107 z" fill="black"/><!-- width=107 height=167 -->
<path id="gl1024" d="M 15 8 C 8 14 7 17 9 24 C 12 30 13 31 13 83 C 13 102 13 120 13 138 C 12 139 10 142 9 143 C 3 153 6 155 25 155 C 43 155 47 153 37 145 C 32 140 30 136 30 120 C 30 102 31 100 44 100 C 77 100 100 76 98 43 C 97 14 72 0 46 9 C 36 13 35 13 31 8 C 27 4 21 4 15 8 M 60 21 C 89 31 82 89 51 89 C 43 89 35 86 32 81 C 30 76 30 35 31 29 C 35 20 47 17 60 21 z" fill="black"/><!-- width=109 height=165 -->
<path id="gl522" d="M 36 8 C 14 14 2 38 7 66 C 9 90 22 101 47 101 C 66 101 85 89 78 79 C 77 77 77 77 72 79 C 61 85 59 87 53 87 C 36 87 21 70 21 53 C 21 42 20 42 49 42 C 58 42 66 43 74 43 C 76 42 77 41 78 39 C 85 32 78 18 65 10 C 58 7 45 6 36 8 M 54 18 C 60 20 62 27 58 31 C 55 35 32 36 29 32 C 26 30 26 27 31 22 C 38 16 47 14 54 18 z" fill="black"/><!-- width=91 height=113 -->
<path id="gl4" d="M 16 9 C 8 13 7 16 12 24 C 13 28 14 32 14 54 C 14 80 13 86 8 87 C 6 90 3 94 4 95 C 7 99 44 99 45 95 C 47 92 44 90 40 90 C 39 90 37 87 35 86 C 34 85 33 84 32 84 C 32 74 32 65 32 56 C 32 29 32 29 34 26 C 38 22 43 22 49 24 C 59 28 66 24 66 17 C 66 4 55 2 44 11 C 37 16 34 14 32 9 C 29 4 26 3 16 9 z" fill="black"/><!-- width=76 height=108 -->
<path id="gl2" d="M 18 4 C 11 8 9 19 14 25 C 27 37 43 19 32 7 C 28 3 23 3 18 4 M 18 61 C 9 66 8 70 13 79 C 14 82 16 85 14 110 C 14 119 14 128 14 137 C 13 139 12 140 9 142 C 4 148 4 148 7 150 C 8 152 12 152 24 152 C 45 152 48 150 39 140 C 37 139 35 138 34 137 C 34 124 34 112 34 100 C 34 79 33 61 33 60 C 32 58 25 58 18 61 z" fill="black"/><!-- width=54 height=163 -->
<path id="gl0" d="M 42 6 C 27 8 16 17 10 31 C 5 42 6 67 11 77 C 30 111 83 106 95 68 C 106 31 78 -1 42 6 M 61 18 C 81 28 82 73 63 86 C 45 99 23 78 26 47 C 27 22 42 8 61 18 z" fill="black"/><!-- width=111 height=111 -->
<path id="gl258" d="M 77 7 C 66 11 65 14 71 25 C 74 32 75 32 75 47 C 75 70 75 69 57 70 C 26 71 11 84 7 112 C 2 148 32 175 62 161 C 69 158 70 158 76 162 C 81 165 81 165 89 164 C 106 161 112 155 101 151 C 99 149 95 148 94 145 C 93 143 93 85 93 35 C 94 26 94 17 94 8 C 93 8 91 7 91 5 C 88 3 85 3 77 7 M 66 82 C 74 87 75 91 74 118 C 74 126 74 134 74 143 C 72 143 71 145 70 145 C 59 156 37 148 29 131 C 16 102 41 68 66 82 z" fill="black"/><!-- width=118 height=176 -->
<path id="gl514" d="M 28 6 C 17 9 9 18 9 29 C 9 41 13 46 32 57 C 47 67 50 73 46 82 C 39 93 26 90 17 77 C 13 70 12 69 9 70 C 6 70 6 70 6 78 C 6 93 12 96 31 96 C 52 96 62 89 63 74 C 64 60 58 52 41 42 C 27 34 23 28 27 21 C 31 11 41 11 50 21 C 59 29 64 29 63 18 C 62 8 55 4 42 4 C 37 4 31 4 28 6 z" fill="black"/><!-- width=75 height=108 -->
<path id="gl777" d="M 44 6 C 29 9 18 17 12 29 C 3 48 7 75 19 86 C 37 103 68 101 83 85 C 91 75 85 68 75 75 C 68 81 65 83 55 83 C 31 83 16 55 28 32 C 37 13 55 11 72 23 C 79 31 89 21 84 11 C 80 4 58 2 44 6 z" fill="black"/><!-- width=98 height=110 -->
<path id="gl23833" d="M 40 2 C 37 3 33 4 31 6 C 28 7 27 7 26 7 C 22 7 8 21 7 26 C 3 37 22 34 26 24 C 31 10 46 8 52 21 C 57 32 54 46 46 46 C 42 48 22 55 14 60 C 4 66 3 81 12 90 C 15 93 27 97 31 94 C 31 94 34 93 38 93 C 40 93 44 91 45 91 C 49 87 52 86 56 90 C 64 96 79 97 86 91 C 91 86 90 84 82 84 C 76 84 75 82 73 79 C 70 78 69 76 68 74 C 69 69 69 64 69 60 C 69 51 70 40 72 36 C 73 22 69 9 63 7 C 61 6 58 4 56 3 C 54 1 49 1 40 2 M 50 57 C 52 58 52 68 50 70 C 49 70 48 73 48 74 C 48 78 42 84 36 84 C 25 84 20 70 28 64 C 38 57 48 54 50 57 z" fill="black"/><!-- width=96 height=105 -->
<path id="gl774" d="M 19 8 C 9 13 8 14 13 25 C 15 31 15 33 15 52 C 15 79 15 81 9 88 C 1 95 3 96 24 96 C 45 97 48 95 40 86 C 34 81 34 78 34 53 C 33 25 36 20 52 20 C 72 19 75 24 74 57 C 74 66 74 73 74 80 C 72 83 70 84 68 86 C 59 95 62 96 84 96 C 106 96 108 95 99 86 C 94 83 92 80 92 77 C 92 74 92 62 92 50 C 92 26 92 25 90 19 C 83 6 64 1 48 9 C 41 13 37 13 35 8 C 31 4 26 4 19 8 z" fill="black"/><!-- width=115 height=106 -->
<path id="gl2" d="M 18 4 C 11 8 9 19 14 25 C 27 37 43 19 32 7 C 28 3 23 3 18 4 M 18 61 C 9 66 8 70 13 79 C 14 82 16 85 14 110 C 14 119 14 128 14 137 C 13 139 12 140 9 142 C 4 148 4 148 7 150 C 8 152 12 152 24 152 C 45 152 48 150 39 140 C 37 139 35 138 34 137 C 34 124 34 112 34 100 C 34 79 33 61 33 60 C 32 58 25 58 18 61 z" fill="black"/><!-- width=54 height=163 -->
<path id="gl3" d="M 20 8 C 10 13 8 16 13 23 C 16 27 16 28 16 50 C 17 79 16 83 10 89 C 2 96 3 98 25 99 C 46 99 49 96 40 88 C 39 86 36 85 35 84 C 35 75 35 66 35 57 C 33 23 36 20 54 20 C 73 20 75 23 75 56 C 74 83 74 85 67 89 C 64 93 64 96 67 98 C 71 99 101 99 104 98 C 105 95 104 91 99 89 C 94 85 94 83 93 52 C 93 25 93 23 90 18 C 81 3 67 2 44 12 C 39 13 39 13 36 10 C 31 5 27 5 20 8 z" fill="black"/><!-- width=115 height=110 -->
<path id="gl5142" d="M 41 6 C 17 13 4 30 7 59 C 8 82 18 96 40 99 C 59 104 88 88 83 78 C 81 75 78 75 71 80 C 50 96 23 78 23 49 C 23 19 48 4 69 22 C 75 28 82 24 82 17 C 82 6 64 1 41 6 z" fill="black"/><!-- width=92 height=112 -->
<path id="gl518" d="M 21 7 C 10 12 7 15 12 22 C 15 27 15 28 15 55 C 15 64 15 73 15 81 C 13 83 12 84 10 86 C 2 94 3 95 25 97 C 44 97 49 97 47 93 C 47 90 46 89 40 86 C 34 85 32 83 32 57 C 32 35 32 28 36 23 C 39 21 46 21 50 23 C 62 30 74 18 65 8 C 60 5 55 5 46 10 C 37 13 36 13 32 8 C 28 3 30 3 21 7 z" fill="black"/><!-- width=78 height=107 -->
<path id="gl5" d="M 38 7 C 19 13 8 30 8 56 C 8 80 20 96 42 99 C 55 101 71 96 78 89 C 85 79 80 76 69 82 C 49 91 24 76 24 51 C 24 40 24 40 53 40 C 61 40 69 40 78 40 C 78 39 79 38 80 36 C 84 33 84 28 80 22 C 74 8 56 2 38 7 M 57 15 C 65 20 65 28 57 30 C 52 33 35 33 33 30 C 30 28 30 25 34 22 C 40 14 50 12 57 15 z" fill="black"/><!-- width=94 height=112 -->
<path id="gl9" d="M 37 7 C 20 12 7 22 7 31 C 7 41 23 38 27 27 C 31 18 37 15 46 17 C 52 20 55 25 55 35 C 56 47 53 48 37 55 C 13 61 7 66 7 78 C 7 96 25 105 43 95 C 52 91 55 91 62 96 C 72 103 95 96 88 88 C 87 87 85 87 82 87 C 71 87 70 81 72 51 C 72 33 72 27 72 22 C 68 8 53 2 37 7 M 53 63 C 58 71 51 86 42 87 C 20 87 21 68 42 61 C 48 60 51 60 53 63 z" fill="black"/><!-- width=98 height=110 -->
<path id="gl257" d="M 31 6 C 24 8 17 13 13 20 C 6 35 11 45 33 58 C 48 69 52 77 45 85 C 37 94 25 91 19 80 C 11 66 3 67 6 82 C 7 93 13 99 28 100 C 53 104 72 83 62 62 C 60 55 56 52 42 44 C 26 34 22 26 30 18 C 37 12 46 14 53 24 C 60 33 67 29 64 18 C 62 7 50 3 31 6 z" fill="black"/><!-- width=78 height=112 -->
<path id="gl5" d="M 38 7 C 19 13 8 30 8 56 C 8 80 20 96 42 99 C 55 101 71 96 78 89 C 85 79 80 76 69 82 C 49 91 24 76 24 51 C 24 40 24 40 53 40 C 61 40 69 40 78 40 C 78 39 79 38 80 36 C 84 33 84 28 80 22 C 74 8 56 2 38 7 M 57 15 C 65 20 65 28 57 30 C 52 33 35 33 33 30 C 30 28 30 25 34 22 C 40 14 50 12 57 15 z" fill="black"/><!-- width=94 height=112 -->
<path id="gl768" d="M 19 11 C 14 16 11 19 11 19 C 7 19 8 24 11 28 C 12 29 13 31 16 33 C 16 42 16 50 16 59 C 16 95 16 99 27 105 C 37 110 59 106 58 99 C 58 95 58 95 49 95 C 33 94 33 91 32 55 C 32 26 32 27 48 27 C 59 28 62 27 62 22 C 62 17 58 14 48 16 C 39 17 33 13 33 9 C 33 7 31 4 28 4 C 27 4 23 7 19 11 z" fill="black"/><!-- width=73 height=117 -->
<path id="gl8" d="M 20 8 C 9 12 8 16 13 25 C 14 26 15 29 15 30 C 15 49 15 67 15 87 C 15 148 16 148 9 154 C 6 158 4 159 6 160 C 8 163 41 164 43 162 C 45 160 45 157 41 153 C 38 152 36 148 36 147 C 35 142 35 95 36 93 C 41 84 55 82 64 87 C 75 91 76 95 75 124 C 75 131 75 140 75 148 C 73 150 71 151 70 153 C 64 158 64 158 65 162 C 67 165 104 164 106 160 C 107 158 107 158 104 156 C 94 148 93 145 94 118 C 95 99 94 89 89 82 C 81 71 66 67 52 73 C 36 81 33 78 35 61 C 36 44 36 9 35 7 C 32 4 27 4 20 8 z" fill="black"/><!-- width=117 height=174 -->
<path id="gl5391" d="M 36 5 C 17 12 7 26 6 49 C 3 78 20 98 46 98 C 65 98 88 83 79 75 C 78 73 71 75 70 76 C 70 78 66 80 64 81 C 45 89 22 73 21 49 C 21 39 21 39 47 39 C 79 40 83 39 80 25 C 78 10 54 0 36 5 M 58 16 C 61 20 63 23 60 27 C 56 31 30 31 27 27 C 22 18 47 8 58 16 z" fill="black"/><!-- width=92 height=109 -->
<path id="gl777" d="M 44 6 C 29 9 18 17 12 29 C 3 48 7 75 19 86 C 37 103 68 101 83 85 C 91 75 85 68 75 75 C 68 81 65 83 55 83 C 31 83 16 55 28 32 C 37 13 55 11 72 23 C 79 31 89 21 84 11 C 80 4 58 2 44 6 z" fill="black"/><!-- width=98 height=110 -->
<path id="gl8" d="M 20 8 C 9 12 8 16 13 25 C 14 26 15 29 15 30 C 15 49 15 67 15 87 C 15 148 16 148 9 154 C 6 158 4 159 6 160 C 8 163 41 164 43 162 C 45 160 45 157 41 153 C 38 152 36 148 36 147 C 35 142 35 95 36 93 C 41 84 55 82 64 87 C 75 91 76 95 75 124 C 75 131 75 140 75 148 C 73 150 71 151 70 153 C 64 158 64 158 65 162 C 67 165 104 164 106 160 C 107 158 107 158 104 156 C 94 148 93 145 94 118 C 95 99 94 89 89 82 C 81 71 66 67 52 73 C 36 81 33 78 35 61 C 36 44 36 9 35 7 C 32 4 27 4 20 8 z" fill="black"/><!-- width=117 height=174 -->
<path id="gl7" d="M 37 6 C 18 9 1 26 4 33 C 8 41 19 36 24 26 C 26 19 31 16 36 16 C 47 16 50 22 50 36 C 50 47 48 49 33 54 C 9 60 2 68 4 83 C 7 98 23 104 39 95 C 42 94 46 92 48 90 C 50 92 54 94 57 95 C 65 100 72 101 78 96 C 87 93 87 88 78 87 C 68 85 65 79 68 54 C 69 23 68 13 58 8 C 52 4 43 3 37 6 M 48 62 C 57 70 48 88 34 88 C 17 88 18 68 37 62 C 44 58 44 58 48 62 z" fill="black"/><!-- width=94 height=110 -->
<path id="gl3" d="M 20 8 C 10 13 8 16 13 23 C 16 27 16 28 16 50 C 17 79 16 83 10 89 C 2 96 3 98 25 99 C 46 99 49 96 40 88 C 39 86 36 85 35 84 C 35 75 35 66 35 57 C 33 23 36 20 54 20 C 73 20 75 23 75 56 C 74 83 74 85 67 89 C 64 93 64 96 67 98 C 71 99 101 99 104 98 C 105 95 104 91 99 89 C 94 85 94 83 93 52 C 93 25 93 23 90 18 C 81 3 67 2 44 12 C 39 13 39 13 36 10 C 31 5 27 5 20 8 z" fill="black"/><!-- width=115 height=110 -->
<path id="gl777" d="M 44 6 C 29 9 18 17 12 29 C 3 48 7 75 19 86 C 37 103 68 101 83 85 C 91 75 85 68 75 75 C 68 81 65 83 55 83 C 31 83 16 55 28 32 C 37 13 55 11 72 23 C 79 31 89 21 84 11 C 80 4 58 2 44 6 z" fill="black"/><!-- width=98 height=110 -->
<path id="gl5" d="M 38 7 C 19 13 8 30 8 56 C 8 80 20 96 42 99 C 55 101 71 96 78 89 C 85 79 80 76 69 82 C 49 91 24 76 24 51 C 24 40 24 40 53 40 C 61 40 69 40 78 40 C 78 39 79 38 80 36 C 84 33 84 28 80 22 C 74 8 56 2 38 7 M 57 15 C 65 20 65 28 57 30 C 52 33 35 33 33 30 C 30 28 30 25 34 22 C 40 14 50 12 57 15 z" fill="black"/><!-- width=94 height=112 -->
<path id="gl0" d="M 42 6 C 27 8 16 17 10 31 C 5 42 6 67 11 77 C 30 111 83 106 95 68 C 106 31 78 -1 42 6 M 61 18 C 81 28 82 73 63 86 C 45 99 23 78 26 47 C 27 22 42 8 61 18 z" fill="black"/><!-- width=111 height=111 -->
<path id="gl5138" d="M 50 6 C 29 12 18 28 16 58 C 14 66 13 71 11 75 C 8 80 7 82 8 84 C 14 92 14 91 14 118 C 14 147 13 148 9 153 C 2 160 6 163 25 163 C 45 163 49 161 40 154 C 33 148 32 144 32 116 C 32 92 32 91 35 88 C 38 86 39 86 46 86 C 55 87 61 85 61 80 C 61 76 58 74 46 74 C 32 74 29 70 34 44 C 39 17 48 12 66 24 C 75 30 84 27 84 18 C 84 7 66 1 50 6 z" fill="black"/><!-- width=92 height=173 -->
<path id="gl5637" d="M 41 6 C 27 9 17 18 11 29 C 4 41 4 67 11 80 C 23 103 60 107 80 87 C 88 79 83 70 74 79 C 48 98 14 72 23 39 C 29 16 49 8 69 23 C 75 27 80 27 82 22 C 87 8 65 0 41 6 z" fill="black"/><!-- width=93 height=109 -->
<path id="gl5" d="M 38 7 C 19 13 8 30 8 56 C 8 80 20 96 42 99 C 55 101 71 96 78 89 C 85 79 80 76 69 82 C 49 91 24 76 24 51 C 24 40 24 40 53 40 C 61 40 69 40 78 40 C 78 39 79 38 80 36 C 84 33 84 28 80 22 C 74 8 56 2 38 7 M 57 15 C 65 20 65 28 57 30 C 52 33 35 33 33 30 C 30 28 30 25 34 22 C 40 14 50 12 57 15 z" fill="black"/><!-- width=94 height=112 -->
<path id="gl518" d="M 21 7 C 10 12 7 15 12 22 C 15 27 15 28 15 55 C 15 64 15 73 15 81 C 13 83 12 84 10 86 C 2 94 3 95 25 97 C 44 97 49 97 47 93 C 47 90 46 89 40 86 C 34 85 32 83 32 57 C 32 35 32 28 36 23 C 39 21 46 21 50 23 C 62 30 74 18 65 8 C 60 5 55 5 46 10 C 37 13 36 13 32 8 C 28 3 30 3 21 7 z" fill="black"/><!-- width=78 height=107 -->
<path id="gl1" d="M 20 11 C 18 13 14 17 11 19 C 4 23 4 25 8 30 C 11 31 12 34 13 35 C 13 36 13 50 13 66 C 13 96 14 103 23 106 C 34 111 54 109 57 103 C 61 98 58 95 49 96 C 33 96 31 94 31 58 C 30 28 30 29 42 29 C 55 30 57 30 60 28 C 62 25 62 24 60 22 C 58 18 58 18 47 18 C 35 17 34 17 31 9 C 29 3 24 3 20 11 z" fill="black"/><!-- width=71 height=121 -->
<path id="gl7" d="M 37 6 C 18 9 1 26 4 33 C 8 41 19 36 24 26 C 26 19 31 16 36 16 C 47 16 50 22 50 36 C 50 47 48 49 33 54 C 9 60 2 68 4 83 C 7 98 23 104 39 95 C 42 94 46 92 48 90 C 50 92 54 94 57 95 C 65 100 72 101 78 96 C 87 93 87 88 78 87 C 68 85 65 79 68 54 C 69 23 68 13 58 8 C 52 4 43 3 37 6 M 48 62 C 57 70 48 88 34 88 C 17 88 18 68 37 62 C 44 58 44 58 48 62 z" fill="black"/><!-- width=94 height=110 -->
<path id="gl2" d="M 18 4 C 11 8 9 19 14 25 C 27 37 43 19 32 7 C 28 3 23 3 18 4 M 18 61 C 9 66 8 70 13 79 C 14 82 16 85 14 110 C 14 119 14 128 14 137 C 13 139 12 140 9 142 C 4 148 4 148 7 150 C 8 152 12 152 24 152 C 45 152 48 150 39 140 C 37 139 35 138 34 137 C 34 124 34 112 34 100 C 34 79 33 61 33 60 C 32 58 25 58 18 61 z" fill="black"/><!-- width=54 height=163 -->
<path id="gl774" d="M 19 8 C 9 13 8 14 13 25 C 15 31 15 33 15 52 C 15 79 15 81 9 88 C 1 95 3 96 24 96 C 45 97 48 95 40 86 C 34 81 34 78 34 53 C 33 25 36 20 52 20 C 72 19 75 24 74 57 C 74 66 74 73 74 80 C 72 83 70 84 68 86 C 59 95 62 96 84 96 C 106 96 108 95 99 86 C 94 83 92 80 92 77 C 92 74 92 62 92 50 C 92 26 92 25 90 19 C 83 6 64 1 48 9 C 41 13 37 13 35 8 C 31 4 26 4 19 8 z" fill="black"/><!-- width=115 height=106 -->
<path id="gl1024" d="M 15 8 C 8 14 7 17 9 24 C 12 30 13 31 13 83 C 13 102 13 120 13 138 C 12 139 10 142 9 143 C 3 153 6 155 25 155 C 43 155 47 153 37 145 C 32 140 30 136 30 120 C 30 102 31 100 44 100 C 77 100 100 76 98 43 C 97 14 72 0 46 9 C 36 13 35 13 31 8 C 27 4 21 4 15 8 M 60 21 C 89 31 82 89 51 89 C 43 89 35 86 32 81 C 30 76 30 35 31 29 C 35 20 47 17 60 21 z" fill="black"/><!-- width=109 height=165 -->
<path id="gl8" d="M 20 8 C 9 12 8 16 13 25 C 14 26 15 29 15 30 C 15 49 15 67 15 87 C 15 148 16 148 9 154 C 6 158 4 159 6 160 C 8 163 41 164 43 162 C 45 160 45 157 41 153 C 38 152 36 148 36 147 C 35 142 35 95 36 93 C 41 84 55 82 64 87 C 75 91 76 95 75 124 C 75 131 75 140 75 148 C 73 150 71 151 70 153 C 64 158 64 158 65 162 C 67 165 104 164 106 160 C 107 158 107 158 104 156 C 94 148 93 145 94 118 C 95 99 94 89 89 82 C 81 71 66 67 52 73 C 36 81 33 78 35 61 C 36 44 36 9 35 7 C 32 4 27 4 20 8 z" fill="black"/><!-- width=117 height=174 -->
<path id="gl5407" d="M 72 7 C 67 8 67 13 70 18 C 75 22 74 25 67 44 C 60 63 58 64 55 64 C 51 64 50 62 43 43 C 38 26 38 21 42 16 C 43 15 43 13 43 12 C 43 10 43 9 43 8 C 37 8 31 8 25 8 C 19 8 13 8 7 8 C 7 9 7 10 7 12 C 7 14 7 15 10 19 C 18 24 20 30 37 76 C 43 92 42 99 34 115 C 28 126 25 130 18 132 C 4 135 4 152 16 154 C 27 157 33 148 56 93 C 69 62 90 25 97 19 C 103 14 104 9 99 7 C 94 7 76 7 72 7 z" fill="black"/><!-- width=111 height=163 -->
<path id="gl257" d="M 31 6 C 24 8 17 13 13 20 C 6 35 11 45 33 58 C 48 69 52 77 45 85 C 37 94 25 91 19 80 C 11 66 3 67 6 82 C 7 93 13 99 28 100 C 53 104 72 83 62 62 C 60 55 56 52 42 44 C 26 34 22 26 30 18 C 37 12 46 14 53 24 C 60 33 67 29 64 18 C 62 7 50 3 31 6 z" fill="black"/><!-- width=78 height=112 -->
<path id="gl2" d="M 18 4 C 11 8 9 19 14 25 C 27 37 43 19 32 7 C 28 3 23 3 18 4 M 18 61 C 9 66 8 70 13 79 C 14 82 16 85 14 110 C 14 119 14 128 14 137 C 13 139 12 140 9 142 C 4 148 4 148 7 150 C 8 152 12 152 24 152 C 45 152 48 150 39 140 C 37 139 35 138 34 137 C 34 124 34 112 34 100 C 34 79 33 61 33 60 C 32 58 25 58 18 61 z" fill="black"/><!-- width=54 height=163 -->
<path id="gl8711" d="M 43 7 C 15 14 0 44 10 74 C 20 103 60 110 82 88 C 93 78 86 69 75 79 C 54 96 25 79 25 50 C 25 22 49 7 68 21 C 75 27 80 28 82 25 C 87 20 85 10 79 8 C 74 6 51 4 43 7 z" fill="black"/><!-- width=98 height=111 -->
<path id="gl9" d="M 37 7 C 20 12 7 22 7 31 C 7 41 23 38 27 27 C 31 18 37 15 46 17 C 52 20 55 25 55 35 C 56 47 53 48 37 55 C 13 61 7 66 7 78 C 7 96 25 105 43 95 C 52 91 55 91 62 96 C 72 103 95 96 88 88 C 87 87 85 87 82 87 C 71 87 70 81 72 51 C 72 33 72 27 72 22 C 68 8 53 2 37 7 M 53 63 C 58 71 51 86 42 87 C 20 87 21 68 42 61 C 48 60 51 60 53 63 z" fill="black"/><!-- width=98 height=110 -->
<path id="gl512" d="M 20 8 C 9 13 7 17 13 24 C 14 26 15 27 17 29 C 17 48 17 69 17 88 C 17 108 17 127 17 148 C 14 149 13 152 10 153 C 4 159 4 161 7 163 C 9 164 42 164 43 163 C 47 161 46 158 41 154 C 34 149 34 149 35 76 C 35 -1 36 1 20 8 z" fill="black"/><!-- width=55 height=175 -->
<path id="gl517" d="M 24 6 C 19 8 11 14 9 17 C 9 18 11 22 12 25 C 13 28 14 29 14 32 C 14 49 14 66 14 83 C 14 137 14 141 8 147 C 1 155 4 157 28 157 C 46 157 48 156 48 152 C 48 150 48 149 43 146 C 35 142 33 140 33 120 C 33 102 34 101 45 102 C 76 104 102 81 103 48 C 103 19 77 0 52 8 C 40 13 36 13 34 9 C 32 6 28 4 24 6 M 70 25 C 83 34 86 61 75 80 C 66 93 44 96 36 82 C 34 78 33 76 33 56 C 33 27 35 23 46 22 C 55 20 64 22 70 25 z" fill="black"/><!-- width=114 height=167 -->
<path id="gl518" d="M 21 7 C 10 12 7 15 12 22 C 15 27 15 28 15 55 C 15 64 15 73 15 81 C 13 83 12 84 10 86 C 2 94 3 95 25 97 C 44 97 49 97 47 93 C 47 90 46 89 40 86 C 34 85 32 83 32 57 C 32 35 32 28 36 23 C 39 21 46 21 50 23 C 62 30 74 18 65 8 C 60 5 55 5 46 10 C 37 13 36 13 32 8 C 28 3 30 3 21 7 z" fill="black"/><!-- width=78 height=107 -->
<path id="gl5400" d="M 43 6 C 15 11 0 42 10 74 C 22 110 80 109 95 72 C 99 61 99 41 94 31 C 85 12 64 1 43 6 M 60 17 C 65 20 70 25 74 32 C 77 42 77 67 72 76 C 56 107 22 82 26 45 C 28 22 45 10 60 17 z" fill="black"/><!-- width=110 height=110 -->
<path id="gl513" d="M 14 8 C 4 12 3 15 8 24 C 9 25 10 27 12 30 C 12 51 12 72 12 94 C 10 165 10 160 20 161 C 24 162 31 164 37 165 C 72 172 101 146 98 111 C 96 82 71 63 45 72 C 30 78 28 76 30 49 C 31 14 31 9 30 7 C 27 4 21 4 14 8 M 56 85 C 70 90 77 101 77 118 C 78 141 68 155 50 155 C 35 155 30 147 30 118 C 28 106 30 94 30 92 C 32 83 43 80 56 85 z" fill="black"/><!-- width=112 height=177 -->
<path id="gl512" d="M 20 8 C 9 13 7 17 13 24 C 14 26 15 27 17 29 C 17 48 17 69 17 88 C 17 108 17 127 17 148 C 14 149 13 152 10 153 C 4 159 4 161 7 163 C 9 164 42 164 43 163 C 47 161 46 158 41 154 C 34 149 34 149 35 76 C 35 -1 36 1 20 8 z" fill="black"/><!-- width=55 height=175 -->
<path id="gl5" d="M 38 7 C 19 13 8 30 8 56 C 8 80 20 96 42 99 C 55 101 71 96 78 89 C 85 79 80 76 69 82 C 49 91 24 76 24 51 C 24 40 24 40 53 40 C 61 40 69 40 78 40 C 78 39 79 38 80 36 C 84 33 84 28 80 22 C 74 8 56 2 38 7 M 57 15 C 65 20 65 28 57 30 C 52 33 35 33 33 30 C 30 28 30 25 34 22 C 40 14 50 12 57 15 z" fill="black"/><!-- width=94 height=112 -->
<path id="gl259" d="M 19 8 C 9 13 8 16 13 25 C 19 38 17 88 9 88 C 9 88 8 91 7 92 C 3 98 6 100 24 100 C 46 100 48 98 40 88 C 39 87 37 86 35 83 C 35 75 35 66 35 58 C 34 29 35 27 43 22 C 49 18 62 19 69 24 C 74 29 74 34 74 55 C 74 79 74 83 69 88 C 65 92 64 97 66 98 C 66 98 74 100 83 100 C 104 100 107 97 98 88 C 97 87 95 86 93 83 C 93 75 93 66 93 58 C 93 33 93 32 96 28 C 102 17 123 17 129 29 C 132 33 132 37 132 56 C 132 81 132 85 125 88 C 122 92 122 97 124 98 C 128 100 158 100 160 97 C 163 96 163 93 158 90 C 151 85 150 82 150 55 C 150 28 150 23 145 16 C 137 3 118 2 101 12 C 93 17 90 17 83 13 C 72 4 64 3 51 8 C 40 13 38 13 35 9 C 32 4 28 4 19 8 z" fill="black"/><!-- width=172 height=109 -->
<path id="gl5388" d="M 25 6 C 13 11 7 23 11 35 C 13 43 18 49 29 55 C 44 65 48 70 46 78 C 44 93 25 91 17 76 C 9 64 4 65 6 80 C 6 93 14 98 33 97 C 59 96 72 76 60 57 C 56 51 54 50 35 38 C 24 30 23 22 30 16 C 36 9 44 12 52 22 C 59 28 59 28 62 25 C 65 23 64 16 61 11 C 56 3 38 2 25 6 z" fill="black"/><!-- width=75 height=108 -->
<path id="gl2" d="M 18 4 C 11 8 9 19 14 25 C 27 37 43 19 32 7 C 28 3 23 3 18 4 M 18 61 C 9 66 8 70 13 79 C 14 82 16 85 14 110 C 14 119 14 128 14 137 C 13 139 12 140 9 142 C 4 148 4 148 7 150 C 8 152 12 152 24 152 C 45 152 48 150 39 140 C 37 139 35 138 34 137 C 34 124 34 112 34 100 C 34 79 33 61 33 60 C 32 58 25 58 18 61 z" fill="black"/><!-- width=54 height=163 -->
<path id="gl774" d="M 19 8 C 9 13 8 14 13 25 C 15 31 15 33 15 52 C 15 79 15 81 9 88 C 1 95 3 96 24 96 C 45 97 48 95 40 86 C 34 81 34 78 34 53 C 33 25 36 20 52 20 C 72 19 75 24 74 57 C 74 66 74 73 74 80 C 72 83 70 84 68 86 C 59 95 62 96 84 96 C 106 96 108 95 99 86 C 94 83 92 80 92 77 C 92 74 92 62 92 50 C 92 26 92 25 90 19 C 83 6 64 1 48 9 C 41 13 37 13 35 8 C 31 4 26 4 19 8 z" fill="black"/><!-- width=115 height=106 -->
<path id="gl770" d="M 16 12 C 6 22 4 23 9 29 C 12 33 12 33 12 59 C 13 95 14 99 24 104 C 35 109 56 106 55 98 C 55 95 55 95 48 95 C 32 95 30 91 29 56 C 29 25 28 27 45 27 C 57 27 61 24 57 18 C 55 16 54 16 45 16 C 35 17 30 14 30 11 C 30 8 27 3 25 3 C 24 3 20 8 16 12 z" fill="black"/><!-- width=69 height=118 -->
<path id="gl8" d="M 20 8 C 9 12 8 16 13 25 C 14 26 15 29 15 30 C 15 49 15 67 15 87 C 15 148 16 148 9 154 C 6 158 4 159 6 160 C 8 163 41 164 43 162 C 45 160 45 157 41 153 C 38 152 36 148 36 147 C 35 142 35 95 36 93 C 41 84 55 82 64 87 C 75 91 76 95 75 124 C 75 131 75 140 75 148 C 73 150 71 151 70 153 C 64 158 64 158 65 162 C 67 165 104 164 106 160 C 107 158 107 158 104 156 C 94 148 93 145 94 118 C 95 99 94 89 89 82 C 81 71 66 67 52 73 C 36 81 33 78 35 61 C 36 44 36 9 35 7 C 32 4 27 4 20 8 z" fill="black"/><!-- width=117 height=174 -->
<path id="gl5" d="M 38 7 C 19 13 8 30 8 56 C 8 80 20 96 42 99 C 55 101 71 96 78 89 C 85 79 80 76 69 82 C 49 91 24 76 24 51 C 24 40 24 40 53 40 C 61 40 69 40 78 40 C 78 39 79 38 80 36 C 84 33 84 28 80 22 C 74 8 56 2 38 7 M 57 15 C 65 20 65 28 57 30 C 52 33 35 33 33 30 C 30 28 30 25 34 22 C 40 14 50 12 57 15 z" fill="black"/><!-- width=94 height=112 -->
<path id="gl5394" d="M 54 6 C 33 12 20 30 18 62 C 17 73 17 75 13 78 C 8 83 8 85 13 90 C 14 91 16 93 17 94 C 17 102 17 110 17 118 C 17 131 17 145 17 147 C 16 151 16 154 12 157 C 6 163 4 166 8 167 C 13 168 46 168 49 167 C 51 165 49 161 44 159 C 36 155 36 155 35 123 C 35 113 35 103 35 93 C 36 93 38 92 38 91 C 40 90 43 90 51 90 C 59 91 60 91 62 88 C 70 81 64 76 51 77 C 35 78 34 76 36 55 C 39 19 50 11 69 24 C 78 30 85 29 87 20 C 90 9 71 1 54 6 z" fill="black"/><!-- width=96 height=180 -->
<path id="gl256" d="M 16 4 C 4 6 3 9 9 18 C 12 23 13 23 13 49 C 13 63 13 78 14 80 C 18 95 38 101 57 94 C 68 89 68 89 72 94 C 75 98 78 98 93 94 C 105 91 108 88 99 83 C 89 79 89 79 90 42 C 90 23 90 7 90 7 C 89 3 84 3 75 4 C 62 6 59 9 67 16 C 68 18 70 22 70 24 C 73 31 73 69 70 74 C 65 86 41 88 33 77 C 31 72 31 72 31 39 C 31 28 32 17 32 7 C 31 6 29 6 28 4 C 26 2 24 2 16 4 z" fill="black"/><!-- width=114 height=109 -->
<path id="gl768" d="M 19 11 C 14 16 11 19 11 19 C 7 19 8 24 11 28 C 12 29 13 31 16 33 C 16 42 16 50 16 59 C 16 95 16 99 27 105 C 37 110 59 106 58 99 C 58 95 58 95 49 95 C 33 94 33 91 32 55 C 32 26 32 27 48 27 C 59 28 62 27 62 22 C 62 17 58 14 48 16 C 39 17 33 13 33 9 C 33 7 31 4 28 4 C 27 4 23 7 19 11 z" fill="black"/><!-- width=73 height=117 -->
<path id="gl256" d="M 16 4 C 4 6 3 9 9 18 C 12 23 13 23 13 49 C 13 63 13 78 14 80 C 18 95 38 101 57 94 C 68 89 68 89 72 94 C 75 98 78 98 93 94 C 105 91 108 88 99 83 C 89 79 89 79 90 42 C 90 23 90 7 90 7 C 89 3 84 3 75 4 C 62 6 59 9 67 16 C 68 18 70 22 70 24 C 73 31 73 69 70 74 C 65 86 41 88 33 77 C 31 72 31 72 31 39 C 31 28 32 17 32 7 C 31 6 29 6 28 4 C 26 2 24 2 16 4 z" fill="black"/><!-- width=114 height=109 -->
<path id="gl4" d="M 16 9 C 8 13 7 16 12 24 C 13 28 14 32 14 54 C 14 80 13 86 8 87 C 6 90 3 94 4 95 C 7 99 44 99 45 95 C 47 92 44 90 40 90 C 39 90 37 87 35 86 C 34 85 33 84 32 84 C 32 74 32 65 32 56 C 32 29 32 29 34 26 C 38 22 43 22 49 24 C 59 28 66 24 66 17 C 66 4 55 2 44 11 C 37 16 34 14 32 9 C 29 4 26 3 16 9 z" fill="black"/><!-- width=76 height=108 -->
<path id="gl261" d="M 39 6 C 18 10 7 26 7 54 C 7 73 9 79 18 87 C 32 102 63 102 75 87 C 83 80 76 76 67 81 C 46 92 23 75 21 51 C 21 40 23 39 50 40 C 76 41 80 40 81 30 C 81 13 59 1 39 6 M 54 15 C 62 18 62 28 54 30 C 50 32 34 32 30 31 C 28 29 28 25 32 20 C 37 14 46 12 54 15 z" fill="black"/><!-- width=91 height=111 -->
<path id="gl4901" d="M 11 6 C 1 10 2 18 11 23 C 20 29 20 39 11 47 C 3 54 5 60 12 55 C 22 50 30 37 30 27 C 30 16 18 3 11 6 z" fill="black"/><!-- width=42 height=66 -->
<path id="gl9" d="M 37 7 C 20 12 7 22 7 31 C 7 41 23 38 27 27 C 31 18 37 15 46 17 C 52 20 55 25 55 35 C 56 47 53 48 37 55 C 13 61 7 66 7 78 C 7 96 25 105 43 95 C 52 91 55 91 62 96 C 72 103 95 96 88 88 C 87 87 85 87 82 87 C 71 87 70 81 72 51 C 72 33 72 27 72 22 C 68 8 53 2 37 7 M 53 63 C 58 71 51 86 42 87 C 20 87 21 68 42 61 C 48 60 51 60 53 63 z" fill="black"/><!-- width=98 height=110 -->
<path id="gl3" d="M 20 8 C 10 13 8 16 13 23 C 16 27 16 28 16 50 C 17 79 16 83 10 89 C 2 96 3 98 25 99 C 46 99 49 96 40 88 C 39 86 36 85 35 84 C 35 75 35 66 35 57 C 33 23 36 20 54 20 C 73 20 75 23 75 56 C 74 83 74 85 67 89 C 64 93 64 96 67 98 C 71 99 101 99 104 98 C 105 95 104 91 99 89 C 94 85 94 83 93 52 C 93 25 93 23 90 18 C 81 3 67 2 44 12 C 39 13 39 13 36 10 C 31 5 27 5 20 8 z" fill="black"/><!-- width=115 height=110 -->
<path id="gl261" d="M 39 6 C 18 10 7 26 7 54 C 7 73 9 79 18 87 C 32 102 63 102 75 87 C 83 80 76 76 67 81 C 46 92 23 75 21 51 C 21 40 23 39 50 40 C 76 41 80 40 81 30 C 81 13 59 1 39 6 M 54 15 C 62 18 62 28 54 30 C 50 32 34 32 30 31 C 28 29 28 25 32 20 C 37 14 46 12 54 15 z" fill="black"/><!-- width=91 height=111 -->
<path id="gl5890" d="M 20 6 C 7 12 6 15 10 22 C 14 29 14 45 13 103 C 13 117 13 129 12 141 C 10 142 9 143 8 145 C 6 148 4 149 4 152 C 4 154 4 154 24 155 C 44 155 47 155 45 151 C 45 148 44 147 41 146 C 33 145 32 140 31 122 C 31 101 31 101 45 101 C 73 101 94 85 99 60 C 107 20 77 -6 42 10 C 37 13 33 12 32 8 C 30 2 27 2 20 6 M 60 20 C 73 24 79 33 79 53 C 79 67 74 78 66 85 C 58 93 39 90 33 82 C 30 76 31 31 35 25 C 38 19 49 16 60 20 z" fill="black"/><!-- width=111 height=165 -->
<path id="gl2" d="M 18 4 C 11 8 9 19 14 25 C 27 37 43 19 32 7 C 28 3 23 3 18 4 M 18 61 C 9 66 8 70 13 79 C 14 82 16 85 14 110 C 14 119 14 128 14 137 C 13 139 12 140 9 142 C 4 148 4 148 7 150 C 8 152 12 152 24 152 C 45 152 48 150 39 140 C 37 139 35 138 34 137 C 34 124 34 112 34 100 C 34 79 33 61 33 60 C 32 58 25 58 18 61 z" fill="black"/><!-- width=54 height=163 -->
<path id="gl17431" d="M 25 5 C 15 10 8 17 8 28 C 8 39 12 44 28 54 C 43 65 45 66 45 73 C 47 77 45 80 43 82 C 35 93 22 89 15 73 C 10 63 5 65 5 76 C 5 90 11 96 28 96 C 45 98 58 90 62 77 C 66 63 59 52 39 40 C 24 31 20 22 29 15 C 35 10 42 11 49 19 C 58 28 62 28 62 20 C 63 7 57 2 40 2 C 33 3 28 3 25 5 z" fill="black"/><!-- width=73 height=107 -->
<path id="gl0" d="M 42 6 C 27 8 16 17 10 31 C 5 42 6 67 11 77 C 30 111 83 106 95 68 C 106 31 78 -1 42 6 M 61 18 C 81 28 82 73 63 86 C 45 99 23 78 26 47 C 27 22 42 8 61 18 z" fill="black"/><!-- width=111 height=111 -->
<path id="gl258" d="M 77 7 C 66 11 65 14 71 25 C 74 32 75 32 75 47 C 75 70 75 69 57 70 C 26 71 11 84 7 112 C 2 148 32 175 62 161 C 69 158 70 158 76 162 C 81 165 81 165 89 164 C 106 161 112 155 101 151 C 99 149 95 148 94 145 C 93 143 93 85 93 35 C 94 26 94 17 94 8 C 93 8 91 7 91 5 C 88 3 85 3 77 7 M 66 82 C 74 87 75 91 74 118 C 74 126 74 134 74 143 C 72 143 71 145 70 145 C 59 156 37 148 29 131 C 16 102 41 68 66 82 z" fill="black"/><!-- width=118 height=176 -->
<path id="gl5" d="M 38 7 C 19 13 8 30 8 56 C 8 80 20 96 42 99 C 55 101 71 96 78 89 C 85 79 80 76 69 82 C 49 91 24 76 24 51 C 24 40 24 40 53 40 C 61 40 69 40 78 40 C 78 39 79 38 80 36 C 84 33 84 28 80 22 C 74 8 56 2 38 7 M 57 15 C 65 20 65 28 57 30 C 52 33 35 33 33 30 C 30 28 30 25 34 22 C 40 14 50 12 57 15 z" fill="black"/><!-- width=94 height=112 -->
<path id="gl0" d="M 42 6 C 27 8 16 17 10 31 C 5 42 6 67 11 77 C 30 111 83 106 95 68 C 106 31 78 -1 42 6 M 61 18 C 81 28 82 73 63 86 C 45 99 23 78 26 47 C 27 22 42 8 61 18 z" fill="black"/><!-- width=111 height=111 -->
<path id="gl5394" d="M 54 6 C 33 12 20 30 18 62 C 17 73 17 75 13 78 C 8 83 8 85 13 90 C 14 91 16 93 17 94 C 17 102 17 110 17 118 C 17 131 17 145 17 147 C 16 151 16 154 12 157 C 6 163 4 166 8 167 C 13 168 46 168 49 167 C 51 165 49 161 44 159 C 36 155 36 155 35 123 C 35 113 35 103 35 93 C 36 93 38 92 38 91 C 40 90 43 90 51 90 C 59 91 60 91 62 88 C 70 81 64 76 51 77 C 35 78 34 76 36 55 C 39 19 50 11 69 24 C 78 30 85 29 87 20 C 90 9 71 1 54 6 z" fill="black"/><!-- width=96 height=180 -->
<path id="gl9" d="M 37 7 C 20 12 7 22 7 31 C 7 41 23 38 27 27 C 31 18 37 15 46 17 C 52 20 55 25 55 35 C 56 47 53 48 37 55 C 13 61 7 66 7 78 C 7 96 25 105 43 95 C 52 91 55 91 62 96 C 72 103 95 96 88 88 C 87 87 85 87 82 87 C 71 87 70 81 72 51 C 72 33 72 27 72 22 C 68 8 53 2 37 7 M 53 63 C 58 71 51 86 42 87 C 20 87 21 68 42 61 C 48 60 51 60 53 63 z" fill="black"/><!-- width=98 height=110 -->
<path id="gl1026" d="M 21 10 C 10 14 9 18 14 26 C 15 27 16 30 18 32 C 16 40 16 50 16 58 C 16 67 16 76 16 85 C 14 87 13 88 10 91 C 9 93 8 94 6 97 C 7 97 7 98 8 98 C 12 102 42 102 44 99 C 46 97 46 94 42 91 C 36 86 34 82 34 57 C 34 32 36 28 44 24 C 49 21 62 20 67 24 C 75 27 75 30 75 58 C 75 68 75 76 75 85 C 74 87 72 88 70 91 C 64 96 64 97 67 98 C 70 102 100 102 104 98 C 106 96 106 96 102 92 C 94 85 94 84 94 55 C 94 42 93 28 93 26 C 88 9 69 3 50 12 C 43 15 39 15 37 13 C 33 6 30 6 21 10 z" fill="black"/><!-- width=116 height=111 -->
<path id="gl5395" d="M 72 3 C 60 5 59 6 60 12 C 64 21 55 35 49 31 C 41 28 37 18 41 12 C 45 5 42 3 22 5 C 17 5 11 5 6 5 C 6 6 6 7 6 8 C 5 11 6 12 12 15 C 20 20 40 45 40 50 C 40 56 17 82 11 84 C 6 85 5 86 5 90 C 5 94 6 94 21 94 C 35 94 37 94 36 89 C 36 87 35 84 35 82 C 33 79 40 66 43 64 C 51 59 65 80 57 85 C 54 89 52 90 55 92 C 56 95 94 95 95 92 C 98 90 96 87 90 85 C 84 81 80 77 67 60 C 61 52 57 46 57 43 C 57 37 76 17 85 15 C 92 12 95 8 92 6 C 90 3 85 3 72 3 z" fill="black"/><!-- width=106 height=105 -->
<path id="gl2" d="M 18 4 C 11 8 9 19 14 25 C 27 37 43 19 32 7 C 28 3 23 3 18 4 M 18 61 C 9 66 8 70 13 79 C 14 82 16 85 14 110 C 14 119 14 128 14 137 C 13 139 12 140 9 142 C 4 148 4 148 7 150 C 8 152 12 152 24 152 C 45 152 48 150 39 140 C 37 139 35 138 34 137 C 34 124 34 112 34 100 C 34 79 33 61 33 60 C 32 58 25 58 18 61 z" fill="black"/><!-- width=54 height=163 -->
<path id="gl261" d="M 39 6 C 18 10 7 26 7 54 C 7 73 9 79 18 87 C 32 102 63 102 75 87 C 83 80 76 76 67 81 C 46 92 23 75 21 51 C 21 40 23 39 50 40 C 76 41 80 40 81 30 C 81 13 59 1 39 6 M 54 15 C 62 18 62 28 54 30 C 50 32 34 32 30 31 C 28 29 28 25 32 20 C 37 14 46 12 54 15 z" fill="black"/><!-- width=91 height=111 -->
<path id="gl5657" d="M 19 10 C 16 14 11 18 10 18 C 6 19 5 23 10 28 C 11 29 12 30 14 33 C 14 42 14 52 14 63 C 14 96 14 99 23 104 C 34 112 59 106 57 97 C 57 95 56 95 50 95 C 33 95 32 91 32 56 C 32 25 30 27 50 28 C 65 28 68 27 68 20 C 68 18 68 15 66 15 C 66 15 59 15 50 15 C 45 16 39 16 34 16 C 34 14 33 12 33 10 C 29 2 27 2 19 10 z" fill="black"/><!-- width=77 height=119 -->
<path id="gl5404" d="M 8 5 C 3 7 5 10 11 17 C 13 21 17 26 18 28 C 41 92 41 92 32 110 C 27 122 22 127 15 129 C 1 132 2 151 16 151 C 26 151 31 142 50 97 C 56 82 66 62 81 32 C 86 23 89 20 92 17 C 104 8 100 3 81 3 C 63 3 61 6 68 15 C 72 20 72 21 66 38 C 62 45 60 52 60 55 C 58 57 56 60 55 61 C 53 62 52 63 52 65 C 51 63 50 62 50 62 C 47 60 35 26 35 21 C 35 20 37 16 38 15 C 42 10 42 7 37 6 C 35 5 12 3 8 5 z" fill="black"/><!-- width=109 height=161 -->
<path id="gl2" d="M 18 4 C 11 8 9 19 14 25 C 27 37 43 19 32 7 C 28 3 23 3 18 4 M 18 61 C 9 66 8 70 13 79 C 14 82 16 85 14 110 C 14 119 14 128 14 137 C 13 139 12 140 9 142 C 4 148 4 148 7 150 C 8 152 12 152 24 152 C 45 152 48 150 39 140 C 37 139 35 138 34 137 C 34 124 34 112 34 100 C 34 79 33 61 33 60 C 32 58 25 58 18 61 z" fill="black"/><!-- width=54 height=163 -->
<path id="gl514" d="M 28 6 C 17 9 9 18 9 29 C 9 41 13 46 32 57 C 47 67 50 73 46 82 C 39 93 26 90 17 77 C 13 70 12 69 9 70 C 6 70 6 70 6 78 C 6 93 12 96 31 96 C 52 96 62 89 63 74 C 64 60 58 52 41 42 C 27 34 23 28 27 21 C 31 11 41 11 50 21 C 59 29 64 29 63 18 C 62 8 55 4 42 4 C 37 4 31 4 28 6 z" fill="black"/><!-- width=75 height=108 -->
<path id="gl256" d="M 16 4 C 4 6 3 9 9 18 C 12 23 13 23 13 49 C 13 63 13 78 14 80 C 18 95 38 101 57 94 C 68 89 68 89 72 94 C 75 98 78 98 93 94 C 105 91 108 88 99 83 C 89 79 89 79 90 42 C 90 23 90 7 90 7 C 89 3 84 3 75 4 C 62 6 59 9 67 16 C 68 18 70 22 70 24 C 73 31 73 69 70 74 C 65 86 41 88 33 77 C 31 72 31 72 31 39 C 31 28 32 17 32 7 C 31 6 29 6 28 4 C 26 2 24 2 16 4 z" fill="black"/><!-- width=114 height=109 -->
<path id="gl1026" d="M 21 10 C 10 14 9 18 14 26 C 15 27 16 30 18 32 C 16 40 16 50 16 58 C 16 67 16 76 16 85 C 14 87 13 88 10 91 C 9 93 8 94 6 97 C 7 97 7 98 8 98 C 12 102 42 102 44 99 C 46 97 46 94 42 91 C 36 86 34 82 34 57 C 34 32 36 28 44 24 C 49 21 62 20 67 24 C 75 27 75 30 75 58 C 75 68 75 76 75 85 C 74 87 72 88 70 91 C 64 96 64 97 67 98 C 70 102 100 102 104 98 C 106 96 106 96 102 92 C 94 85 94 84 94 55 C 94 42 93 28 93 26 C 88 9 69 3 50 12 C 43 15 39 15 37 13 C 33 6 30 6 21 10 z" fill="black"/><!-- width=116 height=111 -->
<path id="gl512" d="M 20 8 C 9 13 7 17 13 24 C 14 26 15 27 17 29 C 17 48 17 69 17 88 C 17 108 17 127 17 148 C 14 149 13 152 10 153 C 4 159 4 161 7 163 C 9 164 42 164 43 163 C 47 161 46 158 41 154 C 34 149 34 149 35 76 C 35 -1 36 1 20 8 z" fill="black"/><!-- width=55 height=175 -->
<path id="gl2" d="M 18 4 C 11 8 9 19 14 25 C 27 37 43 19 32 7 C 28 3 23 3 18 4 M 18 61 C 9 66 8 70 13 79 C 14 82 16 85 14 110 C 14 119 14 128 14 137 C 13 139 12 140 9 142 C 4 148 4 148 7 150 C 8 152 12 152 24 152 C 45 152 48 150 39 140 C 37 139 35 138 34 137 C 34 124 34 112 34 100 C 34 79 33 61 33 60 C 32 58 25 58 18 61 z" fill="black"/><!-- width=54 height=163 -->
<path id="gl775" d="M 18 7 C 8 12 7 14 12 23 C 13 25 14 28 15 30 C 15 49 15 68 15 87 C 15 149 15 149 8 154 C 4 157 4 160 7 161 C 9 163 17 164 24 164 C 45 164 50 160 40 153 C 35 149 33 144 33 132 C 33 115 40 115 53 132 C 66 148 66 148 63 154 C 62 163 63 164 85 164 C 101 164 103 163 105 161 C 107 158 106 155 100 152 C 93 149 85 143 73 130 C 60 115 58 112 61 107 C 62 103 78 89 89 84 C 99 79 100 77 96 73 C 95 71 77 71 67 72 C 60 74 58 74 60 82 C 62 90 60 94 49 104 C 42 110 39 111 35 106 C 33 104 33 77 35 25 C 36 2 34 0 18 7 z" fill="black"/><!-- width=115 height=174 -->
<path id="gl5391" d="M 36 5 C 17 12 7 26 6 49 C 3 78 20 98 46 98 C 65 98 88 83 79 75 C 78 73 71 75 70 76 C 70 78 66 80 64 81 C 45 89 22 73 21 49 C 21 39 21 39 47 39 C 79 40 83 39 80 25 C 78 10 54 0 36 5 M 58 16 C 61 20 63 23 60 27 C 56 31 30 31 27 27 C 22 18 47 8 58 16 z" fill="black"/><!-- width=92 height=109 -->
<path id="gl512" d="M 20 8 C 9 13 7 17 13 24 C 14 26 15 27 17 29 C 17 48 17 69 17 88 C 17 108 17 127 17 148 C 14 149 13 152 10 153 C 4 159 4 161 7 163 C 9 164 42 164 43 163 C 47 161 46 158 41 154 C 34 149 34 149 35 76 C 35 -1 36 1 20 8 z" fill="black"/><!-- width=55 height=175 -->
<path id="gl5639" d="M 8 6 C 6 8 6 12 10 14 C 18 19 20 23 31 53 C 45 90 45 94 35 113 C 29 125 25 129 18 130 C 4 132 6 152 19 152 C 30 152 34 146 54 98 C 64 73 90 24 93 20 C 94 18 97 15 99 14 C 104 12 105 8 102 6 C 98 2 71 4 69 7 C 68 9 68 10 70 13 C 76 19 75 23 70 38 C 57 71 54 71 46 43 C 38 19 38 20 42 14 C 47 9 47 6 42 4 C 38 3 9 3 8 6 z" fill="black"/><!-- width=114 height=161 -->
<path id="gl1" d="M 20 11 C 18 13 14 17 11 19 C 4 23 4 25 8 30 C 11 31 12 34 13 35 C 13 36 13 50 13 66 C 13 96 14 103 23 106 C 34 111 54 109 57 103 C 61 98 58 95 49 96 C 33 96 31 94 31 58 C 30 28 30 29 42 29 C 55 30 57 30 60 28 C 62 25 62 24 60 22 C 58 18 58 18 47 18 C 35 17 34 17 31 9 C 29 3 24 3 20 11 z" fill="black"/><!-- width=71 height=121 -->
<path id="gl0" d="M 42 6 C 27 8 16 17 10 31 C 5 42 6 67 11 77 C 30 111 83 106 95 68 C 106 31 78 -1 42 6 M 61 18 C 81 28 82 73 63 86 C 45 99 23 78 26 47 C 27 22 42 8 61 18 z" fill="black"/><!-- width=111 height=111 -->
<path id="gl777" d="M 44 6 C 29 9 18 17 12 29 C 3 48 7 75 19 86 C 37 103 68 101 83 85 C 91 75 85 68 75 75 C 68 81 65 83 55 83 C 31 83 16 55 28 32 C 37 13 55 11 72 23 C 79 31 89 21 84 11 C 80 4 58 2 44 6 z" fill="black"/><!-- width=98 height=110 -->
<path id="gl9" d="M 37 7 C 20 12 7 22 7 31 C 7 41 23 38 27 27 C 31 18 37 15 46 17 C 52 20 55 25 55 35 C 56 47 53 48 37 55 C 13 61 7 66 7 78 C 7 96 25 105 43 95 C 52 91 55 91 62 96 C 72 103 95 96 88 88 C 87 87 85 87 82 87 C 71 87 70 81 72 51 C 72 33 72 27 72 22 C 68 8 53 2 37 7 M 53 63 C 58 71 51 86 42 87 C 20 87 21 68 42 61 C 48 60 51 60 53 63 z" fill="black"/><!-- width=98 height=110 -->
<path id="gl256" d="M 16 4 C 4 6 3 9 9 18 C 12 23 13 23 13 49 C 13 63 13 78 14 80 C 18 95 38 101 57 94 C 68 89 68 89 72 94 C 75 98 78 98 93 94 C 105 91 108 88 99 83 C 89 79 89 79 90 42 C 90 23 90 7 90 7 C 89 3 84 3 75 4 C 62 6 59 9 67 16 C 68 18 70 22 70 24 C 73 31 73 69 70 74 C 65 86 41 88 33 77 C 31 72 31 72 31 39 C 31 28 32 17 32 7 C 31 6 29 6 28 4 C 26 2 24 2 16 4 z" fill="black"/><!-- width=114 height=109 -->
<path id="gl17431" d="M 25 5 C 15 10 8 17 8 28 C 8 39 12 44 28 54 C 43 65 45 66 45 73 C 47 77 45 80 43 82 C 35 93 22 89 15 73 C 10 63 5 65 5 76 C 5 90 11 96 28 96 C 45 98 58 90 62 77 C 66 63 59 52 39 40 C 24 31 20 22 29 15 C 35 10 42 11 49 19 C 58 28 62 28 62 20 C 63 7 57 2 40 2 C 33 3 28 3 25 5 z" fill="black"/><!-- width=73 height=107 -->
<path id="gl261" d="M 39 6 C 18 10 7 26 7 54 C 7 73 9 79 18 87 C 32 102 63 102 75 87 C 83 80 76 76 67 81 C 46 92 23 75 21 51 C 21 40 23 39 50 40 C 76 41 80 40 81 30 C 81 13 59 1 39 6 M 54 15 C 62 18 62 28 54 30 C 50 32 34 32 30 31 C 28 29 28 25 32 20 C 37 14 46 12 54 15 z" fill="black"/><!-- width=91 height=111 -->
<path id="gl7" d="M 37 6 C 18 9 1 26 4 33 C 8 41 19 36 24 26 C 26 19 31 16 36 16 C 47 16 50 22 50 36 C 50 47 48 49 33 54 C 9 60 2 68 4 83 C 7 98 23 104 39 95 C 42 94 46 92 48 90 C 50 92 54 94 57 95 C 65 100 72 101 78 96 C 87 93 87 88 78 87 C 68 85 65 79 68 54 C 69 23 68 13 58 8 C 52 4 43 3 37 6 M 48 62 C 57 70 48 88 34 88 C 17 88 18 68 37 62 C 44 58 44 58 48 62 z" fill="black"/><!-- width=94 height=110 -->
<path id="gl3" d="M 20 8 C 10 13 8 16 13 23 C 16 27 16 28 16 50 C 17 79 16 83 10 89 C 2 96 3 98 25 99 C 46 99 49 96 40 88 C 39 86 36 85 35 84 C 35 75 35 66 35 57 C 33 23 36 20 54 20 C 73 20 75 23 75 56 C 74 83 74 85 67 89 C 64 93 64 96 67 98 C 71 99 101 99 104 98 C 105 95 104 91 99 89 C 94 85 94 83 93 52 C 93 25 93 23 90 18 C 81 3 67 2 44 12 C 39 13 39 13 36 10 C 31 5 27 5 20 8 z" fill="black"/><!-- width=115 height=110 -->
<path id="gl5639" d="M 8 6 C 6 8 6 12 10 14 C 18 19 20 23 31 53 C 45 90 45 94 35 113 C 29 125 25 129 18 130 C 4 132 6 152 19 152 C 30 152 34 146 54 98 C 64 73 90 24 93 20 C 94 18 97 15 99 14 C 104 12 105 8 102 6 C 98 2 71 4 69 7 C 68 9 68 10 70 13 C 76 19 75 23 70 38 C 57 71 54 71 46 43 C 38 19 38 20 42 14 C 47 9 47 6 42 4 C 38 3 9 3 8 6 z" fill="black"/><!-- width=114 height=161 -->
<path id="gl2" d="M 18 4 C 11 8 9 19 14 25 C 27 37 43 19 32 7 C 28 3 23 3 18 4 M 18 61 C 9 66 8 70 13 79 C 14 82 16 85 14 110 C 14 119 14 128 14 137 C 13 139 12 140 9 142 C 4 148 4 148 7 150 C 8 152 12 152 24 152 C 45 152 48 150 39 140 C 37 139 35 138 34 137 C 34 124 34 112 34 100 C 34 79 33 61 33 60 C 32 58 25 58 18 61 z" fill="black"/><!-- width=54 height=163 -->
<path id="gl259" d="M 19 8 C 9 13 8 16 13 25 C 19 38 17 88 9 88 C 9 88 8 91 7 92 C 3 98 6 100 24 100 C 46 100 48 98 40 88 C 39 87 37 86 35 83 C 35 75 35 66 35 58 C 34 29 35 27 43 22 C 49 18 62 19 69 24 C 74 29 74 34 74 55 C 74 79 74 83 69 88 C 65 92 64 97 66 98 C 66 98 74 100 83 100 C 104 100 107 97 98 88 C 97 87 95 86 93 83 C 93 75 93 66 93 58 C 93 33 93 32 96 28 C 102 17 123 17 129 29 C 132 33 132 37 132 56 C 132 81 132 85 125 88 C 122 92 122 97 124 98 C 128 100 158 100 160 97 C 163 96 163 93 158 90 C 151 85 150 82 150 55 C 150 28 150 23 145 16 C 137 3 118 2 101 12 C 93 17 90 17 83 13 C 72 4 64 3 51 8 C 40 13 38 13 35 9 C 32 4 28 4 19 8 z" fill="black"/><!-- width=172 height=109 -->
<path id="gl773" d="M 46 6 C 46 6 37 7 27 7 C 7 8 4 9 4 16 C 4 22 9 23 26 21 C 34 19 43 18 47 18 C 57 18 62 16 62 12 C 62 6 52 3 46 6 z" fill="black"/><!-- width=71 height=33 -->
<path id="gl259" d="M 19 8 C 9 13 8 16 13 25 C 19 38 17 88 9 88 C 9 88 8 91 7 92 C 3 98 6 100 24 100 C 46 100 48 98 40 88 C 39 87 37 86 35 83 C 35 75 35 66 35 58 C 34 29 35 27 43 22 C 49 18 62 19 69 24 C 74 29 74 34 74 55 C 74 79 74 83 69 88 C 65 92 64 97 66 98 C 66 98 74 100 83 100 C 104 100 107 97 98 88 C 97 87 95 86 93 83 C 93 75 93 66 93 58 C 93 33 93 32 96 28 C 102 17 123 17 129 29 C 132 33 132 37 132 56 C 132 81 132 85 125 88 C 122 92 122 97 124 98 C 128 100 158 100 160 97 C 163 96 163 93 158 90 C 151 85 150 82 150 55 C 150 28 150 23 145 16 C 137 3 118 2 101 12 C 93 17 90 17 83 13 C 72 4 64 3 51 8 C 40 13 38 13 35 9 C 32 4 28 4 19 8 z" fill="black"/><!-- width=172 height=109 -->
<path id="gl5" d="M 38 7 C 19 13 8 30 8 56 C 8 80 20 96 42 99 C 55 101 71 96 78 89 C 85 79 80 76 69 82 C 49 91 24 76 24 51 C 24 40 24 40 53 40 C 61 40 69 40 78 40 C 78 39 79 38 80 36 C 84 33 84 28 80 22 C 74 8 56 2 38 7 M 57 15 C 65 20 65 28 57 30 C 52 33 35 33 33 30 C 30 28 30 25 34 22 C 40 14 50 12 57 15 z" fill="black"/><!-- width=94 height=112 -->
<path id="gl258" d="M 77 7 C 66 11 65 14 71 25 C 74 32 75 32 75 47 C 75 70 75 69 57 70 C 26 71 11 84 7 112 C 2 148 32 175 62 161 C 69 158 70 158 76 162 C 81 165 81 165 89 164 C 106 161 112 155 101 151 C 99 149 95 148 94 145 C 93 143 93 85 93 35 C 94 26 94 17 94 8 C 93 8 91 7 91 5 C 88 3 85 3 77 7 M 66 82 C 74 87 75 91 74 118 C 74 126 74 134 74 143 C 72 143 71 145 70 145 C 59 156 37 148 29 131 C 16 102 41 68 66 82 z" fill="black"/><!-- width=118 height=176 -->
<path id="gl2" d="M 18 4 C 11 8 9 19 14 25 C 27 37 43 19 32 7 C 28 3 23 3 18 4 M 18 61 C 9 66 8 70 13 79 C 14 82 16 85 14 110 C 14 119 14 128 14 137 C 13 139 12 140 9 142 C 4 148 4 148 7 150 C 8 152 12 152 24 152 C 45 152 48 150 39 140 C 37 139 35 138 34 137 C 34 124 34 112 34 100 C 34 79 33 61 33 60 C 32 58 25 58 18 61 z" fill="black"/><!-- width=54 height=163 -->
<path id="gl7" d="M 37 6 C 18 9 1 26 4 33 C 8 41 19 36 24 26 C 26 19 31 16 36 16 C 47 16 50 22 50 36 C 50 47 48 49 33 54 C 9 60 2 68 4 83 C 7 98 23 104 39 95 C 42 94 46 92 48 90 C 50 92 54 94 57 95 C 65 100 72 101 78 96 C 87 93 87 88 78 87 C 68 85 65 79 68 54 C 69 23 68 13 58 8 C 52 4 43 3 37 6 M 48 62 C 57 70 48 88 34 88 C 17 88 18 68 37 62 C 44 58 44 58 48 62 z" fill="black"/><!-- width=94 height=110 -->
<path id="gl1" d="M 20 11 C 18 13 14 17 11 19 C 4 23 4 25 8 30 C 11 31 12 34 13 35 C 13 36 13 50 13 66 C 13 96 14 103 23 106 C 34 111 54 109 57 103 C 61 98 58 95 49 96 C 33 96 31 94 31 58 C 30 28 30 29 42 29 C 55 30 57 30 60 28 C 62 25 62 24 60 22 C 58 18 58 18 47 18 C 35 17 34 17 31 9 C 29 3 24 3 20 11 z" fill="black"/><!-- width=71 height=121 -->
<path id="gl6" d="M 39 3 C 18 9 7 26 7 52 C 7 80 22 96 50 94 C 65 94 78 86 78 78 C 78 74 75 74 67 78 C 47 88 21 72 21 47 C 21 37 23 37 50 37 C 78 37 79 37 80 29 C 83 13 59 0 39 3 M 57 14 C 67 22 59 29 42 29 C 29 29 26 27 29 21 C 34 12 50 8 57 14 z" fill="black"/><!-- width=91 height=106 -->
<path id="gl8" d="M 20 8 C 9 12 8 16 13 25 C 14 26 15 29 15 30 C 15 49 15 67 15 87 C 15 148 16 148 9 154 C 6 158 4 159 6 160 C 8 163 41 164 43 162 C 45 160 45 157 41 153 C 38 152 36 148 36 147 C 35 142 35 95 36 93 C 41 84 55 82 64 87 C 75 91 76 95 75 124 C 75 131 75 140 75 148 C 73 150 71 151 70 153 C 64 158 64 158 65 162 C 67 165 104 164 106 160 C 107 158 107 158 104 156 C 94 148 93 145 94 118 C 95 99 94 89 89 82 C 81 71 66 67 52 73 C 36 81 33 78 35 61 C 36 44 36 9 35 7 C 32 4 27 4 20 8 z" fill="black"/><!-- width=117 height=174 -->
<path id="gl7" d="M 37 6 C 18 9 1 26 4 33 C 8 41 19 36 24 26 C 26 19 31 16 36 16 C 47 16 50 22 50 36 C 50 47 48 49 33 54 C 9 60 2 68 4 83 C 7 98 23 104 39 95 C 42 94 46 92 48 90 C 50 92 54 94 57 95 C 65 100 72 101 78 96 C 87 93 87 88 78 87 C 68 85 65 79 68 54 C 69 23 68 13 58 8 C 52 4 43 3 37 6 M 48 62 C 57 70 48 88 34 88 C 17 88 18 68 37 62 C 44 58 44 58 48 62 z" fill="black"/><!-- width=94 height=110 -->
<path id="gl518" d="M 21 7 C 10 12 7 15 12 22 C 15 27 15 28 15 55 C 15 64 15 73 15 81 C 13 83 12 84 10 86 C 2 94 3 95 25 97 C 44 97 49 97 47 93 C 47 90 46 89 40 86 C 34 85 32 83 32 57 C 32 35 32 28 36 23 C 39 21 46 21 50 23 C 62 30 74 18 65 8 C 60 5 55 5 46 10 C 37 13 36 13 32 8 C 28 3 30 3 21 7 z" fill="black"/><!-- width=78 height=107 -->
<path id="gl259" d="M 19 8 C 9 13 8 16 13 25 C 19 38 17 88 9 88 C 9 88 8 91 7 92 C 3 98 6 100 24 100 C 46 100 48 98 40 88 C 39 87 37 86 35 83 C 35 75 35 66 35 58 C 34 29 35 27 43 22 C 49 18 62 19 69 24 C 74 29 74 34 74 55 C 74 79 74 83 69 88 C 65 92 64 97 66 98 C 66 98 74 100 83 100 C 104 100 107 97 98 88 C 97 87 95 86 93 83 C 93 75 93 66 93 58 C 93 33 93 32 96 28 C 102 17 123 17 129 29 C 132 33 132 37 132 56 C 132 81 132 85 125 88 C 122 92 122 97 124 98 C 128 100 158 100 160 97 C 163 96 163 93 158 90 C 151 85 150 82 150 55 C 150 28 150 23 145 16 C 137 3 118 2 101 12 C 93 17 90 17 83 13 C 72 4 64 3 51 8 C 40 13 38 13 35 9 C 32 4 28 4 19 8 z" fill="black"/><!-- width=172 height=109 -->
<path id="gl516" d="M 15 7 C 2 11 5 31 18 31 C 30 31 35 18 27 10 C 24 9 23 7 22 7 C 22 7 20 6 19 6 C 19 6 17 6 15 7 z" fill="black"/><!-- width=44 height=43 -->
<path id="gl1797" d="M 12 7 C 7 10 3 31 6 35 C 8 39 9 38 16 31 C 25 21 29 20 44 20 C 66 19 64 13 64 81 C 64 148 65 142 48 151 C 44 152 43 154 45 157 C 48 160 99 160 101 157 C 103 153 102 152 96 148 C 84 143 85 147 85 82 C 85 62 85 43 85 24 C 87 24 88 22 89 21 C 91 19 93 19 106 20 C 124 20 125 21 134 33 C 137 39 141 39 143 36 C 145 33 146 27 146 20 C 147 7 146 4 139 6 C 136 6 131 7 129 7 C 125 8 102 8 76 8 C 32 8 29 8 22 6 C 14 3 15 3 12 7 z" fill="black"/><!-- width=157 height=169 -->
<path id="gl10765" d="M 8 4 C 4 6 6 9 12 13 C 21 19 21 18 20 78 C 19 138 20 136 10 141 C 4 144 2 147 6 149 C 8 151 55 150 58 149 C 61 146 59 143 52 141 C 41 138 41 138 41 110 C 40 78 38 81 56 81 C 76 82 78 82 82 90 C 86 96 89 99 92 96 C 94 95 95 59 94 56 C 92 53 86 55 82 61 C 78 69 77 70 60 70 C 40 71 41 72 41 42 C 41 13 40 14 58 14 C 78 14 87 16 93 29 C 96 37 103 32 103 20 C 104 10 104 9 100 6 C 99 4 98 3 96 2 C 82 3 67 3 53 3 C 29 3 9 3 8 4 z" fill="black"/><!-- width=112 height=160 -->
</defs>
<use xlink:href="#gl23832" x="0" y="22"/>
<use xlink:href="#gl516" x="106" y="133"/>
<use xlink:href="#gl1562" x="342" y="9"/>
<use xlink:href="#gl260" x="492" y="3"/>
<use xlink:href="#gl1" x="546" y="57"/>
<use xlink:href="#gl8" x="610" y="0"/>
<use xlink:href="#gl0" x="724" y="66"/>
<use xlink:href="#gl256" x="833" y="69"/>
<use xlink:href="#gl1795" x="942" y="65"/>
<use xlink:href="#gl8" x="1041" y="0"/>
<use xlink:href="#gl8" x="1210" y="1"/>
<use xlink:href="#gl2" x="1326" y="11"/>
<use xlink:href="#gl1795" x="1378" y="64"/>
<use xlink:href="#gl8" x="1477" y="0"/>
<use xlink:href="#gl260" x="1650" y="3"/>
<use xlink:href="#gl261" x="1703" y="67"/>
<use xlink:href="#gl1025" x="1782" y="68"/>
<use xlink:href="#gl261" x="1885" y="67"/>
<use xlink:href="#gl260" x="1974" y="1"/>
<use xlink:href="#gl514" x="2023" y="69"/>
<use xlink:href="#gl0" x="2151" y="66"/>
<use xlink:href="#gl5138" x="2261" y="1"/>
<use xlink:href="#gl7" x="2391" y="66"/>
<use xlink:href="#gl3" x="2479" y="65"/>
<use xlink:href="#gl10510" x="2590" y="69"/>
<use xlink:href="#gl2" x="2691" y="10"/>
<use xlink:href="#gl10755" x="2745" y="69"/>
<use xlink:href="#gl1" x="2834" y="56"/>
<use xlink:href="#gl263" x="2896" y="71"/>
<use xlink:href="#gl0" x="3051" y="66"/>
<use xlink:href="#gl5640" x="3149" y="70"/>
<use xlink:href="#gl10755" x="3248" y="68"/>
<use xlink:href="#gl4" x="3339" y="66"/>
<use xlink:href="#gl5398" x="3466" y="0"/>
<use xlink:href="#gl0" x="3518" y="66"/>
<use xlink:href="#gl3" x="3627" y="65"/>
<use xlink:href="#gl5636" x="3740" y="67"/>
<use xlink:href="#gl1024" x="3898" y="66"/>
<use xlink:href="#gl522" x="4007" y="64"/>
<use xlink:href="#gl4" x="4098" y="66"/>
<use xlink:href="#gl2" x="4169" y="10"/>
<use xlink:href="#gl0" x="4223" y="66"/>
<use xlink:href="#gl258" x="4329" y="1"/>
<use xlink:href="#gl514" x="4440" y="68"/>
<use xlink:href="#gl777" x="4567" y="67"/>
<use xlink:href="#gl23833" x="4656" y="70"/>
<use xlink:href="#gl774" x="4747" y="66"/>
<use xlink:href="#gl2" x="354" y="331"/>
<use xlink:href="#gl3" x="410" y="385"/>
<use xlink:href="#gl5142" x="524" y="385"/>
<use xlink:href="#gl518" x="614" y="387"/>
<use xlink:href="#gl5" x="681" y="385"/>
<use xlink:href="#gl9" x="766" y="386"/>
<use xlink:href="#gl257" x="855" y="386"/>
<use xlink:href="#gl5" x="928" y="386"/>
<use xlink:href="#gl768" x="1071" y="379"/>
<use xlink:href="#gl8" x="1138" y="321"/>
<use xlink:href="#gl5391" x="1252" y="389"/>
<use xlink:href="#gl777" x="1392" y="388"/>
<use xlink:href="#gl8" x="1481" y="321"/>
<use xlink:href="#gl7" x="1598" y="387"/>
<use xlink:href="#gl3" x="1687" y="385"/>
<use xlink:href="#gl777" x="1798" y="388"/>
<use xlink:href="#gl5" x="1888" y="386"/>
<use xlink:href="#gl0" x="2031" y="386"/>
<use xlink:href="#gl5138" x="2141" y="320"/>
<use xlink:href="#gl5637" x="2270" y="386"/>
<use xlink:href="#gl5" x="2356" y="386"/>
<use xlink:href="#gl518" x="2447" y="387"/>
<use xlink:href="#gl1" x="2521" y="378"/>
<use xlink:href="#gl7" x="2588" y="387"/>
<use xlink:href="#gl2" x="2678" y="331"/>
<use xlink:href="#gl774" x="2733" y="387"/>
<use xlink:href="#gl1024" x="2905" y="386"/>
<use xlink:href="#gl8" x="3012" y="320"/>
<use xlink:href="#gl5407" x="3121" y="386"/>
<use xlink:href="#gl257" x="3221" y="386"/>
<use xlink:href="#gl2" x="3297" y="331"/>
<use xlink:href="#gl8711" x="3349" y="386"/>
<use xlink:href="#gl9" x="3437" y="386"/>
<use xlink:href="#gl512" x="3527" y="320"/>
<use xlink:href="#gl517" x="3637" y="385"/>
<use xlink:href="#gl518" x="3752" y="387"/>
<use xlink:href="#gl5400" x="3820" y="387"/>
<use xlink:href="#gl513" x="3931" y="322"/>
<use xlink:href="#gl512" x="4039" y="320"/>
<use xlink:href="#gl5" x="4093" y="386"/>
<use xlink:href="#gl259" x="4183" y="385"/>
<use xlink:href="#gl5388" x="4353" y="387"/>
<use xlink:href="#gl2" x="4484" y="332"/>
<use xlink:href="#gl774" x="4540" y="386"/>
<use xlink:href="#gl770" x="4712" y="378"/>
<use xlink:href="#gl8" x="4775" y="321"/>
<use xlink:href="#gl5" x="4888" y="386"/>
<use xlink:href="#gl5394" x="352" y="638"/>
<use xlink:href="#gl256" x="417" y="709"/>
<use xlink:href="#gl768" x="528" y="699"/>
<use xlink:href="#gl256" x="597" y="709"/>
<use xlink:href="#gl4" x="711" y="706"/>
<use xlink:href="#gl261" x="779" y="707"/>
<use xlink:href="#gl4901" x="874" y="771"/>
<use xlink:href="#gl9" x="974" y="706"/>
<use xlink:href="#gl3" x="1066" y="705"/>
<use xlink:href="#gl261" x="1236" y="706"/>
<use xlink:href="#gl5890" x="1323" y="707"/>
<use xlink:href="#gl2" x="1436" y="652"/>
<use xlink:href="#gl17431" x="1490" y="709"/>
<use xlink:href="#gl0" x="1562" y="706"/>
<use xlink:href="#gl258" x="1667" y="642"/>
<use xlink:href="#gl5" x="1779" y="706"/>
<use xlink:href="#gl0" x="1923" y="706"/>
<use xlink:href="#gl5394" x="2030" y="638"/>
<use xlink:href="#gl9" x="2160" y="706"/>
<use xlink:href="#gl1026" x="2252" y="703"/>
<use xlink:href="#gl5395" x="2362" y="709"/>
<use xlink:href="#gl2" x="2463" y="652"/>
<use xlink:href="#gl261" x="2518" y="706"/>
<use xlink:href="#gl5657" x="2606" y="698"/>
<use xlink:href="#gl5404" x="2669" y="708"/>
<use xlink:href="#gl2" x="2825" y="651"/>
<use xlink:href="#gl514" x="2877" y="709"/>
<use xlink:href="#gl256" x="3008" y="709"/>
<use xlink:href="#gl1026" x="3120" y="704"/>
<use xlink:href="#gl512" x="3233" y="639"/>
<use xlink:href="#gl2" x="3291" y="651"/>
<use xlink:href="#gl775" x="3345" y="641"/>
<use xlink:href="#gl5391" x="3451" y="707"/>
<use xlink:href="#gl512" x="3537" y="640"/>
<use xlink:href="#gl5639" x="3586" y="708"/>
<use xlink:href="#gl1" x="3747" y="697"/>
<use xlink:href="#gl0" x="3812" y="706"/>
<use xlink:href="#gl777" x="3972" y="708"/>
<use xlink:href="#gl9" x="4060" y="706"/>
<use xlink:href="#gl256" x="4154" y="709"/>
<use xlink:href="#gl17431" x="4263" y="709"/>
<use xlink:href="#gl261" x="4336" y="707"/>
<use xlink:href="#gl7" x="4480" y="707"/>
<use xlink:href="#gl3" x="4569" y="705"/>
<use xlink:href="#gl5639" x="4675" y="708"/>
<use xlink:href="#gl2" x="4836" y="651"/>
<use xlink:href="#gl259" x="4892" y="705"/>
<use xlink:href="#gl773" x="5063" y="743"/>
<use xlink:href="#gl259" x="353" y="1025"/>
<use xlink:href="#gl5" x="523" y="1025"/>
<use xlink:href="#gl258" x="609" y="962"/>
<use xlink:href="#gl2" x="725" y="970"/>
<use xlink:href="#gl7" x="781" y="1027"/>
<use xlink:href="#gl1" x="870" y="1017"/>
<use xlink:href="#gl6" x="936" y="1029"/>
<use xlink:href="#gl8" x="1077" y="960"/>
<use xlink:href="#gl7" x="1194" y="1026"/>
<use xlink:href="#gl518" x="1283" y="1027"/>
<use xlink:href="#gl259" x="1356" y="1025"/>
<use xlink:href="#gl516" x="1532" y="1093"/>
<use xlink:href="#gl1797" x="5526" y="965"/>
<use xlink:href="#gl10765" x="6123" y="973"/>
</svg>