<svg xmlns="http://www.w3.org/2000/svg" xmlns:xlink="http://www.w3.org/1999/xlink" width="490px" height="37px" viewBox="0 0 4902 370" version="1.1">
<defs>
<path id="gl17674" d="M 27 6 C 25 8 9 37 7 44 C 3 55 14 52 22 42 C 27 36 42 26 46 26 C 48 26 52 25 55 24 C 67 20 96 21 99 26 C 104 31 103 40 94 62 C 93 68 90 78 82 102 C 80 110 78 118 76 122 C 75 124 73 132 72 136 C 70 142 67 152 66 157 C 64 162 62 171 60 176 C 55 196 48 219 43 229 C 38 240 31 246 19 248 C 18 248 15 249 14 249 C 15 251 16 252 18 253 C 18 253 19 254 20 255 C 32 255 44 255 56 255 C 75 255 93 255 93 255 C 94 254 94 254 94 253 C 94 249 91 248 86 248 C 74 248 70 232 78 213 C 79 210 80 205 80 202 C 80 195 90 160 96 150 C 97 146 99 139 100 134 C 102 129 103 122 104 117 C 105 114 108 106 109 103 C 111 98 114 92 114 88 C 116 76 120 64 126 48 C 132 31 132 30 136 25 C 138 24 139 22 140 21 C 147 21 156 22 163 22 C 190 22 194 24 198 33 C 199 37 201 42 201 44 C 201 50 201 52 205 54 C 210 56 213 51 222 27 C 229 7 228 3 216 7 C 207 9 138 12 82 10 C 69 9 57 9 44 9 C 43 8 40 7 39 6 C 33 2 31 2 27 6 z" fill="black"/><!-- width=235 height=264 -->
<path id="gl17675" d="M 91 6 C 72 9 67 14 73 22 C 78 30 77 34 61 83 C 52 107 43 138 39 151 C 30 183 24 199 13 232 C 3 262 2 264 8 268 C 14 273 18 269 31 244 C 52 202 65 184 85 161 C 115 130 130 124 134 140 C 137 152 122 205 108 237 C 101 252 99 254 83 250 C 78 249 71 254 71 260 C 71 264 78 272 84 272 C 113 272 151 208 160 150 C 162 128 155 115 139 115 C 122 115 98 132 77 157 C 66 169 63 170 60 170 C 55 170 57 158 67 131 C 71 121 77 105 79 96 C 83 86 87 72 91 63 C 95 55 98 45 98 40 C 101 37 103 30 104 25 C 111 7 109 3 91 6 z" fill="black"/><!-- width=169 height=280 -->
<path id="gl6150" d="M 86 6 C 45 17 4 76 8 122 C 9 151 26 161 54 152 C 73 144 91 128 86 122 C 84 120 83 121 71 128 C 57 138 49 141 40 137 C 32 132 29 127 30 110 C 30 87 34 83 58 78 C 101 68 131 37 118 14 C 114 4 102 2 86 6 M 99 18 C 107 27 95 47 69 63 C 37 84 37 63 68 30 C 83 16 92 12 99 18 z" fill="black"/><!-- width=132 height=164 -->
<path id="gl17676" d="M 79 4 C 74 6 72 7 70 9 C 68 10 67 10 66 12 C 67 13 70 13 71 14 C 73 15 78 16 82 18 C 95 20 96 26 86 55 C 80 73 78 83 71 105 C 70 109 68 117 67 120 C 59 147 49 178 49 179 C 49 183 39 214 36 222 C 30 232 25 236 14 238 C 6 241 3 245 7 247 C 8 248 68 248 85 248 C 86 247 86 246 86 245 C 86 241 85 241 79 240 C 60 236 61 228 80 159 C 85 147 89 131 90 126 C 92 121 95 113 96 109 C 96 106 98 98 101 92 C 102 88 103 82 105 80 C 106 78 107 71 109 65 C 124 16 126 13 140 13 C 149 13 161 16 168 22 C 196 41 190 95 156 117 C 147 124 138 127 135 127 C 133 127 123 135 123 136 C 123 144 152 140 172 129 C 208 109 224 71 210 37 C 203 24 188 13 170 7 C 160 4 95 3 79 4 z" fill="black"/><!-- width=225 height=257 -->
<path id="gl6146" d="M 54 4 C 39 11 3 37 3 44 C 3 50 8 49 18 40 C 30 28 40 27 40 37 C 40 39 37 48 34 55 C 18 99 8 128 7 139 C 6 153 16 159 29 152 C 45 143 61 130 79 110 C 90 96 95 92 97 95 C 101 97 99 107 90 130 C 82 147 82 152 91 154 C 97 157 107 154 126 141 C 142 130 152 120 151 115 C 151 107 146 108 137 118 C 123 132 118 136 113 131 C 108 126 115 106 143 37 C 153 13 153 13 147 8 C 139 1 136 4 122 33 C 104 70 94 85 65 112 C 44 131 40 134 35 131 C 29 128 29 122 39 99 C 43 87 49 71 53 63 C 55 54 61 40 64 33 C 70 17 71 11 68 7 C 64 4 59 3 54 4 z" fill="black"/><!-- width=160 height=165 -->
<path id="gl5912" d="M 35 7 C 24 12 9 28 9 35 C 9 40 12 40 17 35 C 28 26 34 23 38 29 C 42 34 35 53 16 114 C 4 146 4 146 8 151 C 14 158 19 153 31 130 C 44 94 59 66 75 45 C 90 26 94 23 101 38 C 106 47 111 45 116 35 C 124 17 115 1 101 4 C 91 8 83 18 66 43 C 53 66 48 65 54 39 C 58 22 59 17 57 12 C 54 3 47 2 35 7 z" fill="black"/><!-- width=128 height=163 -->
<path id="gl17677" d="M 118 7 C 115 9 113 13 111 20 C 106 33 102 37 90 41 C 70 49 66 50 67 55 C 67 59 72 57 80 54 C 90 49 97 50 97 56 C 97 61 80 112 76 121 C 73 125 71 135 68 144 C 65 153 60 167 57 175 C 54 183 49 197 47 206 C 30 251 27 255 13 263 C 4 265 2 269 7 271 C 12 272 65 271 72 269 C 76 267 73 263 68 261 C 55 257 54 249 65 219 C 78 181 77 182 95 181 C 120 179 136 172 154 155 C 179 129 191 101 190 72 C 189 48 175 33 149 33 C 135 33 133 32 135 21 C 136 10 135 8 130 6 C 124 3 121 3 118 7 M 148 44 C 162 51 167 68 162 94 C 155 125 138 154 117 165 C 106 172 96 171 91 162 C 88 156 89 153 106 103 C 112 86 115 73 119 63 C 125 43 133 37 148 44 z" fill="black"/><!-- width=205 height=281 -->
<path id="gl17678" d="M 73 6 C 29 22 -4 100 10 140 C 22 165 64 162 90 133 C 123 98 136 38 118 14 C 110 3 89 0 73 6 M 95 15 C 119 27 88 124 55 144 C 31 157 20 135 32 96 C 48 41 77 6 95 15 z" fill="black"/><!-- width=139 height=168 -->
<path id="gl17679" d="M 71 7 C 59 12 45 24 39 36 C 33 51 34 61 50 93 C 61 114 62 123 57 132 C 50 145 38 145 22 131 C 16 126 13 126 9 130 C 3 136 7 151 16 155 C 20 158 38 157 45 155 C 64 148 76 131 78 113 C 80 100 78 94 64 67 C 54 48 52 35 60 27 C 66 19 75 19 84 27 C 96 35 102 34 102 23 C 102 9 87 1 71 7 z" fill="black"/><!-- width=112 height=168 -->
<path id="gl6150" d="M 86 6 C 45 17 4 76 8 122 C 9 151 26 161 54 152 C 73 144 91 128 86 122 C 84 120 83 121 71 128 C 57 138 49 141 40 137 C 32 132 29 127 30 110 C 30 87 34 83 58 78 C 101 68 131 37 118 14 C 114 4 102 2 86 6 M 99 18 C 107 27 95 47 69 63 C 37 84 37 63 68 30 C 83 16 92 12 99 18 z" fill="black"/><!-- width=132 height=164 -->
<path id="gl10263" d="M 141 7 C 140 8 137 12 136 14 C 133 22 127 24 119 20 C 108 13 81 25 60 45 C 22 83 -2 147 12 162 C 18 166 21 166 30 164 C 43 159 58 150 75 134 C 91 117 96 121 88 142 C 83 158 85 165 96 165 C 116 165 163 128 146 127 C 144 127 141 128 135 134 C 125 142 121 145 116 144 C 107 144 107 135 118 107 C 122 99 129 82 134 70 C 137 56 145 39 148 31 C 152 22 154 14 154 12 C 154 4 146 1 141 7 M 112 33 C 123 38 123 49 111 72 C 96 101 87 114 65 131 C 48 146 47 146 42 146 C 18 146 48 71 84 41 C 95 31 104 30 112 33 z" fill="black"/><!-- width=164 height=175 -->
<path id="gl6154" d="M 47 6 C 28 13 8 29 11 36 C 12 39 15 39 22 34 C 34 25 41 24 44 30 C 45 35 42 41 20 102 C 4 145 3 149 8 154 C 14 160 18 156 33 126 C 56 80 64 68 91 41 C 110 23 115 19 121 19 C 131 19 132 30 122 55 C 118 63 111 79 107 90 C 102 102 96 118 93 127 C 84 147 84 153 94 155 C 109 159 158 126 150 117 C 149 115 147 115 138 122 C 126 133 121 136 117 132 C 115 128 115 125 122 109 C 154 36 158 14 142 6 C 127 -1 100 13 73 47 C 52 73 49 66 64 26 C 69 14 69 9 62 6 C 58 3 55 3 47 6 z" fill="black"/><!-- width=162 height=166 -->
<path id="gl17680" d="M 179 3 C 178 3 174 4 170 4 C 157 8 156 10 161 20 C 164 27 164 32 158 50 C 156 56 150 73 145 87 C 134 121 134 121 122 117 C 89 107 36 147 14 203 C -1 246 4 273 33 268 C 52 264 68 252 89 228 C 103 211 108 215 101 238 C 96 252 96 258 99 263 C 107 271 122 267 143 249 C 162 232 168 223 163 221 C 160 218 158 220 146 232 C 133 243 128 246 123 243 C 121 240 121 234 123 224 C 125 221 127 214 129 208 C 131 203 133 197 134 193 C 134 190 137 184 138 179 C 149 145 156 122 167 92 C 168 87 170 83 172 80 C 172 78 173 73 174 69 C 176 66 180 55 182 46 C 186 39 190 28 191 25 C 196 14 196 7 193 4 C 192 3 181 2 179 3 M 119 126 C 133 134 121 174 96 206 C 79 227 48 252 37 253 C 28 255 25 251 26 239 C 27 218 58 169 87 140 C 102 127 111 122 119 126 z" fill="black"/><!-- width=204 height=279 -->
<path id="gl17681" d="M 139 3 C 86 3 75 4 74 6 C 73 8 75 12 81 14 C 92 19 93 26 89 43 C 85 57 75 91 67 115 C 60 139 50 170 46 183 C 36 220 31 231 20 235 C 19 235 15 237 14 238 C 13 238 10 239 8 239 C 4 242 4 244 7 245 C 12 248 85 246 86 244 C 87 242 86 240 79 238 C 60 233 60 225 74 172 C 80 154 85 137 86 134 C 91 126 99 125 132 127 C 152 130 157 132 160 144 C 161 152 162 155 166 155 C 169 155 172 150 176 134 C 178 127 181 115 185 108 C 190 93 190 90 186 89 C 183 89 180 90 173 99 C 164 110 160 113 138 114 C 95 117 92 115 99 92 C 101 87 105 72 110 58 C 124 14 122 15 146 15 C 191 14 205 20 205 42 C 205 48 209 51 213 48 C 216 44 217 40 223 15 C 227 6 222 2 210 3 C 207 3 174 3 139 3 z" fill="black"/><!-- width=235 height=256 -->
<path id="gl17682" d="M 46 6 C 37 10 32 13 22 20 C 9 30 8 32 8 33 C 8 34 7 36 6 37 C 3 38 3 44 6 44 C 7 44 12 39 18 36 C 28 26 31 25 36 27 C 40 30 40 33 33 51 C 22 80 7 128 6 138 C 4 159 21 162 45 141 C 49 138 55 133 57 130 C 61 128 66 123 67 120 C 69 117 74 112 76 109 C 80 104 84 99 86 97 C 91 91 96 88 98 92 C 100 96 100 99 87 134 C 82 146 82 147 86 152 C 92 159 100 158 123 141 C 144 127 152 118 151 111 C 150 105 145 108 134 118 C 112 142 105 132 120 94 C 121 91 123 85 124 81 C 126 76 128 70 129 67 C 130 63 132 60 132 58 C 132 57 133 54 135 51 C 150 16 151 12 146 6 C 142 2 141 2 136 4 C 133 6 130 9 123 26 C 120 33 115 43 112 46 C 110 50 106 55 105 58 C 94 76 90 84 66 108 C 46 128 40 132 36 129 C 28 127 30 118 39 94 C 42 88 44 81 45 78 C 46 73 50 62 56 48 C 64 26 69 13 69 10 C 69 2 58 1 46 6 z" fill="black"/><!-- width=158 height=168 -->
<path id="gl6154" d="M 47 6 C 28 13 8 29 11 36 C 12 39 15 39 22 34 C 34 25 41 24 44 30 C 45 35 42 41 20 102 C 4 145 3 149 8 154 C 14 160 18 156 33 126 C 56 80 64 68 91 41 C 110 23 115 19 121 19 C 131 19 132 30 122 55 C 118 63 111 79 107 90 C 102 102 96 118 93 127 C 84 147 84 153 94 155 C 109 159 158 126 150 117 C 149 115 147 115 138 122 C 126 133 121 136 117 132 C 115 128 115 125 122 109 C 154 36 158 14 142 6 C 127 -1 100 13 73 47 C 52 73 49 66 64 26 C 69 14 69 9 62 6 C 58 3 55 3 47 6 z" fill="black"/><!-- width=162 height=166 -->
<path id="gl17683" d="M 84 8 C 75 10 66 15 61 19 C 31 44 16 68 10 102 C 3 147 18 170 49 159 C 74 150 92 135 87 127 C 86 124 86 124 80 127 C 78 129 73 132 72 133 C 67 138 54 144 48 144 C 32 144 27 127 36 92 C 44 56 67 21 85 19 C 92 18 94 20 99 32 C 104 43 105 44 111 43 C 120 40 126 27 121 19 C 116 8 102 3 84 8 z" fill="black"/><!-- width=135 height=174 -->
<path id="gl6161" d="M 66 7 C 65 8 60 15 58 21 C 49 39 48 40 34 42 C 22 43 21 43 18 47 C 17 51 20 52 28 53 C 42 54 43 56 33 86 C 24 111 23 112 15 144 C 5 176 5 175 8 179 C 9 183 11 185 16 185 C 34 186 86 142 78 134 C 75 130 72 132 60 144 C 45 160 40 162 35 157 C 33 154 33 148 37 135 C 43 119 59 72 59 71 C 59 69 60 66 61 62 C 66 53 68 52 83 53 C 100 54 104 54 106 51 C 112 43 106 40 90 41 C 79 41 78 41 75 39 C 72 35 72 34 77 20 C 80 9 79 4 73 4 C 69 4 68 4 66 7 z" fill="black"/><!-- width=117 height=196 -->
<path id="gl17684" d="M 71 7 C 60 13 59 31 70 36 C 83 43 100 19 88 7 C 84 3 76 3 71 7 M 58 93 C 43 99 16 118 16 124 C 16 128 20 128 29 123 C 37 117 41 116 43 117 C 48 121 48 121 31 162 C 24 180 19 193 15 202 C 14 207 12 215 9 220 C -1 249 13 252 52 226 C 70 214 76 206 71 201 C 69 198 69 198 59 207 C 48 218 42 221 37 220 C 32 218 33 210 40 195 C 44 183 53 162 64 135 C 65 130 70 121 72 115 C 81 94 76 87 58 93 z" fill="black"/><!-- width=103 height=253 -->
<path id="gl5913" d="M 74 7 C 48 16 21 48 12 83 C 2 114 6 140 21 150 C 59 174 118 118 125 52 C 128 41 127 39 124 27 C 118 7 98 0 74 7 M 94 16 C 104 21 107 39 100 62 C 85 117 56 154 36 143 C 24 135 24 117 34 85 C 51 38 78 7 94 16 z" fill="black"/><!-- width=138 height=165 -->
<path id="gl6154" d="M 47 6 C 28 13 8 29 11 36 C 12 39 15 39 22 34 C 34 25 41 24 44 30 C 45 35 42 41 20 102 C 4 145 3 149 8 154 C 14 160 18 156 33 126 C 56 80 64 68 91 41 C 110 23 115 19 121 19 C 131 19 132 30 122 55 C 118 63 111 79 107 90 C 102 102 96 118 93 127 C 84 147 84 153 94 155 C 109 159 158 126 150 117 C 149 115 147 115 138 122 C 126 133 121 136 117 132 C 115 128 115 125 122 109 C 154 36 158 14 142 6 C 127 -1 100 13 73 47 C 52 73 49 66 64 26 C 69 14 69 9 62 6 C 58 3 55 3 47 6 z" fill="black"/><!-- width=162 height=166 -->
<path id="gl5913" d="M 74 7 C 48 16 21 48 12 83 C 2 114 6 140 21 150 C 59 174 118 118 125 52 C 128 41 127 39 124 27 C 118 7 98 0 74 7 M 94 16 C 104 21 107 39 100 62 C 85 117 56 154 36 143 C 24 135 24 117 34 85 C 51 38 78 7 94 16 z" fill="black"/><!-- width=138 height=165 -->
<path id="gl17685" d="M 186 4 C 183 6 181 7 180 7 C 178 7 177 7 176 8 C 176 8 172 10 169 13 C 157 20 135 52 129 74 C 127 80 124 86 123 90 C 123 93 121 99 120 102 C 116 112 112 116 100 116 C 90 116 84 117 82 121 C 81 126 84 128 94 128 C 112 128 112 129 99 182 C 97 187 96 195 94 201 C 91 212 85 241 84 246 C 81 255 78 266 76 273 C 74 278 73 285 72 290 C 61 328 54 340 42 340 C 36 340 28 338 24 333 C 16 327 10 326 7 332 C 1 342 10 356 25 357 C 33 358 50 354 55 349 C 56 348 58 348 58 348 C 63 348 78 328 85 313 C 90 303 105 259 105 255 C 105 254 106 248 109 241 C 110 234 112 224 114 220 C 115 218 116 212 117 207 C 118 204 120 196 121 189 C 123 182 124 176 126 174 C 126 171 128 164 129 157 C 133 140 135 135 141 130 C 142 129 144 128 145 127 C 151 127 156 128 162 128 C 180 129 183 128 184 123 C 186 116 182 114 164 115 C 144 116 141 115 147 94 C 148 88 151 84 151 82 C 152 82 154 76 156 69 C 164 45 174 30 190 16 C 194 14 196 12 200 9 C 198 8 196 7 195 6 C 192 1 189 1 186 4 z" fill="black"/><!-- width=207 height=366 -->
<path id="gl17686" d="M 3 6 C 2 8 3 10 6 12 C 7 12 9 13 9 14 C 9 14 9 14 10 14 C 14 13 24 16 26 19 C 26 20 27 21 28 22 C 30 24 32 28 33 33 C 37 48 38 48 44 42 C 56 28 50 10 33 7 C 27 4 4 4 3 6 z" fill="black"/><!-- width=63 height=58 -->
<path id="gl6158" d="M 191 9 C 183 14 180 18 172 31 C 168 38 161 49 154 58 C 144 71 126 98 112 118 C 104 131 55 200 47 211 C 33 229 25 236 14 239 C 7 240 4 247 10 248 C 15 251 71 248 74 247 C 75 245 74 241 67 239 C 59 235 58 230 64 220 C 88 180 104 157 109 155 C 114 152 165 150 169 151 C 177 155 178 162 176 197 C 172 228 168 236 159 239 C 149 241 145 244 149 247 C 150 248 197 250 217 250 C 224 248 224 241 217 240 C 200 236 197 229 201 186 C 201 177 202 150 203 127 C 206 69 207 48 210 29 C 211 3 208 1 191 9 M 180 50 C 184 54 184 63 183 82 C 182 88 180 100 180 110 C 178 138 177 139 150 138 C 117 137 117 135 140 101 C 149 88 159 74 161 67 C 167 58 176 49 177 49 C 178 49 179 49 180 50 z" fill="black"/><!-- width=233 height=259 -->
<path id="gl6154" d="M 47 6 C 28 13 8 29 11 36 C 12 39 15 39 22 34 C 34 25 41 24 44 30 C 45 35 42 41 20 102 C 4 145 3 149 8 154 C 14 160 18 156 33 126 C 56 80 64 68 91 41 C 110 23 115 19 121 19 C 131 19 132 30 122 55 C 118 63 111 79 107 90 C 102 102 96 118 93 127 C 84 147 84 153 94 155 C 109 159 158 126 150 117 C 149 115 147 115 138 122 C 126 133 121 136 117 132 C 115 128 115 125 122 109 C 154 36 158 14 142 6 C 127 -1 100 13 73 47 C 52 73 49 66 64 26 C 69 14 69 9 62 6 C 58 3 55 3 47 6 z" fill="black"/><!-- width=162 height=166 -->
<path id="gl6159" d="M 55 8 C 47 12 32 33 32 40 C 32 45 37 45 43 38 C 50 29 55 30 60 40 C 65 49 74 72 75 79 C 77 89 77 89 45 123 C 37 132 33 133 28 127 C 21 121 18 121 13 126 C 2 137 3 153 16 155 C 25 158 44 143 61 121 C 80 97 84 97 91 118 C 103 152 112 162 126 152 C 137 144 149 121 144 115 C 142 112 137 115 134 120 C 128 132 118 132 112 120 C 108 111 97 84 97 80 C 98 75 101 70 108 61 C 112 58 120 50 124 44 C 141 27 143 25 152 34 C 157 39 158 40 160 39 C 176 34 174 6 157 6 C 144 6 124 23 107 49 C 95 66 90 64 80 33 C 74 14 71 9 65 7 C 60 4 61 4 55 8 z" fill="black"/><!-- width=181 height=167 -->
<path id="gl17684" d="M 71 7 C 60 13 59 31 70 36 C 83 43 100 19 88 7 C 84 3 76 3 71 7 M 58 93 C 43 99 16 118 16 124 C 16 128 20 128 29 123 C 37 117 41 116 43 117 C 48 121 48 121 31 162 C 24 180 19 193 15 202 C 14 207 12 215 9 220 C -1 249 13 252 52 226 C 70 214 76 206 71 201 C 69 198 69 198 59 207 C 48 218 42 221 37 220 C 32 218 33 210 40 195 C 44 183 53 162 64 135 C 65 130 70 121 72 115 C 81 94 76 87 58 93 z" fill="black"/><!-- width=103 height=253 -->
<path id="gl6150" d="M 86 6 C 45 17 4 76 8 122 C 9 151 26 161 54 152 C 73 144 91 128 86 122 C 84 120 83 121 71 128 C 57 138 49 141 40 137 C 32 132 29 127 30 110 C 30 87 34 83 58 78 C 101 68 131 37 118 14 C 114 4 102 2 86 6 M 99 18 C 107 27 95 47 69 63 C 37 84 37 63 68 30 C 83 16 92 12 99 18 z" fill="black"/><!-- width=132 height=164 -->
<path id="gl6161" d="M 66 7 C 65 8 60 15 58 21 C 49 39 48 40 34 42 C 22 43 21 43 18 47 C 17 51 20 52 28 53 C 42 54 43 56 33 86 C 24 111 23 112 15 144 C 5 176 5 175 8 179 C 9 183 11 185 16 185 C 34 186 86 142 78 134 C 75 130 72 132 60 144 C 45 160 40 162 35 157 C 33 154 33 148 37 135 C 43 119 59 72 59 71 C 59 69 60 66 61 62 C 66 53 68 52 83 53 C 100 54 104 54 106 51 C 112 43 106 40 90 41 C 79 41 78 41 75 39 C 72 35 72 34 77 20 C 80 9 79 4 73 4 C 69 4 68 4 66 7 z" fill="black"/><!-- width=117 height=196 -->
<path id="gl17687" d="M 82 8 C 81 9 76 13 73 15 C 68 18 66 20 64 19 C 62 18 60 21 60 27 C 60 28 60 33 58 37 C 54 49 58 54 66 43 C 75 27 86 26 91 42 C 98 62 96 141 88 166 C 78 201 54 231 37 232 C 36 232 32 230 28 228 C 16 219 4 223 4 235 C 4 250 22 254 44 244 C 56 238 80 214 91 200 C 93 196 98 189 100 186 C 106 177 120 156 127 142 C 129 138 134 129 136 126 C 144 114 153 96 157 86 C 158 80 160 74 162 72 C 164 69 165 63 166 60 C 168 56 169 52 169 51 C 171 46 177 25 177 19 C 177 13 176 12 172 9 C 163 0 153 8 153 27 C 153 32 153 40 152 45 C 150 50 148 56 148 58 C 148 61 145 76 141 86 C 140 90 138 97 135 104 C 130 118 127 126 123 129 C 120 133 120 133 116 130 C 116 129 115 128 114 128 C 114 116 115 105 115 94 C 116 75 116 58 116 56 C 115 54 114 46 114 39 C 110 12 98 0 82 8 z" fill="black"/><!-- width=188 height=260 -->
</defs>
<use xlink:href="#gl17674" x="0" y="14"/>
<use xlink:href="#gl17675" x="189" y="1"/>
<use xlink:href="#gl6150" x="361" y="116"/>
<use xlink:href="#gl17676" x="566" y="21"/>
<use xlink:href="#gl6146" x="773" y="115"/>
<use xlink:href="#gl5912" x="950" y="115"/>
<use xlink:href="#gl17677" x="1017" y="89"/>
<use xlink:href="#gl17678" x="1226" y="116"/>
<use xlink:href="#gl17679" x="1358" y="114"/>
<use xlink:href="#gl6150" x="1463" y="116"/>
<use xlink:href="#gl10263" x="1669" y="106"/>
<use xlink:href="#gl6154" x="1845" y="115"/>
<use xlink:href="#gl17680" x="2013" y="3"/>
<use xlink:href="#gl17681" x="2270" y="21"/>
<use xlink:href="#gl17682" x="2468" y="115"/>
<use xlink:href="#gl6154" x="2642" y="114"/>
<use xlink:href="#gl17683" x="2813" y="110"/>
<use xlink:href="#gl6161" x="2939" y="84"/>
<use xlink:href="#gl17684" x="3042" y="27"/>
<use xlink:href="#gl5913" x="3138" y="114"/>
<use xlink:href="#gl6154" x="3290" y="114"/>
<use xlink:href="#gl5913" x="3553" y="114"/>
<use xlink:href="#gl17685" x="3629" y="4"/>
<use xlink:href="#gl17686" x="3821" y="0"/>
<use xlink:href="#gl6158" x="3869" y="17"/>
<use xlink:href="#gl6154" x="4116" y="113"/>
<use xlink:href="#gl6159" x="4269" y="113"/>
<use xlink:href="#gl17684" x="4443" y="25"/>
<use xlink:href="#gl6150" x="4536" y="114"/>
<use xlink:href="#gl6161" x="4666" y="81"/>
<use xlink:href="#gl17687" x="4714" y="110"/>
</svg>