<svg xmlns="http://www.w3.org/2000/svg" xmlns:xlink="http://www.w3.org/1999/xlink" width="887px" height="1190px" viewBox="0 0 8873 11909" version="1.1">
<defs>
<path id="gl6429" d="M 37 7 C 15 12 6 30 9 57 C 12 74 18 83 45 100 C 53 106 63 113 65 116 C 83 130 75 156 54 153 C 43 152 39 146 37 131 C 37 119 36 118 26 116 C 8 113 4 118 8 141 C 13 168 26 179 57 179 C 89 179 107 162 107 130 C 107 108 101 100 70 80 C 42 62 40 58 40 47 C 40 26 68 25 72 45 C 74 59 75 61 87 62 C 101 63 105 61 103 46 C 102 29 94 17 80 10 C 72 7 50 4 37 7 z" fill="black"/><!-- width=119 height=190 -->
<path id="gl21516" d="M 36 6 C 13 13 9 20 7 60 C 6 102 8 115 21 123 C 36 133 58 134 74 127 C 81 123 85 118 88 109 C 94 93 91 86 76 87 C 73 87 69 87 68 87 C 64 87 61 92 61 97 C 61 111 40 114 36 100 C 33 93 33 81 37 78 C 38 76 39 75 39 74 C 48 74 56 74 63 74 C 80 74 88 74 90 73 C 93 70 94 33 91 24 C 84 7 57 -1 36 6 M 56 26 C 60 28 64 36 64 40 C 64 42 63 45 62 48 C 61 49 60 50 58 52 C 56 52 52 52 50 52 C 39 52 36 49 36 42 C 36 31 46 22 56 26 z" fill="black"/><!-- width=105 height=144 -->
<path id="gl21517" d="M 33 4 C 15 9 10 22 9 73 C 8 100 9 110 16 120 C 24 130 37 134 50 128 C 63 122 67 127 66 146 C 64 168 66 171 81 170 C 96 170 97 166 94 144 C 93 132 93 120 93 93 C 93 74 94 55 94 49 C 94 44 94 36 96 30 C 99 10 96 4 82 4 C 79 4 73 6 68 7 C 67 8 64 9 62 9 C 60 8 57 8 56 7 C 48 3 38 2 33 4 M 58 28 C 64 33 66 36 64 67 C 63 104 61 109 50 109 C 39 109 36 98 37 62 C 38 38 39 33 45 28 C 49 25 54 25 58 28 z" fill="black"/><!-- width=110 height=182 -->
<path id="gl6431" d="M 14 6 C 8 7 8 7 8 63 C 9 120 9 123 16 129 C 26 138 41 137 54 127 C 57 126 58 126 64 129 C 69 132 72 132 78 132 C 90 132 90 137 90 70 C 90 38 89 12 89 10 C 87 3 61 3 60 10 C 60 12 60 32 60 57 C 61 92 60 100 59 103 C 54 115 42 115 38 104 C 36 99 36 95 36 57 C 37 32 37 12 36 10 C 35 6 24 4 14 6 z" fill="black"/><!-- width=103 height=145 -->
<path id="gl8479" d="M 37 8 C 25 12 15 22 13 34 C 10 42 10 92 13 104 C 15 126 30 137 57 137 C 80 137 95 125 97 103 C 98 93 96 91 83 91 C 72 91 68 93 67 101 C 66 109 63 111 58 114 C 45 117 34 101 40 85 C 43 78 44 77 71 78 C 87 78 95 78 95 77 C 98 74 98 67 97 52 C 96 26 90 14 77 9 C 68 7 45 6 37 8 M 63 32 C 69 38 69 51 63 54 C 58 57 46 56 43 52 C 38 48 38 38 44 33 C 49 28 58 27 63 32 z" fill="black"/><!-- width=110 height=149 -->
<path id="gl9493" d="M 56 6 C 54 7 50 8 48 9 C 42 13 38 13 33 10 C 27 7 12 7 9 10 C 7 13 7 128 8 130 C 12 136 32 136 36 130 C 36 129 36 109 36 85 C 36 38 36 37 43 32 C 45 30 53 30 56 32 C 62 37 62 37 62 83 C 61 106 61 126 61 128 C 62 132 68 135 78 134 C 93 134 91 137 91 79 C 90 24 90 22 85 16 C 80 8 66 3 56 6 z" fill="black"/><!-- width=103 height=144 -->
<path id="gl8467" d="M 31 8 C 22 12 17 16 13 23 C 12 26 11 28 9 31 C 9 43 9 57 9 69 C 8 112 9 115 16 124 C 22 133 29 137 43 137 C 72 138 86 124 86 96 C 86 86 83 83 71 84 C 58 84 57 86 56 98 C 56 109 52 114 46 113 C 37 113 36 107 36 68 C 37 39 37 37 39 34 C 46 27 57 31 57 41 C 57 52 58 54 73 54 C 83 54 86 52 86 43 C 86 28 78 16 66 9 C 57 6 39 6 31 8 z" fill="black"/><!-- width=98 height=150 -->
<path id="gl6434" d="M 36 6 C 25 9 17 17 12 26 C 8 36 7 86 11 103 C 14 125 26 135 52 135 C 77 135 92 123 94 102 C 95 91 92 89 83 89 C 72 89 67 91 66 99 C 62 108 58 112 51 112 C 42 112 37 105 37 92 C 37 77 39 75 68 77 C 99 77 97 78 94 44 C 92 23 88 14 74 8 C 67 6 45 4 36 6 M 62 31 C 64 35 66 36 66 42 C 66 51 63 55 53 55 C 41 56 36 51 37 40 C 40 28 53 23 62 31 z" fill="black"/><!-- width=107 height=146 -->
<path id="gl6658" d="M 34 7 C 12 13 7 28 8 82 C 8 112 9 118 16 125 C 22 134 29 136 47 136 C 84 138 94 126 94 74 C 94 31 89 18 72 9 C 64 7 43 6 34 7 M 59 32 C 64 37 64 41 64 74 C 64 104 64 107 62 109 C 56 118 43 116 38 108 C 33 103 34 42 38 36 C 43 28 53 27 59 32 z" fill="black"/><!-- width=105 height=149 -->
<path id="gl8468" d="M 34 7 C 22 11 18 17 17 33 C 16 42 16 43 12 47 C 4 54 4 60 12 69 C 13 72 14 73 17 75 C 17 90 16 106 16 121 C 16 137 16 152 16 168 C 17 168 18 170 18 171 C 21 172 23 173 32 173 C 47 173 47 176 47 121 C 47 105 47 90 47 74 C 47 74 48 73 49 72 C 52 70 54 68 55 67 C 58 64 58 62 58 58 C 58 53 58 53 48 44 C 44 41 45 34 50 31 C 53 28 57 26 57 26 C 59 23 59 11 57 8 C 54 6 43 4 34 7 z" fill="black"/><!-- width=70 height=183 -->
<path id="gl8463" d="M 47 7 C 44 7 39 13 39 18 C 39 19 34 45 26 74 C 24 84 19 103 17 118 C 13 133 11 147 8 152 C 3 169 6 173 19 173 C 29 174 35 172 37 168 C 39 167 42 144 42 138 C 42 132 48 129 63 129 C 81 129 81 130 84 151 C 88 173 89 174 106 174 C 124 174 124 174 114 133 C 106 99 92 41 89 23 C 86 6 86 6 67 6 C 57 6 48 6 47 7 M 67 61 C 68 63 73 80 74 91 C 75 102 70 108 59 106 C 51 105 50 99 56 74 C 58 62 61 57 63 57 C 64 57 66 58 67 61 z" fill="black"/><!-- width=132 height=185 -->
<path id="gl9493" d="M 56 6 C 54 7 50 8 48 9 C 42 13 38 13 33 10 C 27 7 12 7 9 10 C 7 13 7 128 8 130 C 12 136 32 136 36 130 C 36 129 36 109 36 85 C 36 38 36 37 43 32 C 45 30 53 30 56 32 C 62 37 62 37 62 83 C 61 106 61 126 61 128 C 62 132 68 135 78 134 C 93 134 91 137 91 79 C 90 24 90 22 85 16 C 80 8 66 3 56 6 z" fill="black"/><!-- width=103 height=144 -->
<path id="gl8478" d="M 9 7 C 6 9 8 14 21 38 C 34 64 35 68 32 73 C 2 130 3 125 7 128 C 9 131 12 132 19 132 C 34 132 37 130 40 119 C 45 101 55 101 60 120 C 63 130 65 131 80 131 C 91 132 91 132 94 128 C 96 125 99 130 78 90 C 71 78 68 69 68 66 C 68 62 75 45 88 26 C 99 8 97 4 80 4 C 66 4 64 6 60 14 C 54 31 47 32 42 16 C 39 7 37 4 23 4 C 14 4 9 6 9 7 z" fill="black"/><!-- width=106 height=143 -->
<path id="gl6433" d="M 14 6 C 7 7 4 25 9 31 C 13 35 31 35 35 31 C 38 29 38 13 36 9 C 33 6 21 4 14 6 M 12 49 C 10 49 9 50 8 50 C 8 52 8 78 8 111 C 8 180 7 174 23 174 C 38 174 37 179 37 111 C 37 42 38 48 24 48 C 18 48 13 48 12 49 z" fill="black"/><!-- width=49 height=185 -->
<path id="gl6428" d="M 32 8 C 20 12 13 19 9 32 C 6 45 7 104 10 114 C 16 128 28 134 48 136 C 68 137 81 131 89 116 C 97 98 93 90 78 91 C 66 92 65 92 62 101 C 60 112 50 118 42 112 C 34 107 32 86 38 80 C 39 79 40 78 42 77 C 49 77 56 78 63 78 C 95 78 93 79 92 54 C 91 27 86 16 72 10 C 65 7 42 6 32 8 M 57 31 C 67 37 66 53 56 56 C 44 59 36 54 36 44 C 36 31 46 24 57 31 z" fill="black"/><!-- width=106 height=148 -->
<path id="gl9996" d="M 19 8 C 17 11 17 12 17 23 C 18 36 17 38 11 44 C 4 49 4 61 12 63 C 17 67 17 69 17 114 C 17 154 18 155 20 160 C 28 174 58 175 60 161 C 60 153 58 150 53 145 C 51 143 49 141 47 139 C 47 127 47 116 47 104 C 47 93 47 80 47 69 C 49 68 50 67 51 66 C 58 60 58 60 58 53 C 58 46 58 45 52 42 C 47 39 46 38 47 23 C 47 12 47 11 45 8 C 40 6 24 6 19 8 z" fill="black"/><!-- width=71 height=181 -->
<path id="gl8480" d="M 8 7 C 3 9 3 12 7 25 C 9 32 12 40 12 43 C 13 50 23 92 29 116 C 32 127 34 139 34 142 C 34 145 30 150 27 150 C 16 150 13 171 23 175 C 29 177 39 176 46 173 C 56 168 60 163 66 137 C 69 122 71 114 76 90 C 79 85 81 70 85 58 C 87 46 91 32 92 27 C 97 8 96 6 81 6 C 65 6 65 6 63 32 C 59 59 54 75 51 75 C 45 75 42 64 38 34 C 35 12 34 8 30 7 C 27 4 12 4 8 7 z" fill="black"/><!-- width=106 height=187 -->
<path id="gl6426" d="M 47 7 C 30 9 19 17 14 31 C 6 52 6 137 13 155 C 20 172 40 181 66 178 C 86 177 99 166 105 143 C 111 118 108 113 90 115 C 77 115 75 116 74 131 C 73 148 69 154 58 154 C 51 154 46 149 42 142 C 41 139 40 137 39 134 C 39 121 39 106 39 93 C 40 47 40 44 46 37 C 57 25 74 31 74 47 C 74 58 79 63 91 63 C 106 63 108 58 106 44 C 101 14 80 2 47 7 z" fill="black"/><!-- width=120 height=189 -->
<path id="gl6658" d="M 34 7 C 12 13 7 28 8 82 C 8 112 9 118 16 125 C 22 134 29 136 47 136 C 84 138 94 126 94 74 C 94 31 89 18 72 9 C 64 7 43 6 34 7 M 59 32 C 64 37 64 41 64 74 C 64 104 64 107 62 109 C 56 118 43 116 38 108 C 33 103 34 42 38 36 C 43 28 53 27 59 32 z" fill="black"/><!-- width=105 height=149 -->
<path id="gl9735" d="M 49 8 C 40 12 39 12 35 11 C 29 7 14 7 11 9 C 9 11 8 11 7 12 C 7 31 7 51 7 71 C 7 124 8 130 9 131 C 13 135 29 135 33 132 C 34 131 35 130 36 130 C 36 114 36 99 36 84 C 35 34 35 33 43 29 C 51 25 59 28 62 35 C 63 39 63 47 63 83 C 62 130 62 131 67 132 C 72 135 87 135 90 132 C 90 131 92 130 93 130 C 93 115 93 100 93 86 C 92 36 92 34 100 29 C 108 25 114 28 119 35 C 121 40 121 41 120 84 C 120 99 120 114 119 129 C 120 130 121 131 122 131 C 127 136 143 135 147 131 C 148 130 148 130 150 129 C 150 111 150 94 150 77 C 150 40 148 24 148 22 C 141 4 115 0 98 12 C 95 13 92 15 90 15 C 89 15 86 13 83 12 C 72 4 62 3 49 8 z" fill="black"/><!-- width=162 height=145 -->
<path id="gl21518" d="M 48 7 C 42 9 41 9 35 8 C 23 6 9 6 9 10 C 8 12 8 47 8 90 C 8 183 7 174 23 174 C 37 174 37 173 36 151 C 35 129 36 127 50 133 C 67 139 84 130 89 115 C 92 104 92 27 88 20 C 81 6 64 0 48 7 M 58 30 C 59 31 60 32 61 33 C 61 44 61 55 61 65 C 63 100 61 103 58 109 C 52 115 40 111 37 101 C 35 96 36 41 38 36 C 41 27 50 24 58 30 z" fill="black"/><!-- width=106 height=184 -->
<path id="gl6658" d="M 34 7 C 12 13 7 28 8 82 C 8 112 9 118 16 125 C 22 134 29 136 47 136 C 84 138 94 126 94 74 C 94 31 89 18 72 9 C 64 7 43 6 34 7 M 59 32 C 64 37 64 41 64 74 C 64 104 64 107 62 109 C 56 118 43 116 38 108 C 33 103 34 42 38 36 C 43 28 53 27 59 32 z" fill="black"/><!-- width=105 height=149 -->
<path id="gl9497" d="M 50 7 C 49 7 46 8 44 9 C 40 12 37 12 32 9 C 27 7 11 7 8 9 C 6 13 6 124 8 128 C 9 130 22 132 28 130 C 35 129 35 129 34 86 C 34 64 34 44 34 41 C 35 32 48 25 55 32 C 59 35 61 44 60 45 C 60 46 59 65 59 87 C 59 134 59 132 74 132 C 82 132 87 129 88 127 C 88 125 88 102 88 74 C 88 18 88 18 80 11 C 74 6 60 3 50 7 z" fill="black"/><!-- width=101 height=142 -->
<path id="gl6434" d="M 36 6 C 25 9 17 17 12 26 C 8 36 7 86 11 103 C 14 125 26 135 52 135 C 77 135 92 123 94 102 C 95 91 92 89 83 89 C 72 89 67 91 66 99 C 62 108 58 112 51 112 C 42 112 37 105 37 92 C 37 77 39 75 68 77 C 99 77 97 78 94 44 C 92 23 88 14 74 8 C 67 6 45 4 36 6 M 62 31 C 64 35 66 36 66 42 C 66 51 63 55 53 55 C 41 56 36 51 37 40 C 40 28 53 23 62 31 z" fill="black"/><!-- width=107 height=146 -->
<path id="gl9493" d="M 56 6 C 54 7 50 8 48 9 C 42 13 38 13 33 10 C 27 7 12 7 9 10 C 7 13 7 128 8 130 C 12 136 32 136 36 130 C 36 129 36 109 36 85 C 36 38 36 37 43 32 C 45 30 53 30 56 32 C 62 37 62 37 62 83 C 61 106 61 126 61 128 C 62 132 68 135 78 134 C 93 134 91 137 91 79 C 90 24 90 22 85 16 C 80 8 66 3 56 6 z" fill="black"/><!-- width=103 height=144 -->
<path id="gl6430" d="M 27 4 C 18 6 17 7 17 22 C 17 34 17 36 14 38 C 12 39 11 42 11 42 C 8 42 7 49 7 53 C 8 56 9 59 13 62 C 16 64 17 67 17 69 C 18 134 18 152 21 156 C 28 169 59 171 61 158 C 61 149 59 147 53 141 C 52 139 49 137 48 136 C 48 124 48 112 48 101 C 48 89 48 78 48 67 C 49 66 51 64 52 63 C 59 58 59 57 59 51 C 59 44 61 44 51 36 C 47 34 47 33 48 23 C 48 13 47 7 44 6 C 42 4 32 4 27 4 z" fill="black"/><!-- width=72 height=178 -->
<path id="gl6167" d="M 34 8 C 14 12 7 23 8 41 C 9 58 15 67 39 81 C 56 92 58 97 58 105 C 58 119 37 119 35 105 C 34 95 30 94 19 94 C 8 94 6 95 7 106 C 8 128 24 139 51 138 C 76 136 87 128 89 106 C 90 87 85 80 59 63 C 41 51 36 47 36 40 C 36 26 56 26 61 39 C 62 46 64 48 74 48 C 86 50 90 48 90 39 C 90 15 63 1 34 8 z" fill="black"/><!-- width=101 height=150 -->
<path id="gl8468" d="M 34 7 C 22 11 18 17 17 33 C 16 42 16 43 12 47 C 4 54 4 60 12 69 C 13 72 14 73 17 75 C 17 90 16 106 16 121 C 16 137 16 152 16 168 C 17 168 18 170 18 171 C 21 172 23 173 32 173 C 47 173 47 176 47 121 C 47 105 47 90 47 74 C 47 74 48 73 49 72 C 52 70 54 68 55 67 C 58 64 58 62 58 58 C 58 53 58 53 48 44 C 44 41 45 34 50 31 C 53 28 57 26 57 26 C 59 23 59 11 57 8 C 54 6 43 4 34 7 z" fill="black"/><!-- width=70 height=183 -->
<path id="gl6658" d="M 34 7 C 12 13 7 28 8 82 C 8 112 9 118 16 125 C 22 134 29 136 47 136 C 84 138 94 126 94 74 C 94 31 89 18 72 9 C 64 7 43 6 34 7 M 59 32 C 64 37 64 41 64 74 C 64 104 64 107 62 109 C 56 118 43 116 38 108 C 33 103 34 42 38 36 C 43 28 53 27 59 32 z" fill="black"/><!-- width=105 height=149 -->
<path id="gl8469" d="M 51 7 C 48 8 46 11 44 13 C 39 17 37 17 34 13 C 32 8 28 7 19 7 C 7 7 7 1 7 69 C 7 102 7 128 7 129 C 8 134 28 136 33 131 C 34 129 34 129 36 128 C 36 116 36 104 36 92 C 34 44 36 43 53 39 C 64 38 64 36 64 21 C 64 6 61 1 51 7 z" fill="black"/><!-- width=77 height=144 -->
<path id="gl9728" d="M 36 7 C 18 9 9 18 7 35 C 6 45 8 47 20 46 C 30 46 31 45 35 36 C 41 22 63 26 61 42 C 59 48 53 53 41 57 C 13 68 4 79 7 106 C 9 133 29 144 52 132 C 55 129 57 128 59 127 C 62 128 63 129 66 130 C 80 138 92 134 91 123 C 91 119 90 97 90 73 C 90 24 89 22 81 14 C 73 7 52 3 36 7 M 59 77 C 63 81 62 101 58 107 C 48 122 31 111 34 92 C 36 79 55 68 59 77 z" fill="black"/><!-- width=102 height=148 -->
<path id="gl10013" d="M 11 7 C 7 9 7 167 11 169 C 14 173 32 173 35 171 C 39 167 39 167 38 128 C 38 120 38 113 38 105 C 39 105 40 104 41 103 C 44 99 45 99 54 99 C 77 100 80 104 80 139 C 81 172 81 173 100 173 C 115 173 119 169 114 157 C 114 155 113 142 113 130 C 112 104 110 100 103 93 C 98 87 98 84 103 77 C 112 68 113 62 113 48 C 113 22 104 11 82 7 C 70 4 14 4 11 7 M 68 32 C 77 34 80 38 80 51 C 80 71 73 76 55 76 C 39 77 36 73 36 52 C 36 40 39 34 43 32 C 46 29 62 29 68 32 z" fill="black"/><!-- width=128 height=183 -->
<path id="gl6434" d="M 36 6 C 25 9 17 17 12 26 C 8 36 7 86 11 103 C 14 125 26 135 52 135 C 77 135 92 123 94 102 C 95 91 92 89 83 89 C 72 89 67 91 66 99 C 62 108 58 112 51 112 C 42 112 37 105 37 92 C 37 77 39 75 68 77 C 99 77 97 78 94 44 C 92 23 88 14 74 8 C 67 6 45 4 36 6 M 62 31 C 64 35 66 36 66 42 C 66 51 63 55 53 55 C 41 56 36 51 37 40 C 40 28 53 23 62 31 z" fill="black"/><!-- width=107 height=146 -->
<path id="gl21519" d="M 36 4 C 21 8 13 14 13 21 C 13 22 13 27 10 31 C 7 40 7 103 10 114 C 16 127 27 133 46 133 C 72 133 85 118 85 92 C 85 82 82 81 70 81 C 57 81 56 82 56 94 C 56 108 46 114 39 106 C 34 102 34 102 36 66 C 36 55 36 44 36 34 C 37 33 38 32 39 31 C 46 24 56 28 56 39 C 56 49 58 50 72 50 C 84 50 85 50 85 38 C 85 14 62 0 36 4 z" fill="black"/><!-- width=97 height=145 -->
<path id="gl6434" d="M 36 6 C 25 9 17 17 12 26 C 8 36 7 86 11 103 C 14 125 26 135 52 135 C 77 135 92 123 94 102 C 95 91 92 89 83 89 C 72 89 67 91 66 99 C 62 108 58 112 51 112 C 42 112 37 105 37 92 C 37 77 39 75 68 77 C 99 77 97 78 94 44 C 92 23 88 14 74 8 C 67 6 45 4 36 6 M 62 31 C 64 35 66 36 66 42 C 66 51 63 55 53 55 C 41 56 36 51 37 40 C 40 28 53 23 62 31 z" fill="black"/><!-- width=107 height=146 -->
<path id="gl21251" d="M 53 7 C 42 12 41 12 37 9 C 31 6 17 6 13 8 C 12 9 10 9 9 10 C 9 30 9 50 9 70 C 9 90 9 109 9 129 C 10 129 12 130 12 131 C 14 133 17 134 24 134 C 40 134 39 135 39 87 C 37 67 37 46 39 42 C 41 28 57 24 64 37 C 64 40 65 51 64 84 C 63 136 63 133 76 133 C 87 134 91 133 92 129 C 95 124 94 25 90 19 C 84 6 70 1 53 7 z" fill="black"/><!-- width=106 height=144 -->
<path id="gl6430" d="M 27 4 C 18 6 17 7 17 22 C 17 34 17 36 14 38 C 12 39 11 42 11 42 C 8 42 7 49 7 53 C 8 56 9 59 13 62 C 16 64 17 67 17 69 C 18 134 18 152 21 156 C 28 169 59 171 61 158 C 61 149 59 147 53 141 C 52 139 49 137 48 136 C 48 124 48 112 48 101 C 48 89 48 78 48 67 C 49 66 51 64 52 63 C 59 58 59 57 59 51 C 59 44 61 44 51 36 C 47 34 47 33 48 23 C 48 13 47 7 44 6 C 42 4 32 4 27 4 z" fill="black"/><!-- width=72 height=178 -->
<path id="gl9498" d="M 11 7 C 7 9 7 167 9 170 C 12 171 18 171 51 173 C 64 173 77 173 91 173 C 91 171 92 170 94 170 C 97 165 96 153 92 149 C 91 148 90 147 90 145 C 81 147 74 147 66 147 C 58 147 50 148 43 148 C 42 147 40 145 40 144 C 38 141 37 139 37 122 C 37 95 37 95 69 97 C 89 98 91 97 91 84 C 91 71 90 70 69 71 C 37 74 37 74 37 51 C 37 29 37 29 68 30 C 75 30 82 32 90 32 C 91 30 92 29 92 28 C 96 23 96 13 92 8 C 92 7 91 6 90 6 C 77 6 64 6 51 6 C 22 6 12 6 11 7 z" fill="black"/><!-- width=106 height=184 -->
<path id="gl18437" d="M 55 7 C 54 7 50 9 48 10 C 42 13 38 13 27 9 C 21 8 13 9 10 12 C 8 13 8 19 8 93 C 8 186 7 179 21 179 C 36 179 38 175 36 153 C 33 134 36 129 48 134 C 71 145 87 135 90 109 C 93 90 90 32 88 24 C 82 12 66 3 55 7 M 55 31 C 61 35 63 37 63 72 C 63 107 61 110 54 115 C 49 117 44 116 40 110 C 38 109 37 106 36 105 C 36 95 36 84 36 75 C 35 43 35 43 38 37 C 42 30 49 27 55 31 z" fill="black"/><!-- width=104 height=189 -->
<path id="gl6433" d="M 14 6 C 7 7 4 25 9 31 C 13 35 31 35 35 31 C 38 29 38 13 36 9 C 33 6 21 4 14 6 M 12 49 C 10 49 9 50 8 50 C 8 52 8 78 8 111 C 8 180 7 174 23 174 C 38 174 37 179 37 111 C 37 42 38 48 24 48 C 18 48 13 48 12 49 z" fill="black"/><!-- width=49 height=185 -->
<path id="gl6167" d="M 34 8 C 14 12 7 23 8 41 C 9 58 15 67 39 81 C 56 92 58 97 58 105 C 58 119 37 119 35 105 C 34 95 30 94 19 94 C 8 94 6 95 7 106 C 8 128 24 139 51 138 C 76 136 87 128 89 106 C 90 87 85 80 59 63 C 41 51 36 47 36 40 C 36 26 56 26 61 39 C 62 46 64 48 74 48 C 86 50 90 48 90 39 C 90 15 63 1 34 8 z" fill="black"/><!-- width=101 height=150 -->
<path id="gl8470" d="M 35 9 C 17 14 11 25 9 63 C 8 95 11 116 18 126 C 30 144 75 143 88 125 C 94 116 95 110 95 79 C 96 33 91 17 73 11 C 66 8 42 7 35 9 M 58 31 C 66 35 67 36 66 75 C 66 87 66 98 66 110 C 64 110 63 111 62 112 C 55 118 44 117 40 109 C 36 102 36 42 40 37 C 44 30 51 28 58 31 z" fill="black"/><!-- width=109 height=151 -->
<path id="gl8483" d="M 69 4 C 62 7 60 11 62 27 C 64 48 62 52 45 45 C 28 39 13 48 9 68 C 8 80 9 151 12 158 C 18 173 33 180 49 172 C 58 168 59 168 65 171 C 73 173 86 173 89 171 C 94 167 94 12 90 7 C 88 4 74 3 69 4 M 55 69 C 62 74 63 76 63 110 C 62 144 62 145 55 150 C 49 155 42 152 38 144 C 36 137 36 80 38 75 C 42 68 49 65 55 69 z" fill="black"/><!-- width=106 height=187 -->
<path id="gl6428" d="M 32 8 C 20 12 13 19 9 32 C 6 45 7 104 10 114 C 16 128 28 134 48 136 C 68 137 81 131 89 116 C 97 98 93 90 78 91 C 66 92 65 92 62 101 C 60 112 50 118 42 112 C 34 107 32 86 38 80 C 39 79 40 78 42 77 C 49 77 56 78 63 78 C 95 78 93 79 92 54 C 91 27 86 16 72 10 C 65 7 42 6 32 8 M 57 31 C 67 37 66 53 56 56 C 44 59 36 54 36 44 C 36 31 46 24 57 31 z" fill="black"/><!-- width=106 height=148 -->
<path id="gl6658" d="M 34 7 C 12 13 7 28 8 82 C 8 112 9 118 16 125 C 22 134 29 136 47 136 C 84 138 94 126 94 74 C 94 31 89 18 72 9 C 64 7 43 6 34 7 M 59 32 C 64 37 64 41 64 74 C 64 104 64 107 62 109 C 56 118 43 116 38 108 C 33 103 34 42 38 36 C 43 28 53 27 59 32 z" fill="black"/><!-- width=105 height=149 -->
<path id="gl8468" d="M 34 7 C 22 11 18 17 17 33 C 16 42 16 43 12 47 C 4 54 4 60 12 69 C 13 72 14 73 17 75 C 17 90 16 106 16 121 C 16 137 16 152 16 168 C 17 168 18 170 18 171 C 21 172 23 173 32 173 C 47 173 47 176 47 121 C 47 105 47 90 47 74 C 47 74 48 73 49 72 C 52 70 54 68 55 67 C 58 64 58 62 58 58 C 58 53 58 53 48 44 C 44 41 45 34 50 31 C 53 28 57 26 57 26 C 59 23 59 11 57 8 C 54 6 43 4 34 7 z" fill="black"/><!-- width=70 height=183 -->
<path id="gl10503" d="M 42 9 C 38 13 37 15 34 36 C 31 45 30 53 29 53 C 29 54 28 58 28 62 C 25 71 21 88 19 96 C 18 101 17 107 15 110 C 13 126 12 134 8 149 C 3 171 4 172 21 172 C 35 172 37 171 38 149 C 41 132 43 130 58 130 C 76 129 79 131 81 149 C 84 171 86 172 103 172 C 120 172 121 171 113 141 C 109 130 105 115 104 110 C 103 104 101 96 99 90 C 98 85 97 75 96 68 C 93 60 92 51 91 47 C 90 43 88 36 87 30 C 84 8 82 7 60 7 C 47 7 46 8 42 9 M 64 64 C 71 81 73 99 68 104 C 63 109 56 109 51 104 C 47 98 49 75 57 63 C 58 59 63 60 64 64 z" fill="black"/><!-- width=129 height=186 -->
<path id="gl6664" d="M 57 6 C 56 7 51 8 47 10 C 41 13 40 13 35 11 C 25 7 10 7 10 11 C 8 12 8 38 8 70 C 8 136 7 130 22 130 C 37 130 37 134 36 83 C 36 43 36 41 38 37 C 45 27 55 27 60 37 C 62 41 62 45 61 82 C 60 132 60 130 76 130 C 91 130 90 134 90 78 C 91 30 90 23 85 16 C 80 10 66 3 57 6 z" fill="black"/><!-- width=102 height=141 -->
<path id="gl8478" d="M 9 7 C 6 9 8 14 21 38 C 34 64 35 68 32 73 C 2 130 3 125 7 128 C 9 131 12 132 19 132 C 34 132 37 130 40 119 C 45 101 55 101 60 120 C 63 130 65 131 80 131 C 91 132 91 132 94 128 C 96 125 99 130 78 90 C 71 78 68 69 68 66 C 68 62 75 45 88 26 C 99 8 97 4 80 4 C 66 4 64 6 60 14 C 54 31 47 32 42 16 C 39 7 37 4 23 4 C 14 4 9 6 9 7 z" fill="black"/><!-- width=106 height=143 -->
<path id="gl6433" d="M 14 6 C 7 7 4 25 9 31 C 13 35 31 35 35 31 C 38 29 38 13 36 9 C 33 6 21 4 14 6 M 12 49 C 10 49 9 50 8 50 C 8 52 8 78 8 111 C 8 180 7 174 23 174 C 38 174 37 179 37 111 C 37 42 38 48 24 48 C 18 48 13 48 12 49 z" fill="black"/><!-- width=49 height=185 -->
<path id="gl6428" d="M 32 8 C 20 12 13 19 9 32 C 6 45 7 104 10 114 C 16 128 28 134 48 136 C 68 137 81 131 89 116 C 97 98 93 90 78 91 C 66 92 65 92 62 101 C 60 112 50 118 42 112 C 34 107 32 86 38 80 C 39 79 40 78 42 77 C 49 77 56 78 63 78 C 95 78 93 79 92 54 C 91 27 86 16 72 10 C 65 7 42 6 32 8 M 57 31 C 67 37 66 53 56 56 C 44 59 36 54 36 44 C 36 31 46 24 57 31 z" fill="black"/><!-- width=106 height=148 -->
<path id="gl9737" d="M 17 7 C 15 10 15 10 16 21 C 16 25 16 29 17 34 C 15 35 13 36 11 39 C 3 47 3 54 12 61 C 13 63 15 64 17 65 C 17 80 16 94 16 108 C 16 150 16 151 18 155 C 23 162 31 165 42 165 C 56 165 59 162 59 152 C 59 146 58 145 47 137 C 46 136 46 132 46 100 C 46 89 46 76 46 65 C 46 65 47 64 49 63 C 58 56 59 55 59 49 C 59 44 59 44 49 35 C 46 34 45 32 46 21 C 46 5 45 5 31 5 C 22 5 20 5 17 7 z" fill="black"/><!-- width=70 height=175 -->
<path id="gl13571" d="M 12 4 C 4 7 3 12 8 22 C 9 27 12 37 13 45 C 16 65 27 107 32 121 C 37 141 36 144 25 148 C 19 150 16 154 18 161 C 19 171 21 173 33 172 C 56 171 59 166 72 107 C 78 82 88 43 91 28 C 98 7 97 4 82 4 C 66 4 65 6 61 42 C 60 53 57 61 54 70 C 53 73 48 74 47 71 C 44 66 41 45 38 28 C 35 6 35 4 21 4 C 16 4 12 4 12 4 z" fill="black"/><!-- width=106 height=184 -->
<path id="gl21520" d="M 8447 2 C 8447 2 8272 3 8058 3 C 7844 3 7575 4 7459 4 C 7341 4 7076 6 6868 6 C 6593 6 6487 7 6483 8 C 6479 8 6475 8 6472 7 C 6466 6 5440 7 5173 8 C 5113 8 5057 9 5049 9 C 5040 9 5005 9 4969 9 C 4932 9 4894 9 4880 9 C 4868 9 4801 9 4730 9 C 4658 9 4575 9 4544 8 C 4473 8 4473 8 4318 9 C 4249 9 4187 10 4183 10 C 4119 9 3947 9 3933 10 C 3929 10 3697 10 3418 10 C 3139 10 2603 12 2230 12 C 1856 12 1316 13 1030 13 C 745 13 464 14 408 14 C 351 14 238 15 158 15 C 109 15 61 15 12 16 C 10 18 9 19 8 20 C 6 22 4 24 6 27 C 8 39 8 39 80 38 C 164 37 228 37 506 37 C 649 37 939 37 1151 37 C 1364 37 1812 36 2149 36 C 2486 34 2763 34 2765 34 C 2769 34 2871 34 2994 34 C 3415 34 3719 34 3766 33 C 3791 32 3816 32 3821 33 C 3826 33 3954 33 4107 33 C 4261 33 4644 32 4960 32 C 5994 31 6729 31 6849 30 C 6912 30 7094 28 7250 28 C 7406 28 7661 27 7816 27 C 7971 27 8264 26 8469 26 C 8594 26 8718 26 8841 26 C 8844 25 8845 24 8846 22 C 8854 16 8852 7 8842 2 C 8839 2 8449 1 8447 2 z" fill="black"/><!-- width=8858 height=48 -->
<path id="gl21521" d="M 8615 3 C 8614 4 8509 6 7784 6 C 7328 6 6952 7 6950 7 C 6946 7 6944 8 6944 9 C 6942 10 6934 10 6933 8 C 6930 6 6528 6 6526 8 C 6523 10 6503 10 6501 8 C 6499 6 6466 6 6464 8 C 6462 10 6396 10 6395 8 C 6394 6 6360 6 6359 8 C 6356 10 6354 10 6352 8 C 6349 6 6337 6 6335 8 C 6332 9 6145 9 5034 10 C 3900 12 3737 12 3736 13 C 3732 15 3731 15 3729 13 C 3726 10 3684 10 3683 13 C 3681 15 3663 15 3661 13 C 3660 10 3362 10 3360 13 C 3359 15 3350 15 3349 13 C 3349 12 3348 12 3347 13 C 3342 15 3299 15 3297 13 C 3295 10 3219 10 3216 13 C 3213 16 3203 16 3200 13 C 3198 10 2816 10 2812 13 C 2810 15 2785 15 2782 13 C 2781 10 2764 10 2761 13 C 2757 15 2692 15 2691 13 C 2690 10 2666 10 2665 13 C 2662 15 2266 15 2265 13 C 2262 12 2262 12 2261 13 C 2257 15 2242 15 2241 13 C 2238 10 2235 10 2232 13 C 2229 15 2056 16 2053 13 C 2051 12 2051 12 2048 13 C 2046 16 1844 15 1841 13 C 1838 10 1836 10 1832 13 C 1830 16 1753 15 1751 13 C 1747 10 1740 10 1737 13 C 1735 14 1639 15 871 15 C 584 15 296 15 8 15 C 7 16 6 18 4 19 C 1 24 1 26 7 27 C 9 27 12 28 13 30 C 14 32 80 32 82 30 C 86 27 490 27 492 30 C 496 32 514 32 515 30 C 517 27 524 27 526 30 C 528 31 528 31 530 30 C 534 26 551 26 554 28 C 557 31 557 31 559 30 C 560 27 577 27 578 30 C 581 32 604 32 607 30 C 610 26 749 26 751 30 C 755 32 767 32 771 30 C 773 26 883 27 886 30 C 889 32 907 32 910 28 C 911 28 911 27 912 26 C 912 27 913 28 915 28 C 916 30 916 31 917 31 C 918 31 918 30 919 28 C 923 26 935 26 939 30 C 942 32 988 32 990 30 C 993 27 995 27 998 30 C 999 32 1004 32 1006 30 C 1007 27 1125 27 1126 30 C 1128 32 1132 32 1134 30 C 1137 28 1322 27 2789 27 C 4613 26 4483 26 4483 25 C 4484 22 4501 22 4504 25 C 4508 27 4550 27 4550 25 C 4551 22 4597 22 4601 25 C 4604 27 4615 27 4617 25 C 4620 22 4679 22 4682 25 C 4686 27 4709 26 4709 24 C 4710 22 4718 22 4719 25 C 4722 26 4737 26 4737 25 C 4739 22 4755 22 4759 25 C 4760 27 4767 26 4767 24 C 4767 22 4776 22 4778 25 C 4782 27 4808 27 4810 25 C 4812 22 4848 22 4849 24 C 4850 26 4858 26 4858 24 C 4858 22 4862 22 4864 25 C 4866 27 4942 27 4944 25 C 4946 22 5146 22 5147 24 C 5148 26 5160 26 5160 24 C 5160 22 5189 22 5190 25 C 5193 27 5417 27 5420 25 C 5422 22 5429 22 5432 25 C 5433 27 5460 26 5463 24 C 5464 22 5492 22 5493 25 C 5495 26 5508 26 5511 24 C 5512 22 5549 22 5551 24 C 5552 26 5572 26 5573 24 C 5575 22 5596 22 5600 25 C 5601 26 5602 26 5602 25 C 5603 24 6455 22 7260 21 C 7388 21 7406 21 7408 20 C 7411 18 7423 18 7425 20 C 7426 22 7565 22 7567 20 C 7569 18 7601 18 7603 20 C 7604 22 7646 22 7649 20 C 7651 18 7658 18 7661 20 C 7662 22 7700 22 7702 20 C 7703 18 7720 18 7723 20 C 7726 21 7736 21 7801 21 C 7877 21 7877 21 7880 19 C 7884 16 7897 16 7900 20 C 7903 22 7908 21 7908 19 C 7908 18 7947 18 7948 20 C 7950 22 8023 22 8027 20 C 8031 18 8056 18 8058 20 C 8059 20 8061 20 8062 20 C 8063 19 8164 19 8446 18 C 8656 18 8829 18 8833 18 C 8838 16 8839 8 8833 6 C 8832 6 8785 6 8728 6 C 8638 6 8625 4 8624 3 C 8621 1 8618 1 8615 3 z" fill="black"/><!-- width=8844 height=38 -->
<path id="gl21522" d="M 1261 1 C 978 1 940 2 939 3 C 937 6 925 6 922 3 C 921 1 916 1 914 3 C 913 6 906 6 904 3 C 902 1 676 1 674 3 C 673 6 627 6 625 3 C 624 1 609 1 607 3 C 606 6 262 6 260 3 C 259 1 244 1 242 3 C 241 4 226 4 124 6 C 61 6 7 6 6 6 C 2 7 2 8 2 12 C 2 18 3 18 19 18 C 27 19 31 19 31 20 C 33 22 56 22 58 20 C 61 19 166 19 866 18 C 1546 16 1670 16 1672 15 C 1675 13 1676 13 1678 15 C 1680 18 1694 18 1696 15 C 1696 14 1698 13 1699 13 C 1700 13 1701 14 1701 15 C 1704 18 1708 18 1710 15 C 1712 13 1738 13 1741 15 C 1742 18 1766 18 1768 15 C 1770 13 1810 13 1812 15 C 1813 16 1815 16 1816 16 C 1818 16 1820 16 1820 15 C 1822 13 2012 13 2014 15 C 2016 18 2020 18 2023 15 C 2024 13 2098 13 2100 15 C 2101 16 2104 16 2112 16 C 2119 16 2122 16 2124 15 C 2126 12 2265 13 2269 15 C 2271 18 2271 18 2272 15 C 2274 14 2276 13 2277 13 C 2284 13 2288 12 2287 7 C 2287 3 2286 2 2283 1 C 2281 1 2122 1 1930 1 C 1740 1 1438 1 1261 1 z" fill="black"/><!-- width=2295 height=30 -->
<path id="gl21523" d="M 3188 1 C 3103 1 3091 2 3088 3 C 3087 6 3070 6 3069 3 C 3067 1 2673 1 2671 3 C 2670 6 2667 6 2666 3 C 2664 1 2625 1 2624 3 C 2622 6 2619 6 2617 3 C 2616 1 2524 1 2522 3 C 2521 6 2518 6 2516 3 C 2515 1 2217 1 2215 3 C 2214 6 2202 6 2199 3 C 2198 1 2179 1 2176 3 C 2175 6 2173 6 2172 3 C 2169 1 2113 1 2110 3 C 2107 6 1310 6 1306 3 C 1304 1 1300 1 1298 3 C 1297 6 1261 6 1260 3 C 1257 1 1243 1 1240 3 C 1239 6 1232 6 1231 3 C 1228 1 1224 1 1221 3 C 1220 6 1189 6 1188 3 C 1185 2 1185 2 1184 3 C 1180 6 1165 6 1162 3 C 1161 2 1161 2 1160 3 C 1158 4 1083 4 583 6 C 392 6 200 6 9 6 C 8 7 7 8 6 9 C -2 19 -8 19 158 19 C 282 19 298 19 301 20 C 302 22 306 22 308 20 C 310 19 525 19 1777 18 C 3073 16 3244 16 3246 15 C 3249 13 3260 13 3262 15 C 3264 16 3284 16 3434 16 C 3584 16 3604 16 3606 15 C 3607 14 3608 13 3609 13 C 3610 13 3612 14 3613 15 C 3615 18 3748 18 3750 15 C 3752 14 3757 13 3780 13 C 3804 13 3807 14 3810 15 C 3811 18 3835 18 3837 15 C 3838 13 3841 13 3843 15 C 3844 18 3873 18 3876 15 C 3877 13 3898 13 3901 15 C 3902 16 3902 16 3904 15 C 3907 13 4004 13 4006 15 C 4006 16 4010 16 4017 16 C 4024 16 4028 16 4028 15 C 4030 13 4052 13 4053 15 C 4056 18 4094 18 4095 15 C 4098 13 4215 13 4216 15 C 4219 16 4219 16 4221 15 C 4224 13 4244 13 4246 15 C 4248 18 4261 18 4263 15 C 4267 13 4344 13 4346 15 C 4348 16 4348 16 4351 15 C 4352 13 4527 13 4528 15 C 4531 18 4550 18 4551 15 C 4554 13 4604 13 4605 15 C 4608 18 4617 18 4620 15 C 4621 13 4628 13 4630 15 C 4632 16 4632 16 4633 15 C 4634 14 4638 13 4640 13 C 4647 13 4656 6 4652 2 C 4650 1 3596 0 3188 1 z" fill="black"/><!-- width=4662 height=30 -->
<path id="gl21524" d="M 122 1 C 96 2 90 2 88 3 C 87 6 85 6 82 3 C 82 2 80 2 76 2 C 73 2 70 2 69 3 C 68 4 64 6 48 6 C 31 6 27 4 26 3 C 25 1 13 1 12 3 C 10 4 9 6 8 6 C 1 6 0 12 3 13 C 4 13 7 14 7 15 C 8 18 81 18 82 15 C 85 14 102 14 228 14 C 354 14 370 14 372 15 C 374 18 393 18 394 15 C 397 13 409 13 411 15 C 412 18 518 18 520 15 C 522 13 538 13 541 15 C 542 18 552 18 554 14 C 556 12 565 12 568 14 C 571 18 620 19 621 15 C 622 13 634 13 636 15 C 638 18 673 18 674 15 C 675 13 711 13 712 15 C 715 18 748 18 750 15 C 752 13 774 13 776 15 C 777 18 796 18 798 15 C 800 13 812 13 813 15 C 816 18 825 18 826 15 C 829 13 865 13 867 15 C 868 18 988 18 990 15 C 992 13 999 13 1002 15 C 1003 16 1003 16 1004 15 C 1008 13 1033 13 1034 15 C 1036 18 1089 18 1090 15 C 1093 13 1110 13 1111 15 C 1113 18 1128 18 1130 15 C 1131 14 1158 14 1353 14 C 1550 14 1575 14 1578 15 C 1579 18 1593 18 1594 15 C 1597 13 1623 13 1626 15 C 1627 18 1636 18 1638 15 C 1640 13 1690 13 1692 15 C 1694 18 1698 18 1700 15 C 1702 14 1713 14 1780 13 C 1870 13 1879 13 1879 9 C 1879 7 1878 7 1873 7 C 1868 7 1867 6 1864 3 C 1864 2 1863 2 1863 1 C 1738 1 1614 1 1488 1 C 1142 1 1113 1 1112 3 C 1108 6 1099 6 1095 3 C 1093 1 212 0 210 3 C 206 6 206 6 202 3 C 200 1 183 0 122 1 z" fill="black"/><!-- width=1887 height=25 -->
<path id="gl21760" d="M 8232 1 C 8064 1 8041 2 8039 3 C 8038 6 8035 6 8034 3 C 8032 1 7840 1 7838 3 C 7835 7 7822 7 7818 4 C 7816 1 7814 1 7751 1 C 7694 1 7686 2 7684 3 C 7682 6 7675 6 7673 3 C 7673 2 7669 1 7659 1 C 7650 1 7646 2 7646 3 C 7644 6 7613 6 7611 3 C 7609 1 7551 1 7550 3 C 7548 6 7545 6 7544 3 C 7542 1 7532 1 7531 3 C 7529 6 7521 6 7520 3 C 7518 2 7518 2 7515 3 C 7513 6 7512 6 7511 3 C 7508 1 7484 1 7483 3 C 7481 6 7478 6 7476 3 C 7475 1 7369 1 7366 3 C 7365 6 7363 6 7360 3 C 7359 1 7311 1 7310 3 C 7308 6 6867 6 6866 3 C 6864 1 6850 1 6848 3 C 6848 4 6844 4 6838 4 C 6832 4 6830 4 6828 3 C 6826 1 6812 1 6810 3 C 6808 6 6728 6 6726 3 C 6726 1 6696 1 6694 3 C 6693 6 6684 6 6683 3 C 6683 2 6653 1 6652 3 C 6649 4 6496 4 5584 6 C 5230 6 4874 6 4520 7 C 4519 7 4519 8 4518 9 C 4514 12 4507 12 4503 8 C 4500 6 3944 6 3941 8 C 3940 10 3938 10 3936 8 C 3934 6 3891 6 3888 8 C 3887 10 3790 10 3786 8 C 3785 6 3766 6 3765 8 C 3762 10 3736 10 3733 8 C 3732 6 3727 6 3725 8 C 3724 10 3625 10 3624 8 C 3622 7 3622 7 3621 8 C 3617 10 3524 10 3522 8 C 3521 7 3521 7 3520 8 C 3516 10 3462 10 3461 8 C 3458 6 3454 6 3452 8 C 3450 10 3419 10 3418 8 C 3415 6 3401 6 3400 8 C 3397 10 3385 10 3383 8 C 3382 6 3377 6 3376 8 C 3373 10 3366 10 3365 8 C 3362 6 3348 6 3345 8 C 3344 10 3299 10 3297 8 C 3295 6 3285 6 3284 8 C 3282 10 3150 10 3149 8 C 3146 6 3098 6 3097 8 C 3094 10 3073 10 3070 8 C 3069 6 3021 6 3020 8 C 3018 10 3001 10 2998 8 C 2997 6 2992 6 2990 8 C 2989 10 2962 10 2961 8 C 2959 6 2935 6 2932 8 C 2931 10 2929 10 2926 8 C 2925 6 2912 6 2910 8 C 2907 9 2739 9 1754 10 C 1369 10 984 10 600 10 C 600 12 599 13 598 13 C 596 14 596 15 595 15 C 594 15 594 14 593 13 C 592 13 590 12 590 10 C 494 10 398 10 302 10 C 43 10 14 10 13 13 C 12 14 9 14 7 14 C 0 14 0 20 6 24 C 9 27 10 27 57 27 C 99 27 105 26 106 25 C 109 22 111 22 114 25 C 115 27 129 27 130 25 C 133 22 140 22 142 25 C 144 27 158 27 159 25 C 162 22 174 22 175 25 C 177 27 187 27 188 25 C 190 22 212 22 213 25 C 216 27 225 27 226 25 C 229 22 332 22 333 25 C 336 26 336 26 338 25 C 341 22 356 22 357 25 C 360 26 360 26 362 25 C 365 22 375 22 378 25 C 379 27 403 27 405 25 C 407 22 433 22 434 25 C 437 27 512 27 516 25 C 518 22 542 22 546 25 C 548 28 586 27 588 24 C 589 22 592 22 593 22 C 594 22 596 22 598 24 C 601 27 656 28 660 25 C 664 21 680 21 684 25 C 688 27 701 27 703 24 C 706 21 710 21 713 24 C 716 28 733 28 737 24 C 739 21 749 21 751 24 C 755 27 1146 28 1150 25 C 1151 22 1173 22 1174 25 C 1176 27 1186 27 1187 25 C 1190 22 1235 22 1238 25 C 1239 27 1244 27 1246 25 C 1247 22 1586 22 1588 25 C 1590 27 1609 27 1610 25 C 1612 22 1634 22 1636 25 C 1638 27 1651 27 1653 25 C 1656 24 1874 24 3143 22 C 4486 22 4631 22 4632 20 C 4635 18 4641 18 4644 20 C 4645 22 4650 22 4652 20 C 4653 18 4680 18 4681 20 C 4685 22 4976 22 4978 20 C 4980 18 4987 18 4988 20 C 4991 22 4996 22 4997 20 C 4999 18 5016 18 5018 20 C 5020 22 5077 22 5080 20 C 5081 18 5093 18 5095 20 C 5097 22 5116 22 5117 20 C 5119 18 5151 18 5152 20 C 5154 21 5154 21 5157 20 C 5159 18 5170 18 5172 20 C 5173 22 5519 22 5521 20 C 5523 18 5530 18 5531 20 C 5534 22 5606 22 5608 20 C 5609 18 5707 18 5710 20 C 5711 22 5729 22 5732 20 C 5734 19 5928 19 7040 18 C 8183 18 8344 16 8345 15 C 8348 13 8369 13 8370 15 C 8373 18 8392 18 8394 15 C 8396 13 8432 13 8434 15 C 8435 16 8435 16 8437 15 C 8440 13 8461 13 8462 15 C 8463 16 8467 18 8471 18 C 8476 18 8480 16 8480 15 C 8482 14 8485 14 8495 14 C 8506 14 8509 14 8510 15 C 8512 16 8515 18 8524 18 C 8534 18 8536 16 8539 15 C 8540 13 8547 13 8549 15 C 8551 16 8561 18 8642 18 C 8722 18 8733 16 8736 15 C 8737 13 8744 13 8746 15 C 8748 18 8778 18 8779 15 C 8780 13 8787 13 8790 15 C 8790 16 8794 18 8810 18 C 8829 18 8829 18 8833 14 C 8838 9 8838 9 8833 4 C 8832 3 8830 2 8829 1 C 8762 1 8695 1 8627 1 C 8516 1 8338 1 8232 1 z" fill="black"/><!-- width=8844 height=33 -->
<path id="gl21761" d="M 2572 3 C 2571 6 2561 6 2561 3 C 2561 2 2549 2 2548 3 C 2548 4 2086 4 1488 6 C 566 7 427 7 425 8 C 422 10 387 10 386 8 C 384 7 384 7 381 8 C 379 10 373 10 372 8 C 369 6 273 6 271 8 C 270 10 195 10 194 8 C 192 6 187 6 184 8 C 183 9 172 10 96 10 C 13 10 7 10 4 12 C 3 13 2 13 1 14 C 3 15 4 18 6 19 C 7 20 8 21 9 24 C 166 22 325 22 482 22 C 742 22 1005 21 1065 22 C 1162 22 1175 21 1178 20 C 1180 18 1202 18 1203 20 C 1205 22 1263 22 1264 20 C 1267 18 1269 18 1271 20 C 1273 22 1287 22 1288 20 C 1291 18 1408 18 1411 20 C 1412 22 1484 22 1485 20 C 1488 18 1600 18 1603 20 C 1604 22 1638 22 1639 20 C 1641 18 1817 18 1818 20 C 1820 21 1820 21 1821 20 C 1825 18 1850 18 1851 20 C 1854 22 1863 22 1865 20 C 1867 18 1884 18 1886 20 C 1887 22 1897 22 1899 20 C 1901 18 1927 18 1930 20 C 1931 21 1931 21 1932 20 C 1936 18 1937 18 1939 20 C 1940 22 1963 22 1966 20 C 1968 19 2041 19 2482 18 C 2905 18 2997 18 2998 16 C 3002 13 3001 8 2996 4 C 2995 3 2994 2 2992 2 C 2949 2 2907 2 2865 2 C 2753 2 2738 2 2737 3 C 2734 6 2732 6 2729 3 C 2727 1 2650 1 2650 3 C 2649 6 2621 6 2619 3 C 2618 2 2614 2 2596 2 C 2578 2 2573 2 2572 3 z" fill="black"/><!-- width=3007 height=28 -->
<path id="gl21762" d="M 5315 3 C 5314 4 5207 4 4581 6 C 3933 6 3848 7 3845 8 C 3843 10 3837 10 3835 8 C 3833 6 3828 6 3827 8 C 3825 10 3817 10 3815 8 C 3814 6 3732 6 3731 8 C 3729 10 3721 10 3719 8 C 3718 7 3718 7 3717 8 C 3713 10 3702 10 3700 8 C 3699 6 3439 6 3438 8 C 3436 10 3428 10 3426 8 C 3425 6 3372 6 3371 8 C 3368 10 3361 10 3359 8 C 3357 6 3354 6 3351 8 C 3348 10 3290 10 3288 8 C 3284 6 3247 6 3245 8 C 3243 10 3217 10 3216 8 C 3213 6 3180 6 3179 8 C 3176 10 3174 10 3171 8 C 3170 6 2843 6 2842 8 C 2840 10 2789 10 2787 8 C 2786 6 2762 6 2761 8 C 2758 10 2607 10 2606 8 C 2603 6 2598 6 2596 8 C 2595 10 2333 10 2332 8 C 2329 7 2329 7 2327 8 C 2325 10 2304 10 2303 8 C 2302 7 2299 7 2298 7 C 2297 7 2295 7 2295 8 C 2292 10 2223 10 2221 8 C 2219 6 2215 6 2213 8 C 2211 9 2089 9 1109 10 C 743 10 375 10 9 10 C 8 12 7 13 6 14 C 1 19 1 21 7 22 C 10 22 193 24 415 24 C 777 24 817 24 819 25 C 821 26 821 26 822 25 C 825 22 933 22 935 25 C 936 26 936 26 937 25 C 941 22 986 22 987 25 C 989 27 993 27 995 25 C 998 24 1161 24 2213 22 C 3321 22 3430 22 3431 20 C 3434 18 3434 18 3438 20 C 3440 22 3880 22 3882 20 C 3886 18 3892 18 3894 20 C 3896 22 3920 22 3922 20 C 3923 18 3930 18 3932 20 C 3934 21 3963 22 4179 22 C 4395 22 4424 21 4425 20 C 4428 18 4497 18 4498 20 C 4501 22 4530 22 4531 20 C 4533 18 4565 18 4566 20 C 4567 21 4569 22 4573 22 C 4577 22 4579 21 4580 20 C 4581 18 4694 18 4697 20 C 4698 21 4698 21 4699 20 C 4703 18 4709 18 4711 20 C 4712 22 4722 22 4724 20 C 4725 18 4757 18 4758 20 C 4760 22 4770 22 4771 20 C 4773 18 5213 18 5214 20 C 5217 22 5220 22 5224 20 C 5226 18 5241 18 5243 20 C 5247 22 5279 22 5282 20 C 5283 18 5300 18 5301 20 C 5302 21 5306 22 5310 22 C 5315 22 5319 21 5319 20 C 5321 18 5376 18 5378 20 C 5380 22 5412 22 5415 20 C 5416 19 5441 19 5621 18 C 5690 18 5758 18 5827 18 C 5828 16 5829 15 5830 14 C 5838 6 5842 6 5732 6 C 5647 4 5633 4 5632 3 C 5630 1 5615 1 5614 3 C 5612 6 5579 6 5578 3 C 5577 1 5567 1 5565 3 C 5564 6 5555 6 5554 3 C 5554 1 5553 1 5552 3 C 5548 6 5508 6 5506 3 C 5505 2 5505 2 5502 3 C 5500 6 5484 6 5482 3 C 5482 2 5480 1 5478 1 C 5477 1 5475 2 5474 3 C 5472 6 5322 6 5319 3 C 5318 2 5318 2 5315 3 z" fill="black"/><!-- width=5841 height=33 -->
<path id="gl21763" d="M 8456 1 C 8196 1 8162 2 8159 3 C 8158 6 8112 6 8110 3 C 8107 1 8003 1 8002 3 C 7999 6 7992 6 7990 3 C 7987 1 7979 1 7978 3 C 7975 6 7948 6 7947 3 C 7945 1 7864 1 7862 3 C 7860 6 7847 6 7846 3 C 7844 1 7825 1 7823 3 C 7822 6 7781 6 7780 3 C 7777 1 7686 1 7684 3 C 7682 6 7665 6 7663 3 C 7662 1 7647 1 7646 3 C 7644 6 7635 6 7634 3 C 7633 1 7628 1 7627 3 C 7625 6 7622 6 7620 3 C 7617 1 7523 1 7521 3 C 7519 6 7487 6 7485 3 C 7484 1 7475 1 7473 3 C 7471 6 7459 6 7457 3 C 7454 1 7451 1 7449 3 C 7447 6 7419 6 7418 3 C 7417 1 7402 1 7400 3 C 7399 6 7363 6 7360 3 C 7359 2 7359 2 7358 3 C 7356 6 7216 6 7216 4 C 7216 2 7212 1 7209 3 C 7207 4 7131 4 6467 6 C 5824 7 5727 7 5725 8 C 5721 10 5710 10 5708 8 C 5705 6 5197 6 5196 8 C 5194 10 5181 10 5179 8 C 5178 6 5164 6 5163 8 C 5160 10 5148 10 5146 8 C 5145 6 5140 6 5139 8 C 5135 10 4942 10 4940 8 C 4938 6 4919 6 4916 8 C 4915 10 4822 10 4820 8 C 4818 6 4784 6 4783 8 C 4781 10 4667 10 4665 8 C 4665 6 4664 6 4663 8 C 4659 10 4649 10 4646 8 C 4645 6 4635 6 4633 8 C 4632 10 4591 10 4589 8 C 4587 6 4583 6 4580 8 C 4578 10 4350 10 4348 8 C 4347 6 4347 6 4346 8 C 4342 10 4340 10 4339 8 C 4339 7 4338 7 4336 8 C 4333 10 4321 10 4320 8 C 4318 6 4294 6 4292 8 C 4291 10 4273 10 4271 8 C 4270 6 4265 6 4264 8 C 4262 10 4245 10 4244 8 C 4241 7 4241 7 4240 8 C 4238 9 4084 9 2853 10 C 1674 12 1470 12 1467 13 C 1466 15 1464 15 1461 13 C 1459 10 1359 10 1358 13 C 1355 15 1343 15 1342 13 C 1340 10 1330 10 1329 13 C 1327 15 1324 15 1322 13 C 1321 10 1316 10 1313 13 C 1312 15 1291 15 1289 13 C 1287 12 1287 12 1286 13 C 1282 15 1047 15 1043 13 C 1041 10 1032 10 1030 13 C 1029 15 988 15 987 13 C 984 10 962 10 958 13 C 955 15 888 15 885 13 C 882 10 869 10 867 13 C 865 15 858 15 856 13 C 855 10 826 10 825 13 C 822 15 810 15 808 13 C 807 12 807 12 805 13 C 802 15 796 15 795 13 C 792 12 792 12 790 13 C 787 15 786 15 784 13 C 783 12 783 12 781 13 C 778 15 709 15 707 13 C 706 10 606 10 604 13 C 600 15 558 16 554 14 C 551 10 481 9 477 13 C 476 15 392 15 391 13 C 389 10 384 10 381 13 C 380 15 363 15 362 13 C 360 10 341 10 338 13 C 337 15 325 15 323 13 C 321 10 283 10 282 13 C 279 15 263 15 260 13 C 259 10 249 10 247 13 C 246 14 231 14 127 14 C 50 14 7 15 4 16 C 0 18 1 26 4 27 C 7 27 455 27 1001 27 C 1331 27 1662 27 1993 27 C 1994 26 1994 25 1996 24 C 1997 24 1997 22 1998 22 C 1999 22 1999 24 2000 24 C 2003 27 2050 28 2053 25 C 2054 22 2057 22 2058 25 C 2060 27 2070 27 2071 25 C 2074 22 2076 22 2077 25 C 2080 27 2089 27 2092 24 C 2093 24 2093 22 2094 22 C 2095 22 2095 24 2096 24 C 2099 27 2100 27 2327 27 C 2529 27 2555 26 2558 25 C 2559 22 2576 22 2577 25 C 2579 26 2579 26 2582 25 C 2584 22 2624 22 2625 25 C 2627 27 2642 27 2643 25 C 2645 22 2715 22 2716 24 C 2717 26 2726 26 2726 24 C 2726 22 2729 22 2731 25 C 2733 27 2930 27 2931 25 C 2932 22 2936 22 2937 25 C 2940 27 3078 27 3080 25 C 3082 22 3090 22 3092 25 C 3093 27 3118 27 3118 25 C 3120 22 3123 22 3125 25 C 3127 27 3185 27 3186 25 C 3188 22 3368 22 3370 25 C 3372 27 3382 27 3383 25 C 3385 22 3392 22 3394 25 C 3396 26 3396 26 3397 25 C 3401 22 3431 22 3432 25 C 3434 26 3434 26 3437 25 C 3439 22 3445 22 3448 25 C 3449 27 3450 27 3450 25 C 3451 22 3479 22 3480 25 C 3482 27 3492 27 3493 25 C 3494 22 3506 22 3510 25 C 3511 27 3511 27 3512 25 C 3514 22 3546 22 3548 25 C 3550 27 3564 27 3565 25 C 3568 22 4022 22 4024 25 C 4025 27 4030 27 4031 25 C 4032 22 4070 22 4072 25 C 4073 27 4082 27 4084 25 C 4087 24 4834 22 5907 22 C 6165 22 6201 21 6203 20 C 6205 18 6210 18 6215 20 C 6219 22 6320 22 6323 20 C 6325 18 6342 18 6343 20 C 6346 22 6349 22 6352 20 C 6354 18 6366 18 6367 20 C 6370 22 6538 22 6539 20 C 6540 18 6544 18 6546 20 C 6547 22 6711 22 6713 20 C 6714 18 6717 18 6719 20 C 6720 22 6826 22 6827 20 C 6828 19 7013 19 7608 18 C 8310 18 8387 18 8388 15 C 8392 13 8432 13 8434 15 C 8435 18 8444 18 8446 15 C 8449 13 8456 13 8458 15 C 8459 18 8531 18 8533 15 C 8534 13 8547 13 8549 15 C 8551 16 8567 18 8690 18 C 8736 18 8782 18 8829 18 C 8830 16 8832 15 8833 14 C 8838 9 8838 9 8833 4 C 8832 3 8830 2 8829 1 C 8816 1 8803 1 8790 1 C 8768 1 8619 1 8456 1 z" fill="black"/><!-- width=8844 height=33 -->
<path id="gl21764" d="M 6816 1 C 6463 2 6418 2 6415 3 C 6414 6 6412 6 6409 3 C 6408 1 6370 1 6367 3 C 6366 6 6320 6 6319 3 C 6317 1 6312 1 6311 3 C 6308 6 6268 6 6265 3 C 6264 1 6254 1 6252 3 C 6251 6 6219 6 6217 3 C 6216 1 6192 1 6191 3 C 6188 6 6147 6 6145 3 C 6144 1 6134 1 6132 3 C 6131 6 5633 6 5632 3 C 5630 2 5630 2 5627 3 C 5625 6 5498 6 5496 3 C 5495 1 5477 1 5475 3 C 5472 4 5328 4 4420 6 C 4070 6 3719 6 3368 6 C 3367 7 3366 7 3365 8 C 3361 12 3359 12 3355 8 C 3354 8 3353 7 3351 6 C 3020 6 2689 6 2357 6 C 1484 7 1363 7 1361 8 C 1359 10 1358 10 1355 8 C 1354 6 1345 6 1342 8 C 1341 10 1329 10 1328 8 C 1327 6 1306 6 1305 8 C 1303 10 1291 10 1289 8 C 1287 7 1287 7 1286 8 C 1282 10 1281 10 1279 8 C 1277 6 1268 6 1265 8 C 1264 10 1103 10 1102 8 C 1100 6 1052 6 1049 8 C 1048 10 1036 10 1035 8 C 1031 4 912 6 910 8 C 907 12 903 12 900 8 C 898 6 893 6 891 8 C 889 9 889 10 888 12 C 888 10 887 9 886 8 C 882 4 765 4 761 8 C 757 12 750 12 747 8 C 743 6 226 4 223 8 C 220 10 210 10 207 8 C 206 6 86 6 85 8 C 82 10 66 10 63 8 C 62 6 43 6 42 8 C 39 10 32 10 31 8 C 30 6 13 6 12 8 C 10 9 9 10 8 10 C 4 10 2 12 2 14 C 2 16 4 19 8 19 C 9 19 10 19 12 20 C 14 24 128 22 130 20 C 134 18 150 18 151 20 C 153 22 187 22 188 20 C 190 18 226 18 229 20 C 230 22 269 22 271 20 C 272 18 337 18 338 20 C 341 22 350 22 351 20 C 354 18 366 18 367 20 C 369 22 427 22 429 20 C 431 18 433 18 434 20 C 438 24 474 22 477 20 C 481 15 503 15 506 20 C 509 22 510 22 900 22 C 1247 22 1292 21 1294 20 C 1295 18 1490 18 1492 20 C 1494 21 1509 22 1621 22 C 1663 22 1705 22 1748 22 C 1748 21 1751 20 1752 19 C 1755 16 1771 16 1775 20 C 1778 22 1896 22 1899 20 C 1902 16 1984 16 1986 20 C 1990 22 2040 22 2042 20 C 2045 18 2062 18 2064 20 C 2065 22 2069 22 2071 20 C 2075 18 2098 16 2101 20 C 2104 21 2104 21 2106 20 C 2107 18 2119 18 2120 20 C 2123 22 2233 22 2235 20 C 2237 18 2239 18 2241 20 C 2243 22 2397 22 2398 20 C 2400 18 2403 18 2405 20 C 2406 22 2426 22 2427 20 C 2429 18 2441 18 2444 20 C 2445 22 2474 22 2475 20 C 2477 18 2494 18 2496 20 C 2498 22 2507 22 2510 20 C 2511 18 2686 18 2689 20 C 2690 22 2704 22 2705 20 C 2708 18 2725 18 2726 20 C 2728 22 2757 22 2758 20 C 2759 18 2763 18 2764 20 C 2767 22 3073 22 3076 20 C 3078 18 3162 18 3164 20 C 3165 22 3185 22 3186 20 C 3188 18 3195 18 3197 20 C 3199 21 3199 21 3201 20 C 3204 18 3473 16 3475 20 C 3479 22 3506 22 3509 20 C 3510 19 3538 19 3749 19 C 3960 19 3988 19 3989 20 C 3992 22 4062 22 4065 20 C 4067 19 4291 19 5555 18 C 6374 18 7046 16 7047 16 C 7048 16 7048 15 7048 14 C 7048 13 7077 13 7079 15 C 7081 18 7143 18 7144 15 C 7145 13 7177 13 7180 15 C 7181 18 7181 18 7183 15 C 7184 14 7185 14 7187 14 C 7190 14 7193 14 7195 15 C 7196 18 7197 18 7197 15 C 7198 13 7240 13 7243 15 C 7244 16 7258 16 7366 16 C 7475 16 7490 16 7490 15 C 7491 13 7509 13 7511 15 C 7513 16 7515 16 7525 16 C 7535 16 7537 16 7539 15 C 7541 13 7614 13 7617 15 C 7619 18 7662 18 7663 15 C 7665 13 7702 13 7703 15 C 7705 18 7892 18 7895 15 C 7896 13 7903 13 7906 15 C 7907 18 7926 18 7927 15 C 7929 13 7975 13 7978 15 C 7979 18 7984 18 7986 15 C 7987 14 8035 14 8409 13 C 8641 13 8832 13 8833 13 C 8838 12 8838 3 8833 1 C 8829 0 7993 0 6816 1 z" fill="black"/><!-- width=8844 height=28 -->
<path id="gl22016" d="M 8272 1 C 8166 1 8151 2 8151 3 C 8148 6 8141 6 8140 3 C 8137 1 8046 1 8044 3 C 8043 6 8040 6 8039 3 C 8037 2 8013 1 7828 1 C 7643 1 7619 2 7617 3 C 7615 6 7608 6 7607 3 C 7604 1 7495 1 7491 3 C 7489 6 7470 6 7467 3 C 7464 1 7417 1 7414 3 C 7413 6 7406 6 7404 3 C 7402 1 7335 1 7334 3 C 7332 6 7315 6 7312 3 C 7311 2 7311 2 7310 3 C 7306 6 7291 6 7288 3 C 7287 2 7287 2 7286 3 C 7282 6 7257 6 7256 3 C 7254 1 7201 1 7198 3 C 7197 6 6921 6 6920 3 C 6917 1 6888 1 6887 3 C 6885 4 6875 4 6812 4 C 6748 4 6738 4 6736 3 C 6735 1 6720 1 6719 3 C 6717 6 6700 6 6699 3 C 6697 2 6694 1 6682 1 C 6670 1 6666 2 6666 3 C 6664 6 6527 6 6525 3 C 6523 2 6523 2 6522 3 C 6520 4 6438 4 5853 6 C 5631 6 5409 6 5187 6 C 5187 7 5185 8 5185 8 C 5184 9 5184 10 5183 12 C 5182 10 5182 9 5181 8 C 5179 8 5178 7 5177 6 C 4956 6 4734 6 4513 6 C 3934 7 3848 7 3845 8 C 3843 10 3837 10 3834 8 C 3833 6 3684 6 3683 8 C 3681 10 3673 10 3672 8 C 3669 6 3603 6 3600 8 C 3599 10 3592 10 3589 8 C 3588 6 3325 6 3321 8 C 3320 10 3303 10 3301 8 C 3300 6 3218 6 3217 8 C 3215 10 3207 10 3205 8 C 3204 6 2805 6 2804 8 C 2801 10 2794 10 2793 8 C 2791 6 2723 6 2721 8 C 2720 10 2693 10 2691 8 C 2690 6 2680 6 2678 8 C 2677 10 2612 10 2609 8 C 2608 6 2555 6 2553 8 C 2552 10 2314 10 2313 8 C 2310 7 2310 7 2309 8 C 2305 10 2299 10 2298 8 C 2296 7 2296 7 2293 8 C 2291 10 2285 10 2283 8 C 2281 6 2219 6 2217 8 C 2215 10 1877 10 1874 8 C 1873 6 1820 6 1818 8 C 1817 10 1790 10 1789 8 C 1787 6 1777 6 1776 8 C 1773 10 1747 10 1746 8 C 1743 6 1691 6 1689 8 C 1687 10 1670 10 1669 8 C 1666 6 1657 6 1654 8 C 1653 10 1646 10 1645 8 C 1642 6 1634 6 1630 8 C 1629 9 1538 9 819 10 C 548 10 279 10 9 10 C 8 12 7 13 6 14 C 4 16 3 18 2 19 C 2 20 3 20 4 21 C 7 22 21 24 291 24 C 548 22 577 24 578 25 C 581 26 581 26 583 25 C 584 22 606 22 608 25 C 610 27 613 27 617 25 C 619 22 941 22 945 25 C 946 26 946 26 948 25 C 949 24 1145 24 2439 22 C 3753 22 3929 21 3930 20 C 3934 18 3935 18 3936 20 C 3939 22 4438 22 4441 20 C 4442 18 4454 18 4456 20 C 4458 21 4458 21 4460 20 C 4462 18 4483 18 4484 20 C 4486 22 4539 22 4540 20 C 4543 18 4579 18 4580 20 C 4583 21 4583 21 4585 20 C 4587 18 4632 18 4633 20 C 4635 22 4645 22 4646 20 C 4649 18 4656 18 4657 20 C 4659 21 4659 21 4661 20 C 4664 18 4704 18 4705 20 C 4707 21 4707 21 4709 20 C 4712 18 4723 18 4724 20 C 4727 22 4731 22 4733 20 C 4735 18 4805 18 4807 20 C 4808 22 4837 22 4840 20 C 4841 18 4853 18 4855 20 C 4856 22 4866 22 4868 20 C 4870 18 4886 18 4888 20 C 4890 22 4900 22 4901 20 C 4903 18 5035 18 5036 20 C 5039 22 5044 22 5045 20 C 5047 18 5055 18 5056 20 C 5058 22 5062 22 5064 20 C 5068 18 5188 16 5190 20 C 5194 22 5231 22 5232 20 C 5235 18 5237 18 5239 20 C 5241 22 5452 22 5453 20 C 5456 18 5463 18 5464 20 C 5466 22 5471 22 5472 20 C 5475 18 5578 18 5579 20 C 5582 21 5582 21 5583 20 C 5585 19 5776 19 6917 18 C 8068 18 8248 16 8250 15 C 8253 13 8254 13 8255 15 C 8258 16 8258 16 8259 15 C 8260 14 8262 14 8262 14 C 8264 14 8265 14 8266 15 C 8267 16 8267 16 8268 15 C 8272 13 8283 13 8285 15 C 8285 16 8289 18 8301 18 C 8313 18 8316 16 8316 15 C 8319 13 8340 13 8343 15 C 8344 18 8350 18 8351 15 C 8351 14 8355 14 8370 14 C 8385 14 8388 14 8390 15 C 8392 18 8397 18 8399 15 C 8401 13 8465 13 8467 15 C 8469 18 8488 18 8491 15 C 8492 13 8504 13 8506 15 C 8507 18 8599 18 8600 15 C 8602 13 8609 13 8611 15 C 8613 18 8618 18 8619 15 C 8621 13 8624 13 8626 15 C 8627 18 8738 18 8739 15 C 8742 13 8744 13 8746 15 C 8748 18 8752 18 8755 15 C 8756 13 8763 13 8766 15 C 8767 16 8767 16 8768 15 C 8770 13 8773 13 8774 15 C 8774 16 8779 18 8802 18 C 8811 18 8820 18 8829 18 C 8830 16 8832 15 8833 14 C 8838 10 8839 6 8835 3 C 8833 1 8577 1 8272 1 z" fill="black"/><!-- width=8844 height=33 -->
<path id="gl22017" d="M 7953 1 C 7712 1 7680 2 7677 3 C 7676 6 7654 6 7653 3 C 7651 1 7622 1 7621 3 C 7618 6 7611 6 7610 3 C 7608 1 7191 1 7188 3 C 7186 6 7170 6 7167 3 C 7166 2 7166 2 7164 3 C 7161 6 7141 6 7140 3 C 7137 1 7118 1 7116 3 C 7114 6 6829 6 6828 3 C 6825 1 6801 1 6800 3 C 6798 6 6728 6 6726 3 C 6726 2 6721 1 6705 1 C 6690 1 6686 2 6684 3 C 6682 6 6632 6 6630 3 C 6628 1 6624 1 6621 3 C 6620 6 6560 6 6558 3 C 6556 1 6548 1 6546 3 C 6543 4 6249 4 4597 6 C 2858 6 2649 7 2648 8 C 2644 10 2624 10 2623 8 C 2620 6 2491 6 2490 8 C 2487 10 2470 10 2469 8 C 2468 6 2457 6 2455 8 C 2454 10 2403 10 2402 8 C 2400 6 2380 6 2378 8 C 2377 10 2326 10 2324 8 C 2323 6 2299 6 2298 8 C 2295 10 2293 10 2292 8 C 2289 6 2169 6 2167 8 C 2166 10 2163 10 2161 8 C 2158 4 2073 6 2071 8 C 2070 9 2070 10 2068 12 C 2067 10 2067 9 2066 8 C 2062 6 2024 4 2023 8 C 2022 10 2010 10 2008 8 C 2006 6 2001 6 2000 8 C 1998 10 1952 10 1950 8 C 1947 6 1810 6 1807 8 C 1803 12 1790 12 1788 9 C 1786 8 1786 7 1785 6 C 1753 6 1722 6 1689 6 C 1605 6 1593 7 1592 8 C 1590 10 1587 10 1586 8 C 1584 6 1560 6 1557 8 C 1556 10 1549 10 1546 8 C 1545 7 1538 6 1488 6 C 1437 6 1430 7 1429 8 C 1426 10 1405 10 1402 8 C 1401 6 1396 6 1394 8 C 1393 10 1376 10 1375 8 C 1372 6 1358 6 1357 8 C 1354 10 886 10 884 8 C 883 6 878 6 876 8 C 874 10 862 10 860 8 C 859 6 849 6 847 8 C 846 10 690 10 688 8 C 686 6 652 6 651 8 C 649 10 608 10 606 8 C 606 7 603 6 602 6 C 601 6 598 7 597 8 C 596 10 502 10 501 8 C 499 6 456 6 453 8 C 452 10 430 10 429 8 C 428 6 411 6 410 8 C 409 10 397 10 394 8 C 393 6 321 6 320 8 C 318 10 315 10 314 8 C 312 6 283 6 282 8 C 279 9 262 9 142 10 C -7 10 0 10 4 18 C 6 20 7 21 8 22 C 9 22 470 22 1035 22 C 1981 22 2060 22 2061 20 C 2064 18 2073 18 2077 20 C 2079 24 3306 22 3308 20 C 3312 18 3313 18 3315 20 C 3316 22 3620 22 3621 20 C 3622 18 3630 18 3631 20 C 3633 22 3744 22 3746 20 C 3747 18 3860 18 3861 20 C 3864 21 3864 21 3866 20 C 3868 18 3903 18 3906 20 C 3907 21 3907 21 3909 20 C 3912 18 3927 18 3930 20 C 3931 22 3940 22 3942 20 C 3944 18 3980 18 3981 20 C 3984 22 4233 22 4234 20 C 4237 18 4244 18 4245 20 C 4248 21 4248 21 4249 20 C 4252 18 4273 18 4275 20 C 4276 22 4286 22 4288 20 C 4290 18 4330 18 4332 20 C 4334 22 4344 22 4345 20 C 4347 18 4686 18 4687 20 C 4689 21 4689 21 4692 20 C 4694 18 5156 18 5157 20 C 5160 22 5164 22 5166 20 C 5168 18 5194 18 5197 20 C 5198 22 5208 22 5210 20 C 5211 18 5218 18 5221 20 C 5222 22 5251 22 5253 20 C 5254 18 5262 18 5264 20 C 5265 22 5275 22 5277 20 C 5278 18 5281 18 5282 20 C 5284 22 5289 22 5290 20 C 5293 18 5310 18 5312 20 C 5313 22 5328 22 5330 20 C 5331 18 5367 18 5368 20 C 5371 22 5398 22 5401 20 C 5403 19 5572 19 6531 18 C 7574 18 7660 18 7662 15 C 7665 13 7666 13 7669 15 C 7670 18 8155 18 8156 15 C 8158 13 8175 13 8176 15 C 8178 16 8180 16 8185 16 C 8188 16 8191 16 8191 15 C 8192 14 8198 13 8236 13 C 8275 13 8281 14 8283 15 C 8283 16 8286 16 8287 16 C 8288 16 8290 16 8292 15 C 8293 14 8305 13 8392 13 C 8480 13 8492 14 8494 15 C 8494 16 8502 16 8541 16 C 8581 16 8587 16 8588 15 C 8590 13 8612 13 8613 15 C 8616 18 8620 18 8623 15 C 8624 13 8626 13 8629 15 C 8630 18 8712 18 8714 15 C 8715 13 8727 13 8730 15 C 8731 16 8731 16 8733 15 C 8736 12 8774 12 8776 15 C 8778 18 8809 18 8810 15 C 8810 14 8812 13 8816 13 C 8829 13 8832 10 8827 4 C 8824 3 8823 2 8822 1 C 8722 1 8624 1 8524 1 C 8361 1 8103 1 7953 1 z" fill="black"/><!-- width=8838 height=30 -->
<path id="gl22018" d="M 8445 1 C 8190 2 8157 2 8155 3 C 8153 6 8122 6 8121 3 C 8118 1 8061 1 8058 3 C 8057 6 8055 6 8053 3 C 8050 1 7975 1 7972 3 C 7969 6 7955 6 7951 3 C 7949 1 7860 1 7856 3 C 7855 6 7853 6 7852 3 C 7849 1 7840 1 7838 3 C 7836 6 7834 6 7832 3 C 7830 1 7801 1 7800 3 C 7798 6 7771 6 7769 3 C 7768 1 7686 1 7685 3 C 7682 6 7675 6 7674 3 C 7671 1 7662 1 7661 3 C 7658 6 7641 6 7639 3 C 7638 1 7614 1 7613 3 C 7610 6 7603 6 7602 3 C 7599 1 7556 1 7554 3 C 7553 6 7517 6 7515 3 C 7513 1 7489 1 7487 3 C 7485 6 7454 6 7452 3 C 7451 1 7426 1 7424 3 C 7423 6 7420 6 7419 3 C 7417 1 7374 1 7371 3 C 7371 4 7370 4 7369 4 C 7368 4 7366 4 7365 3 C 7364 1 7335 1 7333 3 C 7332 6 7324 6 7322 3 C 7321 1 7311 1 7309 3 C 7308 6 7300 6 7298 3 C 7297 1 7278 1 7276 3 C 7274 6 7257 6 7255 3 C 7254 1 7244 1 7242 3 C 7240 6 7233 6 7231 3 C 7231 2 7228 2 7227 2 C 7226 2 7224 2 7224 3 C 7220 6 6863 6 6861 3 C 6860 1 6836 1 6833 3 C 6832 6 6795 6 6794 3 C 6794 1 6765 1 6762 3 C 6760 6 6753 6 6750 3 C 6749 1 6715 1 6713 3 C 6712 6 6215 6 6213 3 C 6211 1 6207 1 6205 3 C 6203 4 6051 4 5056 6 C 3916 7 3909 7 3906 8 C 3904 12 3896 12 3893 8 C 3891 6 3762 4 3759 8 C 3757 10 3750 10 3748 8 C 3747 7 3747 7 3745 8 C 3742 10 3736 10 3735 8 C 3733 6 3699 6 3697 8 C 3695 10 3683 10 3681 8 C 3679 6 3564 6 3563 8 C 3560 10 3544 10 3541 8 C 3540 6 3497 6 3496 8 C 3493 10 3486 10 3485 8 C 3482 6 3348 6 3345 8 C 3344 10 3337 10 3335 8 C 3333 6 3319 6 3318 8 C 3315 10 3313 10 3311 8 C 3309 6 3141 6 3139 8 C 3138 10 3135 10 3133 8 C 3132 6 2805 6 2803 8 C 2801 10 2794 10 2792 8 C 2791 6 2719 6 2716 8 C 2715 10 2602 10 2601 8 C 2598 7 2598 7 2596 8 C 2594 10 2304 10 2303 8 C 2301 6 2248 6 2247 8 C 2244 10 2237 10 2236 8 C 2233 6 2200 6 2199 8 C 2196 10 2194 10 2193 8 C 2190 6 2185 6 2183 8 C 2182 10 2165 10 2164 8 C 2161 6 2152 6 2150 8 C 2147 10 2078 10 2077 8 C 2075 6 2070 6 2069 8 C 2066 10 2059 10 2058 8 C 2056 6 2051 6 2048 8 C 2047 10 1867 10 1866 8 C 1863 6 1830 6 1827 8 C 1826 10 1824 10 1823 8 C 1820 6 1815 6 1814 8 C 1812 10 1800 10 1799 8 C 1796 6 1791 6 1790 8 C 1788 10 1781 10 1779 8 C 1777 7 1777 7 1775 8 C 1772 10 1771 10 1769 8 C 1767 6 1666 6 1664 8 C 1663 10 1660 10 1658 8 C 1657 6 1628 6 1627 8 C 1624 10 1603 10 1602 8 C 1599 7 1599 7 1597 8 C 1594 10 1584 10 1581 8 C 1580 6 1566 6 1564 8 C 1562 10 1526 10 1525 8 C 1522 6 1514 6 1510 8 C 1508 10 682 10 679 8 C 677 7 677 7 676 8 C 673 10 642 10 641 8 C 638 6 624 6 622 8 C 620 10 527 10 526 8 C 523 6 509 6 506 8 C 505 10 378 10 375 8 C 374 6 360 6 359 8 C 356 9 336 10 183 10 C 88 10 8 10 7 10 C 2 12 1 14 3 16 C 4 19 7 20 7 21 C 9 24 3875 22 3878 20 C 3881 16 3910 16 3912 20 C 3916 22 4408 24 4411 20 C 4413 18 4420 18 4422 20 C 4424 21 4424 21 4425 20 C 4429 18 4468 18 4471 20 C 4472 22 4482 22 4484 20 C 4485 18 4540 18 4543 20 C 4544 22 4554 22 4556 20 C 4557 18 4598 18 4599 20 C 4602 22 4611 22 4613 20 C 4615 18 4627 18 4629 20 C 4631 21 4631 21 4632 20 C 4635 18 4641 18 4643 20 C 4645 22 4650 22 4651 20 C 4653 18 4675 18 4677 20 C 4679 22 4703 22 4704 20 C 4706 18 4709 18 4710 20 C 4712 22 4797 22 4801 20 C 4802 18 4843 18 4844 20 C 4847 22 4866 22 4868 20 C 4870 18 4886 18 4889 20 C 4890 22 4914 22 4916 20 C 4918 18 5098 18 5099 20 C 5101 22 5106 22 5107 20 C 5110 18 5165 18 5166 20 C 5169 22 5269 22 5271 20 C 5273 18 5275 18 5277 20 C 5279 22 5447 22 5448 20 C 5451 18 5545 18 5547 20 C 5548 22 5553 22 5555 20 C 5557 18 5588 18 5590 20 C 5591 21 5591 21 5593 20 C 5596 18 6203 18 6205 20 C 6206 22 6210 22 6212 20 C 6215 19 6360 19 7228 18 C 8099 16 8243 16 8246 15 C 8248 13 8278 13 8279 15 C 8282 18 8315 18 8316 15 C 8319 13 8336 13 8338 15 C 8339 18 8363 18 8364 15 C 8367 13 8384 13 8386 15 C 8387 18 8392 18 8394 15 C 8396 13 8413 13 8415 15 C 8416 18 8445 18 8447 15 C 8449 13 8451 13 8453 15 C 8456 19 8612 18 8615 15 C 8618 13 8624 13 8626 15 C 8627 16 8644 16 8731 16 C 8766 16 8800 16 8835 16 C 8836 16 8838 15 8839 14 C 8842 9 8842 9 8838 4 C 8836 3 8835 2 8834 1 C 8817 1 8800 1 8784 1 C 8756 1 8603 1 8445 1 z" fill="black"/><!-- width=8848 height=28 -->
<path id="gl22019" d="M 8356 3 C 8355 4 8198 4 7293 6 C 6346 6 6230 7 6229 8 C 6225 10 6215 10 6212 8 C 6211 6 6201 6 6199 8 C 6198 10 6186 10 6185 8 C 6182 6 6053 6 6051 8 C 6049 10 6023 10 6021 8 C 6019 6 5956 6 5954 8 C 5953 10 5936 10 5934 8 C 5932 6 5918 6 5916 8 C 5914 10 5845 10 5844 8 C 5841 6 5812 6 5811 8 C 5809 10 5797 10 5796 8 C 5793 6 5769 6 5768 8 C 5766 10 5614 10 5613 8 C 5611 6 5601 6 5600 8 C 5597 10 5552 10 5549 8 C 5548 7 5548 7 5547 8 C 5543 10 5533 10 5530 8 C 5529 6 5510 6 5507 8 C 5506 10 5489 10 5487 8 C 5486 6 5354 6 5350 8 C 5346 10 5297 10 5296 8 C 5294 6 5266 6 5263 8 C 5261 9 4136 10 2813 10 C 2496 10 2454 12 2453 13 C 2451 15 2386 15 2385 13 C 2382 10 2377 10 2376 13 C 2374 15 2357 15 2355 13 C 2353 10 2349 10 2346 13 C 2345 15 2333 15 2332 13 C 2329 10 2291 10 2289 13 C 2287 15 2218 15 2217 13 C 2214 10 2118 10 2116 13 C 2114 15 2098 15 2095 13 C 2094 12 2094 12 2092 13 C 2089 16 2036 15 2033 13 C 2030 10 1970 10 1967 13 C 1964 16 1830 15 1826 13 C 1824 10 1815 10 1813 13 C 1812 15 1776 15 1775 13 C 1772 10 1561 10 1560 13 C 1556 15 1492 15 1491 13 C 1489 10 1466 10 1464 13 C 1461 14 1382 15 735 15 C 493 15 251 15 9 15 C 8 16 7 18 6 19 C 2 24 2 24 3 26 C 6 28 3299 27 3302 25 C 3305 22 3311 22 3312 25 C 3314 26 3335 27 3492 27 C 3648 27 3669 26 3671 25 C 3673 22 3676 22 3678 25 C 3679 27 3689 27 3691 25 C 3693 22 3700 22 3702 25 C 3703 27 3729 27 3729 25 C 3730 22 3741 22 3741 24 C 3741 25 3742 26 3744 26 C 3747 26 3749 25 3749 24 C 3749 22 3762 22 3763 25 C 3766 27 3832 27 3834 25 C 3837 22 3898 22 3899 25 C 3899 27 4016 27 4017 25 C 4019 22 4031 22 4032 25 C 4035 27 4083 27 4085 25 C 4087 22 4118 22 4120 25 C 4121 27 4211 27 4214 25 C 4216 24 4372 24 5259 22 C 6209 22 6302 22 6304 20 C 6307 18 6318 18 6320 20 C 6322 22 6918 22 6918 20 C 6920 18 7216 18 7218 20 C 7220 21 7220 21 7222 20 C 7225 18 7250 18 7252 20 C 7254 22 7258 22 7261 20 C 7262 18 7269 18 7270 20 C 7273 21 7273 21 7274 20 C 7276 19 7378 19 8026 18 C 8439 18 8778 18 8778 16 C 8780 15 8780 8 8778 7 C 8775 6 8767 4 8758 4 C 8745 4 8740 4 8740 3 C 8738 1 8724 1 8722 3 C 8720 6 8689 6 8688 3 C 8685 2 8682 1 8664 1 C 8646 1 8642 2 8640 3 C 8638 6 8617 6 8614 3 C 8613 2 8607 1 8572 1 C 8537 1 8531 2 8529 3 C 8528 6 8497 6 8494 3 C 8493 1 8455 1 8452 3 C 8452 4 8447 4 8426 4 C 8404 4 8399 4 8399 3 C 8397 1 8360 1 8356 3 z" fill="black"/><!-- width=8786 height=33 -->
<path id="gl4388" d="M 5 8 C 1 12 2 13 20 13 C 39 13 43 12 39 6 C 35 2 9 4 5 8 z" fill="black"/><!-- width=48 height=24 -->
<path id="gl22020" d="M 7686 1 C 7329 1 7282 2 7280 3 C 7279 6 7267 6 7264 3 C 7263 1 7181 1 7179 3 C 7178 6 7166 6 7163 3 C 7162 1 7153 1 7150 3 C 7149 6 7075 6 7072 3 C 7071 2 7071 2 7070 3 C 7066 6 6882 6 6880 3 C 6879 1 6860 1 6858 3 C 6856 6 6849 6 6848 3 C 6845 1 6831 1 6830 3 C 6827 6 6820 6 6819 3 C 6816 1 6807 1 6806 3 C 6803 6 6753 6 6752 3 C 6749 1 6711 1 6708 3 C 6707 6 6700 6 6699 3 C 6696 1 6687 1 6684 3 C 6683 6 6676 6 6675 3 C 6672 1 6648 1 6647 3 C 6645 6 6609 6 6607 3 C 6605 1 6592 1 6589 3 C 6587 4 6408 4 5307 6 C 4213 7 4025 7 4023 8 C 4020 10 4014 10 4013 8 C 4011 6 3920 6 3917 8 C 3916 10 3914 10 3912 8 C 3910 6 3838 6 3837 8 C 3834 10 3813 10 3810 8 C 3809 6 3771 6 3768 8 C 3767 10 3683 10 3682 8 C 3679 6 3675 6 3672 8 C 3671 10 3635 10 3634 8 C 3631 6 3627 6 3624 8 C 3623 10 3534 10 3533 8 C 3530 7 3530 7 3528 8 C 3526 10 3486 10 3485 8 C 3482 6 3478 6 3476 8 C 3474 10 3433 10 3432 8 C 3431 6 3425 6 3424 8 C 3421 10 3400 10 3397 8 C 3396 6 3391 6 3389 8 C 3388 10 3347 10 3345 8 C 3343 7 3343 7 3341 8 C 3338 10 3257 10 3253 8 C 3251 6 3242 6 3241 8 C 3239 10 3227 10 3225 8 C 3223 6 3204 6 3201 8 C 3200 10 3126 10 3125 8 C 3121 6 2988 6 2985 8 C 2984 10 2953 10 2950 8 C 2949 6 2925 6 2924 8 C 2922 10 2919 10 2918 8 C 2916 6 2893 6 2889 8 C 2888 9 2734 9 1449 10 C 658 10 8 10 7 10 C 2 12 2 13 2 16 C 1 24 -20 24 289 22 C 544 22 572 24 574 25 C 576 26 576 26 578 25 C 581 22 903 22 905 25 C 907 26 907 26 910 25 C 911 24 1162 24 2701 22 C 4350 22 4491 22 4492 20 C 4496 18 4497 18 4500 20 C 4501 22 4539 22 4540 20 C 4543 18 4560 18 4561 20 C 4563 22 4573 22 4574 20 C 4577 18 4589 18 4591 20 C 4592 22 4621 22 4622 20 C 4625 18 4637 18 4639 20 C 4640 22 4794 22 4796 20 C 4797 18 4810 18 4812 20 C 4813 22 4832 22 4834 20 C 4836 18 4853 18 4855 20 C 4856 22 4932 22 4936 20 C 4937 18 4954 18 4956 20 C 4957 21 4957 21 4960 20 C 4962 18 5026 18 5028 20 C 5029 22 5044 22 5045 20 C 5047 18 5074 18 5076 20 C 5077 22 5087 22 5088 20 C 5091 18 5146 18 5148 20 C 5149 21 5167 22 5303 22 C 5439 22 5457 21 5459 20 C 5460 18 5463 18 5464 20 C 5466 22 5495 22 5496 20 C 5499 18 5506 18 5507 20 C 5510 21 5510 21 5512 20 C 5514 18 5545 18 5547 20 C 5548 22 5558 22 5560 20 C 5561 18 5569 18 5570 20 C 5571 22 5582 22 5584 20 C 5585 18 5886 18 5887 20 C 5889 21 5889 21 5892 20 C 5894 18 5948 18 5950 20 C 5952 22 5961 22 5964 20 C 5965 18 6491 18 6492 20 C 6495 21 6495 21 6496 20 C 6498 19 6593 19 7284 18 C 7948 16 8070 16 8073 15 C 8075 13 8100 13 8103 15 C 8103 16 8106 18 8121 18 C 8135 18 8137 16 8140 15 C 8140 14 8141 14 8142 14 C 8143 14 8145 14 8146 15 C 8147 18 8181 18 8183 15 C 8184 13 8201 13 8202 15 C 8205 16 8205 16 8207 15 C 8210 13 8494 13 8495 15 C 8498 18 8507 18 8509 15 C 8511 13 8557 13 8558 15 C 8560 18 8565 18 8567 15 C 8567 14 8573 14 8596 14 C 8619 14 8624 14 8626 15 C 8626 16 8631 18 8649 18 C 8667 18 8672 16 8672 15 C 8674 13 8686 13 8689 15 C 8690 18 8700 18 8702 15 C 8703 14 8712 14 8767 13 C 8802 13 8832 13 8833 13 C 8836 12 8836 10 8836 7 C 8836 2 8836 2 8832 1 C 8828 1 8660 1 8458 1 C 8256 1 7908 1 7686 1 z" fill="black"/><!-- width=8844 height=33 -->
<path id="gl22272" d="M 8414 3 C 8413 4 8226 4 7127 6 C 5990 6 5841 7 5840 8 C 5836 10 5830 10 5828 8 C 5827 6 5812 6 5811 8 C 5809 10 5805 10 5804 8 C 5803 6 5726 6 5723 8 C 5722 10 5714 10 5713 8 C 5711 6 5649 6 5648 8 C 5645 10 5643 10 5641 8 C 5638 7 5623 7 5512 7 C 5400 7 5385 7 5384 8 C 5381 10 5378 10 5376 8 C 5375 6 5241 6 5239 8 C 5237 10 5187 10 5184 8 C 5183 6 5164 6 5163 8 C 5159 10 5018 10 5017 8 C 5015 7 5015 7 5012 8 C 5010 10 4822 10 4820 8 C 4818 7 4818 7 4816 8 C 4813 10 4506 10 4502 8 C 4501 6 4496 6 4495 8 C 4491 10 4341 10 4340 8 C 4338 6 4304 6 4303 8 C 4300 10 4274 10 4273 8 C 4270 6 4267 6 4264 8 C 4262 9 4139 9 3371 10 C 2541 10 2478 10 2477 13 C 2474 15 2468 15 2466 13 C 2464 10 1417 10 1414 13 C 1413 15 1406 15 1403 13 C 1402 10 1349 10 1348 13 C 1346 15 1343 15 1342 13 C 1340 10 1335 10 1334 13 C 1331 15 1263 15 1259 13 C 1258 10 1253 10 1252 13 C 1250 15 1233 15 1231 13 C 1229 10 1220 10 1217 13 C 1216 15 1089 15 1086 13 C 1085 12 1085 12 1083 13 C 1080 15 1065 15 1062 13 C 1061 10 1028 10 1025 13 C 1024 15 1017 15 1014 13 C 1013 10 999 10 998 13 C 995 15 988 15 987 13 C 984 10 960 10 958 13 C 957 15 949 15 947 13 C 946 10 922 10 921 13 C 918 15 897 15 894 13 C 893 10 845 10 843 13 C 841 15 834 15 832 13 C 831 10 759 10 757 13 C 755 15 738 15 736 13 C 735 10 731 10 727 13 C 725 15 691 15 689 13 C 685 10 586 10 584 13 C 582 15 546 15 544 13 C 542 10 422 10 421 13 C 419 15 402 15 399 13 C 398 10 331 10 330 13 C 327 15 90 15 87 13 C 86 12 86 12 85 13 C 82 14 76 14 44 14 C 20 14 6 15 3 15 C 1 18 1 24 3 26 C 7 28 1987 27 1990 25 C 1993 22 1994 22 1997 25 C 1998 27 2056 27 2058 25 C 2059 22 2071 22 2072 25 C 2075 27 2560 27 2561 25 C 2564 22 2609 22 2612 25 C 2613 27 2651 27 2654 25 C 2655 22 2662 22 2665 25 C 2666 27 2671 27 2673 25 C 2674 22 2677 22 2678 25 C 2680 27 2723 27 2726 25 C 2727 22 2733 22 2737 25 C 2738 27 2739 27 2739 25 C 2740 22 2753 22 2756 25 C 2757 27 3036 27 3038 25 C 3039 22 3042 22 3044 25 C 3045 27 3112 27 3114 25 C 3116 22 3133 22 3135 25 C 3137 27 3185 27 3186 25 C 3188 22 3191 22 3193 25 C 3194 27 3218 27 3221 25 C 3222 22 3234 22 3236 25 C 3237 27 3242 27 3245 25 C 3246 22 3339 22 3341 25 C 3343 27 3357 27 3359 25 C 3361 22 3373 22 3376 25 C 3377 27 3401 27 3402 25 C 3404 22 3474 22 3476 25 C 3478 27 3492 27 3493 25 C 3496 22 4007 22 4008 25 C 4011 27 4019 27 4022 25 C 4024 24 4196 24 5184 22 C 6218 22 6346 21 6348 20 C 6350 18 6356 18 6359 20 C 6360 22 6365 22 6367 20 C 6368 18 6376 18 6378 20 C 6379 21 6407 22 6622 22 C 6837 22 6864 21 6867 20 C 6868 18 6914 18 6915 20 C 6917 22 6970 22 6971 20 C 6974 18 7144 18 7147 20 C 7148 21 7148 21 7149 20 C 7153 18 7269 18 7270 20 C 7273 22 7278 22 7280 20 C 7281 18 7783 18 7786 20 C 7787 22 7790 22 7793 20 C 7795 19 7866 19 8314 18 C 8600 18 8835 18 8835 16 C 8838 15 8838 8 8835 7 C 8835 6 8829 4 8818 4 C 8806 4 8803 4 8803 3 C 8800 1 8728 1 8726 3 C 8726 4 8722 4 8719 4 C 8715 4 8712 4 8712 3 C 8709 1 8570 1 8567 3 C 8566 6 8558 6 8557 3 C 8557 2 8553 1 8543 1 C 8533 1 8529 2 8529 3 C 8528 6 8439 6 8437 3 C 8435 1 8417 1 8414 3 z" fill="black"/><!-- width=8844 height=33 -->
<path id="gl22273" d="M 2254 1 C 1848 1 1795 2 1792 3 C 1791 6 1770 6 1767 3 C 1766 1 1665 1 1663 3 C 1662 6 1656 6 1652 3 C 1651 2 1650 2 1650 3 C 1648 6 1534 6 1533 3 C 1531 1 1278 1 1275 3 C 1273 6 1260 6 1260 4 C 1260 3 1257 2 1255 2 C 1252 2 1251 3 1251 4 C 1251 6 1246 6 1245 3 C 1243 1 1234 1 1232 3 C 1230 6 1218 6 1215 3 C 1214 1 1186 1 1184 3 C 1182 4 1112 4 596 4 C 274 6 8 6 7 6 C 0 8 0 19 8 19 C 9 19 12 19 13 20 C 14 22 100 22 102 20 C 104 18 126 18 127 20 C 129 21 129 21 132 20 C 134 18 202 18 204 20 C 206 21 206 21 208 20 C 211 18 241 18 243 20 C 244 21 244 21 246 20 C 248 18 621 18 621 20 C 621 21 627 22 630 20 C 632 19 752 19 1744 18 C 2694 16 2856 16 2858 15 C 2860 13 2866 13 2869 15 C 2871 18 2889 18 2892 15 C 2893 13 2996 13 2997 15 C 3000 18 3009 18 3010 15 C 3013 13 3178 13 3181 15 C 3182 16 3182 16 3183 15 C 3187 13 3231 13 3232 15 C 3234 16 3236 16 3240 16 C 3243 16 3246 16 3247 15 C 3248 13 3303 13 3306 15 C 3307 18 3369 18 3370 15 C 3373 14 3381 13 3442 13 C 3481 13 3514 13 3517 13 C 3520 12 3522 9 3519 6 C 3518 4 3516 3 3516 2 C 3513 1 3481 0 3115 1 C 2895 1 2508 1 2254 1 z" fill="black"/><!-- width=3529 height=30 -->
<path id="gl22274" d="M 3870 1 C 3779 2 3766 2 3765 3 C 3762 6 3760 6 3759 3 C 3756 1 3713 1 3712 3 C 3711 4 3707 6 3701 6 C 3695 6 3691 4 3690 3 C 3689 1 3670 1 3667 3 C 3666 6 3654 6 3652 3 C 3651 1 3564 1 3563 3 C 3560 6 3558 6 3556 3 C 3554 2 3545 2 3478 2 C 3410 2 3401 2 3398 3 C 3397 6 3380 6 3378 3 C 3377 1 3333 1 3331 3 C 3330 6 3318 6 3315 3 C 3314 1 3252 1 3251 3 C 3248 6 3236 6 3235 3 C 3233 1 3185 1 3182 3 C 3181 6 3179 6 3177 3 C 3175 1 2819 1 2817 3 C 2816 6 2809 6 2807 3 C 2805 1 2776 1 2775 3 C 2773 6 2761 6 2758 3 C 2757 1 2723 1 2722 3 C 2720 6 2266 6 2265 3 C 2262 2 2262 2 2261 3 C 2257 6 2232 6 2231 3 C 2229 2 2229 2 2226 3 C 2224 6 2088 6 2087 3 C 2084 2 2084 2 2083 3 C 2080 6 1915 6 1913 3 C 1911 2 1911 2 1910 3 C 1907 6 1896 6 1895 3 C 1892 1 1883 1 1880 3 C 1879 6 1838 6 1836 3 C 1835 1 1806 1 1803 3 C 1802 6 1757 6 1755 3 C 1753 1 1743 1 1741 3 C 1740 6 1733 6 1730 3 C 1729 1 1719 1 1718 3 C 1716 6 1680 6 1677 3 C 1676 1 1663 1 1659 3 C 1657 6 686 6 684 3 C 682 2 682 2 679 3 C 678 6 647 6 343 6 C 120 6 7 6 4 6 C 1 8 0 15 4 16 C 8 20 3894 18 3897 15 C 3900 13 3902 13 3903 15 C 3905 18 4386 18 4388 15 C 4389 13 4396 13 4399 15 C 4400 18 4453 18 4455 15 C 4456 13 4516 13 4518 15 C 4520 18 4530 18 4532 15 C 4533 13 4560 13 4562 15 C 4563 18 4568 18 4571 15 C 4572 13 4593 13 4595 15 C 4597 18 4602 18 4603 15 C 4605 13 4689 13 4692 15 C 4693 18 4751 18 4753 15 C 4754 13 4771 13 4772 15 C 4775 18 4789 18 4791 15 C 4793 13 4858 13 4860 15 C 4861 18 4919 18 4920 15 C 4922 13 4930 13 4931 15 C 4933 18 4948 18 4949 15 C 4951 13 5021 13 5023 15 C 5024 16 5024 16 5026 15 C 5029 13 5189 13 5191 15 C 5193 18 5295 18 5296 15 C 5296 14 5298 13 5301 13 C 5306 12 5307 9 5304 6 C 5303 6 5301 3 5301 2 C 5301 1 4255 0 3870 1 z" fill="black"/><!-- width=5313 height=24 -->
<path id="gl22275" d="M 8597 3 C 8595 4 8518 4 7995 6 C 7794 6 7593 6 7393 6 C 7392 7 7392 8 7390 9 C 7387 12 7387 12 7386 9 C 7383 6 7371 6 7151 6 C 6985 7 6956 7 6953 8 C 6951 10 6948 10 6947 8 C 6946 6 6466 6 6463 8 C 6462 10 6460 10 6457 8 C 6455 6 6331 6 6330 8 C 6328 10 6300 10 6299 8 C 6298 6 6254 6 6252 8 C 6251 10 6229 10 6228 8 C 6225 6 6182 6 6180 8 C 6177 10 6165 10 6164 8 C 6164 6 6163 6 6162 8 C 6158 10 6137 10 6135 8 C 6134 6 6105 6 6103 8 C 6102 10 6041 10 6039 8 C 6038 6 6005 6 6003 8 C 6001 10 5954 10 5953 8 C 5952 6 5947 6 5944 8 C 5943 10 5667 10 5665 8 C 5662 6 5641 6 5638 8 C 5636 9 5339 9 3472 10 C 1578 10 1306 12 1305 13 C 1301 15 1291 15 1289 13 C 1287 10 1176 10 1174 13 C 1173 15 1146 15 1145 13 C 1143 12 1143 12 1142 13 C 1138 15 1132 15 1131 13 C 1128 12 1128 12 1126 13 C 1124 15 1098 15 1097 13 C 1095 10 1061 10 1059 13 C 1058 15 1013 15 1011 13 C 1007 10 217 10 213 13 C 211 15 210 15 207 13 C 206 10 85 10 84 13 C 82 14 78 14 44 14 C 9 14 3 15 2 16 C 0 19 1 21 4 22 C 4 22 7 24 7 25 C 8 27 129 27 130 25 C 133 22 154 22 157 25 C 158 27 163 27 164 25 C 166 22 207 22 210 25 C 211 27 216 27 218 25 C 219 22 323 22 325 25 C 326 26 326 26 327 25 C 331 22 356 22 357 25 C 360 27 369 27 371 25 C 373 22 395 22 397 25 C 398 27 461 27 463 25 C 464 22 470 22 474 25 C 476 27 1223 27 1227 25 C 1229 22 1231 22 1233 25 C 1234 27 1282 27 1283 25 C 1286 22 1317 22 1318 25 C 1321 27 1330 27 1331 25 C 1335 22 1427 22 1429 25 C 1431 27 1455 27 1458 25 C 1459 22 1466 22 1468 25 C 1470 26 1470 26 1471 25 C 1474 22 1639 22 1641 25 C 1642 26 1647 27 1676 27 C 1705 27 1710 26 1711 25 C 1713 22 1721 22 1722 25 C 1725 28 1801 27 1803 24 C 1806 21 1814 21 1818 25 C 1821 27 1839 27 1842 25 C 1843 22 1845 22 1848 25 C 1849 27 1886 27 1890 25 C 1892 21 1911 21 1914 25 C 1917 27 1964 27 1966 25 C 1968 22 1973 22 1976 25 C 1980 27 2003 27 2005 25 C 2006 22 2014 22 2016 25 C 2017 27 2056 27 2058 25 C 2059 22 2071 22 2072 25 C 2075 27 2381 27 2385 25 C 2386 22 2393 22 2395 25 C 2397 27 2426 27 2427 25 C 2429 22 2432 22 2433 25 C 2435 27 2531 27 2534 25 C 2535 22 2680 22 2684 25 C 2685 26 2685 26 2686 25 C 2690 22 2701 22 2702 25 C 2705 27 3064 27 3066 25 C 3068 22 3128 22 3129 25 C 3131 27 3156 27 3157 25 C 3159 22 3162 22 3164 25 C 3165 26 3165 26 3167 25 C 3170 22 3191 22 3193 25 C 3194 26 3194 26 3197 25 C 3199 22 3234 22 3236 25 C 3237 26 3237 26 3239 25 C 3242 22 3306 22 3308 25 C 3309 27 3324 27 3325 25 C 3327 22 3344 22 3345 25 C 3348 27 3353 27 3354 25 C 3356 22 3364 22 3365 25 C 3367 27 3372 27 3373 25 C 3376 22 3397 22 3400 25 C 3401 27 3406 27 3407 25 C 3409 22 3484 22 3485 25 C 3487 27 3497 27 3498 25 C 3500 22 3527 22 3528 25 C 3530 27 3540 27 3541 25 C 3544 22 3983 22 3984 25 C 3987 27 4001 27 4002 25 C 4005 22 4041 22 4043 25 C 4044 27 4054 27 4056 25 C 4058 22 4070 22 4072 25 C 4073 27 4082 27 4084 25 C 4087 24 4282 24 5496 22 C 6979 22 7072 22 7072 20 C 7073 18 7077 18 7079 20 C 7081 22 7147 22 7149 20 C 7151 18 7173 18 7174 19 C 7175 21 7187 21 7187 19 C 7187 18 7192 18 7195 20 C 7198 22 7243 22 7245 20 C 7248 18 7255 18 7256 20 C 7260 22 7364 22 7366 20 C 7368 16 7398 16 7400 20 C 7401 22 7484 24 7485 20 C 7487 18 7490 18 7491 20 C 7494 22 7532 22 7533 20 C 7535 18 7653 18 7655 20 C 7657 21 7674 22 7793 22 C 7914 22 7930 21 7932 20 C 7935 18 7937 18 7938 20 C 7941 22 8055 22 8057 20 C 8058 19 8075 19 8189 19 C 8324 19 8326 18 8327 14 C 8328 12 8328 12 8331 15 C 8332 15 8333 16 8333 18 C 8401 18 8468 18 8534 18 C 8710 19 8734 19 8737 20 C 8738 22 8743 22 8744 20 C 8746 19 8754 19 8790 18 C 8836 18 8838 18 8838 12 C 8838 6 8836 6 8792 6 C 8757 4 8750 4 8749 3 C 8748 1 8738 1 8737 3 C 8734 6 8731 6 8730 3 C 8730 2 8728 2 8727 3 C 8722 6 8615 6 8614 3 C 8613 1 8600 1 8597 3 z" fill="black"/><!-- width=8844 height=33 -->
<path id="gl22276" d="M 8323 1 C 8230 1 8217 2 8215 3 C 8214 6 8202 6 8200 3 C 8199 1 8188 1 8187 3 C 8187 4 8185 4 8185 4 C 8182 4 8181 4 8180 3 C 8179 1 8169 1 8168 3 C 8167 6 8160 6 8156 3 C 8155 1 8155 1 8154 3 C 8152 6 8139 6 8137 3 C 8137 2 8132 1 8112 1 C 8092 1 8088 2 8086 3 C 8084 6 8072 6 8070 3 C 8068 1 8059 1 8058 3 C 8056 6 8053 6 8052 3 C 8049 1 7996 1 7995 3 C 7994 4 7990 4 7969 4 C 7946 4 7941 4 7941 3 C 7939 1 7800 1 7797 3 C 7796 6 7784 6 7782 3 C 7779 1 7738 1 7735 3 C 7732 6 7718 6 7716 3 C 7713 1 7694 1 7693 3 C 7690 6 7683 6 7682 3 C 7680 2 7677 1 7665 1 C 7653 1 7651 2 7648 3 C 7647 6 7640 6 7638 3 C 7636 1 7531 1 7530 3 C 7527 6 7515 6 7514 3 C 7512 1 7214 1 7212 3 C 7210 6 6877 6 6876 3 C 6873 1 6846 1 6843 3 C 6841 6 6720 6 6716 3 C 6715 1 6715 1 6714 3 C 6712 6 6676 6 6673 3 C 6672 1 6672 1 6670 3 C 6669 6 6555 6 6554 3 C 6552 1 6548 1 6546 3 C 6543 4 6325 4 5038 6 C 3669 6 3532 6 3531 8 C 3528 10 3522 10 3519 8 C 3518 6 3201 6 3200 8 C 3198 10 3195 10 3193 8 C 3192 7 3159 6 2911 6 C 2664 6 2631 7 2629 8 C 2626 10 2624 10 2623 8 C 2620 6 2611 6 2610 8 C 2607 10 2600 10 2599 8 C 2596 6 2553 6 2551 8 C 2550 10 2427 10 2426 8 C 2425 7 2421 6 2416 6 C 2412 6 2408 7 2407 8 C 2406 10 2360 10 2359 8 C 2356 7 2356 7 2354 8 C 2352 10 2283 10 2281 8 C 2280 6 2179 6 2178 8 C 2175 10 2173 10 2172 8 C 2169 6 2155 6 2154 8 C 2151 10 2139 10 2137 8 C 2136 7 2136 7 2134 8 C 2131 10 2101 10 2100 8 C 2097 6 2078 6 2076 8 C 2074 10 2048 10 2046 8 C 2044 7 2044 7 2043 8 C 2040 10 2029 10 2028 8 C 2025 7 2025 7 2023 8 C 2020 10 2019 10 2017 8 C 2016 6 2011 6 2008 8 C 2007 10 1933 10 1932 8 C 1928 6 1863 6 1860 8 C 1857 12 1838 12 1836 8 C 1832 6 1777 6 1774 8 C 1771 10 1747 12 1744 8 C 1741 6 1604 4 1600 8 C 1599 10 1592 10 1590 8 C 1588 6 1536 6 1533 8 C 1532 10 1515 10 1514 8 C 1512 6 1492 6 1490 8 C 1489 10 1410 10 1407 8 C 1406 7 1406 7 1405 8 C 1401 10 1213 10 1212 8 C 1209 7 1209 7 1207 8 C 1204 10 528 10 525 8 C 522 6 510 6 507 8 C 505 9 476 9 256 9 C 34 9 8 10 7 12 C 7 13 4 14 3 15 C 1 19 1 20 4 22 C 10 24 3858 22 3861 20 C 3864 18 3870 18 3872 20 C 3873 22 3892 22 3895 20 C 3896 18 3900 18 3901 20 C 3901 21 3902 21 3903 20 C 3907 18 3908 18 3910 20 C 3913 22 4286 22 4288 20 C 4290 18 4335 18 4336 20 C 4339 22 4358 22 4360 20 C 4362 18 4364 18 4366 20 C 4368 22 4392 22 4393 20 C 4395 18 4402 18 4404 20 C 4406 22 4435 22 4436 20 C 4438 18 4441 18 4443 20 C 4444 21 4444 21 4446 20 C 4449 18 4566 18 4567 20 C 4569 22 4579 22 4580 20 C 4582 18 4618 18 4620 20 C 4622 21 4622 21 4624 20 C 4627 18 4854 18 4855 20 C 4857 21 4857 21 4860 20 C 4862 18 4926 18 4927 20 C 4929 22 4934 22 4935 20 C 4938 19 4952 19 5059 19 C 5166 19 5180 19 5181 20 C 5184 22 5337 22 5338 20 C 5341 18 5364 18 5365 20 C 5366 22 5366 22 5367 20 C 5371 18 5378 18 5379 20 C 5380 22 5404 22 5406 20 C 5408 18 5535 18 5536 20 C 5539 21 5539 21 5540 20 C 5542 19 5730 19 6892 18 C 8096 18 8242 16 8244 15 C 8246 13 8248 13 8250 15 C 8251 18 8337 18 8340 15 C 8341 13 8359 13 8360 15 C 8361 18 8380 18 8383 15 C 8384 13 8460 13 8461 15 C 8462 18 8818 18 8820 15 C 8820 14 8822 13 8826 13 C 8830 12 8832 9 8829 7 C 8828 7 8827 4 8826 3 C 8823 1 8610 1 8323 1 z" fill="black"/><!-- width=8838 height=30 -->
<path id="gl22277" d="M 8606 3 C 8605 4 8499 6 7794 6 C 7097 7 6985 7 6982 8 C 6980 10 6964 10 6963 8 C 6961 6 6946 6 6944 8 C 6942 10 6939 10 6938 8 C 6936 6 6588 6 6585 8 C 6581 10 6570 10 6568 8 C 6567 6 6427 6 6426 8 C 6424 10 6388 10 6385 8 C 6384 6 6380 6 6378 8 C 6376 9 6182 9 5056 10 C 3904 12 3737 12 3736 13 C 3732 15 3645 15 3642 13 C 3641 10 3622 10 3621 13 C 3618 15 3611 15 3610 13 C 3607 10 3603 10 3600 13 C 3599 15 3587 15 3586 13 C 3583 10 3554 10 3552 13 C 3551 15 3548 15 3546 13 C 3545 12 3545 12 3544 13 C 3540 15 3524 15 3522 13 C 3521 10 3492 10 3490 13 C 3488 15 3486 15 3485 13 C 3482 10 3349 10 3345 13 C 3344 15 3327 15 3325 13 C 3324 10 3314 10 3313 13 C 3311 15 3299 15 3297 13 C 3295 10 3266 10 3265 13 C 3263 15 3251 15 3249 13 C 3247 10 3237 10 3236 13 C 3234 15 3145 15 3143 13 C 3141 10 2752 10 2750 13 C 2749 15 2439 15 2438 13 C 2435 10 2430 10 2429 13 C 2427 15 2261 15 2259 13 C 2257 10 2253 10 2250 13 C 2249 15 2242 15 2241 13 C 2238 10 2233 10 2232 13 C 2230 15 2199 15 2197 13 C 2195 10 2187 10 2184 13 C 2182 14 2053 15 1092 15 C 368 15 3 15 3 16 C 1 19 0 24 2 26 C 4 27 25 27 211 27 C 395 27 419 28 421 30 C 422 32 441 32 443 30 C 445 27 515 27 517 30 C 518 31 518 31 520 30 C 523 27 548 27 550 30 C 552 32 571 32 574 30 C 575 27 592 27 594 30 C 595 32 600 32 602 30 C 604 27 635 27 637 30 C 638 32 643 32 646 30 C 647 27 692 27 694 30 C 696 31 696 31 698 30 C 701 27 779 27 781 30 C 783 32 807 32 808 30 C 810 27 827 27 829 30 C 831 32 844 32 847 30 C 850 26 888 27 891 30 C 894 32 970 32 971 30 C 974 27 1067 27 1070 30 C 1071 32 1094 32 1097 30 C 1098 28 1347 28 2787 27 C 4293 27 4477 26 4478 25 C 4482 22 4492 22 4495 25 C 4496 27 4587 27 4589 25 C 4591 22 4598 22 4599 25 C 4602 27 4631 27 4633 25 C 4634 22 4646 22 4647 25 C 4650 27 4871 27 4873 25 C 4874 22 4886 22 4888 25 C 4890 27 4975 27 4978 25 C 4980 22 5016 22 5018 25 C 5020 27 5053 27 5056 25 C 5057 22 5111 22 5115 25 C 5116 27 5345 27 5348 25 C 5350 22 5357 22 5360 25 C 5361 27 5428 27 5429 25 C 5432 22 5434 22 5435 25 C 5438 27 5442 27 5445 25 C 5446 22 5463 22 5464 25 C 5466 27 5471 27 5472 25 C 5475 22 5593 22 5595 25 C 5596 27 5601 27 5602 25 C 5603 24 6334 22 7627 22 C 8016 21 8065 21 8067 20 C 8069 18 8086 18 8088 20 C 8089 22 8119 21 8119 19 C 8121 18 8134 18 8136 20 C 8137 22 8168 22 8168 20 C 8169 19 8236 19 8499 19 C 8712 19 8832 18 8834 18 C 8836 16 8838 15 8838 12 C 8838 6 8835 6 8800 6 C 8775 6 8770 4 8768 3 C 8767 1 8757 1 8755 3 C 8754 6 8698 6 8696 3 C 8695 2 8695 2 8694 3 C 8690 6 8626 6 8624 3 C 8623 1 8608 1 8606 3 z" fill="black"/><!-- width=8844 height=38 -->
<path id="gl22528" d="M 7760 3 C 7759 4 7577 4 6487 6 C 5404 7 5217 7 5214 8 C 5212 10 5206 10 5205 8 C 5202 6 5082 6 5080 8 C 5079 10 4918 10 4916 8 C 4914 6 4904 6 4903 8 C 4901 10 4884 10 4882 8 C 4880 6 4876 6 4873 8 C 4872 10 4778 10 4777 8 C 4775 6 4727 6 4724 8 C 4723 10 4625 10 4622 8 C 4622 7 4620 7 4619 7 C 4617 7 4615 7 4615 8 C 4613 10 4482 10 4478 8 C 4477 6 4467 6 4465 8 C 4462 10 4452 10 4449 8 C 4448 6 4443 6 4441 8 C 4440 10 4298 10 4297 8 C 4294 6 4286 6 4283 8 C 4281 9 4120 9 3118 10 C 1957 10 1955 10 1952 14 C 1949 16 1945 16 1943 14 C 1940 10 1939 10 1621 10 C 1337 10 1301 12 1300 13 C 1297 15 1065 15 1062 13 C 1061 10 1024 10 1022 13 C 1018 15 903 15 899 13 C 897 10 850 10 849 13 C 846 15 839 15 838 13 C 835 10 826 10 825 13 C 822 15 791 15 790 13 C 787 10 774 10 771 13 C 768 15 725 16 723 13 C 719 10 706 10 704 13 C 702 15 685 15 683 13 C 682 10 672 10 670 13 C 668 15 656 15 654 13 C 653 10 638 10 637 13 C 635 15 623 15 622 13 C 619 10 590 10 589 13 C 587 15 546 15 544 13 C 541 10 500 10 497 13 C 494 16 456 15 453 13 C 450 10 427 10 426 13 C 423 15 363 15 362 13 C 360 10 345 10 343 13 C 342 15 330 15 327 13 C 326 10 303 10 301 13 C 299 14 281 14 152 14 C 37 14 4 15 3 16 C 1 19 0 24 2 26 C 4 28 2064 27 2066 25 C 2070 22 2076 22 2077 25 C 2080 27 2421 27 2422 25 C 2424 22 2436 22 2438 25 C 2440 27 2512 27 2514 25 C 2516 22 2523 22 2525 25 C 2526 27 2546 27 2547 25 C 2549 22 2566 22 2568 25 C 2570 27 2598 27 2601 25 C 2602 22 2614 22 2616 25 C 2618 27 2627 27 2630 25 C 2631 22 2729 22 2732 25 C 2733 27 2968 27 2970 25 C 2972 22 2989 22 2990 25 C 2992 27 3026 27 3028 25 C 3030 22 3046 22 3049 25 C 3050 27 3093 27 3094 25 C 3097 22 3128 22 3129 25 C 3132 27 3175 27 3177 25 C 3179 22 3311 22 3313 25 C 3314 27 3318 27 3320 25 C 3323 24 3504 24 4579 22 C 5717 22 5836 22 5838 20 C 5841 18 5847 18 5848 20 C 5852 22 6017 22 6020 20 C 6023 18 6025 18 6027 20 C 6029 21 6044 22 6161 22 C 6277 22 6294 21 6294 20 C 6295 18 6313 18 6316 20 C 6317 21 6317 21 6319 20 C 6322 18 6356 18 6359 20 C 6360 22 6695 22 6697 20 C 6700 18 6729 18 6732 20 C 6735 21 6736 21 6736 20 C 6737 18 6755 18 6756 20 C 6759 22 6778 22 6779 20 C 6780 18 6798 18 6800 20 C 6802 22 6806 22 6808 20 C 6810 19 6962 19 7822 18 C 8597 18 8834 16 8835 15 C 8838 14 8838 9 8834 4 C 8833 3 8832 2 8830 2 C 8749 2 8666 2 8584 2 C 8368 2 8339 2 8338 3 C 8336 6 8280 6 8279 3 C 8278 2 8274 2 8267 2 C 8260 2 8256 2 8255 3 C 8254 6 8228 6 8225 3 C 8223 1 8195 1 8194 3 C 8192 6 8097 6 8095 3 C 8094 1 8075 1 8074 3 C 8071 6 8040 6 8039 3 C 8037 1 8017 1 8015 3 C 8014 6 8007 6 8004 3 C 8003 1 7979 1 7978 3 C 7975 6 7959 6 7956 3 C 7955 1 7941 1 7938 3 C 7937 6 7901 6 7900 3 C 7897 2 7897 2 7895 3 C 7892 6 7877 6 7876 3 C 7873 1 7859 1 7858 3 C 7855 6 7768 6 7764 3 C 7763 2 7763 2 7760 3 z" fill="black"/><!-- width=8844 height=33 -->
<path id="gl22529" d="M 8541 1 C 8379 1 8378 1 8375 4 C 8373 7 8368 7 8366 4 C 8362 1 8153 0 8151 3 C 8148 6 8122 6 8119 3 C 8117 1 8051 1 8050 3 C 8047 6 8035 6 8033 3 C 8031 1 7993 1 7991 3 C 7990 6 7953 6 7951 3 C 7951 2 7941 1 7868 1 C 7798 1 7787 2 7786 3 C 7783 6 7775 6 7774 3 C 7772 1 7763 1 7762 3 C 7759 6 7747 6 7745 3 C 7744 1 7739 1 7738 3 C 7735 6 7708 6 7706 3 C 7705 1 7638 1 7635 3 C 7634 6 7544 6 7543 3 C 7542 1 7513 1 7511 3 C 7509 6 7501 6 7500 3 C 7499 1 7460 1 7459 3 C 7457 6 7410 6 7408 3 C 7407 1 7393 1 7390 3 C 7389 6 7320 6 7318 3 C 7316 1 7308 1 7304 3 C 7303 4 7150 4 6203 6 C 5257 7 5103 7 5100 8 C 5097 10 5095 10 5093 8 C 5092 7 5087 7 5065 7 C 5043 7 5039 7 5036 8 C 5035 10 5028 10 5026 8 C 5024 6 4957 6 4956 8 C 4954 10 4937 10 4936 8 C 4933 6 4904 6 4903 8 C 4901 10 4874 10 4873 8 C 4871 6 4861 6 4860 8 C 4858 10 4850 10 4849 8 C 4847 6 4775 6 4772 8 C 4771 10 4769 10 4766 8 C 4764 6 4741 6 4740 8 C 4737 10 4735 10 4733 8 C 4729 6 4683 6 4681 8 C 4680 10 4634 10 4633 8 C 4631 6 4626 6 4623 8 C 4622 10 4605 10 4604 8 C 4602 7 4602 7 4599 8 C 4597 10 4591 10 4589 8 C 4587 6 4577 6 4575 8 C 4574 10 4345 10 4344 8 C 4342 6 4328 6 4327 8 C 4324 10 4316 10 4315 8 C 4313 6 4285 6 4283 8 C 4281 10 4268 10 4267 8 C 4265 6 4256 6 4253 8 C 4252 10 4143 10 4142 8 C 4141 6 4131 6 4129 8 C 4127 10 4096 10 4094 8 C 4093 7 4093 7 4091 8 C 4089 9 3975 9 3033 10 C 2005 12 1979 12 1976 14 C 1973 18 1937 16 1933 14 C 1930 9 1893 9 1890 14 C 1887 16 1883 16 1880 14 C 1877 10 1456 9 1453 13 C 1452 15 1444 15 1442 13 C 1441 12 1441 12 1438 13 C 1436 15 1406 15 1403 13 C 1402 10 1373 10 1372 13 C 1370 15 1358 15 1355 13 C 1354 10 1336 10 1334 13 C 1330 15 898 15 894 13 C 892 10 875 10 873 13 C 869 15 672 15 670 13 C 668 10 648 10 646 13 C 644 15 498 15 496 13 C 494 10 485 10 482 13 C 481 15 450 15 447 13 C 446 12 446 12 445 13 C 441 15 291 15 290 13 C 288 12 288 12 285 13 C 284 14 269 14 146 14 C 58 14 7 15 4 16 C 0 18 0 25 4 27 C 9 28 2488 27 2490 25 C 2493 22 2494 22 2496 25 C 2498 27 2536 27 2537 25 C 2540 22 2547 22 2548 25 C 2550 27 2584 27 2586 25 C 2588 22 2595 22 2597 25 C 2598 27 2627 27 2630 25 C 2631 22 2633 22 2636 25 C 2637 27 2647 27 2648 25 C 2649 24 2650 24 2654 24 C 2656 24 2659 24 2660 25 C 2661 27 2671 27 2673 25 C 2674 22 2686 22 2689 25 C 2690 27 2935 27 2936 25 C 2937 22 2950 22 2953 25 C 2954 27 3060 27 3061 25 C 3062 22 3094 22 3097 25 C 3098 26 3098 26 3100 25 C 3103 22 3138 22 3140 25 C 3141 27 3164 27 3167 25 C 3169 24 4341 22 5655 22 C 5797 22 5817 21 5818 20 C 5821 18 5838 18 5840 20 C 5841 22 5864 22 5866 20 C 5869 18 5900 18 5902 20 C 5904 22 5941 22 5943 20 C 5946 18 5967 18 5968 20 C 5971 22 5979 22 5982 20 C 5984 18 5986 18 5988 20 C 5990 22 6013 22 6015 20 C 6018 18 6039 18 6041 20 C 6043 22 6051 22 6054 20 C 6056 18 6068 18 6071 20 C 6072 22 6133 22 6135 20 C 6138 18 6155 18 6156 20 C 6158 22 6182 22 6185 20 C 6186 18 6193 18 6195 20 C 6197 22 6240 22 6241 20 C 6244 18 6361 18 6364 20 C 6365 22 6384 22 6385 20 C 6386 18 6395 18 6396 20 C 6398 22 6546 22 6549 20 C 6551 18 6573 18 6575 20 C 6576 22 6623 22 6625 20 C 6628 18 6630 18 6631 20 C 6634 22 6652 22 6654 20 C 6655 19 6764 19 7507 18 C 8308 18 8358 18 8360 15 C 8362 12 8378 12 8380 15 C 8384 18 8387 18 8388 15 C 8391 13 8397 13 8401 15 C 8402 16 8403 16 8403 15 C 8404 13 8408 13 8410 15 C 8411 18 8420 18 8422 15 C 8425 13 8427 13 8429 15 C 8431 18 8444 18 8446 15 C 8449 13 8451 13 8453 15 C 8455 18 8469 18 8471 15 C 8473 13 8485 13 8486 15 C 8488 16 8509 18 8659 18 C 8715 18 8772 18 8829 18 C 8830 16 8832 15 8833 14 C 8838 10 8839 6 8835 3 C 8833 1 8797 1 8541 1 z" fill="black"/><!-- width=8844 height=33 -->
<path id="gl22530" d="M 8231 1 C 8149 1 8137 2 8135 3 C 8134 6 8131 6 8130 3 C 8127 1 7931 1 7930 3 C 7929 4 7927 4 7926 4 C 7925 4 7924 4 7924 3 C 7921 1 7831 1 7828 3 C 7826 6 7819 6 7817 3 C 7816 2 7816 2 7814 3 C 7811 6 7776 6 7775 3 C 7772 1 7734 1 7732 3 C 7730 6 7704 6 7703 3 C 7700 1 7686 1 7684 3 C 7682 6 7651 6 7649 3 C 7647 2 7647 2 7646 3 C 7643 6 7608 6 7607 3 C 7604 1 7595 1 7593 3 C 7591 6 7584 6 7583 3 C 7580 1 7547 1 7545 3 C 7543 6 7526 6 7524 3 C 7523 1 7508 1 7507 3 C 7505 6 7430 6 7428 3 C 7426 1 7364 1 7363 3 C 7360 6 7315 6 7312 3 C 7311 1 7306 1 7304 3 C 7304 4 7299 4 7282 4 C 7266 4 7262 4 7260 3 C 7258 1 7234 1 7232 3 C 7231 6 7180 6 7179 3 C 7177 2 7177 2 7175 3 C 7173 4 7019 4 6081 6 C 5137 7 4991 7 4988 8 C 4986 10 4985 10 4984 8 C 4981 6 4943 6 4940 8 C 4939 10 4918 10 4916 8 C 4914 6 4779 6 4777 8 C 4776 10 4740 10 4737 8 C 4736 6 4693 6 4692 8 C 4689 10 4682 10 4681 8 C 4679 6 4544 6 4543 8 C 4539 10 4437 10 4436 8 C 4434 6 4387 6 4383 8 C 4381 10 4366 10 4364 8 C 4360 6 4078 6 4076 8 C 4074 10 4053 10 4050 8 C 4049 6 4044 6 4043 8 C 4041 10 3971 10 3969 8 C 3968 6 3954 6 3952 8 C 3950 9 3683 9 2009 10 C 287 10 67 12 66 13 C 62 15 38 15 36 13 C 33 10 14 10 12 13 C 10 14 9 14 8 14 C 2 14 0 19 4 22 C 6 22 63 24 190 24 C 356 22 375 24 377 25 C 380 27 426 27 429 25 C 432 22 465 22 469 25 C 471 27 480 27 482 25 C 484 22 510 22 512 25 C 514 27 517 27 521 25 C 523 21 542 21 545 25 C 548 27 560 27 564 25 C 568 21 608 21 612 25 C 616 27 623 27 626 25 C 630 21 786 21 790 25 C 793 27 801 27 804 25 C 808 21 829 21 833 25 C 837 27 850 27 851 25 C 853 22 856 22 857 25 C 861 28 903 27 905 24 C 909 21 924 21 929 24 C 931 26 931 26 934 25 C 935 22 942 22 945 25 C 946 27 975 27 977 25 C 978 22 990 22 993 25 C 994 27 1008 27 1011 25 C 1012 22 1053 22 1054 25 C 1056 27 1086 27 1088 25 C 1089 24 1363 24 3078 22 C 4897 22 5068 22 5069 20 C 5073 18 5074 18 5076 20 C 5077 22 5116 22 5117 20 C 5119 18 5122 18 5124 20 C 5125 22 5524 22 5525 20 C 5528 18 5530 18 5531 20 C 5534 22 5635 22 5637 20 C 5638 18 5645 18 5648 20 C 5649 22 5659 22 5661 20 C 5662 18 5669 18 5672 20 C 5673 22 5731 22 5732 20 C 5734 18 5737 18 5739 20 C 5740 22 5750 22 5752 20 C 5753 18 5785 18 5787 20 C 5788 21 5788 21 5790 20 C 5793 18 5799 18 5800 20 C 5803 22 5808 22 5809 20 C 5811 18 5852 18 5854 20 C 5856 22 5865 22 5868 20 C 5869 18 5886 18 5887 20 C 5889 22 5966 22 5968 20 C 5970 18 5986 18 5988 20 C 5990 22 6005 22 6007 20 C 6008 18 6015 18 6017 20 C 6019 21 6019 21 6020 20 C 6024 18 6035 18 6036 20 C 6038 22 6091 22 6092 20 C 6095 18 6102 18 6103 20 C 6105 21 6105 21 6108 20 C 6110 18 6361 18 6364 20 C 6365 22 6370 22 6372 20 C 6373 18 6422 18 6426 20 C 6427 22 6509 22 6511 20 C 6513 18 6577 18 6579 20 C 6581 22 6586 22 6588 20 C 6589 18 6630 18 6631 20 C 6634 22 6637 22 6640 20 C 6642 19 6738 19 7435 18 C 8115 16 8229 16 8231 15 C 8234 13 8240 13 8242 15 C 8243 16 8250 18 8296 18 C 8342 18 8349 16 8351 15 C 8351 14 8356 14 8370 14 C 8385 14 8388 14 8390 15 C 8392 18 8411 18 8413 15 C 8415 13 8422 13 8423 15 C 8426 16 8426 16 8427 15 C 8431 13 8470 13 8471 15 C 8474 18 8493 18 8495 15 C 8497 13 8504 13 8506 15 C 8509 19 8746 18 8750 15 C 8752 12 8770 12 8774 15 C 8778 18 8786 18 8787 15 C 8790 13 8797 13 8798 15 C 8800 16 8800 16 8803 15 C 8805 13 8811 13 8814 15 C 8816 19 8828 18 8833 14 C 8838 10 8839 6 8835 3 C 8833 1 8491 0 8231 1 z" fill="black"/><!-- width=8844 height=33 -->
<path id="gl22531" d="M 7741 3 C 7740 4 7559 4 6431 6 C 5310 7 5121 7 5118 8 C 5116 10 5110 10 5107 8 C 5106 6 5095 6 5094 8 C 5093 10 5014 10 5012 8 C 5010 6 4938 6 4936 8 C 4934 10 4884 10 4882 8 C 4880 6 4876 6 4873 8 C 4872 10 4860 10 4858 8 C 4856 6 4837 6 4836 8 C 4834 10 4826 10 4825 8 C 4823 6 4813 6 4812 8 C 4808 10 4759 10 4758 8 C 4755 6 4722 6 4721 8 C 4718 10 4653 10 4651 8 C 4650 6 4640 6 4639 8 C 4637 10 4629 10 4628 8 C 4626 6 4607 6 4604 8 C 4603 10 4577 10 4575 8 C 4573 6 4568 6 4567 8 C 4565 10 4476 10 4473 8 C 4472 7 4472 7 4471 8 C 4467 10 4404 10 4401 8 C 4400 6 4395 6 4393 8 C 4392 10 4341 10 4339 8 C 4338 6 4237 6 4234 8 C 4233 10 4221 10 4219 8 C 4217 6 4208 6 4207 8 C 4204 10 4163 10 4161 8 C 4160 6 4127 6 4125 8 C 4123 9 3918 9 2696 10 C 1437 10 1268 12 1267 13 C 1263 15 1233 15 1232 13 C 1229 10 1215 10 1213 13 C 1211 15 1132 15 1130 13 C 1128 10 1109 10 1108 13 C 1106 15 1055 15 1054 13 C 1052 12 1052 12 1049 13 C 1047 15 1046 15 1043 13 C 1042 10 1028 10 1025 13 C 1024 15 1022 15 1019 13 C 1018 10 975 10 974 13 C 971 15 969 15 966 13 C 966 12 945 10 792 10 C 735 10 677 10 619 10 C 618 12 618 13 617 14 C 613 16 605 16 601 13 C 600 10 471 10 468 13 C 464 16 438 16 434 14 C 434 13 433 12 432 10 C 401 10 369 10 338 10 C 257 10 245 12 243 13 C 241 15 238 15 237 13 C 235 10 206 10 204 13 C 202 15 114 15 111 13 C 110 10 100 10 98 13 C 97 14 91 14 52 14 C 0 14 -1 15 4 24 C 7 25 7 26 9 27 C 37 27 66 27 93 27 C 168 27 178 26 180 25 C 182 22 187 22 190 25 C 193 27 315 27 319 25 C 321 22 323 22 324 25 C 327 28 427 27 429 24 C 432 21 437 21 439 24 C 441 27 443 27 802 27 C 1121 27 1162 26 1164 25 C 1166 22 1240 22 1243 25 C 1244 27 1287 27 1288 25 C 1291 22 1418 22 1419 25 C 1421 27 1431 27 1433 25 C 1435 22 1485 22 1486 25 C 1489 27 1513 27 1514 25 C 1516 22 1533 22 1536 25 C 1537 27 1546 27 1549 25 C 1550 22 1552 22 1554 25 C 1556 27 1612 27 1616 25 C 1617 22 1634 22 1636 25 C 1638 27 1670 27 1672 25 C 1676 22 1710 21 1712 25 C 1713 27 1718 27 1722 25 C 1725 21 1782 22 1785 25 C 1788 27 1806 27 1807 25 C 1809 22 1826 22 1827 25 C 1830 27 1835 27 1836 25 C 1838 22 1845 22 1847 25 C 1849 27 1853 27 1855 25 C 1859 22 2094 22 2096 25 C 2100 27 2113 27 2116 25 C 2117 22 2129 22 2131 25 C 2132 27 2142 27 2144 25 C 2146 22 2187 22 2188 25 C 2190 27 2200 27 2201 25 C 2203 22 2268 22 2271 25 C 2272 27 2325 27 2327 25 C 2328 22 2345 22 2346 25 C 2349 26 2349 26 2351 25 C 2353 22 2787 22 2789 25 C 2791 27 2824 27 2827 25 C 2828 22 2830 22 2833 25 C 2834 27 2847 27 2849 25 C 2852 24 4137 22 5677 22 C 5971 22 6009 21 6012 20 C 6013 18 6025 18 6027 20 C 6029 22 6038 22 6039 20 C 6042 18 6044 18 6047 20 C 6048 22 6173 22 6175 20 C 6176 18 6236 18 6237 20 C 6240 22 6250 22 6251 20 C 6253 18 6376 18 6377 20 C 6379 22 6389 22 6390 20 C 6392 18 6414 18 6415 20 C 6418 22 6427 22 6428 20 C 6431 18 6433 18 6436 20 C 6437 22 6557 22 6558 20 C 6559 19 6559 19 6562 19 C 6563 19 6564 19 6565 20 C 6567 22 6658 22 6659 20 C 6661 18 6741 18 6742 20 C 6744 22 6768 22 6770 20 C 6771 19 6898 19 7661 18 C 7957 18 8254 18 8549 18 C 8551 16 8552 15 8553 15 C 8557 12 8558 12 8563 14 C 8565 16 8569 16 8701 18 C 8745 18 8790 18 8834 18 C 8836 16 8838 15 8838 14 C 8842 9 8842 9 8839 4 C 8838 3 8836 2 8835 1 C 8749 1 8664 1 8577 1 C 8350 1 8320 2 8319 3 C 8316 6 8294 6 8292 3 C 8291 1 8262 1 8260 3 C 8259 4 8240 4 8095 4 C 7953 4 7933 4 7932 3 C 7931 1 7912 1 7910 3 C 7908 6 7885 6 7884 3 C 7884 1 7883 1 7882 3 C 7878 6 7763 7 7760 3 C 7757 1 7744 1 7741 3 z" fill="black"/><!-- width=8848 height=33 -->
</defs>
<use xlink:href="#gl6429" x="12" y="162"/>
<use xlink:href="#gl21516" x="134" y="207"/>
<use xlink:href="#gl21517" x="240" y="207"/>
<use xlink:href="#gl6431" x="354" y="205"/>
<use xlink:href="#gl8479" x="459" y="202"/>
<use xlink:href="#gl9493" x="575" y="203"/>
<use xlink:href="#gl8467" x="682" y="201"/>
<use xlink:href="#gl6434" x="779" y="204"/>
<use xlink:href="#gl6658" x="945" y="201"/>
<use xlink:href="#gl8468" x="1049" y="164"/>
<use xlink:href="#gl8463" x="1163" y="164"/>
<use xlink:href="#gl9493" x="1294" y="202"/>
<use xlink:href="#gl8478" x="1396" y="205"/>
<use xlink:href="#gl6433" x="1503" y="163"/>
<use xlink:href="#gl6428" x="1560" y="202"/>
<use xlink:href="#gl9996" x="1662" y="167"/>
<use xlink:href="#gl8480" x="1723" y="203"/>
<use xlink:href="#gl6426" x="1883" y="159"/>
<use xlink:href="#gl6658" x="2004" y="200"/>
<use xlink:href="#gl9735" x="2117" y="201"/>
<use xlink:href="#gl21518" x="2285" y="203"/>
<use xlink:href="#gl6658" x="2393" y="200"/>
<use xlink:href="#gl9497" x="2506" y="203"/>
<use xlink:href="#gl6434" x="2611" y="202"/>
<use xlink:href="#gl9493" x="2723" y="201"/>
<use xlink:href="#gl6430" x="2823" y="169"/>
<use xlink:href="#gl6167" x="2888" y="199"/>
<use xlink:href="#gl8468" x="3039" y="162"/>
<use xlink:href="#gl6658" x="3105" y="199"/>
<use xlink:href="#gl8469" x="3217" y="201"/>
<use xlink:href="#gl9728" x="3341" y="201"/>
<use xlink:href="#gl10013" x="3508" y="162"/>
<use xlink:href="#gl6434" x="3638" y="201"/>
<use xlink:href="#gl21519" x="3749" y="202"/>
<use xlink:href="#gl6434" x="3844" y="201"/>
<use xlink:href="#gl21251" x="3955" y="201"/>
<use xlink:href="#gl6430" x="4056" y="168"/>
<use xlink:href="#gl9498" x="4183" y="161"/>
<use xlink:href="#gl18437" x="4291" y="197"/>
<use xlink:href="#gl6433" x="4403" y="159"/>
<use xlink:href="#gl6167" x="4455" y="197"/>
<use xlink:href="#gl8470" x="4555" y="197"/>
<use xlink:href="#gl8483" x="4666" y="160"/>
<use xlink:href="#gl6428" x="4776" y="199"/>
<use xlink:href="#gl6658" x="4939" y="197"/>
<use xlink:href="#gl8468" x="5043" y="160"/>
<use xlink:href="#gl10503" x="5160" y="159"/>
<use xlink:href="#gl6664" x="5287" y="200"/>
<use xlink:href="#gl8478" x="5389" y="201"/>
<use xlink:href="#gl6433" x="5496" y="158"/>
<use xlink:href="#gl6428" x="5553" y="198"/>
<use xlink:href="#gl9737" x="5655" y="168"/>
<use xlink:href="#gl13571" x="5716" y="201"/>
<use xlink:href="#gl21520" x="0" y="0"/>
<use xlink:href="#gl21521" x="10" y="461"/>
<use xlink:href="#gl21522" x="6557" y="1066"/>
<use xlink:href="#gl21523" x="1901" y="1071"/>
<use xlink:href="#gl21524" x="14" y="1075"/>
<use xlink:href="#gl21760" x="15" y="1666"/>
<use xlink:href="#gl21761" x="5846" y="2266"/>
<use xlink:href="#gl21762" x="15" y="2271"/>
<use xlink:href="#gl21763" x="15" y="2876"/>
<use xlink:href="#gl21764" x="16" y="3480"/>
<use xlink:href="#gl22016" x="15" y="4076"/>
<use xlink:href="#gl22017" x="15" y="4675"/>
<use xlink:href="#gl22018" x="15" y="5276"/>
<use xlink:href="#gl22019" x="77" y="5871"/>
<use xlink:href="#gl4388" x="23" y="5883"/>
<use xlink:href="#gl22020" x="20" y="6476"/>
<use xlink:href="#gl22272" x="20" y="7076"/>
<use xlink:href="#gl22273" x="5333" y="7680"/>
<use xlink:href="#gl22274" x="19" y="7685"/>
<use xlink:href="#gl22275" x="25" y="8280"/>
<use xlink:href="#gl22276" x="19" y="8880"/>
<use xlink:href="#gl22277" x="25" y="9476"/>
<use xlink:href="#gl22528" x="25" y="10076"/>
<use xlink:href="#gl22529" x="25" y="10676"/>
<use xlink:href="#gl22530" x="25" y="11280"/>
<use xlink:href="#gl22531" x="25" y="11876"/>
</svg>