<svg xmlns="http://www.w3.org/2000/svg" xmlns:xlink="http://www.w3.org/1999/xlink" width="619px" height="55px" viewBox="0 0 6198 553" version="1.1">
<defs>
<path id="gl1540" d="M 8 7 C 4 8 5 10 11 15 C 20 20 20 17 18 54 C 18 89 18 88 10 93 C 4 95 3 98 7 100 C 8 101 16 101 28 101 C 41 101 50 101 50 100 C 54 98 51 95 47 94 C 37 89 37 89 37 54 C 37 20 37 18 44 15 C 50 11 51 9 50 7 C 48 5 11 4 8 7 z" fill="black"/><!-- width=62 height=112 -->
<path id="gl516" d="M 15 7 C 2 11 5 31 18 31 C 30 31 35 18 27 10 C 24 9 23 7 22 7 C 22 7 20 6 19 6 C 19 6 17 6 15 7 z" fill="black"/><!-- width=44 height=43 -->
<path id="gl1797" d="M 12 7 C 7 10 3 31 6 35 C 8 39 9 38 16 31 C 25 21 29 20 44 20 C 66 19 64 13 64 81 C 64 148 65 142 48 151 C 44 152 43 154 45 157 C 48 160 99 160 101 157 C 103 153 102 152 96 148 C 84 143 85 147 85 82 C 85 62 85 43 85 24 C 87 24 88 22 89 21 C 91 19 93 19 106 20 C 124 20 125 21 134 33 C 137 39 141 39 143 36 C 145 33 146 27 146 20 C 147 7 146 4 139 6 C 136 6 131 7 129 7 C 125 8 102 8 76 8 C 32 8 29 8 22 6 C 14 3 15 3 12 7 z" fill="black"/><!-- width=157 height=169 -->
<path id="gl8" d="M 20 8 C 9 12 8 16 13 25 C 14 26 15 29 15 30 C 15 49 15 67 15 87 C 15 148 16 148 9 154 C 6 158 4 159 6 160 C 8 163 41 164 43 162 C 45 160 45 157 41 153 C 38 152 36 148 36 147 C 35 142 35 95 36 93 C 41 84 55 82 64 87 C 75 91 76 95 75 124 C 75 131 75 140 75 148 C 73 150 71 151 70 153 C 64 158 64 158 65 162 C 67 165 104 164 106 160 C 107 158 107 158 104 156 C 94 148 93 145 94 118 C 95 99 94 89 89 82 C 81 71 66 67 52 73 C 36 81 33 78 35 61 C 36 44 36 9 35 7 C 32 4 27 4 20 8 z" fill="black"/><!-- width=117 height=174 -->
<path id="gl5" d="M 38 7 C 19 13 8 30 8 56 C 8 80 20 96 42 99 C 55 101 71 96 78 89 C 85 79 80 76 69 82 C 49 91 24 76 24 51 C 24 40 24 40 53 40 C 61 40 69 40 78 40 C 78 39 79 38 80 36 C 84 33 84 28 80 22 C 74 8 56 2 38 7 M 57 15 C 65 20 65 28 57 30 C 52 33 35 33 33 30 C 30 28 30 25 34 22 C 40 14 50 12 57 15 z" fill="black"/><!-- width=94 height=112 -->
<path id="gl4890" d="M 37 6 C 11 8 0 38 17 60 C 21 66 21 70 14 76 C 7 85 7 88 16 97 C 21 103 19 106 13 114 C -9 142 30 166 70 148 C 87 140 96 128 96 113 C 96 93 85 87 54 88 C 34 90 29 88 28 82 C 24 75 30 70 46 69 C 67 67 76 60 80 38 C 82 27 82 25 88 24 C 102 19 97 11 81 11 C 77 11 70 11 65 8 C 54 4 45 4 37 6 M 54 17 C 64 24 65 46 55 56 C 43 69 25 55 28 34 C 29 18 43 9 54 17 M 71 106 C 80 110 82 119 79 128 C 71 143 40 148 28 135 C 21 128 22 113 30 107 C 37 103 63 102 71 106 z" fill="black"/><!-- width=107 height=165 -->
<path id="gl0" d="M 42 6 C 27 8 16 17 10 31 C 5 42 6 67 11 77 C 30 111 83 106 95 68 C 106 31 78 -1 42 6 M 61 18 C 81 28 82 73 63 86 C 45 99 23 78 26 47 C 27 22 42 8 61 18 z" fill="black"/><!-- width=111 height=111 -->
<path id="gl7" d="M 37 6 C 18 9 1 26 4 33 C 8 41 19 36 24 26 C 26 19 31 16 36 16 C 47 16 50 22 50 36 C 50 47 48 49 33 54 C 9 60 2 68 4 83 C 7 98 23 104 39 95 C 42 94 46 92 48 90 C 50 92 54 94 57 95 C 65 100 72 101 78 96 C 87 93 87 88 78 87 C 68 85 65 79 68 54 C 69 23 68 13 58 8 C 52 4 43 3 37 6 M 48 62 C 57 70 48 88 34 88 C 17 88 18 68 37 62 C 44 58 44 58 48 62 z" fill="black"/><!-- width=94 height=110 -->
<path id="gl260" d="M 15 7 C 7 11 6 14 11 22 C 11 23 12 25 13 27 C 13 45 13 63 13 82 C 14 147 14 147 8 153 C 1 160 3 163 23 163 C 41 163 44 160 36 152 C 35 151 33 149 31 147 C 31 124 31 100 31 77 C 31 2 31 3 25 3 C 24 3 19 6 15 7 z" fill="black"/><!-- width=51 height=172 -->
<path id="gl0" d="M 42 6 C 27 8 16 17 10 31 C 5 42 6 67 11 77 C 30 111 83 106 95 68 C 106 31 78 -1 42 6 M 61 18 C 81 28 82 73 63 86 C 45 99 23 78 26 47 C 27 22 42 8 61 18 z" fill="black"/><!-- width=111 height=111 -->
<path id="gl769" d="M 48 6 C 28 14 18 29 15 61 C 14 70 13 73 11 78 C 8 81 7 83 8 84 C 15 94 15 91 14 121 C 14 130 14 139 14 147 C 13 150 12 151 11 154 C 3 162 4 163 24 163 C 44 165 50 162 41 156 C 33 152 33 149 33 118 C 33 85 31 86 47 86 C 57 86 62 85 61 79 C 59 77 55 74 46 75 C 33 77 30 73 33 51 C 36 18 46 9 66 22 C 74 28 77 28 80 24 C 92 12 69 0 48 6 z" fill="black"/><!-- width=94 height=174 -->
<path id="gl4" d="M 16 9 C 8 13 7 16 12 24 C 13 28 14 32 14 54 C 14 80 13 86 8 87 C 6 90 3 94 4 95 C 7 99 44 99 45 95 C 47 92 44 90 40 90 C 39 90 37 87 35 86 C 34 85 33 84 32 84 C 32 74 32 65 32 56 C 32 29 32 29 34 26 C 38 22 43 22 49 24 C 59 28 66 24 66 17 C 66 4 55 2 44 11 C 37 16 34 14 32 9 C 29 4 26 3 16 9 z" fill="black"/><!-- width=76 height=108 -->
<path id="gl522" d="M 36 8 C 14 14 2 38 7 66 C 9 90 22 101 47 101 C 66 101 85 89 78 79 C 77 77 77 77 72 79 C 61 85 59 87 53 87 C 36 87 21 70 21 53 C 21 42 20 42 49 42 C 58 42 66 43 74 43 C 76 42 77 41 78 39 C 85 32 78 18 65 10 C 58 7 45 6 36 8 M 54 18 C 60 20 62 27 58 31 C 55 35 32 36 29 32 C 26 30 26 27 31 22 C 38 16 47 14 54 18 z" fill="black"/><!-- width=91 height=113 -->
<path id="gl260" d="M 15 7 C 7 11 6 14 11 22 C 11 23 12 25 13 27 C 13 45 13 63 13 82 C 14 147 14 147 8 153 C 1 160 3 163 23 163 C 41 163 44 160 36 152 C 35 151 33 149 31 147 C 31 124 31 100 31 77 C 31 2 31 3 25 3 C 24 3 19 6 15 7 z" fill="black"/><!-- width=51 height=172 -->
<path id="gl7" d="M 37 6 C 18 9 1 26 4 33 C 8 41 19 36 24 26 C 26 19 31 16 36 16 C 47 16 50 22 50 36 C 50 47 48 49 33 54 C 9 60 2 68 4 83 C 7 98 23 104 39 95 C 42 94 46 92 48 90 C 50 92 54 94 57 95 C 65 100 72 101 78 96 C 87 93 87 88 78 87 C 68 85 65 79 68 54 C 69 23 68 13 58 8 C 52 4 43 3 37 6 M 48 62 C 57 70 48 88 34 88 C 17 88 18 68 37 62 C 44 58 44 58 48 62 z" fill="black"/><!-- width=94 height=110 -->
<path id="gl772" d="M 7 7 C 5 10 6 12 12 17 C 18 21 35 42 37 49 C 40 55 25 74 10 85 C 6 89 5 89 6 92 C 8 94 8 95 18 95 C 32 95 34 94 34 85 C 32 75 39 64 45 64 C 49 64 54 69 56 75 C 59 79 59 80 56 85 C 54 94 55 95 73 95 C 93 95 97 93 85 84 C 78 78 59 55 58 49 C 55 41 66 25 79 17 C 93 10 92 6 74 6 C 60 6 60 6 59 16 C 59 31 50 37 42 29 C 39 25 37 21 39 13 C 40 7 37 6 22 6 C 13 6 8 6 7 7 z" fill="black"/><!-- width=102 height=104 -->
<path id="gl7" d="M 37 6 C 18 9 1 26 4 33 C 8 41 19 36 24 26 C 26 19 31 16 36 16 C 47 16 50 22 50 36 C 50 47 48 49 33 54 C 9 60 2 68 4 83 C 7 98 23 104 39 95 C 42 94 46 92 48 90 C 50 92 54 94 57 95 C 65 100 72 101 78 96 C 87 93 87 88 78 87 C 68 85 65 79 68 54 C 69 23 68 13 58 8 C 52 4 43 3 37 6 M 48 62 C 57 70 48 88 34 88 C 17 88 18 68 37 62 C 44 58 44 58 48 62 z" fill="black"/><!-- width=94 height=110 -->
<path id="gl1" d="M 20 11 C 18 13 14 17 11 19 C 4 23 4 25 8 30 C 11 31 12 34 13 35 C 13 36 13 50 13 66 C 13 96 14 103 23 106 C 34 111 54 109 57 103 C 61 98 58 95 49 96 C 33 96 31 94 31 58 C 30 28 30 29 42 29 C 55 30 57 30 60 28 C 62 25 62 24 60 22 C 58 18 58 18 47 18 C 35 17 34 17 31 9 C 29 3 24 3 20 11 z" fill="black"/><!-- width=71 height=121 -->
<path id="gl2" d="M 18 4 C 11 8 9 19 14 25 C 27 37 43 19 32 7 C 28 3 23 3 18 4 M 18 61 C 9 66 8 70 13 79 C 14 82 16 85 14 110 C 14 119 14 128 14 137 C 13 139 12 140 9 142 C 4 148 4 148 7 150 C 8 152 12 152 24 152 C 45 152 48 150 39 140 C 37 139 35 138 34 137 C 34 124 34 112 34 100 C 34 79 33 61 33 60 C 32 58 25 58 18 61 z" fill="black"/><!-- width=54 height=163 -->
<path id="gl0" d="M 42 6 C 27 8 16 17 10 31 C 5 42 6 67 11 77 C 30 111 83 106 95 68 C 106 31 78 -1 42 6 M 61 18 C 81 28 82 73 63 86 C 45 99 23 78 26 47 C 27 22 42 8 61 18 z" fill="black"/><!-- width=111 height=111 -->
<path id="gl3" d="M 20 8 C 10 13 8 16 13 23 C 16 27 16 28 16 50 C 17 79 16 83 10 89 C 2 96 3 98 25 99 C 46 99 49 96 40 88 C 39 86 36 85 35 84 C 35 75 35 66 35 57 C 33 23 36 20 54 20 C 73 20 75 23 75 56 C 74 83 74 85 67 89 C 64 93 64 96 67 98 C 71 99 101 99 104 98 C 105 95 104 91 99 89 C 94 85 94 83 93 52 C 93 25 93 23 90 18 C 81 3 67 2 44 12 C 39 13 39 13 36 10 C 31 5 27 5 20 8 z" fill="black"/><!-- width=115 height=110 -->
<path id="gl1" d="M 20 11 C 18 13 14 17 11 19 C 4 23 4 25 8 30 C 11 31 12 34 13 35 C 13 36 13 50 13 66 C 13 96 14 103 23 106 C 34 111 54 109 57 103 C 61 98 58 95 49 96 C 33 96 31 94 31 58 C 30 28 30 29 42 29 C 55 30 57 30 60 28 C 62 25 62 24 60 22 C 58 18 58 18 47 18 C 35 17 34 17 31 9 C 29 3 24 3 20 11 z" fill="black"/><!-- width=71 height=121 -->
<path id="gl4" d="M 16 9 C 8 13 7 16 12 24 C 13 28 14 32 14 54 C 14 80 13 86 8 87 C 6 90 3 94 4 95 C 7 99 44 99 45 95 C 47 92 44 90 40 90 C 39 90 37 87 35 86 C 34 85 33 84 32 84 C 32 74 32 65 32 56 C 32 29 32 29 34 26 C 38 22 43 22 49 24 C 59 28 66 24 66 17 C 66 4 55 2 44 11 C 37 16 34 14 32 9 C 29 4 26 3 16 9 z" fill="black"/><!-- width=76 height=108 -->
<path id="gl7" d="M 37 6 C 18 9 1 26 4 33 C 8 41 19 36 24 26 C 26 19 31 16 36 16 C 47 16 50 22 50 36 C 50 47 48 49 33 54 C 9 60 2 68 4 83 C 7 98 23 104 39 95 C 42 94 46 92 48 90 C 50 92 54 94 57 95 C 65 100 72 101 78 96 C 87 93 87 88 78 87 C 68 85 65 79 68 54 C 69 23 68 13 58 8 C 52 4 43 3 37 6 M 48 62 C 57 70 48 88 34 88 C 17 88 18 68 37 62 C 44 58 44 58 48 62 z" fill="black"/><!-- width=94 height=110 -->
<path id="gl2" d="M 18 4 C 11 8 9 19 14 25 C 27 37 43 19 32 7 C 28 3 23 3 18 4 M 18 61 C 9 66 8 70 13 79 C 14 82 16 85 14 110 C 14 119 14 128 14 137 C 13 139 12 140 9 142 C 4 148 4 148 7 150 C 8 152 12 152 24 152 C 45 152 48 150 39 140 C 37 139 35 138 34 137 C 34 124 34 112 34 100 C 34 79 33 61 33 60 C 32 58 25 58 18 61 z" fill="black"/><!-- width=54 height=163 -->
<path id="gl3" d="M 20 8 C 10 13 8 16 13 23 C 16 27 16 28 16 50 C 17 79 16 83 10 89 C 2 96 3 98 25 99 C 46 99 49 96 40 88 C 39 86 36 85 35 84 C 35 75 35 66 35 57 C 33 23 36 20 54 20 C 73 20 75 23 75 56 C 74 83 74 85 67 89 C 64 93 64 96 67 98 C 71 99 101 99 104 98 C 105 95 104 91 99 89 C 94 85 94 83 93 52 C 93 25 93 23 90 18 C 81 3 67 2 44 12 C 39 13 39 13 36 10 C 31 5 27 5 20 8 z" fill="black"/><!-- width=115 height=110 -->
<path id="gl2" d="M 18 4 C 11 8 9 19 14 25 C 27 37 43 19 32 7 C 28 3 23 3 18 4 M 18 61 C 9 66 8 70 13 79 C 14 82 16 85 14 110 C 14 119 14 128 14 137 C 13 139 12 140 9 142 C 4 148 4 148 7 150 C 8 152 12 152 24 152 C 45 152 48 150 39 140 C 37 139 35 138 34 137 C 34 124 34 112 34 100 C 34 79 33 61 33 60 C 32 58 25 58 18 61 z" fill="black"/><!-- width=54 height=163 -->
<path id="gl3" d="M 20 8 C 10 13 8 16 13 23 C 16 27 16 28 16 50 C 17 79 16 83 10 89 C 2 96 3 98 25 99 C 46 99 49 96 40 88 C 39 86 36 85 35 84 C 35 75 35 66 35 57 C 33 23 36 20 54 20 C 73 20 75 23 75 56 C 74 83 74 85 67 89 C 64 93 64 96 67 98 C 71 99 101 99 104 98 C 105 95 104 91 99 89 C 94 85 94 83 93 52 C 93 25 93 23 90 18 C 81 3 67 2 44 12 C 39 13 39 13 36 10 C 31 5 27 5 20 8 z" fill="black"/><!-- width=115 height=110 -->
<path id="gl4890" d="M 37 6 C 11 8 0 38 17 60 C 21 66 21 70 14 76 C 7 85 7 88 16 97 C 21 103 19 106 13 114 C -9 142 30 166 70 148 C 87 140 96 128 96 113 C 96 93 85 87 54 88 C 34 90 29 88 28 82 C 24 75 30 70 46 69 C 67 67 76 60 80 38 C 82 27 82 25 88 24 C 102 19 97 11 81 11 C 77 11 70 11 65 8 C 54 4 45 4 37 6 M 54 17 C 64 24 65 46 55 56 C 43 69 25 55 28 34 C 29 18 43 9 54 17 M 71 106 C 80 110 82 119 79 128 C 71 143 40 148 28 135 C 21 128 22 113 30 107 C 37 103 63 102 71 106 z" fill="black"/><!-- width=107 height=165 -->
<path id="gl2" d="M 18 4 C 11 8 9 19 14 25 C 27 37 43 19 32 7 C 28 3 23 3 18 4 M 18 61 C 9 66 8 70 13 79 C 14 82 16 85 14 110 C 14 119 14 128 14 137 C 13 139 12 140 9 142 C 4 148 4 148 7 150 C 8 152 12 152 24 152 C 45 152 48 150 39 140 C 37 139 35 138 34 137 C 34 124 34 112 34 100 C 34 79 33 61 33 60 C 32 58 25 58 18 61 z" fill="black"/><!-- width=54 height=163 -->
<path id="gl4875" d="M 29 6 C 14 7 8 16 8 28 C 8 42 11 45 32 59 C 44 66 48 76 40 85 C 34 94 22 90 13 76 C 7 68 3 68 3 76 C 2 91 11 98 29 97 C 49 96 59 87 59 72 C 59 59 54 51 38 43 C 23 34 18 25 25 18 C 32 11 42 12 48 21 C 55 29 59 29 59 19 C 59 7 49 2 29 6 z" fill="black"/><!-- width=71 height=108 -->
<path id="gl1" d="M 20 11 C 18 13 14 17 11 19 C 4 23 4 25 8 30 C 11 31 12 34 13 35 C 13 36 13 50 13 66 C 13 96 14 103 23 106 C 34 111 54 109 57 103 C 61 98 58 95 49 96 C 33 96 31 94 31 58 C 30 28 30 29 42 29 C 55 30 57 30 60 28 C 62 25 62 24 60 22 C 58 18 58 18 47 18 C 35 17 34 17 31 9 C 29 3 24 3 20 11 z" fill="black"/><!-- width=71 height=121 -->
<path id="gl0" d="M 42 6 C 27 8 16 17 10 31 C 5 42 6 67 11 77 C 30 111 83 106 95 68 C 106 31 78 -1 42 6 M 61 18 C 81 28 82 73 63 86 C 45 99 23 78 26 47 C 27 22 42 8 61 18 z" fill="black"/><!-- width=111 height=111 -->
<path id="gl518" d="M 21 7 C 10 12 7 15 12 22 C 15 27 15 28 15 55 C 15 64 15 73 15 81 C 13 83 12 84 10 86 C 2 94 3 95 25 97 C 44 97 49 97 47 93 C 47 90 46 89 40 86 C 34 85 32 83 32 57 C 32 35 32 28 36 23 C 39 21 46 21 50 23 C 62 30 74 18 65 8 C 60 5 55 5 46 10 C 37 13 36 13 32 8 C 28 3 30 3 21 7 z" fill="black"/><!-- width=78 height=107 -->
<path id="gl6" d="M 39 3 C 18 9 7 26 7 52 C 7 80 22 96 50 94 C 65 94 78 86 78 78 C 78 74 75 74 67 78 C 47 88 21 72 21 47 C 21 37 23 37 50 37 C 78 37 79 37 80 29 C 83 13 59 0 39 3 M 57 14 C 67 22 59 29 42 29 C 29 29 26 27 29 21 C 34 12 50 8 57 14 z" fill="black"/><!-- width=91 height=106 -->
<path id="gl258" d="M 77 7 C 66 11 65 14 71 25 C 74 32 75 32 75 47 C 75 70 75 69 57 70 C 26 71 11 84 7 112 C 2 148 32 175 62 161 C 69 158 70 158 76 162 C 81 165 81 165 89 164 C 106 161 112 155 101 151 C 99 149 95 148 94 145 C 93 143 93 85 93 35 C 94 26 94 17 94 8 C 93 8 91 7 91 5 C 88 3 85 3 77 7 M 66 82 C 74 87 75 91 74 118 C 74 126 74 134 74 143 C 72 143 71 145 70 145 C 59 156 37 148 29 131 C 16 102 41 68 66 82 z" fill="black"/><!-- width=118 height=176 -->
<path id="gl256" d="M 16 4 C 4 6 3 9 9 18 C 12 23 13 23 13 49 C 13 63 13 78 14 80 C 18 95 38 101 57 94 C 68 89 68 89 72 94 C 75 98 78 98 93 94 C 105 91 108 88 99 83 C 89 79 89 79 90 42 C 90 23 90 7 90 7 C 89 3 84 3 75 4 C 62 6 59 9 67 16 C 68 18 70 22 70 24 C 73 31 73 69 70 74 C 65 86 41 88 33 77 C 31 72 31 72 31 39 C 31 28 32 17 32 7 C 31 6 29 6 28 4 C 26 2 24 2 16 4 z" fill="black"/><!-- width=114 height=109 -->
<path id="gl262" d="M 41 6 C 31 10 23 13 17 21 C 2 38 3 72 21 87 C 37 101 66 100 80 85 C 87 76 82 71 73 77 C 50 93 21 73 23 45 C 25 30 33 18 46 15 C 52 13 58 15 67 21 C 78 28 86 23 82 13 C 78 5 58 1 41 6 z" fill="black"/><!-- width=93 height=108 -->
<path id="gl261" d="M 39 6 C 18 10 7 26 7 54 C 7 73 9 79 18 87 C 32 102 63 102 75 87 C 83 80 76 76 67 81 C 46 92 23 75 21 51 C 21 40 23 39 50 40 C 76 41 80 40 81 30 C 81 13 59 1 39 6 M 54 15 C 62 18 62 28 54 30 C 50 32 34 32 30 31 C 28 29 28 25 32 20 C 37 14 46 12 54 15 z" fill="black"/><!-- width=91 height=111 -->
<path id="gl1" d="M 20 11 C 18 13 14 17 11 19 C 4 23 4 25 8 30 C 11 31 12 34 13 35 C 13 36 13 50 13 66 C 13 96 14 103 23 106 C 34 111 54 109 57 103 C 61 98 58 95 49 96 C 33 96 31 94 31 58 C 30 28 30 29 42 29 C 55 30 57 30 60 28 C 62 25 62 24 60 22 C 58 18 58 18 47 18 C 35 17 34 17 31 9 C 29 3 24 3 20 11 z" fill="black"/><!-- width=71 height=121 -->
<path id="gl8" d="M 20 8 C 9 12 8 16 13 25 C 14 26 15 29 15 30 C 15 49 15 67 15 87 C 15 148 16 148 9 154 C 6 158 4 159 6 160 C 8 163 41 164 43 162 C 45 160 45 157 41 153 C 38 152 36 148 36 147 C 35 142 35 95 36 93 C 41 84 55 82 64 87 C 75 91 76 95 75 124 C 75 131 75 140 75 148 C 73 150 71 151 70 153 C 64 158 64 158 65 162 C 67 165 104 164 106 160 C 107 158 107 158 104 156 C 94 148 93 145 94 118 C 95 99 94 89 89 82 C 81 71 66 67 52 73 C 36 81 33 78 35 61 C 36 44 36 9 35 7 C 32 4 27 4 20 8 z" fill="black"/><!-- width=117 height=174 -->
<path id="gl6" d="M 39 3 C 18 9 7 26 7 52 C 7 80 22 96 50 94 C 65 94 78 86 78 78 C 78 74 75 74 67 78 C 47 88 21 72 21 47 C 21 37 23 37 50 37 C 78 37 79 37 80 29 C 83 13 59 0 39 3 M 57 14 C 67 22 59 29 42 29 C 29 29 26 27 29 21 C 34 12 50 8 57 14 z" fill="black"/><!-- width=91 height=106 -->
<path id="gl260" d="M 15 7 C 7 11 6 14 11 22 C 11 23 12 25 13 27 C 13 45 13 63 13 82 C 14 147 14 147 8 153 C 1 160 3 163 23 163 C 41 163 44 160 36 152 C 35 151 33 149 31 147 C 31 124 31 100 31 77 C 31 2 31 3 25 3 C 24 3 19 6 15 7 z" fill="black"/><!-- width=51 height=172 -->
<path id="gl5" d="M 38 7 C 19 13 8 30 8 56 C 8 80 20 96 42 99 C 55 101 71 96 78 89 C 85 79 80 76 69 82 C 49 91 24 76 24 51 C 24 40 24 40 53 40 C 61 40 69 40 78 40 C 78 39 79 38 80 36 C 84 33 84 28 80 22 C 74 8 56 2 38 7 M 57 15 C 65 20 65 28 57 30 C 52 33 35 33 33 30 C 30 28 30 25 34 22 C 40 14 50 12 57 15 z" fill="black"/><!-- width=94 height=112 -->
<path id="gl771" d="M 11 4 C 4 7 4 9 9 14 C 13 18 17 23 19 29 C 25 44 39 76 42 82 C 45 98 53 97 59 79 C 60 74 64 65 67 59 C 70 53 75 43 79 35 C 82 27 85 22 90 17 C 98 7 96 3 77 4 C 69 4 66 7 69 13 C 71 21 71 22 59 55 C 55 65 49 60 43 42 C 34 22 34 21 37 14 C 39 9 39 8 37 7 C 35 6 16 3 11 4 z" fill="black"/><!-- width=106 height=103 -->
<path id="gl6" d="M 39 3 C 18 9 7 26 7 52 C 7 80 22 96 50 94 C 65 94 78 86 78 78 C 78 74 75 74 67 78 C 47 88 21 72 21 47 C 21 37 23 37 50 37 C 78 37 79 37 80 29 C 83 13 59 0 39 3 M 57 14 C 67 22 59 29 42 29 C 29 29 26 27 29 21 C 34 12 50 8 57 14 z" fill="black"/><!-- width=91 height=106 -->
<path id="gl260" d="M 15 7 C 7 11 6 14 11 22 C 11 23 12 25 13 27 C 13 45 13 63 13 82 C 14 147 14 147 8 153 C 1 160 3 163 23 163 C 41 163 44 160 36 152 C 35 151 33 149 31 147 C 31 124 31 100 31 77 C 31 2 31 3 25 3 C 24 3 19 6 15 7 z" fill="black"/><!-- width=51 height=172 -->
<path id="gl515" d="M 32 6 C 12 9 3 27 13 43 C 16 48 22 53 33 59 C 42 64 45 70 45 76 C 45 94 28 95 17 79 C 9 68 6 68 6 79 C 6 91 11 96 22 97 C 51 102 71 82 60 60 C 56 55 51 50 40 44 C 27 35 23 29 27 22 C 30 12 40 12 50 22 C 58 29 63 29 63 21 C 63 8 51 3 32 6 z" fill="black"/><!-- width=74 height=110 -->
<path id="gl0" d="M 42 6 C 27 8 16 17 10 31 C 5 42 6 67 11 77 C 30 111 83 106 95 68 C 106 31 78 -1 42 6 M 61 18 C 81 28 82 73 63 86 C 45 99 23 78 26 47 C 27 22 42 8 61 18 z" fill="black"/><!-- width=111 height=111 -->
<path id="gl769" d="M 48 6 C 28 14 18 29 15 61 C 14 70 13 73 11 78 C 8 81 7 83 8 84 C 15 94 15 91 14 121 C 14 130 14 139 14 147 C 13 150 12 151 11 154 C 3 162 4 163 24 163 C 44 165 50 162 41 156 C 33 152 33 149 33 118 C 33 85 31 86 47 86 C 57 86 62 85 61 79 C 59 77 55 74 46 75 C 33 77 30 73 33 51 C 36 18 46 9 66 22 C 74 28 77 28 80 24 C 92 12 69 0 48 6 z" fill="black"/><!-- width=94 height=174 -->
<path id="gl517" d="M 24 6 C 19 8 11 14 9 17 C 9 18 11 22 12 25 C 13 28 14 29 14 32 C 14 49 14 66 14 83 C 14 137 14 141 8 147 C 1 155 4 157 28 157 C 46 157 48 156 48 152 C 48 150 48 149 43 146 C 35 142 33 140 33 120 C 33 102 34 101 45 102 C 76 104 102 81 103 48 C 103 19 77 0 52 8 C 40 13 36 13 34 9 C 32 6 28 4 24 6 M 70 25 C 83 34 86 61 75 80 C 66 93 44 96 36 82 C 34 78 33 76 33 56 C 33 27 35 23 46 22 C 55 20 64 22 70 25 z" fill="black"/><!-- width=114 height=167 -->
<path id="gl8" d="M 20 8 C 9 12 8 16 13 25 C 14 26 15 29 15 30 C 15 49 15 67 15 87 C 15 148 16 148 9 154 C 6 158 4 159 6 160 C 8 163 41 164 43 162 C 45 160 45 157 41 153 C 38 152 36 148 36 147 C 35 142 35 95 36 93 C 41 84 55 82 64 87 C 75 91 76 95 75 124 C 75 131 75 140 75 148 C 73 150 71 151 70 153 C 64 158 64 158 65 162 C 67 165 104 164 106 160 C 107 158 107 158 104 156 C 94 148 93 145 94 118 C 95 99 94 89 89 82 C 81 71 66 67 52 73 C 36 81 33 78 35 61 C 36 44 36 9 35 7 C 32 4 27 4 20 8 z" fill="black"/><!-- width=117 height=174 -->
<path id="gl263" d="M 9 4 C 4 7 4 9 9 16 C 16 22 17 22 26 46 C 41 86 42 89 33 107 C 27 119 23 123 16 125 C 3 129 2 144 14 147 C 24 149 29 142 53 88 C 57 79 63 67 66 62 C 69 56 74 44 78 37 C 82 29 87 22 91 17 C 100 7 99 3 82 3 C 67 3 63 6 69 14 C 72 19 72 22 66 38 C 58 58 57 61 53 61 C 49 61 47 57 41 39 C 36 23 36 19 38 13 C 41 9 41 8 38 7 C 36 4 14 3 9 4 z" fill="black"/><!-- width=107 height=157 -->
<path id="gl4875" d="M 29 6 C 14 7 8 16 8 28 C 8 42 11 45 32 59 C 44 66 48 76 40 85 C 34 94 22 90 13 76 C 7 68 3 68 3 76 C 2 91 11 98 29 97 C 49 96 59 87 59 72 C 59 59 54 51 38 43 C 23 34 18 25 25 18 C 32 11 42 12 48 21 C 55 29 59 29 59 19 C 59 7 49 2 29 6 z" fill="black"/><!-- width=71 height=108 -->
<path id="gl2" d="M 18 4 C 11 8 9 19 14 25 C 27 37 43 19 32 7 C 28 3 23 3 18 4 M 18 61 C 9 66 8 70 13 79 C 14 82 16 85 14 110 C 14 119 14 128 14 137 C 13 139 12 140 9 142 C 4 148 4 148 7 150 C 8 152 12 152 24 152 C 45 152 48 150 39 140 C 37 139 35 138 34 137 C 34 124 34 112 34 100 C 34 79 33 61 33 60 C 32 58 25 58 18 61 z" fill="black"/><!-- width=54 height=163 -->
<path id="gl262" d="M 41 6 C 31 10 23 13 17 21 C 2 38 3 72 21 87 C 37 101 66 100 80 85 C 87 76 82 71 73 77 C 50 93 21 73 23 45 C 25 30 33 18 46 15 C 52 13 58 15 67 21 C 78 28 86 23 82 13 C 78 5 58 1 41 6 z" fill="black"/><!-- width=93 height=108 -->
<path id="gl7" d="M 37 6 C 18 9 1 26 4 33 C 8 41 19 36 24 26 C 26 19 31 16 36 16 C 47 16 50 22 50 36 C 50 47 48 49 33 54 C 9 60 2 68 4 83 C 7 98 23 104 39 95 C 42 94 46 92 48 90 C 50 92 54 94 57 95 C 65 100 72 101 78 96 C 87 93 87 88 78 87 C 68 85 65 79 68 54 C 69 23 68 13 58 8 C 52 4 43 3 37 6 M 48 62 C 57 70 48 88 34 88 C 17 88 18 68 37 62 C 44 58 44 58 48 62 z" fill="black"/><!-- width=94 height=110 -->
<path id="gl260" d="M 15 7 C 7 11 6 14 11 22 C 11 23 12 25 13 27 C 13 45 13 63 13 82 C 14 147 14 147 8 153 C 1 160 3 163 23 163 C 41 163 44 160 36 152 C 35 151 33 149 31 147 C 31 124 31 100 31 77 C 31 2 31 3 25 3 C 24 3 19 6 15 7 z" fill="black"/><!-- width=51 height=172 -->
<path id="gl4894" d="M 14 13 C 6 22 6 23 9 28 C 12 32 12 33 13 63 C 13 91 13 93 16 97 C 21 107 32 111 44 107 C 58 103 59 97 46 96 C 31 94 31 93 29 58 C 29 49 29 41 28 33 C 29 32 31 31 32 29 C 34 26 36 26 44 27 C 53 28 57 27 57 22 C 57 18 56 17 44 16 C 41 16 37 16 33 16 C 32 14 32 12 31 11 C 27 3 24 4 14 13 z" fill="black"/><!-- width=67 height=118 -->
<path id="gl6" d="M 39 3 C 18 9 7 26 7 52 C 7 80 22 96 50 94 C 65 94 78 86 78 78 C 78 74 75 74 67 78 C 47 88 21 72 21 47 C 21 37 23 37 50 37 C 78 37 79 37 80 29 C 83 13 59 0 39 3 M 57 14 C 67 22 59 29 42 29 C 29 29 26 27 29 21 C 34 12 50 8 57 14 z" fill="black"/><!-- width=91 height=106 -->
<path id="gl3" d="M 20 8 C 10 13 8 16 13 23 C 16 27 16 28 16 50 C 17 79 16 83 10 89 C 2 96 3 98 25 99 C 46 99 49 96 40 88 C 39 86 36 85 35 84 C 35 75 35 66 35 57 C 33 23 36 20 54 20 C 73 20 75 23 75 56 C 74 83 74 85 67 89 C 64 93 64 96 67 98 C 71 99 101 99 104 98 C 105 95 104 91 99 89 C 94 85 94 83 93 52 C 93 25 93 23 90 18 C 81 3 67 2 44 12 C 39 13 39 13 36 10 C 31 5 27 5 20 8 z" fill="black"/><!-- width=115 height=110 -->
<path id="gl515" d="M 32 6 C 12 9 3 27 13 43 C 16 48 22 53 33 59 C 42 64 45 70 45 76 C 45 94 28 95 17 79 C 9 68 6 68 6 79 C 6 91 11 96 22 97 C 51 102 71 82 60 60 C 56 55 51 50 40 44 C 27 35 23 29 27 22 C 30 12 40 12 50 22 C 58 29 63 29 63 21 C 63 8 51 3 32 6 z" fill="black"/><!-- width=74 height=110 -->
<path id="gl2" d="M 18 4 C 11 8 9 19 14 25 C 27 37 43 19 32 7 C 28 3 23 3 18 4 M 18 61 C 9 66 8 70 13 79 C 14 82 16 85 14 110 C 14 119 14 128 14 137 C 13 139 12 140 9 142 C 4 148 4 148 7 150 C 8 152 12 152 24 152 C 45 152 48 150 39 140 C 37 139 35 138 34 137 C 34 124 34 112 34 100 C 34 79 33 61 33 60 C 32 58 25 58 18 61 z" fill="black"/><!-- width=54 height=163 -->
<path id="gl0" d="M 42 6 C 27 8 16 17 10 31 C 5 42 6 67 11 77 C 30 111 83 106 95 68 C 106 31 78 -1 42 6 M 61 18 C 81 28 82 73 63 86 C 45 99 23 78 26 47 C 27 22 42 8 61 18 z" fill="black"/><!-- width=111 height=111 -->
<path id="gl3" d="M 20 8 C 10 13 8 16 13 23 C 16 27 16 28 16 50 C 17 79 16 83 10 89 C 2 96 3 98 25 99 C 46 99 49 96 40 88 C 39 86 36 85 35 84 C 35 75 35 66 35 57 C 33 23 36 20 54 20 C 73 20 75 23 75 56 C 74 83 74 85 67 89 C 64 93 64 96 67 98 C 71 99 101 99 104 98 C 105 95 104 91 99 89 C 94 85 94 83 93 52 C 93 25 93 23 90 18 C 81 3 67 2 44 12 C 39 13 39 13 36 10 C 31 5 27 5 20 8 z" fill="black"/><!-- width=115 height=110 -->
<path id="gl516" d="M 15 7 C 2 11 5 31 18 31 C 30 31 35 18 27 10 C 24 9 23 7 22 7 C 22 7 20 6 19 6 C 19 6 17 6 15 7 z" fill="black"/><!-- width=44 height=43 -->
<path id="gl1797" d="M 12 7 C 7 10 3 31 6 35 C 8 39 9 38 16 31 C 25 21 29 20 44 20 C 66 19 64 13 64 81 C 64 148 65 142 48 151 C 44 152 43 154 45 157 C 48 160 99 160 101 157 C 103 153 102 152 96 148 C 84 143 85 147 85 82 C 85 62 85 43 85 24 C 87 24 88 22 89 21 C 91 19 93 19 106 20 C 124 20 125 21 134 33 C 137 39 141 39 143 36 C 145 33 146 27 146 20 C 147 7 146 4 139 6 C 136 6 131 7 129 7 C 125 8 102 8 76 8 C 32 8 29 8 22 6 C 14 3 15 3 12 7 z" fill="black"/><!-- width=157 height=169 -->
<path id="gl5892" d="M 9 7 C 7 8 7 10 13 15 C 21 21 21 24 20 83 C 20 141 20 139 12 145 C 0 153 3 154 31 155 C 52 155 54 155 57 153 C 59 150 57 147 51 145 C 42 143 41 138 41 110 C 41 83 40 83 58 85 C 72 85 77 86 81 91 C 88 102 90 103 93 99 C 96 97 96 64 94 59 C 91 55 87 57 83 64 C 80 71 76 72 59 74 C 47 75 47 75 43 71 C 42 70 41 69 40 69 C 41 60 41 52 41 43 C 41 13 40 15 60 15 C 80 17 85 18 91 27 C 99 40 103 36 103 15 C 102 4 104 6 54 6 C 27 6 10 6 9 7 z" fill="black"/><!-- width=111 height=166 -->
</defs>
<use xlink:href="#gl1540" x="0" y="64"/>
<use xlink:href="#gl516" x="72" y="136"/>
<use xlink:href="#gl1797" x="347" y="10"/>
<use xlink:href="#gl8" x="496" y="2"/>
<use xlink:href="#gl5" x="607" y="68"/>
<use xlink:href="#gl4890" x="750" y="70"/>
<use xlink:href="#gl0" x="849" y="69"/>
<use xlink:href="#gl7" x="957" y="69"/>
<use xlink:href="#gl260" x="1046" y="4"/>
<use xlink:href="#gl0" x="1153" y="68"/>
<use xlink:href="#gl769" x="1262" y="1"/>
<use xlink:href="#gl4" x="1394" y="68"/>
<use xlink:href="#gl522" x="1461" y="66"/>
<use xlink:href="#gl260" x="1549" y="4"/>
<use xlink:href="#gl7" x="1603" y="69"/>
<use xlink:href="#gl772" x="1686" y="71"/>
<use xlink:href="#gl7" x="1786" y="69"/>
<use xlink:href="#gl1" x="1874" y="60"/>
<use xlink:href="#gl2" x="1942" y="14"/>
<use xlink:href="#gl0" x="1995" y="68"/>
<use xlink:href="#gl3" x="2104" y="67"/>
<use xlink:href="#gl1" x="2274" y="58"/>
<use xlink:href="#gl4" x="2342" y="69"/>
<use xlink:href="#gl7" x="2413" y="68"/>
<use xlink:href="#gl2" x="2502" y="14"/>
<use xlink:href="#gl3" x="2558" y="67"/>
<use xlink:href="#gl2" x="2673" y="13"/>
<use xlink:href="#gl3" x="2728" y="66"/>
<use xlink:href="#gl4890" x="2841" y="69"/>
<use xlink:href="#gl2" x="2997" y="14"/>
<use xlink:href="#gl4875" x="3052" y="70"/>
<use xlink:href="#gl1" x="3177" y="59"/>
<use xlink:href="#gl0" x="3242" y="68"/>
<use xlink:href="#gl518" x="3406" y="68"/>
<use xlink:href="#gl6" x="3474" y="70"/>
<use xlink:href="#gl258" x="3559" y="2"/>
<use xlink:href="#gl256" x="3674" y="71"/>
<use xlink:href="#gl262" x="3783" y="70"/>
<use xlink:href="#gl261" x="3871" y="68"/>
<use xlink:href="#gl1" x="4013" y="58"/>
<use xlink:href="#gl8" x="4078" y="2"/>
<use xlink:href="#gl6" x="4192" y="70"/>
<use xlink:href="#gl260" x="4335" y="4"/>
<use xlink:href="#gl5" x="4385" y="67"/>
<use xlink:href="#gl771" x="4469" y="71"/>
<use xlink:href="#gl6" x="4567" y="70"/>
<use xlink:href="#gl260" x="4656" y="3"/>
<use xlink:href="#gl515" x="4707" y="68"/>
<use xlink:href="#gl0" x="4833" y="67"/>
<use xlink:href="#gl769" x="4942" y="0"/>
<use xlink:href="#gl517" x="353" y="386"/>
<use xlink:href="#gl8" x="462" y="321"/>
<use xlink:href="#gl263" x="573" y="393"/>
<use xlink:href="#gl4875" x="675" y="390"/>
<use xlink:href="#gl2" x="746" y="335"/>
<use xlink:href="#gl262" x="799" y="390"/>
<use xlink:href="#gl7" x="889" y="389"/>
<use xlink:href="#gl260" x="977" y="324"/>
<use xlink:href="#gl4894" x="1088" y="379"/>
<use xlink:href="#gl6" x="1152" y="391"/>
<use xlink:href="#gl3" x="1240" y="387"/>
<use xlink:href="#gl515" x="1353" y="389"/>
<use xlink:href="#gl2" x="1426" y="333"/>
<use xlink:href="#gl0" x="1480" y="389"/>
<use xlink:href="#gl3" x="1587" y="387"/>
<use xlink:href="#gl516" x="1707" y="456"/>
<use xlink:href="#gl1797" x="5495" y="327"/>
<use xlink:href="#gl5892" x="6087" y="328"/>
</svg>