<svg xmlns="http://www.w3.org/2000/svg" xmlns:xlink="http://www.w3.org/1999/xlink" width="623px" height="55px" viewBox="0 0 6233 553" version="1.1">
<defs>
<path id="gl23831" d="M 44 3 C 40 3 37 4 37 4 C 36 4 31 6 28 6 C 15 8 13 9 9 23 C 2 40 4 47 22 61 C 35 70 39 80 36 96 C 34 110 28 117 9 128 C 4 130 3 137 7 138 C 15 143 41 122 51 103 C 61 84 51 55 31 45 C 24 41 15 33 17 29 C 17 24 23 22 34 22 C 48 20 59 15 62 8 C 64 2 57 0 44 3 z" fill="black"/><!-- width=72 height=146 -->
<path id="gl516" d="M 15 7 C 2 11 5 31 18 31 C 30 31 35 18 27 10 C 24 9 23 7 22 7 C 22 7 20 6 19 6 C 19 6 17 6 15 7 z" fill="black"/><!-- width=44 height=43 -->
<path id="gl1550" d="M 32 4 C 11 6 8 6 7 8 C 4 11 6 13 11 16 C 19 20 19 20 19 78 C 19 136 19 138 12 144 C 8 148 6 151 8 153 C 12 154 72 154 78 153 C 96 148 108 139 112 127 C 120 107 114 88 98 77 C 88 71 88 70 97 60 C 114 40 103 12 76 7 C 66 4 56 4 32 4 M 66 18 C 81 24 87 40 80 55 C 74 69 46 76 41 66 C 39 61 39 24 41 19 C 45 13 55 12 66 18 M 66 80 C 83 85 93 95 93 113 C 93 133 82 143 61 144 C 43 144 40 139 40 107 C 40 76 41 75 66 80 z" fill="black"/><!-- width=127 height=165 -->
<path id="gl5" d="M 38 7 C 19 13 8 30 8 56 C 8 80 20 96 42 99 C 55 101 71 96 78 89 C 85 79 80 76 69 82 C 49 91 24 76 24 51 C 24 40 24 40 53 40 C 61 40 69 40 78 40 C 78 39 79 38 80 36 C 84 33 84 28 80 22 C 74 8 56 2 38 7 M 57 15 C 65 20 65 28 57 30 C 52 33 35 33 33 30 C 30 28 30 25 34 22 C 40 14 50 12 57 15 z" fill="black"/><!-- width=94 height=112 -->
<path id="gl2" d="M 18 4 C 11 8 9 19 14 25 C 27 37 43 19 32 7 C 28 3 23 3 18 4 M 18 61 C 9 66 8 70 13 79 C 14 82 16 85 14 110 C 14 119 14 128 14 137 C 13 139 12 140 9 142 C 4 148 4 148 7 150 C 8 152 12 152 24 152 C 45 152 48 150 39 140 C 37 139 35 138 34 137 C 34 124 34 112 34 100 C 34 79 33 61 33 60 C 32 58 25 58 18 61 z" fill="black"/><!-- width=54 height=163 -->
<path id="gl3" d="M 20 8 C 10 13 8 16 13 23 C 16 27 16 28 16 50 C 17 79 16 83 10 89 C 2 96 3 98 25 99 C 46 99 49 96 40 88 C 39 86 36 85 35 84 C 35 75 35 66 35 57 C 33 23 36 20 54 20 C 73 20 75 23 75 56 C 74 83 74 85 67 89 C 64 93 64 96 67 98 C 71 99 101 99 104 98 C 105 95 104 91 99 89 C 94 85 94 83 93 52 C 93 25 93 23 90 18 C 81 3 67 2 44 12 C 39 13 39 13 36 10 C 31 5 27 5 20 8 z" fill="black"/><!-- width=115 height=110 -->
<path id="gl521" d="M 35 6 C 11 11 1 37 15 58 C 20 64 20 68 17 73 C 7 81 7 85 14 95 C 20 102 20 105 14 112 C 7 119 6 122 6 129 C 6 165 77 163 92 128 C 101 111 96 94 80 89 C 77 88 70 86 55 88 C 34 88 34 88 30 85 C 22 77 28 69 46 67 C 68 66 77 58 80 37 C 81 28 84 24 90 23 C 103 20 97 11 83 11 C 78 11 72 11 66 8 C 55 4 42 3 35 6 M 55 17 C 68 29 63 57 47 59 C 37 62 28 50 28 36 C 28 19 44 8 55 17 M 73 105 C 85 112 83 132 68 139 C 59 143 42 143 34 139 C 18 130 20 107 39 102 C 47 101 67 102 73 105 z" fill="black"/><!-- width=106 height=166 -->
<path id="gl9" d="M 37 7 C 20 12 7 22 7 31 C 7 41 23 38 27 27 C 31 18 37 15 46 17 C 52 20 55 25 55 35 C 56 47 53 48 37 55 C 13 61 7 66 7 78 C 7 96 25 105 43 95 C 52 91 55 91 62 96 C 72 103 95 96 88 88 C 87 87 85 87 82 87 C 71 87 70 81 72 51 C 72 33 72 27 72 22 C 68 8 53 2 37 7 M 53 63 C 58 71 51 86 42 87 C 20 87 21 68 42 61 C 48 60 51 60 53 63 z" fill="black"/><!-- width=98 height=110 -->
<path id="gl3" d="M 20 8 C 10 13 8 16 13 23 C 16 27 16 28 16 50 C 17 79 16 83 10 89 C 2 96 3 98 25 99 C 46 99 49 96 40 88 C 39 86 36 85 35 84 C 35 75 35 66 35 57 C 33 23 36 20 54 20 C 73 20 75 23 75 56 C 74 83 74 85 67 89 C 64 93 64 96 67 98 C 71 99 101 99 104 98 C 105 95 104 91 99 89 C 94 85 94 83 93 52 C 93 25 93 23 90 18 C 81 3 67 2 44 12 C 39 13 39 13 36 10 C 31 5 27 5 20 8 z" fill="black"/><!-- width=115 height=110 -->
<path id="gl9" d="M 37 7 C 20 12 7 22 7 31 C 7 41 23 38 27 27 C 31 18 37 15 46 17 C 52 20 55 25 55 35 C 56 47 53 48 37 55 C 13 61 7 66 7 78 C 7 96 25 105 43 95 C 52 91 55 91 62 96 C 72 103 95 96 88 88 C 87 87 85 87 82 87 C 71 87 70 81 72 51 C 72 33 72 27 72 22 C 68 8 53 2 37 7 M 53 63 C 58 71 51 86 42 87 C 20 87 21 68 42 61 C 48 60 51 60 53 63 z" fill="black"/><!-- width=98 height=110 -->
<path id="gl3" d="M 20 8 C 10 13 8 16 13 23 C 16 27 16 28 16 50 C 17 79 16 83 10 89 C 2 96 3 98 25 99 C 46 99 49 96 40 88 C 39 86 36 85 35 84 C 35 75 35 66 35 57 C 33 23 36 20 54 20 C 73 20 75 23 75 56 C 74 83 74 85 67 89 C 64 93 64 96 67 98 C 71 99 101 99 104 98 C 105 95 104 91 99 89 C 94 85 94 83 93 52 C 93 25 93 23 90 18 C 81 3 67 2 44 12 C 39 13 39 13 36 10 C 31 5 27 5 20 8 z" fill="black"/><!-- width=115 height=110 -->
<path id="gl772" d="M 7 7 C 5 10 6 12 12 17 C 18 21 35 42 37 49 C 40 55 25 74 10 85 C 6 89 5 89 6 92 C 8 94 8 95 18 95 C 32 95 34 94 34 85 C 32 75 39 64 45 64 C 49 64 54 69 56 75 C 59 79 59 80 56 85 C 54 94 55 95 73 95 C 93 95 97 93 85 84 C 78 78 59 55 58 49 C 55 41 66 25 79 17 C 93 10 92 6 74 6 C 60 6 60 6 59 16 C 59 31 50 37 42 29 C 39 25 37 21 39 13 C 40 7 37 6 22 6 C 13 6 8 6 7 7 z" fill="black"/><!-- width=102 height=104 -->
<path id="gl2" d="M 18 4 C 11 8 9 19 14 25 C 27 37 43 19 32 7 C 28 3 23 3 18 4 M 18 61 C 9 66 8 70 13 79 C 14 82 16 85 14 110 C 14 119 14 128 14 137 C 13 139 12 140 9 142 C 4 148 4 148 7 150 C 8 152 12 152 24 152 C 45 152 48 150 39 140 C 37 139 35 138 34 137 C 34 124 34 112 34 100 C 34 79 33 61 33 60 C 32 58 25 58 18 61 z" fill="black"/><!-- width=54 height=163 -->
<path id="gl0" d="M 42 6 C 27 8 16 17 10 31 C 5 42 6 67 11 77 C 30 111 83 106 95 68 C 106 31 78 -1 42 6 M 61 18 C 81 28 82 73 63 86 C 45 99 23 78 26 47 C 27 22 42 8 61 18 z" fill="black"/><!-- width=111 height=111 -->
<path id="gl6423" d="M 19 7 C 7 9 4 12 10 21 C 10 24 13 26 14 28 C 14 37 14 45 14 54 C 14 73 14 80 15 85 C 20 100 38 106 57 98 C 68 93 68 93 73 98 C 78 102 79 102 88 100 C 103 97 103 96 104 93 C 105 91 105 90 99 87 C 91 82 92 84 92 46 C 92 10 91 9 87 7 C 82 6 68 8 66 12 C 64 13 63 13 62 14 C 64 16 66 18 67 20 C 73 26 73 27 73 52 C 73 79 72 81 63 85 C 57 88 45 88 40 85 C 32 81 32 79 32 43 C 32 32 32 21 32 10 C 31 10 30 9 30 8 C 26 7 25 6 19 7 z" fill="black"/><!-- width=115 height=112 -->
<path id="gl257" d="M 31 6 C 24 8 17 13 13 20 C 6 35 11 45 33 58 C 48 69 52 77 45 85 C 37 94 25 91 19 80 C 11 66 3 67 6 82 C 7 93 13 99 28 100 C 53 104 72 83 62 62 C 60 55 56 52 42 44 C 26 34 22 26 30 18 C 37 12 46 14 53 24 C 60 33 67 29 64 18 C 62 7 50 3 31 6 z" fill="black"/><!-- width=78 height=112 -->
<path id="gl1024" d="M 15 8 C 8 14 7 17 9 24 C 12 30 13 31 13 83 C 13 102 13 120 13 138 C 12 139 10 142 9 143 C 3 153 6 155 25 155 C 43 155 47 153 37 145 C 32 140 30 136 30 120 C 30 102 31 100 44 100 C 77 100 100 76 98 43 C 97 14 72 0 46 9 C 36 13 35 13 31 8 C 27 4 21 4 15 8 M 60 21 C 89 31 82 89 51 89 C 43 89 35 86 32 81 C 30 76 30 35 31 29 C 35 20 47 17 60 21 z" fill="black"/><!-- width=109 height=165 -->
<path id="gl522" d="M 36 8 C 14 14 2 38 7 66 C 9 90 22 101 47 101 C 66 101 85 89 78 79 C 77 77 77 77 72 79 C 61 85 59 87 53 87 C 36 87 21 70 21 53 C 21 42 20 42 49 42 C 58 42 66 43 74 43 C 76 42 77 41 78 39 C 85 32 78 18 65 10 C 58 7 45 6 36 8 M 54 18 C 60 20 62 27 58 31 C 55 35 32 36 29 32 C 26 30 26 27 31 22 C 38 16 47 14 54 18 z" fill="black"/><!-- width=91 height=113 -->
<path id="gl4" d="M 16 9 C 8 13 7 16 12 24 C 13 28 14 32 14 54 C 14 80 13 86 8 87 C 6 90 3 94 4 95 C 7 99 44 99 45 95 C 47 92 44 90 40 90 C 39 90 37 87 35 86 C 34 85 33 84 32 84 C 32 74 32 65 32 56 C 32 29 32 29 34 26 C 38 22 43 22 49 24 C 59 28 66 24 66 17 C 66 4 55 2 44 11 C 37 16 34 14 32 9 C 29 4 26 3 16 9 z" fill="black"/><!-- width=76 height=108 -->
<path id="gl257" d="M 31 6 C 24 8 17 13 13 20 C 6 35 11 45 33 58 C 48 69 52 77 45 85 C 37 94 25 91 19 80 C 11 66 3 67 6 82 C 7 93 13 99 28 100 C 53 104 72 83 62 62 C 60 55 56 52 42 44 C 26 34 22 26 30 18 C 37 12 46 14 53 24 C 60 33 67 29 64 18 C 62 7 50 3 31 6 z" fill="black"/><!-- width=78 height=112 -->
<path id="gl5400" d="M 43 6 C 15 11 0 42 10 74 C 22 110 80 109 95 72 C 99 61 99 41 94 31 C 85 12 64 1 43 6 M 60 17 C 65 20 70 25 74 32 C 77 42 77 67 72 76 C 56 107 22 82 26 45 C 28 22 45 10 60 17 z" fill="black"/><!-- width=110 height=110 -->
<path id="gl3" d="M 20 8 C 10 13 8 16 13 23 C 16 27 16 28 16 50 C 17 79 16 83 10 89 C 2 96 3 98 25 99 C 46 99 49 96 40 88 C 39 86 36 85 35 84 C 35 75 35 66 35 57 C 33 23 36 20 54 20 C 73 20 75 23 75 56 C 74 83 74 85 67 89 C 64 93 64 96 67 98 C 71 99 101 99 104 98 C 105 95 104 91 99 89 C 94 85 94 83 93 52 C 93 25 93 23 90 18 C 81 3 67 2 44 12 C 39 13 39 13 36 10 C 31 5 27 5 20 8 z" fill="black"/><!-- width=115 height=110 -->
<path id="gl259" d="M 19 8 C 9 13 8 16 13 25 C 19 38 17 88 9 88 C 9 88 8 91 7 92 C 3 98 6 100 24 100 C 46 100 48 98 40 88 C 39 87 37 86 35 83 C 35 75 35 66 35 58 C 34 29 35 27 43 22 C 49 18 62 19 69 24 C 74 29 74 34 74 55 C 74 79 74 83 69 88 C 65 92 64 97 66 98 C 66 98 74 100 83 100 C 104 100 107 97 98 88 C 97 87 95 86 93 83 C 93 75 93 66 93 58 C 93 33 93 32 96 28 C 102 17 123 17 129 29 C 132 33 132 37 132 56 C 132 81 132 85 125 88 C 122 92 122 97 124 98 C 128 100 158 100 160 97 C 163 96 163 93 158 90 C 151 85 150 82 150 55 C 150 28 150 23 145 16 C 137 3 118 2 101 12 C 93 17 90 17 83 13 C 72 4 64 3 51 8 C 40 13 38 13 35 9 C 32 4 28 4 19 8 z" fill="black"/><!-- width=172 height=109 -->
<path id="gl522" d="M 36 8 C 14 14 2 38 7 66 C 9 90 22 101 47 101 C 66 101 85 89 78 79 C 77 77 77 77 72 79 C 61 85 59 87 53 87 C 36 87 21 70 21 53 C 21 42 20 42 49 42 C 58 42 66 43 74 43 C 76 42 77 41 78 39 C 85 32 78 18 65 10 C 58 7 45 6 36 8 M 54 18 C 60 20 62 27 58 31 C 55 35 32 36 29 32 C 26 30 26 27 31 22 C 38 16 47 14 54 18 z" fill="black"/><!-- width=91 height=113 -->
<path id="gl7" d="M 37 6 C 18 9 1 26 4 33 C 8 41 19 36 24 26 C 26 19 31 16 36 16 C 47 16 50 22 50 36 C 50 47 48 49 33 54 C 9 60 2 68 4 83 C 7 98 23 104 39 95 C 42 94 46 92 48 90 C 50 92 54 94 57 95 C 65 100 72 101 78 96 C 87 93 87 88 78 87 C 68 85 65 79 68 54 C 69 23 68 13 58 8 C 52 4 43 3 37 6 M 48 62 C 57 70 48 88 34 88 C 17 88 18 68 37 62 C 44 58 44 58 48 62 z" fill="black"/><!-- width=94 height=110 -->
<path id="gl3" d="M 20 8 C 10 13 8 16 13 23 C 16 27 16 28 16 50 C 17 79 16 83 10 89 C 2 96 3 98 25 99 C 46 99 49 96 40 88 C 39 86 36 85 35 84 C 35 75 35 66 35 57 C 33 23 36 20 54 20 C 73 20 75 23 75 56 C 74 83 74 85 67 89 C 64 93 64 96 67 98 C 71 99 101 99 104 98 C 105 95 104 91 99 89 C 94 85 94 83 93 52 C 93 25 93 23 90 18 C 81 3 67 2 44 12 C 39 13 39 13 36 10 C 31 5 27 5 20 8 z" fill="black"/><!-- width=115 height=110 -->
<path id="gl257" d="M 31 6 C 24 8 17 13 13 20 C 6 35 11 45 33 58 C 48 69 52 77 45 85 C 37 94 25 91 19 80 C 11 66 3 67 6 82 C 7 93 13 99 28 100 C 53 104 72 83 62 62 C 60 55 56 52 42 44 C 26 34 22 26 30 18 C 37 12 46 14 53 24 C 60 33 67 29 64 18 C 62 7 50 3 31 6 z" fill="black"/><!-- width=78 height=112 -->
<path id="gl1" d="M 20 11 C 18 13 14 17 11 19 C 4 23 4 25 8 30 C 11 31 12 34 13 35 C 13 36 13 50 13 66 C 13 96 14 103 23 106 C 34 111 54 109 57 103 C 61 98 58 95 49 96 C 33 96 31 94 31 58 C 30 28 30 29 42 29 C 55 30 57 30 60 28 C 62 25 62 24 60 22 C 58 18 58 18 47 18 C 35 17 34 17 31 9 C 29 3 24 3 20 11 z" fill="black"/><!-- width=71 height=121 -->
<path id="gl8" d="M 20 8 C 9 12 8 16 13 25 C 14 26 15 29 15 30 C 15 49 15 67 15 87 C 15 148 16 148 9 154 C 6 158 4 159 6 160 C 8 163 41 164 43 162 C 45 160 45 157 41 153 C 38 152 36 148 36 147 C 35 142 35 95 36 93 C 41 84 55 82 64 87 C 75 91 76 95 75 124 C 75 131 75 140 75 148 C 73 150 71 151 70 153 C 64 158 64 158 65 162 C 67 165 104 164 106 160 C 107 158 107 158 104 156 C 94 148 93 145 94 118 C 95 99 94 89 89 82 C 81 71 66 67 52 73 C 36 81 33 78 35 61 C 36 44 36 9 35 7 C 32 4 27 4 20 8 z" fill="black"/><!-- width=117 height=174 -->
<path id="gl9" d="M 37 7 C 20 12 7 22 7 31 C 7 41 23 38 27 27 C 31 18 37 15 46 17 C 52 20 55 25 55 35 C 56 47 53 48 37 55 C 13 61 7 66 7 78 C 7 96 25 105 43 95 C 52 91 55 91 62 96 C 72 103 95 96 88 88 C 87 87 85 87 82 87 C 71 87 70 81 72 51 C 72 33 72 27 72 22 C 68 8 53 2 37 7 M 53 63 C 58 71 51 86 42 87 C 20 87 21 68 42 61 C 48 60 51 60 53 63 z" fill="black"/><!-- width=98 height=110 -->
<path id="gl770" d="M 16 12 C 6 22 4 23 9 29 C 12 33 12 33 12 59 C 13 95 14 99 24 104 C 35 109 56 106 55 98 C 55 95 55 95 48 95 C 32 95 30 91 29 56 C 29 25 28 27 45 27 C 57 27 61 24 57 18 C 55 16 54 16 45 16 C 35 17 30 14 30 11 C 30 8 27 3 25 3 C 24 3 20 8 16 12 z" fill="black"/><!-- width=69 height=118 -->
<path id="gl9500" d="M 7 7 C 4 9 6 12 10 14 C 21 18 20 15 20 79 C 20 142 21 140 12 143 C 6 147 3 149 6 152 C 8 153 53 154 56 152 C 59 149 58 147 52 145 C 41 140 41 143 41 79 C 41 15 41 18 51 14 C 57 13 58 9 57 7 C 54 4 8 4 7 7 z" fill="black"/><!-- width=68 height=163 -->
<path id="gl264" d="M 122 6 C 119 7 119 9 122 15 C 125 20 125 20 118 42 C 111 58 109 62 105 60 C 103 59 103 58 96 41 C 87 20 87 19 94 13 C 97 10 98 9 97 8 C 96 6 93 6 77 6 C 60 6 60 6 60 8 C 59 10 62 13 65 17 C 73 23 73 26 65 43 C 55 68 53 68 42 41 C 36 23 36 19 40 14 C 45 7 42 6 24 6 C 2 6 0 7 10 17 C 13 20 17 25 18 27 C 24 41 36 71 40 82 C 41 87 43 93 45 94 C 49 99 54 96 57 86 C 63 65 74 43 77 43 C 81 43 87 60 96 83 C 98 93 101 97 105 96 C 108 96 109 92 115 77 C 116 74 120 65 122 58 C 125 52 130 41 133 35 C 137 25 139 21 144 17 C 152 9 152 9 149 6 C 146 3 127 3 122 6 z" fill="black"/><!-- width=160 height=107 -->
<path id="gl2" d="M 18 4 C 11 8 9 19 14 25 C 27 37 43 19 32 7 C 28 3 23 3 18 4 M 18 61 C 9 66 8 70 13 79 C 14 82 16 85 14 110 C 14 119 14 128 14 137 C 13 139 12 140 9 142 C 4 148 4 148 7 150 C 8 152 12 152 24 152 C 45 152 48 150 39 140 C 37 139 35 138 34 137 C 34 124 34 112 34 100 C 34 79 33 61 33 60 C 32 58 25 58 18 61 z" fill="black"/><!-- width=54 height=163 -->
<path id="gl260" d="M 15 7 C 7 11 6 14 11 22 C 11 23 12 25 13 27 C 13 45 13 63 13 82 C 14 147 14 147 8 153 C 1 160 3 163 23 163 C 41 163 44 160 36 152 C 35 151 33 149 31 147 C 31 124 31 100 31 77 C 31 2 31 3 25 3 C 24 3 19 6 15 7 z" fill="black"/><!-- width=51 height=172 -->
<path id="gl260" d="M 15 7 C 7 11 6 14 11 22 C 11 23 12 25 13 27 C 13 45 13 63 13 82 C 14 147 14 147 8 153 C 1 160 3 163 23 163 C 41 163 44 160 36 152 C 35 151 33 149 31 147 C 31 124 31 100 31 77 C 31 2 31 3 25 3 C 24 3 19 6 15 7 z" fill="black"/><!-- width=51 height=172 -->
<path id="gl9" d="M 37 7 C 20 12 7 22 7 31 C 7 41 23 38 27 27 C 31 18 37 15 46 17 C 52 20 55 25 55 35 C 56 47 53 48 37 55 C 13 61 7 66 7 78 C 7 96 25 105 43 95 C 52 91 55 91 62 96 C 72 103 95 96 88 88 C 87 87 85 87 82 87 C 71 87 70 81 72 51 C 72 33 72 27 72 22 C 68 8 53 2 37 7 M 53 63 C 58 71 51 86 42 87 C 20 87 21 68 42 61 C 48 60 51 60 53 63 z" fill="black"/><!-- width=98 height=110 -->
<path id="gl512" d="M 20 8 C 9 13 7 17 13 24 C 14 26 15 27 17 29 C 17 48 17 69 17 88 C 17 108 17 127 17 148 C 14 149 13 152 10 153 C 4 159 4 161 7 163 C 9 164 42 164 43 163 C 47 161 46 158 41 154 C 34 149 34 149 35 76 C 35 -1 36 1 20 8 z" fill="black"/><!-- width=55 height=175 -->
<path id="gl264" d="M 122 6 C 119 7 119 9 122 15 C 125 20 125 20 118 42 C 111 58 109 62 105 60 C 103 59 103 58 96 41 C 87 20 87 19 94 13 C 97 10 98 9 97 8 C 96 6 93 6 77 6 C 60 6 60 6 60 8 C 59 10 62 13 65 17 C 73 23 73 26 65 43 C 55 68 53 68 42 41 C 36 23 36 19 40 14 C 45 7 42 6 24 6 C 2 6 0 7 10 17 C 13 20 17 25 18 27 C 24 41 36 71 40 82 C 41 87 43 93 45 94 C 49 99 54 96 57 86 C 63 65 74 43 77 43 C 81 43 87 60 96 83 C 98 93 101 97 105 96 C 108 96 109 92 115 77 C 116 74 120 65 122 58 C 125 52 130 41 133 35 C 137 25 139 21 144 17 C 152 9 152 9 149 6 C 146 3 127 3 122 6 z" fill="black"/><!-- width=160 height=107 -->
<path id="gl7" d="M 37 6 C 18 9 1 26 4 33 C 8 41 19 36 24 26 C 26 19 31 16 36 16 C 47 16 50 22 50 36 C 50 47 48 49 33 54 C 9 60 2 68 4 83 C 7 98 23 104 39 95 C 42 94 46 92 48 90 C 50 92 54 94 57 95 C 65 100 72 101 78 96 C 87 93 87 88 78 87 C 68 85 65 79 68 54 C 69 23 68 13 58 8 C 52 4 43 3 37 6 M 48 62 C 57 70 48 88 34 88 C 17 88 18 68 37 62 C 44 58 44 58 48 62 z" fill="black"/><!-- width=94 height=110 -->
<path id="gl776" d="M 8 6 C 4 7 6 10 10 14 C 18 19 20 23 30 49 C 43 86 43 90 37 106 C 30 119 28 123 19 125 C 10 129 8 131 8 137 C 8 143 13 147 20 147 C 29 147 35 139 58 85 C 62 76 67 65 69 60 C 73 57 78 46 82 37 C 89 24 91 20 96 17 C 107 7 104 3 86 3 C 69 3 64 7 71 13 C 75 18 74 23 69 39 C 57 68 54 69 45 40 C 39 21 39 19 42 14 C 45 9 45 7 41 4 C 37 3 12 3 8 6 z" fill="black"/><!-- width=112 height=157 -->
<path id="gl257" d="M 31 6 C 24 8 17 13 13 20 C 6 35 11 45 33 58 C 48 69 52 77 45 85 C 37 94 25 91 19 80 C 11 66 3 67 6 82 C 7 93 13 99 28 100 C 53 104 72 83 62 62 C 60 55 56 52 42 44 C 26 34 22 26 30 18 C 37 12 46 14 53 24 C 60 33 67 29 64 18 C 62 7 50 3 31 6 z" fill="black"/><!-- width=78 height=112 -->
<path id="gl261" d="M 39 6 C 18 10 7 26 7 54 C 7 73 9 79 18 87 C 32 102 63 102 75 87 C 83 80 76 76 67 81 C 46 92 23 75 21 51 C 21 40 23 39 50 40 C 76 41 80 40 81 30 C 81 13 59 1 39 6 M 54 15 C 62 18 62 28 54 30 C 50 32 34 32 30 31 C 28 29 28 25 32 20 C 37 14 46 12 54 15 z" fill="black"/><!-- width=91 height=111 -->
<path id="gl5395" d="M 72 3 C 60 5 59 6 60 12 C 64 21 55 35 49 31 C 41 28 37 18 41 12 C 45 5 42 3 22 5 C 17 5 11 5 6 5 C 6 6 6 7 6 8 C 5 11 6 12 12 15 C 20 20 40 45 40 50 C 40 56 17 82 11 84 C 6 85 5 86 5 90 C 5 94 6 94 21 94 C 35 94 37 94 36 89 C 36 87 35 84 35 82 C 33 79 40 66 43 64 C 51 59 65 80 57 85 C 54 89 52 90 55 92 C 56 95 94 95 95 92 C 98 90 96 87 90 85 C 84 81 80 77 67 60 C 61 52 57 46 57 43 C 57 37 76 17 85 15 C 92 12 95 8 92 6 C 90 3 85 3 72 3 z" fill="black"/><!-- width=106 height=105 -->
<path id="gl9729" d="M 17 7 C 7 13 6 14 11 23 C 13 29 13 29 13 83 C 13 100 13 119 13 136 C 12 137 11 138 11 139 C 6 146 4 148 6 150 C 8 152 41 153 44 152 C 47 149 46 147 41 143 C 33 139 31 137 31 121 C 30 103 31 99 44 99 C 62 99 74 95 85 85 C 110 62 104 17 74 7 C 67 4 54 4 47 8 C 40 12 35 12 31 8 C 29 3 25 3 17 7 M 58 20 C 83 24 88 72 65 87 C 55 93 39 89 34 81 C 31 77 30 40 33 31 C 34 24 42 18 50 19 C 51 19 55 20 58 20 z" fill="black"/><!-- width=111 height=163 -->
<path id="gl22533" d="M 38 6 C 27 9 16 19 11 30 C 6 42 6 66 11 78 C 18 94 27 99 48 99 C 60 99 61 99 68 95 C 78 89 81 85 80 80 C 80 75 76 75 70 80 C 50 94 21 75 21 49 C 21 40 22 40 52 40 C 75 40 78 40 80 38 C 87 29 76 11 61 6 C 56 4 44 4 38 6 M 54 14 C 59 17 63 21 63 26 C 63 30 59 32 43 30 C 28 30 28 30 28 28 C 27 23 34 17 42 16 C 49 13 49 13 54 14 z" fill="black"/><!-- width=91 height=111 -->
<path id="gl518" d="M 21 7 C 10 12 7 15 12 22 C 15 27 15 28 15 55 C 15 64 15 73 15 81 C 13 83 12 84 10 86 C 2 94 3 95 25 97 C 44 97 49 97 47 93 C 47 90 46 89 40 86 C 34 85 32 83 32 57 C 32 35 32 28 36 23 C 39 21 46 21 50 23 C 62 30 74 18 65 8 C 60 5 55 5 46 10 C 37 13 36 13 32 8 C 28 3 30 3 21 7 z" fill="black"/><!-- width=78 height=107 -->
<path id="gl2" d="M 18 4 C 11 8 9 19 14 25 C 27 37 43 19 32 7 C 28 3 23 3 18 4 M 18 61 C 9 66 8 70 13 79 C 14 82 16 85 14 110 C 14 119 14 128 14 137 C 13 139 12 140 9 142 C 4 148 4 148 7 150 C 8 152 12 152 24 152 C 45 152 48 150 39 140 C 37 139 35 138 34 137 C 34 124 34 112 34 100 C 34 79 33 61 33 60 C 32 58 25 58 18 61 z" fill="black"/><!-- width=54 height=163 -->
<path id="gl773" d="M 46 6 C 46 6 37 7 27 7 C 7 8 4 9 4 16 C 4 22 9 23 26 21 C 34 19 43 18 47 18 C 57 18 62 16 62 12 C 62 6 52 3 46 6 z" fill="black"/><!-- width=71 height=33 -->
<path id="gl6" d="M 39 3 C 18 9 7 26 7 52 C 7 80 22 96 50 94 C 65 94 78 86 78 78 C 78 74 75 74 67 78 C 47 88 21 72 21 47 C 21 37 23 37 50 37 C 78 37 79 37 80 29 C 83 13 59 0 39 3 M 57 14 C 67 22 59 29 42 29 C 29 29 26 27 29 21 C 34 12 50 8 57 14 z" fill="black"/><!-- width=91 height=106 -->
<path id="gl3" d="M 20 8 C 10 13 8 16 13 23 C 16 27 16 28 16 50 C 17 79 16 83 10 89 C 2 96 3 98 25 99 C 46 99 49 96 40 88 C 39 86 36 85 35 84 C 35 75 35 66 35 57 C 33 23 36 20 54 20 C 73 20 75 23 75 56 C 74 83 74 85 67 89 C 64 93 64 96 67 98 C 71 99 101 99 104 98 C 105 95 104 91 99 89 C 94 85 94 83 93 52 C 93 25 93 23 90 18 C 81 3 67 2 44 12 C 39 13 39 13 36 10 C 31 5 27 5 20 8 z" fill="black"/><!-- width=115 height=110 -->
<path id="gl777" d="M 44 6 C 29 9 18 17 12 29 C 3 48 7 75 19 86 C 37 103 68 101 83 85 C 91 75 85 68 75 75 C 68 81 65 83 55 83 C 31 83 16 55 28 32 C 37 13 55 11 72 23 C 79 31 89 21 84 11 C 80 4 58 2 44 6 z" fill="black"/><!-- width=98 height=110 -->
<path id="gl6" d="M 39 3 C 18 9 7 26 7 52 C 7 80 22 96 50 94 C 65 94 78 86 78 78 C 78 74 75 74 67 78 C 47 88 21 72 21 47 C 21 37 23 37 50 37 C 78 37 79 37 80 29 C 83 13 59 0 39 3 M 57 14 C 67 22 59 29 42 29 C 29 29 26 27 29 21 C 34 12 50 8 57 14 z" fill="black"/><!-- width=91 height=106 -->
<path id="gl8" d="M 20 8 C 9 12 8 16 13 25 C 14 26 15 29 15 30 C 15 49 15 67 15 87 C 15 148 16 148 9 154 C 6 158 4 159 6 160 C 8 163 41 164 43 162 C 45 160 45 157 41 153 C 38 152 36 148 36 147 C 35 142 35 95 36 93 C 41 84 55 82 64 87 C 75 91 76 95 75 124 C 75 131 75 140 75 148 C 73 150 71 151 70 153 C 64 158 64 158 65 162 C 67 165 104 164 106 160 C 107 158 107 158 104 156 C 94 148 93 145 94 118 C 95 99 94 89 89 82 C 81 71 66 67 52 73 C 36 81 33 78 35 61 C 36 44 36 9 35 7 C 32 4 27 4 20 8 z" fill="black"/><!-- width=117 height=174 -->
<path id="gl2" d="M 18 4 C 11 8 9 19 14 25 C 27 37 43 19 32 7 C 28 3 23 3 18 4 M 18 61 C 9 66 8 70 13 79 C 14 82 16 85 14 110 C 14 119 14 128 14 137 C 13 139 12 140 9 142 C 4 148 4 148 7 150 C 8 152 12 152 24 152 C 45 152 48 150 39 140 C 37 139 35 138 34 137 C 34 124 34 112 34 100 C 34 79 33 61 33 60 C 32 58 25 58 18 61 z" fill="black"/><!-- width=54 height=163 -->
<path id="gl521" d="M 35 6 C 11 11 1 37 15 58 C 20 64 20 68 17 73 C 7 81 7 85 14 95 C 20 102 20 105 14 112 C 7 119 6 122 6 129 C 6 165 77 163 92 128 C 101 111 96 94 80 89 C 77 88 70 86 55 88 C 34 88 34 88 30 85 C 22 77 28 69 46 67 C 68 66 77 58 80 37 C 81 28 84 24 90 23 C 103 20 97 11 83 11 C 78 11 72 11 66 8 C 55 4 42 3 35 6 M 55 17 C 68 29 63 57 47 59 C 37 62 28 50 28 36 C 28 19 44 8 55 17 M 73 105 C 85 112 83 132 68 139 C 59 143 42 143 34 139 C 18 130 20 107 39 102 C 47 101 67 102 73 105 z" fill="black"/><!-- width=106 height=166 -->
<path id="gl8" d="M 20 8 C 9 12 8 16 13 25 C 14 26 15 29 15 30 C 15 49 15 67 15 87 C 15 148 16 148 9 154 C 6 158 4 159 6 160 C 8 163 41 164 43 162 C 45 160 45 157 41 153 C 38 152 36 148 36 147 C 35 142 35 95 36 93 C 41 84 55 82 64 87 C 75 91 76 95 75 124 C 75 131 75 140 75 148 C 73 150 71 151 70 153 C 64 158 64 158 65 162 C 67 165 104 164 106 160 C 107 158 107 158 104 156 C 94 148 93 145 94 118 C 95 99 94 89 89 82 C 81 71 66 67 52 73 C 36 81 33 78 35 61 C 36 44 36 9 35 7 C 32 4 27 4 20 8 z" fill="black"/><!-- width=117 height=174 -->
<path id="gl519" d="M 11 5 C 3 8 5 19 12 22 C 24 29 22 40 11 48 C 2 53 2 58 11 57 C 22 54 33 39 33 25 C 33 13 20 1 11 5 z" fill="black"/><!-- width=44 height=67 -->
<path id="gl5391" d="M 36 5 C 17 12 7 26 6 49 C 3 78 20 98 46 98 C 65 98 88 83 79 75 C 78 73 71 75 70 76 C 70 78 66 80 64 81 C 45 89 22 73 21 49 C 21 39 21 39 47 39 C 79 40 83 39 80 25 C 78 10 54 0 36 5 M 58 16 C 61 20 63 23 60 27 C 56 31 30 31 27 27 C 22 18 47 8 58 16 z" fill="black"/><!-- width=92 height=109 -->
<path id="gl772" d="M 7 7 C 5 10 6 12 12 17 C 18 21 35 42 37 49 C 40 55 25 74 10 85 C 6 89 5 89 6 92 C 8 94 8 95 18 95 C 32 95 34 94 34 85 C 32 75 39 64 45 64 C 49 64 54 69 56 75 C 59 79 59 80 56 85 C 54 94 55 95 73 95 C 93 95 97 93 85 84 C 78 78 59 55 58 49 C 55 41 66 25 79 17 C 93 10 92 6 74 6 C 60 6 60 6 59 16 C 59 31 50 37 42 29 C 39 25 37 21 39 13 C 40 7 37 6 22 6 C 13 6 8 6 7 7 z" fill="black"/><!-- width=102 height=104 -->
<path id="gl777" d="M 44 6 C 29 9 18 17 12 29 C 3 48 7 75 19 86 C 37 103 68 101 83 85 C 91 75 85 68 75 75 C 68 81 65 83 55 83 C 31 83 16 55 28 32 C 37 13 55 11 72 23 C 79 31 89 21 84 11 C 80 4 58 2 44 6 z" fill="black"/><!-- width=98 height=110 -->
<path id="gl6" d="M 39 3 C 18 9 7 26 7 52 C 7 80 22 96 50 94 C 65 94 78 86 78 78 C 78 74 75 74 67 78 C 47 88 21 72 21 47 C 21 37 23 37 50 37 C 78 37 79 37 80 29 C 83 13 59 0 39 3 M 57 14 C 67 22 59 29 42 29 C 29 29 26 27 29 21 C 34 12 50 8 57 14 z" fill="black"/><!-- width=91 height=106 -->
<path id="gl514" d="M 28 6 C 17 9 9 18 9 29 C 9 41 13 46 32 57 C 47 67 50 73 46 82 C 39 93 26 90 17 77 C 13 70 12 69 9 70 C 6 70 6 70 6 78 C 6 93 12 96 31 96 C 52 96 62 89 63 74 C 64 60 58 52 41 42 C 27 34 23 28 27 21 C 31 11 41 11 50 21 C 59 29 64 29 63 18 C 62 8 55 4 42 4 C 37 4 31 4 28 6 z" fill="black"/><!-- width=75 height=108 -->
<path id="gl514" d="M 28 6 C 17 9 9 18 9 29 C 9 41 13 46 32 57 C 47 67 50 73 46 82 C 39 93 26 90 17 77 C 13 70 12 69 9 70 C 6 70 6 70 6 78 C 6 93 12 96 31 96 C 52 96 62 89 63 74 C 64 60 58 52 41 42 C 27 34 23 28 27 21 C 31 11 41 11 50 21 C 59 29 64 29 63 18 C 62 8 55 4 42 4 C 37 4 31 4 28 6 z" fill="black"/><!-- width=75 height=108 -->
<path id="gl2" d="M 18 4 C 11 8 9 19 14 25 C 27 37 43 19 32 7 C 28 3 23 3 18 4 M 18 61 C 9 66 8 70 13 79 C 14 82 16 85 14 110 C 14 119 14 128 14 137 C 13 139 12 140 9 142 C 4 148 4 148 7 150 C 8 152 12 152 24 152 C 45 152 48 150 39 140 C 37 139 35 138 34 137 C 34 124 34 112 34 100 C 34 79 33 61 33 60 C 32 58 25 58 18 61 z" fill="black"/><!-- width=54 height=163 -->
<path id="gl1025" d="M 7 8 C 4 11 4 11 12 17 C 18 23 19 24 26 38 C 28 47 33 59 36 65 C 39 72 42 80 43 84 C 48 102 54 100 62 80 C 67 68 70 60 84 31 C 88 24 90 19 95 16 C 102 11 102 9 99 7 C 97 4 77 4 72 6 C 69 7 69 12 72 16 C 74 19 74 22 68 37 C 62 56 59 63 57 63 C 54 63 51 59 48 51 C 46 46 43 38 42 34 C 38 26 38 18 41 14 C 46 7 42 4 23 4 C 11 4 9 6 7 8 z" fill="black"/><!-- width=110 height=107 -->
<path id="gl261" d="M 39 6 C 18 10 7 26 7 54 C 7 73 9 79 18 87 C 32 102 63 102 75 87 C 83 80 76 76 67 81 C 46 92 23 75 21 51 C 21 40 23 39 50 40 C 76 41 80 40 81 30 C 81 13 59 1 39 6 M 54 15 C 62 18 62 28 54 30 C 50 32 34 32 30 31 C 28 29 28 25 32 20 C 37 14 46 12 54 15 z" fill="black"/><!-- width=91 height=111 -->
<path id="gl7" d="M 37 6 C 18 9 1 26 4 33 C 8 41 19 36 24 26 C 26 19 31 16 36 16 C 47 16 50 22 50 36 C 50 47 48 49 33 54 C 9 60 2 68 4 83 C 7 98 23 104 39 95 C 42 94 46 92 48 90 C 50 92 54 94 57 95 C 65 100 72 101 78 96 C 87 93 87 88 78 87 C 68 85 65 79 68 54 C 69 23 68 13 58 8 C 52 4 43 3 37 6 M 48 62 C 57 70 48 88 34 88 C 17 88 18 68 37 62 C 44 58 44 58 48 62 z" fill="black"/><!-- width=94 height=110 -->
<path id="gl3" d="M 20 8 C 10 13 8 16 13 23 C 16 27 16 28 16 50 C 17 79 16 83 10 89 C 2 96 3 98 25 99 C 46 99 49 96 40 88 C 39 86 36 85 35 84 C 35 75 35 66 35 57 C 33 23 36 20 54 20 C 73 20 75 23 75 56 C 74 83 74 85 67 89 C 64 93 64 96 67 98 C 71 99 101 99 104 98 C 105 95 104 91 99 89 C 94 85 94 83 93 52 C 93 25 93 23 90 18 C 81 3 67 2 44 12 C 39 13 39 13 36 10 C 31 5 27 5 20 8 z" fill="black"/><!-- width=115 height=110 -->
<path id="gl772" d="M 7 7 C 5 10 6 12 12 17 C 18 21 35 42 37 49 C 40 55 25 74 10 85 C 6 89 5 89 6 92 C 8 94 8 95 18 95 C 32 95 34 94 34 85 C 32 75 39 64 45 64 C 49 64 54 69 56 75 C 59 79 59 80 56 85 C 54 94 55 95 73 95 C 93 95 97 93 85 84 C 78 78 59 55 58 49 C 55 41 66 25 79 17 C 93 10 92 6 74 6 C 60 6 60 6 59 16 C 59 31 50 37 42 29 C 39 25 37 21 39 13 C 40 7 37 6 22 6 C 13 6 8 6 7 7 z" fill="black"/><!-- width=102 height=104 -->
<path id="gl2" d="M 18 4 C 11 8 9 19 14 25 C 27 37 43 19 32 7 C 28 3 23 3 18 4 M 18 61 C 9 66 8 70 13 79 C 14 82 16 85 14 110 C 14 119 14 128 14 137 C 13 139 12 140 9 142 C 4 148 4 148 7 150 C 8 152 12 152 24 152 C 45 152 48 150 39 140 C 37 139 35 138 34 137 C 34 124 34 112 34 100 C 34 79 33 61 33 60 C 32 58 25 58 18 61 z" fill="black"/><!-- width=54 height=163 -->
<path id="gl261" d="M 39 6 C 18 10 7 26 7 54 C 7 73 9 79 18 87 C 32 102 63 102 75 87 C 83 80 76 76 67 81 C 46 92 23 75 21 51 C 21 40 23 39 50 40 C 76 41 80 40 81 30 C 81 13 59 1 39 6 M 54 15 C 62 18 62 28 54 30 C 50 32 34 32 30 31 C 28 29 28 25 32 20 C 37 14 46 12 54 15 z" fill="black"/><!-- width=91 height=111 -->
<path id="gl23809" d="M 24 4 C 24 4 21 8 19 10 C 18 13 14 15 12 18 C 4 20 4 23 9 28 C 10 29 12 30 14 31 C 14 42 14 52 14 63 C 14 98 14 98 25 105 C 35 109 56 107 59 98 C 61 94 58 92 48 94 C 41 95 41 95 36 91 C 35 90 34 89 32 87 C 32 78 32 69 32 59 C 31 25 31 26 45 28 C 58 29 67 26 68 23 C 69 17 69 17 52 17 C 35 17 34 15 32 9 C 32 7 31 4 30 3 C 26 2 26 2 24 4 z" fill="black"/><!-- width=75 height=117 -->
<path id="gl263" d="M 9 4 C 4 7 4 9 9 16 C 16 22 17 22 26 46 C 41 86 42 89 33 107 C 27 119 23 123 16 125 C 3 129 2 144 14 147 C 24 149 29 142 53 88 C 57 79 63 67 66 62 C 69 56 74 44 78 37 C 82 29 87 22 91 17 C 100 7 99 3 82 3 C 67 3 63 6 69 14 C 72 19 72 22 66 38 C 58 58 57 61 53 61 C 49 61 47 57 41 39 C 36 23 36 19 38 13 C 41 9 41 8 38 7 C 36 4 14 3 9 4 z" fill="black"/><!-- width=107 height=157 -->
<path id="gl516" d="M 15 7 C 2 11 5 31 18 31 C 30 31 35 18 27 10 C 24 9 23 7 22 7 C 22 7 20 6 19 6 C 19 6 17 6 15 7 z" fill="black"/><!-- width=44 height=43 -->
<path id="gl1797" d="M 12 7 C 7 10 3 31 6 35 C 8 39 9 38 16 31 C 25 21 29 20 44 20 C 66 19 64 13 64 81 C 64 148 65 142 48 151 C 44 152 43 154 45 157 C 48 160 99 160 101 157 C 103 153 102 152 96 148 C 84 143 85 147 85 82 C 85 62 85 43 85 24 C 87 24 88 22 89 21 C 91 19 93 19 106 20 C 124 20 125 21 134 33 C 137 39 141 39 143 36 C 145 33 146 27 146 20 C 147 7 146 4 139 6 C 136 6 131 7 129 7 C 125 8 102 8 76 8 C 32 8 29 8 22 6 C 14 3 15 3 12 7 z" fill="black"/><!-- width=157 height=169 -->
<path id="gl17667" d="M 8 7 C 6 9 7 12 13 16 C 22 21 22 21 21 81 C 21 142 21 139 11 144 C 6 147 3 152 7 153 C 8 153 19 153 33 153 C 55 154 58 153 59 152 C 61 148 59 147 51 143 C 42 141 42 138 42 111 C 42 82 40 82 63 84 C 79 85 79 85 86 97 C 89 101 90 102 94 100 C 97 97 97 61 94 58 C 91 55 87 56 84 64 C 80 71 76 72 60 74 C 40 74 42 75 42 44 C 42 37 42 29 42 21 C 42 21 43 19 44 18 C 45 17 47 16 48 14 C 53 14 58 16 63 16 C 82 17 86 18 91 27 C 100 40 105 38 103 21 C 103 4 107 4 54 4 C 17 4 8 6 8 7 z" fill="black"/><!-- width=113 height=163 -->
</defs>
<use xlink:href="#gl23831" x="0" y="67"/>
<use xlink:href="#gl516" x="78" y="134"/>
<use xlink:href="#gl1550" x="355" y="11"/>
<use xlink:href="#gl5" x="482" y="67"/>
<use xlink:href="#gl2" x="572" y="11"/>
<use xlink:href="#gl3" x="628" y="67"/>
<use xlink:href="#gl521" x="740" y="68"/>
<use xlink:href="#gl9" x="892" y="67"/>
<use xlink:href="#gl3" x="985" y="66"/>
<use xlink:href="#gl9" x="1152" y="67"/>
<use xlink:href="#gl3" x="1244" y="66"/>
<use xlink:href="#gl772" x="1355" y="70"/>
<use xlink:href="#gl2" x="1456" y="11"/>
<use xlink:href="#gl0" x="1509" y="67"/>
<use xlink:href="#gl6423" x="1618" y="66"/>
<use xlink:href="#gl257" x="1728" y="67"/>
<use xlink:href="#gl1024" x="1860" y="67"/>
<use xlink:href="#gl522" x="1969" y="65"/>
<use xlink:href="#gl4" x="2059" y="66"/>
<use xlink:href="#gl257" x="2125" y="67"/>
<use xlink:href="#gl5400" x="2199" y="67"/>
<use xlink:href="#gl3" x="2307" y="66"/>
<use xlink:href="#gl259" x="2477" y="66"/>
<use xlink:href="#gl522" x="2650" y="66"/>
<use xlink:href="#gl7" x="2737" y="68"/>
<use xlink:href="#gl3" x="2826" y="67"/>
<use xlink:href="#gl257" x="2937" y="67"/>
<use xlink:href="#gl1" x="3068" y="58"/>
<use xlink:href="#gl8" x="3133" y="1"/>
<use xlink:href="#gl9" x="3245" y="67"/>
<use xlink:href="#gl770" x="3340" y="58"/>
<use xlink:href="#gl9500" x="3462" y="11"/>
<use xlink:href="#gl264" x="3582" y="69"/>
<use xlink:href="#gl2" x="3736" y="11"/>
<use xlink:href="#gl260" x="3793" y="3"/>
<use xlink:href="#gl260" x="3847" y="2"/>
<use xlink:href="#gl9" x="3952" y="67"/>
<use xlink:href="#gl512" x="4042" y="0"/>
<use xlink:href="#gl264" x="4093" y="69"/>
<use xlink:href="#gl7" x="4245" y="67"/>
<use xlink:href="#gl776" x="4325" y="71"/>
<use xlink:href="#gl257" x="4426" y="67"/>
<use xlink:href="#gl261" x="4556" y="67"/>
<use xlink:href="#gl5395" x="4638" y="70"/>
<use xlink:href="#gl9729" x="4738" y="67"/>
<use xlink:href="#gl22533" x="4848" y="66"/>
<use xlink:href="#gl518" x="4939" y="67"/>
<use xlink:href="#gl2" x="5012" y="12"/>
<use xlink:href="#gl773" x="5066" y="102"/>
<use xlink:href="#gl6" x="351" y="388"/>
<use xlink:href="#gl3" x="438" y="385"/>
<use xlink:href="#gl777" x="550" y="387"/>
<use xlink:href="#gl6" x="640" y="389"/>
<use xlink:href="#gl8" x="781" y="319"/>
<use xlink:href="#gl2" x="898" y="329"/>
<use xlink:href="#gl521" x="950" y="387"/>
<use xlink:href="#gl8" x="1048" y="319"/>
<use xlink:href="#gl519" x="1169" y="448"/>
<use xlink:href="#gl5391" x="1273" y="388"/>
<use xlink:href="#gl772" x="1357" y="388"/>
<use xlink:href="#gl777" x="1452" y="387"/>
<use xlink:href="#gl6" x="1542" y="389"/>
<use xlink:href="#gl514" x="1627" y="388"/>
<use xlink:href="#gl514" x="1699" y="388"/>
<use xlink:href="#gl2" x="1773" y="331"/>
<use xlink:href="#gl1025" x="1820" y="388"/>
<use xlink:href="#gl261" x="1924" y="385"/>
<use xlink:href="#gl7" x="2066" y="386"/>
<use xlink:href="#gl3" x="2154" y="384"/>
<use xlink:href="#gl772" x="2266" y="388"/>
<use xlink:href="#gl2" x="2366" y="330"/>
<use xlink:href="#gl261" x="2421" y="386"/>
<use xlink:href="#gl23809" x="2507" y="378"/>
<use xlink:href="#gl263" x="2570" y="391"/>
<use xlink:href="#gl516" x="2657" y="452"/>
<use xlink:href="#gl1797" x="5525" y="324"/>
<use xlink:href="#gl17667" x="6120" y="329"/>
</svg>