<svg xmlns="http://www.w3.org/2000/svg" xmlns:xlink="http://www.w3.org/1999/xlink" width="194px" height="37px" viewBox="0 0 1944 370" version="1.1">
<defs>
<path id="gl5643" d="M 66 9 C 62 10 54 15 48 19 C 15 37 8 60 8 158 C 8 229 13 255 30 272 C 36 278 54 288 62 292 C 70 295 91 293 105 291 C 142 284 155 269 164 227 C 170 194 170 192 142 193 C 118 193 119 192 118 214 C 117 245 108 257 90 255 C 71 252 62 244 59 223 C 55 206 55 97 58 83 C 62 58 70 50 93 48 C 107 45 116 56 117 81 C 118 97 120 99 146 99 C 168 99 169 96 164 71 C 158 37 143 19 116 13 C 89 7 78 6 66 9 z" fill="black"/><!-- width=177 height=307 -->
<path id="gl17670" d="M 28 9 C 25 10 20 12 19 12 C 13 13 13 10 13 79 C 13 114 12 158 10 177 C 10 200 10 217 10 226 C 12 234 13 248 13 258 C 12 266 12 275 13 277 C 13 278 13 281 14 282 C 21 288 50 291 55 287 C 58 282 60 271 56 255 C 54 242 54 237 54 183 C 54 164 55 145 55 127 C 55 124 56 122 57 120 C 64 103 87 100 96 116 C 99 123 99 130 98 168 C 97 198 97 210 99 226 C 99 238 100 255 100 264 C 99 285 99 285 117 285 C 148 287 150 284 144 245 C 141 229 141 225 142 184 C 145 105 145 106 135 93 C 121 72 94 68 68 86 C 63 90 60 90 57 87 C 54 84 54 79 56 48 C 58 8 60 9 44 8 C 38 8 33 8 28 9 z" fill="black"/><!-- width=158 height=297 -->
<path id="gl10260" d="M 51 8 C 50 8 44 10 38 14 C 26 19 26 19 21 26 C 12 42 7 61 12 68 C 15 74 34 77 44 72 C 49 69 50 68 53 55 C 56 44 62 39 77 39 C 92 39 101 48 101 62 C 100 78 89 88 65 95 C 56 96 41 103 30 108 C 26 110 19 120 14 131 C 0 157 10 208 32 220 C 47 227 73 221 88 209 C 95 202 97 202 103 209 C 104 212 107 213 108 215 C 113 215 118 217 123 217 C 131 218 138 219 139 219 C 142 219 143 219 145 218 C 145 217 147 215 148 215 C 147 211 147 207 145 202 C 142 180 141 123 143 75 C 144 55 144 51 142 44 C 138 32 137 30 127 24 C 113 14 98 10 75 10 C 68 10 60 9 59 9 C 56 8 53 8 51 8 M 92 113 C 96 114 98 120 98 135 C 97 179 92 190 72 190 C 63 190 62 190 59 186 C 51 179 49 172 49 160 C 49 142 55 132 77 118 C 86 113 89 112 92 113 z" fill="black"/><!-- width=159 height=236 -->
<path id="gl17671" d="M 80 9 C 77 10 72 13 67 16 C 59 24 56 24 51 16 C 45 10 43 9 28 9 C 9 9 8 12 9 27 C 10 43 10 254 9 267 C 8 284 9 285 25 286 C 38 288 43 286 46 280 C 48 279 49 278 50 277 C 50 266 49 255 49 244 C 49 200 50 197 67 209 C 98 233 136 220 142 183 C 142 178 143 155 143 120 C 142 61 142 53 139 42 C 138 39 137 33 137 31 C 132 14 101 3 80 9 M 85 40 C 91 44 95 49 97 57 C 98 69 98 166 96 173 C 89 198 59 195 53 168 C 50 157 50 74 53 63 C 56 44 71 34 85 40 z" fill="black"/><!-- width=157 height=300 -->
<path id="gl4625" d="M 28 7 C 23 9 22 14 23 37 C 23 45 23 52 24 60 C 23 61 22 62 20 63 C 19 64 17 67 15 67 C 9 67 7 72 7 80 C 7 91 8 95 15 97 C 24 101 24 97 24 176 C 24 255 24 253 31 260 C 39 268 45 270 64 270 C 84 270 86 269 89 263 C 90 255 89 238 86 237 C 86 237 83 237 79 236 C 67 231 68 236 68 165 C 68 145 67 124 67 104 C 68 102 69 101 71 100 C 73 97 75 97 79 97 C 86 97 89 94 89 80 C 89 69 86 68 79 67 C 68 64 68 63 68 36 C 69 8 69 9 55 7 C 44 6 30 6 28 7 z" fill="black"/><!-- width=100 height=282 -->
<path id="gl17672" d="M 77 10 C 68 10 48 16 39 20 C 25 26 15 40 12 61 C 7 85 10 175 16 192 C 21 205 38 220 52 222 C 55 222 62 225 68 226 C 107 237 144 208 144 168 C 144 156 144 156 120 155 C 97 155 98 154 97 169 C 96 189 92 192 78 193 C 63 195 56 190 52 174 C 50 163 49 139 50 136 C 55 128 60 126 69 130 C 75 131 99 131 107 128 C 113 127 116 126 126 127 C 146 128 146 128 144 93 C 143 46 138 33 116 20 C 104 12 91 9 77 10 M 81 46 C 95 51 101 60 101 75 C 101 91 98 92 81 95 C 74 95 67 96 66 96 C 55 97 50 90 50 75 C 50 58 56 48 67 46 C 69 46 72 45 73 45 C 75 44 75 45 81 46 z" fill="black"/><!-- width=158 height=240 -->
<path id="gl4627" d="M 81 8 C 73 12 68 15 65 20 C 56 36 47 38 47 22 C 47 12 46 12 28 12 C 17 12 13 12 11 13 C 9 14 8 14 7 15 C 7 47 8 79 8 113 C 8 200 8 210 11 211 C 13 215 45 215 49 212 C 52 210 52 210 51 150 C 50 89 51 84 57 75 C 61 68 73 62 83 62 C 94 62 95 61 95 34 C 95 11 95 11 93 8 C 89 4 87 4 81 8 z" fill="black"/><!-- width=106 height=226 -->
<path id="gl17673" d="M 73 9 C 34 18 24 26 15 51 C 8 72 9 86 16 87 C 21 88 46 87 49 86 C 52 84 55 79 55 68 C 55 46 75 38 94 51 C 106 60 106 96 94 106 C 88 112 78 116 69 117 C 58 118 56 122 57 138 C 57 151 58 152 69 153 C 92 158 99 162 105 174 C 106 177 108 180 109 182 C 108 189 108 196 108 202 C 106 241 102 252 82 253 C 72 254 66 253 60 247 C 52 241 51 235 51 214 C 51 193 51 193 30 193 C 12 193 9 194 8 198 C 6 202 8 228 10 237 C 12 241 12 246 12 247 C 12 252 20 266 25 271 C 39 286 86 295 108 286 C 140 274 154 249 154 205 C 154 170 151 160 136 146 C 123 135 123 133 135 121 C 150 104 153 88 148 60 C 145 40 134 25 123 21 C 121 21 117 19 115 16 C 109 10 104 8 99 9 C 97 9 91 8 88 8 C 84 8 78 8 73 9 z" fill="black"/><!-- width=169 height=303 -->
</defs>
<use xlink:href="#gl5643" x="0" y="0"/>
<use xlink:href="#gl17670" x="268" y="2"/>
<use xlink:href="#gl10260" x="515" y="69"/>
<use xlink:href="#gl17671" x="768" y="70"/>
<use xlink:href="#gl4625" x="1003" y="18"/>
<use xlink:href="#gl17672" x="1184" y="65"/>
<use xlink:href="#gl4627" x="1438" y="71"/>
<use xlink:href="#gl17673" x="1775" y="2"/>
</svg>