<svg xmlns="http://www.w3.org/2000/svg" xmlns:xlink="http://www.w3.org/1999/xlink" width="545px" height="35px" viewBox="0 0 5451 355" version="1.1">
<defs>
<path id="gl10262" d="M 125 4 C 120 4 107 4 96 4 C 76 3 75 3 73 6 C 70 9 71 10 80 14 C 93 21 94 26 83 64 C 71 103 63 132 51 170 C 48 178 43 191 42 197 C 34 225 27 232 10 237 C 7 238 6 238 6 242 C 6 243 6 245 6 245 C 10 245 153 247 158 247 C 164 245 170 239 177 223 C 185 208 186 204 183 200 C 181 197 176 199 171 206 C 165 215 155 225 146 228 C 137 231 135 232 111 233 C 75 234 68 232 64 221 C 63 214 63 211 81 153 C 90 131 102 86 105 74 C 109 58 116 36 120 29 C 125 21 130 18 141 15 C 154 13 157 9 148 4 C 144 2 141 2 125 4 z" fill="black"/><!-- width=195 height=255 -->
<path id="gl6150" d="M 86 6 C 45 17 4 76 8 122 C 9 151 26 161 54 152 C 73 144 91 128 86 122 C 84 120 83 121 71 128 C 57 138 49 141 40 137 C 32 132 29 127 30 110 C 30 87 34 83 58 78 C 101 68 131 37 118 14 C 114 4 102 2 86 6 M 99 18 C 107 27 95 47 69 63 C 37 84 37 63 68 30 C 83 16 92 12 99 18 z" fill="black"/><!-- width=132 height=164 -->
<path id="gl10263" d="M 141 7 C 140 8 137 12 136 14 C 133 22 127 24 119 20 C 108 13 81 25 60 45 C 22 83 -2 147 12 162 C 18 166 21 166 30 164 C 43 159 58 150 75 134 C 91 117 96 121 88 142 C 83 158 85 165 96 165 C 116 165 163 128 146 127 C 144 127 141 128 135 134 C 125 142 121 145 116 144 C 107 144 107 135 118 107 C 122 99 129 82 134 70 C 137 56 145 39 148 31 C 152 22 154 14 154 12 C 154 4 146 1 141 7 M 112 33 C 123 38 123 49 111 72 C 96 101 87 114 65 131 C 48 146 47 146 42 146 C 18 146 48 71 84 41 C 95 31 104 30 112 33 z" fill="black"/><!-- width=164 height=175 -->
<path id="gl5912" d="M 35 7 C 24 12 9 28 9 35 C 9 40 12 40 17 35 C 28 26 34 23 38 29 C 42 34 35 53 16 114 C 4 146 4 146 8 151 C 14 158 19 153 31 130 C 44 94 59 66 75 45 C 90 26 94 23 101 38 C 106 47 111 45 116 35 C 124 17 115 1 101 4 C 91 8 83 18 66 43 C 53 66 48 65 54 39 C 58 22 59 17 57 12 C 54 3 47 2 35 7 z" fill="black"/><!-- width=128 height=163 -->
<path id="gl6154" d="M 47 6 C 28 13 8 29 11 36 C 12 39 15 39 22 34 C 34 25 41 24 44 30 C 45 35 42 41 20 102 C 4 145 3 149 8 154 C 14 160 18 156 33 126 C 56 80 64 68 91 41 C 110 23 115 19 121 19 C 131 19 132 30 122 55 C 118 63 111 79 107 90 C 102 102 96 118 93 127 C 84 147 84 153 94 155 C 109 159 158 126 150 117 C 149 115 147 115 138 122 C 126 133 121 136 117 132 C 115 128 115 125 122 109 C 154 36 158 14 142 6 C 127 -1 100 13 73 47 C 52 73 49 66 64 26 C 69 14 69 9 62 6 C 58 3 55 3 47 6 z" fill="black"/><!-- width=162 height=166 -->
<path id="gl5909" d="M 70 8 C 62 15 60 29 68 35 C 74 41 85 37 90 26 C 99 10 84 -2 70 8 M 54 97 C 35 107 17 120 18 125 C 18 129 23 129 29 124 C 39 117 42 117 45 119 C 47 123 47 126 36 152 C 24 181 9 219 7 228 C 1 246 20 245 52 224 C 67 214 73 207 73 202 C 73 195 70 196 56 209 C 36 226 29 220 40 195 C 42 188 49 170 57 153 C 64 136 71 119 73 114 C 82 93 75 86 54 97 z" fill="black"/><!-- width=102 height=251 -->
<path id="gl6154" d="M 47 6 C 28 13 8 29 11 36 C 12 39 15 39 22 34 C 34 25 41 24 44 30 C 45 35 42 41 20 102 C 4 145 3 149 8 154 C 14 160 18 156 33 126 C 56 80 64 68 91 41 C 110 23 115 19 121 19 C 131 19 132 30 122 55 C 118 63 111 79 107 90 C 102 102 96 118 93 127 C 84 147 84 153 94 155 C 109 159 158 126 150 117 C 149 115 147 115 138 122 C 126 133 121 136 117 132 C 115 128 115 125 122 109 C 154 36 158 14 142 6 C 127 -1 100 13 73 47 C 52 73 49 66 64 26 C 69 14 69 9 62 6 C 58 3 55 3 47 6 z" fill="black"/><!-- width=162 height=166 -->
<path id="gl5914" d="M 101 7 C 75 14 53 40 46 70 C 41 89 42 99 55 110 C 64 119 64 119 59 130 C 55 140 55 144 56 155 C 57 163 56 165 41 171 C 7 185 -3 214 14 232 C 44 258 127 247 144 214 C 152 196 143 183 107 161 C 84 148 77 141 75 135 C 72 124 78 118 94 113 C 126 102 150 69 151 37 C 151 24 155 20 166 23 C 182 25 192 17 182 7 C 177 3 174 3 165 7 C 155 9 145 9 137 7 C 127 3 113 3 101 7 M 127 17 C 133 25 130 39 121 59 C 101 97 80 115 68 103 C 62 96 64 78 77 57 C 96 22 117 6 127 17 M 85 173 C 95 178 112 189 116 194 C 133 215 113 233 75 233 C 29 233 13 206 44 181 C 59 170 72 167 85 173 z" fill="black"/><!-- width=193 height=255 -->
<path id="gl5918" d="M 65 6 C 64 6 61 14 56 23 C 47 40 46 41 32 43 C 21 45 18 46 18 50 C 18 53 19 54 28 54 C 35 54 39 58 39 62 C 39 63 35 75 31 90 C 21 117 8 160 7 168 C 3 183 12 186 26 179 C 54 167 84 139 76 133 C 74 130 72 131 58 145 C 45 157 40 160 36 158 C 32 156 31 151 34 144 C 37 131 59 67 61 62 C 64 54 67 53 80 54 C 101 56 107 54 107 47 C 107 42 103 41 89 42 C 70 43 68 40 74 23 C 78 13 78 8 75 6 C 74 3 68 3 65 6 z" fill="black"/><!-- width=116 height=194 -->
<path id="gl5913" d="M 74 7 C 48 16 21 48 12 83 C 2 114 6 140 21 150 C 59 174 118 118 125 52 C 128 41 127 39 124 27 C 118 7 98 0 74 7 M 94 16 C 104 21 107 39 100 62 C 85 117 56 154 36 143 C 24 135 24 117 34 85 C 51 38 78 7 94 16 z" fill="black"/><!-- width=138 height=165 -->
<path id="gl5917" d="M 91 6 C 73 7 71 8 69 12 C 68 14 69 15 78 18 C 89 21 91 27 87 42 C 77 80 39 203 32 218 C 28 225 21 232 15 234 C 6 237 2 241 7 243 C 8 244 71 244 75 244 C 80 242 79 239 72 236 C 57 228 57 222 73 173 C 75 166 78 157 79 154 C 83 140 90 136 102 134 C 115 134 120 140 125 161 C 130 179 143 221 147 227 C 150 238 162 244 180 245 C 186 245 189 245 191 244 C 198 241 197 239 189 234 C 174 226 173 225 162 195 C 154 173 148 147 148 139 C 148 133 151 130 160 127 C 197 115 216 84 209 49 C 206 30 194 18 169 9 C 159 6 127 4 91 6 M 157 19 C 202 38 186 107 132 124 C 109 132 97 132 93 124 C 90 118 90 118 104 71 C 108 60 112 48 113 43 C 119 20 122 16 139 16 C 148 16 151 16 157 19 z" fill="black"/><!-- width=222 height=255 -->
<path id="gl6150" d="M 86 6 C 45 17 4 76 8 122 C 9 151 26 161 54 152 C 73 144 91 128 86 122 C 84 120 83 121 71 128 C 57 138 49 141 40 137 C 32 132 29 127 30 110 C 30 87 34 83 58 78 C 101 68 131 37 118 14 C 114 4 102 2 86 6 M 99 18 C 107 27 95 47 69 63 C 37 84 37 63 68 30 C 83 16 92 12 99 18 z" fill="black"/><!-- width=132 height=164 -->
<path id="gl10264" d="M 81 6 C 61 13 52 20 37 39 C 9 74 0 122 16 144 C 21 151 26 152 38 150 C 61 147 84 135 88 123 C 90 117 82 114 79 120 C 79 121 78 122 76 122 C 75 122 72 123 69 127 C 62 132 55 135 46 135 C 36 136 28 123 30 106 C 34 54 81 -4 96 21 C 97 25 98 28 98 31 C 98 34 104 40 109 40 C 115 40 122 32 122 25 C 122 7 103 0 81 6 z" fill="black"/><!-- width=130 height=164 -->
<path id="gl5913" d="M 74 7 C 48 16 21 48 12 83 C 2 114 6 140 21 150 C 59 174 118 118 125 52 C 128 41 127 39 124 27 C 118 7 98 0 74 7 M 94 16 C 104 21 107 39 100 62 C 85 117 56 154 36 143 C 24 135 24 117 34 85 C 51 38 78 7 94 16 z" fill="black"/><!-- width=138 height=165 -->
<path id="gl5914" d="M 101 7 C 75 14 53 40 46 70 C 41 89 42 99 55 110 C 64 119 64 119 59 130 C 55 140 55 144 56 155 C 57 163 56 165 41 171 C 7 185 -3 214 14 232 C 44 258 127 247 144 214 C 152 196 143 183 107 161 C 84 148 77 141 75 135 C 72 124 78 118 94 113 C 126 102 150 69 151 37 C 151 24 155 20 166 23 C 182 25 192 17 182 7 C 177 3 174 3 165 7 C 155 9 145 9 137 7 C 127 3 113 3 101 7 M 127 17 C 133 25 130 39 121 59 C 101 97 80 115 68 103 C 62 96 64 78 77 57 C 96 22 117 6 127 17 M 85 173 C 95 178 112 189 116 194 C 133 215 113 233 75 233 C 29 233 13 206 44 181 C 59 170 72 167 85 173 z" fill="black"/><!-- width=193 height=255 -->
<path id="gl6154" d="M 47 6 C 28 13 8 29 11 36 C 12 39 15 39 22 34 C 34 25 41 24 44 30 C 45 35 42 41 20 102 C 4 145 3 149 8 154 C 14 160 18 156 33 126 C 56 80 64 68 91 41 C 110 23 115 19 121 19 C 131 19 132 30 122 55 C 118 63 111 79 107 90 C 102 102 96 118 93 127 C 84 147 84 153 94 155 C 109 159 158 126 150 117 C 149 115 147 115 138 122 C 126 133 121 136 117 132 C 115 128 115 125 122 109 C 154 36 158 14 142 6 C 127 -1 100 13 73 47 C 52 73 49 66 64 26 C 69 14 69 9 62 6 C 58 3 55 3 47 6 z" fill="black"/><!-- width=162 height=166 -->
<path id="gl5909" d="M 70 8 C 62 15 60 29 68 35 C 74 41 85 37 90 26 C 99 10 84 -2 70 8 M 54 97 C 35 107 17 120 18 125 C 18 129 23 129 29 124 C 39 117 42 117 45 119 C 47 123 47 126 36 152 C 24 181 9 219 7 228 C 1 246 20 245 52 224 C 67 214 73 207 73 202 C 73 195 70 196 56 209 C 36 226 29 220 40 195 C 42 188 49 170 57 153 C 64 136 71 119 73 114 C 82 93 75 86 54 97 z" fill="black"/><!-- width=102 height=251 -->
<path id="gl10265" d="M 146 4 C 138 15 123 16 102 9 C 84 2 70 2 58 9 C 56 10 52 12 50 13 C 39 19 26 37 27 45 C 30 55 39 61 46 55 C 50 52 50 50 49 40 C 46 24 52 20 75 21 C 98 24 108 28 105 37 C 104 40 94 51 78 64 C 73 68 68 73 66 74 C 63 78 38 103 18 122 C 4 134 3 136 3 141 C 3 151 12 154 16 146 C 26 129 36 129 82 152 C 100 160 115 156 135 135 C 147 122 148 105 138 98 C 133 94 129 94 126 98 C 122 102 122 105 124 114 C 129 134 115 144 93 134 C 76 128 68 124 61 122 C 43 117 44 112 68 92 C 75 86 86 76 93 69 C 109 54 136 28 142 24 C 152 16 152 15 154 12 C 158 6 152 0 146 4 z" fill="black"/><!-- width=163 height=168 -->
<path id="gl6150" d="M 86 6 C 45 17 4 76 8 122 C 9 151 26 161 54 152 C 73 144 91 128 86 122 C 84 120 83 121 71 128 C 57 138 49 141 40 137 C 32 132 29 127 30 110 C 30 87 34 83 58 78 C 101 68 131 37 118 14 C 114 4 102 2 86 6 M 99 18 C 107 27 95 47 69 63 C 37 84 37 63 68 30 C 83 16 92 12 99 18 z" fill="black"/><!-- width=132 height=164 -->
<path id="gl6145" d="M 164 4 C 154 6 150 10 156 14 C 168 22 168 25 145 51 C 123 79 116 88 103 106 C 91 123 89 125 84 124 C 79 124 78 120 63 47 C 59 25 61 20 73 15 C 80 13 82 10 79 8 C 77 4 19 4 14 8 C 10 10 12 13 20 16 C 31 21 34 28 43 66 C 44 75 49 94 51 106 C 61 147 61 153 47 194 C 34 230 31 235 10 238 C 6 240 4 243 7 246 C 8 247 84 247 85 246 C 89 244 88 241 84 240 C 62 235 61 230 74 188 C 88 144 89 142 113 114 C 129 96 137 85 151 68 C 167 48 189 25 197 21 C 200 20 206 18 209 15 C 217 12 217 10 214 7 C 213 4 185 3 164 4 z" fill="black"/><!-- width=226 height=258 -->
<path id="gl5913" d="M 74 7 C 48 16 21 48 12 83 C 2 114 6 140 21 150 C 59 174 118 118 125 52 C 128 41 127 39 124 27 C 118 7 98 0 74 7 M 94 16 C 104 21 107 39 100 62 C 85 117 56 154 36 143 C 24 135 24 117 34 85 C 51 38 78 7 94 16 z" fill="black"/><!-- width=138 height=165 -->
<path id="gl6146" d="M 54 4 C 39 11 3 37 3 44 C 3 50 8 49 18 40 C 30 28 40 27 40 37 C 40 39 37 48 34 55 C 18 99 8 128 7 139 C 6 153 16 159 29 152 C 45 143 61 130 79 110 C 90 96 95 92 97 95 C 101 97 99 107 90 130 C 82 147 82 152 91 154 C 97 157 107 154 126 141 C 142 130 152 120 151 115 C 151 107 146 108 137 118 C 123 132 118 136 113 131 C 108 126 115 106 143 37 C 153 13 153 13 147 8 C 139 1 136 4 122 33 C 104 70 94 85 65 112 C 44 131 40 134 35 131 C 29 128 29 122 39 99 C 43 87 49 71 53 63 C 55 54 61 40 64 33 C 70 17 71 11 68 7 C 64 4 59 3 54 4 z" fill="black"/><!-- width=160 height=165 -->
<path id="gl5912" d="M 35 7 C 24 12 9 28 9 35 C 9 40 12 40 17 35 C 28 26 34 23 38 29 C 42 34 35 53 16 114 C 4 146 4 146 8 151 C 14 158 19 153 31 130 C 44 94 59 66 75 45 C 90 26 94 23 101 38 C 106 47 111 45 116 35 C 124 17 115 1 101 4 C 91 8 83 18 66 43 C 53 66 48 65 54 39 C 58 22 59 17 57 12 C 54 3 47 2 35 7 z" fill="black"/><!-- width=128 height=163 -->
<path id="gl10266" d="M 126 2 C 122 3 120 4 118 4 C 117 6 114 6 112 6 C 110 6 104 8 90 14 C 77 21 50 43 40 57 C 20 81 10 110 6 151 C 2 194 19 231 47 243 C 53 246 58 248 60 249 C 65 252 89 254 105 253 C 174 247 231 175 230 93 C 230 37 200 3 149 2 C 138 2 128 2 126 2 M 156 14 C 156 15 160 16 162 16 C 175 18 191 33 198 50 C 200 54 201 57 202 60 C 202 67 202 75 202 82 C 202 160 152 237 100 241 C 65 243 46 230 33 198 C 31 188 30 167 32 154 C 33 146 35 139 35 135 C 36 129 43 106 48 95 C 54 80 72 54 84 42 C 90 36 111 21 112 21 C 114 21 116 21 118 20 C 120 19 127 16 132 16 C 138 15 143 14 143 14 C 144 13 155 13 156 14 z" fill="black"/><!-- width=242 height=262 -->
<path id="gl10267" d="M 201 4 C 193 5 192 11 194 35 C 197 61 181 95 156 118 C 143 131 136 135 129 135 C 108 135 110 100 136 43 C 148 17 148 10 137 7 C 131 4 118 17 118 28 C 118 29 117 36 114 45 C 104 73 91 95 68 117 C 49 135 41 140 35 133 C 29 127 30 118 49 72 C 53 60 57 49 65 28 C 67 21 67 13 62 8 C 53 0 35 7 15 26 C 5 35 3 39 4 41 C 4 46 9 45 19 36 C 32 24 39 23 39 36 C 39 41 38 46 32 61 C 19 93 8 124 8 133 C 8 163 41 159 76 122 C 92 105 95 106 93 125 C 92 146 103 156 121 152 C 142 147 165 130 181 109 C 193 93 196 90 203 76 C 223 36 222 1 201 4 z" fill="black"/><!-- width=226 height=162 -->
<path id="gl6154" d="M 47 6 C 28 13 8 29 11 36 C 12 39 15 39 22 34 C 34 25 41 24 44 30 C 45 35 42 41 20 102 C 4 145 3 149 8 154 C 14 160 18 156 33 126 C 56 80 64 68 91 41 C 110 23 115 19 121 19 C 131 19 132 30 122 55 C 118 63 111 79 107 90 C 102 102 96 118 93 127 C 84 147 84 153 94 155 C 109 159 158 126 150 117 C 149 115 147 115 138 122 C 126 133 121 136 117 132 C 115 128 115 125 122 109 C 154 36 158 14 142 6 C 127 -1 100 13 73 47 C 52 73 49 66 64 26 C 69 14 69 9 62 6 C 58 3 55 3 47 6 z" fill="black"/><!-- width=162 height=166 -->
<path id="gl6158" d="M 191 9 C 183 14 180 18 172 31 C 168 38 161 49 154 58 C 144 71 126 98 112 118 C 104 131 55 200 47 211 C 33 229 25 236 14 239 C 7 240 4 247 10 248 C 15 251 71 248 74 247 C 75 245 74 241 67 239 C 59 235 58 230 64 220 C 88 180 104 157 109 155 C 114 152 165 150 169 151 C 177 155 178 162 176 197 C 172 228 168 236 159 239 C 149 241 145 244 149 247 C 150 248 197 250 217 250 C 224 248 224 241 217 240 C 200 236 197 229 201 186 C 201 177 202 150 203 127 C 206 69 207 48 210 29 C 211 3 208 1 191 9 M 180 50 C 184 54 184 63 183 82 C 182 88 180 100 180 110 C 178 138 177 139 150 138 C 117 137 117 135 140 101 C 149 88 159 74 161 67 C 167 58 176 49 177 49 C 178 49 179 49 180 50 z" fill="black"/><!-- width=233 height=259 -->
<path id="gl6154" d="M 47 6 C 28 13 8 29 11 36 C 12 39 15 39 22 34 C 34 25 41 24 44 30 C 45 35 42 41 20 102 C 4 145 3 149 8 154 C 14 160 18 156 33 126 C 56 80 64 68 91 41 C 110 23 115 19 121 19 C 131 19 132 30 122 55 C 118 63 111 79 107 90 C 102 102 96 118 93 127 C 84 147 84 153 94 155 C 109 159 158 126 150 117 C 149 115 147 115 138 122 C 126 133 121 136 117 132 C 115 128 115 125 122 109 C 154 36 158 14 142 6 C 127 -1 100 13 73 47 C 52 73 49 66 64 26 C 69 14 69 9 62 6 C 58 3 55 3 47 6 z" fill="black"/><!-- width=162 height=166 -->
<path id="gl6159" d="M 55 8 C 47 12 32 33 32 40 C 32 45 37 45 43 38 C 50 29 55 30 60 40 C 65 49 74 72 75 79 C 77 89 77 89 45 123 C 37 132 33 133 28 127 C 21 121 18 121 13 126 C 2 137 3 153 16 155 C 25 158 44 143 61 121 C 80 97 84 97 91 118 C 103 152 112 162 126 152 C 137 144 149 121 144 115 C 142 112 137 115 134 120 C 128 132 118 132 112 120 C 108 111 97 84 97 80 C 98 75 101 70 108 61 C 112 58 120 50 124 44 C 141 27 143 25 152 34 C 157 39 158 40 160 39 C 176 34 174 6 157 6 C 144 6 124 23 107 49 C 95 66 90 64 80 33 C 74 14 71 9 65 7 C 60 4 61 4 55 8 z" fill="black"/><!-- width=181 height=167 -->
<path id="gl5909" d="M 70 8 C 62 15 60 29 68 35 C 74 41 85 37 90 26 C 99 10 84 -2 70 8 M 54 97 C 35 107 17 120 18 125 C 18 129 23 129 29 124 C 39 117 42 117 45 119 C 47 123 47 126 36 152 C 24 181 9 219 7 228 C 1 246 20 245 52 224 C 67 214 73 207 73 202 C 73 195 70 196 56 209 C 36 226 29 220 40 195 C 42 188 49 170 57 153 C 64 136 71 119 73 114 C 82 93 75 86 54 97 z" fill="black"/><!-- width=102 height=251 -->
<path id="gl6150" d="M 86 6 C 45 17 4 76 8 122 C 9 151 26 161 54 152 C 73 144 91 128 86 122 C 84 120 83 121 71 128 C 57 138 49 141 40 137 C 32 132 29 127 30 110 C 30 87 34 83 58 78 C 101 68 131 37 118 14 C 114 4 102 2 86 6 M 99 18 C 107 27 95 47 69 63 C 37 84 37 63 68 30 C 83 16 92 12 99 18 z" fill="black"/><!-- width=132 height=164 -->
<path id="gl5918" d="M 65 6 C 64 6 61 14 56 23 C 47 40 46 41 32 43 C 21 45 18 46 18 50 C 18 53 19 54 28 54 C 35 54 39 58 39 62 C 39 63 35 75 31 90 C 21 117 8 160 7 168 C 3 183 12 186 26 179 C 54 167 84 139 76 133 C 74 130 72 131 58 145 C 45 157 40 160 36 158 C 32 156 31 151 34 144 C 37 131 59 67 61 62 C 64 54 67 53 80 54 C 101 56 107 54 107 47 C 107 42 103 41 89 42 C 70 43 68 40 74 23 C 78 13 78 8 75 6 C 74 3 68 3 65 6 z" fill="black"/><!-- width=116 height=194 -->
<path id="gl6162" d="M 86 5 C 83 5 78 9 75 11 C 66 19 63 20 60 17 C 57 16 56 17 57 23 C 58 28 58 31 57 35 C 52 51 58 57 65 43 C 74 29 81 26 87 34 C 98 50 96 133 86 167 C 78 191 59 218 46 224 C 38 228 35 228 27 223 C 17 216 14 216 8 222 C 0 230 5 245 19 247 C 44 251 77 221 113 160 C 118 153 124 142 127 136 C 144 111 148 102 154 89 C 157 82 161 71 163 65 C 165 60 167 53 168 51 C 172 43 177 22 177 17 C 177 13 172 5 167 5 C 157 4 155 8 153 28 C 149 56 145 72 136 98 C 126 124 118 136 114 129 C 113 129 113 107 113 83 C 113 45 113 38 111 29 C 106 9 99 2 86 5 z" fill="black"/><!-- width=186 height=258 -->
</defs>
<use xlink:href="#gl10262" x="0" y="3"/>
<use xlink:href="#gl6150" x="202" y="99"/>
<use xlink:href="#gl10263" x="319" y="90"/>
<use xlink:href="#gl5912" x="494" y="100"/>
<use xlink:href="#gl6154" x="618" y="99"/>
<use xlink:href="#gl5909" x="795" y="11"/>
<use xlink:href="#gl6154" x="898" y="99"/>
<use xlink:href="#gl5914" x="1037" y="99"/>
<use xlink:href="#gl5918" x="1302" y="70"/>
<use xlink:href="#gl5913" x="1400" y="100"/>
<use xlink:href="#gl5917" x="1629" y="4"/>
<use xlink:href="#gl6150" x="1835" y="100"/>
<use xlink:href="#gl10264" x="1960" y="101"/>
<use xlink:href="#gl5913" x="2082" y="99"/>
<use xlink:href="#gl5914" x="2193" y="100"/>
<use xlink:href="#gl6154" x="2371" y="100"/>
<use xlink:href="#gl5909" x="2547" y="12"/>
<use xlink:href="#gl10265" x="2632" y="101"/>
<use xlink:href="#gl6150" x="2787" y="99"/>
<use xlink:href="#gl6145" x="3016" y="5"/>
<use xlink:href="#gl5913" x="3156" y="98"/>
<use xlink:href="#gl6146" x="3309" y="98"/>
<use xlink:href="#gl5912" x="3484" y="100"/>
<use xlink:href="#gl10266" x="3711" y="0"/>
<use xlink:href="#gl10267" x="3960" y="99"/>
<use xlink:href="#gl6154" x="4193" y="97"/>
<use xlink:href="#gl6158" x="4422" y="0"/>
<use xlink:href="#gl6154" x="4667" y="97"/>
<use xlink:href="#gl6159" x="4821" y="96"/>
<use xlink:href="#gl5909" x="4994" y="10"/>
<use xlink:href="#gl6150" x="5090" y="96"/>
<use xlink:href="#gl5918" x="5218" y="67"/>
<use xlink:href="#gl6162" x="5265" y="97"/>
</svg>