<svg xmlns="http://www.w3.org/2000/svg" xmlns:xlink="http://www.w3.org/1999/xlink" width="215px" height="68px" viewBox="0 0 2151 687" version="1.1">
<defs>
<path id="gl4363" d="M 21 7 C 7 13 1 26 6 42 C 9 51 19 56 27 52 C 31 50 31 48 26 45 C 20 42 16 38 16 31 C 14 9 36 4 42 25 C 48 46 33 73 9 86 C 7 87 7 89 7 91 C 8 101 34 85 46 67 C 60 46 60 19 45 8 C 40 6 28 4 21 7 z" fill="black"/><!-- width=67 height=102 -->
<path id="gl4364" d="M 17 7 C 5 14 2 33 14 44 C 19 49 19 52 14 57 C -1 70 6 94 28 94 C 52 93 60 71 43 52 C 39 49 39 43 43 42 C 51 39 55 19 49 12 C 43 3 28 1 17 7 M 37 14 C 42 19 42 26 39 33 C 35 44 26 44 21 34 C 12 20 25 3 37 14 M 30 57 C 34 58 40 67 40 74 C 40 87 30 93 23 85 C 12 75 19 51 30 57 z" fill="black"/><!-- width=62 height=105 -->
<path id="gl4391" d="M 10 7 C 6 8 3 19 7 20 C 8 20 10 20 13 19 C 21 17 41 15 45 19 C 47 21 47 24 41 32 C 38 36 34 46 29 53 C 25 62 20 69 19 70 C 13 80 9 91 13 92 C 17 94 19 91 26 77 C 30 70 37 57 41 48 C 46 40 51 32 51 30 C 51 29 54 25 57 21 C 60 14 63 8 59 7 C 58 6 13 6 10 7 z" fill="black"/><!-- width=71 height=100 -->
<path id="gl4617" d="M 43 10 C 28 18 20 24 14 34 C -1 61 2 98 22 98 C 43 98 45 97 51 87 C 58 78 57 60 51 52 C 46 49 36 46 31 50 C 27 52 28 55 34 57 C 45 62 49 73 42 84 C 36 96 31 96 21 85 C 20 84 18 81 15 79 C 15 75 16 70 16 67 C 16 52 20 44 30 32 C 33 27 46 18 49 18 C 50 18 52 15 55 13 C 56 12 57 10 60 9 C 58 8 57 8 56 7 C 54 4 55 4 43 10 z" fill="black"/><!-- width=68 height=106 -->
<path id="gl4613" d="M 26 7 C 8 12 4 16 4 29 C 4 35 4 35 12 44 C 28 58 28 69 12 84 C 3 92 2 95 9 94 C 19 92 29 81 34 69 C 38 56 34 45 22 35 C 9 26 9 21 24 19 C 34 17 39 16 39 12 C 40 6 35 4 26 7 z" fill="black"/><!-- width=48 height=104 -->
<path id="gl4618" d="M 44 8 C 43 10 38 15 36 20 C 32 25 27 32 24 36 C 20 40 15 44 14 45 C 14 46 12 49 10 50 C 9 52 8 55 8 57 C 6 64 12 67 25 63 C 26 63 31 63 33 63 C 39 64 40 66 40 79 C 40 91 42 93 45 93 C 50 93 51 91 51 78 C 52 64 52 64 61 63 C 67 62 66 57 58 56 C 51 54 51 55 51 31 C 51 6 50 2 44 8 M 40 34 C 43 46 40 55 34 56 C 25 58 19 52 24 45 C 25 44 25 42 25 40 C 26 38 32 32 34 31 C 38 31 39 31 40 34 z" fill="black"/><!-- width=78 height=102 -->
<path id="gl4389" d="M 14 7 C 9 9 7 14 8 16 C 8 20 9 20 10 17 C 16 13 26 14 27 21 C 28 28 21 40 15 40 C 13 40 10 43 11 45 C 13 46 14 47 17 47 C 22 47 23 47 27 51 C 35 61 26 83 13 83 C 5 83 2 85 2 88 C 2 93 10 95 16 91 C 17 89 20 88 20 88 C 21 88 25 86 33 77 C 44 68 45 50 37 41 C 32 37 32 34 37 28 C 41 23 41 16 37 10 C 32 5 21 3 14 7 z" fill="black"/><!-- width=53 height=101 -->
<path id="gl4619" d="M 18 6 C 15 7 12 8 10 8 C 8 9 2 19 3 20 C 4 21 9 20 12 18 C 16 14 25 14 28 19 C 34 26 30 38 15 52 C 7 61 6 61 7 64 C 8 67 9 68 12 68 C 13 68 21 67 31 67 C 46 67 48 67 51 64 C 55 61 56 57 55 54 C 54 52 54 51 54 51 C 51 52 48 54 45 55 C 27 63 20 56 32 43 C 42 33 45 20 40 13 C 34 6 27 3 18 6 z" fill="black"/><!-- width=63 height=78 -->
<path id="gl3595" d="M 7 7 C 5 9 5 9 9 13 C 11 14 11 16 11 20 C 11 21 13 37 13 52 C 13 81 13 90 9 94 C 4 97 10 101 21 100 C 32 99 33 97 29 90 C 28 89 27 87 27 85 C 27 74 27 62 27 50 C 27 10 26 10 35 10 C 42 10 50 16 52 25 C 57 34 54 41 44 52 C 38 57 38 59 44 59 C 63 58 76 34 65 17 C 59 9 56 7 40 5 C 16 4 9 4 7 7 z" fill="black"/><!-- width=78 height=111 -->
<path id="gl3359" d="M 10 8 C 7 11 7 12 7 13 C 10 21 10 46 7 58 C 6 61 7 62 8 63 C 11 65 20 65 23 63 C 25 62 26 62 27 62 C 26 60 25 58 23 57 C 22 52 22 50 22 36 C 22 16 22 15 32 17 C 38 18 42 17 42 12 C 43 6 37 3 28 7 C 25 10 23 10 21 7 C 16 5 13 5 10 8 z" fill="black"/><!-- width=52 height=75 -->
<path id="gl3587" d="M 8 7 C 3 14 10 23 17 18 C 21 17 21 16 21 11 C 21 4 11 1 8 7 M 9 42 C 7 44 5 45 7 48 C 9 55 9 84 7 90 C 4 97 7 98 15 98 C 23 98 25 96 23 90 C 21 87 21 84 21 65 C 21 51 21 43 20 42 C 18 38 12 38 9 42 z" fill="black"/><!-- width=35 height=109 -->
<path id="gl3586" d="M 10 8 C 7 11 6 12 7 15 C 10 20 10 51 7 56 C 5 62 6 64 16 64 C 25 64 26 62 24 57 C 20 49 21 23 24 19 C 29 12 37 11 43 17 C 48 21 49 43 46 55 C 43 64 43 64 53 64 C 64 64 64 64 61 55 C 60 52 60 46 60 34 C 60 12 56 7 44 6 C 39 5 37 6 33 7 C 28 10 28 10 23 7 C 16 5 14 5 10 8 z" fill="black"/><!-- width=75 height=75 -->
<path id="gl3855" d="M 13 12 C 10 13 8 15 6 16 C 7 19 8 20 8 21 C 10 26 12 28 12 43 C 12 68 14 73 28 72 C 39 70 40 66 31 63 C 24 61 22 58 22 40 C 21 22 22 21 32 21 C 37 21 39 21 40 19 C 43 15 40 13 33 13 C 27 13 26 13 22 9 C 21 8 20 7 19 6 C 16 7 14 9 13 12 z" fill="black"/><!-- width=50 height=82 -->
<path id="gl4383" d="M 24 8 C 11 12 4 22 4 38 C 4 60 23 72 43 63 C 54 59 55 50 44 54 C 29 59 15 50 15 35 C 15 28 19 27 35 28 C 51 29 54 28 54 20 C 54 15 49 11 41 7 C 34 4 31 4 24 8 M 36 13 C 39 15 39 20 36 22 C 34 25 25 25 23 23 C 17 17 29 7 36 13 z" fill="black"/><!-- width=65 height=77 -->
<path id="gl3584" d="M 50 7 C 45 8 45 9 47 13 C 48 21 49 39 48 43 C 47 47 45 47 35 48 C 21 49 14 53 9 62 C -1 86 16 114 38 106 C 44 105 45 105 50 106 C 55 107 58 107 62 106 C 64 105 66 105 66 105 C 68 105 66 100 64 96 C 62 93 62 90 62 50 C 62 1 62 0 50 7 M 42 54 C 44 55 47 57 47 58 C 49 62 49 93 47 95 C 40 102 27 97 21 86 C 13 69 28 47 42 54 z" fill="black"/><!-- width=79 height=117 -->
<path id="gl3592" d="M 10 7 C 4 12 8 20 15 20 C 20 20 23 18 23 13 C 23 6 17 2 10 7 M 12 43 C 8 46 7 46 8 51 C 10 64 10 85 8 92 C 6 99 7 101 15 101 C 24 101 26 99 25 93 C 23 91 23 84 23 67 C 21 38 21 37 12 43 z" fill="black"/><!-- width=36 height=110 -->
<path id="gl3586" d="M 10 8 C 7 11 6 12 7 15 C 10 20 10 51 7 56 C 5 62 6 64 16 64 C 25 64 26 62 24 57 C 20 49 21 23 24 19 C 29 12 37 11 43 17 C 48 21 49 43 46 55 C 43 64 43 64 53 64 C 64 64 64 64 61 55 C 60 52 60 46 60 34 C 60 12 56 7 44 6 C 39 5 37 6 33 7 C 28 10 28 10 23 7 C 16 5 14 5 10 8 z" fill="black"/><!-- width=75 height=75 -->
<path id="gl3855" d="M 13 12 C 10 13 8 15 6 16 C 7 19 8 20 8 21 C 10 26 12 28 12 43 C 12 68 14 73 28 72 C 39 70 40 66 31 63 C 24 61 22 58 22 40 C 21 22 22 21 32 21 C 37 21 39 21 40 19 C 43 15 40 13 33 13 C 27 13 26 13 22 9 C 21 8 20 7 19 6 C 16 7 14 9 13 12 z" fill="black"/><!-- width=50 height=82 -->
<path id="gl3606" d="M 11 6 C 8 7 7 8 8 13 C 11 26 11 90 8 96 C 6 105 7 107 17 106 C 27 106 27 105 24 96 C 22 85 22 64 24 59 C 29 52 37 53 44 59 C 48 63 49 86 45 96 C 43 105 45 107 58 106 C 65 105 65 104 63 97 C 60 95 60 90 59 75 C 59 60 59 57 57 53 C 52 47 40 43 34 48 C 33 49 29 50 28 50 C 23 50 22 47 23 27 C 23 12 23 8 22 7 C 19 3 14 3 11 6 z" fill="black"/><!-- width=75 height=116 -->
<path id="gl3607" d="M 27 6 C 12 8 5 18 5 36 C 6 56 24 69 41 62 C 50 59 55 50 46 51 C 29 55 21 53 17 40 C 13 27 17 24 36 26 C 50 27 53 26 53 20 C 53 8 43 3 27 6 M 37 11 C 41 16 39 21 31 22 C 22 24 18 17 25 12 C 30 8 34 8 37 11 z" fill="black"/><!-- width=64 height=73 -->
<path id="gl4373" d="M 74 6 C 72 8 71 9 72 10 C 74 12 75 13 76 15 C 80 20 78 70 75 78 C 70 87 61 93 53 93 C 41 92 35 88 30 78 C 24 68 24 14 30 12 C 32 10 32 7 30 6 C 26 4 10 6 8 7 C 7 8 7 9 9 13 C 12 15 12 18 13 47 C 13 78 14 82 19 89 C 20 91 21 93 21 93 C 21 94 26 97 30 98 C 41 103 58 104 64 100 C 65 99 68 99 69 98 C 72 98 82 87 83 82 C 83 81 86 77 87 75 C 88 71 89 68 89 44 C 89 36 89 26 89 18 C 89 17 91 15 92 13 C 96 9 96 8 93 7 C 89 3 78 3 74 6 z" fill="black"/><!-- width=105 height=111 -->
<path id="gl3586" d="M 10 8 C 7 11 6 12 7 15 C 10 20 10 51 7 56 C 5 62 6 64 16 64 C 25 64 26 62 24 57 C 20 49 21 23 24 19 C 29 12 37 11 43 17 C 48 21 49 43 46 55 C 43 64 43 64 53 64 C 64 64 64 64 61 55 C 60 52 60 46 60 34 C 60 12 56 7 44 6 C 39 5 37 6 33 7 C 28 10 28 10 23 7 C 16 5 14 5 10 8 z" fill="black"/><!-- width=75 height=75 -->
<path id="gl3587" d="M 8 7 C 3 14 10 23 17 18 C 21 17 21 16 21 11 C 21 4 11 1 8 7 M 9 42 C 7 44 5 45 7 48 C 9 55 9 84 7 90 C 4 97 7 98 15 98 C 23 98 25 96 23 90 C 21 87 21 84 21 65 C 21 51 21 43 20 42 C 18 38 12 38 9 42 z" fill="black"/><!-- width=35 height=109 -->
<path id="gl3593" d="M 10 11 C 5 16 5 15 7 21 C 8 23 8 30 8 42 C 8 57 10 60 12 64 C 15 69 22 71 28 69 C 36 67 37 61 32 61 C 22 61 21 56 21 37 C 21 21 21 20 30 20 C 37 20 38 18 37 15 C 37 12 35 12 31 12 C 26 12 23 11 21 8 C 17 5 15 5 10 11 z" fill="black"/><!-- width=47 height=80 -->
<path id="gl3628" d="M 23 7 C 1 16 0 53 19 63 C 30 67 49 64 50 56 C 51 51 49 50 44 53 C 32 59 17 49 17 34 C 17 27 21 24 32 25 C 46 29 54 27 54 21 C 54 8 37 1 23 7 M 37 12 C 42 17 39 22 30 23 C 25 24 23 22 23 18 C 23 11 32 7 37 12 z" fill="black"/><!-- width=64 height=76 -->
<path id="gl3584" d="M 50 7 C 45 8 45 9 47 13 C 48 21 49 39 48 43 C 47 47 45 47 35 48 C 21 49 14 53 9 62 C -1 86 16 114 38 106 C 44 105 45 105 50 106 C 55 107 58 107 62 106 C 64 105 66 105 66 105 C 68 105 66 100 64 96 C 62 93 62 90 62 50 C 62 1 62 0 50 7 M 42 54 C 44 55 47 57 47 58 C 49 62 49 93 47 95 C 40 102 27 97 21 86 C 13 69 28 47 42 54 z" fill="black"/><!-- width=79 height=117 -->
<path id="gl4387" d="M 20 9 C 15 12 8 24 8 30 C 7 39 17 50 31 60 C 42 67 46 71 46 78 C 49 99 28 104 13 87 C 8 79 6 78 3 83 C 1 93 12 104 25 105 C 47 105 58 95 58 77 C 58 63 55 57 36 46 C 23 39 18 28 23 19 C 24 17 33 13 35 13 C 39 13 49 18 50 22 C 52 24 56 26 58 25 C 61 22 61 15 57 11 C 55 9 53 8 52 7 C 49 7 44 7 40 7 C 28 7 25 7 20 9 z" fill="black"/><!-- width=67 height=114 -->
<path id="gl3593" d="M 10 11 C 5 16 5 15 7 21 C 8 23 8 30 8 42 C 8 57 10 60 12 64 C 15 69 22 71 28 69 C 36 67 37 61 32 61 C 22 61 21 56 21 37 C 21 21 21 20 30 20 C 37 20 38 18 37 15 C 37 12 35 12 31 12 C 26 12 23 11 21 8 C 17 5 15 5 10 11 z" fill="black"/><!-- width=47 height=80 -->
<path id="gl3610" d="M 19 8 C 8 12 4 16 6 22 C 7 27 13 27 16 21 C 21 11 26 9 32 16 C 38 22 33 38 24 38 C 19 38 9 42 7 44 C 0 54 11 68 23 63 C 28 61 29 59 24 57 C 17 54 16 49 21 43 C 28 33 39 43 32 54 C 29 58 29 59 39 63 C 52 68 58 63 49 54 C 48 53 46 52 44 51 C 44 44 46 39 46 34 C 47 6 41 1 19 8 z" fill="black"/><!-- width=66 height=74 -->
<path id="gl3855" d="M 13 12 C 10 13 8 15 6 16 C 7 19 8 20 8 21 C 10 26 12 28 12 43 C 12 68 14 73 28 72 C 39 70 40 66 31 63 C 24 61 22 58 22 40 C 21 22 22 21 32 21 C 37 21 39 21 40 19 C 43 15 40 13 33 13 C 27 13 26 13 22 9 C 21 8 20 7 19 6 C 16 7 14 9 13 12 z" fill="black"/><!-- width=50 height=82 -->
<path id="gl3628" d="M 23 7 C 1 16 0 53 19 63 C 30 67 49 64 50 56 C 51 51 49 50 44 53 C 32 59 17 49 17 34 C 17 27 21 24 32 25 C 46 29 54 27 54 21 C 54 8 37 1 23 7 M 37 12 C 42 17 39 22 30 23 C 25 24 23 22 23 18 C 23 11 32 7 37 12 z" fill="black"/><!-- width=64 height=76 -->
<path id="gl3596" d="M 23 6 C 16 7 13 8 11 13 C 4 22 8 29 21 38 C 32 45 34 50 29 57 C 24 61 22 60 14 53 C 7 45 4 45 6 54 C 6 63 9 65 21 65 C 35 65 43 59 43 49 C 43 39 39 34 27 28 C 21 24 19 21 21 16 C 23 9 28 9 33 16 C 39 22 43 19 42 12 C 40 6 35 3 23 6 z" fill="black"/><!-- width=53 height=75 -->
<path id="gl3358" d="M 27 5 C 13 7 5 19 5 35 C 5 53 15 65 34 65 C 52 65 62 53 62 35 C 62 13 49 1 27 5 M 40 13 C 56 22 52 59 35 59 C 19 59 13 27 26 14 C 30 10 35 10 40 13 z" fill="black"/><!-- width=74 height=74 -->
<path id="gl3357" d="M 29 7 C 17 12 12 22 10 38 C 10 43 9 48 8 50 C 5 54 5 54 8 57 C 10 63 10 90 8 98 C 5 107 5 108 16 108 C 25 108 27 107 25 101 C 23 96 21 71 22 65 C 23 60 25 58 31 58 C 36 58 38 56 38 52 C 38 50 35 48 30 49 C 24 50 22 47 23 35 C 24 15 30 10 41 16 C 48 20 51 20 54 16 C 57 5 43 1 29 7 z" fill="black"/><!-- width=63 height=117 -->
<path id="gl4374" d="M 46 7 C 44 9 40 16 40 19 C 40 20 39 23 32 38 C 31 40 31 44 31 45 C 31 46 29 48 28 52 C 26 54 23 63 20 70 C 17 78 14 85 10 89 C 4 96 5 99 15 99 C 26 100 27 99 27 87 C 27 66 31 63 48 63 C 59 63 62 64 64 72 C 64 75 65 78 66 81 C 66 84 66 85 66 90 C 64 97 65 100 77 100 C 91 100 95 96 88 91 C 85 88 78 80 78 77 C 78 76 78 74 77 71 C 76 69 75 65 74 62 C 72 58 71 54 71 52 C 69 48 66 38 64 33 C 64 29 62 25 58 14 C 56 7 48 2 46 7 M 52 35 C 54 41 56 50 54 53 C 53 56 44 56 40 53 C 38 51 38 50 40 40 C 42 27 47 25 52 35 z" fill="black"/><!-- width=101 height=111 -->
<path id="gl3844" d="M 15 6 C 11 7 8 11 9 14 C 12 28 12 50 9 56 C 6 63 6 63 15 65 C 27 66 29 63 25 54 C 23 49 23 25 25 20 C 28 12 42 12 46 20 C 49 24 49 46 46 58 C 46 60 46 62 45 63 C 47 65 49 65 50 65 C 55 66 65 63 65 62 C 65 61 65 58 63 55 C 60 49 60 27 62 20 C 66 12 79 12 83 20 C 85 25 85 50 83 56 C 79 63 82 66 93 65 C 101 65 103 63 100 57 C 100 55 99 46 99 36 C 98 17 96 13 92 8 C 87 4 78 4 71 8 C 63 12 60 12 52 8 C 45 4 42 4 35 7 C 30 9 29 9 25 7 C 19 6 18 6 15 6 z" fill="black"/><!-- width=111 height=74 -->
<path id="gl4383" d="M 24 8 C 11 12 4 22 4 38 C 4 60 23 72 43 63 C 54 59 55 50 44 54 C 29 59 15 50 15 35 C 15 28 19 27 35 28 C 51 29 54 28 54 20 C 54 15 49 11 41 7 C 34 4 31 4 24 8 M 36 13 C 39 15 39 20 36 22 C 34 25 25 25 23 23 C 17 17 29 7 36 13 z" fill="black"/><!-- width=65 height=77 -->
<path id="gl3359" d="M 10 8 C 7 11 7 12 7 13 C 10 21 10 46 7 58 C 6 61 7 62 8 63 C 11 65 20 65 23 63 C 25 62 26 62 27 62 C 26 60 25 58 23 57 C 22 52 22 50 22 36 C 22 16 22 15 32 17 C 38 18 42 17 42 12 C 43 6 37 3 28 7 C 25 10 23 10 21 7 C 16 5 13 5 10 8 z" fill="black"/><!-- width=52 height=75 -->
<path id="gl3587" d="M 8 7 C 3 14 10 23 17 18 C 21 17 21 16 21 11 C 21 4 11 1 8 7 M 9 42 C 7 44 5 45 7 48 C 9 55 9 84 7 90 C 4 97 7 98 15 98 C 23 98 25 96 23 90 C 21 87 21 84 21 65 C 21 51 21 43 20 42 C 18 38 12 38 9 42 z" fill="black"/><!-- width=35 height=109 -->
<path id="gl4382" d="M 34 5 C 22 8 15 11 11 16 C 3 25 1 43 8 55 C 15 69 39 71 50 60 C 56 55 52 49 46 53 C 31 64 11 49 15 29 C 19 20 23 14 33 15 C 37 15 40 16 43 17 C 47 21 50 21 52 17 C 55 10 45 3 34 5 z" fill="black"/><!-- width=63 height=77 -->
<path id="gl3610" d="M 19 8 C 8 12 4 16 6 22 C 7 27 13 27 16 21 C 21 11 26 9 32 16 C 38 22 33 38 24 38 C 19 38 9 42 7 44 C 0 54 11 68 23 63 C 28 61 29 59 24 57 C 17 54 16 49 21 43 C 28 33 39 43 32 54 C 29 58 29 59 39 63 C 52 68 58 63 49 54 C 48 53 46 52 44 51 C 44 44 46 39 46 34 C 47 6 41 1 19 8 z" fill="black"/><!-- width=66 height=74 -->
<path id="gl3358" d="M 27 5 C 13 7 5 19 5 35 C 5 53 15 65 34 65 C 52 65 62 53 62 35 C 62 13 49 1 27 5 M 40 13 C 56 22 52 59 35 59 C 19 59 13 27 26 14 C 30 10 35 10 40 13 z" fill="black"/><!-- width=74 height=74 -->
<path id="gl3586" d="M 10 8 C 7 11 6 12 7 15 C 10 20 10 51 7 56 C 5 62 6 64 16 64 C 25 64 26 62 24 57 C 20 49 21 23 24 19 C 29 12 37 11 43 17 C 48 21 49 43 46 55 C 43 64 43 64 53 64 C 64 64 64 64 61 55 C 60 52 60 46 60 34 C 60 12 56 7 44 6 C 39 5 37 6 33 7 C 28 10 28 10 23 7 C 16 5 14 5 10 8 z" fill="black"/><!-- width=75 height=75 -->
<path id="gl4620" d="M 23 8 C 20 8 17 9 17 10 C 17 10 15 10 14 10 C 8 10 3 21 8 25 C 10 27 15 25 16 22 C 19 16 22 11 26 14 C 35 17 38 25 32 33 C 31 35 29 37 28 39 C 29 40 31 41 32 43 C 33 44 34 45 35 47 C 34 49 34 51 33 53 C 31 61 31 61 35 63 C 44 67 47 68 51 65 C 55 63 55 61 50 56 C 49 55 47 53 46 52 C 46 46 46 39 46 33 C 46 26 46 20 46 13 C 45 13 44 11 43 10 C 38 5 31 4 23 8 M 10 43 C 3 50 4 59 13 64 C 17 68 21 68 25 64 C 26 63 27 63 28 62 C 26 61 25 59 23 58 C 17 53 16 50 20 45 C 22 41 22 41 17 40 C 15 40 13 40 10 43 z" fill="black"/><!-- width=63 height=77 -->
<path id="gl4382" d="M 34 5 C 22 8 15 11 11 16 C 3 25 1 43 8 55 C 15 69 39 71 50 60 C 56 55 52 49 46 53 C 31 64 11 49 15 29 C 19 20 23 14 33 15 C 37 15 40 16 43 17 C 47 21 50 21 52 17 C 55 10 45 3 34 5 z" fill="black"/><!-- width=63 height=77 -->
<path id="gl3592" d="M 10 7 C 4 12 8 20 15 20 C 20 20 23 18 23 13 C 23 6 17 2 10 7 M 12 43 C 8 46 7 46 8 51 C 10 64 10 85 8 92 C 6 99 7 101 15 101 C 24 101 26 99 25 93 C 23 91 23 84 23 67 C 21 38 21 37 12 43 z" fill="black"/><!-- width=36 height=110 -->
<path id="gl3584" d="M 50 7 C 45 8 45 9 47 13 C 48 21 49 39 48 43 C 47 47 45 47 35 48 C 21 49 14 53 9 62 C -1 86 16 114 38 106 C 44 105 45 105 50 106 C 55 107 58 107 62 106 C 64 105 66 105 66 105 C 68 105 66 100 64 96 C 62 93 62 90 62 50 C 62 1 62 0 50 7 M 42 54 C 44 55 47 57 47 58 C 49 62 49 93 47 95 C 40 102 27 97 21 86 C 13 69 28 47 42 54 z" fill="black"/><!-- width=79 height=117 -->
<path id="gl4388" d="M 5 8 C 1 12 2 13 20 13 C 39 13 43 12 39 6 C 35 2 9 4 5 8 z" fill="black"/><!-- width=48 height=24 -->
<path id="gl3357" d="M 29 7 C 17 12 12 22 10 38 C 10 43 9 48 8 50 C 5 54 5 54 8 57 C 10 63 10 90 8 98 C 5 107 5 108 16 108 C 25 108 27 107 25 101 C 23 96 21 71 22 65 C 23 60 25 58 31 58 C 36 58 38 56 38 52 C 38 50 35 48 30 49 C 24 50 22 47 23 35 C 24 15 30 10 41 16 C 48 20 51 20 54 16 C 57 5 43 1 29 7 z" fill="black"/><!-- width=63 height=117 -->
<path id="gl3590" d="M 32 8 C 24 11 23 11 20 8 C 19 6 14 6 11 9 C 7 12 7 14 9 19 C 12 24 12 48 9 56 C 6 65 7 66 17 66 C 29 66 30 65 25 59 C 22 54 22 53 22 39 C 20 19 22 17 33 18 C 44 19 49 13 41 8 C 38 4 38 4 32 8 z" fill="black"/><!-- width=53 height=76 -->
<path id="gl3628" d="M 23 7 C 1 16 0 53 19 63 C 30 67 49 64 50 56 C 51 51 49 50 44 53 C 32 59 17 49 17 34 C 17 27 21 24 32 25 C 46 29 54 27 54 21 C 54 8 37 1 23 7 M 37 12 C 42 17 39 22 30 23 C 25 24 23 22 23 18 C 23 11 32 7 37 12 z" fill="black"/><!-- width=64 height=76 -->
<path id="gl4383" d="M 24 8 C 11 12 4 22 4 38 C 4 60 23 72 43 63 C 54 59 55 50 44 54 C 29 59 15 50 15 35 C 15 28 19 27 35 28 C 51 29 54 28 54 20 C 54 15 49 11 41 7 C 34 4 31 4 24 8 M 36 13 C 39 15 39 20 36 22 C 34 25 25 25 23 23 C 17 17 29 7 36 13 z" fill="black"/><!-- width=65 height=77 -->
<path id="gl4371" d="M 8 7 C 7 8 5 10 7 11 C 7 32 7 87 5 92 C 4 102 8 104 21 102 C 26 100 26 100 22 93 C 21 90 20 85 20 79 C 20 67 21 66 34 65 C 48 64 56 56 61 41 C 64 30 64 27 59 17 C 53 7 43 2 29 7 C 24 8 23 8 20 7 C 14 4 11 4 8 7 M 40 16 C 48 21 52 34 47 45 C 42 58 34 62 26 58 C 21 55 20 53 20 34 C 20 20 20 18 22 16 C 26 14 34 14 40 16 z" fill="black"/><!-- width=72 height=111 -->
<path id="gl4620" d="M 23 8 C 20 8 17 9 17 10 C 17 10 15 10 14 10 C 8 10 3 21 8 25 C 10 27 15 25 16 22 C 19 16 22 11 26 14 C 35 17 38 25 32 33 C 31 35 29 37 28 39 C 29 40 31 41 32 43 C 33 44 34 45 35 47 C 34 49 34 51 33 53 C 31 61 31 61 35 63 C 44 67 47 68 51 65 C 55 63 55 61 50 56 C 49 55 47 53 46 52 C 46 46 46 39 46 33 C 46 26 46 20 46 13 C 45 13 44 11 43 10 C 38 5 31 4 23 8 M 10 43 C 3 50 4 59 13 64 C 17 68 21 68 25 64 C 26 63 27 63 28 62 C 26 61 25 59 23 58 C 17 53 16 50 20 45 C 22 41 22 41 17 40 C 15 40 13 40 10 43 z" fill="black"/><!-- width=63 height=77 -->
<path id="gl3602" d="M 13 6 C 8 8 7 12 8 18 C 11 26 11 86 8 93 C 6 100 6 102 17 102 C 28 102 29 100 26 93 C 22 86 21 72 24 68 C 26 67 31 66 37 66 C 53 63 62 54 66 38 C 69 16 51 0 32 7 C 28 9 28 9 23 7 C 19 4 17 4 17 4 C 17 4 16 4 13 6 M 42 16 C 59 23 53 58 36 58 C 26 58 23 54 23 37 C 23 18 24 13 33 13 C 36 13 39 14 42 16 z" fill="black"/><!-- width=77 height=110 -->
<path id="gl3607" d="M 27 6 C 12 8 5 18 5 36 C 6 56 24 69 41 62 C 50 59 55 50 46 51 C 29 55 21 53 17 40 C 13 27 17 24 36 26 C 50 27 53 26 53 20 C 53 8 43 3 27 6 M 37 11 C 41 16 39 21 31 22 C 22 24 18 17 25 12 C 30 8 34 8 37 11 z" fill="black"/><!-- width=64 height=73 -->
<path id="gl3359" d="M 10 8 C 7 11 7 12 7 13 C 10 21 10 46 7 58 C 6 61 7 62 8 63 C 11 65 20 65 23 63 C 25 62 26 62 27 62 C 26 60 25 58 23 57 C 22 52 22 50 22 36 C 22 16 22 15 32 17 C 38 18 42 17 42 12 C 43 6 37 3 28 7 C 25 10 23 10 21 7 C 16 5 13 5 10 8 z" fill="black"/><!-- width=52 height=75 -->
</defs>
<use xlink:href="#gl4363" x="4" y="29"/>
<use xlink:href="#gl4364" x="208" y="3"/>
<use xlink:href="#gl4391" x="409" y="29"/>
<use xlink:href="#gl4617" x="618" y="0"/>
<use xlink:href="#gl4613" x="829" y="28"/>
<use xlink:href="#gl4618" x="1012" y="28"/>
<use xlink:href="#gl4389" x="1223" y="28"/>
<use xlink:href="#gl4619" x="1415" y="28"/>
<use xlink:href="#gl3595" x="4" y="360"/>
<use xlink:href="#gl3359" x="76" y="395"/>
<use xlink:href="#gl3587" x="123" y="361"/>
<use xlink:href="#gl3586" x="159" y="395"/>
<use xlink:href="#gl3855" x="230" y="389"/>
<use xlink:href="#gl4383" x="271" y="395"/>
<use xlink:href="#gl3584" x="326" y="353"/>
<use xlink:href="#gl3592" x="436" y="359"/>
<use xlink:href="#gl3586" x="472" y="395"/>
<use xlink:href="#gl3855" x="579" y="389"/>
<use xlink:href="#gl3606" x="622" y="353"/>
<use xlink:href="#gl3607" x="693" y="396"/>
<use xlink:href="#gl4373" x="786" y="359"/>
<use xlink:href="#gl3586" x="886" y="393"/>
<use xlink:href="#gl3587" x="961" y="360"/>
<use xlink:href="#gl3593" x="996" y="389"/>
<use xlink:href="#gl3628" x="1035" y="395"/>
<use xlink:href="#gl3584" x="1090" y="352"/>
<use xlink:href="#gl4387" x="1199" y="356"/>
<use xlink:href="#gl3593" x="1265" y="390"/>
<use xlink:href="#gl3610" x="1305" y="394"/>
<use xlink:href="#gl3855" x="1363" y="387"/>
<use xlink:href="#gl3628" x="1404" y="394"/>
<use xlink:href="#gl3596" x="1458" y="395"/>
<use xlink:href="#gl3358" x="1539" y="394"/>
<use xlink:href="#gl3357" x="1610" y="351"/>
<use xlink:href="#gl4374" x="1689" y="359"/>
<use xlink:href="#gl3844" x="1783" y="393"/>
<use xlink:href="#gl4383" x="1892" y="392"/>
<use xlink:href="#gl3359" x="1950" y="393"/>
<use xlink:href="#gl3587" x="1997" y="360"/>
<use xlink:href="#gl4382" x="2030" y="391"/>
<use xlink:href="#gl3610" x="2085" y="393"/>
<use xlink:href="#gl3358" x="0" y="576"/>
<use xlink:href="#gl3586" x="71" y="576"/>
<use xlink:href="#gl4620" x="177" y="576"/>
<use xlink:href="#gl4382" x="235" y="574"/>
<use xlink:href="#gl3592" x="292" y="541"/>
<use xlink:href="#gl3584" x="324" y="534"/>
<use xlink:href="#gl4388" x="396" y="600"/>
<use xlink:href="#gl3357" x="444" y="534"/>
<use xlink:href="#gl3590" x="484" y="576"/>
<use xlink:href="#gl3628" x="527" y="576"/>
<use xlink:href="#gl4383" x="582" y="575"/>
<use xlink:href="#gl4371" x="677" y="576"/>
<use xlink:href="#gl4620" x="743" y="575"/>
<use xlink:href="#gl3602" x="801" y="576"/>
<use xlink:href="#gl3607" x="871" y="577"/>
<use xlink:href="#gl3359" x="930" y="576"/>
</svg>