<svg xmlns="http://www.w3.org/2000/svg" xmlns:xlink="http://www.w3.org/1999/xlink" width="236px" height="52px" viewBox="0 0 2362 524" version="1.1">
<defs>
<path id="gl1802" d="M 49 6 C 45 7 43 9 32 30 C 28 39 24 49 22 50 C 21 50 20 52 20 54 C 19 56 18 58 16 60 C 13 66 6 80 4 82 C 4 87 7 92 12 92 C 15 92 26 82 33 72 C 39 62 50 52 58 51 C 60 50 64 49 68 46 C 72 45 78 44 80 44 C 84 43 87 43 87 42 C 90 40 153 38 159 39 C 171 42 171 46 153 98 C 151 108 146 122 145 129 C 142 136 140 144 139 146 C 138 148 138 151 138 152 C 138 153 136 157 134 159 C 133 162 133 165 133 166 C 133 166 132 170 130 172 C 129 175 128 180 127 183 C 126 189 122 199 120 205 C 118 207 117 213 115 219 C 112 228 108 242 103 257 C 100 260 98 267 97 272 C 94 278 92 284 91 287 C 90 289 88 294 88 296 C 88 300 86 305 85 308 C 84 312 81 318 80 321 C 80 325 79 330 78 331 C 76 332 75 337 74 342 C 73 345 70 353 68 356 C 66 360 63 366 62 368 C 61 369 60 373 58 374 C 56 381 49 385 36 386 C 9 390 6 391 6 397 C 6 405 1 405 84 405 C 124 405 158 405 159 404 C 162 403 162 393 159 392 C 158 391 157 391 135 387 C 128 386 122 385 120 383 C 112 378 114 359 124 330 C 126 326 126 323 126 321 C 126 320 127 318 128 315 C 129 314 130 311 130 308 C 130 306 134 297 136 290 C 139 283 141 276 141 275 C 141 273 141 271 142 267 C 145 265 146 263 146 261 C 146 260 146 257 147 254 C 148 252 151 247 151 245 C 152 242 153 236 154 234 C 157 229 158 223 159 218 C 160 213 163 208 163 206 C 164 204 168 194 170 184 C 174 175 177 162 180 157 C 181 151 183 144 183 141 C 183 139 186 134 188 130 C 189 127 192 121 193 118 C 194 114 195 110 196 108 C 198 106 199 102 200 98 C 200 94 201 88 204 85 C 205 82 206 78 207 75 C 208 68 212 56 217 46 C 220 39 222 39 260 39 C 305 39 314 42 320 54 C 321 56 324 73 324 76 C 321 88 324 103 327 100 C 327 99 330 98 332 98 C 336 98 342 92 343 87 C 347 68 354 50 367 22 C 374 9 369 4 356 12 C 349 15 345 15 341 15 C 337 15 333 16 331 16 C 327 18 326 18 324 16 C 321 15 320 15 317 18 C 314 19 311 19 309 18 C 306 16 300 16 299 19 C 296 20 216 20 212 19 C 211 18 210 18 207 19 C 204 20 201 20 198 19 C 194 16 193 16 190 19 C 184 21 96 20 90 16 C 87 16 84 16 81 16 C 78 18 75 18 74 16 C 72 15 69 14 67 14 C 66 14 62 12 60 9 C 56 6 55 4 49 6 z" fill="black"/><!-- width=379 height=417 -->
<path id="gl1803" d="M 136 9 C 133 10 129 12 127 13 C 124 14 122 15 121 15 C 120 15 117 16 115 19 C 109 25 110 27 118 37 C 122 40 124 44 124 45 C 124 51 122 66 120 69 C 118 73 117 78 117 80 C 116 84 112 97 109 110 C 104 122 99 139 97 146 C 94 152 92 160 91 163 C 85 177 80 192 80 195 C 78 200 73 214 72 216 C 72 217 70 219 69 222 C 69 224 67 231 64 236 C 63 242 60 252 58 257 C 50 282 45 295 39 307 C 37 313 34 319 34 320 C 34 321 34 324 33 326 C 32 329 30 335 28 339 C 27 344 24 353 22 357 C 21 361 19 366 19 367 C 19 368 18 373 16 377 C 14 380 12 386 12 389 C 12 391 9 397 7 401 C 0 417 2 433 12 433 C 14 433 18 433 19 433 C 24 434 33 427 34 421 C 36 415 52 379 56 374 C 57 372 61 367 63 362 C 74 341 98 305 106 297 C 126 279 136 266 144 258 C 147 252 165 234 178 225 C 205 205 219 207 219 231 C 219 241 214 265 211 276 C 210 279 206 290 204 300 C 198 315 188 347 182 363 C 180 368 174 381 170 389 C 166 397 159 404 156 404 C 153 404 148 402 145 399 C 127 386 114 393 116 415 C 116 422 121 431 124 431 C 124 431 127 431 128 433 C 130 434 133 434 138 434 C 141 434 146 434 147 434 C 147 434 151 432 153 429 C 154 427 159 425 163 422 C 169 419 199 387 202 383 C 202 380 205 377 207 374 C 212 368 216 361 225 343 C 229 335 234 327 235 325 C 236 323 238 319 240 315 C 241 312 243 306 245 303 C 247 301 248 296 248 294 C 248 291 251 285 252 281 C 254 276 257 271 257 270 C 257 269 257 265 258 260 C 263 237 264 223 261 218 C 260 216 259 213 260 210 C 263 196 247 184 230 187 C 212 188 205 190 196 195 C 190 198 187 200 186 200 C 186 200 182 201 178 205 C 175 207 171 208 171 208 C 171 208 168 211 165 213 C 141 231 128 242 123 248 C 87 296 80 296 98 246 C 105 228 109 219 112 210 C 114 206 116 200 118 196 C 120 193 122 188 122 186 C 123 182 126 176 132 159 C 135 151 138 144 140 136 C 141 133 142 128 144 124 C 145 121 147 116 147 114 C 150 105 156 84 158 78 C 162 67 175 33 177 28 C 183 10 182 8 159 9 C 150 9 140 9 136 9 z" fill="black"/><!-- width=273 height=441 -->
<path id="gl1804" d="M 238 7 C 232 8 228 12 228 14 C 228 15 223 24 222 27 C 220 27 219 31 218 33 C 214 40 212 40 198 33 C 187 28 159 34 140 45 C 138 46 132 49 128 50 C 115 55 98 68 93 79 C 92 81 87 87 82 93 C 69 108 56 124 52 130 C 51 133 48 140 44 145 C 38 154 30 171 20 193 C 19 195 18 199 15 204 C 14 207 13 211 13 212 C 13 213 12 217 10 219 C 7 230 9 252 14 258 C 26 270 50 267 74 253 C 78 250 84 247 88 246 C 93 243 99 240 103 237 C 106 234 112 229 116 225 C 120 222 127 214 132 208 C 139 198 145 192 151 189 C 159 184 157 201 145 228 C 134 252 135 264 151 267 C 164 270 196 256 217 241 C 218 238 220 238 222 238 C 223 238 225 236 226 235 C 229 232 230 231 231 231 C 234 231 248 216 250 211 C 253 202 253 199 248 195 C 243 190 241 192 225 208 C 211 223 198 231 189 232 C 175 235 175 226 190 189 C 192 187 193 182 200 164 C 202 158 206 150 208 147 C 210 144 212 139 213 135 C 214 132 216 128 217 127 C 219 122 223 115 225 110 C 225 108 228 102 229 97 C 231 93 232 87 232 86 C 232 81 236 75 240 70 C 241 68 243 63 244 58 C 246 54 248 48 249 45 C 250 43 252 40 252 39 C 252 38 253 34 254 32 C 260 20 260 19 252 12 C 248 8 244 4 244 6 C 243 6 241 6 238 7 M 186 57 C 193 60 199 68 199 74 C 199 80 194 93 183 116 C 165 151 150 171 132 184 C 126 189 120 195 117 198 C 116 200 114 202 111 204 C 109 205 103 211 97 216 C 74 238 62 242 56 229 C 54 224 54 216 58 199 C 60 193 62 186 63 183 C 67 169 85 134 92 124 C 99 117 103 112 104 108 C 104 106 105 105 105 105 C 106 104 109 100 111 97 C 114 93 118 87 121 85 C 123 82 127 78 129 75 C 138 67 150 58 160 55 C 165 54 180 55 186 57 z" fill="black"/><!-- width=270 height=279 -->
<path id="gl1805" d="M 108 7 C 105 9 102 14 98 20 C 94 25 91 31 88 33 C 87 36 85 40 82 45 C 79 60 73 64 62 64 C 58 64 54 66 51 67 C 49 68 44 69 40 69 C 25 72 16 79 21 86 C 24 88 28 90 37 88 C 48 87 57 88 60 92 C 62 94 62 104 58 109 C 57 111 56 115 55 120 C 55 122 52 129 51 134 C 46 146 25 210 19 228 C 13 248 12 253 9 261 C 2 278 4 290 14 294 C 20 296 24 296 36 292 C 51 286 56 284 62 280 C 67 278 73 273 76 272 C 80 270 84 266 85 265 C 86 262 96 254 104 244 C 129 219 133 213 128 207 C 123 201 122 201 108 216 C 100 222 92 230 88 232 C 86 234 80 238 76 242 C 58 258 45 255 52 237 C 55 234 56 228 57 225 C 60 216 64 201 70 188 C 73 182 75 176 75 175 C 75 172 78 166 79 160 C 82 151 92 118 97 103 C 98 100 99 96 102 93 C 103 91 104 90 105 87 C 110 87 116 88 121 88 C 129 88 145 90 153 90 C 159 90 165 91 171 91 C 172 88 174 87 175 86 C 178 81 178 80 178 75 C 178 66 180 66 158 67 C 118 70 112 69 112 61 C 112 56 120 36 124 27 C 127 22 128 15 127 12 C 126 6 115 3 108 7 z" fill="black"/><!-- width=188 height=308 -->
<path id="gl1806" d="M 440 9 C 429 14 432 30 444 28 C 445 28 448 30 452 31 C 459 36 460 39 456 45 C 454 46 451 51 450 57 C 446 67 445 69 436 79 C 430 86 428 90 426 99 C 423 105 417 115 400 140 C 379 172 375 177 374 181 C 369 187 354 210 351 214 C 349 218 344 224 340 229 C 337 234 333 237 333 238 C 333 238 331 242 328 246 C 322 253 318 261 312 272 C 308 279 306 284 295 302 C 292 307 288 313 284 316 C 279 321 278 322 276 320 C 274 319 272 318 272 316 C 271 312 266 285 264 260 C 261 244 259 229 259 226 C 256 216 254 198 256 192 C 258 186 266 171 279 157 C 283 152 289 144 292 140 C 295 136 297 133 298 132 C 300 130 302 128 303 124 C 306 122 310 116 315 111 C 320 106 324 102 324 102 C 324 100 326 97 330 93 C 333 88 337 84 337 81 C 339 75 342 73 355 56 C 369 38 380 32 397 28 C 406 26 412 21 411 16 C 410 10 406 10 376 12 C 354 12 348 12 343 10 C 339 9 336 9 333 9 C 332 9 328 9 326 9 C 324 8 318 8 313 9 C 306 10 306 10 304 15 C 302 22 310 33 319 31 C 322 30 327 33 328 37 C 330 39 326 45 319 55 C 314 61 308 74 308 76 C 308 78 306 80 303 84 C 302 87 297 94 294 99 C 286 111 266 140 260 150 C 258 153 254 156 252 157 C 247 158 247 156 242 121 C 241 112 240 103 238 99 C 238 94 237 85 236 78 C 236 69 235 60 234 56 C 232 45 235 36 241 31 C 242 30 248 28 254 27 C 270 25 274 19 270 13 C 268 12 268 10 267 9 C 249 9 231 9 213 9 C 156 9 154 9 152 15 C 151 21 158 27 168 27 C 176 27 189 45 189 57 C 189 60 190 63 192 66 C 193 68 193 73 194 76 C 194 79 194 84 195 86 C 195 88 196 93 196 97 C 198 106 199 120 200 122 C 201 124 204 138 204 151 C 204 154 205 158 205 159 C 206 162 207 164 207 166 C 207 170 208 180 211 193 C 213 202 212 211 206 217 C 202 222 198 229 186 248 C 182 253 166 277 148 300 C 127 331 124 330 120 289 C 116 266 112 240 110 222 C 109 216 108 205 108 200 C 106 195 105 188 105 184 C 104 181 103 174 103 168 C 103 163 102 153 100 146 C 99 140 97 124 96 111 C 93 85 92 78 90 64 C 86 37 90 31 110 27 C 123 25 126 24 126 18 C 126 9 126 9 38 10 C 28 10 19 10 9 10 C 9 12 8 13 8 14 C 3 21 7 24 21 28 C 38 33 42 39 45 64 C 46 72 48 79 48 80 C 48 80 49 86 50 93 C 50 99 51 109 52 114 C 54 117 55 126 55 132 C 56 138 57 147 58 153 C 60 159 61 169 61 172 C 61 176 61 183 61 186 C 62 189 63 198 63 205 C 64 211 66 220 67 225 C 68 229 69 238 70 247 C 70 254 72 264 72 268 C 75 286 78 308 79 321 C 79 325 80 332 80 337 C 84 361 86 382 86 392 C 86 403 92 408 100 405 C 105 404 110 399 117 385 C 118 384 121 379 122 376 C 126 370 133 361 135 356 C 140 348 158 321 160 318 C 169 309 176 300 180 292 C 186 283 200 264 214 249 C 218 246 220 254 223 267 C 224 274 225 282 225 284 C 226 286 228 294 228 301 C 229 307 230 318 231 324 C 232 333 235 356 237 384 C 238 399 241 404 248 404 C 254 404 256 402 265 388 C 266 385 270 380 272 376 C 274 373 279 364 284 357 C 289 350 295 342 298 338 C 303 334 306 330 308 325 C 309 320 312 315 313 314 C 320 306 328 295 333 284 C 337 277 340 270 343 267 C 345 265 348 261 349 259 C 351 253 362 238 364 235 C 366 234 369 230 372 226 C 374 223 378 217 380 213 C 382 210 386 205 387 202 C 388 201 391 198 392 196 C 393 195 396 193 397 190 C 405 178 414 166 423 157 C 426 153 430 147 432 142 C 438 133 446 120 453 112 C 454 111 457 108 458 104 C 463 94 475 74 481 67 C 499 43 508 33 522 30 C 526 28 531 27 534 27 C 543 27 550 16 544 10 C 542 8 541 8 526 10 C 505 12 459 10 452 8 C 447 6 446 6 440 9 z" fill="black"/><!-- width=558 height=418 -->
<path id="gl1807" d="M 140 8 C 139 8 136 8 134 8 C 130 8 128 8 128 9 C 127 10 122 13 117 14 C 111 16 105 20 104 21 C 81 36 76 39 67 49 C 49 68 31 90 27 97 C 26 100 22 109 20 115 C 16 121 14 128 13 133 C 13 138 12 142 10 145 C 6 157 6 204 10 223 C 15 238 27 250 42 253 C 60 255 66 255 76 254 C 121 247 158 212 189 146 C 200 122 206 93 207 69 C 207 42 187 15 160 9 C 157 9 153 8 151 7 C 146 6 144 6 140 8 M 153 32 C 159 34 164 42 166 49 C 168 55 166 74 165 80 C 164 82 163 87 162 92 C 160 97 159 103 158 105 C 156 108 154 111 154 112 C 154 114 153 120 151 124 C 148 130 146 135 146 136 C 146 139 145 144 142 148 C 140 153 136 160 135 164 C 129 183 110 212 97 224 C 79 240 56 241 46 225 C 37 210 40 183 61 128 C 75 87 109 38 123 36 C 126 34 129 34 130 33 C 138 30 147 30 153 32 z" fill="black"/><!-- width=217 height=265 -->
<path id="gl2048" d="M 66 7 C 31 20 3 50 12 67 C 15 74 22 70 36 54 C 38 50 42 45 45 44 C 57 37 66 39 66 50 C 66 57 46 115 38 130 C 37 134 36 139 36 139 C 36 141 31 153 30 156 C 28 157 27 159 27 162 C 27 165 25 170 24 175 C 21 178 20 184 19 188 C 18 193 16 199 15 202 C 2 236 2 247 13 250 C 24 255 33 249 38 235 C 39 230 42 222 45 217 C 48 212 50 204 52 200 C 68 158 103 99 127 70 C 130 67 134 61 135 58 C 142 46 156 43 160 52 C 160 54 163 58 164 61 C 165 63 165 67 165 67 C 165 68 168 69 170 70 C 181 80 198 51 194 26 C 192 4 170 0 147 15 C 138 22 128 34 105 70 C 85 104 84 106 78 109 C 74 110 76 100 85 73 C 98 33 99 25 94 15 C 90 6 78 3 66 7 M 195 196 C 194 198 193 201 193 205 C 193 207 192 211 190 213 C 189 214 188 218 188 220 C 188 223 187 226 186 229 C 183 232 183 242 186 244 C 188 248 196 252 199 252 C 202 252 205 249 202 247 C 201 247 201 242 201 229 C 201 204 198 190 195 196 z" fill="black"/><!-- width=212 height=265 -->
<path id="gl2049" d="M 146 7 C 142 8 136 9 133 10 C 129 12 122 13 117 15 C 103 19 92 22 90 24 C 86 27 87 33 93 37 C 110 44 110 51 98 87 C 96 93 93 100 93 103 C 91 111 86 124 82 132 C 80 135 78 141 76 145 C 75 148 74 152 73 154 C 72 157 70 162 70 165 C 69 170 68 175 67 177 C 64 180 63 184 62 188 C 62 192 61 196 58 199 C 57 201 56 207 55 211 C 54 216 52 222 51 224 C 50 225 48 231 48 235 C 45 242 38 266 34 277 C 32 283 25 306 22 315 C 21 319 20 324 19 325 C 19 326 15 338 10 351 C 8 359 6 367 2 375 C 2 383 2 391 2 399 C 2 408 1 416 1 425 C 2 425 3 425 6 426 C 10 428 15 426 18 420 C 21 414 25 403 25 401 C 25 399 26 397 27 393 C 30 391 30 389 30 387 C 30 386 33 380 37 373 C 48 350 51 343 51 338 C 51 332 60 325 68 324 C 82 323 85 325 93 349 C 103 373 114 397 122 411 C 128 425 142 432 151 427 C 153 426 157 425 159 425 C 165 423 165 423 165 407 C 165 392 165 390 158 390 C 150 390 139 373 128 344 C 117 315 118 311 132 306 C 146 301 156 300 159 300 C 165 300 166 296 165 281 C 165 264 164 263 154 271 C 151 273 147 276 146 277 C 146 277 141 279 136 283 C 118 295 91 307 80 307 C 78 307 75 307 73 308 C 72 308 70 308 68 306 C 67 305 66 303 66 302 C 67 301 67 299 68 297 C 70 294 73 289 73 288 C 79 275 102 249 122 236 C 130 229 139 224 140 224 C 141 224 142 223 142 222 C 145 219 157 213 160 213 C 164 213 166 211 166 202 C 168 189 163 184 157 190 C 154 193 153 193 152 193 C 151 193 135 204 133 205 C 133 206 128 210 122 216 C 116 220 106 229 102 235 C 90 247 86 249 84 248 C 81 246 81 240 86 228 C 88 222 91 214 92 211 C 94 204 98 192 99 189 C 100 188 103 183 104 178 C 106 174 109 166 110 163 C 114 153 116 146 123 126 C 126 120 128 112 128 111 C 129 110 130 106 132 103 C 135 91 136 85 141 70 C 145 63 147 55 148 54 C 151 43 160 22 163 20 C 166 14 165 9 160 7 C 157 4 157 4 146 7 z" fill="black"/><!-- width=172 height=437 -->
<path id="gl2050" d="M 14 4 C 9 7 6 8 7 10 C 7 12 8 26 8 43 C 8 54 8 63 8 73 C 8 74 9 75 10 75 C 13 76 14 76 16 76 C 20 74 21 70 20 54 C 19 42 19 40 21 38 C 22 37 22 36 24 34 C 25 37 26 39 27 40 C 28 45 31 50 32 58 C 34 73 36 78 39 75 C 44 74 45 70 45 62 C 45 51 50 38 55 38 C 58 38 60 43 60 61 C 60 76 60 78 67 78 C 74 78 76 78 74 74 C 74 73 74 70 74 68 C 74 67 74 60 73 52 C 73 45 73 36 73 31 C 73 8 73 8 70 7 C 69 6 66 4 61 6 C 49 6 49 7 46 26 C 44 45 32 42 31 20 C 28 7 24 2 14 4 z" fill="black"/><!-- width=86 height=86 -->
<path id="gl2051" d="M 18 7 C 18 7 15 8 12 8 C 6 9 6 9 4 14 C 3 19 4 21 10 21 C 20 21 24 25 20 33 C 19 37 19 39 20 42 C 21 44 21 45 20 49 C 19 51 19 54 20 55 C 20 56 20 62 20 69 C 18 85 21 88 32 84 C 33 82 34 82 36 81 C 36 73 36 63 36 54 C 34 22 34 21 44 20 C 60 16 48 7 30 8 C 26 9 22 8 21 8 C 20 7 18 7 18 7 z" fill="black"/><!-- width=62 height=96 -->
<path id="gl2052" d="M 26 7 C 25 7 22 8 19 7 C 16 7 14 7 10 8 C 9 9 8 9 7 10 C 7 14 7 18 7 21 C 7 36 8 36 15 33 C 18 32 21 31 22 31 C 27 28 37 39 36 46 C 33 60 32 62 19 74 C 15 79 12 82 8 86 C 7 91 7 96 7 100 C 7 117 8 120 12 116 C 15 112 24 105 30 102 C 34 99 38 96 45 87 C 46 87 51 81 57 76 C 75 58 81 45 79 31 C 75 18 63 9 43 8 C 38 7 32 6 31 6 C 30 6 27 6 26 7 z" fill="black"/><!-- width=91 height=129 -->
<path id="gl2053" d="M 36 6 C 34 7 28 12 22 18 C 16 22 10 28 9 28 C 8 30 8 31 7 39 C 7 64 7 66 15 56 C 18 51 22 45 26 42 C 33 33 43 16 43 12 C 43 9 39 6 36 6 z" fill="black"/><!-- width=52 height=72 -->
</defs>
<use xlink:href="#gl1802" x="0" y="96"/>
<use xlink:href="#gl1803" x="303" y="77"/>
<use xlink:href="#gl1804" x="567" y="240"/>
<use xlink:href="#gl1805" x="850" y="211"/>
<use xlink:href="#gl1806" x="1200" y="106"/>
<use xlink:href="#gl1807" x="1618" y="254"/>
<use xlink:href="#gl2048" x="1863" y="259"/>
<use xlink:href="#gl2049" x="2060" y="82"/>
<use xlink:href="#gl2050" x="2276" y="5"/>
<use xlink:href="#gl2051" x="2223" y="0"/>
<use xlink:href="#gl2052" x="2218" y="259"/>
<use xlink:href="#gl2053" x="2218" y="442"/>
</svg>