<svg xmlns="http://www.w3.org/2000/svg" xmlns:xlink="http://www.w3.org/1999/xlink" width="619px" height="37px" viewBox="0 0 6199 371" version="1.1">
<defs>
<path id="gl22790" d="M 192 10 C 181 15 180 18 174 28 C 170 36 164 45 151 64 C 147 70 140 80 136 86 C 132 93 128 99 126 100 C 124 103 122 106 121 109 C 118 112 116 117 114 121 C 111 123 108 128 105 132 C 103 134 99 140 96 145 C 81 163 79 165 79 166 C 79 166 78 169 75 171 C 72 177 72 177 66 186 C 31 235 26 240 7 243 C 4 245 3 245 4 247 C 4 248 4 249 4 251 C 15 251 25 251 36 251 C 72 252 72 252 72 247 C 72 245 72 243 67 241 C 60 238 58 236 60 230 C 60 225 68 212 74 204 C 76 201 78 198 79 198 C 80 194 98 166 102 163 C 106 157 110 156 129 154 C 140 154 153 154 158 154 C 176 156 177 157 172 199 C 170 236 169 238 158 241 C 154 242 151 243 150 243 C 147 245 146 249 150 251 C 151 251 168 251 187 251 C 199 251 210 251 222 251 C 222 249 222 249 222 248 C 223 245 220 245 211 241 C 206 240 205 238 202 235 C 201 234 200 231 199 230 C 199 222 199 212 199 204 C 199 189 200 166 201 153 C 202 140 204 116 204 99 C 204 82 205 62 206 52 C 210 14 210 15 208 10 C 206 4 202 4 192 10 M 182 60 C 183 64 182 75 178 110 C 176 145 177 144 152 142 C 118 141 117 139 133 115 C 135 110 139 105 141 103 C 144 100 147 94 150 88 C 153 84 157 78 159 74 C 162 70 164 67 164 64 C 165 62 169 58 171 56 C 177 49 178 50 182 60 z" fill="black"/><!-- width=230 height=259 -->
<path id="gl22791" d="M 160 4 C 154 4 148 5 146 7 C 144 7 142 7 139 7 C 118 7 65 35 48 56 C 47 58 42 63 40 65 C 28 80 16 105 10 127 C 7 143 7 180 10 194 C 14 207 22 222 29 230 C 34 236 52 249 54 249 C 56 249 58 249 62 250 C 78 259 111 261 127 257 C 130 256 137 255 144 254 C 157 251 165 249 169 245 C 173 243 187 214 188 210 C 188 207 189 206 189 205 C 191 201 187 198 183 198 C 181 198 174 205 170 211 C 164 222 148 235 134 241 C 126 244 102 247 89 244 C 54 238 33 207 35 163 C 38 112 62 64 100 39 C 108 33 128 23 132 23 C 133 23 137 22 142 20 C 152 16 186 16 194 20 C 205 27 207 32 207 46 C 207 59 208 63 212 64 C 217 65 220 60 223 53 C 223 50 225 42 228 35 C 232 21 232 19 229 15 C 222 8 185 2 160 4 z" fill="black"/><!-- width=241 height=268 -->
<path id="gl22792" d="M 86 7 C 76 9 67 14 67 16 C 66 18 68 20 69 24 C 74 31 74 40 69 55 C 67 62 61 79 56 94 C 48 124 42 142 33 163 C 31 171 28 180 27 183 C 26 187 24 194 22 200 C 20 205 18 213 16 218 C 14 223 12 231 10 237 C 6 252 6 261 10 265 C 22 276 56 259 73 234 C 79 223 80 219 74 219 C 72 218 70 219 66 224 C 51 241 40 252 37 252 C 31 252 28 245 32 236 C 32 234 33 229 36 225 C 36 222 38 216 40 212 C 44 201 48 189 50 182 C 51 178 52 175 52 174 C 54 172 55 170 55 168 C 56 165 58 159 60 154 C 63 146 67 134 69 124 C 70 121 72 116 73 114 C 74 111 74 109 74 106 C 74 105 76 98 80 90 C 82 82 85 75 85 74 C 85 74 85 70 86 67 C 87 63 91 52 94 43 C 98 33 102 22 103 20 C 109 7 104 3 86 7 z" fill="black"/><!-- width=115 height=278 -->
<path id="gl5913" d="M 74 7 C 48 16 21 48 12 83 C 2 114 6 140 21 150 C 59 174 118 118 125 52 C 128 41 127 39 124 27 C 118 7 98 0 74 7 M 94 16 C 104 21 107 39 100 62 C 85 117 56 154 36 143 C 24 135 24 117 34 85 C 51 38 78 7 94 16 z" fill="black"/><!-- width=138 height=165 -->
<path id="gl5910" d="M 72 7 C 66 8 54 18 48 25 C 32 42 32 57 48 85 C 58 103 60 109 60 117 C 60 136 43 144 29 133 C 15 123 13 123 9 128 C 6 132 6 140 8 145 C 18 161 52 155 69 134 C 83 116 83 100 66 71 C 53 49 52 35 60 26 C 68 19 77 20 88 30 C 96 37 103 34 103 24 C 103 10 88 2 72 7 z" fill="black"/><!-- width=113 height=166 -->
<path id="gl6150" d="M 86 6 C 45 17 4 76 8 122 C 9 151 26 161 54 152 C 73 144 91 128 86 122 C 84 120 83 121 71 128 C 57 138 49 141 40 137 C 32 132 29 127 30 110 C 30 87 34 83 58 78 C 101 68 131 37 118 14 C 114 4 102 2 86 6 M 99 18 C 107 27 95 47 69 63 C 37 84 37 63 68 30 C 83 16 92 12 99 18 z" fill="black"/><!-- width=132 height=164 -->
<path id="gl22793" d="M 35 8 C 28 12 13 24 11 30 C 7 39 12 41 19 34 C 29 25 35 24 39 30 C 41 34 40 39 9 130 C 4 147 4 149 7 153 C 12 160 20 155 25 141 C 47 84 78 33 90 29 C 94 28 99 33 101 38 C 105 45 111 44 116 35 C 118 26 120 18 117 13 C 110 -1 89 7 73 33 C 53 66 47 67 55 36 C 62 9 55 0 35 8 z" fill="black"/><!-- width=130 height=166 -->
<path id="gl10262" d="M 125 4 C 120 4 107 4 96 4 C 76 3 75 3 73 6 C 70 9 71 10 80 14 C 93 21 94 26 83 64 C 71 103 63 132 51 170 C 48 178 43 191 42 197 C 34 225 27 232 10 237 C 7 238 6 238 6 242 C 6 243 6 245 6 245 C 10 245 153 247 158 247 C 164 245 170 239 177 223 C 185 208 186 204 183 200 C 181 197 176 199 171 206 C 165 215 155 225 146 228 C 137 231 135 232 111 233 C 75 234 68 232 64 221 C 63 214 63 211 81 153 C 90 131 102 86 105 74 C 109 58 116 36 120 29 C 125 21 130 18 141 15 C 154 13 157 9 148 4 C 144 2 141 2 125 4 z" fill="black"/><!-- width=195 height=255 -->
<path id="gl5913" d="M 74 7 C 48 16 21 48 12 83 C 2 114 6 140 21 150 C 59 174 118 118 125 52 C 128 41 127 39 124 27 C 118 7 98 0 74 7 M 94 16 C 104 21 107 39 100 62 C 85 117 56 154 36 143 C 24 135 24 117 34 85 C 51 38 78 7 94 16 z" fill="black"/><!-- width=138 height=165 -->
<path id="gl5913" d="M 74 7 C 48 16 21 48 12 83 C 2 114 6 140 21 150 C 59 174 118 118 125 52 C 128 41 127 39 124 27 C 118 7 98 0 74 7 M 94 16 C 104 21 107 39 100 62 C 85 117 56 154 36 143 C 24 135 24 117 34 85 C 51 38 78 7 94 16 z" fill="black"/><!-- width=138 height=165 -->
<path id="gl22794" d="M 82 7 C 68 12 67 14 72 22 C 73 27 74 32 74 34 C 74 39 67 67 56 97 C 54 104 49 122 44 135 C 36 163 27 187 22 204 C 4 252 3 262 10 265 C 19 268 22 264 33 231 C 39 212 44 203 51 199 C 54 198 55 198 57 197 C 58 198 60 200 62 201 C 64 205 68 211 72 222 C 85 259 94 270 109 263 C 123 256 135 239 131 233 C 131 231 127 233 125 235 C 114 242 112 244 109 242 C 103 241 99 236 92 218 C 84 198 85 189 98 187 C 111 185 128 174 143 159 C 155 146 157 141 156 132 C 155 108 115 109 87 134 C 75 146 73 147 69 149 C 66 149 66 149 66 143 C 64 137 64 137 79 94 C 84 84 88 69 91 63 C 92 57 96 48 98 40 C 108 16 110 8 106 6 C 104 3 93 4 82 7 M 123 131 C 126 132 128 138 128 141 C 128 155 105 175 74 187 C 61 193 56 194 55 189 C 48 171 104 123 123 131 z" fill="black"/><!-- width=168 height=276 -->
<path id="gl5915" d="M 139 7 C 137 9 134 12 134 13 C 134 13 134 15 132 18 C 129 21 126 21 118 19 C 98 10 63 32 36 72 C 4 118 -1 161 20 161 C 32 161 54 148 74 131 C 90 115 95 117 87 139 C 83 151 83 155 88 158 C 95 166 123 154 143 135 C 150 128 150 127 148 124 C 145 122 144 122 133 131 C 120 141 112 144 109 137 C 107 133 109 128 117 106 C 121 97 128 78 134 64 C 139 49 146 32 149 25 C 155 10 155 9 151 6 C 148 2 143 2 139 7 M 112 32 C 122 40 121 52 105 81 C 93 104 67 131 48 140 C 23 154 29 111 58 67 C 78 38 99 24 112 32 z" fill="black"/><!-- width=163 height=172 -->
<path id="gl5918" d="M 65 6 C 64 6 61 14 56 23 C 47 40 46 41 32 43 C 21 45 18 46 18 50 C 18 53 19 54 28 54 C 35 54 39 58 39 62 C 39 63 35 75 31 90 C 21 117 8 160 7 168 C 3 183 12 186 26 179 C 54 167 84 139 76 133 C 74 130 72 131 58 145 C 45 157 40 160 36 158 C 32 156 31 151 34 144 C 37 131 59 67 61 62 C 64 54 67 53 80 54 C 101 56 107 54 107 47 C 107 42 103 41 89 42 C 70 43 68 40 74 23 C 78 13 78 8 75 6 C 74 3 68 3 65 6 z" fill="black"/><!-- width=116 height=194 -->
<path id="gl6153" d="M 152 3 C 148 4 142 5 141 5 C 139 7 135 7 133 7 C 128 7 100 16 97 20 C 96 21 93 22 92 22 C 90 22 87 24 86 24 C 84 26 78 30 72 34 C 47 49 27 76 15 106 C 5 134 3 174 10 197 C 15 210 23 223 33 231 C 39 237 55 247 58 247 C 59 247 60 247 62 248 C 72 253 106 256 118 253 C 121 253 127 251 131 250 C 136 250 142 249 143 248 C 146 247 154 244 160 243 C 175 238 177 236 177 226 C 177 219 178 217 186 191 C 194 165 198 159 207 154 C 216 149 218 147 215 144 C 211 141 141 141 139 144 C 136 148 139 149 149 152 C 168 158 169 163 158 199 C 144 236 140 241 109 241 C 83 242 68 237 55 225 C 26 199 26 142 55 84 C 74 48 116 21 158 17 C 163 16 172 15 174 15 C 179 15 196 17 199 20 C 209 24 213 33 213 47 C 215 57 215 58 217 59 C 222 60 225 57 231 38 C 240 14 238 13 213 7 C 198 3 166 2 152 3 z" fill="black"/><!-- width=247 height=263 -->
<path id="gl6150" d="M 86 6 C 45 17 4 76 8 122 C 9 151 26 161 54 152 C 73 144 91 128 86 122 C 84 120 83 121 71 128 C 57 138 49 141 40 137 C 32 132 29 127 30 110 C 30 87 34 83 58 78 C 101 68 131 37 118 14 C 114 4 102 2 86 6 M 99 18 C 107 27 95 47 69 63 C 37 84 37 63 68 30 C 83 16 92 12 99 18 z" fill="black"/><!-- width=132 height=164 -->
<path id="gl6154" d="M 47 6 C 28 13 8 29 11 36 C 12 39 15 39 22 34 C 34 25 41 24 44 30 C 45 35 42 41 20 102 C 4 145 3 149 8 154 C 14 160 18 156 33 126 C 56 80 64 68 91 41 C 110 23 115 19 121 19 C 131 19 132 30 122 55 C 118 63 111 79 107 90 C 102 102 96 118 93 127 C 84 147 84 153 94 155 C 109 159 158 126 150 117 C 149 115 147 115 138 122 C 126 133 121 136 117 132 C 115 128 115 125 122 109 C 154 36 158 14 142 6 C 127 -1 100 13 73 47 C 52 73 49 66 64 26 C 69 14 69 9 62 6 C 58 3 55 3 47 6 z" fill="black"/><!-- width=162 height=166 -->
<path id="gl6148" d="M 85 4 C 44 16 7 69 7 115 C 7 141 15 152 34 152 C 46 152 55 150 64 144 C 74 138 85 128 85 125 C 85 119 83 117 75 123 C 55 139 44 140 34 131 C 28 126 27 117 28 103 C 31 85 34 81 50 78 C 57 76 70 73 73 72 C 74 70 78 69 81 68 C 90 64 103 55 110 48 C 132 24 116 -3 85 4 M 95 15 C 110 22 90 51 58 67 C 46 73 40 70 43 62 C 48 45 79 14 90 13 C 91 13 93 14 95 15 z" fill="black"/><!-- width=131 height=163 -->
<path id="gl5912" d="M 35 7 C 24 12 9 28 9 35 C 9 40 12 40 17 35 C 28 26 34 23 38 29 C 42 34 35 53 16 114 C 4 146 4 146 8 151 C 14 158 19 153 31 130 C 44 94 59 66 75 45 C 90 26 94 23 101 38 C 106 47 111 45 116 35 C 124 17 115 1 101 4 C 91 8 83 18 66 43 C 53 66 48 65 54 39 C 58 22 59 17 57 12 C 54 3 47 2 35 7 z" fill="black"/><!-- width=128 height=163 -->
<path id="gl10263" d="M 141 7 C 140 8 137 12 136 14 C 133 22 127 24 119 20 C 108 13 81 25 60 45 C 22 83 -2 147 12 162 C 18 166 21 166 30 164 C 43 159 58 150 75 134 C 91 117 96 121 88 142 C 83 158 85 165 96 165 C 116 165 163 128 146 127 C 144 127 141 128 135 134 C 125 142 121 145 116 144 C 107 144 107 135 118 107 C 122 99 129 82 134 70 C 137 56 145 39 148 31 C 152 22 154 14 154 12 C 154 4 146 1 141 7 M 112 33 C 123 38 123 49 111 72 C 96 101 87 114 65 131 C 48 146 47 146 42 146 C 18 146 48 71 84 41 C 95 31 104 30 112 33 z" fill="black"/><!-- width=164 height=175 -->
<path id="gl6155" d="M 93 3 C 81 6 69 9 67 12 C 63 15 63 17 69 24 C 74 30 73 36 60 74 C 54 94 44 125 39 142 C 33 159 27 179 24 187 C 15 213 6 250 6 252 C 6 266 25 268 44 256 C 66 244 84 218 73 217 C 71 216 67 219 55 232 C 42 245 40 247 36 247 C 28 247 28 240 35 220 C 38 212 46 185 55 159 C 63 132 78 88 88 60 C 94 42 99 24 105 7 C 104 7 103 6 103 4 C 99 3 98 2 93 3 z" fill="black"/><!-- width=114 height=274 -->
<path id="gl5909" d="M 70 8 C 62 15 60 29 68 35 C 74 41 85 37 90 26 C 99 10 84 -2 70 8 M 54 97 C 35 107 17 120 18 125 C 18 129 23 129 29 124 C 39 117 42 117 45 119 C 47 123 47 126 36 152 C 24 181 9 219 7 228 C 1 246 20 245 52 224 C 67 214 73 207 73 202 C 73 195 70 196 56 209 C 36 226 29 220 40 195 C 42 188 49 170 57 153 C 64 136 71 119 73 114 C 82 93 75 86 54 97 z" fill="black"/><!-- width=102 height=251 -->
<path id="gl6156" d="M 147 7 C 136 14 129 15 109 9 C 77 1 54 6 37 26 C 26 40 26 54 38 57 C 49 59 53 54 51 41 C 48 23 57 19 86 23 C 103 25 109 29 107 37 C 107 38 98 47 88 57 C 79 66 62 82 49 93 C 38 104 25 118 20 121 C 4 136 2 139 6 147 C 8 153 12 153 19 144 C 30 131 36 131 64 143 C 99 159 111 159 132 139 C 149 125 152 103 137 97 C 127 93 125 97 126 115 C 126 119 127 124 127 129 C 126 130 124 132 122 133 C 116 141 109 139 83 131 C 73 126 63 122 62 122 C 59 122 52 119 51 118 C 49 114 53 108 66 96 C 74 90 91 73 104 60 C 118 47 135 31 142 25 C 157 13 159 9 157 6 C 154 2 152 2 147 7 z" fill="black"/><!-- width=166 height=165 -->
<path id="gl6150" d="M 86 6 C 45 17 4 76 8 122 C 9 151 26 161 54 152 C 73 144 91 128 86 122 C 84 120 83 121 71 128 C 57 138 49 141 40 137 C 32 132 29 127 30 110 C 30 87 34 83 58 78 C 101 68 131 37 118 14 C 114 4 102 2 86 6 M 99 18 C 107 27 95 47 69 63 C 37 84 37 63 68 30 C 83 16 92 12 99 18 z" fill="black"/><!-- width=132 height=164 -->
<path id="gl17680" d="M 179 3 C 178 3 174 4 170 4 C 157 8 156 10 161 20 C 164 27 164 32 158 50 C 156 56 150 73 145 87 C 134 121 134 121 122 117 C 89 107 36 147 14 203 C -1 246 4 273 33 268 C 52 264 68 252 89 228 C 103 211 108 215 101 238 C 96 252 96 258 99 263 C 107 271 122 267 143 249 C 162 232 168 223 163 221 C 160 218 158 220 146 232 C 133 243 128 246 123 243 C 121 240 121 234 123 224 C 125 221 127 214 129 208 C 131 203 133 197 134 193 C 134 190 137 184 138 179 C 149 145 156 122 167 92 C 168 87 170 83 172 80 C 172 78 173 73 174 69 C 176 66 180 55 182 46 C 186 39 190 28 191 25 C 196 14 196 7 193 4 C 192 3 181 2 179 3 M 119 126 C 133 134 121 174 96 206 C 79 227 48 252 37 253 C 28 255 25 251 26 239 C 27 218 58 169 87 140 C 102 127 111 122 119 126 z" fill="black"/><!-- width=204 height=279 -->
<path id="gl6158" d="M 191 9 C 183 14 180 18 172 31 C 168 38 161 49 154 58 C 144 71 126 98 112 118 C 104 131 55 200 47 211 C 33 229 25 236 14 239 C 7 240 4 247 10 248 C 15 251 71 248 74 247 C 75 245 74 241 67 239 C 59 235 58 230 64 220 C 88 180 104 157 109 155 C 114 152 165 150 169 151 C 177 155 178 162 176 197 C 172 228 168 236 159 239 C 149 241 145 244 149 247 C 150 248 197 250 217 250 C 224 248 224 241 217 240 C 200 236 197 229 201 186 C 201 177 202 150 203 127 C 206 69 207 48 210 29 C 211 3 208 1 191 9 M 180 50 C 184 54 184 63 183 82 C 182 88 180 100 180 110 C 178 138 177 139 150 138 C 117 137 117 135 140 101 C 149 88 159 74 161 67 C 167 58 176 49 177 49 C 178 49 179 49 180 50 z" fill="black"/><!-- width=233 height=259 -->
<path id="gl6154" d="M 47 6 C 28 13 8 29 11 36 C 12 39 15 39 22 34 C 34 25 41 24 44 30 C 45 35 42 41 20 102 C 4 145 3 149 8 154 C 14 160 18 156 33 126 C 56 80 64 68 91 41 C 110 23 115 19 121 19 C 131 19 132 30 122 55 C 118 63 111 79 107 90 C 102 102 96 118 93 127 C 84 147 84 153 94 155 C 109 159 158 126 150 117 C 149 115 147 115 138 122 C 126 133 121 136 117 132 C 115 128 115 125 122 109 C 154 36 158 14 142 6 C 127 -1 100 13 73 47 C 52 73 49 66 64 26 C 69 14 69 9 62 6 C 58 3 55 3 47 6 z" fill="black"/><!-- width=162 height=166 -->
<path id="gl6159" d="M 55 8 C 47 12 32 33 32 40 C 32 45 37 45 43 38 C 50 29 55 30 60 40 C 65 49 74 72 75 79 C 77 89 77 89 45 123 C 37 132 33 133 28 127 C 21 121 18 121 13 126 C 2 137 3 153 16 155 C 25 158 44 143 61 121 C 80 97 84 97 91 118 C 103 152 112 162 126 152 C 137 144 149 121 144 115 C 142 112 137 115 134 120 C 128 132 118 132 112 120 C 108 111 97 84 97 80 C 98 75 101 70 108 61 C 112 58 120 50 124 44 C 141 27 143 25 152 34 C 157 39 158 40 160 39 C 176 34 174 6 157 6 C 144 6 124 23 107 49 C 95 66 90 64 80 33 C 74 14 71 9 65 7 C 60 4 61 4 55 8 z" fill="black"/><!-- width=181 height=167 -->
<path id="gl5909" d="M 70 8 C 62 15 60 29 68 35 C 74 41 85 37 90 26 C 99 10 84 -2 70 8 M 54 97 C 35 107 17 120 18 125 C 18 129 23 129 29 124 C 39 117 42 117 45 119 C 47 123 47 126 36 152 C 24 181 9 219 7 228 C 1 246 20 245 52 224 C 67 214 73 207 73 202 C 73 195 70 196 56 209 C 36 226 29 220 40 195 C 42 188 49 170 57 153 C 64 136 71 119 73 114 C 82 93 75 86 54 97 z" fill="black"/><!-- width=102 height=251 -->
<path id="gl6150" d="M 86 6 C 45 17 4 76 8 122 C 9 151 26 161 54 152 C 73 144 91 128 86 122 C 84 120 83 121 71 128 C 57 138 49 141 40 137 C 32 132 29 127 30 110 C 30 87 34 83 58 78 C 101 68 131 37 118 14 C 114 4 102 2 86 6 M 99 18 C 107 27 95 47 69 63 C 37 84 37 63 68 30 C 83 16 92 12 99 18 z" fill="black"/><!-- width=132 height=164 -->
<path id="gl5918" d="M 65 6 C 64 6 61 14 56 23 C 47 40 46 41 32 43 C 21 45 18 46 18 50 C 18 53 19 54 28 54 C 35 54 39 58 39 62 C 39 63 35 75 31 90 C 21 117 8 160 7 168 C 3 183 12 186 26 179 C 54 167 84 139 76 133 C 74 130 72 131 58 145 C 45 157 40 160 36 158 C 32 156 31 151 34 144 C 37 131 59 67 61 62 C 64 54 67 53 80 54 C 101 56 107 54 107 47 C 107 42 103 41 89 42 C 70 43 68 40 74 23 C 78 13 78 8 75 6 C 74 3 68 3 65 6 z" fill="black"/><!-- width=116 height=194 -->
<path id="gl6162" d="M 86 5 C 83 5 78 9 75 11 C 66 19 63 20 60 17 C 57 16 56 17 57 23 C 58 28 58 31 57 35 C 52 51 58 57 65 43 C 74 29 81 26 87 34 C 98 50 96 133 86 167 C 78 191 59 218 46 224 C 38 228 35 228 27 223 C 17 216 14 216 8 222 C 0 230 5 245 19 247 C 44 251 77 221 113 160 C 118 153 124 142 127 136 C 144 111 148 102 154 89 C 157 82 161 71 163 65 C 165 60 167 53 168 51 C 172 43 177 22 177 17 C 177 13 172 5 167 5 C 157 4 155 8 153 28 C 149 56 145 72 136 98 C 126 124 118 136 114 129 C 113 129 113 107 113 83 C 113 45 113 38 111 29 C 106 9 99 2 86 5 z" fill="black"/><!-- width=186 height=258 -->
<path id="gl22795" d="M 85 3 C 67 6 65 12 79 16 C 90 19 92 31 86 48 C 83 55 79 67 65 118 C 62 127 57 143 54 154 C 50 164 47 177 44 184 C 33 220 26 232 14 232 C 12 232 9 235 8 236 C 7 237 6 238 4 240 C 6 240 7 241 8 241 C 10 243 15 243 30 242 C 41 242 61 242 74 242 C 101 243 123 243 131 241 C 133 240 138 238 144 237 C 155 235 165 232 170 230 C 172 229 177 226 182 224 C 216 210 242 181 253 148 C 261 121 261 82 253 61 C 251 55 248 50 241 41 C 237 35 222 22 213 18 C 201 13 199 12 196 12 C 195 12 193 10 190 9 C 189 8 184 7 179 7 C 175 6 170 4 167 3 C 164 2 96 2 85 3 M 149 14 C 152 14 159 15 164 16 C 222 26 245 76 223 147 C 217 167 193 199 177 208 C 171 211 167 213 158 218 C 154 220 150 222 149 222 C 148 222 146 223 143 224 C 136 228 105 232 91 231 C 66 229 57 218 66 196 C 67 194 70 187 71 181 C 73 175 77 161 80 150 C 86 131 95 105 97 97 C 97 95 100 86 102 78 C 119 21 120 18 129 14 C 135 12 142 12 149 14 z" fill="black"/><!-- width=271 height=252 -->
<path id="gl5909" d="M 70 8 C 62 15 60 29 68 35 C 74 41 85 37 90 26 C 99 10 84 -2 70 8 M 54 97 C 35 107 17 120 18 125 C 18 129 23 129 29 124 C 39 117 42 117 45 119 C 47 123 47 126 36 152 C 24 181 9 219 7 228 C 1 246 20 245 52 224 C 67 214 73 207 73 202 C 73 195 70 196 56 209 C 36 226 29 220 40 195 C 42 188 49 170 57 153 C 64 136 71 119 73 114 C 82 93 75 86 54 97 z" fill="black"/><!-- width=102 height=251 -->
<path id="gl5910" d="M 72 7 C 66 8 54 18 48 25 C 32 42 32 57 48 85 C 58 103 60 109 60 117 C 60 136 43 144 29 133 C 15 123 13 123 9 128 C 6 132 6 140 8 145 C 18 161 52 155 69 134 C 83 116 83 100 66 71 C 53 49 52 35 60 26 C 68 19 77 20 88 30 C 96 37 103 34 103 24 C 103 10 88 2 72 7 z" fill="black"/><!-- width=113 height=166 -->
<path id="gl5913" d="M 74 7 C 48 16 21 48 12 83 C 2 114 6 140 21 150 C 59 174 118 118 125 52 C 128 41 127 39 124 27 C 118 7 98 0 74 7 M 94 16 C 104 21 107 39 100 62 C 85 117 56 154 36 143 C 24 135 24 117 34 85 C 51 38 78 7 94 16 z" fill="black"/><!-- width=138 height=165 -->
<path id="gl5912" d="M 35 7 C 24 12 9 28 9 35 C 9 40 12 40 17 35 C 28 26 34 23 38 29 C 42 34 35 53 16 114 C 4 146 4 146 8 151 C 14 158 19 153 31 130 C 44 94 59 66 75 45 C 90 26 94 23 101 38 C 106 47 111 45 116 35 C 124 17 115 1 101 4 C 91 8 83 18 66 43 C 53 66 48 65 54 39 C 58 22 59 17 57 12 C 54 3 47 2 35 7 z" fill="black"/><!-- width=128 height=163 -->
<path id="gl17680" d="M 179 3 C 178 3 174 4 170 4 C 157 8 156 10 161 20 C 164 27 164 32 158 50 C 156 56 150 73 145 87 C 134 121 134 121 122 117 C 89 107 36 147 14 203 C -1 246 4 273 33 268 C 52 264 68 252 89 228 C 103 211 108 215 101 238 C 96 252 96 258 99 263 C 107 271 122 267 143 249 C 162 232 168 223 163 221 C 160 218 158 220 146 232 C 133 243 128 246 123 243 C 121 240 121 234 123 224 C 125 221 127 214 129 208 C 131 203 133 197 134 193 C 134 190 137 184 138 179 C 149 145 156 122 167 92 C 168 87 170 83 172 80 C 172 78 173 73 174 69 C 176 66 180 55 182 46 C 186 39 190 28 191 25 C 196 14 196 7 193 4 C 192 3 181 2 179 3 M 119 126 C 133 134 121 174 96 206 C 79 227 48 252 37 253 C 28 255 25 251 26 239 C 27 218 58 169 87 140 C 102 127 111 122 119 126 z" fill="black"/><!-- width=204 height=279 -->
<path id="gl6150" d="M 86 6 C 45 17 4 76 8 122 C 9 151 26 161 54 152 C 73 144 91 128 86 122 C 84 120 83 121 71 128 C 57 138 49 141 40 137 C 32 132 29 127 30 110 C 30 87 34 83 58 78 C 101 68 131 37 118 14 C 114 4 102 2 86 6 M 99 18 C 107 27 95 47 69 63 C 37 84 37 63 68 30 C 83 16 92 12 99 18 z" fill="black"/><!-- width=132 height=164 -->
<path id="gl5912" d="M 35 7 C 24 12 9 28 9 35 C 9 40 12 40 17 35 C 28 26 34 23 38 29 C 42 34 35 53 16 114 C 4 146 4 146 8 151 C 14 158 19 153 31 130 C 44 94 59 66 75 45 C 90 26 94 23 101 38 C 106 47 111 45 116 35 C 124 17 115 1 101 4 C 91 8 83 18 66 43 C 53 66 48 65 54 39 C 58 22 59 17 57 12 C 54 3 47 2 35 7 z" fill="black"/><!-- width=128 height=163 -->
</defs>
<use xlink:href="#gl22790" x="0" y="15"/>
<use xlink:href="#gl22791" x="354" y="15"/>
<use xlink:href="#gl22792" x="566" y="1"/>
<use xlink:href="#gl5913" x="655" y="115"/>
<use xlink:href="#gl5910" x="784" y="116"/>
<use xlink:href="#gl6150" x="891" y="116"/>
<use xlink:href="#gl22793" x="1025" y="115"/>
<use xlink:href="#gl10262" x="1221" y="21"/>
<use xlink:href="#gl5913" x="1424" y="115"/>
<use xlink:href="#gl5913" x="1570" y="115"/>
<use xlink:href="#gl22794" x="1713" y="3"/>
<use xlink:href="#gl5915" x="1957" y="106"/>
<use xlink:href="#gl5918" x="2127" y="86"/>
<use xlink:href="#gl6153" x="2336" y="15"/>
<use xlink:href="#gl6150" x="2556" y="115"/>
<use xlink:href="#gl6154" x="2687" y="114"/>
<use xlink:href="#gl6148" x="2861" y="116"/>
<use xlink:href="#gl5912" x="2992" y="114"/>
<use xlink:href="#gl10263" x="3087" y="103"/>
<use xlink:href="#gl6155" x="3256" y="3"/>
<use xlink:href="#gl5909" x="3345" y="27"/>
<use xlink:href="#gl6156" x="3428" y="116"/>
<use xlink:href="#gl6150" x="3586" y="114"/>
<use xlink:href="#gl17680" x="3706" y="1"/>
<use xlink:href="#gl6158" x="3937" y="16"/>
<use xlink:href="#gl6154" x="4182" y="112"/>
<use xlink:href="#gl6159" x="4336" y="112"/>
<use xlink:href="#gl5909" x="4509" y="26"/>
<use xlink:href="#gl6150" x="4605" y="112"/>
<use xlink:href="#gl5918" x="4733" y="82"/>
<use xlink:href="#gl6162" x="4781" y="113"/>
<use xlink:href="#gl22795" x="5044" y="20"/>
<use xlink:href="#gl5909" x="5319" y="25"/>
<use xlink:href="#gl5910" x="5400" y="111"/>
<use xlink:href="#gl5913" x="5509" y="112"/>
<use xlink:href="#gl5912" x="5662" y="113"/>
<use xlink:href="#gl17680" x="5764" y="0"/>
<use xlink:href="#gl6150" x="5938" y="111"/>
<use xlink:href="#gl5912" x="6071" y="111"/>
</svg>