<svg xmlns="http://www.w3.org/2000/svg" xmlns:xlink="http://www.w3.org/1999/xlink" width="459px" height="84px" viewBox="0 0 4597 848" version="1.1">
<defs>
<path id="gl5905" d="M 73 6 C 72 7 70 8 69 9 C 72 10 74 10 76 12 C 87 15 91 16 93 21 C 94 26 94 39 92 44 C 91 45 90 50 88 52 C 88 56 87 61 86 62 C 84 68 79 87 79 88 C 79 90 78 92 76 94 C 75 96 73 104 72 110 C 63 140 42 208 37 216 C 32 225 20 232 13 232 C 9 232 3 240 6 241 C 12 242 87 241 87 240 C 88 236 86 232 81 232 C 74 232 70 231 67 226 C 63 220 64 211 74 183 C 86 148 96 117 103 90 C 105 79 106 76 110 67 C 111 61 115 51 117 44 C 122 27 123 24 129 20 C 133 16 144 13 150 13 C 154 13 157 9 156 6 C 154 4 154 3 153 2 C 147 2 141 3 135 3 C 114 4 117 4 94 3 C 87 3 81 3 75 2 C 74 3 73 4 73 6 z" fill="black"/><!-- width=164 height=250 -->
<path id="gl5906" d="M 72 4 C 60 9 42 25 37 37 C 33 51 35 63 49 85 C 61 105 62 116 56 127 C 49 139 37 139 23 127 C 15 122 12 121 8 126 C 0 136 9 149 24 150 C 51 153 78 129 78 104 C 78 93 75 87 66 71 C 57 56 53 47 53 39 C 53 22 68 14 82 24 C 85 26 89 29 90 30 C 98 36 105 24 100 14 C 94 4 84 1 72 4 z" fill="black"/><!-- width=111 height=162 -->
<path id="gl5907" d="M 22 7 C 19 12 3 44 3 48 C 3 55 8 52 18 42 C 28 28 37 25 65 22 C 101 19 104 22 95 50 C 90 62 89 68 77 109 C 55 184 44 215 39 225 C 33 233 25 239 19 240 C 12 240 8 242 8 244 C 8 246 8 248 10 248 C 14 249 90 249 92 248 C 95 244 92 242 85 240 C 66 235 65 228 77 192 C 80 181 86 164 89 154 C 92 144 97 127 99 116 C 103 107 108 93 109 87 C 111 80 115 69 117 61 C 120 52 121 45 121 44 C 122 44 122 40 125 38 C 126 36 126 32 126 32 C 126 30 134 24 137 22 C 139 22 151 22 163 22 C 193 24 195 25 197 44 C 199 52 199 54 204 52 C 207 52 208 50 209 46 C 210 44 211 39 213 36 C 214 31 217 25 219 20 C 225 7 223 4 209 9 C 203 10 156 12 103 12 C 45 10 42 10 34 7 C 28 3 26 3 22 7 z" fill="black"/><!-- width=231 height=257 -->
<path id="gl5908" d="M 91 4 C 72 9 68 12 73 22 C 78 29 78 34 62 82 C 53 106 44 136 40 148 C 33 170 20 210 9 240 C 6 250 4 257 4 258 C 7 265 14 267 19 261 C 20 259 26 248 33 237 C 53 194 73 169 102 144 C 136 116 143 133 125 191 C 115 221 106 241 100 246 C 96 250 96 250 89 247 C 82 245 78 245 75 248 C 69 256 73 264 82 267 C 91 269 112 254 127 234 C 137 220 151 186 158 161 C 171 105 132 99 84 149 C 60 174 58 175 58 162 C 58 156 78 98 105 22 C 111 8 110 4 100 4 C 96 4 93 4 91 4 z" fill="black"/><!-- width=170 height=276 -->
<path id="gl5909" d="M 70 8 C 62 15 60 29 68 35 C 74 41 85 37 90 26 C 99 10 84 -2 70 8 M 54 97 C 35 107 17 120 18 125 C 18 129 23 129 29 124 C 39 117 42 117 45 119 C 47 123 47 126 36 152 C 24 181 9 219 7 228 C 1 246 20 245 52 224 C 67 214 73 207 73 202 C 73 195 70 196 56 209 C 36 226 29 220 40 195 C 42 188 49 170 57 153 C 64 136 71 119 73 114 C 82 93 75 86 54 97 z" fill="black"/><!-- width=102 height=251 -->
<path id="gl5910" d="M 72 7 C 66 8 54 18 48 25 C 32 42 32 57 48 85 C 58 103 60 109 60 117 C 60 136 43 144 29 133 C 15 123 13 123 9 128 C 6 132 6 140 8 145 C 18 161 52 155 69 134 C 83 116 83 100 66 71 C 53 49 52 35 60 26 C 68 19 77 20 88 30 C 96 37 103 34 103 24 C 103 10 88 2 72 7 z" fill="black"/><!-- width=113 height=166 -->
<path id="gl5911" d="M 88 3 C 85 3 79 4 74 6 C 64 8 64 8 66 12 C 66 13 66 14 66 15 C 69 15 72 15 75 16 C 84 16 85 16 87 20 C 91 25 91 38 87 48 C 86 51 84 57 82 62 C 81 67 79 75 76 80 C 75 86 73 91 73 92 C 73 94 70 104 68 112 C 67 116 63 123 62 130 C 60 138 58 145 57 148 C 56 152 54 159 51 165 C 49 177 44 190 42 195 C 40 198 39 200 39 200 C 39 204 32 219 28 223 C 24 228 13 232 9 232 C 6 232 3 235 3 237 C 3 238 4 241 4 241 C 8 241 81 241 84 241 C 87 240 81 234 76 232 C 62 230 60 219 68 192 C 72 183 74 175 74 174 C 75 172 76 169 78 165 C 78 162 80 153 82 147 C 85 140 88 128 90 121 C 92 114 94 106 96 106 C 96 105 97 103 97 100 C 97 98 99 93 100 88 C 100 85 103 78 104 73 C 106 67 109 57 111 51 C 112 45 115 37 116 32 C 121 14 129 9 146 14 C 150 15 153 16 156 16 C 171 19 184 39 184 60 C 184 75 177 97 166 108 C 160 114 148 122 146 122 C 146 122 142 124 139 127 C 135 129 129 132 127 132 C 122 134 118 138 122 140 C 126 142 153 138 164 132 C 196 116 212 94 212 63 C 212 37 200 20 177 10 C 172 8 168 7 165 7 C 164 7 160 6 158 4 C 152 3 110 2 88 3 z" fill="black"/><!-- width=222 height=250 -->
<path id="gl5912" d="M 35 7 C 24 12 9 28 9 35 C 9 40 12 40 17 35 C 28 26 34 23 38 29 C 42 34 35 53 16 114 C 4 146 4 146 8 151 C 14 158 19 153 31 130 C 44 94 59 66 75 45 C 90 26 94 23 101 38 C 106 47 111 45 116 35 C 124 17 115 1 101 4 C 91 8 83 18 66 43 C 53 66 48 65 54 39 C 58 22 59 17 57 12 C 54 3 47 2 35 7 z" fill="black"/><!-- width=128 height=163 -->
<path id="gl5913" d="M 74 7 C 48 16 21 48 12 83 C 2 114 6 140 21 150 C 59 174 118 118 125 52 C 128 41 127 39 124 27 C 118 7 98 0 74 7 M 94 16 C 104 21 107 39 100 62 C 85 117 56 154 36 143 C 24 135 24 117 34 85 C 51 38 78 7 94 16 z" fill="black"/><!-- width=138 height=165 -->
<path id="gl5914" d="M 101 7 C 75 14 53 40 46 70 C 41 89 42 99 55 110 C 64 119 64 119 59 130 C 55 140 55 144 56 155 C 57 163 56 165 41 171 C 7 185 -3 214 14 232 C 44 258 127 247 144 214 C 152 196 143 183 107 161 C 84 148 77 141 75 135 C 72 124 78 118 94 113 C 126 102 150 69 151 37 C 151 24 155 20 166 23 C 182 25 192 17 182 7 C 177 3 174 3 165 7 C 155 9 145 9 137 7 C 127 3 113 3 101 7 M 127 17 C 133 25 130 39 121 59 C 101 97 80 115 68 103 C 62 96 64 78 77 57 C 96 22 117 6 127 17 M 85 173 C 95 178 112 189 116 194 C 133 215 113 233 75 233 C 29 233 13 206 44 181 C 59 170 72 167 85 173 z" fill="black"/><!-- width=193 height=255 -->
<path id="gl5912" d="M 35 7 C 24 12 9 28 9 35 C 9 40 12 40 17 35 C 28 26 34 23 38 29 C 42 34 35 53 16 114 C 4 146 4 146 8 151 C 14 158 19 153 31 130 C 44 94 59 66 75 45 C 90 26 94 23 101 38 C 106 47 111 45 116 35 C 124 17 115 1 101 4 C 91 8 83 18 66 43 C 53 66 48 65 54 39 C 58 22 59 17 57 12 C 54 3 47 2 35 7 z" fill="black"/><!-- width=128 height=163 -->
<path id="gl5915" d="M 139 7 C 137 9 134 12 134 13 C 134 13 134 15 132 18 C 129 21 126 21 118 19 C 98 10 63 32 36 72 C 4 118 -1 161 20 161 C 32 161 54 148 74 131 C 90 115 95 117 87 139 C 83 151 83 155 88 158 C 95 166 123 154 143 135 C 150 128 150 127 148 124 C 145 122 144 122 133 131 C 120 141 112 144 109 137 C 107 133 109 128 117 106 C 121 97 128 78 134 64 C 139 49 146 32 149 25 C 155 10 155 9 151 6 C 148 2 143 2 139 7 M 112 32 C 122 40 121 52 105 81 C 93 104 67 131 48 140 C 23 154 29 111 58 67 C 78 38 99 24 112 32 z" fill="black"/><!-- width=163 height=172 -->
<path id="gl5916" d="M 41 7 C 28 12 18 19 10 29 C 6 36 12 40 19 34 C 29 25 36 23 41 26 C 45 29 45 32 40 48 C 37 54 35 63 34 67 C 32 70 30 76 29 81 C 18 107 6 141 6 145 C 6 152 15 154 20 148 C 23 146 29 134 36 119 C 56 80 67 65 92 39 C 107 24 114 19 120 19 C 130 19 131 28 123 48 C 115 70 98 113 93 125 C 85 146 86 152 96 152 C 102 152 103 151 120 119 C 128 104 129 102 141 82 C 152 64 178 35 191 24 C 207 12 215 21 208 43 C 203 56 185 102 178 118 C 168 139 167 142 169 147 C 171 152 174 153 184 152 C 203 148 236 124 232 115 C 231 112 229 113 221 119 C 206 134 196 134 199 120 C 199 118 206 104 212 89 C 218 74 225 56 228 49 C 241 14 230 -1 202 7 C 187 12 176 21 160 41 C 142 65 140 64 146 36 C 149 18 149 10 141 6 C 126 -1 99 12 76 41 C 54 69 51 65 63 32 C 65 24 69 15 69 13 C 69 3 57 1 41 7 z" fill="black"/><!-- width=243 height=162 -->
<path id="gl5917" d="M 91 6 C 73 7 71 8 69 12 C 68 14 69 15 78 18 C 89 21 91 27 87 42 C 77 80 39 203 32 218 C 28 225 21 232 15 234 C 6 237 2 241 7 243 C 8 244 71 244 75 244 C 80 242 79 239 72 236 C 57 228 57 222 73 173 C 75 166 78 157 79 154 C 83 140 90 136 102 134 C 115 134 120 140 125 161 C 130 179 143 221 147 227 C 150 238 162 244 180 245 C 186 245 189 245 191 244 C 198 241 197 239 189 234 C 174 226 173 225 162 195 C 154 173 148 147 148 139 C 148 133 151 130 160 127 C 197 115 216 84 209 49 C 206 30 194 18 169 9 C 159 6 127 4 91 6 M 157 19 C 202 38 186 107 132 124 C 109 132 97 132 93 124 C 90 118 90 118 104 71 C 108 60 112 48 113 43 C 119 20 122 16 139 16 C 148 16 151 16 157 19 z" fill="black"/><!-- width=222 height=255 -->
<path id="gl5909" d="M 70 8 C 62 15 60 29 68 35 C 74 41 85 37 90 26 C 99 10 84 -2 70 8 M 54 97 C 35 107 17 120 18 125 C 18 129 23 129 29 124 C 39 117 42 117 45 119 C 47 123 47 126 36 152 C 24 181 9 219 7 228 C 1 246 20 245 52 224 C 67 214 73 207 73 202 C 73 195 70 196 56 209 C 36 226 29 220 40 195 C 42 188 49 170 57 153 C 64 136 71 119 73 114 C 82 93 75 86 54 97 z" fill="black"/><!-- width=102 height=251 -->
<path id="gl5914" d="M 101 7 C 75 14 53 40 46 70 C 41 89 42 99 55 110 C 64 119 64 119 59 130 C 55 140 55 144 56 155 C 57 163 56 165 41 171 C 7 185 -3 214 14 232 C 44 258 127 247 144 214 C 152 196 143 183 107 161 C 84 148 77 141 75 135 C 72 124 78 118 94 113 C 126 102 150 69 151 37 C 151 24 155 20 166 23 C 182 25 192 17 182 7 C 177 3 174 3 165 7 C 155 9 145 9 137 7 C 127 3 113 3 101 7 M 127 17 C 133 25 130 39 121 59 C 101 97 80 115 68 103 C 62 96 64 78 77 57 C 96 22 117 6 127 17 M 85 173 C 95 178 112 189 116 194 C 133 215 113 233 75 233 C 29 233 13 206 44 181 C 59 170 72 167 85 173 z" fill="black"/><!-- width=193 height=255 -->
<path id="gl5908" d="M 91 4 C 72 9 68 12 73 22 C 78 29 78 34 62 82 C 53 106 44 136 40 148 C 33 170 20 210 9 240 C 6 250 4 257 4 258 C 7 265 14 267 19 261 C 20 259 26 248 33 237 C 53 194 73 169 102 144 C 136 116 143 133 125 191 C 115 221 106 241 100 246 C 96 250 96 250 89 247 C 82 245 78 245 75 248 C 69 256 73 264 82 267 C 91 269 112 254 127 234 C 137 220 151 186 158 161 C 171 105 132 99 84 149 C 60 174 58 175 58 162 C 58 156 78 98 105 22 C 111 8 110 4 100 4 C 96 4 93 4 91 4 z" fill="black"/><!-- width=170 height=276 -->
<path id="gl5918" d="M 65 6 C 64 6 61 14 56 23 C 47 40 46 41 32 43 C 21 45 18 46 18 50 C 18 53 19 54 28 54 C 35 54 39 58 39 62 C 39 63 35 75 31 90 C 21 117 8 160 7 168 C 3 183 12 186 26 179 C 54 167 84 139 76 133 C 74 130 72 131 58 145 C 45 157 40 160 36 158 C 32 156 31 151 34 144 C 37 131 59 67 61 62 C 64 54 67 53 80 54 C 101 56 107 54 107 47 C 107 42 103 41 89 42 C 70 43 68 40 74 23 C 78 13 78 8 75 6 C 74 3 68 3 65 6 z" fill="black"/><!-- width=116 height=194 -->
<path id="gl6144" d="M 200 4 C 178 8 160 23 144 46 C 134 60 132 66 123 90 C 114 120 115 120 99 120 C 87 121 86 121 84 123 C 81 129 83 132 94 133 C 107 133 111 138 106 152 C 105 156 99 180 92 208 C 67 306 60 327 50 336 C 43 343 35 342 21 329 C 10 321 0 334 7 348 C 10 353 20 359 27 359 C 43 357 65 345 75 329 C 86 315 99 274 115 214 C 128 164 134 143 135 139 C 139 133 141 133 161 133 C 166 133 172 134 178 134 C 179 133 180 132 181 131 C 190 122 185 118 163 120 C 140 120 139 118 150 87 C 162 52 174 30 188 21 C 198 13 215 18 218 29 C 223 43 225 47 229 47 C 241 47 247 25 240 14 C 232 4 215 1 200 4 M 237 174 C 235 174 236 174 240 174 C 243 174 245 174 245 174 C 243 172 238 172 237 174 M 179 198 C 179 200 188 200 191 198 C 192 197 191 197 186 197 C 183 197 179 197 179 198 z" fill="black"/><!-- width=253 height=366 -->
<path id="gl5913" d="M 74 7 C 48 16 21 48 12 83 C 2 114 6 140 21 150 C 59 174 118 118 125 52 C 128 41 127 39 124 27 C 118 7 98 0 74 7 M 94 16 C 104 21 107 39 100 62 C 85 117 56 154 36 143 C 24 135 24 117 34 85 C 51 38 78 7 94 16 z" fill="black"/><!-- width=138 height=165 -->
<path id="gl5912" d="M 35 7 C 24 12 9 28 9 35 C 9 40 12 40 17 35 C 28 26 34 23 38 29 C 42 34 35 53 16 114 C 4 146 4 146 8 151 C 14 158 19 153 31 130 C 44 94 59 66 75 45 C 90 26 94 23 101 38 C 106 47 111 45 116 35 C 124 17 115 1 101 4 C 91 8 83 18 66 43 C 53 66 48 65 54 39 C 58 22 59 17 57 12 C 54 3 47 2 35 7 z" fill="black"/><!-- width=128 height=163 -->
<path id="gl6145" d="M 164 4 C 154 6 150 10 156 14 C 168 22 168 25 145 51 C 123 79 116 88 103 106 C 91 123 89 125 84 124 C 79 124 78 120 63 47 C 59 25 61 20 73 15 C 80 13 82 10 79 8 C 77 4 19 4 14 8 C 10 10 12 13 20 16 C 31 21 34 28 43 66 C 44 75 49 94 51 106 C 61 147 61 153 47 194 C 34 230 31 235 10 238 C 6 240 4 243 7 246 C 8 247 84 247 85 246 C 89 244 88 241 84 240 C 62 235 61 230 74 188 C 88 144 89 142 113 114 C 129 96 137 85 151 68 C 167 48 189 25 197 21 C 200 20 206 18 209 15 C 217 12 217 10 214 7 C 213 4 185 3 164 4 z" fill="black"/><!-- width=226 height=258 -->
<path id="gl5913" d="M 74 7 C 48 16 21 48 12 83 C 2 114 6 140 21 150 C 59 174 118 118 125 52 C 128 41 127 39 124 27 C 118 7 98 0 74 7 M 94 16 C 104 21 107 39 100 62 C 85 117 56 154 36 143 C 24 135 24 117 34 85 C 51 38 78 7 94 16 z" fill="black"/><!-- width=138 height=165 -->
<path id="gl6146" d="M 54 4 C 39 11 3 37 3 44 C 3 50 8 49 18 40 C 30 28 40 27 40 37 C 40 39 37 48 34 55 C 18 99 8 128 7 139 C 6 153 16 159 29 152 C 45 143 61 130 79 110 C 90 96 95 92 97 95 C 101 97 99 107 90 130 C 82 147 82 152 91 154 C 97 157 107 154 126 141 C 142 130 152 120 151 115 C 151 107 146 108 137 118 C 123 132 118 136 113 131 C 108 126 115 106 143 37 C 153 13 153 13 147 8 C 139 1 136 4 122 33 C 104 70 94 85 65 112 C 44 131 40 134 35 131 C 29 128 29 122 39 99 C 43 87 49 71 53 63 C 55 54 61 40 64 33 C 70 17 71 11 68 7 C 64 4 59 3 54 4 z" fill="black"/><!-- width=160 height=165 -->
<path id="gl6147" d="M 66 2 C 51 6 43 14 45 22 C 48 27 51 28 60 25 C 70 21 78 21 86 25 C 98 30 98 31 98 44 C 98 49 99 52 99 56 C 97 58 94 61 92 63 C 85 72 74 80 56 90 C 50 93 34 105 31 109 C 18 122 18 145 28 156 C 34 163 37 160 37 147 C 37 138 39 128 44 124 C 51 118 58 114 66 110 C 85 99 98 88 106 74 C 112 64 114 43 110 37 C 109 36 108 33 108 31 C 108 28 106 26 105 26 C 104 26 103 24 103 22 C 102 19 91 8 87 7 C 86 7 84 6 82 4 C 80 2 72 1 66 2 M 20 204 C 13 206 8 214 8 223 C 8 240 33 242 40 226 C 46 212 34 199 20 204 z" fill="black"/><!-- width=120 height=244 -->
<path id="gl5907" d="M 22 7 C 19 12 3 44 3 48 C 3 55 8 52 18 42 C 28 28 37 25 65 22 C 101 19 104 22 95 50 C 90 62 89 68 77 109 C 55 184 44 215 39 225 C 33 233 25 239 19 240 C 12 240 8 242 8 244 C 8 246 8 248 10 248 C 14 249 90 249 92 248 C 95 244 92 242 85 240 C 66 235 65 228 77 192 C 80 181 86 164 89 154 C 92 144 97 127 99 116 C 103 107 108 93 109 87 C 111 80 115 69 117 61 C 120 52 121 45 121 44 C 122 44 122 40 125 38 C 126 36 126 32 126 32 C 126 30 134 24 137 22 C 139 22 151 22 163 22 C 193 24 195 25 197 44 C 199 52 199 54 204 52 C 207 52 208 50 209 46 C 210 44 211 39 213 36 C 214 31 217 25 219 20 C 225 7 223 4 209 9 C 203 10 156 12 103 12 C 45 10 42 10 34 7 C 28 3 26 3 22 7 z" fill="black"/><!-- width=231 height=257 -->
<path id="gl5908" d="M 91 4 C 72 9 68 12 73 22 C 78 29 78 34 62 82 C 53 106 44 136 40 148 C 33 170 20 210 9 240 C 6 250 4 257 4 258 C 7 265 14 267 19 261 C 20 259 26 248 33 237 C 53 194 73 169 102 144 C 136 116 143 133 125 191 C 115 221 106 241 100 246 C 96 250 96 250 89 247 C 82 245 78 245 75 248 C 69 256 73 264 82 267 C 91 269 112 254 127 234 C 137 220 151 186 158 161 C 171 105 132 99 84 149 C 60 174 58 175 58 162 C 58 156 78 98 105 22 C 111 8 110 4 100 4 C 96 4 93 4 91 4 z" fill="black"/><!-- width=170 height=276 -->
<path id="gl6148" d="M 85 4 C 44 16 7 69 7 115 C 7 141 15 152 34 152 C 46 152 55 150 64 144 C 74 138 85 128 85 125 C 85 119 83 117 75 123 C 55 139 44 140 34 131 C 28 126 27 117 28 103 C 31 85 34 81 50 78 C 57 76 70 73 73 72 C 74 70 78 69 81 68 C 90 64 103 55 110 48 C 132 24 116 -3 85 4 M 95 15 C 110 22 90 51 58 67 C 46 73 40 70 43 62 C 48 45 79 14 90 13 C 91 13 93 14 95 15 z" fill="black"/><!-- width=131 height=163 -->
<path id="gl6149" d="M 243 3 C 241 3 238 6 237 7 C 236 8 235 8 234 9 C 236 10 237 12 238 12 C 241 14 243 14 243 14 C 246 14 249 20 251 22 C 252 26 248 40 245 54 C 243 58 241 66 240 70 C 238 75 236 81 235 85 C 234 88 232 93 232 96 C 231 99 231 103 230 104 C 229 106 228 112 225 118 C 224 123 222 132 222 135 C 220 139 218 146 217 151 C 216 157 213 165 211 170 C 208 182 205 186 200 184 C 195 183 189 172 178 142 C 174 126 158 86 152 74 C 150 69 147 62 146 60 C 145 57 142 50 141 45 C 139 40 135 30 133 22 C 127 6 128 6 106 4 C 87 3 84 4 80 7 C 79 9 79 9 84 13 C 94 21 93 27 80 66 C 78 72 74 80 74 84 C 74 86 73 90 72 91 C 70 93 70 96 69 98 C 69 100 68 104 67 106 C 66 110 62 120 60 132 C 58 135 57 141 56 144 C 55 146 55 150 54 151 C 54 152 54 156 52 158 C 50 163 48 172 45 180 C 44 183 43 187 43 188 C 42 189 42 192 42 193 C 42 196 28 222 25 225 C 24 226 18 229 13 231 C 4 235 3 236 4 238 C 6 241 70 242 72 241 C 75 236 74 234 66 231 C 51 224 51 218 61 187 C 63 180 66 172 67 169 C 68 163 69 156 74 139 C 75 134 79 126 80 118 C 81 112 85 102 87 96 C 88 88 91 78 92 72 C 98 45 105 34 112 42 C 115 45 123 62 127 75 C 129 81 134 94 139 105 C 170 186 177 204 187 229 C 194 252 201 252 206 230 C 208 222 222 180 225 170 C 231 154 238 134 246 109 C 249 96 252 87 254 80 C 255 79 257 72 259 67 C 267 37 279 18 291 15 C 295 15 299 14 300 12 C 301 12 302 10 303 9 C 302 8 301 8 300 7 C 297 3 297 3 283 4 C 275 4 264 3 259 3 C 253 3 246 3 243 3 z" fill="black"/><!-- width=312 height=254 -->
<path id="gl5915" d="M 139 7 C 137 9 134 12 134 13 C 134 13 134 15 132 18 C 129 21 126 21 118 19 C 98 10 63 32 36 72 C 4 118 -1 161 20 161 C 32 161 54 148 74 131 C 90 115 95 117 87 139 C 83 151 83 155 88 158 C 95 166 123 154 143 135 C 150 128 150 127 148 124 C 145 122 144 122 133 131 C 120 141 112 144 109 137 C 107 133 109 128 117 106 C 121 97 128 78 134 64 C 139 49 146 32 149 25 C 155 10 155 9 151 6 C 148 2 143 2 139 7 M 112 32 C 122 40 121 52 105 81 C 93 104 67 131 48 140 C 23 154 29 111 58 67 C 78 38 99 24 112 32 z" fill="black"/><!-- width=163 height=172 -->
<path id="gl5918" d="M 65 6 C 64 6 61 14 56 23 C 47 40 46 41 32 43 C 21 45 18 46 18 50 C 18 53 19 54 28 54 C 35 54 39 58 39 62 C 39 63 35 75 31 90 C 21 117 8 160 7 168 C 3 183 12 186 26 179 C 54 167 84 139 76 133 C 74 130 72 131 58 145 C 45 157 40 160 36 158 C 32 156 31 151 34 144 C 37 131 59 67 61 62 C 64 54 67 53 80 54 C 101 56 107 54 107 47 C 107 42 103 41 89 42 C 70 43 68 40 74 23 C 78 13 78 8 75 6 C 74 3 68 3 65 6 z" fill="black"/><!-- width=116 height=194 -->
<path id="gl6146" d="M 54 4 C 39 11 3 37 3 44 C 3 50 8 49 18 40 C 30 28 40 27 40 37 C 40 39 37 48 34 55 C 18 99 8 128 7 139 C 6 153 16 159 29 152 C 45 143 61 130 79 110 C 90 96 95 92 97 95 C 101 97 99 107 90 130 C 82 147 82 152 91 154 C 97 157 107 154 126 141 C 142 130 152 120 151 115 C 151 107 146 108 137 118 C 123 132 118 136 113 131 C 108 126 115 106 143 37 C 153 13 153 13 147 8 C 139 1 136 4 122 33 C 104 70 94 85 65 112 C 44 131 40 134 35 131 C 29 128 29 122 39 99 C 43 87 49 71 53 63 C 55 54 61 40 64 33 C 70 17 71 11 68 7 C 64 4 59 3 54 4 z" fill="black"/><!-- width=160 height=165 -->
<path id="gl5912" d="M 35 7 C 24 12 9 28 9 35 C 9 40 12 40 17 35 C 28 26 34 23 38 29 C 42 34 35 53 16 114 C 4 146 4 146 8 151 C 14 158 19 153 31 130 C 44 94 59 66 75 45 C 90 26 94 23 101 38 C 106 47 111 45 116 35 C 124 17 115 1 101 4 C 91 8 83 18 66 43 C 53 66 48 65 54 39 C 58 22 59 17 57 12 C 54 3 47 2 35 7 z" fill="black"/><!-- width=128 height=163 -->
<path id="gl6150" d="M 86 6 C 45 17 4 76 8 122 C 9 151 26 161 54 152 C 73 144 91 128 86 122 C 84 120 83 121 71 128 C 57 138 49 141 40 137 C 32 132 29 127 30 110 C 30 87 34 83 58 78 C 101 68 131 37 118 14 C 114 4 102 2 86 6 M 99 18 C 107 27 95 47 69 63 C 37 84 37 63 68 30 C 83 16 92 12 99 18 z" fill="black"/><!-- width=132 height=164 -->
<path id="gl5913" d="M 74 7 C 48 16 21 48 12 83 C 2 114 6 140 21 150 C 59 174 118 118 125 52 C 128 41 127 39 124 27 C 118 7 98 0 74 7 M 94 16 C 104 21 107 39 100 62 C 85 117 56 154 36 143 C 24 135 24 117 34 85 C 51 38 78 7 94 16 z" fill="black"/><!-- width=138 height=165 -->
<path id="gl6151" d="M 176 3 C 175 6 172 7 172 7 C 169 7 152 24 146 33 C 136 46 128 68 122 85 C 116 105 114 106 99 106 C 87 106 84 109 82 112 C 81 117 86 120 94 120 C 111 120 111 123 103 157 C 100 162 98 171 97 180 C 94 188 92 198 91 201 C 87 213 80 244 79 252 C 79 254 78 256 76 258 C 76 259 73 272 69 283 C 66 296 61 312 56 319 C 49 331 33 331 22 319 C 18 313 14 312 10 314 C -3 324 10 348 31 345 C 44 344 72 327 74 318 C 74 316 76 314 78 312 C 79 310 81 307 82 304 C 86 296 92 278 93 274 C 93 272 94 270 96 268 C 97 267 97 265 97 264 C 97 261 100 250 106 229 C 109 220 112 208 114 201 C 116 195 118 186 120 182 C 121 178 122 171 123 168 C 134 121 135 120 160 118 C 178 118 184 117 184 112 C 184 108 178 105 164 106 C 159 106 154 108 151 108 C 150 106 148 105 147 104 C 144 102 144 100 145 94 C 147 73 169 30 184 14 C 187 13 188 12 189 9 C 188 8 188 7 187 6 C 183 1 181 1 176 3 z" fill="black"/><!-- width=198 height=356 -->
<path id="gl6152" d="M 14 7 C 4 9 0 13 3 15 C 6 18 8 18 14 16 C 28 12 39 20 42 34 C 44 43 45 45 51 43 C 52 42 55 39 56 38 C 67 16 44 1 14 7 z" fill="black"/><!-- width=73 height=54 -->
<path id="gl6153" d="M 152 3 C 148 4 142 5 141 5 C 139 7 135 7 133 7 C 128 7 100 16 97 20 C 96 21 93 22 92 22 C 90 22 87 24 86 24 C 84 26 78 30 72 34 C 47 49 27 76 15 106 C 5 134 3 174 10 197 C 15 210 23 223 33 231 C 39 237 55 247 58 247 C 59 247 60 247 62 248 C 72 253 106 256 118 253 C 121 253 127 251 131 250 C 136 250 142 249 143 248 C 146 247 154 244 160 243 C 175 238 177 236 177 226 C 177 219 178 217 186 191 C 194 165 198 159 207 154 C 216 149 218 147 215 144 C 211 141 141 141 139 144 C 136 148 139 149 149 152 C 168 158 169 163 158 199 C 144 236 140 241 109 241 C 83 242 68 237 55 225 C 26 199 26 142 55 84 C 74 48 116 21 158 17 C 163 16 172 15 174 15 C 179 15 196 17 199 20 C 209 24 213 33 213 47 C 215 57 215 58 217 59 C 222 60 225 57 231 38 C 240 14 238 13 213 7 C 198 3 166 2 152 3 z" fill="black"/><!-- width=247 height=263 -->
<path id="gl6150" d="M 86 6 C 45 17 4 76 8 122 C 9 151 26 161 54 152 C 73 144 91 128 86 122 C 84 120 83 121 71 128 C 57 138 49 141 40 137 C 32 132 29 127 30 110 C 30 87 34 83 58 78 C 101 68 131 37 118 14 C 114 4 102 2 86 6 M 99 18 C 107 27 95 47 69 63 C 37 84 37 63 68 30 C 83 16 92 12 99 18 z" fill="black"/><!-- width=132 height=164 -->
<path id="gl6154" d="M 47 6 C 28 13 8 29 11 36 C 12 39 15 39 22 34 C 34 25 41 24 44 30 C 45 35 42 41 20 102 C 4 145 3 149 8 154 C 14 160 18 156 33 126 C 56 80 64 68 91 41 C 110 23 115 19 121 19 C 131 19 132 30 122 55 C 118 63 111 79 107 90 C 102 102 96 118 93 127 C 84 147 84 153 94 155 C 109 159 158 126 150 117 C 149 115 147 115 138 122 C 126 133 121 136 117 132 C 115 128 115 125 122 109 C 154 36 158 14 142 6 C 127 -1 100 13 73 47 C 52 73 49 66 64 26 C 69 14 69 9 62 6 C 58 3 55 3 47 6 z" fill="black"/><!-- width=162 height=166 -->
<path id="gl6150" d="M 86 6 C 45 17 4 76 8 122 C 9 151 26 161 54 152 C 73 144 91 128 86 122 C 84 120 83 121 71 128 C 57 138 49 141 40 137 C 32 132 29 127 30 110 C 30 87 34 83 58 78 C 101 68 131 37 118 14 C 114 4 102 2 86 6 M 99 18 C 107 27 95 47 69 63 C 37 84 37 63 68 30 C 83 16 92 12 99 18 z" fill="black"/><!-- width=132 height=164 -->
<path id="gl5912" d="M 35 7 C 24 12 9 28 9 35 C 9 40 12 40 17 35 C 28 26 34 23 38 29 C 42 34 35 53 16 114 C 4 146 4 146 8 151 C 14 158 19 153 31 130 C 44 94 59 66 75 45 C 90 26 94 23 101 38 C 106 47 111 45 116 35 C 124 17 115 1 101 4 C 91 8 83 18 66 43 C 53 66 48 65 54 39 C 58 22 59 17 57 12 C 54 3 47 2 35 7 z" fill="black"/><!-- width=128 height=163 -->
<path id="gl5915" d="M 139 7 C 137 9 134 12 134 13 C 134 13 134 15 132 18 C 129 21 126 21 118 19 C 98 10 63 32 36 72 C 4 118 -1 161 20 161 C 32 161 54 148 74 131 C 90 115 95 117 87 139 C 83 151 83 155 88 158 C 95 166 123 154 143 135 C 150 128 150 127 148 124 C 145 122 144 122 133 131 C 120 141 112 144 109 137 C 107 133 109 128 117 106 C 121 97 128 78 134 64 C 139 49 146 32 149 25 C 155 10 155 9 151 6 C 148 2 143 2 139 7 M 112 32 C 122 40 121 52 105 81 C 93 104 67 131 48 140 C 23 154 29 111 58 67 C 78 38 99 24 112 32 z" fill="black"/><!-- width=163 height=172 -->
<path id="gl6155" d="M 93 3 C 81 6 69 9 67 12 C 63 15 63 17 69 24 C 74 30 73 36 60 74 C 54 94 44 125 39 142 C 33 159 27 179 24 187 C 15 213 6 250 6 252 C 6 266 25 268 44 256 C 66 244 84 218 73 217 C 71 216 67 219 55 232 C 42 245 40 247 36 247 C 28 247 28 240 35 220 C 38 212 46 185 55 159 C 63 132 78 88 88 60 C 94 42 99 24 105 7 C 104 7 103 6 103 4 C 99 3 98 2 93 3 z" fill="black"/><!-- width=114 height=274 -->
<path id="gl5909" d="M 70 8 C 62 15 60 29 68 35 C 74 41 85 37 90 26 C 99 10 84 -2 70 8 M 54 97 C 35 107 17 120 18 125 C 18 129 23 129 29 124 C 39 117 42 117 45 119 C 47 123 47 126 36 152 C 24 181 9 219 7 228 C 1 246 20 245 52 224 C 67 214 73 207 73 202 C 73 195 70 196 56 209 C 36 226 29 220 40 195 C 42 188 49 170 57 153 C 64 136 71 119 73 114 C 82 93 75 86 54 97 z" fill="black"/><!-- width=102 height=251 -->
<path id="gl6156" d="M 147 7 C 136 14 129 15 109 9 C 77 1 54 6 37 26 C 26 40 26 54 38 57 C 49 59 53 54 51 41 C 48 23 57 19 86 23 C 103 25 109 29 107 37 C 107 38 98 47 88 57 C 79 66 62 82 49 93 C 38 104 25 118 20 121 C 4 136 2 139 6 147 C 8 153 12 153 19 144 C 30 131 36 131 64 143 C 99 159 111 159 132 139 C 149 125 152 103 137 97 C 127 93 125 97 126 115 C 126 119 127 124 127 129 C 126 130 124 132 122 133 C 116 141 109 139 83 131 C 73 126 63 122 62 122 C 59 122 52 119 51 118 C 49 114 53 108 66 96 C 74 90 91 73 104 60 C 118 47 135 31 142 25 C 157 13 159 9 157 6 C 154 2 152 2 147 7 z" fill="black"/><!-- width=166 height=165 -->
<path id="gl6150" d="M 86 6 C 45 17 4 76 8 122 C 9 151 26 161 54 152 C 73 144 91 128 86 122 C 84 120 83 121 71 128 C 57 138 49 141 40 137 C 32 132 29 127 30 110 C 30 87 34 83 58 78 C 101 68 131 37 118 14 C 114 4 102 2 86 6 M 99 18 C 107 27 95 47 69 63 C 37 84 37 63 68 30 C 83 16 92 12 99 18 z" fill="black"/><!-- width=132 height=164 -->
<path id="gl6157" d="M 169 4 C 157 7 153 13 159 20 C 164 26 162 38 141 93 C 134 114 135 112 132 115 C 129 116 127 115 120 112 C 109 110 104 110 96 112 C 88 115 76 121 72 124 C 69 126 67 128 64 128 C 63 129 55 138 46 145 C 26 168 15 186 7 222 C 0 247 7 260 26 260 C 44 260 57 254 80 231 C 88 223 97 214 98 214 C 103 211 103 219 98 235 C 94 245 94 251 97 255 C 104 266 120 261 142 241 C 163 224 168 216 160 214 C 158 213 156 216 146 225 C 124 246 116 243 123 218 C 130 190 159 102 164 93 C 165 92 168 86 169 80 C 171 73 176 58 181 46 C 195 8 196 7 190 3 C 189 2 176 3 169 4 M 120 123 C 136 141 102 205 58 236 C 36 252 24 251 25 234 C 26 218 48 177 69 153 C 73 150 79 142 82 139 C 96 123 114 116 120 123 z" fill="black"/><!-- width=206 height=269 -->
<path id="gl6158" d="M 191 9 C 183 14 180 18 172 31 C 168 38 161 49 154 58 C 144 71 126 98 112 118 C 104 131 55 200 47 211 C 33 229 25 236 14 239 C 7 240 4 247 10 248 C 15 251 71 248 74 247 C 75 245 74 241 67 239 C 59 235 58 230 64 220 C 88 180 104 157 109 155 C 114 152 165 150 169 151 C 177 155 178 162 176 197 C 172 228 168 236 159 239 C 149 241 145 244 149 247 C 150 248 197 250 217 250 C 224 248 224 241 217 240 C 200 236 197 229 201 186 C 201 177 202 150 203 127 C 206 69 207 48 210 29 C 211 3 208 1 191 9 M 180 50 C 184 54 184 63 183 82 C 182 88 180 100 180 110 C 178 138 177 139 150 138 C 117 137 117 135 140 101 C 149 88 159 74 161 67 C 167 58 176 49 177 49 C 178 49 179 49 180 50 z" fill="black"/><!-- width=233 height=259 -->
<path id="gl6154" d="M 47 6 C 28 13 8 29 11 36 C 12 39 15 39 22 34 C 34 25 41 24 44 30 C 45 35 42 41 20 102 C 4 145 3 149 8 154 C 14 160 18 156 33 126 C 56 80 64 68 91 41 C 110 23 115 19 121 19 C 131 19 132 30 122 55 C 118 63 111 79 107 90 C 102 102 96 118 93 127 C 84 147 84 153 94 155 C 109 159 158 126 150 117 C 149 115 147 115 138 122 C 126 133 121 136 117 132 C 115 128 115 125 122 109 C 154 36 158 14 142 6 C 127 -1 100 13 73 47 C 52 73 49 66 64 26 C 69 14 69 9 62 6 C 58 3 55 3 47 6 z" fill="black"/><!-- width=162 height=166 -->
<path id="gl6159" d="M 55 8 C 47 12 32 33 32 40 C 32 45 37 45 43 38 C 50 29 55 30 60 40 C 65 49 74 72 75 79 C 77 89 77 89 45 123 C 37 132 33 133 28 127 C 21 121 18 121 13 126 C 2 137 3 153 16 155 C 25 158 44 143 61 121 C 80 97 84 97 91 118 C 103 152 112 162 126 152 C 137 144 149 121 144 115 C 142 112 137 115 134 120 C 128 132 118 132 112 120 C 108 111 97 84 97 80 C 98 75 101 70 108 61 C 112 58 120 50 124 44 C 141 27 143 25 152 34 C 157 39 158 40 160 39 C 176 34 174 6 157 6 C 144 6 124 23 107 49 C 95 66 90 64 80 33 C 74 14 71 9 65 7 C 60 4 61 4 55 8 z" fill="black"/><!-- width=181 height=167 -->
<path id="gl6160" d="M 75 3 C 67 7 61 20 64 26 C 70 37 78 38 86 30 C 93 22 94 19 93 12 C 92 3 84 0 75 3 M 60 88 C 56 90 49 93 44 97 C 39 100 33 104 31 105 C 22 110 15 121 20 121 C 24 122 32 116 34 114 C 36 111 43 109 46 110 C 51 111 50 117 40 139 C 38 146 34 154 33 158 C 32 162 31 165 30 166 C 28 170 21 189 20 194 C 18 198 12 212 9 218 C 4 229 9 238 19 236 C 26 234 33 230 39 228 C 43 225 46 223 48 223 C 58 217 74 202 74 199 C 74 193 69 193 63 200 C 37 225 26 213 46 180 C 49 176 51 169 52 164 C 54 159 56 152 57 150 C 58 146 61 140 63 135 C 64 130 68 122 70 117 C 80 97 81 91 75 87 C 72 85 68 85 60 88 z" fill="black"/><!-- width=105 height=245 -->
<path id="gl6150" d="M 86 6 C 45 17 4 76 8 122 C 9 151 26 161 54 152 C 73 144 91 128 86 122 C 84 120 83 121 71 128 C 57 138 49 141 40 137 C 32 132 29 127 30 110 C 30 87 34 83 58 78 C 101 68 131 37 118 14 C 114 4 102 2 86 6 M 99 18 C 107 27 95 47 69 63 C 37 84 37 63 68 30 C 83 16 92 12 99 18 z" fill="black"/><!-- width=132 height=164 -->
<path id="gl6161" d="M 66 7 C 65 8 60 15 58 21 C 49 39 48 40 34 42 C 22 43 21 43 18 47 C 17 51 20 52 28 53 C 42 54 43 56 33 86 C 24 111 23 112 15 144 C 5 176 5 175 8 179 C 9 183 11 185 16 185 C 34 186 86 142 78 134 C 75 130 72 132 60 144 C 45 160 40 162 35 157 C 33 154 33 148 37 135 C 43 119 59 72 59 71 C 59 69 60 66 61 62 C 66 53 68 52 83 53 C 100 54 104 54 106 51 C 112 43 106 40 90 41 C 79 41 78 41 75 39 C 72 35 72 34 77 20 C 80 9 79 4 73 4 C 69 4 68 4 66 7 z" fill="black"/><!-- width=117 height=196 -->
<path id="gl6162" d="M 86 5 C 83 5 78 9 75 11 C 66 19 63 20 60 17 C 57 16 56 17 57 23 C 58 28 58 31 57 35 C 52 51 58 57 65 43 C 74 29 81 26 87 34 C 98 50 96 133 86 167 C 78 191 59 218 46 224 C 38 228 35 228 27 223 C 17 216 14 216 8 222 C 0 230 5 245 19 247 C 44 251 77 221 113 160 C 118 153 124 142 127 136 C 144 111 148 102 154 89 C 157 82 161 71 163 65 C 165 60 167 53 168 51 C 172 43 177 22 177 17 C 177 13 172 5 167 5 C 157 4 155 8 153 28 C 149 56 145 72 136 98 C 126 124 118 136 114 129 C 113 129 113 107 113 83 C 113 45 113 38 111 29 C 106 9 99 2 86 5 z" fill="black"/><!-- width=186 height=258 -->
</defs>
<use xlink:href="#gl5905" x="4" y="22"/>
<use xlink:href="#gl5906" x="116" y="116"/>
<use xlink:href="#gl5907" x="336" y="14"/>
<use xlink:href="#gl5908" x="519" y="2"/>
<use xlink:href="#gl5909" x="697" y="26"/>
<use xlink:href="#gl5910" x="778" y="112"/>
<use xlink:href="#gl5911" x="969" y="22"/>
<use xlink:href="#gl5912" x="1173" y="114"/>
<use xlink:href="#gl5913" x="1286" y="112"/>
<use xlink:href="#gl5914" x="1396" y="114"/>
<use xlink:href="#gl5912" x="1575" y="112"/>
<use xlink:href="#gl5915" x="1670" y="104"/>
<use xlink:href="#gl5916" x="1844" y="113"/>
<use xlink:href="#gl5917" x="2182" y="18"/>
<use xlink:href="#gl5909" x="2397" y="24"/>
<use xlink:href="#gl5914" x="2458" y="113"/>
<use xlink:href="#gl5908" x="2626" y="0"/>
<use xlink:href="#gl5918" x="2804" y="80"/>
<use xlink:href="#gl6144" x="2923" y="0"/>
<use xlink:href="#gl5913" x="3083" y="111"/>
<use xlink:href="#gl5912" x="3237" y="112"/>
<use xlink:href="#gl6145" x="3455" y="16"/>
<use xlink:href="#gl5913" x="3594" y="111"/>
<use xlink:href="#gl6146" x="3748" y="109"/>
<use xlink:href="#gl6147" x="3921" y="27"/>
<use xlink:href="#gl5907" x="0" y="495"/>
<use xlink:href="#gl5908" x="185" y="481"/>
<use xlink:href="#gl6148" x="358" y="593"/>
<use xlink:href="#gl6149" x="561" y="502"/>
<use xlink:href="#gl5915" x="817" y="584"/>
<use xlink:href="#gl5918" x="988" y="562"/>
<use xlink:href="#gl6146" x="1096" y="591"/>
<use xlink:href="#gl5912" x="1272" y="591"/>
<use xlink:href="#gl6150" x="1378" y="591"/>
<use xlink:href="#gl5913" x="1593" y="591"/>
<use xlink:href="#gl6151" x="1670" y="492"/>
<use xlink:href="#gl6152" x="1853" y="483"/>
<use xlink:href="#gl6153" x="1963" y="494"/>
<use xlink:href="#gl6150" x="2184" y="591"/>
<use xlink:href="#gl6154" x="2317" y="590"/>
<use xlink:href="#gl6150" x="2487" y="591"/>
<use xlink:href="#gl5912" x="2621" y="590"/>
<use xlink:href="#gl5915" x="2716" y="582"/>
<use xlink:href="#gl6155" x="2885" y="481"/>
<use xlink:href="#gl5909" x="2975" y="503"/>
<use xlink:href="#gl6156" x="3058" y="591"/>
<use xlink:href="#gl6150" x="3214" y="589"/>
<use xlink:href="#gl6157" x="3336" y="483"/>
<use xlink:href="#gl6158" x="3566" y="494"/>
<use xlink:href="#gl6154" x="3813" y="589"/>
<use xlink:href="#gl6159" x="3966" y="588"/>
<use xlink:href="#gl6160" x="4137" y="507"/>
<use xlink:href="#gl6150" x="4233" y="588"/>
<use xlink:href="#gl6161" x="4362" y="558"/>
<use xlink:href="#gl6162" x="4411" y="587"/>
</svg>