<svg xmlns="http://www.w3.org/2000/svg" xmlns:xlink="http://www.w3.org/1999/xlink" width="621px" height="30px" viewBox="0 0 6213 302" version="1.1">
<defs>
<path id="gl4621" d="M 67 12 C 66 13 64 16 64 18 C 64 19 62 25 61 30 C 60 35 59 42 59 44 C 56 53 49 85 44 106 C 42 115 39 128 38 134 C 36 140 35 149 33 154 C 30 165 28 173 25 193 C 15 235 12 254 8 264 C 4 280 4 281 30 282 C 59 283 57 285 64 240 C 66 219 68 213 77 212 C 93 212 99 212 109 211 C 128 210 130 211 134 231 C 135 239 135 246 135 248 C 136 256 141 277 143 280 C 146 281 148 282 160 282 C 167 282 177 282 182 283 C 192 285 194 283 194 276 C 194 273 188 250 186 240 C 184 236 182 229 181 223 C 177 206 173 192 170 182 C 169 176 167 169 166 164 C 165 159 163 144 159 131 C 154 109 153 102 146 74 C 144 68 143 57 142 51 C 134 7 135 9 119 9 C 114 9 101 8 90 8 C 84 8 77 8 71 7 C 70 8 68 9 67 12 M 103 79 C 105 85 107 97 109 107 C 111 115 114 132 117 143 C 122 170 120 173 107 176 C 95 177 84 175 80 172 C 78 169 77 160 80 144 C 82 138 83 128 84 120 C 95 65 99 59 103 79 z" fill="black"/><!-- width=205 height=294 -->
<path id="gl4622" d="M 27 6 C 27 7 22 8 19 9 C 7 12 7 6 8 70 C 8 100 7 127 7 127 C 6 129 8 276 8 278 C 9 279 28 284 36 284 C 44 284 48 282 50 276 C 52 272 54 272 63 277 C 76 283 82 285 96 285 C 116 285 128 276 136 249 C 139 243 141 218 140 204 C 140 198 139 176 139 156 C 139 111 136 102 124 86 C 114 72 79 69 63 82 C 60 86 56 87 52 84 C 50 81 50 81 51 56 C 54 3 54 6 39 6 C 33 6 28 6 27 6 M 80 105 C 86 108 91 114 93 122 C 96 129 97 218 94 230 C 92 247 85 254 72 253 C 62 253 57 248 54 238 C 51 231 49 158 50 136 C 51 118 57 108 67 105 C 69 105 70 104 72 104 C 74 103 75 104 80 105 z" fill="black"/><!-- width=154 height=298 -->
<path id="gl4623" d="M 42 13 C 39 15 36 18 33 20 C 15 32 9 58 9 112 C 10 190 18 216 44 223 C 54 225 99 223 109 219 C 122 214 136 204 141 195 C 147 184 150 134 147 106 C 146 100 145 86 145 73 C 142 38 138 28 114 18 C 100 10 100 10 72 10 C 63 10 55 10 46 10 C 44 12 43 13 42 13 M 88 43 C 94 46 98 51 100 60 C 102 63 102 79 103 120 C 103 138 103 157 103 175 C 102 177 100 178 100 181 C 96 189 92 190 82 192 C 63 194 56 188 52 169 C 52 163 52 156 52 153 C 52 151 52 130 51 108 C 50 67 50 67 52 60 C 60 44 74 37 88 43 z" fill="black"/><!-- width=164 height=236 -->
<path id="gl4624" d="M 23 8 C 15 8 9 9 8 10 C 7 11 7 164 9 182 C 10 202 14 211 21 214 C 35 221 43 221 63 215 C 70 214 73 212 80 204 C 91 194 92 194 95 202 C 98 211 99 211 107 212 C 112 212 118 214 121 215 C 128 217 134 216 138 210 C 139 207 139 203 138 175 C 137 136 137 62 138 34 C 139 14 139 13 136 9 C 133 5 132 5 125 9 C 120 10 118 11 110 10 C 98 10 92 11 92 16 C 92 17 92 50 92 91 C 92 173 92 172 84 181 C 74 190 59 188 53 176 C 48 168 47 115 48 54 C 50 16 49 13 44 9 C 41 7 39 7 23 8 z" fill="black"/><!-- width=151 height=233 -->
<path id="gl4625" d="M 28 7 C 23 9 22 14 23 37 C 23 45 23 52 24 60 C 23 61 22 62 20 63 C 19 64 17 67 15 67 C 9 67 7 72 7 80 C 7 91 8 95 15 97 C 24 101 24 97 24 176 C 24 255 24 253 31 260 C 39 268 45 270 64 270 C 84 270 86 269 89 263 C 90 255 89 238 86 237 C 86 237 83 237 79 236 C 67 231 68 236 68 165 C 68 145 67 124 67 104 C 68 102 69 101 71 100 C 73 97 75 97 79 97 C 86 97 89 94 89 80 C 89 69 86 68 79 67 C 68 64 68 63 68 36 C 69 8 69 9 55 7 C 44 6 30 6 28 7 z" fill="black"/><!-- width=100 height=282 -->
<path id="gl4626" d="M 153 7 C 145 7 121 7 45 7 C 6 7 7 7 6 20 C 6 34 6 38 9 42 C 10 43 12 44 12 44 C 20 44 27 44 34 44 C 43 44 50 44 57 43 C 60 44 61 45 62 46 C 63 48 64 50 66 51 C 64 55 64 58 64 63 C 63 78 63 275 64 279 C 66 282 69 282 92 281 C 108 280 110 279 111 276 C 111 276 111 223 111 162 C 111 123 111 86 111 48 C 113 48 114 46 115 45 C 119 42 119 42 134 43 C 144 43 153 44 157 45 C 170 48 173 44 172 22 C 170 8 169 4 164 6 C 163 6 158 6 153 7 z" fill="black"/><!-- width=182 height=293 -->
<path id="gl4627" d="M 81 8 C 73 12 68 15 65 20 C 56 36 47 38 47 22 C 47 12 46 12 28 12 C 17 12 13 12 11 13 C 9 14 8 14 7 15 C 7 47 8 79 8 113 C 8 200 8 210 11 211 C 13 215 45 215 49 212 C 52 210 52 210 51 150 C 50 89 51 84 57 75 C 61 68 73 62 83 62 C 94 62 95 61 95 34 C 95 11 95 11 93 8 C 89 4 87 4 81 8 z" fill="black"/><!-- width=106 height=226 -->
<path id="gl4628" d="M 52 8 C 34 13 20 23 14 40 C 5 61 7 154 15 182 C 22 206 41 216 80 217 C 119 220 144 196 145 158 C 145 147 142 146 120 147 C 101 147 101 147 100 161 C 97 181 92 186 76 186 C 64 186 58 183 54 172 C 50 163 48 132 52 126 C 54 121 60 117 65 119 C 67 119 84 120 102 120 C 138 122 141 121 144 116 C 145 113 145 89 144 73 C 140 33 134 21 114 11 C 110 10 107 8 103 7 C 96 7 89 7 83 7 C 65 7 60 7 52 8 M 89 40 C 98 45 102 55 101 73 C 101 82 101 83 97 86 C 96 88 95 89 92 90 C 88 90 82 90 76 90 C 52 90 50 88 50 69 C 50 47 58 38 76 38 C 80 38 84 38 89 40 z" fill="black"/><!-- width=156 height=231 -->
<path id="gl4629" d="M 49 12 C 27 17 17 27 10 51 C 6 69 8 73 29 71 C 37 70 46 70 46 69 C 47 69 49 63 52 57 C 53 53 54 49 55 46 C 58 45 60 43 63 42 C 90 29 114 57 93 79 C 88 83 74 92 65 94 C 55 97 32 110 25 118 C 12 130 8 141 9 169 C 10 200 19 214 42 220 C 60 225 71 221 90 208 C 97 202 98 203 102 210 C 105 219 107 219 126 217 C 147 216 147 217 143 194 C 142 183 141 165 141 111 C 141 45 141 42 138 36 C 132 23 121 14 105 10 C 91 8 63 8 49 12 M 97 114 C 99 115 101 122 99 146 C 97 177 93 186 81 189 C 63 195 49 185 49 164 C 49 144 55 135 73 121 C 87 111 92 109 97 114 z" fill="black"/><!-- width=154 height=233 -->
<path id="gl4625" d="M 28 7 C 23 9 22 14 23 37 C 23 45 23 52 24 60 C 23 61 22 62 20 63 C 19 64 17 67 15 67 C 9 67 7 72 7 80 C 7 91 8 95 15 97 C 24 101 24 97 24 176 C 24 255 24 253 31 260 C 39 268 45 270 64 270 C 84 270 86 269 89 263 C 90 255 89 238 86 237 C 86 237 83 237 79 236 C 67 231 68 236 68 165 C 68 145 67 124 67 104 C 68 102 69 101 71 100 C 73 97 75 97 79 97 C 86 97 89 94 89 80 C 89 69 86 68 79 67 C 68 64 68 63 68 36 C 69 8 69 9 55 7 C 44 6 30 6 28 7 z" fill="black"/><!-- width=100 height=282 -->
<path id="gl4630" d="M 90 10 C 79 13 74 14 68 19 C 66 20 63 22 61 24 C 60 24 58 25 57 26 C 55 24 54 21 52 20 C 50 18 49 16 48 14 C 42 14 36 14 31 14 C 21 14 13 15 12 15 C 9 16 9 20 9 116 C 9 148 9 182 9 214 C 9 216 10 216 12 216 C 13 217 21 218 32 218 C 37 218 43 218 49 218 C 50 217 50 216 51 213 C 52 210 52 206 51 156 C 50 58 50 62 54 55 C 61 40 75 36 88 44 C 100 51 99 43 99 134 C 99 160 99 187 99 213 C 100 214 102 214 103 216 C 106 220 136 220 141 216 C 145 211 145 211 145 146 C 142 62 144 55 154 46 C 169 36 188 42 190 58 C 193 67 194 177 192 195 C 190 217 192 218 216 218 C 229 218 234 218 236 214 C 236 214 236 175 236 126 C 236 97 236 68 235 39 C 235 37 234 34 232 32 C 228 21 218 13 207 10 C 182 4 168 8 152 21 C 147 26 144 30 142 30 C 140 30 132 21 132 19 C 132 16 108 7 102 8 C 100 8 94 8 90 10 z" fill="black"/><!-- width=249 height=230 -->
<path id="gl4628" d="M 52 8 C 34 13 20 23 14 40 C 5 61 7 154 15 182 C 22 206 41 216 80 217 C 119 220 144 196 145 158 C 145 147 142 146 120 147 C 101 147 101 147 100 161 C 97 181 92 186 76 186 C 64 186 58 183 54 172 C 50 163 48 132 52 126 C 54 121 60 117 65 119 C 67 119 84 120 102 120 C 138 122 141 121 144 116 C 145 113 145 89 144 73 C 140 33 134 21 114 11 C 110 10 107 8 103 7 C 96 7 89 7 83 7 C 65 7 60 7 52 8 M 89 40 C 98 45 102 55 101 73 C 101 82 101 83 97 86 C 96 88 95 89 92 90 C 88 90 82 90 76 90 C 52 90 50 88 50 69 C 50 47 58 38 76 38 C 80 38 84 38 89 40 z" fill="black"/><!-- width=156 height=231 -->
<path id="gl4631" d="M 86 3 C 79 6 74 8 64 15 C 56 22 56 22 51 14 C 50 13 49 10 49 9 C 43 9 38 8 32 8 C 20 8 15 8 13 9 C 8 12 8 12 8 27 C 9 32 9 62 9 93 C 9 126 9 152 9 153 C 10 154 9 168 9 183 C 8 208 8 210 10 211 C 12 211 21 212 31 212 C 54 213 54 213 52 187 C 51 178 51 146 51 116 C 51 98 51 79 51 61 C 52 58 54 56 55 52 C 61 43 64 39 75 39 C 85 38 91 43 94 54 C 97 60 97 140 96 196 C 96 213 94 213 118 212 C 129 212 139 212 139 211 C 140 211 140 171 140 126 C 139 32 140 38 133 22 C 129 18 121 9 116 8 C 115 8 111 7 110 6 C 108 3 93 2 86 3 z" fill="black"/><!-- width=150 height=222 -->
<path id="gl4632" d="M 25 3 C 24 4 22 4 22 6 C 21 8 21 27 22 39 C 24 55 22 58 13 62 C 6 66 6 67 4 72 C 3 84 6 90 15 92 C 24 94 24 92 24 171 C 22 253 22 248 32 258 C 38 264 42 265 63 267 C 76 269 78 269 81 266 C 82 265 85 265 86 264 C 86 260 86 255 86 252 C 87 237 86 235 79 232 C 69 230 68 229 67 224 C 66 222 66 134 67 104 C 67 97 69 93 76 92 C 86 91 87 91 86 78 C 86 66 84 61 76 61 C 69 61 67 58 67 45 C 66 38 66 30 67 26 C 68 16 67 8 64 6 C 62 3 32 2 25 3 z" fill="black"/><!-- width=96 height=278 -->
<path id="gl4633" d="M 52 8 C 15 13 -1 46 14 85 C 20 99 37 116 56 127 C 68 134 86 147 89 151 C 95 160 95 173 89 182 C 85 187 80 189 70 189 C 56 189 51 183 50 165 C 49 149 49 149 27 151 C 4 151 2 153 9 177 C 17 211 41 224 83 218 C 123 213 140 195 137 158 C 136 135 129 127 77 92 C 57 79 55 75 52 71 C 44 55 55 38 73 39 C 85 40 92 46 93 61 C 94 71 95 71 117 73 C 133 73 135 71 136 70 C 140 65 137 47 130 35 C 127 29 116 17 112 17 C 112 17 110 16 110 15 C 103 9 75 5 52 8 z" fill="black"/><!-- width=149 height=231 -->
<path id="gl4626" d="M 153 7 C 145 7 121 7 45 7 C 6 7 7 7 6 20 C 6 34 6 38 9 42 C 10 43 12 44 12 44 C 20 44 27 44 34 44 C 43 44 50 44 57 43 C 60 44 61 45 62 46 C 63 48 64 50 66 51 C 64 55 64 58 64 63 C 63 78 63 275 64 279 C 66 282 69 282 92 281 C 108 280 110 279 111 276 C 111 276 111 223 111 162 C 111 123 111 86 111 48 C 113 48 114 46 115 45 C 119 42 119 42 134 43 C 144 43 153 44 157 45 C 170 48 173 44 172 22 C 170 8 169 4 164 6 C 163 6 158 6 153 7 z" fill="black"/><!-- width=182 height=293 -->
<path id="gl4634" d="M 10 7 C 9 7 7 8 7 9 C 6 13 7 275 8 277 C 9 278 32 279 40 278 C 49 277 48 284 48 199 C 48 174 48 148 48 122 C 49 120 51 118 52 115 C 59 99 77 97 88 109 C 94 116 94 119 94 199 C 94 223 93 249 93 273 C 94 275 96 276 97 276 C 103 281 133 279 136 275 C 137 273 137 234 136 187 C 136 159 136 130 136 102 C 135 99 133 97 133 94 C 122 68 86 62 63 82 C 54 91 53 91 49 85 C 48 81 47 79 48 52 C 49 9 49 9 47 7 C 45 4 15 4 10 7 z" fill="black"/><!-- width=149 height=290 -->
<path id="gl4629" d="M 49 12 C 27 17 17 27 10 51 C 6 69 8 73 29 71 C 37 70 46 70 46 69 C 47 69 49 63 52 57 C 53 53 54 49 55 46 C 58 45 60 43 63 42 C 90 29 114 57 93 79 C 88 83 74 92 65 94 C 55 97 32 110 25 118 C 12 130 8 141 9 169 C 10 200 19 214 42 220 C 60 225 71 221 90 208 C 97 202 98 203 102 210 C 105 219 107 219 126 217 C 147 216 147 217 143 194 C 142 183 141 165 141 111 C 141 45 141 42 138 36 C 132 23 121 14 105 10 C 91 8 63 8 49 12 M 97 114 C 99 115 101 122 99 146 C 97 177 93 186 81 189 C 63 195 49 185 49 164 C 49 144 55 135 73 121 C 87 111 92 109 97 114 z" fill="black"/><!-- width=154 height=233 -->
<path id="gl4625" d="M 28 7 C 23 9 22 14 23 37 C 23 45 23 52 24 60 C 23 61 22 62 20 63 C 19 64 17 67 15 67 C 9 67 7 72 7 80 C 7 91 8 95 15 97 C 24 101 24 97 24 176 C 24 255 24 253 31 260 C 39 268 45 270 64 270 C 84 270 86 269 89 263 C 90 255 89 238 86 237 C 86 237 83 237 79 236 C 67 231 68 236 68 165 C 68 145 67 124 67 104 C 68 102 69 101 71 100 C 73 97 75 97 79 97 C 86 97 89 94 89 80 C 89 69 86 68 79 67 C 68 64 68 63 68 36 C 69 8 69 9 55 7 C 44 6 30 6 28 7 z" fill="black"/><!-- width=100 height=282 -->
<path id="gl4635" d="M 20 6 C 15 6 10 7 10 8 C 8 9 8 20 10 26 C 12 32 18 58 19 67 C 20 80 24 102 30 133 C 31 138 32 145 32 148 C 32 153 33 158 34 160 C 36 163 36 168 40 192 C 42 199 43 207 44 212 C 45 216 45 220 45 222 C 45 224 46 229 48 235 C 49 240 51 248 51 253 C 51 257 52 263 54 265 C 55 267 56 271 56 273 C 57 278 62 279 88 279 C 114 278 117 277 117 269 C 117 266 117 259 118 253 C 120 247 121 234 123 224 C 124 214 126 202 127 198 C 128 193 129 184 129 178 C 130 174 132 165 133 160 C 134 156 135 147 135 140 C 136 127 140 109 142 104 C 142 103 144 102 144 100 C 145 102 146 103 146 105 C 150 110 151 116 156 153 C 157 170 160 189 165 210 C 168 224 172 249 172 253 C 172 259 176 276 178 277 C 182 279 230 279 234 277 C 236 273 238 266 241 249 C 241 243 242 235 243 230 C 245 225 246 219 246 214 C 246 212 247 206 248 204 C 249 200 251 193 251 187 C 252 181 253 176 253 175 C 254 174 255 169 255 164 C 255 159 257 153 258 150 C 259 146 260 140 260 136 C 260 133 261 127 263 123 C 264 118 267 103 269 88 C 270 80 273 62 276 46 C 277 44 278 37 279 33 C 279 28 281 22 282 19 C 284 12 283 8 278 6 C 273 3 246 3 238 6 C 234 7 234 6 231 27 C 230 37 229 48 229 51 C 228 55 226 67 225 76 C 224 87 223 100 222 105 C 222 111 220 123 219 133 C 218 141 217 151 217 156 C 216 158 214 169 213 176 C 213 188 207 218 206 219 C 202 223 201 220 199 212 C 195 194 194 182 193 171 C 192 158 189 144 182 109 C 180 97 177 85 177 84 C 177 81 177 78 176 75 C 175 72 174 61 171 49 C 166 7 165 4 146 4 C 126 3 123 4 121 26 C 120 34 118 46 117 54 C 116 61 115 69 115 74 C 114 79 112 87 111 93 C 110 99 109 108 109 110 C 109 115 108 121 106 126 C 103 141 100 152 99 166 C 98 175 97 184 97 188 C 96 192 94 199 94 204 C 92 214 91 217 88 217 C 85 217 84 213 82 201 C 81 196 80 192 80 189 C 79 188 78 180 78 171 C 76 163 75 152 74 146 C 73 140 73 132 73 128 C 73 124 72 118 70 114 C 69 110 68 102 68 96 C 67 90 66 79 64 72 C 63 64 62 54 61 49 C 57 14 56 9 50 7 C 45 4 32 3 20 6 z" fill="black"/><!-- width=293 height=288 -->
<path id="gl4636" d="M 59 8 C 30 10 16 23 10 53 C 7 67 7 69 7 112 C 7 200 15 216 65 219 C 111 221 130 209 139 175 C 143 162 143 78 140 59 C 134 19 109 3 59 8 M 87 41 C 89 42 92 46 94 48 C 95 50 96 52 98 54 C 98 71 98 88 99 106 C 99 160 99 173 95 179 C 88 190 64 191 54 181 C 48 174 48 172 48 118 C 47 54 49 47 63 41 C 69 37 82 37 87 41 z" fill="black"/><!-- width=153 height=232 -->
<path id="gl4637" d="M 79 7 C 74 9 67 15 61 25 C 56 32 51 34 49 32 C 46 30 46 27 46 19 C 48 14 44 8 42 7 C 33 7 10 8 9 9 C 8 10 7 30 7 108 C 7 140 7 173 7 206 C 8 207 9 207 10 208 C 13 210 44 210 48 208 C 50 207 50 204 50 183 C 49 127 49 83 51 75 C 55 62 63 57 83 56 C 87 55 92 54 93 54 C 95 51 96 10 95 6 C 92 3 85 3 79 7 z" fill="black"/><!-- width=106 height=221 -->
<path id="gl4864" d="M 18 6 C 9 7 7 8 8 13 C 8 14 8 74 8 145 C 8 262 8 274 10 276 C 15 279 44 279 48 276 C 50 273 50 260 49 236 C 48 212 55 195 66 200 C 68 202 76 217 76 219 C 76 220 76 224 79 229 C 79 232 82 242 85 250 C 91 270 91 271 94 274 C 96 276 96 277 97 278 C 104 278 111 278 117 278 C 134 278 139 278 140 277 C 141 274 140 268 135 258 C 132 252 130 246 130 244 C 130 244 127 238 123 231 C 121 224 116 213 114 206 C 105 181 103 177 98 168 C 96 160 96 151 99 146 C 102 141 106 135 124 108 C 147 72 147 72 118 73 C 97 74 96 74 92 82 C 90 86 76 115 70 126 C 62 145 54 151 50 142 C 49 138 49 49 50 39 C 52 32 50 9 49 7 C 46 6 33 6 18 6 z" fill="black"/><!-- width=150 height=289 -->
<path id="gl4865" d="M 92 6 C 88 7 63 7 33 6 C 3 4 4 4 4 16 C 4 30 4 31 21 30 C 37 28 39 28 43 34 C 45 38 45 39 44 46 C 42 61 43 147 45 150 C 48 153 60 153 66 151 C 67 150 68 150 69 148 C 69 130 69 111 68 92 C 68 73 68 54 68 34 C 69 34 70 33 70 32 C 74 30 78 30 97 31 C 109 31 112 27 111 16 C 111 6 104 2 92 6 z" fill="black"/><!-- width=120 height=163 -->
<path id="gl4866" d="M 133 4 C 129 4 122 4 118 4 C 108 3 105 6 102 21 C 100 27 99 33 99 34 C 99 36 98 38 97 40 C 96 43 93 51 91 61 C 84 81 82 84 79 85 C 75 86 70 81 69 76 C 67 66 64 60 62 52 C 61 48 58 42 58 38 C 58 34 57 31 56 30 C 55 27 55 25 55 25 C 55 20 48 8 45 7 C 40 4 12 4 8 7 C 7 8 6 8 4 9 C 6 14 6 20 6 25 C 7 34 7 44 7 46 C 7 49 7 68 7 88 C 7 109 6 128 6 132 C 4 140 6 148 9 151 C 13 153 22 153 27 150 C 28 148 30 148 31 147 C 30 133 30 118 30 104 C 28 50 30 42 37 48 C 42 51 43 56 55 100 C 56 105 57 110 58 112 C 61 118 64 129 64 136 C 67 148 74 154 81 151 C 86 148 87 146 87 141 C 87 140 88 136 90 135 C 91 133 94 120 97 110 C 97 105 98 102 99 100 C 99 99 100 94 102 91 C 110 61 117 43 122 45 C 127 48 128 55 126 111 C 123 152 123 152 140 151 C 152 150 153 148 151 135 C 151 130 151 99 151 67 C 151 46 151 27 151 7 C 150 7 148 6 148 4 C 145 2 145 2 133 4 z" fill="black"/><!-- width=163 height=163 -->
</defs>
<use xlink:href="#gl4621" x="0" y="1"/>
<use xlink:href="#gl4622" x="286" y="2"/>
<use xlink:href="#gl4623" x="530" y="64"/>
<use xlink:href="#gl4624" x="783" y="69"/>
<use xlink:href="#gl4625" x="1016" y="13"/>
<use xlink:href="#gl4626" x="1346" y="3"/>
<use xlink:href="#gl4627" x="1583" y="68"/>
<use xlink:href="#gl4628" x="1768" y="68"/>
<use xlink:href="#gl4629" x="2013" y="65"/>
<use xlink:href="#gl4625" x="2254" y="13"/>
<use xlink:href="#gl4630" x="2440" y="64"/>
<use xlink:href="#gl4628" x="2784" y="67"/>
<use xlink:href="#gl4631" x="3035" y="69"/>
<use xlink:href="#gl4632" x="3271" y="16"/>
<use xlink:href="#gl4633" x="3444" y="65"/>
<use xlink:href="#gl4626" x="3827" y="0"/>
<use xlink:href="#gl4634" x="4092" y="2"/>
<use xlink:href="#gl4629" x="4331" y="63"/>
<use xlink:href="#gl4625" x="4572" y="12"/>
<use xlink:href="#gl4635" x="4903" y="2"/>
<use xlink:href="#gl4636" x="5275" y="65"/>
<use xlink:href="#gl4637" x="5525" y="69"/>
<use xlink:href="#gl4864" x="5709" y="2"/>
<use xlink:href="#gl4865" x="5925" y="2"/>
<use xlink:href="#gl4866" x="6050" y="2"/>
</svg>