<svg xmlns="http://www.w3.org/2000/svg" xmlns:xlink="http://www.w3.org/1999/xlink" width="889px" height="590px" viewBox="0 0 8899 5903" version="1.1">
<defs>
<path id="gl16406" d="M 12 6 C 8 7 9 9 14 14 C 22 22 23 27 22 45 C 20 54 19 75 17 91 C 14 121 14 124 8 130 C 2 137 6 140 23 140 C 39 141 45 136 36 131 C 30 126 29 123 30 87 C 30 60 30 56 33 52 C 33 51 34 50 35 49 C 35 50 36 51 38 52 C 39 54 44 61 46 68 C 55 87 73 130 76 134 C 77 136 78 137 81 137 C 86 139 87 136 93 121 C 96 115 102 104 105 97 C 109 88 115 77 119 70 C 125 55 129 49 133 52 C 135 54 135 57 135 86 C 134 123 134 125 129 130 C 120 139 126 141 151 140 C 167 139 168 137 162 130 C 155 123 155 119 153 70 C 152 20 152 19 161 13 C 171 7 167 3 150 3 C 136 3 135 4 130 20 C 128 27 121 41 115 51 C 109 62 102 77 99 84 C 88 109 86 109 75 84 C 71 77 64 62 57 50 C 51 39 45 24 44 18 C 41 9 40 7 36 6 C 33 3 16 3 12 6 z" fill="black"/><!-- width=177 height=150 -->
<path id="gl13846" d="M 28 8 C 11 15 2 25 8 31 C 12 36 20 32 23 23 C 32 8 48 15 48 32 C 48 43 45 47 30 50 C 16 53 8 57 6 66 C 2 83 21 95 37 85 C 43 81 45 81 55 86 C 60 88 62 90 67 88 C 77 87 80 80 72 77 C 63 73 62 71 63 43 C 65 22 63 20 62 16 C 56 5 45 2 28 8 M 46 56 C 50 61 47 73 40 77 C 35 80 26 77 23 71 C 20 61 40 46 46 56 z" fill="black"/><!-- width=88 height=100 -->
<path id="gl20739" d="M 30 7 C 15 9 18 30 32 30 C 42 30 46 18 39 10 C 36 6 34 6 30 7 M 24 58 C 18 62 16 63 21 72 C 22 73 24 75 25 78 C 24 86 24 96 24 104 C 22 153 20 166 9 177 C 7 178 6 181 4 182 C 4 183 6 184 7 186 C 9 190 9 190 10 188 C 12 187 14 184 14 184 C 16 184 30 171 30 169 C 30 169 32 165 33 162 C 39 148 40 138 42 75 C 42 55 38 51 24 58 z" fill="black"/><!-- width=54 height=198 -->
<path id="gl11293" d="M 41 3 C 2 11 -4 68 30 85 C 39 89 55 89 64 86 C 96 73 99 24 68 8 C 64 6 50 2 48 3 C 47 3 45 3 41 3 M 58 17 C 71 26 75 51 67 66 C 53 94 22 75 25 40 C 26 17 44 6 58 17 z" fill="black"/><!-- width=101 height=99 -->
<path id="gl11044" d="M 17 7 C 8 12 7 14 11 23 C 16 33 14 74 8 79 C 6 81 6 86 8 88 C 21 88 38 88 39 86 C 42 85 42 84 36 79 C 34 78 32 75 31 74 C 31 67 31 58 31 50 C 31 19 32 17 45 22 C 58 26 67 16 58 8 C 54 4 48 4 42 8 C 37 12 34 12 29 8 C 26 4 22 4 17 7 z" fill="black"/><!-- width=72 height=99 -->
<path id="gl11297" d="M 15 8 C 9 12 7 15 11 22 C 13 26 13 30 13 72 C 14 119 13 126 8 133 C 3 139 6 140 23 140 C 30 140 37 140 39 140 C 44 139 42 135 39 133 C 33 130 31 126 30 112 C 29 103 30 100 31 96 C 34 91 34 91 44 91 C 79 92 103 55 88 24 C 80 8 61 2 45 8 C 37 12 34 12 31 8 C 26 4 22 4 15 8 M 58 20 C 69 25 74 35 73 51 C 72 73 56 88 40 80 C 31 77 31 74 31 50 C 31 42 31 34 31 26 C 33 25 34 24 35 23 C 40 18 50 17 58 20 z" fill="black"/><!-- width=103 height=151 -->
<path id="gl11290" d="M 17 6 C 8 9 7 14 11 22 C 13 25 13 30 13 73 C 14 128 14 131 9 138 C 3 146 6 149 23 149 C 39 149 41 146 35 136 C 34 135 33 134 32 131 C 32 124 32 115 32 108 C 32 87 32 85 34 81 C 41 71 59 73 65 86 C 66 90 67 92 66 110 C 66 131 66 131 62 138 C 57 146 59 147 73 147 C 90 149 96 145 91 139 C 85 133 85 131 85 107 C 85 86 85 82 82 77 C 76 64 60 60 44 67 C 32 73 30 70 32 35 C 32 2 30 0 17 6 z" fill="black"/><!-- width=103 height=159 -->
<path id="gl11299" d="M 10 4 C 4 7 3 9 9 15 C 14 21 14 21 24 47 C 35 78 36 85 27 102 C 22 112 22 112 15 116 C 7 121 5 122 5 127 C 5 135 15 139 22 133 C 27 129 28 125 43 91 C 58 58 76 23 83 16 C 91 8 89 4 73 4 C 61 4 58 5 61 13 C 64 19 64 22 58 38 C 48 62 45 62 36 35 C 35 30 34 26 32 21 C 33 19 33 16 34 15 C 38 5 35 4 22 4 C 17 4 11 4 10 4 z" fill="black"/><!-- width=97 height=146 -->
<path id="gl11534" d="M 24 7 C 13 12 8 21 12 32 C 13 40 17 44 30 51 C 44 60 46 67 43 74 C 38 86 26 83 15 67 C 10 59 3 65 7 77 C 11 95 48 95 58 77 C 64 63 58 50 40 39 C 26 31 22 25 29 17 C 34 11 39 11 48 19 C 55 26 59 26 59 19 C 60 8 55 3 40 3 C 32 3 29 5 24 7 z" fill="black"/><!-- width=70 height=101 -->
<path id="gl12052" d="M 12 7 C 5 15 11 28 21 26 C 37 24 35 5 20 3 C 17 3 15 5 12 7 M 17 57 C 7 62 6 65 11 72 C 12 76 14 79 14 101 C 14 108 14 116 14 124 C 11 126 10 127 8 129 C 1 138 3 140 23 140 C 39 140 42 138 34 130 C 29 124 29 120 30 86 C 30 51 30 49 17 57 z" fill="black"/><!-- width=49 height=149 -->
<path id="gl11042" d="M 44 6 C 27 10 16 17 10 30 C 6 39 6 59 10 68 C 20 91 54 97 72 80 C 80 72 78 63 68 70 C 50 82 30 74 24 55 C 16 29 39 5 60 18 C 70 25 77 25 77 16 C 77 6 63 2 44 6 z" fill="black"/><!-- width=87 height=101 -->
<path id="gl13846" d="M 28 8 C 11 15 2 25 8 31 C 12 36 20 32 23 23 C 32 8 48 15 48 32 C 48 43 45 47 30 50 C 16 53 8 57 6 66 C 2 83 21 95 37 85 C 43 81 45 81 55 86 C 60 88 62 90 67 88 C 77 87 80 80 72 77 C 63 73 62 71 63 43 C 65 22 63 20 62 16 C 56 5 45 2 28 8 M 46 56 C 50 61 47 73 40 77 C 35 80 26 77 23 71 C 20 61 40 46 46 56 z" fill="black"/><!-- width=88 height=100 -->
<path id="gl13845" d="M 18 6 C 8 9 7 14 12 22 C 13 27 13 29 13 79 C 13 133 13 133 8 139 C 2 144 6 146 22 146 C 40 146 43 145 35 137 C 34 135 33 134 32 132 C 32 112 32 91 32 70 C 32 16 30 8 29 6 C 27 3 23 3 18 6 z" fill="black"/><!-- width=49 height=158 -->
<path id="gl3351" d="M 26 6 C 12 11 6 21 10 34 C 11 40 16 46 27 53 C 41 60 45 66 40 77 C 35 87 24 83 12 66 C 8 60 3 64 5 74 C 7 94 45 96 55 75 C 61 63 55 51 36 39 C 22 31 18 22 27 15 C 32 11 36 12 44 18 C 51 26 54 27 56 24 C 58 18 58 13 53 10 C 49 6 48 6 39 6 C 34 6 27 6 26 6 z" fill="black"/><!-- width=68 height=99 -->
<path id="gl11296" d="M 8 7 C 6 8 6 12 10 16 C 16 21 18 25 26 47 C 36 75 37 77 36 86 C 36 99 25 116 18 117 C 3 120 4 137 18 137 C 26 137 30 132 42 104 C 60 63 78 26 86 18 C 95 8 94 6 77 6 C 61 6 60 7 65 15 C 67 21 67 23 60 42 C 50 64 48 63 38 35 C 36 23 35 21 36 18 C 40 10 40 8 36 6 C 32 4 12 4 8 7 z" fill="black"/><!-- width=103 height=148 -->
<path id="gl11008" d="M 17 8 C 11 12 8 15 12 22 C 13 24 13 31 13 51 C 13 58 13 67 13 75 C 12 77 11 79 9 80 C 3 89 6 90 24 90 C 36 90 41 88 37 83 C 33 75 31 73 31 55 C 30 25 34 18 48 18 C 57 18 57 19 62 23 C 63 25 64 26 67 28 C 67 36 66 44 66 52 C 66 60 66 68 66 75 C 64 77 63 79 62 80 C 56 88 60 90 75 90 C 93 90 95 89 88 79 C 86 78 85 75 84 74 C 84 67 84 60 84 52 C 84 28 85 24 93 20 C 99 17 110 18 115 23 C 116 24 117 25 118 28 C 118 35 118 44 118 51 C 118 60 118 67 118 75 C 117 77 116 79 115 80 C 113 83 112 84 111 86 C 112 86 113 88 113 89 C 120 93 145 91 145 86 C 145 85 144 83 142 80 C 140 78 139 77 137 74 C 137 67 137 60 137 53 C 137 26 137 20 131 13 C 121 3 108 2 94 11 C 84 15 83 15 73 11 C 64 4 58 4 48 8 C 37 12 36 12 33 8 C 28 4 24 4 17 8 z" fill="black"/><!-- width=156 height=102 -->
<path id="gl11297" d="M 15 8 C 9 12 7 15 11 22 C 13 26 13 30 13 72 C 14 119 13 126 8 133 C 3 139 6 140 23 140 C 30 140 37 140 39 140 C 44 139 42 135 39 133 C 33 130 31 126 30 112 C 29 103 30 100 31 96 C 34 91 34 91 44 91 C 79 92 103 55 88 24 C 80 8 61 2 45 8 C 37 12 34 12 31 8 C 26 4 22 4 15 8 M 58 20 C 69 25 74 35 73 51 C 72 73 56 88 40 80 C 31 77 31 74 31 50 C 31 42 31 34 31 26 C 33 25 34 24 35 23 C 40 18 50 17 58 20 z" fill="black"/><!-- width=103 height=151 -->
<path id="gl11522" d="M 20 6 C 19 7 6 20 6 23 C 6 23 7 25 8 28 C 11 33 11 34 11 60 C 12 87 12 88 14 92 C 22 100 40 102 48 94 C 52 89 50 87 41 87 C 28 87 27 82 27 52 C 27 28 27 25 39 27 C 49 28 52 27 55 23 C 57 19 54 17 41 16 C 38 16 34 16 30 16 C 29 14 29 13 28 11 C 25 6 24 6 20 6 z" fill="black"/><!-- width=64 height=109 -->
<path id="gl20740" d="M 38 6 C 19 13 9 25 8 45 C 6 78 42 100 69 84 C 81 76 85 72 91 55 C 94 40 91 27 79 15 C 73 8 68 6 56 4 C 45 2 48 2 38 6 M 57 15 C 78 24 79 62 61 75 C 40 91 19 58 30 31 C 34 15 45 10 57 15 z" fill="black"/><!-- width=102 height=102 -->
<path id="gl11008" d="M 17 8 C 11 12 8 15 12 22 C 13 24 13 31 13 51 C 13 58 13 67 13 75 C 12 77 11 79 9 80 C 3 89 6 90 24 90 C 36 90 41 88 37 83 C 33 75 31 73 31 55 C 30 25 34 18 48 18 C 57 18 57 19 62 23 C 63 25 64 26 67 28 C 67 36 66 44 66 52 C 66 60 66 68 66 75 C 64 77 63 79 62 80 C 56 88 60 90 75 90 C 93 90 95 89 88 79 C 86 78 85 75 84 74 C 84 67 84 60 84 52 C 84 28 85 24 93 20 C 99 17 110 18 115 23 C 116 24 117 25 118 28 C 118 35 118 44 118 51 C 118 60 118 67 118 75 C 117 77 116 79 115 80 C 113 83 112 84 111 86 C 112 86 113 88 113 89 C 120 93 145 91 145 86 C 145 85 144 83 142 80 C 140 78 139 77 137 74 C 137 67 137 60 137 53 C 137 26 137 20 131 13 C 121 3 108 2 94 11 C 84 15 83 15 73 11 C 64 4 58 4 48 8 C 37 12 36 12 33 8 C 28 4 24 4 17 8 z" fill="black"/><!-- width=156 height=102 -->
<path id="gl11534" d="M 24 7 C 13 12 8 21 12 32 C 13 40 17 44 30 51 C 44 60 46 67 43 74 C 38 86 26 83 15 67 C 10 59 3 65 7 77 C 11 95 48 95 58 77 C 64 63 58 50 40 39 C 26 31 22 25 29 17 C 34 11 39 11 48 19 C 55 26 59 26 59 19 C 60 8 55 3 40 3 C 32 3 29 5 24 7 z" fill="black"/><!-- width=70 height=101 -->
<path id="gl10786" d="M 9 8 C 2 16 9 31 19 28 C 32 26 29 6 17 6 C 14 6 12 6 9 8 M 9 66 C 3 73 7 88 16 88 C 19 88 26 84 27 81 C 32 69 18 58 9 66 z" fill="black"/><!-- width=38 height=99 -->
<path id="gl16406" d="M 12 6 C 8 7 9 9 14 14 C 22 22 23 27 22 45 C 20 54 19 75 17 91 C 14 121 14 124 8 130 C 2 137 6 140 23 140 C 39 141 45 136 36 131 C 30 126 29 123 30 87 C 30 60 30 56 33 52 C 33 51 34 50 35 49 C 35 50 36 51 38 52 C 39 54 44 61 46 68 C 55 87 73 130 76 134 C 77 136 78 137 81 137 C 86 139 87 136 93 121 C 96 115 102 104 105 97 C 109 88 115 77 119 70 C 125 55 129 49 133 52 C 135 54 135 57 135 86 C 134 123 134 125 129 130 C 120 139 126 141 151 140 C 167 139 168 137 162 130 C 155 123 155 119 153 70 C 152 20 152 19 161 13 C 171 7 167 3 150 3 C 136 3 135 4 130 20 C 128 27 121 41 115 51 C 109 62 102 77 99 84 C 88 109 86 109 75 84 C 71 77 64 62 57 50 C 51 39 45 24 44 18 C 41 9 40 7 36 6 C 33 3 16 3 12 6 z" fill="black"/><!-- width=177 height=150 -->
<path id="gl13846" d="M 28 8 C 11 15 2 25 8 31 C 12 36 20 32 23 23 C 32 8 48 15 48 32 C 48 43 45 47 30 50 C 16 53 8 57 6 66 C 2 83 21 95 37 85 C 43 81 45 81 55 86 C 60 88 62 90 67 88 C 77 87 80 80 72 77 C 63 73 62 71 63 43 C 65 22 63 20 62 16 C 56 5 45 2 28 8 M 46 56 C 50 61 47 73 40 77 C 35 80 26 77 23 71 C 20 61 40 46 46 56 z" fill="black"/><!-- width=88 height=100 -->
<path id="gl20741" d="M 25 7 C 14 10 15 25 26 27 C 36 30 42 25 42 16 C 41 7 33 3 25 7 M 25 58 C 16 62 15 65 19 73 C 21 79 21 79 21 111 C 21 153 19 166 8 180 C 2 186 1 188 6 189 C 16 192 35 169 37 151 C 38 144 39 123 41 79 C 41 53 39 50 25 58 z" fill="black"/><!-- width=53 height=199 -->
<path id="gl13842" d="M 38 4 C 13 8 0 32 7 59 C 12 77 25 87 46 87 C 93 87 104 19 59 6 C 51 2 48 2 38 4 M 52 13 C 59 17 64 23 68 32 C 76 62 57 88 37 76 C 9 58 23 1 52 13 z" fill="black"/><!-- width=98 height=97 -->
<path id="gl12311" d="M 17 7 C 7 11 6 16 9 22 C 12 25 12 29 12 50 C 12 59 12 67 12 75 C 11 76 9 77 8 78 C 2 86 3 87 22 87 C 32 87 39 87 40 87 C 41 84 39 82 35 80 C 29 77 29 73 28 49 C 28 19 30 17 46 22 C 55 25 61 19 59 11 C 57 4 50 3 40 8 C 36 11 33 13 33 13 C 33 13 30 11 29 8 C 24 4 22 4 17 7 z" fill="black"/><!-- width=68 height=99 -->
<path id="gl11284" d="M 14 13 C 6 22 6 22 9 27 C 12 30 12 32 13 58 C 13 90 14 91 23 96 C 33 101 52 97 52 90 C 52 87 52 87 44 87 C 30 86 29 83 29 52 C 29 26 29 26 42 27 C 50 27 52 27 54 24 C 59 19 55 14 43 16 C 34 16 32 14 29 8 C 27 3 23 4 14 13 z" fill="black"/><!-- width=65 height=110 -->
<path id="gl12302" d="M 19 7 C 9 10 8 15 13 23 C 15 29 16 58 15 107 C 15 117 14 126 14 136 C 13 137 11 140 10 141 C 3 148 5 149 21 150 C 39 152 44 148 38 141 C 33 136 33 130 33 109 C 33 82 34 79 49 79 C 64 79 68 83 68 110 C 69 130 68 136 63 142 C 57 148 62 150 77 150 C 94 150 100 147 93 142 C 87 138 86 135 86 113 C 86 101 86 89 85 86 C 82 68 65 61 46 69 C 38 73 37 73 34 70 C 32 68 32 68 33 39 C 33 15 33 9 32 8 C 29 4 25 4 19 7 z" fill="black"/><!-- width=106 height=160 -->
<path id="gl11293" d="M 41 3 C 2 11 -4 68 30 85 C 39 89 55 89 64 86 C 96 73 99 24 68 8 C 64 6 50 2 48 3 C 47 3 45 3 41 3 M 58 17 C 71 26 75 51 67 66 C 53 94 22 75 25 40 C 26 17 44 6 58 17 z" fill="black"/><!-- width=101 height=99 -->
<path id="gl12304" d="M 15 7 C 6 8 6 10 10 18 C 13 22 13 24 14 49 C 14 79 15 81 24 86 C 32 91 51 90 56 85 C 57 82 62 82 67 86 C 72 91 88 88 94 84 C 97 81 97 81 91 76 C 82 70 82 70 84 37 C 85 4 85 4 74 6 C 61 6 56 10 61 16 C 66 21 66 25 66 46 C 66 64 66 67 63 70 C 60 78 49 80 39 76 C 31 72 30 69 31 37 C 31 3 31 3 15 7 z" fill="black"/><!-- width=108 height=102 -->
<path id="gl14086" d="M 28 8 C 9 15 3 35 15 52 C 20 61 20 62 15 67 C 7 77 7 79 14 88 C 19 94 19 95 13 102 C -8 129 29 154 67 135 C 89 124 97 99 83 86 C 77 80 71 79 50 80 C 33 80 33 80 29 78 C 20 69 26 63 45 62 C 63 61 72 53 74 35 C 77 26 77 25 84 23 C 94 18 90 11 78 11 C 73 11 67 9 61 8 C 47 4 35 4 28 8 M 48 15 C 57 19 61 35 56 46 C 50 58 36 58 30 45 C 22 28 35 8 48 15 M 67 96 C 75 101 77 111 71 120 C 61 133 31 133 25 120 C 20 111 24 99 33 96 C 37 94 62 94 67 96 z" fill="black"/><!-- width=100 height=153 -->
<path id="gl11290" d="M 17 6 C 8 9 7 14 11 22 C 13 25 13 30 13 73 C 14 128 14 131 9 138 C 3 146 6 149 23 149 C 39 149 41 146 35 136 C 34 135 33 134 32 131 C 32 124 32 115 32 108 C 32 87 32 85 34 81 C 41 71 59 73 65 86 C 66 90 67 92 66 110 C 66 131 66 131 62 138 C 57 146 59 147 73 147 C 90 149 96 145 91 139 C 85 133 85 131 85 107 C 85 86 85 82 82 77 C 76 64 60 60 44 67 C 32 73 30 70 32 35 C 32 2 30 0 17 6 z" fill="black"/><!-- width=103 height=159 -->
<path id="gl11522" d="M 20 6 C 19 7 6 20 6 23 C 6 23 7 25 8 28 C 11 33 11 34 11 60 C 12 87 12 88 14 92 C 22 100 40 102 48 94 C 52 89 50 87 41 87 C 28 87 27 82 27 52 C 27 28 27 25 39 27 C 49 28 52 27 55 23 C 57 19 54 17 41 16 C 38 16 34 16 30 16 C 29 14 29 13 28 11 C 25 6 24 6 20 6 z" fill="black"/><!-- width=64 height=109 -->
<path id="gl11295" d="M 26 7 C 5 11 3 38 24 50 C 35 57 43 64 43 68 C 43 85 25 86 16 71 C 8 58 0 67 7 81 C 12 94 44 94 54 81 C 63 67 58 52 39 40 C 29 34 25 30 25 25 C 25 12 35 10 45 20 C 53 26 56 28 58 21 C 59 17 56 10 50 7 C 48 5 33 5 26 7 z" fill="black"/><!-- width=70 height=101 -->
<path id="gl20742" d="M 45 4 C 43 5 41 9 40 14 C 35 28 11 115 5 131 C 3 142 3 146 8 147 C 11 149 17 144 19 137 C 25 117 27 110 32 95 C 34 86 38 73 40 64 C 43 56 45 47 46 45 C 46 43 49 34 52 26 C 57 9 57 8 53 4 C 51 2 49 2 45 4 z" fill="black"/><!-- width=65 height=158 -->
<path id="gl11282" d="M 19 4 C 7 9 9 26 21 26 C 28 26 34 21 34 17 C 34 8 25 2 19 4 M 17 58 C 13 60 10 62 10 64 C 9 68 9 69 13 76 C 14 80 14 86 14 99 C 14 121 14 128 9 131 C 2 139 4 141 23 141 C 37 141 42 140 40 135 C 39 134 37 132 36 132 C 32 132 31 124 31 91 C 31 68 31 58 30 57 C 29 54 24 54 17 58 z" fill="black"/><!-- width=51 height=152 -->
<path id="gl11008" d="M 17 8 C 11 12 8 15 12 22 C 13 24 13 31 13 51 C 13 58 13 67 13 75 C 12 77 11 79 9 80 C 3 89 6 90 24 90 C 36 90 41 88 37 83 C 33 75 31 73 31 55 C 30 25 34 18 48 18 C 57 18 57 19 62 23 C 63 25 64 26 67 28 C 67 36 66 44 66 52 C 66 60 66 68 66 75 C 64 77 63 79 62 80 C 56 88 60 90 75 90 C 93 90 95 89 88 79 C 86 78 85 75 84 74 C 84 67 84 60 84 52 C 84 28 85 24 93 20 C 99 17 110 18 115 23 C 116 24 117 25 118 28 C 118 35 118 44 118 51 C 118 60 118 67 118 75 C 117 77 116 79 115 80 C 113 83 112 84 111 86 C 112 86 113 88 113 89 C 120 93 145 91 145 86 C 145 85 144 83 142 80 C 140 78 139 77 137 74 C 137 67 137 60 137 53 C 137 26 137 20 131 13 C 121 3 108 2 94 11 C 84 15 83 15 73 11 C 64 4 58 4 48 8 C 37 12 36 12 33 8 C 28 4 24 4 17 8 z" fill="black"/><!-- width=156 height=102 -->
<path id="gl13846" d="M 28 8 C 11 15 2 25 8 31 C 12 36 20 32 23 23 C 32 8 48 15 48 32 C 48 43 45 47 30 50 C 16 53 8 57 6 66 C 2 83 21 95 37 85 C 43 81 45 81 55 86 C 60 88 62 90 67 88 C 77 87 80 80 72 77 C 63 73 62 71 63 43 C 65 22 63 20 62 16 C 56 5 45 2 28 8 M 46 56 C 50 61 47 73 40 77 C 35 80 26 77 23 71 C 20 61 40 46 46 56 z" fill="black"/><!-- width=88 height=100 -->
<path id="gl14086" d="M 28 8 C 9 15 3 35 15 52 C 20 61 20 62 15 67 C 7 77 7 79 14 88 C 19 94 19 95 13 102 C -8 129 29 154 67 135 C 89 124 97 99 83 86 C 77 80 71 79 50 80 C 33 80 33 80 29 78 C 20 69 26 63 45 62 C 63 61 72 53 74 35 C 77 26 77 25 84 23 C 94 18 90 11 78 11 C 73 11 67 9 61 8 C 47 4 35 4 28 8 M 48 15 C 57 19 61 35 56 46 C 50 58 36 58 30 45 C 22 28 35 8 48 15 M 67 96 C 75 101 77 111 71 120 C 61 133 31 133 25 120 C 20 111 24 99 33 96 C 37 94 62 94 67 96 z" fill="black"/><!-- width=100 height=153 -->
<path id="gl11265" d="M 32 7 C 11 13 0 36 6 64 C 12 88 48 98 66 81 C 72 73 68 67 61 72 C 46 82 25 73 20 54 C 18 45 18 45 19 41 C 20 39 20 38 22 36 C 29 36 36 36 44 36 C 71 35 72 35 72 27 C 72 11 52 1 32 7 M 48 14 C 51 16 54 20 52 24 C 51 28 46 29 35 29 C 28 29 27 29 25 27 C 22 18 38 9 48 14 z" fill="black"/><!-- width=82 height=99 -->
<path id="gl3351" d="M 26 6 C 12 11 6 21 10 34 C 11 40 16 46 27 53 C 41 60 45 66 40 77 C 35 87 24 83 12 66 C 8 60 3 64 5 74 C 7 94 45 96 55 75 C 61 63 55 51 36 39 C 22 31 18 22 27 15 C 32 11 36 12 44 18 C 51 26 54 27 56 24 C 58 18 58 13 53 10 C 49 6 48 6 39 6 C 34 6 27 6 26 6 z" fill="black"/><!-- width=68 height=99 -->
<path id="gl11304" d="M 11 7 C 4 12 6 23 13 27 C 24 32 34 16 24 7 C 19 3 14 3 11 7 M 9 64 C 1 74 9 88 22 83 C 31 79 31 68 22 63 C 17 60 14 60 9 64 z" fill="black"/><!-- width=39 height=95 -->
<path id="gl16406" d="M 12 6 C 8 7 9 9 14 14 C 22 22 23 27 22 45 C 20 54 19 75 17 91 C 14 121 14 124 8 130 C 2 137 6 140 23 140 C 39 141 45 136 36 131 C 30 126 29 123 30 87 C 30 60 30 56 33 52 C 33 51 34 50 35 49 C 35 50 36 51 38 52 C 39 54 44 61 46 68 C 55 87 73 130 76 134 C 77 136 78 137 81 137 C 86 139 87 136 93 121 C 96 115 102 104 105 97 C 109 88 115 77 119 70 C 125 55 129 49 133 52 C 135 54 135 57 135 86 C 134 123 134 125 129 130 C 120 139 126 141 151 140 C 167 139 168 137 162 130 C 155 123 155 119 153 70 C 152 20 152 19 161 13 C 171 7 167 3 150 3 C 136 3 135 4 130 20 C 128 27 121 41 115 51 C 109 62 102 77 99 84 C 88 109 86 109 75 84 C 71 77 64 62 57 50 C 51 39 45 24 44 18 C 41 9 40 7 36 6 C 33 3 16 3 12 6 z" fill="black"/><!-- width=177 height=150 -->
<path id="gl13846" d="M 28 8 C 11 15 2 25 8 31 C 12 36 20 32 23 23 C 32 8 48 15 48 32 C 48 43 45 47 30 50 C 16 53 8 57 6 66 C 2 83 21 95 37 85 C 43 81 45 81 55 86 C 60 88 62 90 67 88 C 77 87 80 80 72 77 C 63 73 62 71 63 43 C 65 22 63 20 62 16 C 56 5 45 2 28 8 M 46 56 C 50 61 47 73 40 77 C 35 80 26 77 23 71 C 20 61 40 46 46 56 z" fill="black"/><!-- width=88 height=100 -->
<path id="gl20741" d="M 25 7 C 14 10 15 25 26 27 C 36 30 42 25 42 16 C 41 7 33 3 25 7 M 25 58 C 16 62 15 65 19 73 C 21 79 21 79 21 111 C 21 153 19 166 8 180 C 2 186 1 188 6 189 C 16 192 35 169 37 151 C 38 144 39 123 41 79 C 41 53 39 50 25 58 z" fill="black"/><!-- width=53 height=199 -->
<path id="gl12288" d="M 35 6 C 22 12 14 19 10 31 C 0 67 22 95 57 89 C 100 83 105 18 63 6 C 55 3 42 3 35 6 M 57 15 C 74 24 78 59 65 73 C 49 91 26 76 26 45 C 26 20 41 8 57 15 z" fill="black"/><!-- width=103 height=101 -->
<path id="gl12053" d="M 18 8 C 9 11 8 15 14 22 C 15 24 16 27 16 49 C 16 57 16 66 16 73 C 14 75 13 76 11 78 C 3 87 5 88 29 87 C 42 87 43 87 43 85 C 44 82 43 81 40 80 C 33 76 33 74 33 49 C 33 20 34 16 47 21 C 55 23 57 23 61 20 C 70 10 56 0 43 8 C 37 11 36 11 31 8 C 27 3 27 3 18 8 z" fill="black"/><!-- width=73 height=99 -->
<path id="gl20743" d="M 14 7 C 7 10 6 13 9 21 C 10 24 12 25 12 27 C 12 47 12 66 12 85 C 12 152 12 146 24 147 C 29 148 35 150 36 150 C 52 154 75 146 83 133 C 107 98 78 54 41 67 C 30 71 30 71 30 37 C 31 19 30 8 29 6 C 27 3 21 3 14 7 M 55 79 C 71 87 77 105 71 123 C 64 144 41 148 32 131 C 29 123 29 83 33 78 C 36 75 48 75 55 79 z" fill="black"/><!-- width=102 height=159 -->
<path id="gl11021" d="M 37 6 C 31 8 21 13 18 17 C 3 32 3 67 18 80 C 31 94 58 94 70 80 C 78 74 72 68 63 73 C 45 83 24 70 21 48 C 20 43 21 42 24 40 C 25 39 26 37 26 37 C 34 37 41 37 47 37 C 70 39 73 37 75 31 C 80 17 57 2 37 6 M 50 14 C 53 17 57 21 56 25 C 54 30 35 32 30 29 C 23 21 39 10 50 14 z" fill="black"/><!-- width=86 height=102 -->
<path id="gl11289" d="M 14 6 C 7 9 6 13 8 22 C 11 29 12 30 11 81 C 11 97 11 114 11 132 C 9 134 8 135 8 138 C 3 145 6 146 19 146 C 35 146 37 145 32 137 C 28 129 28 129 28 107 C 28 83 29 81 35 76 C 43 71 56 76 61 83 C 65 91 65 127 60 137 C 55 146 56 148 74 146 C 90 146 92 145 86 138 C 85 137 83 134 82 133 C 82 124 82 116 82 107 C 81 85 81 82 79 76 C 72 64 56 60 41 67 C 29 74 29 72 29 37 C 29 3 27 0 14 6 z" fill="black"/><!-- width=100 height=158 -->
<path id="gl13846" d="M 28 8 C 11 15 2 25 8 31 C 12 36 20 32 23 23 C 32 8 48 15 48 32 C 48 43 45 47 30 50 C 16 53 8 57 6 66 C 2 83 21 95 37 85 C 43 81 45 81 55 86 C 60 88 62 90 67 88 C 77 87 80 80 72 77 C 63 73 62 71 63 43 C 65 22 63 20 62 16 C 56 5 45 2 28 8 M 46 56 C 50 61 47 73 40 77 C 35 80 26 77 23 71 C 20 61 40 46 46 56 z" fill="black"/><!-- width=88 height=100 -->
<path id="gl3348" d="M 8 7 C 5 8 5 11 10 16 C 12 19 16 24 17 29 C 25 43 36 72 39 80 C 43 93 50 92 55 76 C 58 67 80 24 83 19 C 93 8 91 5 76 5 C 67 5 63 7 64 12 C 67 20 66 25 60 41 C 52 66 48 64 38 34 C 34 24 33 21 34 17 C 36 12 36 8 34 7 C 30 5 12 5 8 7 z" fill="black"/><!-- width=99 height=99 -->
<path id="gl11030" d="M 12 7 C 4 13 9 24 19 24 C 27 24 29 21 29 14 C 29 4 19 0 12 7 M 17 55 C 8 59 8 63 11 72 C 12 77 13 83 13 99 C 13 120 12 124 7 130 C 3 135 7 136 21 137 C 36 137 39 136 36 130 C 29 121 29 124 29 89 C 29 78 29 67 31 57 C 29 55 28 55 27 54 C 23 52 24 52 17 55 z" fill="black"/><!-- width=48 height=147 -->
<path id="gl11293" d="M 41 3 C 2 11 -4 68 30 85 C 39 89 55 89 64 86 C 96 73 99 24 68 8 C 64 6 50 2 48 3 C 47 3 45 3 41 3 M 58 17 C 71 26 75 51 67 66 C 53 94 22 75 25 40 C 26 17 44 6 58 17 z" fill="black"/><!-- width=101 height=99 -->
<path id="gl11044" d="M 17 7 C 8 12 7 14 11 23 C 16 33 14 74 8 79 C 6 81 6 86 8 88 C 21 88 38 88 39 86 C 42 85 42 84 36 79 C 34 78 32 75 31 74 C 31 67 31 58 31 50 C 31 19 32 17 45 22 C 58 26 67 16 58 8 C 54 4 48 4 42 8 C 37 12 34 12 29 8 C 26 4 22 4 17 7 z" fill="black"/><!-- width=72 height=99 -->
<path id="gl11295" d="M 26 7 C 5 11 3 38 24 50 C 35 57 43 64 43 68 C 43 85 25 86 16 71 C 8 58 0 67 7 81 C 12 94 44 94 54 81 C 63 67 58 52 39 40 C 29 34 25 30 25 25 C 25 12 35 10 45 20 C 53 26 56 28 58 21 C 59 17 56 10 50 7 C 48 5 33 5 26 7 z" fill="black"/><!-- width=70 height=101 -->
<path id="gl10786" d="M 9 8 C 2 16 9 31 19 28 C 32 26 29 6 17 6 C 14 6 12 6 9 8 M 9 66 C 3 73 7 88 16 88 C 19 88 26 84 27 81 C 32 69 18 58 9 66 z" fill="black"/><!-- width=38 height=99 -->
<path id="gl20744" d="M 16 2 C 8 3 2 7 2 12 C 2 14 3 16 4 16 C 6 16 115 18 246 18 C 422 18 488 18 500 19 C 508 20 528 20 543 20 C 559 20 594 20 622 20 C 694 20 768 20 806 20 C 825 19 849 20 860 20 C 877 21 882 21 884 20 C 885 19 889 18 890 19 C 897 20 902 21 903 20 C 904 18 914 18 916 20 C 919 21 920 21 922 20 C 925 19 927 18 932 19 C 944 20 960 21 961 20 C 962 18 972 18 973 20 C 974 21 1009 21 1136 21 C 1225 21 1340 21 1394 21 C 1506 21 1502 21 1503 19 C 1504 18 1509 18 1510 20 C 1512 21 1513 21 1515 20 C 1519 18 1552 18 1554 20 C 1555 20 1556 20 1556 20 C 1557 18 1567 18 1568 20 C 1569 21 1584 21 1585 20 C 1586 18 1640 18 1641 20 C 1642 21 1654 21 1656 20 C 1657 18 1682 18 1683 20 C 1686 21 1629 21 2439 22 C 2814 22 3012 24 3013 25 C 3014 26 3024 26 3025 25 C 3026 24 3037 24 3060 24 C 3078 24 3094 24 3097 24 C 3098 24 3108 24 3117 24 C 3128 24 3136 24 3138 24 C 3139 26 3193 26 3364 26 C 3487 26 3598 26 3615 26 C 3619 26 3631 26 3642 26 C 3675 25 3726 25 3756 26 C 3771 26 3801 26 3822 26 C 3882 26 3906 26 4201 26 C 4880 27 5875 28 5881 27 C 5892 27 5899 27 5906 28 C 5911 30 5914 30 5917 28 C 5919 28 5928 28 5936 28 C 5943 28 5953 28 5958 28 C 5960 27 5966 27 5968 27 C 5971 27 5982 27 5991 27 C 6001 27 6013 27 6016 27 C 6076 28 6450 28 6464 28 C 6470 28 6475 28 6475 28 C 6476 31 6484 31 6486 28 C 6487 27 6538 28 6572 30 C 6584 30 6590 30 6591 28 C 6594 27 6596 27 6601 28 C 6606 30 6612 31 6631 30 C 6649 28 6655 28 6656 30 C 6657 30 6669 31 6692 31 C 6704 31 6716 32 6727 32 C 6729 31 6730 30 6733 28 C 6738 25 6738 24 6735 20 C 6734 20 6733 18 6732 16 C 6732 15 6674 15 6369 15 C 6170 14 6007 14 6006 13 C 6004 12 5871 12 5870 14 C 5869 15 5863 15 5862 13 C 5860 13 5604 12 5383 12 C 5362 12 5190 12 4998 12 C 4807 12 4452 10 4209 10 C 3967 10 3766 9 3763 9 C 3759 9 3752 10 3747 10 C 3739 12 3735 10 3730 9 C 3724 8 3721 8 3712 9 C 3706 9 3700 9 3699 9 C 3698 9 3690 9 3681 9 C 3650 10 3637 10 3628 9 C 3624 8 3596 8 3555 9 C 3519 9 3484 9 3476 9 C 3457 9 3453 9 3434 10 C 3424 10 3414 10 3411 10 C 3406 10 3370 10 3328 10 C 3266 10 3253 10 3250 9 C 3248 8 3247 7 3244 8 C 3243 9 3238 9 3235 9 C 3226 9 3220 9 3213 10 C 3192 10 3186 10 3183 10 C 3182 10 3162 10 3139 10 C 3104 10 3097 10 3093 9 C 3090 7 3076 7 3069 9 C 3066 9 3055 9 3038 8 C 3015 7 3010 7 3009 9 C 3007 10 2784 10 2730 9 C 2727 9 2713 9 2698 9 C 2679 10 2671 9 2670 9 C 2668 7 2659 7 2658 9 C 2656 9 2559 9 2548 9 C 2548 9 2542 9 2538 9 C 2530 10 2527 9 2524 9 C 2523 8 2520 8 2516 8 C 2505 9 2487 9 2487 8 C 2486 7 2458 7 2457 9 C 2456 10 2440 10 2439 8 C 2437 7 1968 6 1941 8 C 1932 8 1917 8 1906 7 C 1890 6 1881 6 1867 7 C 1846 9 1838 9 1813 8 C 1804 8 1797 8 1795 9 C 1791 10 1788 9 1777 9 C 1766 8 1762 7 1761 8 C 1760 10 1749 10 1748 8 C 1746 7 1740 7 998 6 C 576 6 321 4 320 3 C 316 2 266 2 262 4 C 260 6 259 6 256 4 C 254 3 254 3 111 2 C 63 2 20 2 16 2 z" fill="black"/><!-- width=6745 height=39 -->
<path id="gl20992" d="M 10 2 C 9 3 7 4 6 6 C 4 7 4 8 3 9 C 3 10 4 12 6 13 C 6 14 7 15 8 16 C 74 16 139 16 205 16 C 601 16 1048 19 1050 20 C 1051 20 1052 20 1054 20 C 1060 18 1117 18 1118 19 C 1119 21 1128 21 1129 19 C 1130 18 1140 18 1148 18 C 1150 19 1164 18 1176 18 C 1196 16 1200 16 1202 19 C 1203 20 1206 20 1206 19 C 1207 18 1212 18 1213 20 C 1215 21 1234 21 1240 19 C 1245 16 1279 18 1280 20 C 1280 20 1281 20 1282 19 C 1284 18 1302 19 1311 20 C 1314 20 1317 20 1318 20 C 1323 18 1322 18 1346 18 C 1357 19 1366 19 1366 20 C 1368 20 1376 20 1390 20 C 1450 19 1496 18 1496 20 C 1496 21 1497 21 1498 20 C 1500 18 1749 18 1750 19 C 1752 21 1761 21 1762 19 C 1764 18 1879 18 1882 20 C 1886 22 1842 22 2362 22 C 3183 22 3286 22 3286 24 C 3288 26 3292 26 3294 24 C 3296 21 3445 21 3465 24 C 3489 25 3548 26 3556 24 C 3564 22 3566 22 3570 24 C 3573 25 3577 25 3590 24 C 3607 22 3613 22 3654 24 C 3664 24 3736 24 3816 24 C 3926 22 3958 24 3960 25 C 3962 26 3967 26 3987 24 C 4000 22 4011 22 4012 22 C 4012 22 4035 24 4063 24 C 4090 24 4113 24 4113 25 C 4113 25 4148 26 4173 26 C 4225 26 4311 26 4351 26 C 4378 26 4458 26 4527 26 C 4597 26 4851 26 5090 26 C 6525 27 6735 27 6736 26 C 6739 24 6739 19 6736 16 C 6736 15 6732 15 6708 15 C 6692 15 6679 14 6678 13 C 6676 12 6667 12 6666 14 C 6664 15 6237 15 6236 14 C 6236 13 6234 13 6231 14 C 6226 15 6175 15 6174 13 C 6171 12 5948 12 5143 10 C 4794 10 4741 10 4738 8 C 4736 7 4735 7 4732 8 C 4730 10 4725 10 4714 10 C 4706 10 4696 9 4693 10 C 4665 10 4639 10 4622 9 C 4609 8 4602 8 4594 9 C 4576 12 4568 12 4561 9 C 4555 7 4549 7 4522 9 C 4515 10 4501 10 4450 10 C 4441 10 4426 10 4418 10 C 4398 10 4400 10 4261 10 C 4182 10 4135 9 4132 9 C 4131 8 4125 8 4118 9 C 4106 10 4084 10 4046 10 C 4008 10 4002 10 3982 9 C 3921 7 3432 7 3424 9 C 3421 12 3409 12 3406 9 C 3403 8 3338 8 3333 9 C 3328 12 3304 12 3300 9 C 3292 6 3146 6 3134 9 C 3126 12 3122 12 3117 9 C 3114 7 3108 7 3067 7 C 2934 8 2805 8 2761 7 C 2743 7 2712 7 2694 7 C 2676 7 2652 7 2642 7 C 2631 7 2625 8 2625 8 C 2625 10 2618 10 2617 8 C 2614 7 2677 7 1804 6 C 1336 6 1162 4 1161 3 C 1160 3 1158 3 1154 3 C 1150 3 1144 4 1141 4 C 1137 4 1135 4 1134 4 C 1132 2 1114 2 1113 4 C 1112 6 1106 6 1105 4 C 1105 3 1056 3 1054 4 C 1052 6 1010 6 1008 4 C 1005 3 980 3 979 4 C 978 6 915 4 912 3 C 910 2 909 2 908 3 C 904 6 837 6 836 3 C 835 2 834 2 831 3 C 828 6 501 6 500 4 C 498 2 416 2 409 4 C 403 6 402 6 399 4 C 397 2 16 1 10 2 z" fill="black"/><!-- width=6745 height=34 -->
<path id="gl20993" d="M 14 4 C 9 4 4 7 3 8 C 1 10 2 15 4 16 C 9 18 27 19 28 19 C 30 18 439 18 605 19 C 644 19 679 19 683 19 C 686 19 769 19 869 19 C 968 19 1058 19 1070 19 C 1080 20 1100 20 1113 19 C 1125 19 1150 19 1168 20 C 1186 20 1202 21 1203 21 C 1209 20 1261 21 1264 21 C 1268 21 1285 20 1304 20 C 1322 20 1347 20 1360 20 C 1372 20 1387 20 1391 20 C 1420 19 1733 19 1742 20 C 1748 20 1781 20 1815 20 C 1851 19 1880 20 1884 20 C 1887 21 2034 21 2275 22 C 2881 22 4187 24 4255 24 C 4374 24 4402 25 4411 24 C 4416 24 4424 24 4430 24 C 4436 24 4448 24 4456 24 C 4465 24 4483 24 4495 24 C 4507 24 4533 24 4552 24 C 4572 24 4590 24 4592 24 C 4596 24 4604 24 4613 24 C 4639 22 4706 24 4710 25 C 4712 26 4713 26 4717 25 C 4719 24 4737 24 4785 24 C 4949 24 5000 24 5006 25 C 5012 25 5065 25 5103 25 C 5117 25 5136 25 5146 25 C 5165 25 5314 25 5326 25 C 5333 25 5508 25 5543 26 C 5557 26 5581 25 5597 25 C 5632 24 5633 24 5656 25 C 5668 26 5996 26 6032 25 C 6035 25 6050 25 6067 25 C 6085 25 6102 25 6103 25 C 6105 24 6109 24 6111 25 C 6113 25 6120 25 6127 25 C 6145 24 6367 25 6389 26 C 6391 26 6398 26 6404 26 C 6410 26 6487 26 6576 26 C 6726 27 6737 27 6740 25 C 6743 21 6742 18 6737 14 C 6736 14 6735 13 6734 12 C 6706 12 6678 12 6652 12 C 6606 12 6568 12 6567 12 C 6564 12 6525 12 6478 12 C 6431 12 6233 10 6037 10 C 5790 10 5680 9 5678 8 C 5677 8 5674 8 5671 8 C 5667 9 5557 9 5245 9 C 5015 9 4755 9 4670 9 C 4585 8 4513 8 4510 8 C 4508 8 4502 8 4498 8 C 4495 8 4490 8 4488 8 C 4482 8 4418 8 4406 9 C 4396 9 4387 9 4378 9 C 4375 8 4366 9 4359 9 C 4348 9 4330 9 4289 8 C 4281 8 4273 8 4269 8 C 4265 8 4261 9 4258 8 C 4255 8 4227 9 4196 9 C 4155 9 4138 9 4135 9 C 4132 8 4119 7 4097 7 C 4079 7 4041 7 4012 7 C 3983 7 3840 7 3694 7 C 3547 7 3415 7 3401 7 C 3385 7 3370 7 3367 7 C 3362 7 3354 8 3345 8 C 3338 9 3331 9 3330 8 C 3327 7 3297 7 3222 7 C 3162 8 3163 8 3137 8 C 3126 8 3112 8 3109 8 C 3105 9 3102 9 3099 8 C 3097 7 3103 7 2912 8 C 2831 8 2763 9 2759 9 C 2757 9 2752 9 2751 9 C 2749 8 2745 8 2744 8 C 2743 9 2738 9 2734 8 C 2729 7 2714 7 2683 7 C 2659 7 2637 8 2634 7 C 2616 7 1048 6 471 4 C 269 4 164 4 164 4 C 163 3 96 2 76 3 C 61 3 36 3 30 2 C 25 2 21 2 14 4 z" fill="black"/><!-- width=6749 height=33 -->
<path id="gl20994" d="M 7 2 C 2 4 0 13 3 15 C 4 16 81 16 295 18 C 1164 18 1894 19 1896 19 C 1897 21 1905 21 1906 19 C 1908 18 2067 18 2068 20 C 2070 20 2073 20 2082 19 C 2095 18 2104 18 2106 19 C 2107 21 2112 21 2113 19 C 2114 18 2133 18 2134 19 C 2137 21 2336 21 2338 19 C 2340 19 2342 18 2348 19 C 2356 20 2474 20 2571 19 C 2617 19 2637 19 2638 20 C 2640 20 2647 20 2661 20 C 2695 19 2743 19 2744 19 C 2745 20 2788 21 2816 21 C 2823 21 3007 21 3224 21 C 3603 21 4479 22 4484 22 C 4502 21 5337 24 5356 25 C 5358 25 5434 24 5526 24 C 5650 24 5695 24 5700 25 C 5706 25 5707 25 5708 24 C 5710 22 5740 22 5779 24 C 5788 24 5797 25 5799 24 C 5806 24 5860 24 5870 25 C 5876 26 5880 25 5881 24 C 5883 22 5917 21 5923 24 C 5925 25 5931 26 5949 25 C 5961 25 5973 25 5977 25 C 5980 25 5986 25 5989 25 C 5994 25 6004 25 6015 25 C 6026 25 6045 25 6057 25 C 6288 24 6421 24 6422 24 C 6423 26 6456 26 6457 24 C 6458 24 6468 24 6480 24 C 6513 25 6546 25 6640 26 C 6670 26 6699 26 6728 27 C 6730 26 6732 25 6733 24 C 6738 19 6738 19 6733 14 C 6732 13 6730 12 6729 10 C 6609 10 6489 10 6369 10 C 6142 10 6007 9 6004 8 C 6002 8 6000 8 5996 9 C 5992 9 5968 9 5925 9 C 5859 8 5749 8 5726 8 C 5707 8 5698 8 5691 8 C 5673 8 5596 8 5583 8 C 5575 9 5565 9 5563 9 C 5560 9 5556 9 5551 9 C 5547 9 5529 9 5510 9 C 5492 9 5475 9 5472 9 C 5468 9 5464 9 5463 8 C 5461 8 5458 7 5451 8 C 5439 9 5340 9 5328 8 C 5320 7 5318 7 5317 8 C 5316 9 5312 10 5302 9 C 5296 8 5283 8 5276 8 C 5244 9 5216 9 5179 8 C 5157 8 4641 7 4032 7 C 1786 6 1384 6 1372 3 C 1358 2 1356 2 1324 3 C 1311 3 1296 4 1291 4 C 1197 2 955 2 856 4 C 853 4 835 4 818 4 C 802 4 769 4 745 4 C 718 4 702 4 702 4 C 700 2 686 2 685 4 C 684 6 669 6 668 4 C 667 2 652 2 651 4 C 650 6 636 6 634 4 C 633 2 628 2 627 4 C 626 6 615 6 614 3 C 613 3 609 2 601 3 C 566 6 546 6 543 3 C 541 2 10 1 7 2 z" fill="black"/><!-- width=6745 height=34 -->
<path id="gl20995" d="M 46 4 C 45 4 36 6 25 6 C 3 7 2 7 2 12 C 2 18 -6 18 213 18 C 377 18 423 18 427 19 C 432 20 451 20 459 19 C 465 16 482 18 484 20 C 485 21 491 21 496 19 C 499 18 499 18 503 19 C 506 21 580 20 625 19 C 648 18 654 18 656 19 C 658 20 702 20 799 19 C 831 18 844 19 845 19 C 846 21 859 21 861 19 C 863 18 875 18 877 19 C 879 21 898 21 899 19 C 900 18 943 18 945 19 C 946 21 951 21 952 19 C 954 18 1014 18 1017 19 C 1019 21 1050 21 1054 19 C 1058 16 1059 16 1064 19 C 1070 20 1079 21 1252 21 C 1361 20 1438 20 1444 20 C 1459 18 1727 18 1728 19 C 1729 21 1743 21 1745 19 C 1746 18 1832 18 1833 19 C 1833 20 1895 22 1907 22 C 1917 22 2792 22 3168 22 C 3388 22 3568 22 3569 22 C 3742 22 4291 22 4294 24 C 4301 26 4400 26 4410 24 C 4417 21 4418 21 4423 24 C 4429 26 4446 26 4454 24 C 4466 21 4471 21 4474 24 C 4478 26 4502 26 4507 24 C 4510 22 4510 22 4513 24 C 4516 26 4528 26 4532 24 C 4534 21 4543 21 4546 24 C 4549 25 4550 25 4555 24 C 4565 22 4573 22 4581 24 C 4587 25 4592 25 4604 24 C 4613 24 4622 22 4625 24 C 4627 24 4632 24 4635 24 C 4644 24 4651 24 4659 24 C 4663 24 4669 22 4674 22 C 4681 21 4683 22 4687 24 C 4692 26 4697 26 4700 24 C 4704 21 4852 21 4855 24 C 4856 25 4856 25 4858 24 C 4860 22 4901 22 4903 24 C 4904 26 4913 26 4914 24 C 4916 21 4993 21 5014 24 C 5034 26 5073 26 5080 24 C 5083 22 5086 22 5089 24 C 5095 25 5597 25 5611 24 C 5615 24 5618 24 5619 24 C 5621 26 5653 26 5660 24 C 5667 21 5683 21 5686 24 C 5687 25 5769 26 5880 26 C 6089 26 6127 25 6129 24 C 6132 22 6217 22 6219 24 C 6221 25 6222 25 6222 24 C 6223 22 6340 22 6341 24 C 6342 26 6350 26 6352 24 C 6353 22 6406 22 6407 24 C 6408 26 6446 26 6448 24 C 6449 22 6473 22 6474 25 C 6476 26 6540 26 6543 25 C 6544 22 6550 22 6551 25 C 6553 27 6735 27 6736 25 C 6738 22 6738 16 6736 14 C 6734 10 6617 10 6615 13 C 6613 15 6593 15 6592 14 C 6591 12 6581 12 6580 14 C 6579 15 6564 15 6563 13 C 6561 12 6394 12 5484 10 C 4982 10 4761 9 4760 9 C 4757 7 4736 7 4734 9 C 4730 12 4713 12 4709 9 C 4704 7 4689 7 4682 9 C 4677 10 4676 12 4673 9 C 4664 7 4555 7 4551 9 C 4548 12 4532 12 4526 9 C 4521 8 4520 8 4514 9 C 4507 12 4507 12 4503 9 C 4497 7 4488 7 4480 9 C 4474 12 4471 12 4444 9 C 4437 8 4432 8 4429 9 C 4420 12 4250 10 4247 9 C 4246 8 4246 8 4245 9 C 4243 10 4106 10 4103 9 C 4102 8 4073 7 4072 8 C 4071 9 3996 9 3983 8 C 3978 8 3974 8 3972 8 C 3970 10 3964 12 3959 9 C 3954 7 3927 7 3669 7 C 3552 8 3479 8 3475 9 C 3466 10 3461 12 3456 9 C 3452 9 3450 9 3446 10 C 3440 12 3439 12 3437 9 C 3433 7 3397 7 3394 9 C 3390 12 3354 12 3350 9 C 3347 7 3307 7 3303 9 C 3299 12 3267 12 3264 9 C 3260 7 3243 7 3240 9 C 3237 12 3233 12 3230 9 C 3227 7 3215 7 3211 9 C 3209 12 3204 12 3201 9 C 3199 7 3022 7 3020 8 C 3018 10 3012 10 3008 9 C 3004 8 3000 7 2970 8 C 2950 9 2928 9 2918 9 C 2863 8 2788 8 2747 9 C 2715 9 2702 9 2701 9 C 2699 7 2695 7 2693 9 C 2692 10 2673 10 2672 9 C 2671 7 2662 7 2661 9 C 2660 10 2572 10 2571 8 C 2568 7 2499 7 2496 9 C 2495 10 2490 10 2489 8 C 2487 6 1980 7 1978 8 C 1976 10 1922 10 1921 8 C 1919 7 1831 7 1829 9 C 1827 10 1736 10 1735 9 C 1734 7 1729 7 1728 9 C 1727 10 1711 10 1710 8 C 1707 7 1685 7 781 6 C 229 6 84 6 82 4 C 81 2 72 2 70 4 C 68 6 51 6 49 4 C 48 3 46 3 46 4 z" fill="black"/><!-- width=6744 height=33 -->
<path id="gl20996" d="M 6 6 C 2 9 3 12 8 12 C 9 12 10 13 12 14 C 14 16 84 16 88 14 C 91 13 91 13 93 14 C 98 16 305 16 309 14 C 313 12 315 12 319 14 C 323 16 1520 18 1524 15 C 1525 13 1528 13 1532 15 C 1537 18 1634 18 1638 15 C 1640 13 1645 13 1646 15 C 1648 18 1781 18 2572 18 C 3038 18 3264 19 3264 20 C 3265 21 3305 21 3306 20 C 3307 18 3312 18 3313 20 C 3314 21 3353 21 3354 19 C 3356 18 3365 18 3366 20 C 3367 21 3401 21 3402 20 C 3403 18 3408 18 3409 20 C 3409 20 3410 20 3412 19 C 3415 16 3443 16 3446 19 C 3450 21 3657 21 3657 20 C 3657 18 3720 18 3721 20 C 3723 21 3727 21 3729 20 C 3730 18 3826 18 3827 20 C 3828 21 3843 21 3844 20 C 3845 18 3922 18 3923 20 C 3924 21 3934 21 3935 20 C 3936 18 3951 18 3952 20 C 3952 22 4101 21 4105 19 C 4108 16 4118 16 4120 20 C 4121 22 4721 21 4724 19 C 4727 16 4731 16 4734 19 C 4739 21 4796 21 4801 19 C 4805 16 4806 16 4811 19 C 4814 21 4837 21 4838 20 C 4840 18 4844 18 4846 20 C 4848 22 6129 22 6134 20 C 6138 18 6146 18 6147 20 C 6150 21 6199 21 6561 22 C 6694 22 6737 22 6738 21 C 6743 19 6743 14 6738 10 C 6737 9 6736 8 6735 7 C 6723 7 6712 7 6701 7 C 6679 7 6666 8 6666 8 C 6665 10 6651 10 6647 8 C 6646 7 6645 7 6643 8 C 6640 10 6322 10 6322 8 C 6322 7 6312 7 6311 8 C 6310 10 6289 10 6288 8 C 6286 7 6265 7 6263 8 C 6260 10 6215 10 6211 8 C 6207 6 6155 7 6152 9 C 6151 10 6140 10 6139 8 C 6137 7 6115 7 4646 6 C 3956 6 3769 6 3767 4 C 3766 3 3766 3 3765 4 C 3762 6 3736 6 3733 4 C 3732 2 3723 2 3721 4 C 3719 6 2472 6 2470 3 C 2469 3 2468 3 2468 4 C 2465 6 2395 6 2393 3 C 2392 2 2377 2 2376 3 C 2375 6 2341 6 2340 3 C 2339 2 2325 2 2323 3 C 2322 6 2308 6 2307 3 C 2305 2 2267 2 2266 3 C 2265 6 2241 6 2239 3 C 2237 2 2110 2 2107 3 C 2106 6 2062 6 2062 3 C 2062 2 2041 2 2040 3 C 2039 6 2029 6 2028 3 C 2027 2 2012 2 2011 3 C 2010 6 2005 6 2004 3 C 2003 2 1988 2 1987 3 C 1986 6 1530 6 1528 3 C 1526 2 1399 2 1396 3 C 1395 6 1390 6 1389 3 C 1388 2 1247 2 698 2 C 468 2 238 2 9 2 C 8 3 7 4 6 6 z" fill="black"/><!-- width=6749 height=28 -->
<path id="gl20997" d="M 4 7 C 1 10 1 14 6 18 C 10 21 13 21 16 19 C 19 16 20 16 26 19 C 31 19 34 19 37 19 C 43 18 56 18 67 19 C 74 20 87 20 132 18 C 141 18 147 18 151 19 C 158 20 171 20 181 19 C 184 19 187 19 187 19 C 188 21 199 21 207 19 C 212 18 216 18 222 18 C 225 18 231 19 236 19 C 238 19 253 19 266 19 C 301 19 301 19 324 18 C 339 18 345 18 349 19 C 356 21 395 20 421 19 C 437 18 440 18 445 20 C 446 20 450 20 452 20 C 455 20 458 19 461 19 C 463 19 500 19 544 19 C 587 20 634 20 647 20 C 703 20 801 20 823 19 C 839 19 847 19 849 19 C 851 22 941 21 947 19 C 951 18 952 18 957 19 C 959 19 969 20 980 20 C 1041 21 1382 21 1443 20 C 1578 19 1645 19 1646 19 C 1647 21 1657 21 1658 19 C 1659 18 1706 18 1710 20 C 1713 22 1746 22 1749 19 C 1751 19 1753 19 1757 19 C 1779 21 1787 22 1793 21 C 1795 21 1809 20 1821 20 C 1835 20 1847 19 1849 19 C 1851 19 1856 20 1859 20 C 1867 22 1877 22 2404 22 C 2667 22 3015 22 3176 22 C 3338 22 3473 22 3478 22 C 3480 22 3517 22 3559 22 C 3601 24 3637 24 3642 24 C 3688 22 4138 24 4139 24 C 4141 25 4148 25 4161 24 C 4172 24 4181 24 4183 24 C 4185 24 4193 24 4202 22 C 4215 21 4219 21 4226 24 C 4238 26 4267 26 4276 24 C 4282 22 4283 22 4287 24 C 4292 25 4674 26 4706 24 C 4717 24 4729 22 4733 24 C 4746 24 4757 24 4770 22 C 4781 22 4787 22 4794 24 C 4804 26 4806 26 4814 25 C 4822 24 4825 24 4829 24 C 4836 26 4855 26 4861 24 C 4865 22 4867 22 4868 24 C 4876 26 4904 26 4910 24 C 4914 22 4918 22 4925 22 C 4955 25 5045 25 5322 26 C 6131 26 6325 26 6326 24 C 6328 24 6338 24 6392 25 C 6408 26 6492 26 6580 26 C 6736 27 6738 27 6740 24 C 6743 21 6743 16 6740 14 C 6736 12 6736 12 6600 12 C 5958 12 4997 9 4994 9 C 4988 7 4882 8 4872 9 C 4865 12 4864 12 4858 9 C 4853 8 4847 8 4838 8 C 4831 8 4806 8 4782 8 C 4727 8 4418 8 4407 9 C 4402 9 4398 9 4395 10 C 4393 10 4389 10 4387 9 C 4384 8 4378 8 4358 8 C 4328 9 4330 9 4275 8 C 4237 8 4231 8 4226 9 C 4219 12 4202 12 4198 9 C 4197 7 4147 7 3682 7 C 3487 8 3313 7 3294 7 C 3254 7 3187 7 3147 7 C 3100 8 2770 8 2750 8 C 2738 7 2556 7 2346 7 C 2135 7 1951 7 1938 7 C 1925 6 1855 6 1783 7 C 1330 7 297 4 283 4 C 258 2 240 2 229 4 C 219 7 205 7 202 4 C 201 3 171 3 105 3 C 73 3 40 3 9 3 C 8 4 7 6 4 7 z" fill="black"/><!-- width=6749 height=33 -->
<path id="gl20998" d="M 9 2 C 8 2 8 3 8 3 C 8 4 6 6 4 6 C 2 7 0 15 2 16 C 3 16 236 18 522 18 C 819 18 1040 19 1040 20 C 1041 20 1041 20 1042 19 C 1045 18 1186 18 1189 19 C 1191 21 1227 21 1230 19 C 1232 18 1345 18 1347 19 C 1348 20 1350 20 1350 19 C 1351 18 1375 18 1376 19 C 1377 21 1392 21 1393 19 C 1394 18 1905 18 1910 20 C 1915 22 1944 21 1945 19 C 1946 18 1951 18 1952 19 C 1953 21 1963 21 1964 19 C 1964 19 1969 18 1972 18 C 1977 18 1981 19 1981 19 C 1982 21 2020 21 2022 19 C 2023 18 2028 18 2029 19 C 2030 21 2035 21 2036 19 C 2037 18 2048 18 2049 20 C 2049 21 2634 21 2636 20 C 2637 18 2652 18 2653 20 C 2655 21 2691 21 2694 20 C 2695 18 2704 18 2706 19 C 2707 21 2712 21 2713 19 C 2714 18 2728 18 2730 20 C 2732 21 2840 21 2842 20 C 2844 18 2848 18 2850 20 C 2852 21 2922 21 3820 22 C 4354 22 4491 22 4492 24 C 4494 26 4507 26 4508 24 C 4510 21 5202 21 5202 24 C 5203 26 5227 26 5228 24 C 5230 22 5354 22 5356 24 C 5358 26 5376 26 5377 24 C 5379 22 5440 22 5443 25 C 5444 26 5452 26 5454 25 C 5455 22 5523 22 5524 25 C 5526 26 5534 26 5535 25 C 5538 22 5835 22 5835 24 C 5836 26 5841 26 5842 25 C 5844 22 5858 22 5859 25 C 5860 25 5864 26 5869 25 C 5887 24 5901 22 5902 25 C 5905 26 5941 26 5943 25 C 5944 22 5960 22 5960 25 C 5960 26 5980 26 5982 24 C 5984 22 6040 22 6043 25 C 6044 26 6062 26 6063 25 C 6064 22 6592 22 6594 25 C 6595 26 6604 26 6606 25 C 6607 22 6618 22 6619 25 C 6620 25 6636 26 6673 26 C 6723 26 6724 26 6728 24 C 6734 20 6734 16 6730 13 C 6729 10 6669 10 6277 10 C 6002 9 5824 9 5823 8 C 5822 7 5809 7 5808 8 C 5806 10 5690 10 5689 8 C 5688 7 5673 7 5672 8 C 5671 10 5667 10 5664 8 C 5662 7 5661 7 5659 8 C 5658 9 5653 10 5646 9 C 5638 9 5528 9 5398 9 C 5241 9 5162 9 5161 8 C 5160 7 5150 7 5149 8 C 5148 10 5138 10 5137 8 C 5136 7 5044 7 5043 8 C 5042 10 5032 10 5031 8 C 5028 6 4322 7 4317 9 C 4314 12 4311 12 4306 9 C 4304 7 4244 7 3103 7 C 1048 6 290 4 289 3 C 288 3 286 3 286 4 C 285 6 261 6 260 4 C 259 2 240 2 238 4 C 236 6 226 7 223 4 C 219 2 202 2 199 4 C 196 7 184 6 183 3 C 182 2 163 2 160 4 C 158 6 158 6 156 4 C 151 1 84 2 79 4 C 76 6 76 6 74 4 C 72 3 14 1 9 2 z" fill="black"/><!-- width=6740 height=34 -->
<path id="gl21248" d="M 34 1 C 10 2 7 2 7 3 C 7 4 6 7 4 8 C 3 9 3 10 6 13 C 7 14 8 15 9 15 C 26 16 43 16 60 16 C 103 16 110 15 112 14 C 116 12 120 12 122 14 C 126 16 128 16 132 14 C 134 13 134 13 138 14 C 140 15 159 15 271 15 C 343 15 479 15 574 16 C 668 16 761 16 779 16 C 797 16 822 16 835 16 C 874 16 1431 16 1480 16 C 1509 15 1528 15 1528 15 C 1530 13 1539 13 1540 15 C 1543 16 1692 16 2540 18 C 3048 18 3307 19 3308 20 C 3309 21 3319 21 3320 20 C 3321 18 3326 18 3327 20 C 3329 21 3344 21 3348 19 C 3350 18 3364 18 3368 20 C 3372 20 3374 20 3378 19 C 3384 16 3395 16 3400 19 C 3402 21 3409 21 3410 20 C 3412 18 3422 18 3424 20 C 3425 21 3545 21 3554 19 C 3570 16 3581 16 3587 19 C 3592 20 3594 21 3603 20 C 3636 18 3786 18 3789 20 C 3791 21 3798 20 3817 19 C 3826 16 3829 16 3834 18 C 3840 20 3873 20 3914 19 C 3932 18 3948 18 3953 19 C 3962 20 3964 20 3976 19 C 3983 18 3986 19 3987 20 C 3989 21 4025 22 4049 20 C 4072 19 4076 19 4084 20 C 4088 20 4093 20 4096 20 C 4101 19 4103 18 4106 19 C 4108 20 6158 22 6200 21 C 6203 20 6216 21 6230 21 C 6313 22 6738 22 6741 20 C 6744 18 6743 12 6737 10 C 6735 9 6731 8 6730 8 C 6729 7 6667 8 6654 9 C 6648 10 6646 9 6643 8 C 6641 7 6639 7 6633 8 C 6623 10 6499 10 6499 8 C 6499 7 6490 7 6489 8 C 6487 9 6469 9 6434 9 C 6371 8 6367 8 6360 8 C 6358 8 6352 8 6348 8 C 6343 7 6341 8 6340 8 C 6338 9 6335 10 6328 9 C 6317 8 6257 8 6250 9 C 6246 10 6244 9 6240 8 C 6236 7 6181 7 5690 6 C 4632 6 4647 6 4645 3 C 4643 2 4641 2 4634 3 C 4627 6 4426 6 4026 6 C 4007 6 3984 6 3976 6 C 3968 6 3958 6 3954 6 C 3935 4 3837 4 3829 6 C 3826 7 3817 6 3810 4 C 3793 2 3714 2 3706 4 C 3701 7 3699 7 3696 4 C 3691 3 3578 3 3571 4 C 3568 6 3558 7 3535 6 C 3490 4 3474 4 3456 6 C 3444 7 3440 6 3436 4 C 3430 3 3427 3 3422 3 C 3418 4 3413 4 3409 4 C 3403 6 3109 6 3086 6 C 3081 6 3048 6 3010 6 C 2930 4 2880 4 2873 3 C 2871 3 2867 3 2865 3 C 2858 6 2463 6 2460 4 C 2459 2 2454 2 2453 3 C 2452 4 2388 6 2387 4 C 2386 2 2368 1 2363 3 C 2359 6 2356 6 2355 3 C 2352 2 2253 2 2251 3 C 2250 6 2241 6 2239 3 C 2238 3 2231 3 2220 3 C 2211 3 2201 3 2199 3 C 2194 3 2088 3 2041 3 C 2015 3 1990 3 1982 4 C 1974 4 1972 4 1970 4 C 1969 2 1964 2 1963 3 C 1962 6 1933 6 1932 3 C 1931 2 1926 2 1925 3 C 1924 6 1706 6 1705 3 C 1704 2 1676 2 1675 3 C 1674 6 1664 6 1663 3 C 1662 2 1652 2 1651 3 C 1650 6 1611 6 1610 3 C 1609 2 1599 2 1598 3 C 1597 6 1591 6 1590 3 C 1588 3 1582 2 1573 2 C 1564 2 1294 2 974 2 C 653 2 317 1 226 1 C 135 1 50 1 34 1 z" fill="black"/><!-- width=6749 height=28 -->
<path id="gl20993" d="M 14 4 C 9 4 4 7 3 8 C 1 10 2 15 4 16 C 9 18 27 19 28 19 C 30 18 439 18 605 19 C 644 19 679 19 683 19 C 686 19 769 19 869 19 C 968 19 1058 19 1070 19 C 1080 20 1100 20 1113 19 C 1125 19 1150 19 1168 20 C 1186 20 1202 21 1203 21 C 1209 20 1261 21 1264 21 C 1268 21 1285 20 1304 20 C 1322 20 1347 20 1360 20 C 1372 20 1387 20 1391 20 C 1420 19 1733 19 1742 20 C 1748 20 1781 20 1815 20 C 1851 19 1880 20 1884 20 C 1887 21 2034 21 2275 22 C 2881 22 4187 24 4255 24 C 4374 24 4402 25 4411 24 C 4416 24 4424 24 4430 24 C 4436 24 4448 24 4456 24 C 4465 24 4483 24 4495 24 C 4507 24 4533 24 4552 24 C 4572 24 4590 24 4592 24 C 4596 24 4604 24 4613 24 C 4639 22 4706 24 4710 25 C 4712 26 4713 26 4717 25 C 4719 24 4737 24 4785 24 C 4949 24 5000 24 5006 25 C 5012 25 5065 25 5103 25 C 5117 25 5136 25 5146 25 C 5165 25 5314 25 5326 25 C 5333 25 5508 25 5543 26 C 5557 26 5581 25 5597 25 C 5632 24 5633 24 5656 25 C 5668 26 5996 26 6032 25 C 6035 25 6050 25 6067 25 C 6085 25 6102 25 6103 25 C 6105 24 6109 24 6111 25 C 6113 25 6120 25 6127 25 C 6145 24 6367 25 6389 26 C 6391 26 6398 26 6404 26 C 6410 26 6487 26 6576 26 C 6726 27 6737 27 6740 25 C 6743 21 6742 18 6737 14 C 6736 14 6735 13 6734 12 C 6706 12 6678 12 6652 12 C 6606 12 6568 12 6567 12 C 6564 12 6525 12 6478 12 C 6431 12 6233 10 6037 10 C 5790 10 5680 9 5678 8 C 5677 8 5674 8 5671 8 C 5667 9 5557 9 5245 9 C 5015 9 4755 9 4670 9 C 4585 8 4513 8 4510 8 C 4508 8 4502 8 4498 8 C 4495 8 4490 8 4488 8 C 4482 8 4418 8 4406 9 C 4396 9 4387 9 4378 9 C 4375 8 4366 9 4359 9 C 4348 9 4330 9 4289 8 C 4281 8 4273 8 4269 8 C 4265 8 4261 9 4258 8 C 4255 8 4227 9 4196 9 C 4155 9 4138 9 4135 9 C 4132 8 4119 7 4097 7 C 4079 7 4041 7 4012 7 C 3983 7 3840 7 3694 7 C 3547 7 3415 7 3401 7 C 3385 7 3370 7 3367 7 C 3362 7 3354 8 3345 8 C 3338 9 3331 9 3330 8 C 3327 7 3297 7 3222 7 C 3162 8 3163 8 3137 8 C 3126 8 3112 8 3109 8 C 3105 9 3102 9 3099 8 C 3097 7 3103 7 2912 8 C 2831 8 2763 9 2759 9 C 2757 9 2752 9 2751 9 C 2749 8 2745 8 2744 8 C 2743 9 2738 9 2734 8 C 2729 7 2714 7 2683 7 C 2659 7 2637 8 2634 7 C 2616 7 1048 6 471 4 C 269 4 164 4 164 4 C 163 3 96 2 76 3 C 61 3 36 3 30 2 C 25 2 21 2 14 4 z" fill="black"/><!-- width=6749 height=33 -->
<path id="gl21249" d="M 12 4 C 10 6 8 7 7 7 C 3 7 2 8 2 12 C 2 15 3 18 7 18 C 8 18 10 18 12 19 C 14 20 14 20 16 19 C 19 16 24 16 26 19 C 28 20 28 20 31 19 C 34 16 151 16 157 19 C 164 21 181 21 184 19 C 187 18 189 18 193 18 C 219 21 223 21 228 19 C 232 16 242 16 247 19 C 252 21 258 21 261 19 C 265 16 305 16 330 19 C 338 20 342 20 343 19 C 347 16 353 16 359 19 C 366 21 373 21 377 19 C 379 16 397 16 401 19 C 402 20 404 20 408 19 C 411 18 414 19 417 19 C 422 21 451 21 452 19 C 453 19 457 18 461 18 C 474 19 476 19 482 18 C 487 18 492 18 498 19 C 508 21 523 21 529 19 C 532 18 538 18 545 19 C 552 19 577 19 602 19 C 628 19 652 20 656 20 C 677 20 727 20 733 19 C 737 19 750 19 765 19 C 778 19 802 19 819 19 C 839 18 849 19 850 19 C 851 21 859 21 861 19 C 862 18 871 18 873 19 C 874 20 888 21 889 19 C 891 18 895 18 897 19 C 898 21 912 21 913 19 C 915 18 943 18 945 19 C 946 21 974 21 975 19 C 977 18 995 18 998 19 C 999 20 1040 21 1072 21 C 1074 21 1095 21 1116 21 C 1363 21 1450 20 1452 20 C 1454 19 1482 19 1483 20 C 1484 21 1497 21 1498 19 C 1500 19 1510 19 1536 19 C 1579 20 1572 20 1616 19 C 1644 19 1653 19 1656 20 C 1658 20 1660 20 1663 20 C 1669 19 1717 18 1717 19 C 1719 22 1728 22 1730 20 C 1733 18 1746 18 1748 20 C 1751 21 1866 21 1868 20 C 1869 18 1879 18 1881 20 C 1883 21 1920 24 1931 22 C 1934 22 2743 22 3137 22 C 3341 22 3510 22 3511 22 C 3514 22 4078 22 4183 22 C 4199 22 4222 22 4235 22 C 4252 22 4258 22 4259 24 C 4261 26 4269 26 4274 24 C 4279 22 4305 22 4307 24 C 4309 26 4318 26 4324 24 C 4330 21 4332 21 4334 24 C 4340 26 4586 26 4597 24 C 4603 22 4605 22 4609 22 C 4614 25 4715 25 4719 24 C 4725 21 4872 21 4879 24 C 4884 26 4885 26 4886 24 C 4886 22 4913 21 4925 22 C 4927 24 4936 22 4944 22 C 4952 22 4960 22 4962 24 C 4970 25 5059 26 5068 24 C 5071 22 5074 22 5076 24 C 5079 25 5421 25 5436 24 C 5440 24 5477 24 5519 25 C 5570 25 5596 25 5597 24 C 5599 24 5614 24 5648 25 C 5727 26 6144 26 6145 24 C 6146 22 6209 24 6212 25 C 6215 26 6216 26 6217 25 C 6219 22 6380 22 6383 25 C 6385 27 6420 27 6424 25 C 6426 22 6468 22 6469 25 C 6469 26 6473 26 6478 26 C 6481 26 6499 26 6519 26 C 6537 26 6592 26 6642 26 C 6673 26 6703 26 6735 27 C 6736 26 6737 24 6738 22 C 6740 21 6741 20 6743 19 C 6741 18 6740 16 6738 15 C 6737 14 6736 13 6735 12 C 6669 10 6601 10 6535 10 C 6426 10 6217 10 6072 10 C 5928 10 5797 10 5782 10 C 5623 10 4993 9 4992 9 C 4991 7 4979 7 4974 9 C 4969 9 4814 10 4810 9 C 4808 9 4804 9 4799 10 C 4791 12 4789 10 4785 9 C 4782 7 4719 7 4709 9 C 4706 9 4705 9 4704 9 C 4703 7 4691 7 4687 9 C 4682 12 4668 12 4659 9 C 4650 7 4521 7 4514 9 C 4508 12 4485 12 4476 9 C 4468 7 4455 8 4444 10 C 4440 12 4438 12 4436 9 C 4432 7 4360 7 4353 9 C 4350 12 4303 10 4300 9 C 4298 7 4263 7 4255 9 C 4250 10 4244 12 4226 10 C 4214 10 4187 9 4168 9 C 4144 9 4131 9 4131 9 C 4130 7 4001 7 3995 9 C 3990 12 3989 12 3982 9 C 3971 7 3467 7 3462 9 C 3457 12 3451 12 3444 9 C 3439 8 3433 8 3420 8 C 3395 8 3395 8 3345 8 C 3309 8 3301 8 3299 9 C 3295 12 3287 12 3283 10 C 3282 9 3279 9 3276 10 C 3272 12 3271 12 3269 9 C 3266 8 3259 7 3158 8 C 3061 8 2776 9 2759 9 C 2756 9 2750 8 2746 8 C 2743 7 2727 7 2707 7 C 2687 8 2663 8 2651 8 C 2638 7 2631 8 2631 8 C 2630 10 2615 10 2614 8 C 2612 6 1999 6 1997 8 C 1996 10 1985 10 1984 9 C 1982 8 1933 7 1887 7 C 1879 7 1845 7 1814 7 C 1782 7 1752 7 1748 8 C 1743 8 1739 8 1735 8 C 1730 7 284 4 245 4 C 237 6 232 4 231 3 C 229 2 226 2 219 3 C 206 6 186 6 183 4 C 182 2 177 2 176 4 C 175 4 171 4 165 4 C 144 2 67 2 64 4 C 61 7 58 7 54 4 C 49 2 34 2 31 4 C 28 7 21 7 16 4 C 14 3 14 3 12 4 z" fill="black"/><!-- width=6749 height=33 -->
<path id="gl21250" d="M 118 4 C 117 6 103 6 61 6 C 2 6 2 6 2 12 C 2 15 3 16 7 16 C 8 16 10 18 12 19 C 15 21 28 21 30 19 C 32 16 157 16 160 19 C 164 21 168 21 170 19 C 171 18 177 16 199 16 C 220 16 226 18 228 19 C 231 21 237 21 242 19 C 248 16 332 16 334 19 C 336 21 350 21 351 19 C 352 18 372 18 373 19 C 373 20 374 20 375 20 C 378 18 416 18 416 19 C 417 21 432 21 433 19 C 435 16 520 16 524 19 C 529 21 622 21 624 19 C 625 18 637 18 638 19 C 639 21 732 20 766 19 C 796 18 805 18 806 20 C 807 21 819 21 820 19 C 822 18 843 18 844 19 C 846 21 867 21 868 19 C 870 18 876 18 877 19 C 879 21 892 21 895 19 C 896 18 927 18 930 19 C 931 21 945 21 946 20 C 948 18 976 18 978 19 C 979 21 998 21 999 20 C 1002 16 1012 16 1015 19 C 1017 21 1063 22 1078 21 C 1081 20 1166 20 1268 20 C 1398 21 1454 20 1455 20 C 1456 18 1461 18 1462 19 C 1464 21 1468 21 1470 19 C 1471 18 1480 18 1482 19 C 1483 21 1488 21 1489 19 C 1490 18 1596 19 1629 20 C 1640 20 1646 20 1647 20 C 1648 18 1735 18 1736 20 C 1737 20 1738 20 1738 20 C 1740 18 1750 18 1752 19 C 1753 21 1771 21 1772 19 C 1773 18 1778 18 1779 19 C 1780 21 1795 21 1796 19 C 1797 18 1808 18 1809 20 C 1810 20 1881 22 1932 22 C 1935 22 2143 22 2395 22 C 3314 21 3637 22 3637 24 C 3638 25 3638 25 3639 24 C 3642 22 4119 21 4131 24 C 4144 26 4170 26 4172 24 C 4176 21 4245 22 4261 25 C 4268 26 4272 26 4273 25 C 4275 22 4303 22 4305 25 C 4306 26 4336 25 4341 24 C 4342 22 4346 24 4350 24 C 4357 26 4368 26 4374 24 C 4377 22 4378 22 4381 24 C 4387 26 4401 26 4407 24 C 4412 21 4413 21 4419 24 C 4426 26 4452 25 4461 22 C 4465 22 4467 22 4472 24 C 4482 26 4548 26 4556 24 C 4561 21 4562 21 4567 24 C 4574 25 4612 25 4620 24 C 4623 22 4628 21 4633 22 C 4636 22 4641 24 4642 22 C 4644 22 4647 22 4650 24 C 4656 24 4675 24 4681 24 C 4683 22 4687 22 4688 22 C 4689 22 4696 22 4704 22 C 4713 21 4717 22 4722 24 C 4728 25 4729 25 4732 24 C 4740 21 5004 21 5006 24 C 5007 26 5014 26 5018 24 C 5019 22 5020 22 5023 24 C 5028 25 5070 26 5077 24 C 5085 21 5163 21 5168 24 C 5173 26 5247 25 5260 24 C 5264 22 5269 22 5271 22 C 5274 24 5277 24 5280 22 C 5283 21 5287 21 5292 22 C 5295 24 5304 25 5310 25 C 5317 25 5353 25 5390 25 C 5427 25 5458 25 5458 24 C 5460 24 5470 24 5482 24 C 5504 25 5569 25 5595 24 C 5632 22 5685 22 5686 25 C 5688 25 5689 25 5689 25 C 5690 22 5696 22 5697 25 C 5700 26 5732 26 5734 25 C 5738 22 5743 22 5744 25 C 5746 26 5787 25 5802 24 C 5810 21 5814 21 5821 24 C 5832 25 5840 25 5845 22 C 5848 21 5850 21 5853 24 C 5859 26 5960 27 5964 24 C 5966 21 5968 21 5973 24 C 5978 25 6091 26 6092 25 C 6093 22 6376 22 6378 25 C 6379 26 6384 26 6385 25 C 6386 22 6397 22 6398 25 C 6399 26 6404 26 6404 25 C 6404 22 6415 22 6416 25 C 6417 26 6422 26 6423 25 C 6424 22 6433 22 6435 25 C 6438 26 6439 26 6441 25 C 6445 22 6474 22 6475 25 C 6475 25 6482 25 6494 25 C 6505 24 6517 24 6520 24 C 6585 26 6729 27 6732 25 C 6733 22 6733 15 6730 13 C 6729 12 6636 10 5898 10 C 5312 10 5066 9 5065 8 C 5064 8 5062 8 5060 8 C 5059 9 5038 9 5011 9 C 4986 9 4963 9 4960 9 C 4957 9 4954 9 4954 8 C 4953 7 4945 7 4944 8 C 4942 10 4917 10 4914 8 C 4912 8 4911 8 4909 9 C 4906 10 4905 10 4900 8 C 4897 7 4896 7 4894 8 C 4893 10 4888 10 4887 8 C 4886 7 4876 7 4875 8 C 4875 9 4867 9 4856 9 C 4761 7 4718 7 4716 9 C 4712 12 4705 12 4700 9 C 4693 7 4485 7 4477 9 C 4471 12 4470 12 4466 9 C 4462 7 4443 7 4438 9 C 4436 10 4434 10 4430 9 C 4426 7 4425 7 4420 9 C 4413 12 4408 12 4404 9 C 4401 8 4399 8 4392 9 C 4387 9 4374 10 4362 10 C 4341 10 4334 10 4322 8 C 4320 7 4316 8 4315 8 C 4312 10 4310 10 4290 8 C 4285 7 4281 8 4280 8 C 4279 10 4273 10 4272 8 C 4270 7 4258 7 4257 9 C 4256 9 4254 10 4246 9 C 4240 9 4233 9 4228 10 C 4222 12 4220 10 4218 9 C 4214 8 4213 8 4213 9 C 4210 10 4198 10 4196 9 C 4195 7 4190 7 4183 9 C 4178 12 4177 12 4173 9 C 4170 8 4089 7 4014 8 C 3984 8 3997 8 3858 8 C 3746 7 3538 7 3243 7 C 3176 7 3098 8 3069 8 C 3042 8 3014 8 3009 8 C 3004 8 2996 8 2992 8 C 2974 9 2965 9 2950 9 C 2942 8 2931 9 2928 9 C 2924 9 2920 9 2919 9 C 2918 8 2860 8 2785 9 C 2773 9 2755 9 2744 8 C 2725 7 2731 7 2666 7 C 2637 8 2614 8 2614 9 C 2613 10 2599 10 2598 9 C 2595 7 2550 7 2547 9 C 2542 12 2540 12 2535 9 C 2533 7 1965 6 1963 8 C 1962 10 1951 10 1950 8 C 1947 6 1917 6 1915 8 C 1912 10 1878 10 1876 8 C 1875 7 1804 7 1803 9 C 1802 10 1797 10 1796 8 C 1795 7 1785 7 1784 8 C 1783 10 1773 10 1772 9 C 1770 7 1729 7 1726 8 C 1725 10 1707 10 1705 8 C 1704 7 1639 6 1143 6 C 260 6 152 6 150 4 C 148 2 134 2 132 4 C 129 6 129 6 127 4 C 123 2 120 2 118 4 z" fill="black"/><!-- width=6740 height=34 -->
</defs>
<use xlink:href="#gl16406" x="11" y="6"/>
<use xlink:href="#gl13846" x="187" y="58"/>
<use xlink:href="#gl20739" x="262" y="8"/>
<use xlink:href="#gl11293" x="318" y="59"/>
<use xlink:href="#gl11044" x="421" y="59"/>
<use xlink:href="#gl11297" x="534" y="57"/>
<use xlink:href="#gl11290" x="635" y="0"/>
<use xlink:href="#gl11299" x="736" y="60"/>
<use xlink:href="#gl11534" x="823" y="59"/>
<use xlink:href="#gl12052" x="893" y="8"/>
<use xlink:href="#gl11042" x="941" y="58"/>
<use xlink:href="#gl13846" x="1021" y="59"/>
<use xlink:href="#gl13845" x="1103" y="0"/>
<use xlink:href="#gl3351" x="1201" y="59"/>
<use xlink:href="#gl11296" x="1261" y="59"/>
<use xlink:href="#gl11008" x="1354" y="58"/>
<use xlink:href="#gl11297" x="1510" y="59"/>
<use xlink:href="#gl11522" x="1616" y="50"/>
<use xlink:href="#gl20740" x="1668" y="61"/>
<use xlink:href="#gl11008" x="1770" y="59"/>
<use xlink:href="#gl11534" x="1922" y="60"/>
<use xlink:href="#gl10786" x="1996" y="62"/>
<use xlink:href="#gl16406" x="5" y="2091"/>
<use xlink:href="#gl13846" x="182" y="2143"/>
<use xlink:href="#gl20741" x="257" y="2091"/>
<use xlink:href="#gl13842" x="315" y="2145"/>
<use xlink:href="#gl12311" x="416" y="2143"/>
<use xlink:href="#gl11284" x="530" y="2134"/>
<use xlink:href="#gl12302" x="588" y="2082"/>
<use xlink:href="#gl11293" x="690" y="2145"/>
<use xlink:href="#gl12304" x="789" y="2144"/>
<use xlink:href="#gl14086" x="889" y="2144"/>
<use xlink:href="#gl11290" x="981" y="2084"/>
<use xlink:href="#gl11522" x="1087" y="2134"/>
<use xlink:href="#gl11295" x="1143" y="2143"/>
<use xlink:href="#gl20742" x="1225" y="2087"/>
<use xlink:href="#gl11282" x="1301" y="2092"/>
<use xlink:href="#gl11008" x="1352" y="2142"/>
<use xlink:href="#gl13846" x="1507" y="2144"/>
<use xlink:href="#gl14086" x="1585" y="2144"/>
<use xlink:href="#gl11265" x="1678" y="2144"/>
<use xlink:href="#gl3351" x="1755" y="2144"/>
<use xlink:href="#gl11304" x="1825" y="2148"/>
<use xlink:href="#gl16406" x="0" y="4175"/>
<use xlink:href="#gl13846" x="176" y="4226"/>
<use xlink:href="#gl20741" x="252" y="4175"/>
<use xlink:href="#gl12288" x="305" y="4227"/>
<use xlink:href="#gl12053" x="407" y="4227"/>
<use xlink:href="#gl20743" x="523" y="4167"/>
<use xlink:href="#gl11021" x="620" y="4226"/>
<use xlink:href="#gl11289" x="705" y="4168"/>
<use xlink:href="#gl13846" x="804" y="4227"/>
<use xlink:href="#gl3348" x="881" y="4227"/>
<use xlink:href="#gl11030" x="975" y="4176"/>
<use xlink:href="#gl11293" x="1022" y="4228"/>
<use xlink:href="#gl11044" x="1123" y="4227"/>
<use xlink:href="#gl11295" x="1185" y="4227"/>
<use xlink:href="#gl10786" x="1256" y="4230"/>
<use xlink:href="#gl20744" x="2154" y="133"/>
<use xlink:href="#gl20992" x="2149" y="656"/>
<use xlink:href="#gl20993" x="2149" y="1179"/>
<use xlink:href="#gl20994" x="2149" y="1698"/>
<use xlink:href="#gl20995" x="2149" y="2216"/>
<use xlink:href="#gl20996" x="2143" y="2739"/>
<use xlink:href="#gl20997" x="2144" y="3253"/>
<use xlink:href="#gl20998" x="2144" y="3776"/>
<use xlink:href="#gl21248" x="2139" y="4304"/>
<use xlink:href="#gl20993" x="2138" y="4823"/>
<use xlink:href="#gl21249" x="2139" y="5346"/>
<use xlink:href="#gl21250" x="2139" y="5869"/>
</svg>