<svg xmlns="http://www.w3.org/2000/svg" xmlns:xlink="http://www.w3.org/1999/xlink" width="756px" height="223px" viewBox="0 0 7569 2234" version="1.1">
<defs>
<path id="gl2054" d="M 183 7 C 162 7 115 7 80 7 C 45 7 14 7 13 7 C 7 8 6 12 7 26 C 7 33 8 78 8 124 C 8 153 8 182 8 210 C 9 211 10 212 12 213 C 18 218 16 223 12 228 C 10 228 9 229 8 230 C 8 270 8 308 8 346 C 8 410 8 477 8 495 C 8 512 8 577 8 640 C 9 718 8 760 8 777 C 6 810 6 811 22 811 C 26 811 44 811 63 811 C 81 811 108 811 121 811 C 150 812 153 812 154 806 C 157 802 157 758 156 757 C 156 756 154 687 154 604 C 154 522 153 450 153 445 C 152 420 150 372 150 332 C 150 308 148 286 148 282 C 147 268 144 180 142 118 C 141 88 142 84 146 82 C 150 82 153 88 156 102 C 157 106 158 112 159 117 C 163 128 165 144 166 151 C 168 156 169 159 169 159 C 169 160 174 177 176 193 C 178 210 182 222 183 226 C 183 228 184 234 186 238 C 187 246 189 254 193 270 C 193 272 194 278 195 282 C 196 285 198 292 199 296 C 204 316 205 321 205 328 C 206 331 207 339 210 345 C 211 352 213 363 214 369 C 214 376 217 385 217 388 C 218 391 220 403 223 414 C 225 424 229 442 231 453 C 234 464 236 477 237 484 C 240 490 241 498 241 499 C 242 500 243 505 243 507 C 243 512 246 522 248 531 C 249 541 252 552 253 556 C 255 568 259 588 261 595 C 262 600 264 607 265 614 C 267 621 270 633 271 642 C 273 649 276 660 276 664 C 277 670 278 676 279 679 C 280 682 282 687 282 691 C 282 694 283 698 284 700 C 285 704 286 714 290 735 C 292 742 294 751 295 757 C 296 762 297 769 298 774 C 300 780 302 788 303 794 C 304 799 306 805 306 806 C 307 811 313 812 355 811 C 388 811 393 811 397 808 C 400 806 403 798 405 784 C 405 780 406 775 406 774 C 406 774 408 768 410 760 C 411 753 412 742 414 736 C 415 729 417 720 418 714 C 420 708 421 703 421 702 C 421 702 423 694 428 672 C 429 668 430 662 430 658 C 432 655 434 648 435 642 C 436 636 438 626 439 620 C 441 613 442 603 444 598 C 448 570 452 558 454 549 C 456 543 459 525 462 517 C 462 513 463 506 464 504 C 466 495 470 477 472 465 C 475 451 478 432 481 423 C 482 418 483 411 484 408 C 484 404 486 397 487 393 C 488 388 489 382 490 379 C 490 375 492 368 493 362 C 495 357 496 348 498 343 C 499 338 500 330 501 325 C 504 320 505 314 505 309 C 505 307 506 302 507 300 C 508 297 510 294 510 290 C 511 284 512 277 516 260 C 517 255 519 247 519 242 C 524 220 526 213 526 212 C 528 211 529 206 529 204 C 529 199 530 194 531 192 C 532 187 536 168 538 159 C 538 156 540 151 541 147 C 542 145 543 139 543 135 C 544 132 546 128 546 127 C 546 127 547 122 548 118 C 550 109 556 98 558 100 C 559 100 560 103 560 104 C 561 109 560 170 558 229 C 556 241 555 272 555 298 C 555 324 554 352 553 363 C 552 387 550 498 550 625 C 550 681 549 746 549 768 C 549 781 548 794 548 806 C 549 807 552 808 553 810 C 556 811 558 812 580 811 C 594 810 625 810 650 810 C 666 810 680 810 696 810 C 697 808 697 807 698 806 C 700 802 700 783 698 741 C 697 712 697 144 698 85 C 698 61 699 33 699 25 C 699 4 700 6 676 6 C 598 7 493 6 481 6 C 460 4 460 4 456 27 C 454 33 453 40 452 43 C 452 45 451 50 450 54 C 450 56 448 66 446 74 C 445 82 442 94 441 99 C 440 104 439 110 438 111 C 438 114 436 118 435 123 C 434 128 433 138 430 145 C 429 152 427 163 426 168 C 423 178 417 208 415 220 C 411 232 409 248 406 260 C 405 266 404 271 404 272 C 403 272 400 289 397 307 C 396 312 394 316 394 318 C 394 318 393 324 392 330 C 391 337 390 343 390 344 C 388 345 387 349 387 352 C 387 356 386 363 385 368 C 380 386 379 396 378 403 C 378 408 376 416 375 421 C 374 432 370 452 368 478 C 362 530 361 540 357 547 C 357 548 356 550 355 552 C 355 550 354 549 354 548 C 350 543 349 532 346 519 C 345 504 342 483 339 476 C 339 472 338 465 337 458 C 334 444 332 429 330 417 C 328 414 327 406 327 402 C 326 397 324 386 322 375 C 312 318 312 316 309 310 C 309 308 308 303 308 301 C 306 292 303 282 298 261 C 296 252 294 237 291 229 C 290 220 288 210 286 206 C 285 201 284 194 284 192 C 283 187 282 180 280 174 C 279 168 277 158 276 153 C 274 147 273 140 272 136 C 272 134 271 128 270 123 C 267 110 265 97 262 90 C 261 86 260 81 260 78 C 260 74 258 67 256 62 C 256 57 254 46 253 40 C 247 7 246 4 231 6 C 228 6 206 6 183 7 M 427 334 C 428 339 424 343 420 342 C 416 339 416 333 420 331 C 422 328 426 330 427 334 z" fill="black"/><!-- width=711 height=822 -->
<path id="gl2055" d="M 187 8 C 74 15 26 56 12 152 C 6 191 6 197 13 199 C 20 201 134 200 137 198 C 139 195 140 193 140 178 C 143 143 151 128 171 117 C 182 111 187 111 210 110 C 258 107 276 116 282 147 C 287 171 282 194 267 211 C 252 228 235 236 184 257 C 175 261 165 265 162 267 C 158 268 151 272 146 273 C 125 281 88 303 74 313 C 30 349 10 389 7 452 C 6 472 8 509 12 522 C 13 527 14 536 16 542 C 27 591 53 620 95 634 C 132 646 186 648 207 635 C 209 635 212 634 215 632 C 238 622 250 610 268 587 C 281 571 286 568 290 571 C 292 574 292 576 292 591 C 292 610 295 620 299 625 C 303 628 302 628 327 628 C 337 627 361 628 383 628 C 429 631 428 631 428 621 C 429 617 428 611 426 609 C 424 602 419 571 418 559 C 418 554 417 458 417 344 C 417 122 417 126 409 105 C 391 44 334 12 243 7 C 214 6 206 6 187 8 M 276 311 C 282 314 282 317 281 359 C 280 431 279 438 278 455 C 274 515 247 544 200 540 C 174 539 158 529 148 507 C 141 492 139 464 142 437 C 146 403 154 390 184 369 C 189 366 197 361 201 357 C 214 349 234 333 236 332 C 238 331 240 330 241 328 C 244 326 269 310 273 310 C 273 310 274 310 276 311 z" fill="black"/><!-- width=440 height=656 -->
<path id="gl2056" d="M 177 8 C 164 9 126 16 117 20 C 115 21 109 24 103 25 C 97 27 90 30 85 32 C 81 34 78 37 75 37 C 61 43 36 66 27 81 C 20 96 18 98 18 100 C 18 102 18 105 15 109 C 14 112 13 118 13 123 C 13 127 13 135 12 141 C 9 162 10 189 15 204 C 16 207 19 214 21 220 C 24 230 25 234 31 246 C 34 254 42 267 46 272 C 66 296 70 301 93 319 C 100 326 110 333 114 335 C 116 337 120 339 120 341 C 120 341 120 342 121 342 C 121 342 124 343 128 345 C 132 348 141 355 150 361 C 159 367 168 373 168 373 C 174 378 182 385 183 385 C 184 385 187 386 190 389 C 194 391 200 396 205 399 C 211 403 216 405 216 407 C 217 407 220 410 225 413 C 240 422 240 423 251 433 C 261 444 265 450 270 465 C 272 477 272 493 270 497 C 269 498 269 500 269 502 C 267 506 255 524 249 528 C 232 538 226 539 206 539 C 168 539 154 530 146 500 C 142 490 141 453 144 441 C 145 435 142 431 138 429 C 132 428 13 429 9 431 C 3 433 2 445 7 477 C 13 522 20 542 37 571 C 40 577 70 606 73 606 C 73 606 76 608 79 610 C 92 619 124 632 142 636 C 147 636 151 637 152 637 C 153 638 180 641 196 642 C 220 643 270 638 291 631 C 296 630 303 629 308 626 C 318 624 327 620 330 618 C 331 617 337 614 342 611 C 351 605 367 593 371 588 C 399 554 409 524 409 467 C 409 439 408 433 404 417 C 402 409 393 389 389 384 C 387 381 384 377 381 373 C 369 355 336 324 320 314 C 318 313 313 309 309 307 C 306 305 302 302 301 302 C 300 302 271 282 251 269 C 248 267 243 264 238 261 C 235 259 230 254 226 252 C 223 249 219 247 219 247 C 218 247 214 245 208 241 C 204 237 194 230 187 225 C 165 211 153 199 147 184 C 144 177 144 146 147 142 C 148 140 148 138 150 135 C 151 132 160 122 169 116 C 183 106 220 106 240 116 C 261 127 269 141 270 184 C 271 199 271 201 273 202 C 275 204 285 204 325 205 C 414 205 408 205 409 199 C 411 188 407 144 401 128 C 399 124 398 120 398 118 C 398 115 392 100 385 86 C 363 49 321 20 270 12 C 251 8 206 7 177 8 M 109 492 C 114 498 114 508 109 510 C 103 512 97 509 96 499 C 94 491 104 485 109 492 z" fill="black"/><!-- width=422 height=653 -->
<path id="gl2057" d="M 69 3 C 62 4 61 19 64 114 C 66 168 66 171 57 174 C 55 175 45 175 34 174 C 12 172 9 174 8 180 C 8 222 9 265 12 267 C 13 270 16 270 42 268 C 56 268 60 268 63 273 C 66 277 66 278 66 338 C 64 421 64 526 66 626 C 66 716 66 714 74 729 C 82 748 110 771 127 774 C 130 774 135 775 136 776 C 151 781 188 783 231 780 C 255 778 259 777 261 774 C 264 769 264 678 261 673 C 260 673 260 672 260 670 C 253 670 247 669 241 669 C 219 669 213 667 206 658 C 205 657 204 656 202 654 C 202 591 202 528 202 464 C 202 402 202 338 202 274 C 204 273 204 272 205 272 C 206 271 207 270 208 268 C 216 270 224 270 232 270 C 253 271 256 270 259 268 C 262 266 264 182 260 175 C 259 174 259 174 258 171 C 254 171 250 171 247 171 C 241 171 230 172 223 174 C 201 176 200 175 201 138 C 205 -1 205 4 199 3 C 198 3 184 3 170 3 C 146 4 104 4 81 3 C 76 3 70 3 69 3 M 102 688 C 103 692 100 692 97 688 C 96 687 96 686 97 685 C 99 684 102 685 102 688 z" fill="black"/><!-- width=274 height=793 -->
<path id="gl2058" d="M 195 8 C 138 10 100 25 65 55 C 24 91 6 153 8 241 C 8 254 8 301 8 344 C 9 464 12 490 32 545 C 34 552 41 560 48 572 C 77 615 123 636 195 642 C 255 647 303 640 338 621 C 370 604 394 575 406 541 C 419 504 428 435 420 426 C 418 423 288 423 285 426 C 284 428 284 436 283 451 C 281 518 261 543 213 541 C 184 540 165 529 155 507 C 145 487 144 471 143 407 C 143 390 143 375 143 358 C 144 356 145 355 147 354 C 150 350 150 350 162 350 C 170 350 231 352 297 352 C 338 353 379 353 420 353 C 422 353 422 352 423 350 C 425 348 425 346 424 309 C 422 177 418 143 405 107 C 378 36 307 2 195 8 M 247 112 C 266 118 277 130 283 151 C 288 171 290 233 285 242 C 282 249 282 249 214 249 C 192 249 172 249 150 249 C 149 248 148 247 147 246 C 145 244 144 244 143 243 C 143 236 143 227 143 220 C 142 149 153 121 186 112 C 197 108 233 108 247 112 z" fill="black"/><!-- width=435 height=656 -->
<path id="gl2059" d="M 258 7 C 229 13 195 36 176 66 C 168 77 153 103 153 104 C 153 104 151 108 149 112 C 144 120 141 119 138 110 C 136 104 137 65 138 34 C 139 15 147 18 73 18 C 0 18 6 16 7 36 C 8 56 9 572 8 595 C 7 617 7 622 10 623 C 12 623 42 623 77 624 C 98 624 120 624 142 624 C 142 623 143 622 144 621 C 147 618 147 617 145 581 C 144 560 144 477 144 395 C 144 347 144 297 144 248 C 145 244 147 240 148 236 C 161 188 192 167 255 170 C 283 170 283 170 283 155 C 283 150 283 132 282 116 C 281 96 282 77 282 50 C 284 6 284 7 272 7 C 267 7 261 7 258 7 z" fill="black"/><!-- width=294 height=636 -->
<path id="gl2060" d="M 65 7 C 6 8 6 8 6 14 C 6 16 6 20 16 60 C 29 99 32 117 44 168 C 48 186 52 200 64 254 C 83 336 87 350 101 409 C 108 439 118 479 123 497 C 128 515 133 537 135 546 C 160 644 163 657 163 678 C 163 695 160 701 151 707 C 141 715 136 715 94 712 C 77 711 78 706 78 765 C 78 816 79 820 85 821 C 107 826 162 826 179 822 C 185 821 191 820 193 820 C 211 818 233 805 248 791 C 269 769 280 744 296 680 C 312 614 318 594 323 571 C 326 557 331 537 333 525 C 338 503 344 480 348 464 C 350 453 358 424 363 405 C 372 361 382 321 387 298 C 390 284 395 265 398 256 C 399 248 406 217 413 188 C 419 160 427 133 428 127 C 433 105 446 54 448 44 C 454 25 457 12 454 9 C 453 8 453 7 453 7 C 430 7 407 7 386 7 C 320 7 318 7 317 9 C 314 13 313 16 307 54 C 304 66 302 82 290 146 C 277 222 275 232 272 255 C 267 284 257 341 255 353 C 252 366 250 382 245 410 C 238 468 237 474 232 474 C 231 474 229 473 228 468 C 226 459 226 458 221 418 C 214 367 203 303 191 233 C 188 223 186 208 185 199 C 181 176 166 98 164 87 C 163 82 160 65 157 48 C 151 6 151 6 131 7 C 125 7 95 7 65 7 z" fill="black"/><!-- width=465 height=837 -->
<path id="gl2061" d="M 204 4 C 204 4 194 6 182 7 C 93 15 48 48 26 117 C 22 128 19 146 18 153 C 18 156 16 163 15 168 C 9 204 8 219 8 326 C 8 399 8 430 9 440 C 14 476 14 482 15 486 C 16 488 18 493 18 496 C 20 510 24 526 27 536 C 28 542 31 548 32 550 C 36 564 49 583 60 595 C 76 610 93 620 118 628 C 150 638 163 639 217 639 C 232 639 248 639 264 639 C 271 638 277 637 284 636 C 321 628 334 624 355 610 C 362 606 381 588 386 580 C 392 570 408 536 408 531 C 408 530 409 526 410 522 C 420 490 423 460 424 379 C 426 322 423 222 421 198 C 420 190 418 177 418 171 C 408 69 358 19 260 7 C 249 6 205 3 204 4 M 243 110 C 250 112 260 117 262 120 C 278 132 285 147 288 181 C 290 205 289 463 288 478 C 285 499 279 511 270 520 C 266 524 264 526 262 526 C 261 526 259 528 259 529 C 250 536 206 538 184 532 C 159 525 148 508 144 476 C 141 456 141 193 144 174 C 146 150 153 135 165 123 C 181 109 219 103 243 110 z" fill="black"/><!-- width=438 height=654 -->
<path id="gl2062" d="M 222 6 C 158 8 141 10 116 22 C 97 31 82 45 74 62 C 70 70 66 84 64 88 C 61 106 60 121 61 162 C 61 176 61 190 61 205 C 60 206 58 206 57 207 C 54 211 54 211 34 210 C 8 210 9 210 8 212 C 7 217 8 302 9 305 C 12 306 20 306 42 305 C 61 303 62 306 61 345 C 61 361 60 465 60 578 C 58 691 58 789 58 796 C 58 804 58 808 61 810 C 61 810 62 811 62 813 C 85 813 106 813 128 813 C 165 813 195 813 196 811 C 198 811 198 374 196 356 C 195 333 195 324 196 317 C 198 305 201 303 219 306 C 231 307 248 308 253 307 C 258 306 258 302 258 257 C 258 232 257 212 255 211 C 254 208 249 207 226 210 C 193 211 194 213 195 165 C 195 127 196 124 201 118 C 208 109 224 108 247 112 C 251 114 254 114 255 114 C 258 111 258 104 259 60 C 259 2 260 4 240 6 C 236 6 228 6 222 6 z" fill="black"/><!-- width=269 height=821 -->
<path id="gl2304" d="M 546 4 C 546 4 516 6 480 6 C 437 6 413 6 410 7 C 408 8 403 16 398 30 C 396 34 393 42 392 45 C 390 50 389 56 387 60 C 386 62 385 67 384 68 C 383 70 381 72 381 73 C 381 74 378 84 375 91 C 374 93 373 98 371 102 C 369 106 367 110 367 110 C 367 111 367 114 366 115 C 365 117 363 121 362 124 C 356 138 345 166 342 177 C 339 183 336 192 335 195 C 333 200 331 206 330 207 C 330 210 329 212 329 213 C 326 214 321 228 320 235 C 319 238 318 242 318 243 C 317 246 313 255 311 263 C 309 266 308 270 308 272 C 303 285 297 306 295 312 C 295 315 294 319 293 319 C 293 319 293 321 293 321 C 293 324 291 326 290 329 C 285 339 279 331 275 307 C 272 295 269 283 264 270 C 261 263 260 257 260 255 C 260 254 259 252 258 249 C 255 247 254 243 254 242 C 254 241 254 238 253 236 C 252 235 249 229 248 223 C 246 214 237 194 234 184 C 232 182 231 178 231 177 C 231 175 230 171 229 171 C 229 170 228 168 226 165 C 226 163 224 159 223 157 C 222 154 222 152 222 151 C 222 150 220 147 220 147 C 219 147 218 145 218 142 C 217 140 214 133 212 127 C 208 121 206 114 206 114 C 206 112 206 110 206 110 C 205 109 202 104 201 98 C 196 88 195 84 190 74 C 189 70 186 62 184 56 C 183 54 182 51 182 50 C 181 49 178 43 176 36 C 175 30 171 22 170 20 C 169 18 169 14 169 14 C 169 13 166 12 165 9 C 164 8 164 7 163 6 C 136 6 111 6 86 6 C 44 6 8 7 7 7 C 1 8 2 12 21 50 C 24 56 27 64 30 68 C 33 78 37 86 44 100 C 48 108 52 117 54 121 C 56 124 57 130 58 133 C 61 135 63 142 66 147 C 68 152 69 157 69 157 C 70 158 70 160 73 163 C 74 165 74 168 74 169 C 74 170 81 183 88 199 C 91 204 93 210 94 212 C 98 223 100 229 106 242 C 116 260 122 275 122 276 C 122 277 124 282 128 287 C 130 291 134 300 135 303 C 138 307 141 317 145 324 C 148 331 152 338 152 338 C 152 339 153 344 157 350 C 165 369 171 381 174 387 C 175 392 178 398 181 403 C 187 415 190 425 190 426 C 190 426 194 433 202 451 C 204 453 206 458 207 462 C 208 465 210 468 211 470 C 211 527 210 583 210 638 C 210 695 210 751 210 808 C 210 809 211 809 212 810 C 216 814 355 814 359 810 C 361 807 361 811 360 731 C 360 700 359 626 359 570 C 359 535 359 502 359 467 C 362 459 365 453 368 446 C 373 435 379 422 380 419 C 383 414 385 410 385 410 C 385 410 386 405 389 399 C 392 395 395 386 397 383 C 398 378 402 371 404 367 C 407 362 409 357 410 356 C 410 354 411 351 411 350 C 413 350 415 345 417 341 C 419 336 421 332 422 332 C 422 332 422 331 422 330 C 422 326 427 317 431 312 C 432 311 433 308 433 308 C 433 307 439 293 453 263 C 463 243 465 238 469 229 C 470 224 474 217 476 213 C 479 208 481 204 481 204 C 481 201 482 196 491 180 C 493 174 498 164 500 159 C 503 154 505 147 506 145 C 509 142 511 136 512 132 C 515 128 520 117 524 108 C 529 99 533 90 534 87 C 535 85 536 82 536 81 C 538 81 540 76 542 72 C 544 68 546 63 546 63 C 547 63 547 62 547 61 C 547 60 552 50 558 39 C 569 16 571 9 566 7 C 564 6 547 3 546 4 z" fill="black"/><!-- width=581 height=821 -->
<path id="gl2305" d="M 192 9 C 172 10 135 16 126 20 C 124 21 118 22 115 23 C 85 35 55 63 40 89 C 23 122 15 172 10 249 C 9 282 9 401 11 427 C 15 497 28 553 46 578 C 49 581 52 587 55 590 C 70 613 98 628 132 637 C 140 638 148 640 150 642 C 166 645 249 646 277 643 C 329 636 361 619 384 589 C 416 546 427 485 427 342 C 426 183 419 125 391 81 C 360 27 291 2 192 9 M 236 111 C 265 116 281 131 288 167 C 292 184 292 478 288 494 C 281 531 257 546 207 541 C 165 539 148 521 146 473 C 143 452 143 202 146 185 C 148 156 153 142 165 130 C 176 119 183 116 204 111 C 209 110 227 111 236 111 z" fill="black"/><!-- width=442 height=658 -->
<path id="gl2306" d="M 98 3 C 84 4 58 4 43 4 C 2 3 3 2 6 33 C 7 49 8 111 8 281 C 8 437 9 508 9 511 C 10 514 12 521 13 527 C 19 566 31 589 50 601 C 51 602 55 605 57 607 C 60 608 64 611 67 611 C 69 612 72 613 72 613 C 72 614 74 616 78 616 C 80 616 84 617 85 618 C 91 620 132 625 145 624 C 182 622 210 611 226 593 C 234 586 241 577 242 574 C 242 572 243 571 245 571 C 245 571 245 571 245 570 C 245 569 247 565 249 560 C 253 556 255 552 255 551 C 255 551 255 548 257 546 C 258 544 260 539 260 538 C 261 535 263 533 264 533 C 264 533 265 533 265 532 C 265 532 265 529 266 528 C 273 520 278 541 275 571 C 275 577 273 587 273 592 C 272 600 272 601 276 605 C 277 606 277 607 278 608 C 299 608 319 608 341 608 C 401 608 402 608 403 606 C 404 604 405 598 404 563 C 404 540 403 441 403 344 C 403 246 402 162 402 158 C 402 153 403 118 403 80 C 404 3 404 6 401 4 C 398 4 396 3 396 3 C 395 3 381 3 365 3 C 345 4 325 4 303 3 C 272 2 270 2 269 4 C 266 6 266 20 266 223 C 266 296 267 368 267 440 C 266 446 265 452 264 458 C 259 486 249 503 232 512 C 231 512 229 515 228 515 C 223 520 198 522 187 518 C 160 512 147 494 144 463 C 142 446 142 451 142 366 C 142 324 142 287 142 283 C 142 279 142 255 142 230 C 142 206 142 176 142 163 C 142 151 142 111 144 75 C 144 54 144 31 145 9 C 144 8 142 7 141 7 C 138 3 133 2 98 3 M 92 530 C 92 532 91 532 91 533 C 91 532 91 532 90 530 C 90 529 90 527 90 524 C 90 524 91 523 91 522 C 91 523 91 524 92 526 C 92 527 92 529 92 530 z" fill="black"/><!-- width=417 height=634 -->
<path id="gl2059" d="M 258 7 C 229 13 195 36 176 66 C 168 77 153 103 153 104 C 153 104 151 108 149 112 C 144 120 141 119 138 110 C 136 104 137 65 138 34 C 139 15 147 18 73 18 C 0 18 6 16 7 36 C 8 56 9 572 8 595 C 7 617 7 622 10 623 C 12 623 42 623 77 624 C 98 624 120 624 142 624 C 142 623 143 622 144 621 C 147 618 147 617 145 581 C 144 560 144 477 144 395 C 144 347 144 297 144 248 C 145 244 147 240 148 236 C 161 188 192 167 255 170 C 283 170 283 170 283 155 C 283 150 283 132 282 116 C 281 96 282 77 282 50 C 284 6 284 7 272 7 C 267 7 261 7 258 7 z" fill="black"/><!-- width=294 height=636 -->
<path id="gl2307" d="M 200 4 C 194 6 192 10 188 26 C 187 33 184 42 183 45 C 183 48 182 54 181 58 C 180 63 178 69 178 72 C 177 74 175 81 174 90 C 169 110 168 121 165 132 C 163 136 162 144 160 148 C 156 170 153 177 152 184 C 151 190 150 195 148 196 C 148 198 147 199 147 201 C 147 202 146 211 144 220 C 141 230 139 241 138 245 C 136 248 135 253 135 255 C 134 260 132 270 126 299 C 123 306 122 313 121 315 C 120 319 118 326 117 333 C 114 350 109 369 106 377 C 104 386 102 397 98 409 C 97 421 93 437 88 453 C 87 458 86 467 85 470 C 84 475 82 481 82 482 C 80 488 78 499 75 512 C 73 524 67 546 61 569 C 60 577 57 588 55 595 C 54 601 52 611 51 617 C 49 623 48 631 46 636 C 45 641 44 648 43 652 C 39 666 37 676 37 679 C 37 680 37 684 36 688 C 33 696 30 713 27 723 C 27 726 26 732 25 733 C 24 736 22 743 21 748 C 20 753 18 761 16 765 C 15 768 14 774 13 778 C 13 780 12 786 9 790 C 6 801 6 813 8 814 C 10 816 154 817 160 815 C 165 814 169 801 174 763 C 176 750 180 727 181 724 C 181 724 182 718 183 710 C 184 704 186 696 187 692 C 189 682 192 661 193 653 C 193 649 194 642 195 637 C 196 631 198 625 198 622 C 198 618 200 614 201 612 C 206 606 210 605 235 606 C 258 607 336 607 355 606 C 381 605 383 605 387 636 C 387 644 390 652 390 653 C 390 653 391 660 392 666 C 393 672 395 680 395 683 C 397 690 399 708 402 720 C 403 725 404 736 407 744 C 409 759 414 781 416 798 C 417 809 420 814 423 816 C 426 816 438 817 465 816 C 486 816 504 815 504 815 C 505 815 520 816 538 816 C 574 817 577 816 578 811 C 580 809 577 795 575 785 C 574 783 572 778 571 775 C 571 772 570 765 568 759 C 566 751 564 743 563 738 C 562 733 560 727 559 724 C 558 716 556 709 551 688 C 550 679 547 671 546 668 C 546 666 545 660 544 655 C 541 646 538 629 535 617 C 534 612 532 604 530 598 C 529 587 527 580 522 560 C 522 557 521 551 520 547 C 518 544 517 538 516 535 C 516 533 514 522 511 512 C 510 503 508 491 505 485 C 504 479 502 468 500 461 C 498 447 496 441 491 419 C 490 410 487 401 486 396 C 485 391 484 384 482 380 C 481 374 480 369 474 343 C 473 338 470 330 469 325 C 468 320 467 314 467 312 C 467 309 465 305 464 302 C 463 299 462 290 459 282 C 457 273 456 265 455 261 C 453 259 452 254 452 251 C 451 246 450 237 447 229 C 446 222 444 212 443 207 C 441 202 440 196 439 194 C 438 188 433 168 431 153 C 429 148 427 138 426 132 C 420 104 414 76 411 66 C 410 62 409 56 408 52 C 408 49 407 42 405 36 C 398 3 398 4 378 4 C 369 4 330 4 289 6 C 248 6 212 6 210 4 C 206 4 201 4 200 4 M 299 114 C 300 117 301 126 301 134 C 301 142 302 150 303 152 C 303 154 305 162 306 170 C 307 193 309 205 314 207 C 317 210 317 213 314 218 C 313 220 312 223 312 224 C 312 229 317 255 318 258 C 319 261 323 284 324 299 C 325 305 326 311 327 313 C 327 315 329 323 330 331 C 331 338 332 349 333 354 C 335 359 336 371 337 379 C 343 415 348 434 351 450 C 354 457 355 470 356 481 C 357 488 357 488 354 492 C 353 493 353 494 351 496 C 339 496 327 496 315 496 C 295 496 270 496 258 497 C 232 497 230 496 228 490 C 225 485 226 473 229 463 C 230 459 231 455 231 451 C 231 447 232 443 234 439 C 237 427 243 397 246 384 C 246 380 247 374 248 371 C 252 355 254 343 255 333 C 257 327 258 320 258 315 C 260 303 264 288 265 273 C 267 265 269 254 271 248 C 272 241 273 231 273 225 C 275 220 276 212 277 207 C 278 204 279 194 279 187 C 279 180 281 169 282 163 C 283 156 284 145 284 139 C 285 127 288 115 290 108 C 291 105 291 104 291 103 C 293 104 294 105 295 106 C 296 108 299 111 299 114 z" fill="black"/><!-- width=590 height=826 -->
<path id="gl2308" d="M 238 9 C 209 16 188 29 171 53 C 167 58 164 62 163 62 C 163 63 161 63 161 63 C 161 65 155 75 153 76 C 146 82 143 77 145 49 C 145 25 145 25 137 23 C 128 21 11 22 9 23 C 7 26 7 28 8 56 C 9 80 9 591 8 618 C 8 631 4 631 55 631 C 77 631 106 631 118 631 C 137 633 141 633 143 630 C 146 628 146 655 146 383 C 145 200 145 199 147 187 C 157 139 179 117 217 119 C 251 122 268 140 273 181 C 275 195 275 545 274 599 C 273 624 274 629 278 631 C 278 631 308 631 345 631 C 405 631 411 630 412 629 C 414 627 414 622 412 574 C 412 552 411 443 411 330 C 411 111 411 117 405 95 C 393 51 358 20 311 9 C 290 5 258 5 238 9 z" fill="black"/><!-- width=423 height=643 -->
<path id="gl2309" d="M 411 8 C 404 8 377 8 351 8 C 296 9 302 7 291 31 C 279 56 278 61 276 66 C 275 70 271 79 269 82 C 267 85 264 94 263 98 C 263 100 261 103 260 105 C 259 108 258 111 253 123 C 252 126 251 130 251 132 C 249 133 247 140 245 146 C 241 159 237 166 234 166 C 232 166 228 159 226 153 C 224 146 213 116 210 106 C 207 102 205 96 204 92 C 202 87 201 84 200 82 C 199 80 190 57 186 44 C 181 30 172 13 170 10 C 169 9 148 9 92 8 C 16 8 14 8 13 10 C 10 14 13 20 27 49 C 31 55 37 66 39 70 C 42 75 45 82 46 85 C 48 86 51 92 54 98 C 67 123 79 145 81 152 C 84 156 86 160 87 163 C 103 193 120 226 122 230 C 123 232 124 236 124 237 C 126 238 128 243 132 248 C 134 253 138 259 139 261 C 140 264 142 267 142 270 C 142 271 144 272 145 273 C 146 275 151 283 156 295 C 163 307 162 313 145 342 C 141 348 138 353 138 353 C 138 353 135 359 132 366 C 118 390 115 396 91 441 C 81 462 81 461 75 475 C 72 481 66 493 62 500 C 58 508 54 516 52 520 C 50 523 46 530 44 536 C 40 542 34 554 30 563 C 25 572 18 584 14 590 C 0 616 0 618 15 619 C 19 619 42 619 66 618 C 90 618 117 618 127 618 C 148 619 157 619 160 614 C 164 612 170 596 176 582 C 177 577 181 568 183 563 C 186 558 188 553 188 552 C 188 552 189 548 190 545 C 192 541 193 538 193 538 C 193 536 195 533 198 528 C 199 523 202 514 205 508 C 207 502 210 492 212 487 C 213 482 216 476 217 473 C 218 469 219 465 220 465 C 220 464 220 462 222 459 C 223 455 228 439 229 438 C 234 435 236 439 241 457 C 247 476 249 482 254 496 C 259 508 260 511 265 523 C 267 526 267 529 267 529 C 267 530 270 535 272 540 C 275 545 277 550 277 552 C 277 554 279 560 282 565 C 284 570 287 575 287 576 C 287 576 288 580 289 583 C 290 587 294 594 296 601 C 297 607 301 613 302 614 C 303 616 305 617 306 618 C 330 618 355 618 379 618 C 461 619 458 619 457 611 C 456 607 446 588 427 552 C 417 532 374 445 374 444 C 374 443 356 407 355 403 C 354 402 336 368 331 360 C 326 350 321 342 321 341 C 319 338 308 315 306 309 C 305 303 306 296 311 289 C 311 288 319 271 337 236 C 356 199 368 176 372 170 C 373 168 374 165 374 165 C 374 164 377 160 379 156 C 381 152 385 145 387 141 C 389 136 391 132 391 132 C 392 130 396 123 399 116 C 410 94 419 80 426 66 C 431 58 433 52 433 52 C 433 52 438 44 444 34 C 452 19 455 10 452 8 C 450 7 426 7 411 8 z" fill="black"/><!-- width=465 height=629 -->
<path id="gl2310" d="M 10 6 C 8 8 8 12 8 66 C 8 97 8 123 9 123 C 9 128 13 128 61 128 C 86 128 114 128 121 129 C 136 130 140 130 144 127 C 146 124 146 10 144 7 C 142 6 142 4 141 4 C 120 4 98 4 76 4 C 16 4 12 4 10 6 M 61 205 C 10 206 9 206 8 213 C 7 217 9 271 10 278 C 12 280 12 285 10 289 C 10 291 10 319 10 351 C 10 403 10 548 9 634 C 9 654 10 674 10 680 C 10 686 10 693 9 697 C 9 700 9 714 10 724 C 10 738 10 750 9 756 C 9 760 9 772 8 782 C 8 787 8 793 8 798 C 31 798 52 798 75 799 C 118 799 142 799 145 798 C 148 796 148 796 147 790 C 145 768 145 706 145 501 C 145 378 145 270 145 261 C 145 253 146 238 146 229 C 146 217 146 211 146 208 C 144 205 147 205 61 205 z" fill="black"/><!-- width=159 height=807 -->
<path id="gl2058" d="M 195 8 C 138 10 100 25 65 55 C 24 91 6 153 8 241 C 8 254 8 301 8 344 C 9 464 12 490 32 545 C 34 552 41 560 48 572 C 77 615 123 636 195 642 C 255 647 303 640 338 621 C 370 604 394 575 406 541 C 419 504 428 435 420 426 C 418 423 288 423 285 426 C 284 428 284 436 283 451 C 281 518 261 543 213 541 C 184 540 165 529 155 507 C 145 487 144 471 143 407 C 143 390 143 375 143 358 C 144 356 145 355 147 354 C 150 350 150 350 162 350 C 170 350 231 352 297 352 C 338 353 379 353 420 353 C 422 353 422 352 423 350 C 425 348 425 346 424 309 C 422 177 418 143 405 107 C 378 36 307 2 195 8 M 247 112 C 266 118 277 130 283 151 C 288 171 290 233 285 242 C 282 249 282 249 214 249 C 192 249 172 249 150 249 C 149 248 148 247 147 246 C 145 244 144 244 143 243 C 143 236 143 227 143 220 C 142 149 153 121 186 112 C 197 108 233 108 247 112 z" fill="black"/><!-- width=435 height=656 -->
<path id="gl2311" d="M 68 6 C 60 8 60 7 61 58 C 61 84 62 114 63 123 C 66 163 64 175 58 177 C 57 177 46 177 34 177 C 16 176 13 177 10 178 C 7 181 7 271 9 273 C 10 273 22 275 36 275 C 68 275 66 271 64 318 C 63 389 63 703 66 714 C 69 733 75 747 86 759 C 88 761 91 763 91 763 C 92 767 108 777 118 781 C 140 791 181 795 231 791 C 257 789 258 789 260 784 C 263 779 261 686 259 682 C 259 680 255 680 240 679 C 224 679 219 679 217 677 C 214 676 212 674 212 674 C 208 674 202 665 202 660 C 202 658 201 576 201 479 C 201 380 200 299 200 295 C 199 288 201 278 204 276 C 207 273 207 273 234 275 C 249 275 258 275 258 275 C 260 272 261 181 259 178 C 258 175 241 175 225 176 C 201 180 199 177 200 147 C 200 138 201 117 201 104 C 201 90 202 62 202 44 C 202 32 204 21 204 10 C 202 9 201 9 200 8 C 198 6 194 6 175 7 C 142 7 91 7 81 6 C 75 6 69 6 68 6 z" fill="black"/><!-- width=273 height=802 -->
<path id="gl2060" d="M 65 7 C 6 8 6 8 6 14 C 6 16 6 20 16 60 C 29 99 32 117 44 168 C 48 186 52 200 64 254 C 83 336 87 350 101 409 C 108 439 118 479 123 497 C 128 515 133 537 135 546 C 160 644 163 657 163 678 C 163 695 160 701 151 707 C 141 715 136 715 94 712 C 77 711 78 706 78 765 C 78 816 79 820 85 821 C 107 826 162 826 179 822 C 185 821 191 820 193 820 C 211 818 233 805 248 791 C 269 769 280 744 296 680 C 312 614 318 594 323 571 C 326 557 331 537 333 525 C 338 503 344 480 348 464 C 350 453 358 424 363 405 C 372 361 382 321 387 298 C 390 284 395 265 398 256 C 399 248 406 217 413 188 C 419 160 427 133 428 127 C 433 105 446 54 448 44 C 454 25 457 12 454 9 C 453 8 453 7 453 7 C 430 7 407 7 386 7 C 320 7 318 7 317 9 C 314 13 313 16 307 54 C 304 66 302 82 290 146 C 277 222 275 232 272 255 C 267 284 257 341 255 353 C 252 366 250 382 245 410 C 238 468 237 474 232 474 C 231 474 229 473 228 468 C 226 459 226 458 221 418 C 214 367 203 303 191 233 C 188 223 186 208 185 199 C 181 176 166 98 164 87 C 163 82 160 65 157 48 C 151 6 151 6 131 7 C 125 7 95 7 65 7 z" fill="black"/><!-- width=465 height=837 -->
<path id="gl2312" d="M 4 2 C 2 3 3 14 4 16 C 6 18 22 18 91 16 C 103 16 117 16 123 18 C 138 19 140 18 142 9 C 144 4 144 3 141 3 C 139 1 7 1 4 2 z" fill="black"/><!-- width=153 height=28 -->
<path id="gl2055" d="M 187 8 C 74 15 26 56 12 152 C 6 191 6 197 13 199 C 20 201 134 200 137 198 C 139 195 140 193 140 178 C 143 143 151 128 171 117 C 182 111 187 111 210 110 C 258 107 276 116 282 147 C 287 171 282 194 267 211 C 252 228 235 236 184 257 C 175 261 165 265 162 267 C 158 268 151 272 146 273 C 125 281 88 303 74 313 C 30 349 10 389 7 452 C 6 472 8 509 12 522 C 13 527 14 536 16 542 C 27 591 53 620 95 634 C 132 646 186 648 207 635 C 209 635 212 634 215 632 C 238 622 250 610 268 587 C 281 571 286 568 290 571 C 292 574 292 576 292 591 C 292 610 295 620 299 625 C 303 628 302 628 327 628 C 337 627 361 628 383 628 C 429 631 428 631 428 621 C 429 617 428 611 426 609 C 424 602 419 571 418 559 C 418 554 417 458 417 344 C 417 122 417 126 409 105 C 391 44 334 12 243 7 C 214 6 206 6 187 8 M 276 311 C 282 314 282 317 281 359 C 280 431 279 438 278 455 C 274 515 247 544 200 540 C 174 539 158 529 148 507 C 141 492 139 464 142 437 C 146 403 154 390 184 369 C 189 366 197 361 201 357 C 214 349 234 333 236 332 C 238 331 240 330 241 328 C 244 326 269 310 273 310 C 273 310 274 310 276 311 z" fill="black"/><!-- width=440 height=656 -->
<path id="gl2308" d="M 238 9 C 209 16 188 29 171 53 C 167 58 164 62 163 62 C 163 63 161 63 161 63 C 161 65 155 75 153 76 C 146 82 143 77 145 49 C 145 25 145 25 137 23 C 128 21 11 22 9 23 C 7 26 7 28 8 56 C 9 80 9 591 8 618 C 8 631 4 631 55 631 C 77 631 106 631 118 631 C 137 633 141 633 143 630 C 146 628 146 655 146 383 C 145 200 145 199 147 187 C 157 139 179 117 217 119 C 251 122 268 140 273 181 C 275 195 275 545 274 599 C 273 624 274 629 278 631 C 278 631 308 631 345 631 C 405 631 411 630 412 629 C 414 627 414 622 412 574 C 412 552 411 443 411 330 C 411 111 411 117 405 95 C 393 51 358 20 311 9 C 290 5 258 5 238 9 z" fill="black"/><!-- width=423 height=643 -->
<path id="gl2313" d="M 273 7 C 271 8 271 8 272 96 C 272 145 273 184 273 186 C 273 186 275 201 275 219 C 275 237 276 253 276 253 C 276 253 276 255 275 258 C 273 260 273 260 271 259 C 267 258 255 245 255 242 C 255 241 253 238 249 235 C 225 207 211 199 181 193 C 166 190 142 190 130 193 C 127 193 120 194 115 195 C 85 200 62 213 44 237 C 38 247 26 267 26 271 C 26 271 26 273 25 276 C 22 279 20 291 18 301 C 18 305 16 309 15 312 C 14 314 13 320 13 326 C 13 331 12 339 10 345 C 7 365 6 407 7 527 C 8 674 8 683 20 725 C 21 729 22 733 22 735 C 22 737 24 741 25 743 C 26 745 27 750 30 754 C 40 780 52 796 74 813 C 79 815 82 817 84 817 C 84 817 86 819 88 820 C 97 823 102 826 111 828 C 134 835 177 833 195 825 C 198 823 200 822 202 822 C 205 822 207 820 208 819 C 211 817 213 816 214 816 C 216 816 217 816 217 816 C 217 815 218 814 219 813 C 224 811 234 803 242 793 C 251 783 253 780 260 766 C 264 759 267 756 271 757 C 275 759 276 765 273 789 C 273 796 273 803 272 810 C 273 811 275 811 276 813 C 277 814 278 815 279 816 C 300 816 321 816 343 816 C 365 816 386 816 408 816 C 409 816 409 814 409 814 C 411 809 411 805 410 727 C 408 672 409 108 410 26 C 410 12 410 9 408 8 C 407 6 402 6 341 6 C 306 6 275 6 273 7 M 228 297 C 241 302 251 313 258 327 C 261 332 263 337 263 338 C 263 339 264 342 266 344 C 267 347 269 350 269 353 C 269 355 269 359 270 362 C 272 367 272 377 272 509 C 272 659 272 650 266 677 C 261 698 242 720 222 726 C 210 730 190 729 181 724 C 171 719 162 708 158 698 C 156 694 153 689 152 688 C 152 686 151 685 151 684 C 151 683 151 680 151 680 C 148 678 145 655 144 640 C 141 620 140 422 141 399 C 142 390 144 374 145 363 C 145 354 146 343 147 341 C 147 339 148 335 150 331 C 154 314 166 302 184 296 C 194 294 219 294 228 297 z" fill="black"/><!-- width=422 height=845 -->
<path id="gl2560" d="M 368 6 C 363 7 361 13 359 27 C 357 40 355 57 351 70 C 350 75 349 82 349 85 C 349 88 349 96 348 100 C 347 105 345 114 344 120 C 344 124 343 132 342 135 C 341 140 339 151 338 159 C 336 168 335 180 333 184 C 332 190 331 200 330 206 C 327 224 324 246 319 267 C 318 273 317 284 315 293 C 313 300 312 313 309 320 C 308 327 307 338 306 344 C 306 349 305 356 303 360 C 302 363 301 368 301 371 C 301 373 301 378 300 383 C 294 413 284 480 282 504 C 282 512 281 522 281 526 C 279 530 278 542 277 553 C 276 564 275 575 275 576 C 273 578 272 589 272 599 C 271 610 270 620 270 622 C 269 624 269 631 269 636 C 269 641 267 650 266 656 C 265 664 264 672 263 678 C 263 691 260 697 257 697 C 253 697 252 692 251 680 C 251 677 249 672 248 670 C 248 667 247 658 246 647 C 246 635 245 619 243 611 C 242 604 241 590 240 582 C 240 574 238 562 237 554 C 236 548 235 539 235 535 C 235 532 235 523 234 518 C 232 512 231 504 231 499 C 231 494 230 486 229 480 C 228 475 226 467 226 459 C 224 438 220 414 220 410 C 219 408 218 402 218 396 C 217 390 216 380 214 374 C 213 365 211 347 207 326 C 207 321 206 313 205 308 C 204 303 202 297 202 294 C 202 290 201 283 200 277 C 199 271 198 263 196 258 C 196 252 195 243 194 236 C 193 230 192 218 189 208 C 188 199 187 187 186 181 C 184 175 183 166 182 162 C 182 153 180 142 176 117 C 175 111 174 103 174 99 C 174 94 171 86 170 81 C 169 75 169 67 169 63 C 169 60 168 54 166 52 C 166 50 165 43 165 36 C 164 21 160 8 158 7 C 154 4 10 6 8 7 C 6 9 6 18 10 33 C 12 39 13 45 13 46 C 13 49 14 52 15 57 C 19 68 21 79 22 87 C 22 91 24 94 25 97 C 26 99 27 105 28 111 C 28 116 30 123 30 126 C 31 127 32 133 32 139 C 34 151 37 168 39 178 C 40 183 42 190 42 193 C 42 196 44 205 45 212 C 46 218 48 229 50 237 C 51 246 52 254 54 258 C 54 260 55 267 56 273 C 57 285 61 300 63 312 C 64 315 66 323 66 327 C 67 331 69 343 70 354 C 78 385 79 396 82 415 C 84 425 86 437 87 441 C 90 450 91 456 94 475 C 98 496 99 508 102 516 C 104 526 105 534 108 548 C 109 554 110 564 112 570 C 116 589 120 607 121 614 C 122 618 123 625 123 630 C 123 634 124 640 126 643 C 127 646 128 650 128 653 C 129 660 133 679 135 689 C 136 694 136 698 141 724 C 142 730 144 737 145 741 C 145 743 146 750 147 756 C 151 777 154 802 157 811 C 158 816 162 817 202 816 C 224 815 248 815 259 816 C 269 816 289 816 306 816 C 315 816 326 816 336 816 C 337 814 338 811 339 810 C 342 805 342 802 342 798 C 342 795 343 787 344 780 C 349 751 351 738 353 729 C 354 723 355 713 356 708 C 356 702 357 694 359 689 C 360 680 362 665 366 647 C 366 643 367 636 368 631 C 369 626 371 616 373 607 C 374 598 375 587 377 582 C 378 576 379 568 380 563 C 380 557 381 548 383 544 C 385 533 387 512 390 498 C 390 493 391 486 391 484 C 393 475 398 446 399 427 C 401 417 402 407 402 404 C 403 402 404 391 404 381 C 405 372 407 363 407 362 C 408 361 408 351 409 339 C 410 327 411 313 413 308 C 414 303 415 293 416 284 C 420 257 421 254 425 253 C 429 252 434 269 435 290 C 435 297 437 306 438 308 C 438 309 439 319 440 329 C 440 338 441 351 443 357 C 444 365 445 377 446 383 C 447 399 455 451 458 476 C 461 488 462 502 464 517 C 465 524 467 530 467 532 C 468 534 469 538 469 541 C 470 550 474 572 476 580 C 476 583 477 590 479 595 C 480 600 481 607 481 611 C 485 628 490 649 490 653 C 490 655 490 659 491 660 C 491 662 492 667 493 673 C 496 684 498 700 500 712 C 502 716 503 724 504 727 C 505 737 511 768 512 779 C 514 784 515 793 516 799 C 518 816 520 816 541 816 C 574 815 625 815 660 816 C 672 816 683 816 694 817 C 695 816 696 815 698 814 C 701 810 702 809 703 803 C 703 797 707 779 709 763 C 710 759 712 750 712 747 C 713 741 714 732 719 710 C 720 706 721 701 721 698 C 721 696 721 690 723 686 C 724 683 725 673 726 667 C 729 652 732 635 737 608 C 738 604 739 595 741 592 C 741 588 742 581 743 577 C 745 568 748 551 750 538 C 753 523 756 499 757 498 C 757 497 759 492 759 486 C 760 481 761 474 762 469 C 763 464 765 453 767 445 C 768 438 769 427 771 422 C 772 419 773 410 774 404 C 775 398 777 391 777 389 C 778 386 779 377 781 369 C 784 355 785 343 790 319 C 791 313 793 302 795 296 C 796 289 797 277 799 271 C 803 248 807 230 807 223 C 808 218 809 211 810 206 C 811 201 813 195 813 192 C 813 188 814 183 815 180 C 816 176 817 170 817 165 C 817 162 819 154 820 151 C 821 146 822 135 823 127 C 827 106 833 78 837 62 C 839 55 840 45 841 42 C 841 38 843 32 844 28 C 846 21 847 7 845 6 C 844 4 810 4 769 4 C 744 4 720 4 696 4 C 695 6 694 7 694 8 C 691 10 690 15 689 24 C 689 30 688 39 686 45 C 686 50 685 57 685 62 C 685 67 684 75 683 80 C 682 90 679 106 676 133 C 674 141 673 151 673 156 C 671 165 668 188 666 211 C 665 220 664 229 664 231 C 662 234 661 240 661 245 C 661 249 659 264 656 277 C 655 289 653 307 652 317 C 650 326 649 335 649 335 C 649 336 648 344 647 354 C 646 365 644 373 644 373 C 644 374 643 383 642 391 C 641 401 640 411 640 415 C 638 419 637 429 636 439 C 635 449 634 459 632 464 C 632 470 631 477 631 482 C 631 487 630 493 629 494 C 629 496 628 500 628 505 C 628 509 628 517 626 524 C 625 530 624 542 623 552 C 623 562 622 574 620 580 C 619 586 619 594 619 599 C 619 605 618 617 617 628 C 616 638 613 654 613 662 C 611 679 610 691 606 698 C 604 707 598 692 596 672 C 596 666 595 660 594 660 C 594 659 593 654 593 649 C 593 643 592 632 592 623 C 590 613 589 605 589 604 C 589 604 588 594 587 582 C 586 571 584 559 584 556 C 583 552 582 542 582 535 C 581 529 580 520 580 516 C 578 512 577 503 577 496 C 575 476 572 452 570 441 C 569 435 568 428 568 425 C 568 421 566 414 564 408 C 563 403 563 397 563 396 C 563 393 562 387 560 381 C 557 368 556 359 553 345 C 552 341 551 332 550 329 C 548 324 548 319 548 317 C 548 315 547 311 546 307 C 545 303 544 296 544 293 C 542 289 541 279 539 273 C 538 266 536 254 535 248 C 530 228 528 216 527 211 C 527 208 524 200 523 193 C 522 186 521 177 520 174 C 517 154 515 147 514 139 C 512 134 511 124 510 117 C 509 111 508 105 508 103 C 506 100 505 97 505 93 C 505 90 504 84 503 80 C 502 75 500 69 500 64 C 498 51 496 34 493 26 C 492 21 491 15 491 13 C 490 4 491 4 428 4 C 397 4 371 4 368 6 z" fill="black"/><!-- width=855 height=826 -->
<path id="gl2305" d="M 192 9 C 172 10 135 16 126 20 C 124 21 118 22 115 23 C 85 35 55 63 40 89 C 23 122 15 172 10 249 C 9 282 9 401 11 427 C 15 497 28 553 46 578 C 49 581 52 587 55 590 C 70 613 98 628 132 637 C 140 638 148 640 150 642 C 166 645 249 646 277 643 C 329 636 361 619 384 589 C 416 546 427 485 427 342 C 426 183 419 125 391 81 C 360 27 291 2 192 9 M 236 111 C 265 116 281 131 288 167 C 292 184 292 478 288 494 C 281 531 257 546 207 541 C 165 539 148 521 146 473 C 143 452 143 202 146 185 C 148 156 153 142 165 130 C 176 119 183 116 204 111 C 209 110 227 111 236 111 z" fill="black"/><!-- width=442 height=658 -->
<path id="gl2059" d="M 258 7 C 229 13 195 36 176 66 C 168 77 153 103 153 104 C 153 104 151 108 149 112 C 144 120 141 119 138 110 C 136 104 137 65 138 34 C 139 15 147 18 73 18 C 0 18 6 16 7 36 C 8 56 9 572 8 595 C 7 617 7 622 10 623 C 12 623 42 623 77 624 C 98 624 120 624 142 624 C 142 623 143 622 144 621 C 147 618 147 617 145 581 C 144 560 144 477 144 395 C 144 347 144 297 144 248 C 145 244 147 240 148 236 C 161 188 192 167 255 170 C 283 170 283 170 283 155 C 283 150 283 132 282 116 C 281 96 282 77 282 50 C 284 6 284 7 272 7 C 267 7 261 7 258 7 z" fill="black"/><!-- width=294 height=636 -->
<path id="gl2059" d="M 258 7 C 229 13 195 36 176 66 C 168 77 153 103 153 104 C 153 104 151 108 149 112 C 144 120 141 119 138 110 C 136 104 137 65 138 34 C 139 15 147 18 73 18 C 0 18 6 16 7 36 C 8 56 9 572 8 595 C 7 617 7 622 10 623 C 12 623 42 623 77 624 C 98 624 120 624 142 624 C 142 623 143 622 144 621 C 147 618 147 617 145 581 C 144 560 144 477 144 395 C 144 347 144 297 144 248 C 145 244 147 240 148 236 C 161 188 192 167 255 170 C 283 170 283 170 283 155 C 283 150 283 132 282 116 C 281 96 282 77 282 50 C 284 6 284 7 272 7 C 267 7 261 7 258 7 z" fill="black"/><!-- width=294 height=636 -->
<path id="gl2060" d="M 65 7 C 6 8 6 8 6 14 C 6 16 6 20 16 60 C 29 99 32 117 44 168 C 48 186 52 200 64 254 C 83 336 87 350 101 409 C 108 439 118 479 123 497 C 128 515 133 537 135 546 C 160 644 163 657 163 678 C 163 695 160 701 151 707 C 141 715 136 715 94 712 C 77 711 78 706 78 765 C 78 816 79 820 85 821 C 107 826 162 826 179 822 C 185 821 191 820 193 820 C 211 818 233 805 248 791 C 269 769 280 744 296 680 C 312 614 318 594 323 571 C 326 557 331 537 333 525 C 338 503 344 480 348 464 C 350 453 358 424 363 405 C 372 361 382 321 387 298 C 390 284 395 265 398 256 C 399 248 406 217 413 188 C 419 160 427 133 428 127 C 433 105 446 54 448 44 C 454 25 457 12 454 9 C 453 8 453 7 453 7 C 430 7 407 7 386 7 C 320 7 318 7 317 9 C 314 13 313 16 307 54 C 304 66 302 82 290 146 C 277 222 275 232 272 255 C 267 284 257 341 255 353 C 252 366 250 382 245 410 C 238 468 237 474 232 474 C 231 474 229 473 228 468 C 226 459 226 458 221 418 C 214 367 203 303 191 233 C 188 223 186 208 185 199 C 181 176 166 98 164 87 C 163 82 160 65 157 48 C 151 6 151 6 131 7 C 125 7 95 7 65 7 z" fill="black"/><!-- width=465 height=837 -->
</defs>
<use xlink:href="#gl2054" x="58" y="5"/>
<use xlink:href="#gl2055" x="844" y="187"/>
<use xlink:href="#gl2056" x="1340" y="187"/>
<use xlink:href="#gl2057" x="1771" y="38"/>
<use xlink:href="#gl2058" x="2087" y="186"/>
<use xlink:href="#gl2059" x="2605" y="190"/>
<use xlink:href="#gl2060" x="2911" y="199"/>
<use xlink:href="#gl2061" x="3653" y="187"/>
<use xlink:href="#gl2062" x="4128" y="0"/>
<use xlink:href="#gl2304" x="4637" y="0"/>
<use xlink:href="#gl2305" x="5185" y="182"/>
<use xlink:href="#gl2306" x="5703" y="202"/>
<use xlink:href="#gl2059" x="6214" y="187"/>
<use xlink:href="#gl2307" x="0" y="1200"/>
<use xlink:href="#gl2308" x="624" y="1384"/>
<use xlink:href="#gl2309" x="1085" y="1397"/>
<use xlink:href="#gl2310" x="1599" y="1200"/>
<use xlink:href="#gl2058" x="1850" y="1384"/>
<use xlink:href="#gl2311" x="2319" y="1229"/>
<use xlink:href="#gl2060" x="2601" y="1397"/>
<use xlink:href="#gl2312" x="1603" y="1997"/>
<use xlink:href="#gl2055" x="3332" y="1382"/>
<use xlink:href="#gl2308" x="3860" y="1381"/>
<use xlink:href="#gl2313" x="4364" y="1195"/>
<use xlink:href="#gl2560" x="5083" y="1195"/>
<use xlink:href="#gl2305" x="5961" y="1378"/>
<use xlink:href="#gl2059" x="6480" y="1383"/>
<use xlink:href="#gl2059" x="6810" y="1383"/>
<use xlink:href="#gl2060" x="7104" y="1394"/>
</svg>