<svg xmlns="http://www.w3.org/2000/svg" xmlns:xlink="http://www.w3.org/1999/xlink" width="807px" height="41px" viewBox="0 0 8072 418" version="1.1">
<defs>
<path id="gl1280" d="M 180 7 C 176 8 174 15 171 28 C 170 34 169 40 169 42 C 168 43 166 50 165 56 C 164 62 163 73 162 79 C 159 85 158 94 157 100 C 156 106 154 112 154 112 C 153 115 150 138 147 157 C 146 163 145 171 145 174 C 144 177 142 183 141 187 C 140 193 140 194 136 194 C 134 195 133 194 132 188 C 130 184 129 180 128 176 C 127 174 126 168 124 163 C 118 121 116 109 108 75 C 106 68 104 57 103 50 C 102 44 100 34 99 31 C 98 27 97 21 97 19 C 94 6 86 4 45 9 C 40 10 32 10 26 10 C 20 12 13 12 12 13 C 10 13 9 13 8 14 C 9 54 9 93 9 134 C 10 271 10 275 9 289 C 9 306 10 307 27 307 C 34 307 44 307 49 308 C 67 312 67 311 64 271 C 63 254 62 220 62 196 C 62 172 61 148 61 144 C 58 108 58 63 61 61 C 63 57 68 66 69 78 C 70 82 73 91 73 96 C 75 103 78 114 81 130 C 82 133 84 139 85 144 C 86 150 87 154 87 157 C 88 159 90 165 90 169 C 90 174 92 181 93 186 C 97 200 98 206 100 214 C 102 219 104 229 105 235 C 109 252 114 271 114 275 C 114 282 118 302 121 303 C 124 307 132 307 140 307 C 151 306 154 303 156 293 C 158 284 163 261 165 249 C 166 245 168 236 169 231 C 170 226 171 220 171 218 C 172 216 174 212 174 207 C 174 204 175 200 176 199 C 177 198 178 193 178 190 C 178 184 181 176 186 153 C 187 150 189 136 190 126 C 198 87 205 66 208 66 C 212 66 213 72 212 87 C 212 94 211 114 211 132 C 211 150 210 172 210 182 C 210 192 208 219 208 245 C 208 269 207 293 207 296 C 207 303 210 307 214 307 C 249 306 259 306 261 303 C 264 300 264 308 263 224 C 261 159 261 63 263 33 C 264 18 263 15 261 13 C 260 12 260 10 259 9 C 252 9 245 10 237 10 C 218 10 205 9 201 7 C 200 6 182 6 180 7 z" fill="black"/><!-- width=273 height=321 -->
<path id="gl1281" d="M 54 8 C 51 8 49 9 49 9 C 49 10 46 12 43 12 C 37 12 34 13 24 24 C 18 30 14 34 13 38 C 12 42 10 44 9 45 C 9 45 8 51 7 58 C 4 69 4 70 7 74 C 9 79 8 78 28 81 C 33 82 38 82 42 84 C 44 82 45 81 46 81 C 51 78 52 75 54 68 C 56 51 62 45 76 44 C 100 42 112 56 105 78 C 100 91 84 102 61 106 C 52 109 46 111 45 112 C 45 114 42 116 38 117 C 19 128 9 146 4 172 C 3 180 8 206 12 216 C 16 228 28 240 40 242 C 54 246 61 247 67 245 C 69 243 75 240 79 238 C 84 236 91 232 94 229 C 103 220 106 220 110 226 C 114 236 114 236 129 236 C 136 237 144 238 145 238 C 145 238 147 240 150 241 C 159 242 160 236 157 212 C 156 207 156 178 156 148 C 154 117 154 81 154 69 C 154 62 154 54 154 46 C 152 43 151 39 148 37 C 145 27 142 26 138 24 C 135 21 130 19 128 18 C 117 12 108 9 84 9 C 72 8 60 8 58 7 C 58 7 56 7 54 8 M 100 124 C 105 124 108 133 106 144 C 106 150 105 162 105 172 C 104 189 104 190 99 198 C 93 207 75 212 66 206 C 56 200 54 195 54 178 C 54 162 55 157 63 147 C 68 141 94 123 97 124 C 98 124 99 124 100 124 z" fill="black"/><!-- width=168 height=259 -->
<path id="gl1282" d="M 68 4 C 62 4 52 6 49 7 C 45 8 42 8 39 8 C 2 9 -3 73 27 115 C 30 118 33 121 40 124 C 45 127 55 132 61 136 C 66 140 75 146 80 150 C 97 159 103 166 104 177 C 106 196 88 208 69 201 C 60 198 56 192 55 178 C 54 165 51 162 46 163 C 46 163 39 163 32 160 C 18 158 12 159 7 162 C -1 168 15 220 30 228 C 52 238 111 238 130 228 C 145 220 148 216 151 196 C 154 172 153 154 145 142 C 135 129 128 122 120 117 C 108 111 94 104 93 102 C 92 100 91 100 90 100 C 90 100 87 98 84 96 C 81 93 75 90 72 87 C 63 81 57 72 55 63 C 52 48 67 34 84 38 C 96 40 102 48 104 63 C 105 74 106 75 127 79 C 150 82 154 78 152 55 C 150 37 140 16 132 14 C 130 13 128 12 126 10 C 118 6 92 2 68 4 z" fill="black"/><!-- width=163 height=249 -->
<path id="gl1283" d="M 28 6 C 25 8 25 9 26 28 C 28 64 28 64 15 66 C 8 67 7 68 7 82 C 6 96 7 98 16 99 C 30 102 28 94 28 187 C 28 213 28 240 28 266 C 30 269 32 271 33 273 C 40 287 54 291 80 291 C 100 291 103 289 102 267 C 100 255 99 255 92 253 C 76 251 78 254 78 172 C 78 150 78 128 76 105 C 78 104 79 103 80 102 C 81 99 84 98 90 98 C 99 97 99 97 99 82 C 99 67 99 66 90 66 C 76 64 78 66 78 34 C 78 0 80 3 52 3 C 32 3 31 3 28 6 z" fill="black"/><!-- width=112 height=302 -->
<path id="gl1284" d="M 40 12 C 37 15 32 19 30 21 C 22 26 14 40 12 51 C 12 55 10 58 9 60 C 9 61 9 82 9 118 C 9 183 10 189 19 206 C 28 226 30 229 44 235 C 48 236 50 237 54 240 C 62 240 70 240 80 240 C 109 241 118 238 130 231 C 133 230 136 228 139 226 C 147 223 157 210 159 196 C 164 164 163 159 144 163 C 139 163 132 163 127 163 C 112 163 111 165 109 182 C 108 201 102 206 84 205 C 66 205 58 196 56 172 C 55 148 55 144 60 139 C 61 138 62 135 63 134 C 76 134 90 134 103 134 C 133 135 142 135 145 136 C 151 139 154 139 158 135 C 163 132 163 104 158 57 C 158 54 157 48 154 44 C 153 40 151 34 151 32 C 150 27 140 19 136 19 C 135 19 133 18 130 16 C 118 9 108 8 63 6 C 57 6 52 6 48 6 C 45 7 43 9 40 12 M 91 42 C 104 46 108 50 111 66 C 115 84 114 92 106 97 C 103 99 67 99 63 97 C 52 90 52 60 62 49 C 69 40 80 38 91 42 z" fill="black"/><!-- width=172 height=249 -->
<path id="gl1285" d="M 110 4 C 97 8 94 10 88 15 C 84 18 79 24 76 27 C 66 43 60 42 60 25 C 60 21 60 18 60 15 C 58 14 58 13 57 10 C 54 10 49 10 44 10 C 36 10 30 10 27 9 C 25 8 21 8 19 8 C 12 9 10 12 12 32 C 12 40 13 90 13 141 C 13 171 13 202 13 234 C 14 235 15 235 16 236 C 19 238 21 238 28 236 C 31 235 38 235 46 235 C 63 235 64 234 63 218 C 63 211 63 180 63 147 C 63 128 63 109 63 90 C 64 87 66 85 67 82 C 74 67 96 58 108 67 C 110 69 115 68 116 64 C 116 62 116 10 116 6 C 116 3 112 3 110 4 z" fill="black"/><!-- width=129 height=249 -->
<path id="gl1286" d="M 156 6 C 156 6 153 6 148 6 C 145 6 142 6 141 7 C 140 8 136 8 133 8 C 120 8 116 12 114 26 C 114 27 112 36 111 43 C 109 63 108 70 106 79 C 105 82 104 94 102 105 C 100 116 99 128 99 130 C 99 133 98 139 97 141 C 96 145 94 152 93 156 C 92 162 90 168 87 168 C 85 168 81 156 79 141 C 75 122 74 116 73 108 C 72 104 70 97 69 91 C 68 84 67 74 64 67 C 63 61 62 52 62 49 C 61 46 60 38 60 31 C 56 6 56 4 44 6 C 18 8 4 12 4 15 C 4 16 6 21 7 27 C 12 39 15 52 18 66 C 21 85 27 115 30 121 C 30 123 31 128 31 133 C 32 136 33 145 34 151 C 37 158 38 166 39 170 C 39 174 40 178 42 180 C 44 183 49 202 52 223 C 54 228 56 235 57 238 C 61 248 62 262 58 266 C 55 268 49 271 40 270 C 38 270 36 270 33 268 C 32 270 32 272 31 273 C 28 280 27 304 30 309 C 34 316 46 316 67 310 C 94 302 104 288 111 249 C 115 236 117 224 123 204 C 124 201 126 196 126 194 C 127 189 130 174 133 165 C 134 162 135 157 135 154 C 135 152 136 148 138 146 C 140 141 144 127 146 116 C 150 94 151 90 152 87 C 153 85 154 80 154 76 C 154 72 156 67 157 66 C 157 63 158 58 159 54 C 159 50 162 40 164 33 C 170 12 170 10 163 6 C 159 3 157 3 156 6 z" fill="black"/><!-- width=178 height=327 -->
<path id="gl1287" d="M 67 7 C 65 7 62 8 56 9 C 35 14 21 25 15 42 C 6 69 6 179 15 206 C 26 235 57 247 103 240 C 136 235 149 224 156 191 C 158 180 160 109 158 84 C 153 32 141 15 103 8 C 95 7 70 6 67 7 M 100 46 C 111 54 112 62 112 135 C 112 179 111 190 109 194 C 101 213 63 211 57 190 C 56 184 54 70 56 63 C 59 48 69 41 85 42 C 95 42 96 42 100 46 z" fill="black"/><!-- width=172 height=255 -->
<path id="gl1288" d="M 58 9 C 57 10 55 10 52 10 C 48 10 38 15 37 19 C 37 20 36 21 34 22 C 32 24 32 26 32 27 C 32 28 31 33 28 37 C 27 43 26 48 26 61 C 25 81 24 84 14 85 C 8 86 6 88 7 97 C 7 111 8 116 14 117 C 20 118 24 121 25 123 C 26 126 26 141 27 232 C 27 309 27 307 34 310 C 42 314 70 310 75 306 C 78 303 78 302 76 284 C 76 273 75 238 75 206 C 75 174 74 142 74 136 C 74 133 74 129 73 126 C 74 124 75 122 76 121 C 80 117 81 117 87 116 C 97 116 98 114 97 99 C 97 86 97 85 86 85 C 76 84 73 80 73 68 C 73 52 78 46 87 46 C 97 46 98 45 98 28 C 98 24 98 19 98 14 C 97 13 94 13 93 12 C 92 10 87 9 80 10 C 75 10 68 9 66 9 C 61 7 61 7 58 9 z" fill="black"/><!-- width=106 height=322 -->
<path id="gl1289" d="M 156 4 C 152 7 147 16 147 20 C 147 25 144 33 138 45 C 134 51 132 57 132 57 C 132 60 127 76 126 78 C 124 79 123 81 122 84 C 122 87 120 93 117 99 C 115 104 111 110 111 111 C 109 121 99 106 90 75 C 87 68 85 61 84 58 C 82 57 81 54 81 52 C 79 49 72 28 69 24 C 63 4 62 4 34 4 C 6 4 3 4 7 14 C 8 16 9 20 10 20 C 12 22 15 28 21 42 C 22 45 26 54 31 62 C 34 70 37 78 37 78 C 37 78 39 82 42 88 C 44 93 48 100 50 104 C 51 108 56 120 61 129 C 66 139 70 151 73 154 C 74 159 76 164 78 166 C 80 172 81 178 81 219 C 81 240 82 258 82 260 C 82 261 82 270 82 279 C 81 285 81 291 81 297 C 82 299 84 299 85 300 C 90 305 127 305 133 300 C 133 299 134 299 135 297 C 135 279 135 261 134 243 C 133 168 133 174 153 129 C 156 124 159 116 162 111 C 164 105 169 96 172 88 C 176 81 180 74 180 74 C 180 73 189 51 193 45 C 194 43 195 39 196 39 C 196 38 199 32 202 25 C 207 14 210 7 207 4 C 206 2 158 2 156 4 z" fill="black"/><!-- width=216 height=312 -->
<path id="gl1287" d="M 67 7 C 65 7 62 8 56 9 C 35 14 21 25 15 42 C 6 69 6 179 15 206 C 26 235 57 247 103 240 C 136 235 149 224 156 191 C 158 180 160 109 158 84 C 153 32 141 15 103 8 C 95 7 70 6 67 7 M 100 46 C 111 54 112 62 112 135 C 112 179 111 190 109 194 C 101 213 63 211 57 190 C 56 184 54 70 56 63 C 59 48 69 41 85 42 C 95 42 96 42 100 46 z" fill="black"/><!-- width=172 height=255 -->
<path id="gl1290" d="M 102 6 C 98 9 98 9 99 20 C 102 56 103 76 102 106 C 102 124 102 145 103 151 C 104 165 100 182 94 190 C 86 201 66 201 58 190 C 54 184 54 176 54 92 C 54 63 54 36 54 8 C 52 8 51 7 51 6 C 49 4 45 4 28 4 C 3 4 3 4 4 19 C 4 24 6 60 6 100 C 7 177 8 200 12 210 C 16 224 27 231 45 232 C 67 234 82 228 93 213 C 98 205 102 206 104 214 C 106 228 105 226 130 226 C 153 226 152 230 151 186 C 150 168 150 120 150 80 C 150 14 150 7 147 6 C 146 3 142 3 124 3 C 105 3 104 3 102 6 z" fill="black"/><!-- width=163 height=245 -->
<path id="gl1291" d="M 89 7 C 83 9 74 16 66 27 C 57 39 51 37 51 21 C 52 8 52 8 28 8 C 4 8 4 8 6 22 C 6 27 7 75 7 129 C 8 211 8 227 9 229 C 12 230 45 233 50 230 C 54 229 55 223 54 209 C 54 192 54 90 55 85 C 57 78 61 72 66 68 C 73 62 75 61 89 61 C 103 60 104 58 104 51 C 104 49 105 39 105 28 C 105 6 105 3 98 4 C 96 4 91 6 89 7 z" fill="black"/><!-- width=115 height=240 -->
<path id="gl1292" d="M 103 4 C 88 4 75 6 74 6 C 70 7 67 16 66 26 C 66 30 63 36 62 39 C 61 42 60 46 60 48 C 60 50 60 54 58 56 C 57 60 56 64 56 68 C 56 72 55 75 54 78 C 52 81 52 84 48 103 C 46 106 45 114 44 116 C 43 121 42 127 40 132 C 37 151 31 176 30 181 C 30 183 28 192 27 198 C 26 205 24 214 22 220 C 20 226 19 235 19 238 C 18 242 16 247 15 250 C 14 253 13 258 13 261 C 13 265 10 273 8 280 C 1 303 1 303 30 303 C 60 303 60 303 62 284 C 63 280 64 272 66 266 C 67 260 68 250 69 246 C 72 226 72 226 106 226 C 116 226 124 226 134 226 C 135 226 136 228 138 229 C 142 232 145 240 147 254 C 151 285 154 300 159 302 C 160 303 171 303 184 303 C 192 303 200 303 207 303 C 207 302 208 301 210 300 C 212 296 212 297 206 274 C 201 258 195 230 193 219 C 192 211 188 198 184 183 C 183 180 182 170 180 163 C 177 151 175 136 169 114 C 168 108 166 98 164 93 C 164 88 162 80 160 76 C 159 73 158 64 157 58 C 154 52 153 45 152 40 C 151 37 150 32 150 28 C 148 19 145 7 142 6 C 139 3 130 3 103 4 M 111 62 C 111 63 112 69 114 75 C 114 81 115 90 116 92 C 117 94 118 102 120 106 C 120 111 121 121 123 127 C 124 134 126 144 127 148 C 130 166 130 178 127 182 C 126 183 126 184 124 186 C 118 186 114 186 108 186 C 88 187 86 186 84 181 C 81 177 82 163 85 157 C 86 153 90 134 92 122 C 93 112 94 104 98 91 C 99 85 100 76 100 73 C 104 57 104 56 108 58 C 109 60 111 61 111 62 z" fill="black"/><!-- width=222 height=313 -->
<path id="gl1293" d="M 87 7 C 80 8 69 14 63 21 C 57 26 55 26 52 19 C 52 16 51 13 50 13 C 46 10 12 10 7 13 C 6 13 4 13 3 14 C 4 38 4 62 4 85 C 6 159 6 182 6 188 C 6 190 6 201 6 211 C 6 235 6 234 24 234 C 56 236 55 237 54 201 C 52 142 52 75 54 68 C 56 50 67 40 82 43 C 92 45 98 50 100 61 C 103 68 103 68 103 180 C 103 196 104 213 104 230 C 104 231 105 231 106 232 C 109 234 112 235 129 234 C 152 234 152 234 152 222 C 152 218 152 176 151 130 C 151 42 151 39 146 30 C 138 12 111 1 87 7 z" fill="black"/><!-- width=163 height=245 -->
<path id="gl1294" d="M 136 3 C 136 3 132 4 127 4 C 111 4 109 6 103 22 C 100 27 98 33 97 36 C 96 38 94 42 93 44 C 90 54 87 56 84 54 C 80 51 73 38 73 34 C 73 33 72 31 70 30 C 69 27 68 22 67 19 C 66 14 63 10 61 8 C 61 8 60 7 58 6 C 50 6 42 6 34 6 C 8 6 6 6 7 12 C 8 16 14 28 15 30 C 19 33 44 80 46 88 C 46 91 48 93 49 94 C 56 103 60 117 56 123 C 51 132 38 159 31 172 C 28 180 22 190 19 195 C 7 216 3 225 7 228 C 9 230 50 230 55 228 C 60 225 64 213 72 193 C 75 183 80 175 82 172 C 88 169 92 175 105 212 C 108 216 109 220 110 222 C 111 226 117 228 138 229 C 166 230 168 229 159 211 C 157 206 153 199 150 194 C 147 190 138 171 129 153 C 109 115 108 111 115 99 C 117 96 121 87 124 81 C 127 75 130 69 132 68 C 132 67 134 63 136 58 C 140 51 153 27 160 14 C 165 8 164 6 160 3 C 157 2 138 2 136 3 z" fill="black"/><!-- width=174 height=241 -->
<path id="gl1295" d="M 10 7 C 7 8 6 9 6 26 C 4 43 6 49 10 50 C 16 51 50 51 52 50 C 56 49 56 9 51 7 C 49 6 15 4 10 7 M 45 80 C 45 80 37 81 27 81 C 12 81 9 82 8 84 C 7 85 7 94 7 126 C 7 147 8 195 8 234 C 8 271 8 301 8 302 C 9 305 52 306 54 302 C 55 302 55 254 55 198 C 55 141 55 92 55 90 C 55 86 54 82 54 82 C 52 81 46 79 45 80 z" fill="black"/><!-- width=67 height=317 -->
<path id="gl1296" d="M 72 4 C 33 6 14 21 7 55 C 3 70 3 124 4 145 C 6 151 7 163 8 171 C 8 182 9 189 12 195 C 16 210 18 211 32 224 C 44 235 90 241 111 234 C 133 226 146 213 151 195 C 157 175 157 163 153 160 C 150 158 111 159 109 162 C 108 163 106 168 105 174 C 104 188 103 193 98 196 C 86 207 64 205 57 193 C 52 183 49 144 52 134 C 55 130 56 128 58 128 C 60 127 81 127 105 127 C 129 128 151 128 152 128 C 156 127 157 120 156 98 C 154 86 153 73 153 67 C 153 42 140 18 123 12 C 106 6 92 3 72 4 M 88 38 C 100 40 106 51 108 70 C 109 91 105 93 79 93 C 54 93 50 91 50 73 C 50 51 56 42 69 38 C 75 37 78 37 88 38 z" fill="black"/><!-- width=168 height=249 -->
<path id="gl1283" d="M 28 6 C 25 8 25 9 26 28 C 28 64 28 64 15 66 C 8 67 7 68 7 82 C 6 96 7 98 16 99 C 30 102 28 94 28 187 C 28 213 28 240 28 266 C 30 269 32 271 33 273 C 40 287 54 291 80 291 C 100 291 103 289 102 267 C 100 255 99 255 92 253 C 76 251 78 254 78 172 C 78 150 78 128 76 105 C 78 104 79 103 80 102 C 81 99 84 98 90 98 C 99 97 99 97 99 82 C 99 67 99 66 90 66 C 76 64 78 66 78 34 C 78 0 80 3 52 3 C 32 3 31 3 28 6 z" fill="black"/><!-- width=112 height=302 -->
<path id="gl1297" d="M 139 6 C 129 7 121 7 120 8 C 117 9 116 15 114 36 C 111 44 110 58 108 67 C 107 80 104 92 102 116 C 99 128 93 153 92 157 C 86 169 83 161 74 105 C 70 90 68 74 68 72 C 66 67 62 45 60 27 C 57 13 56 9 52 8 C 49 7 9 8 8 9 C 6 10 6 16 10 32 C 13 39 15 46 15 48 C 15 49 16 55 18 62 C 22 76 37 140 42 157 C 43 164 45 175 48 184 C 66 255 66 257 60 264 C 56 268 50 269 40 269 C 33 269 32 271 32 287 C 32 305 36 307 56 306 C 89 304 101 293 110 255 C 111 249 115 233 119 218 C 122 204 126 188 127 185 C 127 181 129 170 132 162 C 134 152 138 137 140 125 C 143 114 146 101 147 96 C 149 91 150 81 152 75 C 156 57 158 46 162 32 C 170 6 169 6 139 6 z" fill="black"/><!-- width=175 height=317 -->
<path id="gl1298" d="M 66 4 C 28 10 13 21 8 44 C 3 66 3 66 6 69 C 9 72 9 73 26 73 C 50 73 48 73 50 60 C 54 45 63 38 80 39 C 98 39 104 45 104 61 C 104 70 103 75 97 81 C 92 85 79 93 75 93 C 72 93 31 114 25 120 C 19 126 10 138 8 146 C 3 166 2 181 6 190 C 7 194 8 199 8 201 C 9 213 19 226 28 234 C 33 236 38 237 57 240 C 68 241 81 235 93 224 C 97 222 102 219 103 219 C 105 219 111 225 111 228 C 111 231 116 232 133 234 C 157 234 158 232 154 217 C 152 210 152 198 152 129 C 151 48 151 42 146 33 C 140 22 136 19 123 12 C 115 7 80 3 66 4 M 103 121 C 106 130 104 178 100 189 C 94 201 81 207 66 202 C 61 201 52 195 52 192 C 52 190 52 188 51 188 C 50 187 50 182 50 174 C 50 157 52 150 61 142 C 72 133 79 127 80 127 C 80 127 82 124 84 123 C 91 117 100 116 103 121 z" fill="black"/><!-- width=168 height=249 -->
<path id="gl1299" d="M 86 7 C 80 8 76 10 70 16 C 61 25 60 25 56 16 C 54 10 51 9 28 10 C 7 10 7 10 8 20 C 8 27 10 184 10 201 C 10 206 10 213 9 219 C 9 231 9 231 27 232 C 44 232 55 232 57 229 C 57 229 57 220 57 208 C 55 162 55 73 57 64 C 62 45 75 37 93 43 C 100 46 103 50 104 58 C 105 62 106 67 106 69 C 108 72 108 105 108 151 C 108 212 108 230 109 231 C 110 232 117 232 132 232 C 156 232 156 232 156 222 C 156 218 154 175 154 127 C 154 97 154 68 153 39 C 152 36 151 33 150 30 C 140 8 112 0 86 7 z" fill="black"/><!-- width=168 height=245 -->
<path id="gl1300" d="M 106 6 C 103 8 103 9 104 18 C 104 22 105 32 105 39 C 105 46 106 60 106 67 C 108 91 103 98 93 88 C 91 86 86 82 81 80 C 79 79 76 76 74 75 C 69 75 64 75 60 75 C 42 75 36 78 26 86 C 21 91 14 103 14 108 C 14 110 13 115 12 120 C 8 133 8 240 12 261 C 15 284 24 297 39 306 C 55 313 82 308 94 295 C 102 289 105 289 108 296 C 109 299 110 301 110 302 C 114 302 117 303 121 303 C 139 305 150 305 152 302 C 156 300 156 293 154 275 C 154 265 154 201 154 132 C 154 91 154 49 154 7 C 153 7 152 6 151 4 C 150 3 146 3 129 3 C 110 3 109 3 106 6 M 86 110 C 104 115 105 121 106 187 C 108 254 106 261 93 269 C 81 276 74 276 66 266 C 55 257 55 254 55 187 C 55 123 55 122 64 115 C 72 109 76 108 86 110 z" fill="black"/><!-- width=168 height=321 -->
<path id="gl1536" d="M 260 4 C 254 8 253 13 250 43 C 249 51 248 61 247 64 C 246 68 246 72 246 73 C 247 76 243 114 241 124 C 240 129 240 136 240 139 C 240 142 238 151 237 158 C 236 165 235 178 234 187 C 229 232 226 243 223 243 C 219 243 214 225 213 200 C 212 193 211 183 210 180 C 210 176 208 169 208 164 C 207 158 206 151 205 147 C 204 144 202 136 201 130 C 200 126 199 114 196 106 C 195 98 193 88 193 85 C 192 76 188 60 186 48 C 184 43 183 34 182 28 C 180 6 180 6 156 6 C 132 6 133 4 129 34 C 128 43 127 52 126 55 C 124 58 124 63 124 67 C 124 72 123 78 122 82 C 121 88 120 99 117 106 C 116 115 114 128 112 136 C 110 151 109 162 106 180 C 106 186 105 192 105 193 C 105 195 104 205 102 216 C 100 226 98 237 97 238 C 97 241 96 242 96 243 C 94 242 93 241 93 240 C 90 236 88 228 87 216 C 82 186 81 176 81 171 C 80 168 79 159 79 151 C 78 144 76 136 75 134 C 75 132 74 124 73 118 C 68 87 67 79 66 69 C 64 64 63 56 63 51 C 63 46 62 39 61 36 C 60 31 58 25 58 20 C 58 12 56 7 51 6 C 37 6 8 7 6 8 C 3 10 3 16 6 28 C 7 33 9 39 9 43 C 14 62 18 82 18 88 C 18 93 20 99 21 104 C 22 110 24 115 24 116 C 24 118 25 128 30 146 C 30 148 31 157 32 163 C 33 169 34 177 36 182 C 38 193 40 206 42 213 C 42 217 43 223 45 228 C 46 232 48 238 48 241 C 48 243 48 250 49 256 C 51 265 52 271 56 294 C 57 298 60 304 62 306 C 63 308 70 308 92 308 C 102 308 110 308 120 308 C 121 306 122 306 123 304 C 124 302 127 298 127 296 C 127 295 128 282 130 267 C 132 253 134 236 135 229 C 136 222 138 213 138 210 C 139 207 140 200 141 195 C 141 189 142 182 144 181 C 144 178 145 170 145 162 C 147 135 151 120 156 116 C 160 114 164 127 170 175 C 172 193 174 202 176 213 C 177 218 178 229 180 237 C 181 246 182 253 183 253 C 183 254 186 264 187 274 C 190 301 190 300 194 303 C 195 304 196 306 198 307 C 207 307 216 307 225 308 C 260 308 259 308 261 285 C 264 272 264 268 271 231 C 274 205 279 180 282 171 C 282 168 283 160 284 154 C 285 148 286 141 288 138 C 288 135 289 127 290 121 C 291 114 294 103 295 97 C 296 90 297 80 298 75 C 298 69 300 62 301 58 C 302 55 303 48 304 43 C 304 38 306 32 307 28 C 309 21 309 8 307 7 C 304 4 264 3 260 4 z" fill="black"/><!-- width=318 height=318 -->
<path id="gl1287" d="M 67 7 C 65 7 62 8 56 9 C 35 14 21 25 15 42 C 6 69 6 179 15 206 C 26 235 57 247 103 240 C 136 235 149 224 156 191 C 158 180 160 109 158 84 C 153 32 141 15 103 8 C 95 7 70 6 67 7 M 100 46 C 111 54 112 62 112 135 C 112 179 111 190 109 194 C 101 213 63 211 57 190 C 56 184 54 70 56 63 C 59 48 69 41 85 42 C 95 42 96 42 100 46 z" fill="black"/><!-- width=172 height=255 -->
<path id="gl1537" d="M 92 6 C 86 8 73 20 69 26 C 61 43 52 40 54 19 C 54 14 52 9 52 9 C 51 7 12 8 10 10 C 8 12 8 18 8 40 C 9 56 9 104 9 147 C 9 223 9 228 12 230 C 14 231 15 232 33 232 C 44 232 52 231 54 231 C 56 229 57 220 56 213 C 55 202 56 92 57 86 C 58 79 64 70 69 68 C 70 68 73 66 74 66 C 75 64 82 62 90 61 C 99 60 104 58 105 57 C 106 56 106 48 106 32 C 106 8 106 7 104 4 C 102 2 99 2 92 6 z" fill="black"/><!-- width=116 height=241 -->
<path id="gl1291" d="M 89 7 C 83 9 74 16 66 27 C 57 39 51 37 51 21 C 52 8 52 8 28 8 C 4 8 4 8 6 22 C 6 27 7 75 7 129 C 8 211 8 227 9 229 C 12 230 45 233 50 230 C 54 229 55 223 54 209 C 54 192 54 90 55 85 C 57 78 61 72 66 68 C 73 62 75 61 89 61 C 103 60 104 58 104 51 C 104 49 105 39 105 28 C 105 6 105 3 98 4 C 96 4 91 6 89 7 z" fill="black"/><!-- width=115 height=240 -->
<path id="gl1297" d="M 139 6 C 129 7 121 7 120 8 C 117 9 116 15 114 36 C 111 44 110 58 108 67 C 107 80 104 92 102 116 C 99 128 93 153 92 157 C 86 169 83 161 74 105 C 70 90 68 74 68 72 C 66 67 62 45 60 27 C 57 13 56 9 52 8 C 49 7 9 8 8 9 C 6 10 6 16 10 32 C 13 39 15 46 15 48 C 15 49 16 55 18 62 C 22 76 37 140 42 157 C 43 164 45 175 48 184 C 66 255 66 257 60 264 C 56 268 50 269 40 269 C 33 269 32 271 32 287 C 32 305 36 307 56 306 C 89 304 101 293 110 255 C 111 249 115 233 119 218 C 122 204 126 188 127 185 C 127 181 129 170 132 162 C 134 152 138 137 140 125 C 143 114 146 101 147 96 C 149 91 150 81 152 75 C 156 57 158 46 162 32 C 170 6 169 6 139 6 z" fill="black"/><!-- width=175 height=317 -->
</defs>
<use xlink:href="#gl1280" x="0" y="24"/>
<use xlink:href="#gl1281" x="384" y="91"/>
<use xlink:href="#gl1282" x="653" y="96"/>
<use xlink:href="#gl1283" x="899" y="38"/>
<use xlink:href="#gl1284" x="1104" y="91"/>
<use xlink:href="#gl1285" x="1377" y="91"/>
<use xlink:href="#gl1286" x="1584" y="91"/>
<use xlink:href="#gl1287" x="2031" y="87"/>
<use xlink:href="#gl1288" x="2294" y="14"/>
<use xlink:href="#gl1289" x="2659" y="19"/>
<use xlink:href="#gl1287" x="2950" y="84"/>
<use xlink:href="#gl1290" x="3230" y="91"/>
<use xlink:href="#gl1291" x="3507" y="87"/>
<use xlink:href="#gl1292" x="3878" y="14"/>
<use xlink:href="#gl1293" x="4195" y="82"/>
<use xlink:href="#gl1294" x="4454" y="86"/>
<use xlink:href="#gl1295" x="4728" y="10"/>
<use xlink:href="#gl1296" x="4910" y="81"/>
<use xlink:href="#gl1283" x="5168" y="24"/>
<use xlink:href="#gl1297" x="5355" y="82"/>
<use xlink:href="#gl1298" x="5803" y="77"/>
<use xlink:href="#gl1299" x="6081" y="77"/>
<use xlink:href="#gl1300" x="6355" y="5"/>
<use xlink:href="#gl1536" x="6801" y="0"/>
<use xlink:href="#gl1287" x="7210" y="69"/>
<use xlink:href="#gl1537" x="7488" y="72"/>
<use xlink:href="#gl1291" x="7700" y="72"/>
<use xlink:href="#gl1297" x="7897" y="72"/>
</svg>