<svg xmlns="http://www.w3.org/2000/svg" xmlns:xlink="http://www.w3.org/1999/xlink" width="623px" height="55px" viewBox="0 0 6238 553" version="1.1">
<defs>
<path id="gl5658" d="M 24 6 C 13 11 4 21 9 24 C 12 27 12 27 16 24 C 26 18 28 17 33 18 C 42 19 47 28 43 38 C 42 45 35 52 24 58 C 13 64 11 68 16 70 C 18 71 21 71 24 70 C 44 63 55 87 43 112 C 38 122 32 127 21 127 C 4 128 0 133 7 141 C 12 146 17 144 28 138 C 54 126 66 107 66 85 C 66 75 64 69 56 63 C 48 55 48 52 55 44 C 75 22 53 -3 24 6 z" fill="black"/><!-- width=79 height=153 -->
<path id="gl516" d="M 15 7 C 2 11 5 31 18 31 C 30 31 35 18 27 10 C 24 9 23 7 22 7 C 22 7 20 6 19 6 C 19 6 17 6 15 7 z" fill="black"/><!-- width=44 height=43 -->
<path id="gl1548" d="M 32 4 C 6 6 3 7 13 18 C 21 25 21 24 19 84 C 19 138 19 138 11 143 C 1 150 3 153 23 153 C 30 153 44 154 53 155 C 87 158 112 152 131 134 C 167 100 160 37 118 14 C 100 6 80 3 32 4 M 85 18 C 115 25 129 47 129 79 C 129 121 107 144 69 144 C 54 144 49 142 44 134 C 43 133 42 131 40 129 C 40 112 40 94 40 76 C 40 18 40 19 48 16 C 51 14 76 16 85 18 z" fill="black"/><!-- width=165 height=165 -->
<path id="gl5" d="M 38 7 C 19 13 8 30 8 56 C 8 80 20 96 42 99 C 55 101 71 96 78 89 C 85 79 80 76 69 82 C 49 91 24 76 24 51 C 24 40 24 40 53 40 C 61 40 69 40 78 40 C 78 39 79 38 80 36 C 84 33 84 28 80 22 C 74 8 56 2 38 7 M 57 15 C 65 20 65 28 57 30 C 52 33 35 33 33 30 C 30 28 30 25 34 22 C 40 14 50 12 57 15 z" fill="black"/><!-- width=94 height=112 -->
<path id="gl9" d="M 37 7 C 20 12 7 22 7 31 C 7 41 23 38 27 27 C 31 18 37 15 46 17 C 52 20 55 25 55 35 C 56 47 53 48 37 55 C 13 61 7 66 7 78 C 7 96 25 105 43 95 C 52 91 55 91 62 96 C 72 103 95 96 88 88 C 87 87 85 87 82 87 C 71 87 70 81 72 51 C 72 33 72 27 72 22 C 68 8 53 2 37 7 M 53 63 C 58 71 51 86 42 87 C 20 87 21 68 42 61 C 48 60 51 60 53 63 z" fill="black"/><!-- width=98 height=110 -->
<path id="gl512" d="M 20 8 C 9 13 7 17 13 24 C 14 26 15 27 17 29 C 17 48 17 69 17 88 C 17 108 17 127 17 148 C 14 149 13 152 10 153 C 4 159 4 161 7 163 C 9 164 42 164 43 163 C 47 161 46 158 41 154 C 34 149 34 149 35 76 C 35 -1 36 1 20 8 z" fill="black"/><!-- width=55 height=175 -->
<path id="gl2" d="M 18 4 C 11 8 9 19 14 25 C 27 37 43 19 32 7 C 28 3 23 3 18 4 M 18 61 C 9 66 8 70 13 79 C 14 82 16 85 14 110 C 14 119 14 128 14 137 C 13 139 12 140 9 142 C 4 148 4 148 7 150 C 8 152 12 152 24 152 C 45 152 48 150 39 140 C 37 139 35 138 34 137 C 34 124 34 112 34 100 C 34 79 33 61 33 60 C 32 58 25 58 18 61 z" fill="black"/><!-- width=54 height=163 -->
<path id="gl3" d="M 20 8 C 10 13 8 16 13 23 C 16 27 16 28 16 50 C 17 79 16 83 10 89 C 2 96 3 98 25 99 C 46 99 49 96 40 88 C 39 86 36 85 35 84 C 35 75 35 66 35 57 C 33 23 36 20 54 20 C 73 20 75 23 75 56 C 74 83 74 85 67 89 C 64 93 64 96 67 98 C 71 99 101 99 104 98 C 105 95 104 91 99 89 C 94 85 94 83 93 52 C 93 25 93 23 90 18 C 81 3 67 2 44 12 C 39 13 39 13 36 10 C 31 5 27 5 20 8 z" fill="black"/><!-- width=115 height=110 -->
<path id="gl521" d="M 35 6 C 11 11 1 37 15 58 C 20 64 20 68 17 73 C 7 81 7 85 14 95 C 20 102 20 105 14 112 C 7 119 6 122 6 129 C 6 165 77 163 92 128 C 101 111 96 94 80 89 C 77 88 70 86 55 88 C 34 88 34 88 30 85 C 22 77 28 69 46 67 C 68 66 77 58 80 37 C 81 28 84 24 90 23 C 103 20 97 11 83 11 C 78 11 72 11 66 8 C 55 4 42 3 35 6 M 55 17 C 68 29 63 57 47 59 C 37 62 28 50 28 36 C 28 19 44 8 55 17 M 73 105 C 85 112 83 132 68 139 C 59 143 42 143 34 139 C 18 130 20 107 39 102 C 47 101 67 102 73 105 z" fill="black"/><!-- width=106 height=166 -->
<path id="gl264" d="M 122 6 C 119 7 119 9 122 15 C 125 20 125 20 118 42 C 111 58 109 62 105 60 C 103 59 103 58 96 41 C 87 20 87 19 94 13 C 97 10 98 9 97 8 C 96 6 93 6 77 6 C 60 6 60 6 60 8 C 59 10 62 13 65 17 C 73 23 73 26 65 43 C 55 68 53 68 42 41 C 36 23 36 19 40 14 C 45 7 42 6 24 6 C 2 6 0 7 10 17 C 13 20 17 25 18 27 C 24 41 36 71 40 82 C 41 87 43 93 45 94 C 49 99 54 96 57 86 C 63 65 74 43 77 43 C 81 43 87 60 96 83 C 98 93 101 97 105 96 C 108 96 109 92 115 77 C 116 74 120 65 122 58 C 125 52 130 41 133 35 C 137 25 139 21 144 17 C 152 9 152 9 149 6 C 146 3 127 3 122 6 z" fill="black"/><!-- width=160 height=107 -->
<path id="gl2" d="M 18 4 C 11 8 9 19 14 25 C 27 37 43 19 32 7 C 28 3 23 3 18 4 M 18 61 C 9 66 8 70 13 79 C 14 82 16 85 14 110 C 14 119 14 128 14 137 C 13 139 12 140 9 142 C 4 148 4 148 7 150 C 8 152 12 152 24 152 C 45 152 48 150 39 140 C 37 139 35 138 34 137 C 34 124 34 112 34 100 C 34 79 33 61 33 60 C 32 58 25 58 18 61 z" fill="black"/><!-- width=54 height=163 -->
<path id="gl1" d="M 20 11 C 18 13 14 17 11 19 C 4 23 4 25 8 30 C 11 31 12 34 13 35 C 13 36 13 50 13 66 C 13 96 14 103 23 106 C 34 111 54 109 57 103 C 61 98 58 95 49 96 C 33 96 31 94 31 58 C 30 28 30 29 42 29 C 55 30 57 30 60 28 C 62 25 62 24 60 22 C 58 18 58 18 47 18 C 35 17 34 17 31 9 C 29 3 24 3 20 11 z" fill="black"/><!-- width=71 height=121 -->
<path id="gl8" d="M 20 8 C 9 12 8 16 13 25 C 14 26 15 29 15 30 C 15 49 15 67 15 87 C 15 148 16 148 9 154 C 6 158 4 159 6 160 C 8 163 41 164 43 162 C 45 160 45 157 41 153 C 38 152 36 148 36 147 C 35 142 35 95 36 93 C 41 84 55 82 64 87 C 75 91 76 95 75 124 C 75 131 75 140 75 148 C 73 150 71 151 70 153 C 64 158 64 158 65 162 C 67 165 104 164 106 160 C 107 158 107 158 104 156 C 94 148 93 145 94 118 C 95 99 94 89 89 82 C 81 71 66 67 52 73 C 36 81 33 78 35 61 C 36 44 36 9 35 7 C 32 4 27 4 20 8 z" fill="black"/><!-- width=117 height=174 -->
<path id="gl518" d="M 21 7 C 10 12 7 15 12 22 C 15 27 15 28 15 55 C 15 64 15 73 15 81 C 13 83 12 84 10 86 C 2 94 3 95 25 97 C 44 97 49 97 47 93 C 47 90 46 89 40 86 C 34 85 32 83 32 57 C 32 35 32 28 36 23 C 39 21 46 21 50 23 C 62 30 74 18 65 8 C 60 5 55 5 46 10 C 37 13 36 13 32 8 C 28 3 30 3 21 7 z" fill="black"/><!-- width=78 height=107 -->
<path id="gl5" d="M 38 7 C 19 13 8 30 8 56 C 8 80 20 96 42 99 C 55 101 71 96 78 89 C 85 79 80 76 69 82 C 49 91 24 76 24 51 C 24 40 24 40 53 40 C 61 40 69 40 78 40 C 78 39 79 38 80 36 C 84 33 84 28 80 22 C 74 8 56 2 38 7 M 57 15 C 65 20 65 28 57 30 C 52 33 35 33 33 30 C 30 28 30 25 34 22 C 40 14 50 12 57 15 z" fill="black"/><!-- width=94 height=112 -->
<path id="gl9" d="M 37 7 C 20 12 7 22 7 31 C 7 41 23 38 27 27 C 31 18 37 15 46 17 C 52 20 55 25 55 35 C 56 47 53 48 37 55 C 13 61 7 66 7 78 C 7 96 25 105 43 95 C 52 91 55 91 62 96 C 72 103 95 96 88 88 C 87 87 85 87 82 87 C 71 87 70 81 72 51 C 72 33 72 27 72 22 C 68 8 53 2 37 7 M 53 63 C 58 71 51 86 42 87 C 20 87 21 68 42 61 C 48 60 51 60 53 63 z" fill="black"/><!-- width=98 height=110 -->
<path id="gl260" d="M 15 7 C 7 11 6 14 11 22 C 11 23 12 25 13 27 C 13 45 13 63 13 82 C 14 147 14 147 8 153 C 1 160 3 163 23 163 C 41 163 44 160 36 152 C 35 151 33 149 31 147 C 31 124 31 100 31 77 C 31 2 31 3 25 3 C 24 3 19 6 15 7 z" fill="black"/><!-- width=51 height=172 -->
<path id="gl28942" d="M 17 8 C 13 9 8 16 8 18 C 8 19 8 22 11 25 C 14 34 13 139 9 145 C 2 155 6 157 25 157 C 45 157 48 155 38 146 C 35 145 34 143 32 141 C 32 135 32 129 32 124 C 30 102 30 102 49 101 C 80 99 98 80 98 49 C 98 17 73 0 46 9 C 36 13 35 13 32 8 C 28 4 24 4 17 8 M 60 22 C 90 30 82 91 51 91 C 43 91 35 87 33 82 C 30 76 30 33 33 27 C 36 20 48 18 60 22 z" fill="black"/><!-- width=110 height=167 -->
<path id="gl4" d="M 16 9 C 8 13 7 16 12 24 C 13 28 14 32 14 54 C 14 80 13 86 8 87 C 6 90 3 94 4 95 C 7 99 44 99 45 95 C 47 92 44 90 40 90 C 39 90 37 87 35 86 C 34 85 33 84 32 84 C 32 74 32 65 32 56 C 32 29 32 29 34 26 C 38 22 43 22 49 24 C 59 28 66 24 66 17 C 66 4 55 2 44 11 C 37 16 34 14 32 9 C 29 4 26 3 16 9 z" fill="black"/><!-- width=76 height=108 -->
<path id="gl0" d="M 42 6 C 27 8 16 17 10 31 C 5 42 6 67 11 77 C 30 111 83 106 95 68 C 106 31 78 -1 42 6 M 61 18 C 81 28 82 73 63 86 C 45 99 23 78 26 47 C 27 22 42 8 61 18 z" fill="black"/><!-- width=111 height=111 -->
<path id="gl513" d="M 14 8 C 4 12 3 15 8 24 C 9 25 10 27 12 30 C 12 51 12 72 12 94 C 10 165 10 160 20 161 C 24 162 31 164 37 165 C 72 172 101 146 98 111 C 96 82 71 63 45 72 C 30 78 28 76 30 49 C 31 14 31 9 30 7 C 27 4 21 4 14 8 M 56 85 C 70 90 77 101 77 118 C 78 141 68 155 50 155 C 35 155 30 147 30 118 C 28 106 30 94 30 92 C 32 83 43 80 56 85 z" fill="black"/><!-- width=112 height=177 -->
<path id="gl260" d="M 15 7 C 7 11 6 14 11 22 C 11 23 12 25 13 27 C 13 45 13 63 13 82 C 14 147 14 147 8 153 C 1 160 3 163 23 163 C 41 163 44 160 36 152 C 35 151 33 149 31 147 C 31 124 31 100 31 77 C 31 2 31 3 25 3 C 24 3 19 6 15 7 z" fill="black"/><!-- width=51 height=172 -->
<path id="gl5" d="M 38 7 C 19 13 8 30 8 56 C 8 80 20 96 42 99 C 55 101 71 96 78 89 C 85 79 80 76 69 82 C 49 91 24 76 24 51 C 24 40 24 40 53 40 C 61 40 69 40 78 40 C 78 39 79 38 80 36 C 84 33 84 28 80 22 C 74 8 56 2 38 7 M 57 15 C 65 20 65 28 57 30 C 52 33 35 33 33 30 C 30 28 30 25 34 22 C 40 14 50 12 57 15 z" fill="black"/><!-- width=94 height=112 -->
<path id="gl259" d="M 19 8 C 9 13 8 16 13 25 C 19 38 17 88 9 88 C 9 88 8 91 7 92 C 3 98 6 100 24 100 C 46 100 48 98 40 88 C 39 87 37 86 35 83 C 35 75 35 66 35 58 C 34 29 35 27 43 22 C 49 18 62 19 69 24 C 74 29 74 34 74 55 C 74 79 74 83 69 88 C 65 92 64 97 66 98 C 66 98 74 100 83 100 C 104 100 107 97 98 88 C 97 87 95 86 93 83 C 93 75 93 66 93 58 C 93 33 93 32 96 28 C 102 17 123 17 129 29 C 132 33 132 37 132 56 C 132 81 132 85 125 88 C 122 92 122 97 124 98 C 128 100 158 100 160 97 C 163 96 163 93 158 90 C 151 85 150 82 150 55 C 150 28 150 23 145 16 C 137 3 118 2 101 12 C 93 17 90 17 83 13 C 72 4 64 3 51 8 C 40 13 38 13 35 9 C 32 4 28 4 19 8 z" fill="black"/><!-- width=172 height=109 -->
<path id="gl257" d="M 31 6 C 24 8 17 13 13 20 C 6 35 11 45 33 58 C 48 69 52 77 45 85 C 37 94 25 91 19 80 C 11 66 3 67 6 82 C 7 93 13 99 28 100 C 53 104 72 83 62 62 C 60 55 56 52 42 44 C 26 34 22 26 30 18 C 37 12 46 14 53 24 C 60 33 67 29 64 18 C 62 7 50 3 31 6 z" fill="black"/><!-- width=78 height=112 -->
<path id="gl2" d="M 18 4 C 11 8 9 19 14 25 C 27 37 43 19 32 7 C 28 3 23 3 18 4 M 18 61 C 9 66 8 70 13 79 C 14 82 16 85 14 110 C 14 119 14 128 14 137 C 13 139 12 140 9 142 C 4 148 4 148 7 150 C 8 152 12 152 24 152 C 45 152 48 150 39 140 C 37 139 35 138 34 137 C 34 124 34 112 34 100 C 34 79 33 61 33 60 C 32 58 25 58 18 61 z" fill="black"/><!-- width=54 height=163 -->
<path id="gl257" d="M 31 6 C 24 8 17 13 13 20 C 6 35 11 45 33 58 C 48 69 52 77 45 85 C 37 94 25 91 19 80 C 11 66 3 67 6 82 C 7 93 13 99 28 100 C 53 104 72 83 62 62 C 60 55 56 52 42 44 C 26 34 22 26 30 18 C 37 12 46 14 53 24 C 60 33 67 29 64 18 C 62 7 50 3 31 6 z" fill="black"/><!-- width=78 height=112 -->
<path id="gl513" d="M 14 8 C 4 12 3 15 8 24 C 9 25 10 27 12 30 C 12 51 12 72 12 94 C 10 165 10 160 20 161 C 24 162 31 164 37 165 C 72 172 101 146 98 111 C 96 82 71 63 45 72 C 30 78 28 76 30 49 C 31 14 31 9 30 7 C 27 4 21 4 14 8 M 56 85 C 70 90 77 101 77 118 C 78 141 68 155 50 155 C 35 155 30 147 30 118 C 28 106 30 94 30 92 C 32 83 43 80 56 85 z" fill="black"/><!-- width=112 height=177 -->
<path id="gl21260" d="M 39 7 C 13 16 0 46 11 75 C 19 100 59 107 77 88 C 86 80 81 72 70 80 C 50 92 23 76 23 50 C 23 42 24 40 40 42 C 77 43 84 42 84 32 C 84 14 59 1 39 7 M 58 18 C 63 22 63 28 59 30 C 54 33 32 33 30 30 C 23 22 48 11 58 18 z" fill="black"/><!-- width=93 height=111 -->
<path id="gl4875" d="M 29 6 C 14 7 8 16 8 28 C 8 42 11 45 32 59 C 44 66 48 76 40 85 C 34 94 22 90 13 76 C 7 68 3 68 3 76 C 2 91 11 98 29 97 C 49 96 59 87 59 72 C 59 59 54 51 38 43 C 23 34 18 25 25 18 C 32 11 42 12 48 21 C 55 29 59 29 59 19 C 59 7 49 2 29 6 z" fill="black"/><!-- width=71 height=108 -->
<path id="gl1" d="M 20 11 C 18 13 14 17 11 19 C 4 23 4 25 8 30 C 11 31 12 34 13 35 C 13 36 13 50 13 66 C 13 96 14 103 23 106 C 34 111 54 109 57 103 C 61 98 58 95 49 96 C 33 96 31 94 31 58 C 30 28 30 29 42 29 C 55 30 57 30 60 28 C 62 25 62 24 60 22 C 58 18 58 18 47 18 C 35 17 34 17 31 9 C 29 3 24 3 20 11 z" fill="black"/><!-- width=71 height=121 -->
<path id="gl258" d="M 77 7 C 66 11 65 14 71 25 C 74 32 75 32 75 47 C 75 70 75 69 57 70 C 26 71 11 84 7 112 C 2 148 32 175 62 161 C 69 158 70 158 76 162 C 81 165 81 165 89 164 C 106 161 112 155 101 151 C 99 149 95 148 94 145 C 93 143 93 85 93 35 C 94 26 94 17 94 8 C 93 8 91 7 91 5 C 88 3 85 3 77 7 M 66 82 C 74 87 75 91 74 118 C 74 126 74 134 74 143 C 72 143 71 145 70 145 C 59 156 37 148 29 131 C 16 102 41 68 66 82 z" fill="black"/><!-- width=118 height=176 -->
<path id="gl0" d="M 42 6 C 27 8 16 17 10 31 C 5 42 6 67 11 77 C 30 111 83 106 95 68 C 106 31 78 -1 42 6 M 61 18 C 81 28 82 73 63 86 C 45 99 23 78 26 47 C 27 22 42 8 61 18 z" fill="black"/><!-- width=111 height=111 -->
<path id="gl3" d="M 20 8 C 10 13 8 16 13 23 C 16 27 16 28 16 50 C 17 79 16 83 10 89 C 2 96 3 98 25 99 C 46 99 49 96 40 88 C 39 86 36 85 35 84 C 35 75 35 66 35 57 C 33 23 36 20 54 20 C 73 20 75 23 75 56 C 74 83 74 85 67 89 C 64 93 64 96 67 98 C 71 99 101 99 104 98 C 105 95 104 91 99 89 C 94 85 94 83 93 52 C 93 25 93 23 90 18 C 81 3 67 2 44 12 C 39 13 39 13 36 10 C 31 5 27 5 20 8 z" fill="black"/><!-- width=115 height=110 -->
<path id="gl522" d="M 36 8 C 14 14 2 38 7 66 C 9 90 22 101 47 101 C 66 101 85 89 78 79 C 77 77 77 77 72 79 C 61 85 59 87 53 87 C 36 87 21 70 21 53 C 21 42 20 42 49 42 C 58 42 66 43 74 43 C 76 42 77 41 78 39 C 85 32 78 18 65 10 C 58 7 45 6 36 8 M 54 18 C 60 20 62 27 58 31 C 55 35 32 36 29 32 C 26 30 26 27 31 22 C 38 16 47 14 54 18 z" fill="black"/><!-- width=91 height=113 -->
<path id="gl513" d="M 14 8 C 4 12 3 15 8 24 C 9 25 10 27 12 30 C 12 51 12 72 12 94 C 10 165 10 160 20 161 C 24 162 31 164 37 165 C 72 172 101 146 98 111 C 96 82 71 63 45 72 C 30 78 28 76 30 49 C 31 14 31 9 30 7 C 27 4 21 4 14 8 M 56 85 C 70 90 77 101 77 118 C 78 141 68 155 50 155 C 35 155 30 147 30 118 C 28 106 30 94 30 92 C 32 83 43 80 56 85 z" fill="black"/><!-- width=112 height=177 -->
<path id="gl776" d="M 8 6 C 4 7 6 10 10 14 C 18 19 20 23 30 49 C 43 86 43 90 37 106 C 30 119 28 123 19 125 C 10 129 8 131 8 137 C 8 143 13 147 20 147 C 29 147 35 139 58 85 C 62 76 67 65 69 60 C 73 57 78 46 82 37 C 89 24 91 20 96 17 C 107 7 104 3 86 3 C 69 3 64 7 71 13 C 75 18 74 23 69 39 C 57 68 54 69 45 40 C 39 21 39 19 42 14 C 45 9 45 7 41 4 C 37 3 12 3 8 6 z" fill="black"/><!-- width=112 height=157 -->
<path id="gl10012" d="M 45 7 C 22 11 9 26 8 52 C 6 88 28 105 66 99 C 73 98 75 100 74 116 C 74 136 74 139 68 145 C 62 150 61 154 66 155 C 73 156 101 155 104 153 C 106 150 105 148 100 145 C 93 140 93 140 94 73 C 94 28 94 11 93 9 C 90 7 53 4 45 7 M 64 18 C 72 23 74 26 74 53 C 74 84 73 89 63 89 C 45 89 30 77 28 58 C 23 31 44 8 64 18 z" fill="black"/><!-- width=116 height=166 -->
<path id="gl6423" d="M 19 7 C 7 9 4 12 10 21 C 10 24 13 26 14 28 C 14 37 14 45 14 54 C 14 73 14 80 15 85 C 20 100 38 106 57 98 C 68 93 68 93 73 98 C 78 102 79 102 88 100 C 103 97 103 96 104 93 C 105 91 105 90 99 87 C 91 82 92 84 92 46 C 92 10 91 9 87 7 C 82 6 68 8 66 12 C 64 13 63 13 62 14 C 64 16 66 18 67 20 C 73 26 73 27 73 52 C 73 79 72 81 63 85 C 57 88 45 88 40 85 C 32 81 32 79 32 43 C 32 32 32 21 32 10 C 31 10 30 9 30 8 C 26 7 25 6 19 7 z" fill="black"/><!-- width=115 height=112 -->
<path id="gl5" d="M 38 7 C 19 13 8 30 8 56 C 8 80 20 96 42 99 C 55 101 71 96 78 89 C 85 79 80 76 69 82 C 49 91 24 76 24 51 C 24 40 24 40 53 40 C 61 40 69 40 78 40 C 78 39 79 38 80 36 C 84 33 84 28 80 22 C 74 8 56 2 38 7 M 57 15 C 65 20 65 28 57 30 C 52 33 35 33 33 30 C 30 28 30 25 34 22 C 40 14 50 12 57 15 z" fill="black"/><!-- width=94 height=112 -->
<path id="gl257" d="M 31 6 C 24 8 17 13 13 20 C 6 35 11 45 33 58 C 48 69 52 77 45 85 C 37 94 25 91 19 80 C 11 66 3 67 6 82 C 7 93 13 99 28 100 C 53 104 72 83 62 62 C 60 55 56 52 42 44 C 26 34 22 26 30 18 C 37 12 46 14 53 24 C 60 33 67 29 64 18 C 62 7 50 3 31 6 z" fill="black"/><!-- width=78 height=112 -->
<path id="gl770" d="M 16 12 C 6 22 4 23 9 29 C 12 33 12 33 12 59 C 13 95 14 99 24 104 C 35 109 56 106 55 98 C 55 95 55 95 48 95 C 32 95 30 91 29 56 C 29 25 28 27 45 27 C 57 27 61 24 57 18 C 55 16 54 16 45 16 C 35 17 30 14 30 11 C 30 8 27 3 25 3 C 24 3 20 8 16 12 z" fill="black"/><!-- width=69 height=118 -->
<path id="gl2" d="M 18 4 C 11 8 9 19 14 25 C 27 37 43 19 32 7 C 28 3 23 3 18 4 M 18 61 C 9 66 8 70 13 79 C 14 82 16 85 14 110 C 14 119 14 128 14 137 C 13 139 12 140 9 142 C 4 148 4 148 7 150 C 8 152 12 152 24 152 C 45 152 48 150 39 140 C 37 139 35 138 34 137 C 34 124 34 112 34 100 C 34 79 33 61 33 60 C 32 58 25 58 18 61 z" fill="black"/><!-- width=54 height=163 -->
<path id="gl0" d="M 42 6 C 27 8 16 17 10 31 C 5 42 6 67 11 77 C 30 111 83 106 95 68 C 106 31 78 -1 42 6 M 61 18 C 81 28 82 73 63 86 C 45 99 23 78 26 47 C 27 22 42 8 61 18 z" fill="black"/><!-- width=111 height=111 -->
<path id="gl3" d="M 20 8 C 10 13 8 16 13 23 C 16 27 16 28 16 50 C 17 79 16 83 10 89 C 2 96 3 98 25 99 C 46 99 49 96 40 88 C 39 86 36 85 35 84 C 35 75 35 66 35 57 C 33 23 36 20 54 20 C 73 20 75 23 75 56 C 74 83 74 85 67 89 C 64 93 64 96 67 98 C 71 99 101 99 104 98 C 105 95 104 91 99 89 C 94 85 94 83 93 52 C 93 25 93 23 90 18 C 81 3 67 2 44 12 C 39 13 39 13 36 10 C 31 5 27 5 20 8 z" fill="black"/><!-- width=115 height=110 -->
<path id="gl2" d="M 18 4 C 11 8 9 19 14 25 C 27 37 43 19 32 7 C 28 3 23 3 18 4 M 18 61 C 9 66 8 70 13 79 C 14 82 16 85 14 110 C 14 119 14 128 14 137 C 13 139 12 140 9 142 C 4 148 4 148 7 150 C 8 152 12 152 24 152 C 45 152 48 150 39 140 C 37 139 35 138 34 137 C 34 124 34 112 34 100 C 34 79 33 61 33 60 C 32 58 25 58 18 61 z" fill="black"/><!-- width=54 height=163 -->
<path id="gl3" d="M 20 8 C 10 13 8 16 13 23 C 16 27 16 28 16 50 C 17 79 16 83 10 89 C 2 96 3 98 25 99 C 46 99 49 96 40 88 C 39 86 36 85 35 84 C 35 75 35 66 35 57 C 33 23 36 20 54 20 C 73 20 75 23 75 56 C 74 83 74 85 67 89 C 64 93 64 96 67 98 C 71 99 101 99 104 98 C 105 95 104 91 99 89 C 94 85 94 83 93 52 C 93 25 93 23 90 18 C 81 3 67 2 44 12 C 39 13 39 13 36 10 C 31 5 27 5 20 8 z" fill="black"/><!-- width=115 height=110 -->
<path id="gl521" d="M 35 6 C 11 11 1 37 15 58 C 20 64 20 68 17 73 C 7 81 7 85 14 95 C 20 102 20 105 14 112 C 7 119 6 122 6 129 C 6 165 77 163 92 128 C 101 111 96 94 80 89 C 77 88 70 86 55 88 C 34 88 34 88 30 85 C 22 77 28 69 46 67 C 68 66 77 58 80 37 C 81 28 84 24 90 23 C 103 20 97 11 83 11 C 78 11 72 11 66 8 C 55 4 42 3 35 6 M 55 17 C 68 29 63 57 47 59 C 37 62 28 50 28 36 C 28 19 44 8 55 17 M 73 105 C 85 112 83 132 68 139 C 59 143 42 143 34 139 C 18 130 20 107 39 102 C 47 101 67 102 73 105 z" fill="black"/><!-- width=106 height=166 -->
<path id="gl770" d="M 16 12 C 6 22 4 23 9 29 C 12 33 12 33 12 59 C 13 95 14 99 24 104 C 35 109 56 106 55 98 C 55 95 55 95 48 95 C 32 95 30 91 29 56 C 29 25 28 27 45 27 C 57 27 61 24 57 18 C 55 16 54 16 45 16 C 35 17 30 14 30 11 C 30 8 27 3 25 3 C 24 3 20 8 16 12 z" fill="black"/><!-- width=69 height=118 -->
<path id="gl9485" d="M 25 6 C 13 9 10 14 15 23 C 17 24 18 25 19 28 C 19 47 19 65 19 85 C 20 150 20 148 12 153 C 9 154 8 157 8 158 C 8 162 10 163 29 163 C 46 163 47 162 48 159 C 50 158 50 157 46 153 C 43 151 41 148 41 147 C 39 144 39 96 41 92 C 43 85 61 81 69 86 C 78 90 79 95 79 117 C 80 142 79 146 73 152 C 65 161 67 162 87 162 C 112 163 114 162 104 152 C 98 146 98 150 98 114 C 98 92 98 91 96 85 C 89 70 70 67 53 74 C 40 80 39 80 39 50 C 39 36 40 21 40 18 C 41 4 37 1 25 6 z" fill="black"/><!-- width=120 height=173 -->
<path id="gl6" d="M 39 3 C 18 9 7 26 7 52 C 7 80 22 96 50 94 C 65 94 78 86 78 78 C 78 74 75 74 67 78 C 47 88 21 72 21 47 C 21 37 23 37 50 37 C 78 37 79 37 80 29 C 83 13 59 0 39 3 M 57 14 C 67 22 59 29 42 29 C 29 29 26 27 29 21 C 34 12 50 8 57 14 z" fill="black"/><!-- width=91 height=106 -->
<path id="gl4" d="M 16 9 C 8 13 7 16 12 24 C 13 28 14 32 14 54 C 14 80 13 86 8 87 C 6 90 3 94 4 95 C 7 99 44 99 45 95 C 47 92 44 90 40 90 C 39 90 37 87 35 86 C 34 85 33 84 32 84 C 32 74 32 65 32 56 C 32 29 32 29 34 26 C 38 22 43 22 49 24 C 59 28 66 24 66 17 C 66 4 55 2 44 11 C 37 16 34 14 32 9 C 29 4 26 3 16 9 z" fill="black"/><!-- width=76 height=108 -->
<path id="gl5" d="M 38 7 C 19 13 8 30 8 56 C 8 80 20 96 42 99 C 55 101 71 96 78 89 C 85 79 80 76 69 82 C 49 91 24 76 24 51 C 24 40 24 40 53 40 C 61 40 69 40 78 40 C 78 39 79 38 80 36 C 84 33 84 28 80 22 C 74 8 56 2 38 7 M 57 15 C 65 20 65 28 57 30 C 52 33 35 33 33 30 C 30 28 30 25 34 22 C 40 14 50 12 57 15 z" fill="black"/><!-- width=94 height=112 -->
<path id="gl7" d="M 37 6 C 18 9 1 26 4 33 C 8 41 19 36 24 26 C 26 19 31 16 36 16 C 47 16 50 22 50 36 C 50 47 48 49 33 54 C 9 60 2 68 4 83 C 7 98 23 104 39 95 C 42 94 46 92 48 90 C 50 92 54 94 57 95 C 65 100 72 101 78 96 C 87 93 87 88 78 87 C 68 85 65 79 68 54 C 69 23 68 13 58 8 C 52 4 43 3 37 6 M 48 62 C 57 70 48 88 34 88 C 17 88 18 68 37 62 C 44 58 44 58 48 62 z" fill="black"/><!-- width=94 height=110 -->
<path id="gl260" d="M 15 7 C 7 11 6 14 11 22 C 11 23 12 25 13 27 C 13 45 13 63 13 82 C 14 147 14 147 8 153 C 1 160 3 163 23 163 C 41 163 44 160 36 152 C 35 151 33 149 31 147 C 31 124 31 100 31 77 C 31 2 31 3 25 3 C 24 3 19 6 15 7 z" fill="black"/><!-- width=51 height=172 -->
<path id="gl0" d="M 42 6 C 27 8 16 17 10 31 C 5 42 6 67 11 77 C 30 111 83 106 95 68 C 106 31 78 -1 42 6 M 61 18 C 81 28 82 73 63 86 C 45 99 23 78 26 47 C 27 22 42 8 61 18 z" fill="black"/><!-- width=111 height=111 -->
<path id="gl258" d="M 77 7 C 66 11 65 14 71 25 C 74 32 75 32 75 47 C 75 70 75 69 57 70 C 26 71 11 84 7 112 C 2 148 32 175 62 161 C 69 158 70 158 76 162 C 81 165 81 165 89 164 C 106 161 112 155 101 151 C 99 149 95 148 94 145 C 93 143 93 85 93 35 C 94 26 94 17 94 8 C 93 8 91 7 91 5 C 88 3 85 3 77 7 M 66 82 C 74 87 75 91 74 118 C 74 126 74 134 74 143 C 72 143 71 145 70 145 C 59 156 37 148 29 131 C 16 102 41 68 66 82 z" fill="black"/><!-- width=118 height=176 -->
<path id="gl258" d="M 77 7 C 66 11 65 14 71 25 C 74 32 75 32 75 47 C 75 70 75 69 57 70 C 26 71 11 84 7 112 C 2 148 32 175 62 161 C 69 158 70 158 76 162 C 81 165 81 165 89 164 C 106 161 112 155 101 151 C 99 149 95 148 94 145 C 93 143 93 85 93 35 C 94 26 94 17 94 8 C 93 8 91 7 91 5 C 88 3 85 3 77 7 M 66 82 C 74 87 75 91 74 118 C 74 126 74 134 74 143 C 72 143 71 145 70 145 C 59 156 37 148 29 131 C 16 102 41 68 66 82 z" fill="black"/><!-- width=118 height=176 -->
<path id="gl514" d="M 28 6 C 17 9 9 18 9 29 C 9 41 13 46 32 57 C 47 67 50 73 46 82 C 39 93 26 90 17 77 C 13 70 12 69 9 70 C 6 70 6 70 6 78 C 6 93 12 96 31 96 C 52 96 62 89 63 74 C 64 60 58 52 41 42 C 27 34 23 28 27 21 C 31 11 41 11 50 21 C 59 29 64 29 63 18 C 62 8 55 4 42 4 C 37 4 31 4 28 6 z" fill="black"/><!-- width=75 height=108 -->
<path id="gl9" d="M 37 7 C 20 12 7 22 7 31 C 7 41 23 38 27 27 C 31 18 37 15 46 17 C 52 20 55 25 55 35 C 56 47 53 48 37 55 C 13 61 7 66 7 78 C 7 96 25 105 43 95 C 52 91 55 91 62 96 C 72 103 95 96 88 88 C 87 87 85 87 82 87 C 71 87 70 81 72 51 C 72 33 72 27 72 22 C 68 8 53 2 37 7 M 53 63 C 58 71 51 86 42 87 C 20 87 21 68 42 61 C 48 60 51 60 53 63 z" fill="black"/><!-- width=98 height=110 -->
<path id="gl1026" d="M 21 10 C 10 14 9 18 14 26 C 15 27 16 30 18 32 C 16 40 16 50 16 58 C 16 67 16 76 16 85 C 14 87 13 88 10 91 C 9 93 8 94 6 97 C 7 97 7 98 8 98 C 12 102 42 102 44 99 C 46 97 46 94 42 91 C 36 86 34 82 34 57 C 34 32 36 28 44 24 C 49 21 62 20 67 24 C 75 27 75 30 75 58 C 75 68 75 76 75 85 C 74 87 72 88 70 91 C 64 96 64 97 67 98 C 70 102 100 102 104 98 C 106 96 106 96 102 92 C 94 85 94 84 94 55 C 94 42 93 28 93 26 C 88 9 69 3 50 12 C 43 15 39 15 37 13 C 33 6 30 6 21 10 z" fill="black"/><!-- width=116 height=111 -->
<path id="gl258" d="M 77 7 C 66 11 65 14 71 25 C 74 32 75 32 75 47 C 75 70 75 69 57 70 C 26 71 11 84 7 112 C 2 148 32 175 62 161 C 69 158 70 158 76 162 C 81 165 81 165 89 164 C 106 161 112 155 101 151 C 99 149 95 148 94 145 C 93 143 93 85 93 35 C 94 26 94 17 94 8 C 93 8 91 7 91 5 C 88 3 85 3 77 7 M 66 82 C 74 87 75 91 74 118 C 74 126 74 134 74 143 C 72 143 71 145 70 145 C 59 156 37 148 29 131 C 16 102 41 68 66 82 z" fill="black"/><!-- width=118 height=176 -->
<path id="gl258" d="M 77 7 C 66 11 65 14 71 25 C 74 32 75 32 75 47 C 75 70 75 69 57 70 C 26 71 11 84 7 112 C 2 148 32 175 62 161 C 69 158 70 158 76 162 C 81 165 81 165 89 164 C 106 161 112 155 101 151 C 99 149 95 148 94 145 C 93 143 93 85 93 35 C 94 26 94 17 94 8 C 93 8 91 7 91 5 C 88 3 85 3 77 7 M 66 82 C 74 87 75 91 74 118 C 74 126 74 134 74 143 C 72 143 71 145 70 145 C 59 156 37 148 29 131 C 16 102 41 68 66 82 z" fill="black"/><!-- width=118 height=176 -->
<path id="gl5" d="M 38 7 C 19 13 8 30 8 56 C 8 80 20 96 42 99 C 55 101 71 96 78 89 C 85 79 80 76 69 82 C 49 91 24 76 24 51 C 24 40 24 40 53 40 C 61 40 69 40 78 40 C 78 39 79 38 80 36 C 84 33 84 28 80 22 C 74 8 56 2 38 7 M 57 15 C 65 20 65 28 57 30 C 52 33 35 33 33 30 C 30 28 30 25 34 22 C 40 14 50 12 57 15 z" fill="black"/><!-- width=94 height=112 -->
<path id="gl262" d="M 41 6 C 31 10 23 13 17 21 C 2 38 3 72 21 87 C 37 101 66 100 80 85 C 87 76 82 71 73 77 C 50 93 21 73 23 45 C 25 30 33 18 46 15 C 52 13 58 15 67 21 C 78 28 86 23 82 13 C 78 5 58 1 41 6 z" fill="black"/><!-- width=93 height=108 -->
<path id="gl7" d="M 37 6 C 18 9 1 26 4 33 C 8 41 19 36 24 26 C 26 19 31 16 36 16 C 47 16 50 22 50 36 C 50 47 48 49 33 54 C 9 60 2 68 4 83 C 7 98 23 104 39 95 C 42 94 46 92 48 90 C 50 92 54 94 57 95 C 65 100 72 101 78 96 C 87 93 87 88 78 87 C 68 85 65 79 68 54 C 69 23 68 13 58 8 C 52 4 43 3 37 6 M 48 62 C 57 70 48 88 34 88 C 17 88 18 68 37 62 C 44 58 44 58 48 62 z" fill="black"/><!-- width=94 height=110 -->
<path id="gl768" d="M 19 11 C 14 16 11 19 11 19 C 7 19 8 24 11 28 C 12 29 13 31 16 33 C 16 42 16 50 16 59 C 16 95 16 99 27 105 C 37 110 59 106 58 99 C 58 95 58 95 49 95 C 33 94 33 91 32 55 C 32 26 32 27 48 27 C 59 28 62 27 62 22 C 62 17 58 14 48 16 C 39 17 33 13 33 9 C 33 7 31 4 28 4 C 27 4 23 7 19 11 z" fill="black"/><!-- width=73 height=117 -->
<path id="gl9" d="M 37 7 C 20 12 7 22 7 31 C 7 41 23 38 27 27 C 31 18 37 15 46 17 C 52 20 55 25 55 35 C 56 47 53 48 37 55 C 13 61 7 66 7 78 C 7 96 25 105 43 95 C 52 91 55 91 62 96 C 72 103 95 96 88 88 C 87 87 85 87 82 87 C 71 87 70 81 72 51 C 72 33 72 27 72 22 C 68 8 53 2 37 7 M 53 63 C 58 71 51 86 42 87 C 20 87 21 68 42 61 C 48 60 51 60 53 63 z" fill="black"/><!-- width=98 height=110 -->
<path id="gl257" d="M 31 6 C 24 8 17 13 13 20 C 6 35 11 45 33 58 C 48 69 52 77 45 85 C 37 94 25 91 19 80 C 11 66 3 67 6 82 C 7 93 13 99 28 100 C 53 104 72 83 62 62 C 60 55 56 52 42 44 C 26 34 22 26 30 18 C 37 12 46 14 53 24 C 60 33 67 29 64 18 C 62 7 50 3 31 6 z" fill="black"/><!-- width=78 height=112 -->
<path id="gl768" d="M 19 11 C 14 16 11 19 11 19 C 7 19 8 24 11 28 C 12 29 13 31 16 33 C 16 42 16 50 16 59 C 16 95 16 99 27 105 C 37 110 59 106 58 99 C 58 95 58 95 49 95 C 33 94 33 91 32 55 C 32 26 32 27 48 27 C 59 28 62 27 62 22 C 62 17 58 14 48 16 C 39 17 33 13 33 9 C 33 7 31 4 28 4 C 27 4 23 7 19 11 z" fill="black"/><!-- width=73 height=117 -->
<path id="gl518" d="M 21 7 C 10 12 7 15 12 22 C 15 27 15 28 15 55 C 15 64 15 73 15 81 C 13 83 12 84 10 86 C 2 94 3 95 25 97 C 44 97 49 97 47 93 C 47 90 46 89 40 86 C 34 85 32 83 32 57 C 32 35 32 28 36 23 C 39 21 46 21 50 23 C 62 30 74 18 65 8 C 60 5 55 5 46 10 C 37 13 36 13 32 8 C 28 3 30 3 21 7 z" fill="black"/><!-- width=78 height=107 -->
<path id="gl0" d="M 42 6 C 27 8 16 17 10 31 C 5 42 6 67 11 77 C 30 111 83 106 95 68 C 106 31 78 -1 42 6 M 61 18 C 81 28 82 73 63 86 C 45 99 23 78 26 47 C 27 22 42 8 61 18 z" fill="black"/><!-- width=111 height=111 -->
<path id="gl517" d="M 24 6 C 19 8 11 14 9 17 C 9 18 11 22 12 25 C 13 28 14 29 14 32 C 14 49 14 66 14 83 C 14 137 14 141 8 147 C 1 155 4 157 28 157 C 46 157 48 156 48 152 C 48 150 48 149 43 146 C 35 142 33 140 33 120 C 33 102 34 101 45 102 C 76 104 102 81 103 48 C 103 19 77 0 52 8 C 40 13 36 13 34 9 C 32 6 28 4 24 6 M 70 25 C 83 34 86 61 75 80 C 66 93 44 96 36 82 C 34 78 33 76 33 56 C 33 27 35 23 46 22 C 55 20 64 22 70 25 z" fill="black"/><!-- width=114 height=167 -->
<path id="gl8" d="M 20 8 C 9 12 8 16 13 25 C 14 26 15 29 15 30 C 15 49 15 67 15 87 C 15 148 16 148 9 154 C 6 158 4 159 6 160 C 8 163 41 164 43 162 C 45 160 45 157 41 153 C 38 152 36 148 36 147 C 35 142 35 95 36 93 C 41 84 55 82 64 87 C 75 91 76 95 75 124 C 75 131 75 140 75 148 C 73 150 71 151 70 153 C 64 158 64 158 65 162 C 67 165 104 164 106 160 C 107 158 107 158 104 156 C 94 148 93 145 94 118 C 95 99 94 89 89 82 C 81 71 66 67 52 73 C 36 81 33 78 35 61 C 36 44 36 9 35 7 C 32 4 27 4 20 8 z" fill="black"/><!-- width=117 height=174 -->
<path id="gl2" d="M 18 4 C 11 8 9 19 14 25 C 27 37 43 19 32 7 C 28 3 23 3 18 4 M 18 61 C 9 66 8 70 13 79 C 14 82 16 85 14 110 C 14 119 14 128 14 137 C 13 139 12 140 9 142 C 4 148 4 148 7 150 C 8 152 12 152 24 152 C 45 152 48 150 39 140 C 37 139 35 138 34 137 C 34 124 34 112 34 100 C 34 79 33 61 33 60 C 32 58 25 58 18 61 z" fill="black"/><!-- width=54 height=163 -->
<path id="gl1801" d="M 11 6 C 6 9 3 23 6 26 C 8 30 8 30 15 24 C 30 11 53 13 45 26 C 39 37 20 68 14 77 C 8 87 6 93 9 94 C 12 96 69 96 73 94 C 79 91 85 74 83 71 C 79 67 75 68 71 74 C 64 83 60 85 47 85 C 36 87 31 84 34 77 C 36 73 64 28 69 20 C 79 8 77 7 46 6 C 31 6 19 4 17 4 C 14 4 12 4 11 6 z" fill="black"/><!-- width=93 height=106 -->
<path id="gl2" d="M 18 4 C 11 8 9 19 14 25 C 27 37 43 19 32 7 C 28 3 23 3 18 4 M 18 61 C 9 66 8 70 13 79 C 14 82 16 85 14 110 C 14 119 14 128 14 137 C 13 139 12 140 9 142 C 4 148 4 148 7 150 C 8 152 12 152 24 152 C 45 152 48 150 39 140 C 37 139 35 138 34 137 C 34 124 34 112 34 100 C 34 79 33 61 33 60 C 32 58 25 58 18 61 z" fill="black"/><!-- width=54 height=163 -->
<path id="gl3" d="M 20 8 C 10 13 8 16 13 23 C 16 27 16 28 16 50 C 17 79 16 83 10 89 C 2 96 3 98 25 99 C 46 99 49 96 40 88 C 39 86 36 85 35 84 C 35 75 35 66 35 57 C 33 23 36 20 54 20 C 73 20 75 23 75 56 C 74 83 74 85 67 89 C 64 93 64 96 67 98 C 71 99 101 99 104 98 C 105 95 104 91 99 89 C 94 85 94 83 93 52 C 93 25 93 23 90 18 C 81 3 67 2 44 12 C 39 13 39 13 36 10 C 31 5 27 5 20 8 z" fill="black"/><!-- width=115 height=110 -->
<path id="gl521" d="M 35 6 C 11 11 1 37 15 58 C 20 64 20 68 17 73 C 7 81 7 85 14 95 C 20 102 20 105 14 112 C 7 119 6 122 6 129 C 6 165 77 163 92 128 C 101 111 96 94 80 89 C 77 88 70 86 55 88 C 34 88 34 88 30 85 C 22 77 28 69 46 67 C 68 66 77 58 80 37 C 81 28 84 24 90 23 C 103 20 97 11 83 11 C 78 11 72 11 66 8 C 55 4 42 3 35 6 M 55 17 C 68 29 63 57 47 59 C 37 62 28 50 28 36 C 28 19 44 8 55 17 M 73 105 C 85 112 83 132 68 139 C 59 143 42 143 34 139 C 18 130 20 107 39 102 C 47 101 67 102 73 105 z" fill="black"/><!-- width=106 height=166 -->
<path id="gl516" d="M 15 7 C 2 11 5 31 18 31 C 30 31 35 18 27 10 C 24 9 23 7 22 7 C 22 7 20 6 19 6 C 19 6 17 6 15 7 z" fill="black"/><!-- width=44 height=43 -->
<path id="gl1797" d="M 12 7 C 7 10 3 31 6 35 C 8 39 9 38 16 31 C 25 21 29 20 44 20 C 66 19 64 13 64 81 C 64 148 65 142 48 151 C 44 152 43 154 45 157 C 48 160 99 160 101 157 C 103 153 102 152 96 148 C 84 143 85 147 85 82 C 85 62 85 43 85 24 C 87 24 88 22 89 21 C 91 19 93 19 106 20 C 124 20 125 21 134 33 C 137 39 141 39 143 36 C 145 33 146 27 146 20 C 147 7 146 4 139 6 C 136 6 131 7 129 7 C 125 8 102 8 76 8 C 32 8 29 8 22 6 C 14 3 15 3 12 7 z" fill="black"/><!-- width=157 height=169 -->
<path id="gl17667" d="M 8 7 C 6 9 7 12 13 16 C 22 21 22 21 21 81 C 21 142 21 139 11 144 C 6 147 3 152 7 153 C 8 153 19 153 33 153 C 55 154 58 153 59 152 C 61 148 59 147 51 143 C 42 141 42 138 42 111 C 42 82 40 82 63 84 C 79 85 79 85 86 97 C 89 101 90 102 94 100 C 97 97 97 61 94 58 C 91 55 87 56 84 64 C 80 71 76 72 60 74 C 40 74 42 75 42 44 C 42 37 42 29 42 21 C 42 21 43 19 44 18 C 45 17 47 16 48 14 C 53 14 58 16 63 16 C 82 17 86 18 91 27 C 100 40 105 38 103 21 C 103 4 107 4 54 4 C 17 4 8 6 8 7 z" fill="black"/><!-- width=113 height=163 -->
</defs>
<use xlink:href="#gl5658" x="0" y="61"/>
<use xlink:href="#gl516" x="87" y="134"/>
<use xlink:href="#gl1548" x="362" y="10"/>
<use xlink:href="#gl5" x="526" y="66"/>
<use xlink:href="#gl9" x="612" y="67"/>
<use xlink:href="#gl512" x="702" y="0"/>
<use xlink:href="#gl2" x="760" y="12"/>
<use xlink:href="#gl3" x="815" y="66"/>
<use xlink:href="#gl521" x="928" y="67"/>
<use xlink:href="#gl264" x="1076" y="70"/>
<use xlink:href="#gl2" x="1230" y="12"/>
<use xlink:href="#gl1" x="1286" y="57"/>
<use xlink:href="#gl8" x="1350" y="1"/>
<use xlink:href="#gl518" x="1523" y="67"/>
<use xlink:href="#gl5" x="1589" y="66"/>
<use xlink:href="#gl9" x="1676" y="67"/>
<use xlink:href="#gl260" x="1769" y="2"/>
<use xlink:href="#gl28942" x="1878" y="65"/>
<use xlink:href="#gl4" x="1992" y="66"/>
<use xlink:href="#gl0" x="2061" y="67"/>
<use xlink:href="#gl513" x="2169" y="0"/>
<use xlink:href="#gl260" x="2279" y="2"/>
<use xlink:href="#gl5" x="2330" y="67"/>
<use xlink:href="#gl259" x="2420" y="67"/>
<use xlink:href="#gl257" x="2588" y="67"/>
<use xlink:href="#gl2" x="2719" y="13"/>
<use xlink:href="#gl257" x="2770" y="68"/>
<use xlink:href="#gl513" x="2901" y="1"/>
<use xlink:href="#gl21260" x="3007" y="68"/>
<use xlink:href="#gl4875" x="3097" y="69"/>
<use xlink:href="#gl1" x="3169" y="58"/>
<use xlink:href="#gl258" x="3288" y="2"/>
<use xlink:href="#gl0" x="3401" y="67"/>
<use xlink:href="#gl3" x="3510" y="66"/>
<use xlink:href="#gl522" x="3625" y="65"/>
<use xlink:href="#gl513" x="3768" y="2"/>
<use xlink:href="#gl776" x="3870" y="71"/>
<use xlink:href="#gl10012" x="4026" y="66"/>
<use xlink:href="#gl6423" x="4138" y="66"/>
<use xlink:href="#gl5" x="4249" y="67"/>
<use xlink:href="#gl257" x="4335" y="68"/>
<use xlink:href="#gl770" x="4412" y="59"/>
<use xlink:href="#gl2" x="4478" y="13"/>
<use xlink:href="#gl0" x="4533" y="68"/>
<use xlink:href="#gl3" x="4641" y="67"/>
<use xlink:href="#gl2" x="4757" y="13"/>
<use xlink:href="#gl3" x="4813" y="67"/>
<use xlink:href="#gl521" x="4925" y="68"/>
<use xlink:href="#gl770" x="360" y="376"/>
<use xlink:href="#gl9485" x="418" y="319"/>
<use xlink:href="#gl6" x="537" y="387"/>
<use xlink:href="#gl4" x="683" y="384"/>
<use xlink:href="#gl5" x="748" y="383"/>
<use xlink:href="#gl7" x="838" y="385"/>
<use xlink:href="#gl260" x="927" y="320"/>
<use xlink:href="#gl0" x="1034" y="385"/>
<use xlink:href="#gl258" x="1140" y="320"/>
<use xlink:href="#gl258" x="1252" y="319"/>
<use xlink:href="#gl514" x="1364" y="387"/>
<use xlink:href="#gl9" x="1490" y="386"/>
<use xlink:href="#gl1026" x="1581" y="383"/>
<use xlink:href="#gl258" x="1694" y="320"/>
<use xlink:href="#gl258" x="1862" y="320"/>
<use xlink:href="#gl5" x="1974" y="384"/>
<use xlink:href="#gl262" x="2063" y="387"/>
<use xlink:href="#gl7" x="2152" y="385"/>
<use xlink:href="#gl768" x="2240" y="378"/>
<use xlink:href="#gl9" x="2304" y="385"/>
<use xlink:href="#gl257" x="2392" y="385"/>
<use xlink:href="#gl768" x="2466" y="378"/>
<use xlink:href="#gl518" x="2535" y="386"/>
<use xlink:href="#gl0" x="2606" y="385"/>
<use xlink:href="#gl517" x="2712" y="384"/>
<use xlink:href="#gl8" x="2823" y="320"/>
<use xlink:href="#gl2" x="2939" y="331"/>
<use xlink:href="#gl1801" x="2992" y="387"/>
<use xlink:href="#gl2" x="3079" y="331"/>
<use xlink:href="#gl3" x="3135" y="384"/>
<use xlink:href="#gl521" x="3247" y="387"/>
<use xlink:href="#gl516" x="3353" y="453"/>
<use xlink:href="#gl1797" x="5529" y="327"/>
<use xlink:href="#gl17667" x="6125" y="330"/>
</svg>