<svg xmlns="http://www.w3.org/2000/svg" xmlns:xlink="http://www.w3.org/1999/xlink" width="225px" height="29px" viewBox="0 0 2257 297" version="1.1">
<defs>
<path id="gl44307" d="M 61 7 C 58 7 46 8 34 8 C 16 8 13 9 10 10 C 8 13 8 19 9 144 C 9 187 9 230 9 275 C 10 275 12 276 13 276 C 18 279 54 279 56 277 C 58 275 57 210 55 187 C 54 172 55 169 60 164 C 61 163 62 162 63 160 C 69 160 75 160 81 160 C 105 160 110 163 117 171 C 127 181 127 183 127 229 C 128 279 128 278 146 278 C 153 278 163 278 168 279 C 174 281 178 281 180 281 C 184 279 184 271 180 258 C 177 248 176 236 175 214 C 175 168 171 158 152 147 C 141 142 141 136 154 126 C 172 110 175 105 176 80 C 180 42 168 22 134 12 C 129 10 121 9 109 8 C 99 8 88 7 86 7 C 81 4 68 4 61 7 M 104 44 C 122 48 129 63 124 93 C 122 108 118 114 111 120 C 109 121 108 122 106 123 C 98 123 91 123 84 123 C 72 123 61 123 60 122 C 55 120 55 116 54 85 C 54 45 55 43 70 44 C 75 44 82 44 86 44 C 96 42 98 42 104 44 z" fill="black"/><!-- width=196 height=293 -->
<path id="gl44308" d="M 52 8 C 10 19 4 40 11 153 C 14 191 17 200 37 209 C 51 217 57 218 83 218 C 106 218 106 218 113 214 C 128 207 139 197 142 185 C 149 161 149 146 140 147 C 128 147 106 149 105 152 C 104 152 103 158 101 165 C 99 177 97 182 91 185 C 77 195 57 185 55 170 C 49 145 50 127 57 122 C 61 119 109 121 127 123 C 147 127 147 127 146 88 C 143 38 139 23 119 14 C 105 7 70 4 52 8 M 86 39 C 95 41 103 55 103 71 C 103 88 98 92 79 92 C 52 92 50 89 50 70 C 50 51 57 39 68 38 C 70 38 74 37 74 37 C 75 37 79 37 86 39 z" fill="black"/><!-- width=159 height=231 -->
<path id="gl44309" d="M 58 7 C 43 8 34 12 31 16 C 25 25 21 40 22 54 C 22 58 22 62 22 67 C 21 68 20 68 19 69 C 16 72 13 74 12 75 C 8 78 8 79 8 88 C 7 102 8 104 15 106 C 21 110 22 115 21 135 C 20 145 20 157 21 169 C 22 189 22 232 21 260 C 21 282 21 282 37 281 C 50 281 64 277 67 276 C 68 275 68 182 67 180 C 66 178 66 120 67 115 C 68 110 73 106 78 106 C 84 106 86 102 87 91 C 88 79 86 74 78 74 C 70 74 67 70 67 61 C 66 49 69 40 75 39 C 76 39 80 38 81 38 C 87 37 87 34 87 22 C 87 6 87 6 58 7 z" fill="black"/><!-- width=96 height=293 -->
<path id="gl5902" d="M 57 11 C 13 23 5 39 8 123 C 9 177 13 191 25 205 C 38 218 79 229 94 223 C 124 213 141 191 142 164 C 142 152 142 152 118 152 C 95 152 97 152 95 166 C 94 183 89 188 75 189 C 56 190 50 182 49 152 C 47 128 51 122 65 125 C 73 127 89 127 118 125 C 146 124 143 127 142 91 C 140 50 136 38 123 26 C 105 9 85 5 57 11 M 81 45 C 93 49 99 58 99 76 C 99 89 95 92 83 92 C 80 92 71 93 68 94 C 53 95 49 92 49 77 C 47 59 52 49 64 45 C 73 43 74 43 81 45 z" fill="black"/><!-- width=154 height=238 -->
<path id="gl4627" d="M 81 8 C 73 12 68 15 65 20 C 56 36 47 38 47 22 C 47 12 46 12 28 12 C 17 12 13 12 11 13 C 9 14 8 14 7 15 C 7 47 8 79 8 113 C 8 200 8 210 11 211 C 13 215 45 215 49 212 C 52 210 52 210 51 150 C 50 89 51 84 57 75 C 61 68 73 62 83 62 C 94 62 95 61 95 34 C 95 11 95 11 93 8 C 89 4 87 4 81 8 z" fill="black"/><!-- width=106 height=226 -->
<path id="gl44308" d="M 52 8 C 10 19 4 40 11 153 C 14 191 17 200 37 209 C 51 217 57 218 83 218 C 106 218 106 218 113 214 C 128 207 139 197 142 185 C 149 161 149 146 140 147 C 128 147 106 149 105 152 C 104 152 103 158 101 165 C 99 177 97 182 91 185 C 77 195 57 185 55 170 C 49 145 50 127 57 122 C 61 119 109 121 127 123 C 147 127 147 127 146 88 C 143 38 139 23 119 14 C 105 7 70 4 52 8 M 86 39 C 95 41 103 55 103 71 C 103 88 98 92 79 92 C 52 92 50 89 50 70 C 50 51 57 39 68 38 C 70 38 74 37 74 37 C 75 37 79 37 86 39 z" fill="black"/><!-- width=159 height=231 -->
<path id="gl44310" d="M 93 10 C 81 13 78 14 68 22 C 62 27 60 27 56 21 C 51 16 52 16 32 15 C 13 15 13 15 12 18 C 10 20 10 34 10 66 C 10 90 12 134 12 164 C 12 225 12 223 20 220 C 22 219 31 218 38 218 C 52 218 54 218 56 212 C 57 211 57 196 56 165 C 54 97 54 70 57 62 C 64 43 85 38 96 55 C 97 56 98 57 99 60 C 99 75 100 92 100 108 C 102 163 102 166 100 193 C 100 220 102 222 120 223 C 144 223 145 222 145 195 C 145 121 144 46 141 40 C 133 13 120 4 93 10 z" fill="black"/><!-- width=159 height=236 -->
<path id="gl44311" d="M 58 6 C 48 7 38 12 31 18 C 26 21 15 38 14 42 C 12 54 12 70 10 115 C 10 133 10 150 10 168 C 12 171 13 176 14 180 C 24 207 42 217 82 217 C 98 217 102 217 105 214 C 109 213 111 213 112 213 C 116 213 124 202 127 196 C 133 181 133 176 134 158 C 136 138 135 135 121 135 C 117 135 111 134 109 134 C 104 133 94 136 93 139 C 92 140 91 148 91 156 C 91 177 88 184 76 186 C 67 188 61 183 56 171 C 54 163 54 162 54 108 C 54 90 54 70 54 52 C 55 51 56 49 56 48 C 61 40 66 36 72 36 C 86 37 91 45 91 66 C 91 80 94 82 112 84 C 124 84 127 84 132 79 C 138 74 134 44 126 28 C 122 21 109 9 104 8 C 97 6 68 4 58 6 z" fill="black"/><!-- width=144 height=230 -->
<path id="gl4628" d="M 52 8 C 34 13 20 23 14 40 C 5 61 7 154 15 182 C 22 206 41 216 80 217 C 119 220 144 196 145 158 C 145 147 142 146 120 147 C 101 147 101 147 100 161 C 97 181 92 186 76 186 C 64 186 58 183 54 172 C 50 163 48 132 52 126 C 54 121 60 117 65 119 C 67 119 84 120 102 120 C 138 122 141 121 144 116 C 145 113 145 89 144 73 C 140 33 134 21 114 11 C 110 10 107 8 103 7 C 96 7 89 7 83 7 C 65 7 60 7 52 8 M 89 40 C 98 45 102 55 101 73 C 101 82 101 83 97 86 C 96 88 95 89 92 90 C 88 90 82 90 76 90 C 52 90 50 88 50 69 C 50 47 58 38 76 38 C 80 38 84 38 89 40 z" fill="black"/><!-- width=156 height=231 -->
<path id="gl44544" d="M 56 6 C 36 8 14 21 9 33 C 7 40 7 68 10 78 C 12 81 14 85 14 87 C 15 93 34 110 56 124 C 80 140 93 152 94 159 C 97 175 88 186 72 186 C 57 186 51 181 50 163 C 49 150 48 148 33 148 C 30 148 24 148 18 147 C 4 145 2 148 7 171 C 13 195 20 205 46 214 C 60 218 102 218 108 213 C 110 212 114 210 116 210 C 126 207 132 200 135 182 C 140 163 139 148 129 129 C 123 117 121 115 112 110 C 109 109 103 105 99 103 C 96 100 93 99 92 99 C 92 99 90 98 88 97 C 86 96 80 91 73 87 C 67 82 60 78 58 76 C 45 64 46 44 62 38 C 68 34 78 34 79 36 C 79 37 81 38 84 39 C 88 42 92 49 93 58 C 94 67 99 73 104 73 C 106 72 110 72 111 72 C 140 73 142 70 135 44 C 127 14 121 8 99 6 C 86 3 66 3 56 6 z" fill="black"/><!-- width=150 height=231 -->
</defs>
<use xlink:href="#gl44307" x="0" y="0"/>
<use xlink:href="#gl44308" x="283" y="62"/>
<use xlink:href="#gl44309" x="523" y="0"/>
<use xlink:href="#gl5902" x="703" y="59"/>
<use xlink:href="#gl4627" x="954" y="62"/>
<use xlink:href="#gl44308" x="1137" y="62"/>
<use xlink:href="#gl44310" x="1387" y="57"/>
<use xlink:href="#gl44311" x="1632" y="62"/>
<use xlink:href="#gl4628" x="1865" y="62"/>
<use xlink:href="#gl44544" x="2107" y="62"/>
</svg>