<svg xmlns="http://www.w3.org/2000/svg" xmlns:xlink="http://www.w3.org/1999/xlink" width="623px" height="55px" viewBox="0 0 6234 553" version="1.1">
<defs>
<path id="gl5655" d="M 28 6 C 12 11 0 27 6 31 C 8 32 9 32 14 27 C 34 9 54 24 44 51 C 42 59 28 77 17 87 C 0 103 1 103 42 103 C 80 103 78 103 83 93 C 89 80 85 77 74 84 C 69 88 68 88 56 88 C 32 89 31 87 46 71 C 62 52 66 44 66 31 C 66 12 47 1 28 6 z" fill="black"/><!-- width=95 height=114 -->
<path id="gl516" d="M 15 7 C 2 11 5 31 18 31 C 30 31 35 18 27 10 C 24 9 23 7 22 7 C 22 7 20 6 19 6 C 19 6 17 6 15 7 z" fill="black"/><!-- width=44 height=43 -->
<path id="gl5893" d="M 45 7 C 24 12 12 24 12 44 C 12 62 19 72 45 90 C 69 106 74 112 74 125 C 72 158 32 161 17 132 C 7 112 0 127 8 148 C 11 155 13 156 22 160 C 61 171 95 151 92 117 C 91 98 82 87 55 70 C 34 58 28 46 32 33 C 34 22 41 16 54 17 C 65 17 71 20 77 30 C 85 41 91 40 91 28 C 90 13 86 8 70 7 C 59 4 55 4 45 7 z" fill="black"/><!-- width=103 height=174 -->
<path id="gl261" d="M 39 6 C 18 10 7 26 7 54 C 7 73 9 79 18 87 C 32 102 63 102 75 87 C 83 80 76 76 67 81 C 46 92 23 75 21 51 C 21 40 23 39 50 40 C 76 41 80 40 81 30 C 81 13 59 1 39 6 M 54 15 C 62 18 62 28 54 30 C 50 32 34 32 30 31 C 28 29 28 25 32 20 C 37 14 46 12 54 15 z" fill="black"/><!-- width=91 height=111 -->
<path id="gl1" d="M 20 11 C 18 13 14 17 11 19 C 4 23 4 25 8 30 C 11 31 12 34 13 35 C 13 36 13 50 13 66 C 13 96 14 103 23 106 C 34 111 54 109 57 103 C 61 98 58 95 49 96 C 33 96 31 94 31 58 C 30 28 30 29 42 29 C 55 30 57 30 60 28 C 62 25 62 24 60 22 C 58 18 58 18 47 18 C 35 17 34 17 31 9 C 29 3 24 3 20 11 z" fill="black"/><!-- width=71 height=121 -->
<path id="gl1" d="M 20 11 C 18 13 14 17 11 19 C 4 23 4 25 8 30 C 11 31 12 34 13 35 C 13 36 13 50 13 66 C 13 96 14 103 23 106 C 34 111 54 109 57 103 C 61 98 58 95 49 96 C 33 96 31 94 31 58 C 30 28 30 29 42 29 C 55 30 57 30 60 28 C 62 25 62 24 60 22 C 58 18 58 18 47 18 C 35 17 34 17 31 9 C 29 3 24 3 20 11 z" fill="black"/><!-- width=71 height=121 -->
<path id="gl2" d="M 18 4 C 11 8 9 19 14 25 C 27 37 43 19 32 7 C 28 3 23 3 18 4 M 18 61 C 9 66 8 70 13 79 C 14 82 16 85 14 110 C 14 119 14 128 14 137 C 13 139 12 140 9 142 C 4 148 4 148 7 150 C 8 152 12 152 24 152 C 45 152 48 150 39 140 C 37 139 35 138 34 137 C 34 124 34 112 34 100 C 34 79 33 61 33 60 C 32 58 25 58 18 61 z" fill="black"/><!-- width=54 height=163 -->
<path id="gl3" d="M 20 8 C 10 13 8 16 13 23 C 16 27 16 28 16 50 C 17 79 16 83 10 89 C 2 96 3 98 25 99 C 46 99 49 96 40 88 C 39 86 36 85 35 84 C 35 75 35 66 35 57 C 33 23 36 20 54 20 C 73 20 75 23 75 56 C 74 83 74 85 67 89 C 64 93 64 96 67 98 C 71 99 101 99 104 98 C 105 95 104 91 99 89 C 94 85 94 83 93 52 C 93 25 93 23 90 18 C 81 3 67 2 44 12 C 39 13 39 13 36 10 C 31 5 27 5 20 8 z" fill="black"/><!-- width=115 height=110 -->
<path id="gl1795" d="M 33 7 C 10 14 1 40 16 60 C 22 67 22 72 16 76 C 7 82 7 88 15 97 C 21 104 20 106 14 114 C 7 122 6 123 6 131 C 6 167 76 167 94 131 C 98 122 98 108 96 102 C 90 91 80 87 54 88 C 34 90 30 88 27 82 C 25 74 31 70 46 69 C 69 68 79 58 81 38 C 82 30 85 26 92 25 C 96 24 97 22 98 20 C 100 15 96 13 84 13 C 78 13 73 12 66 9 C 55 6 42 4 33 7 M 56 20 C 70 32 62 63 45 61 C 32 60 25 42 31 26 C 36 15 48 13 56 20 M 70 105 C 82 109 85 125 75 135 C 61 150 28 146 25 129 C 22 120 26 111 34 106 C 39 104 62 104 70 105 z" fill="black"/><!-- width=109 height=168 -->
<path id="gl9991" d="M 34 7 C 9 14 1 40 14 62 C 20 71 19 73 13 81 C 6 88 6 92 14 101 C 19 107 18 110 12 119 C 0 134 3 149 20 158 C 29 162 54 162 65 158 C 87 150 101 129 96 110 C 91 94 84 92 55 92 C 29 93 27 92 27 83 C 27 76 30 72 44 72 C 65 72 77 62 80 40 C 81 32 84 28 89 28 C 93 28 98 23 98 20 C 97 16 92 14 81 14 C 75 14 70 13 64 11 C 54 7 40 6 34 7 M 52 20 C 65 27 65 55 52 62 C 41 68 27 57 27 40 C 27 23 40 12 52 20 M 72 112 C 93 126 68 152 40 147 C 20 142 16 118 33 110 C 39 108 67 108 72 112 z" fill="black"/><!-- width=107 height=173 -->
<path id="gl0" d="M 42 6 C 27 8 16 17 10 31 C 5 42 6 67 11 77 C 30 111 83 106 95 68 C 106 31 78 -1 42 6 M 61 18 C 81 28 82 73 63 86 C 45 99 23 78 26 47 C 27 22 42 8 61 18 z" fill="black"/><!-- width=111 height=111 -->
<path id="gl7" d="M 37 6 C 18 9 1 26 4 33 C 8 41 19 36 24 26 C 26 19 31 16 36 16 C 47 16 50 22 50 36 C 50 47 48 49 33 54 C 9 60 2 68 4 83 C 7 98 23 104 39 95 C 42 94 46 92 48 90 C 50 92 54 94 57 95 C 65 100 72 101 78 96 C 87 93 87 88 78 87 C 68 85 65 79 68 54 C 69 23 68 13 58 8 C 52 4 43 3 37 6 M 48 62 C 57 70 48 88 34 88 C 17 88 18 68 37 62 C 44 58 44 58 48 62 z" fill="black"/><!-- width=94 height=110 -->
<path id="gl512" d="M 20 8 C 9 13 7 17 13 24 C 14 26 15 27 17 29 C 17 48 17 69 17 88 C 17 108 17 127 17 148 C 14 149 13 152 10 153 C 4 159 4 161 7 163 C 9 164 42 164 43 163 C 47 161 46 158 41 154 C 34 149 34 149 35 76 C 35 -1 36 1 20 8 z" fill="black"/><!-- width=55 height=175 -->
<path id="gl17431" d="M 25 5 C 15 10 8 17 8 28 C 8 39 12 44 28 54 C 43 65 45 66 45 73 C 47 77 45 80 43 82 C 35 93 22 89 15 73 C 10 63 5 65 5 76 C 5 90 11 96 28 96 C 45 98 58 90 62 77 C 66 63 59 52 39 40 C 24 31 20 22 29 15 C 35 10 42 11 49 19 C 58 28 62 28 62 20 C 63 7 57 2 40 2 C 33 3 28 3 25 5 z" fill="black"/><!-- width=73 height=107 -->
<path id="gl2" d="M 18 4 C 11 8 9 19 14 25 C 27 37 43 19 32 7 C 28 3 23 3 18 4 M 18 61 C 9 66 8 70 13 79 C 14 82 16 85 14 110 C 14 119 14 128 14 137 C 13 139 12 140 9 142 C 4 148 4 148 7 150 C 8 152 12 152 24 152 C 45 152 48 150 39 140 C 37 139 35 138 34 137 C 34 124 34 112 34 100 C 34 79 33 61 33 60 C 32 58 25 58 18 61 z" fill="black"/><!-- width=54 height=163 -->
<path id="gl1026" d="M 21 10 C 10 14 9 18 14 26 C 15 27 16 30 18 32 C 16 40 16 50 16 58 C 16 67 16 76 16 85 C 14 87 13 88 10 91 C 9 93 8 94 6 97 C 7 97 7 98 8 98 C 12 102 42 102 44 99 C 46 97 46 94 42 91 C 36 86 34 82 34 57 C 34 32 36 28 44 24 C 49 21 62 20 67 24 C 75 27 75 30 75 58 C 75 68 75 76 75 85 C 74 87 72 88 70 91 C 64 96 64 97 67 98 C 70 102 100 102 104 98 C 106 96 106 96 102 92 C 94 85 94 84 94 55 C 94 42 93 28 93 26 C 88 9 69 3 50 12 C 43 15 39 15 37 13 C 33 6 30 6 21 10 z" fill="black"/><!-- width=116 height=111 -->
<path id="gl1025" d="M 7 8 C 4 11 4 11 12 17 C 18 23 19 24 26 38 C 28 47 33 59 36 65 C 39 72 42 80 43 84 C 48 102 54 100 62 80 C 67 68 70 60 84 31 C 88 24 90 19 95 16 C 102 11 102 9 99 7 C 97 4 77 4 72 6 C 69 7 69 12 72 16 C 74 19 74 22 68 37 C 62 56 59 63 57 63 C 54 63 51 59 48 51 C 46 46 43 38 42 34 C 38 26 38 18 41 14 C 46 7 42 4 23 4 C 11 4 9 6 7 8 z" fill="black"/><!-- width=110 height=107 -->
<path id="gl0" d="M 42 6 C 27 8 16 17 10 31 C 5 42 6 67 11 77 C 30 111 83 106 95 68 C 106 31 78 -1 42 6 M 61 18 C 81 28 82 73 63 86 C 45 99 23 78 26 47 C 27 22 42 8 61 18 z" fill="black"/><!-- width=111 height=111 -->
<path id="gl512" d="M 20 8 C 9 13 7 17 13 24 C 14 26 15 27 17 29 C 17 48 17 69 17 88 C 17 108 17 127 17 148 C 14 149 13 152 10 153 C 4 159 4 161 7 163 C 9 164 42 164 43 163 C 47 161 46 158 41 154 C 34 149 34 149 35 76 C 35 -1 36 1 20 8 z" fill="black"/><!-- width=55 height=175 -->
<path id="gl1025" d="M 7 8 C 4 11 4 11 12 17 C 18 23 19 24 26 38 C 28 47 33 59 36 65 C 39 72 42 80 43 84 C 48 102 54 100 62 80 C 67 68 70 60 84 31 C 88 24 90 19 95 16 C 102 11 102 9 99 7 C 97 4 77 4 72 6 C 69 7 69 12 72 16 C 74 19 74 22 68 37 C 62 56 59 63 57 63 C 54 63 51 59 48 51 C 46 46 43 38 42 34 C 38 26 38 18 41 14 C 46 7 42 4 23 4 C 11 4 9 6 7 8 z" fill="black"/><!-- width=110 height=107 -->
<path id="gl520" d="M 40 6 C 18 13 7 31 8 59 C 8 87 23 102 49 102 C 67 102 89 87 81 79 C 78 77 77 77 70 82 C 49 94 27 79 23 52 C 22 49 23 46 24 44 C 25 43 27 43 28 41 C 34 41 40 41 47 41 C 77 43 84 41 84 31 C 84 14 59 1 40 6 M 60 19 C 63 22 63 28 60 30 C 56 33 33 33 30 30 C 27 27 31 20 41 15 C 46 14 56 15 60 19 z" fill="black"/><!-- width=94 height=113 -->
<path id="gl514" d="M 28 6 C 17 9 9 18 9 29 C 9 41 13 46 32 57 C 47 67 50 73 46 82 C 39 93 26 90 17 77 C 13 70 12 69 9 70 C 6 70 6 70 6 78 C 6 93 12 96 31 96 C 52 96 62 89 63 74 C 64 60 58 52 41 42 C 27 34 23 28 27 21 C 31 11 41 11 50 21 C 59 29 64 29 63 18 C 62 8 55 4 42 4 C 37 4 31 4 28 6 z" fill="black"/><!-- width=75 height=108 -->
<path id="gl517" d="M 24 6 C 19 8 11 14 9 17 C 9 18 11 22 12 25 C 13 28 14 29 14 32 C 14 49 14 66 14 83 C 14 137 14 141 8 147 C 1 155 4 157 28 157 C 46 157 48 156 48 152 C 48 150 48 149 43 146 C 35 142 33 140 33 120 C 33 102 34 101 45 102 C 76 104 102 81 103 48 C 103 19 77 0 52 8 C 40 13 36 13 34 9 C 32 6 28 4 24 6 M 70 25 C 83 34 86 61 75 80 C 66 93 44 96 36 82 C 34 78 33 76 33 56 C 33 27 35 23 46 22 C 55 20 64 22 70 25 z" fill="black"/><!-- width=114 height=167 -->
<path id="gl260" d="M 15 7 C 7 11 6 14 11 22 C 11 23 12 25 13 27 C 13 45 13 63 13 82 C 14 147 14 147 8 153 C 1 160 3 163 23 163 C 41 163 44 160 36 152 C 35 151 33 149 31 147 C 31 124 31 100 31 77 C 31 2 31 3 25 3 C 24 3 19 6 15 7 z" fill="black"/><!-- width=51 height=172 -->
<path id="gl9" d="M 37 7 C 20 12 7 22 7 31 C 7 41 23 38 27 27 C 31 18 37 15 46 17 C 52 20 55 25 55 35 C 56 47 53 48 37 55 C 13 61 7 66 7 78 C 7 96 25 105 43 95 C 52 91 55 91 62 96 C 72 103 95 96 88 88 C 87 87 85 87 82 87 C 71 87 70 81 72 51 C 72 33 72 27 72 22 C 68 8 53 2 37 7 M 53 63 C 58 71 51 86 42 87 C 20 87 21 68 42 61 C 48 60 51 60 53 63 z" fill="black"/><!-- width=98 height=110 -->
<path id="gl5142" d="M 41 6 C 17 13 4 30 7 59 C 8 82 18 96 40 99 C 59 104 88 88 83 78 C 81 75 78 75 71 80 C 50 96 23 78 23 49 C 23 19 48 4 69 22 C 75 28 82 24 82 17 C 82 6 64 1 41 6 z" fill="black"/><!-- width=92 height=112 -->
<path id="gl2" d="M 18 4 C 11 8 9 19 14 25 C 27 37 43 19 32 7 C 28 3 23 3 18 4 M 18 61 C 9 66 8 70 13 79 C 14 82 16 85 14 110 C 14 119 14 128 14 137 C 13 139 12 140 9 142 C 4 148 4 148 7 150 C 8 152 12 152 24 152 C 45 152 48 150 39 140 C 37 139 35 138 34 137 C 34 124 34 112 34 100 C 34 79 33 61 33 60 C 32 58 25 58 18 61 z" fill="black"/><!-- width=54 height=163 -->
<path id="gl3" d="M 20 8 C 10 13 8 16 13 23 C 16 27 16 28 16 50 C 17 79 16 83 10 89 C 2 96 3 98 25 99 C 46 99 49 96 40 88 C 39 86 36 85 35 84 C 35 75 35 66 35 57 C 33 23 36 20 54 20 C 73 20 75 23 75 56 C 74 83 74 85 67 89 C 64 93 64 96 67 98 C 71 99 101 99 104 98 C 105 95 104 91 99 89 C 94 85 94 83 93 52 C 93 25 93 23 90 18 C 81 3 67 2 44 12 C 39 13 39 13 36 10 C 31 5 27 5 20 8 z" fill="black"/><!-- width=115 height=110 -->
<path id="gl521" d="M 35 6 C 11 11 1 37 15 58 C 20 64 20 68 17 73 C 7 81 7 85 14 95 C 20 102 20 105 14 112 C 7 119 6 122 6 129 C 6 165 77 163 92 128 C 101 111 96 94 80 89 C 77 88 70 86 55 88 C 34 88 34 88 30 85 C 22 77 28 69 46 67 C 68 66 77 58 80 37 C 81 28 84 24 90 23 C 103 20 97 11 83 11 C 78 11 72 11 66 8 C 55 4 42 3 35 6 M 55 17 C 68 29 63 57 47 59 C 37 62 28 50 28 36 C 28 19 44 8 55 17 M 73 105 C 85 112 83 132 68 139 C 59 143 42 143 34 139 C 18 130 20 107 39 102 C 47 101 67 102 73 105 z" fill="black"/><!-- width=106 height=166 -->
<path id="gl1" d="M 20 11 C 18 13 14 17 11 19 C 4 23 4 25 8 30 C 11 31 12 34 13 35 C 13 36 13 50 13 66 C 13 96 14 103 23 106 C 34 111 54 109 57 103 C 61 98 58 95 49 96 C 33 96 31 94 31 58 C 30 28 30 29 42 29 C 55 30 57 30 60 28 C 62 25 62 24 60 22 C 58 18 58 18 47 18 C 35 17 34 17 31 9 C 29 3 24 3 20 11 z" fill="black"/><!-- width=71 height=121 -->
<path id="gl9" d="M 37 7 C 20 12 7 22 7 31 C 7 41 23 38 27 27 C 31 18 37 15 46 17 C 52 20 55 25 55 35 C 56 47 53 48 37 55 C 13 61 7 66 7 78 C 7 96 25 105 43 95 C 52 91 55 91 62 96 C 72 103 95 96 88 88 C 87 87 85 87 82 87 C 71 87 70 81 72 51 C 72 33 72 27 72 22 C 68 8 53 2 37 7 M 53 63 C 58 71 51 86 42 87 C 20 87 21 68 42 61 C 48 60 51 60 53 63 z" fill="black"/><!-- width=98 height=110 -->
<path id="gl515" d="M 32 6 C 12 9 3 27 13 43 C 16 48 22 53 33 59 C 42 64 45 70 45 76 C 45 94 28 95 17 79 C 9 68 6 68 6 79 C 6 91 11 96 22 97 C 51 102 71 82 60 60 C 56 55 51 50 40 44 C 27 35 23 29 27 22 C 30 12 40 12 50 22 C 58 29 63 29 63 21 C 63 8 51 3 32 6 z" fill="black"/><!-- width=74 height=110 -->
<path id="gl775" d="M 18 7 C 8 12 7 14 12 23 C 13 25 14 28 15 30 C 15 49 15 68 15 87 C 15 149 15 149 8 154 C 4 157 4 160 7 161 C 9 163 17 164 24 164 C 45 164 50 160 40 153 C 35 149 33 144 33 132 C 33 115 40 115 53 132 C 66 148 66 148 63 154 C 62 163 63 164 85 164 C 101 164 103 163 105 161 C 107 158 106 155 100 152 C 93 149 85 143 73 130 C 60 115 58 112 61 107 C 62 103 78 89 89 84 C 99 79 100 77 96 73 C 95 71 77 71 67 72 C 60 74 58 74 60 82 C 62 90 60 94 49 104 C 42 110 39 111 35 106 C 33 104 33 77 35 25 C 36 2 34 0 18 7 z" fill="black"/><!-- width=115 height=174 -->
<path id="gl257" d="M 31 6 C 24 8 17 13 13 20 C 6 35 11 45 33 58 C 48 69 52 77 45 85 C 37 94 25 91 19 80 C 11 66 3 67 6 82 C 7 93 13 99 28 100 C 53 104 72 83 62 62 C 60 55 56 52 42 44 C 26 34 22 26 30 18 C 37 12 46 14 53 24 C 60 33 67 29 64 18 C 62 7 50 3 31 6 z" fill="black"/><!-- width=78 height=112 -->
<path id="gl2" d="M 18 4 C 11 8 9 19 14 25 C 27 37 43 19 32 7 C 28 3 23 3 18 4 M 18 61 C 9 66 8 70 13 79 C 14 82 16 85 14 110 C 14 119 14 128 14 137 C 13 139 12 140 9 142 C 4 148 4 148 7 150 C 8 152 12 152 24 152 C 45 152 48 150 39 140 C 37 139 35 138 34 137 C 34 124 34 112 34 100 C 34 79 33 61 33 60 C 32 58 25 58 18 61 z" fill="black"/><!-- width=54 height=163 -->
<path id="gl1026" d="M 21 10 C 10 14 9 18 14 26 C 15 27 16 30 18 32 C 16 40 16 50 16 58 C 16 67 16 76 16 85 C 14 87 13 88 10 91 C 9 93 8 94 6 97 C 7 97 7 98 8 98 C 12 102 42 102 44 99 C 46 97 46 94 42 91 C 36 86 34 82 34 57 C 34 32 36 28 44 24 C 49 21 62 20 67 24 C 75 27 75 30 75 58 C 75 68 75 76 75 85 C 74 87 72 88 70 91 C 64 96 64 97 67 98 C 70 102 100 102 104 98 C 106 96 106 96 102 92 C 94 85 94 84 94 55 C 94 42 93 28 93 26 C 88 9 69 3 50 12 C 43 15 39 15 37 13 C 33 6 30 6 21 10 z" fill="black"/><!-- width=116 height=111 -->
<path id="gl1" d="M 20 11 C 18 13 14 17 11 19 C 4 23 4 25 8 30 C 11 31 12 34 13 35 C 13 36 13 50 13 66 C 13 96 14 103 23 106 C 34 111 54 109 57 103 C 61 98 58 95 49 96 C 33 96 31 94 31 58 C 30 28 30 29 42 29 C 55 30 57 30 60 28 C 62 25 62 24 60 22 C 58 18 58 18 47 18 C 35 17 34 17 31 9 C 29 3 24 3 20 11 z" fill="black"/><!-- width=71 height=121 -->
<path id="gl8" d="M 20 8 C 9 12 8 16 13 25 C 14 26 15 29 15 30 C 15 49 15 67 15 87 C 15 148 16 148 9 154 C 6 158 4 159 6 160 C 8 163 41 164 43 162 C 45 160 45 157 41 153 C 38 152 36 148 36 147 C 35 142 35 95 36 93 C 41 84 55 82 64 87 C 75 91 76 95 75 124 C 75 131 75 140 75 148 C 73 150 71 151 70 153 C 64 158 64 158 65 162 C 67 165 104 164 106 160 C 107 158 107 158 104 156 C 94 148 93 145 94 118 C 95 99 94 89 89 82 C 81 71 66 67 52 73 C 36 81 33 78 35 61 C 36 44 36 9 35 7 C 32 4 27 4 20 8 z" fill="black"/><!-- width=117 height=174 -->
<path id="gl5" d="M 38 7 C 19 13 8 30 8 56 C 8 80 20 96 42 99 C 55 101 71 96 78 89 C 85 79 80 76 69 82 C 49 91 24 76 24 51 C 24 40 24 40 53 40 C 61 40 69 40 78 40 C 78 39 79 38 80 36 C 84 33 84 28 80 22 C 74 8 56 2 38 7 M 57 15 C 65 20 65 28 57 30 C 52 33 35 33 33 30 C 30 28 30 25 34 22 C 40 14 50 12 57 15 z" fill="black"/><!-- width=94 height=112 -->
<path id="gl777" d="M 44 6 C 29 9 18 17 12 29 C 3 48 7 75 19 86 C 37 103 68 101 83 85 C 91 75 85 68 75 75 C 68 81 65 83 55 83 C 31 83 16 55 28 32 C 37 13 55 11 72 23 C 79 31 89 21 84 11 C 80 4 58 2 44 6 z" fill="black"/><!-- width=98 height=110 -->
<path id="gl9" d="M 37 7 C 20 12 7 22 7 31 C 7 41 23 38 27 27 C 31 18 37 15 46 17 C 52 20 55 25 55 35 C 56 47 53 48 37 55 C 13 61 7 66 7 78 C 7 96 25 105 43 95 C 52 91 55 91 62 96 C 72 103 95 96 88 88 C 87 87 85 87 82 87 C 71 87 70 81 72 51 C 72 33 72 27 72 22 C 68 8 53 2 37 7 M 53 63 C 58 71 51 86 42 87 C 20 87 21 68 42 61 C 48 60 51 60 53 63 z" fill="black"/><!-- width=98 height=110 -->
<path id="gl1" d="M 20 11 C 18 13 14 17 11 19 C 4 23 4 25 8 30 C 11 31 12 34 13 35 C 13 36 13 50 13 66 C 13 96 14 103 23 106 C 34 111 54 109 57 103 C 61 98 58 95 49 96 C 33 96 31 94 31 58 C 30 28 30 29 42 29 C 55 30 57 30 60 28 C 62 25 62 24 60 22 C 58 18 58 18 47 18 C 35 17 34 17 31 9 C 29 3 24 3 20 11 z" fill="black"/><!-- width=71 height=121 -->
<path id="gl261" d="M 39 6 C 18 10 7 26 7 54 C 7 73 9 79 18 87 C 32 102 63 102 75 87 C 83 80 76 76 67 81 C 46 92 23 75 21 51 C 21 40 23 39 50 40 C 76 41 80 40 81 30 C 81 13 59 1 39 6 M 54 15 C 62 18 62 28 54 30 C 50 32 34 32 30 31 C 28 29 28 25 32 20 C 37 14 46 12 54 15 z" fill="black"/><!-- width=91 height=111 -->
<path id="gl4888" d="M 34 7 C 11 14 3 39 17 59 C 23 67 23 71 17 77 C 9 84 9 89 16 96 C 22 103 22 105 17 110 C 7 122 5 129 10 139 C 19 156 53 160 77 147 C 98 135 107 110 92 96 C 86 89 79 87 58 89 C 38 90 32 89 29 83 C 26 74 33 71 49 68 C 71 67 80 59 83 38 C 85 28 86 26 92 24 C 105 22 102 11 87 11 C 82 11 76 11 70 9 C 58 5 41 4 34 7 M 55 17 C 70 28 67 55 52 60 C 42 64 33 55 30 42 C 27 23 43 8 55 17 M 74 107 C 87 114 85 130 70 139 C 64 141 48 142 41 140 C 23 136 21 112 36 105 C 42 103 67 103 74 107 z" fill="black"/><!-- width=110 height=165 -->
<path id="gl0" d="M 42 6 C 27 8 16 17 10 31 C 5 42 6 67 11 77 C 30 111 83 106 95 68 C 106 31 78 -1 42 6 M 61 18 C 81 28 82 73 63 86 C 45 99 23 78 26 47 C 27 22 42 8 61 18 z" fill="black"/><!-- width=111 height=111 -->
<path id="gl4" d="M 16 9 C 8 13 7 16 12 24 C 13 28 14 32 14 54 C 14 80 13 86 8 87 C 6 90 3 94 4 95 C 7 99 44 99 45 95 C 47 92 44 90 40 90 C 39 90 37 87 35 86 C 34 85 33 84 32 84 C 32 74 32 65 32 56 C 32 29 32 29 34 26 C 38 22 43 22 49 24 C 59 28 66 24 66 17 C 66 4 55 2 44 11 C 37 16 34 14 32 9 C 29 4 26 3 16 9 z" fill="black"/><!-- width=76 height=108 -->
<path id="gl2" d="M 18 4 C 11 8 9 19 14 25 C 27 37 43 19 32 7 C 28 3 23 3 18 4 M 18 61 C 9 66 8 70 13 79 C 14 82 16 85 14 110 C 14 119 14 128 14 137 C 13 139 12 140 9 142 C 4 148 4 148 7 150 C 8 152 12 152 24 152 C 45 152 48 150 39 140 C 37 139 35 138 34 137 C 34 124 34 112 34 100 C 34 79 33 61 33 60 C 32 58 25 58 18 61 z" fill="black"/><!-- width=54 height=163 -->
<path id="gl261" d="M 39 6 C 18 10 7 26 7 54 C 7 73 9 79 18 87 C 32 102 63 102 75 87 C 83 80 76 76 67 81 C 46 92 23 75 21 51 C 21 40 23 39 50 40 C 76 41 80 40 81 30 C 81 13 59 1 39 6 M 54 15 C 62 18 62 28 54 30 C 50 32 34 32 30 31 C 28 29 28 25 32 20 C 37 14 46 12 54 15 z" fill="black"/><!-- width=91 height=111 -->
<path id="gl4875" d="M 29 6 C 14 7 8 16 8 28 C 8 42 11 45 32 59 C 44 66 48 76 40 85 C 34 94 22 90 13 76 C 7 68 3 68 3 76 C 2 91 11 98 29 97 C 49 96 59 87 59 72 C 59 59 54 51 38 43 C 23 34 18 25 25 18 C 32 11 42 12 48 21 C 55 29 59 29 59 19 C 59 7 49 2 29 6 z" fill="black"/><!-- width=71 height=108 -->
<path id="gl0" d="M 42 6 C 27 8 16 17 10 31 C 5 42 6 67 11 77 C 30 111 83 106 95 68 C 106 31 78 -1 42 6 M 61 18 C 81 28 82 73 63 86 C 45 99 23 78 26 47 C 27 22 42 8 61 18 z" fill="black"/><!-- width=111 height=111 -->
<path id="gl9764" d="M 48 6 C 30 12 19 29 15 54 C 14 69 13 73 9 76 C 6 80 6 84 9 86 C 14 90 15 94 14 117 C 14 146 14 152 8 156 C 6 158 3 160 4 162 C 4 164 6 164 24 166 C 36 166 43 166 46 164 C 48 163 48 158 43 157 C 34 152 34 152 32 119 C 32 86 32 86 46 87 C 57 89 61 87 63 83 C 65 76 62 74 47 74 C 31 74 30 72 35 43 C 40 17 50 10 67 24 C 75 30 84 28 84 19 C 84 6 67 1 48 6 z" fill="black"/><!-- width=94 height=175 -->
<path id="gl261" d="M 39 6 C 18 10 7 26 7 54 C 7 73 9 79 18 87 C 32 102 63 102 75 87 C 83 80 76 76 67 81 C 46 92 23 75 21 51 C 21 40 23 39 50 40 C 76 41 80 40 81 30 C 81 13 59 1 39 6 M 54 15 C 62 18 62 28 54 30 C 50 32 34 32 30 31 C 28 29 28 25 32 20 C 37 14 46 12 54 15 z" fill="black"/><!-- width=91 height=111 -->
<path id="gl772" d="M 7 7 C 5 10 6 12 12 17 C 18 21 35 42 37 49 C 40 55 25 74 10 85 C 6 89 5 89 6 92 C 8 94 8 95 18 95 C 32 95 34 94 34 85 C 32 75 39 64 45 64 C 49 64 54 69 56 75 C 59 79 59 80 56 85 C 54 94 55 95 73 95 C 93 95 97 93 85 84 C 78 78 59 55 58 49 C 55 41 66 25 79 17 C 93 10 92 6 74 6 C 60 6 60 6 59 16 C 59 31 50 37 42 29 C 39 25 37 21 39 13 C 40 7 37 6 22 6 C 13 6 8 6 7 7 z" fill="black"/><!-- width=102 height=104 -->
<path id="gl768" d="M 19 11 C 14 16 11 19 11 19 C 7 19 8 24 11 28 C 12 29 13 31 16 33 C 16 42 16 50 16 59 C 16 95 16 99 27 105 C 37 110 59 106 58 99 C 58 95 58 95 49 95 C 33 94 33 91 32 55 C 32 26 32 27 48 27 C 59 28 62 27 62 22 C 62 17 58 14 48 16 C 39 17 33 13 33 9 C 33 7 31 4 28 4 C 27 4 23 7 19 11 z" fill="black"/><!-- width=73 height=117 -->
<path id="gl518" d="M 21 7 C 10 12 7 15 12 22 C 15 27 15 28 15 55 C 15 64 15 73 15 81 C 13 83 12 84 10 86 C 2 94 3 95 25 97 C 44 97 49 97 47 93 C 47 90 46 89 40 86 C 34 85 32 83 32 57 C 32 35 32 28 36 23 C 39 21 46 21 50 23 C 62 30 74 18 65 8 C 60 5 55 5 46 10 C 37 13 36 13 32 8 C 28 3 30 3 21 7 z" fill="black"/><!-- width=78 height=107 -->
<path id="gl6" d="M 39 3 C 18 9 7 26 7 52 C 7 80 22 96 50 94 C 65 94 78 86 78 78 C 78 74 75 74 67 78 C 47 88 21 72 21 47 C 21 37 23 37 50 37 C 78 37 79 37 80 29 C 83 13 59 0 39 3 M 57 14 C 67 22 59 29 42 29 C 29 29 26 27 29 21 C 34 12 50 8 57 14 z" fill="black"/><!-- width=91 height=106 -->
<path id="gl259" d="M 19 8 C 9 13 8 16 13 25 C 19 38 17 88 9 88 C 9 88 8 91 7 92 C 3 98 6 100 24 100 C 46 100 48 98 40 88 C 39 87 37 86 35 83 C 35 75 35 66 35 58 C 34 29 35 27 43 22 C 49 18 62 19 69 24 C 74 29 74 34 74 55 C 74 79 74 83 69 88 C 65 92 64 97 66 98 C 66 98 74 100 83 100 C 104 100 107 97 98 88 C 97 87 95 86 93 83 C 93 75 93 66 93 58 C 93 33 93 32 96 28 C 102 17 123 17 129 29 C 132 33 132 37 132 56 C 132 81 132 85 125 88 C 122 92 122 97 124 98 C 128 100 158 100 160 97 C 163 96 163 93 158 90 C 151 85 150 82 150 55 C 150 28 150 23 145 16 C 137 3 118 2 101 12 C 93 17 90 17 83 13 C 72 4 64 3 51 8 C 40 13 38 13 35 9 C 32 4 28 4 19 8 z" fill="black"/><!-- width=172 height=109 -->
<path id="gl5" d="M 38 7 C 19 13 8 30 8 56 C 8 80 20 96 42 99 C 55 101 71 96 78 89 C 85 79 80 76 69 82 C 49 91 24 76 24 51 C 24 40 24 40 53 40 C 61 40 69 40 78 40 C 78 39 79 38 80 36 C 84 33 84 28 80 22 C 74 8 56 2 38 7 M 57 15 C 65 20 65 28 57 30 C 52 33 35 33 33 30 C 30 28 30 25 34 22 C 40 14 50 12 57 15 z" fill="black"/><!-- width=94 height=112 -->
<path id="gl260" d="M 15 7 C 7 11 6 14 11 22 C 11 23 12 25 13 27 C 13 45 13 63 13 82 C 14 147 14 147 8 153 C 1 160 3 163 23 163 C 41 163 44 160 36 152 C 35 151 33 149 31 147 C 31 124 31 100 31 77 C 31 2 31 3 25 3 C 24 3 19 6 15 7 z" fill="black"/><!-- width=51 height=172 -->
<path id="gl776" d="M 8 6 C 4 7 6 10 10 14 C 18 19 20 23 30 49 C 43 86 43 90 37 106 C 30 119 28 123 19 125 C 10 129 8 131 8 137 C 8 143 13 147 20 147 C 29 147 35 139 58 85 C 62 76 67 65 69 60 C 73 57 78 46 82 37 C 89 24 91 20 96 17 C 107 7 104 3 86 3 C 69 3 64 7 71 13 C 75 18 74 23 69 39 C 57 68 54 69 45 40 C 39 21 39 19 42 14 C 45 9 45 7 41 4 C 37 3 12 3 8 6 z" fill="black"/><!-- width=112 height=157 -->
<path id="gl2" d="M 18 4 C 11 8 9 19 14 25 C 27 37 43 19 32 7 C 28 3 23 3 18 4 M 18 61 C 9 66 8 70 13 79 C 14 82 16 85 14 110 C 14 119 14 128 14 137 C 13 139 12 140 9 142 C 4 148 4 148 7 150 C 8 152 12 152 24 152 C 45 152 48 150 39 140 C 37 139 35 138 34 137 C 34 124 34 112 34 100 C 34 79 33 61 33 60 C 32 58 25 58 18 61 z" fill="black"/><!-- width=54 height=163 -->
<path id="gl259" d="M 19 8 C 9 13 8 16 13 25 C 19 38 17 88 9 88 C 9 88 8 91 7 92 C 3 98 6 100 24 100 C 46 100 48 98 40 88 C 39 87 37 86 35 83 C 35 75 35 66 35 58 C 34 29 35 27 43 22 C 49 18 62 19 69 24 C 74 29 74 34 74 55 C 74 79 74 83 69 88 C 65 92 64 97 66 98 C 66 98 74 100 83 100 C 104 100 107 97 98 88 C 97 87 95 86 93 83 C 93 75 93 66 93 58 C 93 33 93 32 96 28 C 102 17 123 17 129 29 C 132 33 132 37 132 56 C 132 81 132 85 125 88 C 122 92 122 97 124 98 C 128 100 158 100 160 97 C 163 96 163 93 158 90 C 151 85 150 82 150 55 C 150 28 150 23 145 16 C 137 3 118 2 101 12 C 93 17 90 17 83 13 C 72 4 64 3 51 8 C 40 13 38 13 35 9 C 32 4 28 4 19 8 z" fill="black"/><!-- width=172 height=109 -->
<path id="gl28942" d="M 17 8 C 13 9 8 16 8 18 C 8 19 8 22 11 25 C 14 34 13 139 9 145 C 2 155 6 157 25 157 C 45 157 48 155 38 146 C 35 145 34 143 32 141 C 32 135 32 129 32 124 C 30 102 30 102 49 101 C 80 99 98 80 98 49 C 98 17 73 0 46 9 C 36 13 35 13 32 8 C 28 4 24 4 17 8 M 60 22 C 90 30 82 91 51 91 C 43 91 35 87 33 82 C 30 76 30 33 33 27 C 36 20 48 18 60 22 z" fill="black"/><!-- width=110 height=167 -->
<path id="gl0" d="M 42 6 C 27 8 16 17 10 31 C 5 42 6 67 11 77 C 30 111 83 106 95 68 C 106 31 78 -1 42 6 M 61 18 C 81 28 82 73 63 86 C 45 99 23 78 26 47 C 27 22 42 8 61 18 z" fill="black"/><!-- width=111 height=111 -->
<path id="gl4" d="M 16 9 C 8 13 7 16 12 24 C 13 28 14 32 14 54 C 14 80 13 86 8 87 C 6 90 3 94 4 95 C 7 99 44 99 45 95 C 47 92 44 90 40 90 C 39 90 37 87 35 86 C 34 85 33 84 32 84 C 32 74 32 65 32 56 C 32 29 32 29 34 26 C 38 22 43 22 49 24 C 59 28 66 24 66 17 C 66 4 55 2 44 11 C 37 16 34 14 32 9 C 29 4 26 3 16 9 z" fill="black"/><!-- width=76 height=108 -->
<path id="gl768" d="M 19 11 C 14 16 11 19 11 19 C 7 19 8 24 11 28 C 12 29 13 31 16 33 C 16 42 16 50 16 59 C 16 95 16 99 27 105 C 37 110 59 106 58 99 C 58 95 58 95 49 95 C 33 94 33 91 32 55 C 32 26 32 27 48 27 C 59 28 62 27 62 22 C 62 17 58 14 48 16 C 39 17 33 13 33 9 C 33 7 31 4 28 4 C 27 4 23 7 19 11 z" fill="black"/><!-- width=73 height=117 -->
<path id="gl9" d="M 37 7 C 20 12 7 22 7 31 C 7 41 23 38 27 27 C 31 18 37 15 46 17 C 52 20 55 25 55 35 C 56 47 53 48 37 55 C 13 61 7 66 7 78 C 7 96 25 105 43 95 C 52 91 55 91 62 96 C 72 103 95 96 88 88 C 87 87 85 87 82 87 C 71 87 70 81 72 51 C 72 33 72 27 72 22 C 68 8 53 2 37 7 M 53 63 C 58 71 51 86 42 87 C 20 87 21 68 42 61 C 48 60 51 60 53 63 z" fill="black"/><!-- width=98 height=110 -->
<path id="gl1026" d="M 21 10 C 10 14 9 18 14 26 C 15 27 16 30 18 32 C 16 40 16 50 16 58 C 16 67 16 76 16 85 C 14 87 13 88 10 91 C 9 93 8 94 6 97 C 7 97 7 98 8 98 C 12 102 42 102 44 99 C 46 97 46 94 42 91 C 36 86 34 82 34 57 C 34 32 36 28 44 24 C 49 21 62 20 67 24 C 75 27 75 30 75 58 C 75 68 75 76 75 85 C 74 87 72 88 70 91 C 64 96 64 97 67 98 C 70 102 100 102 104 98 C 106 96 106 96 102 92 C 94 85 94 84 94 55 C 94 42 93 28 93 26 C 88 9 69 3 50 12 C 43 15 39 15 37 13 C 33 6 30 6 21 10 z" fill="black"/><!-- width=116 height=111 -->
<path id="gl768" d="M 19 11 C 14 16 11 19 11 19 C 7 19 8 24 11 28 C 12 29 13 31 16 33 C 16 42 16 50 16 59 C 16 95 16 99 27 105 C 37 110 59 106 58 99 C 58 95 58 95 49 95 C 33 94 33 91 32 55 C 32 26 32 27 48 27 C 59 28 62 27 62 22 C 62 17 58 14 48 16 C 39 17 33 13 33 9 C 33 7 31 4 28 4 C 27 4 23 7 19 11 z" fill="black"/><!-- width=73 height=117 -->
<path id="gl519" d="M 11 5 C 3 8 5 19 12 22 C 24 29 22 40 11 48 C 2 53 2 58 11 57 C 22 54 33 39 33 25 C 33 13 20 1 11 5 z" fill="black"/><!-- width=44 height=67 -->
<path id="gl1025" d="M 7 8 C 4 11 4 11 12 17 C 18 23 19 24 26 38 C 28 47 33 59 36 65 C 39 72 42 80 43 84 C 48 102 54 100 62 80 C 67 68 70 60 84 31 C 88 24 90 19 95 16 C 102 11 102 9 99 7 C 97 4 77 4 72 6 C 69 7 69 12 72 16 C 74 19 74 22 68 37 C 62 56 59 63 57 63 C 54 63 51 59 48 51 C 46 46 43 38 42 34 C 38 26 38 18 41 14 C 46 7 42 4 23 4 C 11 4 9 6 7 8 z" fill="black"/><!-- width=110 height=107 -->
<path id="gl6" d="M 39 3 C 18 9 7 26 7 52 C 7 80 22 96 50 94 C 65 94 78 86 78 78 C 78 74 75 74 67 78 C 47 88 21 72 21 47 C 21 37 23 37 50 37 C 78 37 79 37 80 29 C 83 13 59 0 39 3 M 57 14 C 67 22 59 29 42 29 C 29 29 26 27 29 21 C 34 12 50 8 57 14 z" fill="black"/><!-- width=91 height=106 -->
<path id="gl518" d="M 21 7 C 10 12 7 15 12 22 C 15 27 15 28 15 55 C 15 64 15 73 15 81 C 13 83 12 84 10 86 C 2 94 3 95 25 97 C 44 97 49 97 47 93 C 47 90 46 89 40 86 C 34 85 32 83 32 57 C 32 35 32 28 36 23 C 39 21 46 21 50 23 C 62 30 74 18 65 8 C 60 5 55 5 46 10 C 37 13 36 13 32 8 C 28 3 30 3 21 7 z" fill="black"/><!-- width=78 height=107 -->
<path id="gl263" d="M 9 4 C 4 7 4 9 9 16 C 16 22 17 22 26 46 C 41 86 42 89 33 107 C 27 119 23 123 16 125 C 3 129 2 144 14 147 C 24 149 29 142 53 88 C 57 79 63 67 66 62 C 69 56 74 44 78 37 C 82 29 87 22 91 17 C 100 7 99 3 82 3 C 67 3 63 6 69 14 C 72 19 72 22 66 38 C 58 58 57 61 53 61 C 49 61 47 57 41 39 C 36 23 36 19 38 13 C 41 9 41 8 38 7 C 36 4 14 3 9 4 z" fill="black"/><!-- width=107 height=157 -->
<path id="gl2" d="M 18 4 C 11 8 9 19 14 25 C 27 37 43 19 32 7 C 28 3 23 3 18 4 M 18 61 C 9 66 8 70 13 79 C 14 82 16 85 14 110 C 14 119 14 128 14 137 C 13 139 12 140 9 142 C 4 148 4 148 7 150 C 8 152 12 152 24 152 C 45 152 48 150 39 140 C 37 139 35 138 34 137 C 34 124 34 112 34 100 C 34 79 33 61 33 60 C 32 58 25 58 18 61 z" fill="black"/><!-- width=54 height=163 -->
<path id="gl259" d="M 19 8 C 9 13 8 16 13 25 C 19 38 17 88 9 88 C 9 88 8 91 7 92 C 3 98 6 100 24 100 C 46 100 48 98 40 88 C 39 87 37 86 35 83 C 35 75 35 66 35 58 C 34 29 35 27 43 22 C 49 18 62 19 69 24 C 74 29 74 34 74 55 C 74 79 74 83 69 88 C 65 92 64 97 66 98 C 66 98 74 100 83 100 C 104 100 107 97 98 88 C 97 87 95 86 93 83 C 93 75 93 66 93 58 C 93 33 93 32 96 28 C 102 17 123 17 129 29 C 132 33 132 37 132 56 C 132 81 132 85 125 88 C 122 92 122 97 124 98 C 128 100 158 100 160 97 C 163 96 163 93 158 90 C 151 85 150 82 150 55 C 150 28 150 23 145 16 C 137 3 118 2 101 12 C 93 17 90 17 83 13 C 72 4 64 3 51 8 C 40 13 38 13 35 9 C 32 4 28 4 19 8 z" fill="black"/><!-- width=172 height=109 -->
<path id="gl517" d="M 24 6 C 19 8 11 14 9 17 C 9 18 11 22 12 25 C 13 28 14 29 14 32 C 14 49 14 66 14 83 C 14 137 14 141 8 147 C 1 155 4 157 28 157 C 46 157 48 156 48 152 C 48 150 48 149 43 146 C 35 142 33 140 33 120 C 33 102 34 101 45 102 C 76 104 102 81 103 48 C 103 19 77 0 52 8 C 40 13 36 13 34 9 C 32 6 28 4 24 6 M 70 25 C 83 34 86 61 75 80 C 66 93 44 96 36 82 C 34 78 33 76 33 56 C 33 27 35 23 46 22 C 55 20 64 22 70 25 z" fill="black"/><!-- width=114 height=167 -->
<path id="gl0" d="M 42 6 C 27 8 16 17 10 31 C 5 42 6 67 11 77 C 30 111 83 106 95 68 C 106 31 78 -1 42 6 M 61 18 C 81 28 82 73 63 86 C 45 99 23 78 26 47 C 27 22 42 8 61 18 z" fill="black"/><!-- width=111 height=111 -->
<path id="gl4" d="M 16 9 C 8 13 7 16 12 24 C 13 28 14 32 14 54 C 14 80 13 86 8 87 C 6 90 3 94 4 95 C 7 99 44 99 45 95 C 47 92 44 90 40 90 C 39 90 37 87 35 86 C 34 85 33 84 32 84 C 32 74 32 65 32 56 C 32 29 32 29 34 26 C 38 22 43 22 49 24 C 59 28 66 24 66 17 C 66 4 55 2 44 11 C 37 16 34 14 32 9 C 29 4 26 3 16 9 z" fill="black"/><!-- width=76 height=108 -->
<path id="gl768" d="M 19 11 C 14 16 11 19 11 19 C 7 19 8 24 11 28 C 12 29 13 31 16 33 C 16 42 16 50 16 59 C 16 95 16 99 27 105 C 37 110 59 106 58 99 C 58 95 58 95 49 95 C 33 94 33 91 32 55 C 32 26 32 27 48 27 C 59 28 62 27 62 22 C 62 17 58 14 48 16 C 39 17 33 13 33 9 C 33 7 31 4 28 4 C 27 4 23 7 19 11 z" fill="black"/><!-- width=73 height=117 -->
<path id="gl9" d="M 37 7 C 20 12 7 22 7 31 C 7 41 23 38 27 27 C 31 18 37 15 46 17 C 52 20 55 25 55 35 C 56 47 53 48 37 55 C 13 61 7 66 7 78 C 7 96 25 105 43 95 C 52 91 55 91 62 96 C 72 103 95 96 88 88 C 87 87 85 87 82 87 C 71 87 70 81 72 51 C 72 33 72 27 72 22 C 68 8 53 2 37 7 M 53 63 C 58 71 51 86 42 87 C 20 87 21 68 42 61 C 48 60 51 60 53 63 z" fill="black"/><!-- width=98 height=110 -->
<path id="gl3" d="M 20 8 C 10 13 8 16 13 23 C 16 27 16 28 16 50 C 17 79 16 83 10 89 C 2 96 3 98 25 99 C 46 99 49 96 40 88 C 39 86 36 85 35 84 C 35 75 35 66 35 57 C 33 23 36 20 54 20 C 73 20 75 23 75 56 C 74 83 74 85 67 89 C 64 93 64 96 67 98 C 71 99 101 99 104 98 C 105 95 104 91 99 89 C 94 85 94 83 93 52 C 93 25 93 23 90 18 C 81 3 67 2 44 12 C 39 13 39 13 36 10 C 31 5 27 5 20 8 z" fill="black"/><!-- width=115 height=110 -->
<path id="gl768" d="M 19 11 C 14 16 11 19 11 19 C 7 19 8 24 11 28 C 12 29 13 31 16 33 C 16 42 16 50 16 59 C 16 95 16 99 27 105 C 37 110 59 106 58 99 C 58 95 58 95 49 95 C 33 94 33 91 32 55 C 32 26 32 27 48 27 C 59 28 62 27 62 22 C 62 17 58 14 48 16 C 39 17 33 13 33 9 C 33 7 31 4 28 4 C 27 4 23 7 19 11 z" fill="black"/><!-- width=73 height=117 -->
<path id="gl519" d="M 11 5 C 3 8 5 19 12 22 C 24 29 22 40 11 48 C 2 53 2 58 11 57 C 22 54 33 39 33 25 C 33 13 20 1 11 5 z" fill="black"/><!-- width=44 height=67 -->
<path id="gl9" d="M 37 7 C 20 12 7 22 7 31 C 7 41 23 38 27 27 C 31 18 37 15 46 17 C 52 20 55 25 55 35 C 56 47 53 48 37 55 C 13 61 7 66 7 78 C 7 96 25 105 43 95 C 52 91 55 91 62 96 C 72 103 95 96 88 88 C 87 87 85 87 82 87 C 71 87 70 81 72 51 C 72 33 72 27 72 22 C 68 8 53 2 37 7 M 53 63 C 58 71 51 86 42 87 C 20 87 21 68 42 61 C 48 60 51 60 53 63 z" fill="black"/><!-- width=98 height=110 -->
<path id="gl1026" d="M 21 10 C 10 14 9 18 14 26 C 15 27 16 30 18 32 C 16 40 16 50 16 58 C 16 67 16 76 16 85 C 14 87 13 88 10 91 C 9 93 8 94 6 97 C 7 97 7 98 8 98 C 12 102 42 102 44 99 C 46 97 46 94 42 91 C 36 86 34 82 34 57 C 34 32 36 28 44 24 C 49 21 62 20 67 24 C 75 27 75 30 75 58 C 75 68 75 76 75 85 C 74 87 72 88 70 91 C 64 96 64 97 67 98 C 70 102 100 102 104 98 C 106 96 106 96 102 92 C 94 85 94 84 94 55 C 94 42 93 28 93 26 C 88 9 69 3 50 12 C 43 15 39 15 37 13 C 33 6 30 6 21 10 z" fill="black"/><!-- width=116 height=111 -->
<path id="gl258" d="M 77 7 C 66 11 65 14 71 25 C 74 32 75 32 75 47 C 75 70 75 69 57 70 C 26 71 11 84 7 112 C 2 148 32 175 62 161 C 69 158 70 158 76 162 C 81 165 81 165 89 164 C 106 161 112 155 101 151 C 99 149 95 148 94 145 C 93 143 93 85 93 35 C 94 26 94 17 94 8 C 93 8 91 7 91 5 C 88 3 85 3 77 7 M 66 82 C 74 87 75 91 74 118 C 74 126 74 134 74 143 C 72 143 71 145 70 145 C 59 156 37 148 29 131 C 16 102 41 68 66 82 z" fill="black"/><!-- width=118 height=176 -->
<path id="gl2" d="M 18 4 C 11 8 9 19 14 25 C 27 37 43 19 32 7 C 28 3 23 3 18 4 M 18 61 C 9 66 8 70 13 79 C 14 82 16 85 14 110 C 14 119 14 128 14 137 C 13 139 12 140 9 142 C 4 148 4 148 7 150 C 8 152 12 152 24 152 C 45 152 48 150 39 140 C 37 139 35 138 34 137 C 34 124 34 112 34 100 C 34 79 33 61 33 60 C 32 58 25 58 18 61 z" fill="black"/><!-- width=54 height=163 -->
<path id="gl259" d="M 19 8 C 9 13 8 16 13 25 C 19 38 17 88 9 88 C 9 88 8 91 7 92 C 3 98 6 100 24 100 C 46 100 48 98 40 88 C 39 87 37 86 35 83 C 35 75 35 66 35 58 C 34 29 35 27 43 22 C 49 18 62 19 69 24 C 74 29 74 34 74 55 C 74 79 74 83 69 88 C 65 92 64 97 66 98 C 66 98 74 100 83 100 C 104 100 107 97 98 88 C 97 87 95 86 93 83 C 93 75 93 66 93 58 C 93 33 93 32 96 28 C 102 17 123 17 129 29 C 132 33 132 37 132 56 C 132 81 132 85 125 88 C 122 92 122 97 124 98 C 128 100 158 100 160 97 C 163 96 163 93 158 90 C 151 85 150 82 150 55 C 150 28 150 23 145 16 C 137 3 118 2 101 12 C 93 17 90 17 83 13 C 72 4 64 3 51 8 C 40 13 38 13 35 9 C 32 4 28 4 19 8 z" fill="black"/><!-- width=172 height=109 -->
<path id="gl517" d="M 24 6 C 19 8 11 14 9 17 C 9 18 11 22 12 25 C 13 28 14 29 14 32 C 14 49 14 66 14 83 C 14 137 14 141 8 147 C 1 155 4 157 28 157 C 46 157 48 156 48 152 C 48 150 48 149 43 146 C 35 142 33 140 33 120 C 33 102 34 101 45 102 C 76 104 102 81 103 48 C 103 19 77 0 52 8 C 40 13 36 13 34 9 C 32 6 28 4 24 6 M 70 25 C 83 34 86 61 75 80 C 66 93 44 96 36 82 C 34 78 33 76 33 56 C 33 27 35 23 46 22 C 55 20 64 22 70 25 z" fill="black"/><!-- width=114 height=167 -->
<path id="gl0" d="M 42 6 C 27 8 16 17 10 31 C 5 42 6 67 11 77 C 30 111 83 106 95 68 C 106 31 78 -1 42 6 M 61 18 C 81 28 82 73 63 86 C 45 99 23 78 26 47 C 27 22 42 8 61 18 z" fill="black"/><!-- width=111 height=111 -->
<path id="gl4" d="M 16 9 C 8 13 7 16 12 24 C 13 28 14 32 14 54 C 14 80 13 86 8 87 C 6 90 3 94 4 95 C 7 99 44 99 45 95 C 47 92 44 90 40 90 C 39 90 37 87 35 86 C 34 85 33 84 32 84 C 32 74 32 65 32 56 C 32 29 32 29 34 26 C 38 22 43 22 49 24 C 59 28 66 24 66 17 C 66 4 55 2 44 11 C 37 16 34 14 32 9 C 29 4 26 3 16 9 z" fill="black"/><!-- width=76 height=108 -->
<path id="gl1" d="M 20 11 C 18 13 14 17 11 19 C 4 23 4 25 8 30 C 11 31 12 34 13 35 C 13 36 13 50 13 66 C 13 96 14 103 23 106 C 34 111 54 109 57 103 C 61 98 58 95 49 96 C 33 96 31 94 31 58 C 30 28 30 29 42 29 C 55 30 57 30 60 28 C 62 25 62 24 60 22 C 58 18 58 18 47 18 C 35 17 34 17 31 9 C 29 3 24 3 20 11 z" fill="black"/><!-- width=71 height=121 -->
<path id="gl9" d="M 37 7 C 20 12 7 22 7 31 C 7 41 23 38 27 27 C 31 18 37 15 46 17 C 52 20 55 25 55 35 C 56 47 53 48 37 55 C 13 61 7 66 7 78 C 7 96 25 105 43 95 C 52 91 55 91 62 96 C 72 103 95 96 88 88 C 87 87 85 87 82 87 C 71 87 70 81 72 51 C 72 33 72 27 72 22 C 68 8 53 2 37 7 M 53 63 C 58 71 51 86 42 87 C 20 87 21 68 42 61 C 48 60 51 60 53 63 z" fill="black"/><!-- width=98 height=110 -->
<path id="gl3" d="M 20 8 C 10 13 8 16 13 23 C 16 27 16 28 16 50 C 17 79 16 83 10 89 C 2 96 3 98 25 99 C 46 99 49 96 40 88 C 39 86 36 85 35 84 C 35 75 35 66 35 57 C 33 23 36 20 54 20 C 73 20 75 23 75 56 C 74 83 74 85 67 89 C 64 93 64 96 67 98 C 71 99 101 99 104 98 C 105 95 104 91 99 89 C 94 85 94 83 93 52 C 93 25 93 23 90 18 C 81 3 67 2 44 12 C 39 13 39 13 36 10 C 31 5 27 5 20 8 z" fill="black"/><!-- width=115 height=110 -->
<path id="gl768" d="M 19 11 C 14 16 11 19 11 19 C 7 19 8 24 11 28 C 12 29 13 31 16 33 C 16 42 16 50 16 59 C 16 95 16 99 27 105 C 37 110 59 106 58 99 C 58 95 58 95 49 95 C 33 94 33 91 32 55 C 32 26 32 27 48 27 C 59 28 62 27 62 22 C 62 17 58 14 48 16 C 39 17 33 13 33 9 C 33 7 31 4 28 4 C 27 4 23 7 19 11 z" fill="black"/><!-- width=73 height=117 -->
<path id="gl516" d="M 15 7 C 2 11 5 31 18 31 C 30 31 35 18 27 10 C 24 9 23 7 22 7 C 22 7 20 6 19 6 C 19 6 17 6 15 7 z" fill="black"/><!-- width=44 height=43 -->
<path id="gl1797" d="M 12 7 C 7 10 3 31 6 35 C 8 39 9 38 16 31 C 25 21 29 20 44 20 C 66 19 64 13 64 81 C 64 148 65 142 48 151 C 44 152 43 154 45 157 C 48 160 99 160 101 157 C 103 153 102 152 96 148 C 84 143 85 147 85 82 C 85 62 85 43 85 24 C 87 24 88 22 89 21 C 91 19 93 19 106 20 C 124 20 125 21 134 33 C 137 39 141 39 143 36 C 145 33 146 27 146 20 C 147 7 146 4 139 6 C 136 6 131 7 129 7 C 125 8 102 8 76 8 C 32 8 29 8 22 6 C 14 3 15 3 12 7 z" fill="black"/><!-- width=157 height=169 -->
<path id="gl17667" d="M 8 7 C 6 9 7 12 13 16 C 22 21 22 21 21 81 C 21 142 21 139 11 144 C 6 147 3 152 7 153 C 8 153 19 153 33 153 C 55 154 58 153 59 152 C 61 148 59 147 51 143 C 42 141 42 138 42 111 C 42 82 40 82 63 84 C 79 85 79 85 86 97 C 89 101 90 102 94 100 C 97 97 97 61 94 58 C 91 55 87 56 84 64 C 80 71 76 72 60 74 C 40 74 42 75 42 44 C 42 37 42 29 42 21 C 42 21 43 19 44 18 C 45 17 47 16 48 14 C 53 14 58 16 63 16 C 82 17 86 18 91 27 C 100 40 105 38 103 21 C 103 4 107 4 54 4 C 17 4 8 6 8 7 z" fill="black"/><!-- width=113 height=163 -->
</defs>
<use xlink:href="#gl5655" x="0" y="60"/>
<use xlink:href="#gl516" x="98" y="134"/>
<use xlink:href="#gl5893" x="356" y="6"/>
<use xlink:href="#gl261" x="461" y="66"/>
<use xlink:href="#gl1" x="549" y="57"/>
<use xlink:href="#gl1" x="616" y="57"/>
<use xlink:href="#gl2" x="684" y="12"/>
<use xlink:href="#gl3" x="739" y="66"/>
<use xlink:href="#gl1795" x="850" y="66"/>
<use xlink:href="#gl9991" x="1005" y="63"/>
<use xlink:href="#gl0" x="1104" y="66"/>
<use xlink:href="#gl7" x="1213" y="67"/>
<use xlink:href="#gl512" x="1299" y="0"/>
<use xlink:href="#gl17431" x="1353" y="70"/>
<use xlink:href="#gl2" x="1483" y="13"/>
<use xlink:href="#gl1026" x="1537" y="64"/>
<use xlink:href="#gl1025" x="1646" y="69"/>
<use xlink:href="#gl0" x="1748" y="67"/>
<use xlink:href="#gl512" x="1854" y="2"/>
<use xlink:href="#gl1025" x="1903" y="69"/>
<use xlink:href="#gl520" x="2002" y="66"/>
<use xlink:href="#gl514" x="2089" y="69"/>
<use xlink:href="#gl517" x="2217" y="64"/>
<use xlink:href="#gl260" x="2331" y="3"/>
<use xlink:href="#gl9" x="2380" y="68"/>
<use xlink:href="#gl5142" x="2471" y="66"/>
<use xlink:href="#gl2" x="2561" y="13"/>
<use xlink:href="#gl3" x="2616" y="66"/>
<use xlink:href="#gl521" x="2729" y="69"/>
<use xlink:href="#gl1" x="2885" y="58"/>
<use xlink:href="#gl9" x="2948" y="68"/>
<use xlink:href="#gl515" x="3039" y="68"/>
<use xlink:href="#gl775" x="3110" y="2"/>
<use xlink:href="#gl257" x="3213" y="68"/>
<use xlink:href="#gl2" x="3345" y="12"/>
<use xlink:href="#gl1026" x="3399" y="65"/>
<use xlink:href="#gl1" x="3572" y="58"/>
<use xlink:href="#gl8" x="3635" y="2"/>
<use xlink:href="#gl5" x="3749" y="67"/>
<use xlink:href="#gl777" x="3890" y="69"/>
<use xlink:href="#gl9" x="3978" y="68"/>
<use xlink:href="#gl1" x="4071" y="58"/>
<use xlink:href="#gl261" x="4138" y="68"/>
<use xlink:href="#gl4888" x="4221" y="69"/>
<use xlink:href="#gl0" x="4322" y="68"/>
<use xlink:href="#gl4" x="4433" y="68"/>
<use xlink:href="#gl2" x="4505" y="13"/>
<use xlink:href="#gl261" x="4560" y="69"/>
<use xlink:href="#gl4875" x="4648" y="70"/>
<use xlink:href="#gl0" x="4772" y="68"/>
<use xlink:href="#gl9764" x="4881" y="1"/>
<use xlink:href="#gl261" x="354" y="387"/>
<use xlink:href="#gl772" x="438" y="389"/>
<use xlink:href="#gl768" x="535" y="380"/>
<use xlink:href="#gl518" x="605" y="388"/>
<use xlink:href="#gl6" x="674" y="390"/>
<use xlink:href="#gl259" x="762" y="386"/>
<use xlink:href="#gl5" x="932" y="386"/>
<use xlink:href="#gl260" x="1023" y="323"/>
<use xlink:href="#gl776" x="1068" y="391"/>
<use xlink:href="#gl2" x="1229" y="333"/>
<use xlink:href="#gl259" x="1284" y="386"/>
<use xlink:href="#gl28942" x="1459" y="386"/>
<use xlink:href="#gl0" x="1567" y="387"/>
<use xlink:href="#gl4" x="1679" y="387"/>
<use xlink:href="#gl768" x="1750" y="380"/>
<use xlink:href="#gl9" x="1815" y="387"/>
<use xlink:href="#gl1026" x="1907" y="384"/>
<use xlink:href="#gl768" x="2023" y="380"/>
<use xlink:href="#gl519" x="2096" y="451"/>
<use xlink:href="#gl1025" x="2192" y="390"/>
<use xlink:href="#gl6" x="2294" y="389"/>
<use xlink:href="#gl518" x="2384" y="388"/>
<use xlink:href="#gl263" x="2454" y="391"/>
<use xlink:href="#gl2" x="2612" y="333"/>
<use xlink:href="#gl259" x="2667" y="386"/>
<use xlink:href="#gl517" x="2838" y="386"/>
<use xlink:href="#gl0" x="2950" y="387"/>
<use xlink:href="#gl4" x="3061" y="388"/>
<use xlink:href="#gl768" x="3133" y="380"/>
<use xlink:href="#gl9" x="3197" y="387"/>
<use xlink:href="#gl3" x="3289" y="387"/>
<use xlink:href="#gl768" x="3404" y="380"/>
<use xlink:href="#gl519" x="3478" y="452"/>
<use xlink:href="#gl9" x="3579" y="388"/>
<use xlink:href="#gl1026" x="3671" y="385"/>
<use xlink:href="#gl258" x="3785" y="322"/>
<use xlink:href="#gl2" x="3956" y="333"/>
<use xlink:href="#gl259" x="4011" y="387"/>
<use xlink:href="#gl517" x="4183" y="386"/>
<use xlink:href="#gl0" x="4294" y="388"/>
<use xlink:href="#gl4" x="4406" y="387"/>
<use xlink:href="#gl1" x="4479" y="379"/>
<use xlink:href="#gl9" x="4542" y="388"/>
<use xlink:href="#gl3" x="4635" y="388"/>
<use xlink:href="#gl768" x="4750" y="381"/>
<use xlink:href="#gl516" x="4822" y="455"/>
<use xlink:href="#gl1797" x="5526" y="328"/>
<use xlink:href="#gl17667" x="6121" y="332"/>
</svg>