<svg xmlns="http://www.w3.org/2000/svg" xmlns:xlink="http://www.w3.org/1999/xlink" width="184px" height="36px" viewBox="0 0 1843 363" version="1.1">
<defs>
<path id="gl45839" d="M 76 8 C 67 10 63 18 60 42 C 57 60 55 73 51 85 C 46 102 43 120 31 172 C 30 180 26 190 25 195 C 24 200 22 208 21 212 C 21 216 20 220 19 223 C 19 225 16 232 15 240 C 14 246 12 255 9 260 C 7 268 7 273 12 274 C 15 276 50 277 52 276 C 55 274 57 267 58 259 C 64 230 68 214 69 212 C 70 211 78 211 86 210 C 94 210 106 208 111 208 C 130 205 135 210 138 234 C 139 250 141 268 142 271 C 145 274 151 276 172 277 C 195 277 196 277 195 268 C 195 265 194 260 193 258 C 192 254 189 247 188 241 C 187 236 183 228 182 222 C 180 212 177 202 175 190 C 174 182 172 178 168 162 C 166 157 165 150 164 145 C 163 140 160 130 159 122 C 158 115 156 105 156 102 C 154 98 153 92 152 90 C 151 88 150 84 150 80 C 150 76 148 72 147 68 C 145 58 136 26 135 19 C 134 13 129 9 121 9 C 117 9 110 9 105 9 C 90 7 80 7 76 8 M 103 76 C 103 78 104 80 105 82 C 108 85 109 90 109 94 C 111 104 114 121 118 141 C 124 170 123 174 102 174 C 80 175 76 172 79 157 C 81 144 85 124 88 112 C 90 108 91 99 92 94 C 93 87 98 75 99 72 C 100 70 103 74 103 76 z" fill="black"/><!-- width=207 height=289 -->
<path id="gl45840" d="M 79 10 C 75 12 70 14 67 16 C 61 20 58 20 52 15 C 50 13 49 12 48 10 C 44 10 40 10 38 10 C 26 12 14 14 12 16 C 12 18 10 51 10 139 C 10 205 9 263 9 266 C 9 277 19 283 37 283 C 51 283 54 278 52 261 C 45 204 48 195 64 206 C 99 230 135 213 141 170 C 144 144 142 58 138 42 C 134 27 130 21 121 15 C 111 8 90 7 79 10 M 88 42 C 97 48 98 51 98 86 C 98 103 99 123 99 132 C 100 172 91 192 70 186 C 55 182 54 176 54 110 C 54 93 54 76 54 60 C 55 57 56 56 56 54 C 64 40 79 34 88 42 z" fill="black"/><!-- width=158 height=293 -->
<path id="gl5901" d="M 81 7 C 75 9 71 10 65 15 C 58 21 55 20 49 13 C 47 12 44 9 43 8 C 39 8 36 8 31 8 C 12 8 8 9 8 19 C 8 22 8 75 8 136 C 8 197 8 252 8 258 C 7 279 8 281 27 281 C 42 281 47 280 48 274 C 48 272 48 257 48 240 C 45 208 47 202 50 198 C 54 197 55 197 64 204 C 90 223 123 217 136 189 C 140 180 141 171 141 110 C 141 89 141 70 141 49 C 140 44 137 39 136 35 C 133 24 131 20 128 16 C 118 8 93 2 81 7 M 87 41 C 96 48 96 54 96 111 C 96 148 96 159 95 164 C 88 191 60 192 53 166 C 49 154 49 62 53 53 C 59 38 76 32 87 41 z" fill="black"/><!-- width=157 height=294 -->
<path id="gl4628" d="M 52 8 C 34 13 20 23 14 40 C 5 61 7 154 15 182 C 22 206 41 216 80 217 C 119 220 144 196 145 158 C 145 147 142 146 120 147 C 101 147 101 147 100 161 C 97 181 92 186 76 186 C 64 186 58 183 54 172 C 50 163 48 132 52 126 C 54 121 60 117 65 119 C 67 119 84 120 102 120 C 138 122 141 121 144 116 C 145 113 145 89 144 73 C 140 33 134 21 114 11 C 110 10 107 8 103 7 C 96 7 89 7 83 7 C 65 7 60 7 52 8 M 89 40 C 98 45 102 55 101 73 C 101 82 101 83 97 86 C 96 88 95 89 92 90 C 88 90 82 90 76 90 C 52 90 50 88 50 69 C 50 47 58 38 76 38 C 80 38 84 38 89 40 z" fill="black"/><!-- width=156 height=231 -->
<path id="gl45841" d="M 86 7 C 80 9 72 13 66 18 C 58 24 57 24 52 18 C 48 13 46 12 42 12 C 38 10 33 9 31 8 C 27 7 12 8 9 10 C 7 12 7 14 8 21 C 8 36 8 194 7 200 C 7 207 9 212 13 213 C 21 216 49 210 50 206 C 51 204 52 128 51 117 C 50 81 51 60 57 51 C 67 34 90 37 96 55 C 98 61 99 151 97 189 C 97 208 97 208 111 211 C 124 213 138 213 140 210 C 141 208 141 188 141 120 C 141 90 141 61 141 31 C 140 30 139 27 138 26 C 129 10 124 8 105 7 C 98 7 88 7 86 7 z" fill="black"/><!-- width=153 height=225 -->
<path id="gl45842" d="M 106 8 C 98 12 97 13 98 33 C 98 43 99 55 100 60 C 102 75 99 86 93 86 C 92 86 88 85 85 81 C 73 72 63 70 48 73 C 13 79 8 97 10 198 C 13 252 14 259 24 270 C 39 285 66 285 85 270 C 91 265 93 265 100 271 C 106 277 116 280 127 280 C 142 280 142 279 142 254 C 144 229 144 103 144 88 C 144 81 144 62 144 44 C 142 10 142 9 134 7 C 122 4 114 6 106 8 M 84 104 C 88 106 93 111 97 117 C 99 122 99 123 100 198 C 100 207 100 218 100 229 C 99 231 98 234 97 236 C 92 246 86 249 75 249 C 64 249 61 247 56 236 C 54 230 54 230 54 175 C 54 157 54 138 54 120 C 55 117 56 116 57 114 C 63 103 74 99 84 104 z" fill="black"/><!-- width=159 height=294 -->
<path id="gl45843" d="M 10 10 C 7 13 7 13 8 30 C 8 51 7 50 31 49 C 56 48 55 49 54 28 C 54 9 54 8 36 9 C 28 9 20 8 18 8 C 13 7 12 8 10 10 M 10 79 C 9 80 9 82 10 90 C 12 99 10 253 9 266 C 8 276 8 276 31 276 C 49 274 50 274 52 272 C 56 267 55 81 51 78 C 48 74 13 75 10 79 z" fill="black"/><!-- width=68 height=289 -->
<path id="gl45844" d="M 12 8 C 3 10 2 7 42 84 C 54 108 54 109 44 127 C 40 133 33 145 30 152 C 26 160 20 170 18 174 C 12 184 4 200 4 202 C 4 207 8 207 26 207 C 49 207 54 205 58 189 C 62 178 70 164 74 163 C 79 162 87 176 88 188 C 90 195 92 201 96 205 C 99 207 139 210 142 206 C 146 204 145 199 118 151 C 114 141 109 132 108 129 C 106 127 105 123 104 122 C 98 115 97 102 102 93 C 103 91 108 81 114 70 C 118 61 123 51 124 49 C 142 19 145 14 144 10 C 142 9 142 8 141 7 C 134 8 127 8 120 8 C 97 9 93 9 92 16 C 87 37 79 52 74 50 C 72 49 64 34 61 22 C 57 8 58 8 34 8 C 24 8 13 8 12 8 z" fill="black"/><!-- width=153 height=220 -->
</defs>
<use xlink:href="#gl45839" x="0" y="5"/>
<use xlink:href="#gl45840" x="283" y="67"/>
<use xlink:href="#gl5901" x="534" y="69"/>
<use xlink:href="#gl4628" x="782" y="66"/>
<use xlink:href="#gl45841" x="1032" y="67"/>
<use xlink:href="#gl45842" x="1277" y="0"/>
<use xlink:href="#gl45843" x="1531" y="0"/>
<use xlink:href="#gl45844" x="1690" y="67"/>
</svg>