<svg xmlns="http://www.w3.org/2000/svg" xmlns:xlink="http://www.w3.org/1999/xlink" width="515px" height="37px" viewBox="0 0 5154 371" version="1.1">
<defs>
<path id="gl6145" d="M 164 4 C 154 6 150 10 156 14 C 168 22 168 25 145 51 C 123 79 116 88 103 106 C 91 123 89 125 84 124 C 79 124 78 120 63 47 C 59 25 61 20 73 15 C 80 13 82 10 79 8 C 77 4 19 4 14 8 C 10 10 12 13 20 16 C 31 21 34 28 43 66 C 44 75 49 94 51 106 C 61 147 61 153 47 194 C 34 230 31 235 10 238 C 6 240 4 243 7 246 C 8 247 84 247 85 246 C 89 244 88 241 84 240 C 62 235 61 230 74 188 C 88 144 89 142 113 114 C 129 96 137 85 151 68 C 167 48 189 25 197 21 C 200 20 206 18 209 15 C 217 12 217 10 214 7 C 213 4 185 3 164 4 z" fill="black"/><!-- width=226 height=258 -->
<path id="gl5913" d="M 74 7 C 48 16 21 48 12 83 C 2 114 6 140 21 150 C 59 174 118 118 125 52 C 128 41 127 39 124 27 C 118 7 98 0 74 7 M 94 16 C 104 21 107 39 100 62 C 85 117 56 154 36 143 C 24 135 24 117 34 85 C 51 38 78 7 94 16 z" fill="black"/><!-- width=138 height=165 -->
<path id="gl28166" d="M 51 6 C 31 13 1 39 3 46 C 4 50 7 48 18 39 C 31 26 39 26 39 36 C 39 39 39 41 28 71 C 9 117 3 139 7 148 C 12 159 24 156 45 139 C 55 133 64 123 85 101 C 97 88 102 94 94 116 C 91 123 88 131 86 133 C 77 153 88 160 110 149 C 133 137 153 118 150 111 C 149 107 144 110 133 120 C 123 129 121 132 118 132 C 108 132 108 124 122 91 C 127 77 133 61 134 57 C 135 53 139 45 142 37 C 149 22 151 15 150 13 C 149 8 145 7 140 7 C 134 7 132 9 126 23 C 110 61 94 83 62 112 C 41 132 37 134 33 129 C 29 126 30 118 39 97 C 44 85 50 68 53 60 C 57 48 62 36 64 30 C 72 13 72 9 64 6 C 61 3 57 3 51 6 z" fill="black"/><!-- width=160 height=166 -->
<path id="gl5912" d="M 35 7 C 24 12 9 28 9 35 C 9 40 12 40 17 35 C 28 26 34 23 38 29 C 42 34 35 53 16 114 C 4 146 4 146 8 151 C 14 158 19 153 31 130 C 44 94 59 66 75 45 C 90 26 94 23 101 38 C 106 47 111 45 116 35 C 124 17 115 1 101 4 C 91 8 83 18 66 43 C 53 66 48 65 54 39 C 58 22 59 17 57 12 C 54 3 47 2 35 7 z" fill="black"/><!-- width=128 height=163 -->
<path id="gl25108" d="M 191 9 C 180 15 178 16 173 27 C 169 33 162 44 156 52 C 142 71 133 82 118 106 C 96 138 88 150 77 165 C 72 173 64 184 60 188 C 35 226 28 233 8 240 C 4 242 4 246 8 247 C 9 248 23 248 40 248 C 50 247 60 247 70 247 C 70 246 70 245 70 243 C 71 241 70 241 65 239 C 55 234 56 229 75 199 C 81 190 87 181 88 180 C 88 178 92 172 95 167 C 105 153 106 153 138 151 C 178 150 177 148 172 202 C 171 217 169 227 166 232 C 163 235 155 239 151 240 C 145 240 143 247 148 248 C 149 248 166 248 185 248 C 220 247 220 247 220 245 C 221 241 218 240 211 239 C 197 236 196 226 202 129 C 202 119 203 99 203 83 C 204 68 205 47 206 37 C 209 10 209 8 206 5 C 202 4 199 4 191 9 M 180 53 C 181 56 180 74 178 116 C 175 138 174 139 148 138 C 114 137 114 136 135 107 C 141 98 149 84 155 76 C 171 51 175 46 180 53 z" fill="black"/><!-- width=229 height=258 -->
<path id="gl44288" d="M 80 6 C 78 7 75 7 74 7 C 73 7 70 8 69 10 C 68 12 67 13 66 13 C 60 13 33 42 24 61 C 6 96 3 140 20 148 C 32 156 61 151 72 140 C 73 139 76 136 79 135 C 86 129 90 126 88 122 C 86 118 84 120 68 129 C 51 140 40 140 33 127 C 31 121 31 106 33 99 C 34 97 34 93 36 90 C 37 84 42 67 43 64 C 44 63 45 61 48 57 C 49 54 51 48 52 45 C 55 43 57 38 60 36 C 64 27 78 16 82 15 C 91 13 94 15 98 26 C 103 42 111 44 120 32 C 126 25 122 10 112 6 C 105 2 87 1 80 6 z" fill="black"/><!-- width=135 height=164 -->
<path id="gl31244" d="M 86 7 C 61 12 36 36 21 69 C 13 88 10 96 9 112 C 6 147 18 162 45 156 C 67 152 98 127 86 123 C 84 122 80 122 74 128 C 56 144 40 146 33 132 C 30 124 31 103 37 84 C 42 67 51 48 60 36 C 78 13 93 12 98 31 C 100 39 102 42 108 42 C 116 42 121 36 121 26 C 121 12 105 3 86 7 z" fill="black"/><!-- width=133 height=169 -->
<path id="gl5913" d="M 74 7 C 48 16 21 48 12 83 C 2 114 6 140 21 150 C 59 174 118 118 125 52 C 128 41 127 39 124 27 C 118 7 98 0 74 7 M 94 16 C 104 21 107 39 100 62 C 85 117 56 154 36 143 C 24 135 24 117 34 85 C 51 38 78 7 94 16 z" fill="black"/><!-- width=138 height=165 -->
<path id="gl25115" d="M 49 4 C 31 8 13 20 8 30 C 4 40 10 40 21 31 C 32 23 38 23 42 30 C 43 35 43 34 17 110 C 13 120 8 132 7 137 C 2 150 3 155 12 155 C 18 155 20 150 30 131 C 38 113 45 102 52 90 C 70 58 107 20 119 20 C 128 20 130 30 119 55 C 117 60 114 70 111 75 C 108 85 100 104 91 128 C 82 149 83 155 93 155 C 99 155 102 153 114 130 C 121 114 127 103 138 85 C 150 64 188 23 197 20 C 205 17 210 23 209 32 C 207 37 200 57 195 70 C 194 74 189 85 187 93 C 183 102 178 115 175 121 C 162 150 164 156 181 154 C 199 153 234 126 231 117 C 229 114 226 115 218 122 C 206 133 199 135 197 128 C 195 126 200 113 207 97 C 217 74 228 43 231 32 C 237 2 211 -3 180 19 C 176 21 169 31 161 38 C 142 64 137 64 143 41 C 148 26 148 18 144 12 C 132 -4 103 7 74 45 C 63 58 59 62 57 60 C 54 59 54 53 62 34 C 68 13 69 9 62 6 C 59 4 54 3 49 4 z" fill="black"/><!-- width=242 height=165 -->
<path id="gl17677" d="M 118 7 C 115 9 113 13 111 20 C 106 33 102 37 90 41 C 70 49 66 50 67 55 C 67 59 72 57 80 54 C 90 49 97 50 97 56 C 97 61 80 112 76 121 C 73 125 71 135 68 144 C 65 153 60 167 57 175 C 54 183 49 197 47 206 C 30 251 27 255 13 263 C 4 265 2 269 7 271 C 12 272 65 271 72 269 C 76 267 73 263 68 261 C 55 257 54 249 65 219 C 78 181 77 182 95 181 C 120 179 136 172 154 155 C 179 129 191 101 190 72 C 189 48 175 33 149 33 C 135 33 133 32 135 21 C 136 10 135 8 130 6 C 124 3 121 3 118 7 M 148 44 C 162 51 167 68 162 94 C 155 125 138 154 117 165 C 106 172 96 171 91 162 C 88 156 89 153 106 103 C 112 86 115 73 119 63 C 125 43 133 37 148 44 z" fill="black"/><!-- width=205 height=281 -->
<path id="gl6155" d="M 93 3 C 81 6 69 9 67 12 C 63 15 63 17 69 24 C 74 30 73 36 60 74 C 54 94 44 125 39 142 C 33 159 27 179 24 187 C 15 213 6 250 6 252 C 6 266 25 268 44 256 C 66 244 84 218 73 217 C 71 216 67 219 55 232 C 42 245 40 247 36 247 C 28 247 28 240 35 220 C 38 212 46 185 55 159 C 63 132 78 88 88 60 C 94 42 99 24 105 7 C 104 7 103 6 103 4 C 99 3 98 2 93 3 z" fill="black"/><!-- width=114 height=274 -->
<path id="gl5909" d="M 70 8 C 62 15 60 29 68 35 C 74 41 85 37 90 26 C 99 10 84 -2 70 8 M 54 97 C 35 107 17 120 18 125 C 18 129 23 129 29 124 C 39 117 42 117 45 119 C 47 123 47 126 36 152 C 24 181 9 219 7 228 C 1 246 20 245 52 224 C 67 214 73 207 73 202 C 73 195 70 196 56 209 C 36 226 29 220 40 195 C 42 188 49 170 57 153 C 64 136 71 119 73 114 C 82 93 75 86 54 97 z" fill="black"/><!-- width=102 height=251 -->
<path id="gl5910" d="M 72 7 C 66 8 54 18 48 25 C 32 42 32 57 48 85 C 58 103 60 109 60 117 C 60 136 43 144 29 133 C 15 123 13 123 9 128 C 6 132 6 140 8 145 C 18 161 52 155 69 134 C 83 116 83 100 66 71 C 53 49 52 35 60 26 C 68 19 77 20 88 30 C 96 37 103 34 103 24 C 103 10 88 2 72 7 z" fill="black"/><!-- width=113 height=166 -->
<path id="gl17675" d="M 91 6 C 72 9 67 14 73 22 C 78 30 77 34 61 83 C 52 107 43 138 39 151 C 30 183 24 199 13 232 C 3 262 2 264 8 268 C 14 273 18 269 31 244 C 52 202 65 184 85 161 C 115 130 130 124 134 140 C 137 152 122 205 108 237 C 101 252 99 254 83 250 C 78 249 71 254 71 260 C 71 264 78 272 84 272 C 113 272 151 208 160 150 C 162 128 155 115 139 115 C 122 115 98 132 77 157 C 66 169 63 170 60 170 C 55 170 57 158 67 131 C 71 121 77 105 79 96 C 83 86 87 72 91 63 C 95 55 98 45 98 40 C 101 37 103 30 104 25 C 111 7 109 3 91 6 z" fill="black"/><!-- width=169 height=280 -->
<path id="gl44289" d="M 126 4 C 122 7 117 7 116 7 C 110 7 90 27 75 45 C 67 56 63 61 60 58 C 58 58 57 58 57 58 C 57 55 58 51 60 48 C 61 43 62 37 63 36 C 70 22 70 10 64 7 C 60 3 40 6 33 10 C 16 21 8 31 9 36 C 10 40 14 39 22 32 C 33 24 40 22 44 30 C 45 34 43 43 34 67 C 33 72 28 84 25 93 C 21 103 15 120 12 128 C 3 151 3 154 12 156 C 15 157 16 156 21 151 C 25 147 27 144 27 141 C 28 140 28 138 30 138 C 30 138 33 132 36 124 C 43 110 58 84 64 75 C 67 73 70 67 74 62 C 84 49 109 24 115 20 C 126 15 130 22 127 37 C 126 42 124 48 124 49 C 123 50 121 56 118 63 C 109 90 104 103 102 109 C 97 118 87 141 86 145 C 85 150 87 154 91 156 C 99 158 104 153 112 136 C 122 118 128 105 132 102 C 135 97 140 87 141 84 C 141 80 140 80 138 79 C 129 76 130 68 139 60 C 142 57 145 55 145 52 C 151 21 151 10 142 7 C 135 3 134 2 126 4 M 211 3 C 194 9 182 18 166 36 C 159 44 152 52 150 54 C 146 56 146 57 146 61 C 148 73 150 72 166 52 C 189 25 195 20 202 20 C 214 20 212 36 198 72 C 195 78 192 87 188 93 C 186 99 181 111 178 118 C 168 142 166 144 166 147 C 166 159 189 158 210 144 C 213 142 216 141 216 141 C 218 141 230 129 232 124 C 234 120 234 120 232 117 C 230 115 230 115 219 124 C 200 141 193 134 205 110 C 207 105 210 100 210 100 C 210 99 214 87 217 84 C 218 81 219 75 225 57 C 228 51 230 44 231 40 C 235 30 235 18 231 13 C 228 6 217 1 211 3 z" fill="black"/><!-- width=245 height=168 -->
<path id="gl6150" d="M 86 6 C 45 17 4 76 8 122 C 9 151 26 161 54 152 C 73 144 91 128 86 122 C 84 120 83 121 71 128 C 57 138 49 141 40 137 C 32 132 29 127 30 110 C 30 87 34 83 58 78 C 101 68 131 37 118 14 C 114 4 102 2 86 6 M 99 18 C 107 27 95 47 69 63 C 37 84 37 63 68 30 C 83 16 92 12 99 18 z" fill="black"/><!-- width=132 height=164 -->
<path id="gl6154" d="M 47 6 C 28 13 8 29 11 36 C 12 39 15 39 22 34 C 34 25 41 24 44 30 C 45 35 42 41 20 102 C 4 145 3 149 8 154 C 14 160 18 156 33 126 C 56 80 64 68 91 41 C 110 23 115 19 121 19 C 131 19 132 30 122 55 C 118 63 111 79 107 90 C 102 102 96 118 93 127 C 84 147 84 153 94 155 C 109 159 158 126 150 117 C 149 115 147 115 138 122 C 126 133 121 136 117 132 C 115 128 115 125 122 109 C 154 36 158 14 142 6 C 127 -1 100 13 73 47 C 52 73 49 66 64 26 C 69 14 69 9 62 6 C 58 3 55 3 47 6 z" fill="black"/><!-- width=162 height=166 -->
<path id="gl6161" d="M 66 7 C 65 8 60 15 58 21 C 49 39 48 40 34 42 C 22 43 21 43 18 47 C 17 51 20 52 28 53 C 42 54 43 56 33 86 C 24 111 23 112 15 144 C 5 176 5 175 8 179 C 9 183 11 185 16 185 C 34 186 86 142 78 134 C 75 130 72 132 60 144 C 45 160 40 162 35 157 C 33 154 33 148 37 135 C 43 119 59 72 59 71 C 59 69 60 66 61 62 C 66 53 68 52 83 53 C 100 54 104 54 106 51 C 112 43 106 40 90 41 C 79 41 78 41 75 39 C 72 35 72 34 77 20 C 80 9 79 4 73 4 C 69 4 68 4 66 7 z" fill="black"/><!-- width=117 height=196 -->
<path id="gl5910" d="M 72 7 C 66 8 54 18 48 25 C 32 42 32 57 48 85 C 58 103 60 109 60 117 C 60 136 43 144 29 133 C 15 123 13 123 9 128 C 6 132 6 140 8 145 C 18 161 52 155 69 134 C 83 116 83 100 66 71 C 53 49 52 35 60 26 C 68 19 77 20 88 30 C 96 37 103 34 103 24 C 103 10 88 2 72 7 z" fill="black"/><!-- width=113 height=166 -->
<path id="gl10263" d="M 141 7 C 140 8 137 12 136 14 C 133 22 127 24 119 20 C 108 13 81 25 60 45 C 22 83 -2 147 12 162 C 18 166 21 166 30 164 C 43 159 58 150 75 134 C 91 117 96 121 88 142 C 83 158 85 165 96 165 C 116 165 163 128 146 127 C 144 127 141 128 135 134 C 125 142 121 145 116 144 C 107 144 107 135 118 107 C 122 99 129 82 134 70 C 137 56 145 39 148 31 C 152 22 154 14 154 12 C 154 4 146 1 141 7 M 112 33 C 123 38 123 49 111 72 C 96 101 87 114 65 131 C 48 146 47 146 42 146 C 18 146 48 71 84 41 C 95 31 104 30 112 33 z" fill="black"/><!-- width=164 height=175 -->
<path id="gl6154" d="M 47 6 C 28 13 8 29 11 36 C 12 39 15 39 22 34 C 34 25 41 24 44 30 C 45 35 42 41 20 102 C 4 145 3 149 8 154 C 14 160 18 156 33 126 C 56 80 64 68 91 41 C 110 23 115 19 121 19 C 131 19 132 30 122 55 C 118 63 111 79 107 90 C 102 102 96 118 93 127 C 84 147 84 153 94 155 C 109 159 158 126 150 117 C 149 115 147 115 138 122 C 126 133 121 136 117 132 C 115 128 115 125 122 109 C 154 36 158 14 142 6 C 127 -1 100 13 73 47 C 52 73 49 66 64 26 C 69 14 69 9 62 6 C 58 3 55 3 47 6 z" fill="black"/><!-- width=162 height=166 -->
<path id="gl17680" d="M 179 3 C 178 3 174 4 170 4 C 157 8 156 10 161 20 C 164 27 164 32 158 50 C 156 56 150 73 145 87 C 134 121 134 121 122 117 C 89 107 36 147 14 203 C -1 246 4 273 33 268 C 52 264 68 252 89 228 C 103 211 108 215 101 238 C 96 252 96 258 99 263 C 107 271 122 267 143 249 C 162 232 168 223 163 221 C 160 218 158 220 146 232 C 133 243 128 246 123 243 C 121 240 121 234 123 224 C 125 221 127 214 129 208 C 131 203 133 197 134 193 C 134 190 137 184 138 179 C 149 145 156 122 167 92 C 168 87 170 83 172 80 C 172 78 173 73 174 69 C 176 66 180 55 182 46 C 186 39 190 28 191 25 C 196 14 196 7 193 4 C 192 3 181 2 179 3 M 119 126 C 133 134 121 174 96 206 C 79 227 48 252 37 253 C 28 255 25 251 26 239 C 27 218 58 169 87 140 C 102 127 111 122 119 126 z" fill="black"/><!-- width=204 height=279 -->
<path id="gl6145" d="M 164 4 C 154 6 150 10 156 14 C 168 22 168 25 145 51 C 123 79 116 88 103 106 C 91 123 89 125 84 124 C 79 124 78 120 63 47 C 59 25 61 20 73 15 C 80 13 82 10 79 8 C 77 4 19 4 14 8 C 10 10 12 13 20 16 C 31 21 34 28 43 66 C 44 75 49 94 51 106 C 61 147 61 153 47 194 C 34 230 31 235 10 238 C 6 240 4 243 7 246 C 8 247 84 247 85 246 C 89 244 88 241 84 240 C 62 235 61 230 74 188 C 88 144 89 142 113 114 C 129 96 137 85 151 68 C 167 48 189 25 197 21 C 200 20 206 18 209 15 C 217 12 217 10 214 7 C 213 4 185 3 164 4 z" fill="black"/><!-- width=226 height=258 -->
<path id="gl5913" d="M 74 7 C 48 16 21 48 12 83 C 2 114 6 140 21 150 C 59 174 118 118 125 52 C 128 41 127 39 124 27 C 118 7 98 0 74 7 M 94 16 C 104 21 107 39 100 62 C 85 117 56 154 36 143 C 24 135 24 117 34 85 C 51 38 78 7 94 16 z" fill="black"/><!-- width=138 height=165 -->
<path id="gl6146" d="M 54 4 C 39 11 3 37 3 44 C 3 50 8 49 18 40 C 30 28 40 27 40 37 C 40 39 37 48 34 55 C 18 99 8 128 7 139 C 6 153 16 159 29 152 C 45 143 61 130 79 110 C 90 96 95 92 97 95 C 101 97 99 107 90 130 C 82 147 82 152 91 154 C 97 157 107 154 126 141 C 142 130 152 120 151 115 C 151 107 146 108 137 118 C 123 132 118 136 113 131 C 108 126 115 106 143 37 C 153 13 153 13 147 8 C 139 1 136 4 122 33 C 104 70 94 85 65 112 C 44 131 40 134 35 131 C 29 128 29 122 39 99 C 43 87 49 71 53 63 C 55 54 61 40 64 33 C 70 17 71 11 68 7 C 64 4 59 3 54 4 z" fill="black"/><!-- width=160 height=165 -->
<path id="gl5912" d="M 35 7 C 24 12 9 28 9 35 C 9 40 12 40 17 35 C 28 26 34 23 38 29 C 42 34 35 53 16 114 C 4 146 4 146 8 151 C 14 158 19 153 31 130 C 44 94 59 66 75 45 C 90 26 94 23 101 38 C 106 47 111 45 116 35 C 124 17 115 1 101 4 C 91 8 83 18 66 43 C 53 66 48 65 54 39 C 58 22 59 17 57 12 C 54 3 47 2 35 7 z" fill="black"/><!-- width=128 height=163 -->
<path id="gl44290" d="M 156 4 C 150 4 132 4 114 4 C 81 4 80 4 79 7 C 76 9 79 13 85 15 C 97 20 98 32 88 57 C 86 62 84 70 82 75 C 80 81 79 88 78 92 C 76 96 75 100 74 104 C 73 108 72 111 70 112 C 70 114 69 118 67 123 C 66 128 64 135 62 140 C 61 147 56 163 54 174 C 52 176 51 180 50 183 C 49 186 48 193 45 199 C 38 224 30 234 15 237 C 8 238 6 241 7 244 C 8 247 88 247 90 244 C 91 243 90 240 87 238 C 86 238 82 237 80 237 C 75 236 68 230 67 225 C 66 220 68 207 78 180 C 82 164 84 157 85 153 C 85 151 87 145 88 140 C 93 128 96 127 117 128 C 156 129 163 133 163 148 C 163 152 163 154 165 156 C 166 157 166 158 168 159 C 169 157 171 156 172 154 C 175 152 177 150 177 146 C 177 144 178 139 180 135 C 182 129 188 109 189 102 C 190 98 192 97 193 97 C 195 97 193 90 189 88 C 186 87 183 90 177 98 C 172 106 166 111 163 112 C 139 118 106 118 103 114 C 98 110 99 104 104 88 C 108 80 111 69 112 62 C 115 56 117 50 117 48 C 118 45 121 39 123 33 C 126 25 128 21 130 19 C 132 18 133 16 134 15 C 142 16 152 16 162 16 C 200 18 205 20 207 37 C 208 46 210 48 213 49 C 217 50 222 44 223 36 C 224 32 225 26 228 21 C 230 10 230 7 225 6 C 220 3 166 3 156 4 z" fill="black"/><!-- width=241 height=255 -->
<path id="gl6146" d="M 54 4 C 39 11 3 37 3 44 C 3 50 8 49 18 40 C 30 28 40 27 40 37 C 40 39 37 48 34 55 C 18 99 8 128 7 139 C 6 153 16 159 29 152 C 45 143 61 130 79 110 C 90 96 95 92 97 95 C 101 97 99 107 90 130 C 82 147 82 152 91 154 C 97 157 107 154 126 141 C 142 130 152 120 151 115 C 151 107 146 108 137 118 C 123 132 118 136 113 131 C 108 126 115 106 143 37 C 153 13 153 13 147 8 C 139 1 136 4 122 33 C 104 70 94 85 65 112 C 44 131 40 134 35 131 C 29 128 29 122 39 99 C 43 87 49 71 53 63 C 55 54 61 40 64 33 C 70 17 71 11 68 7 C 64 4 59 3 54 4 z" fill="black"/><!-- width=160 height=165 -->
<path id="gl6161" d="M 66 7 C 65 8 60 15 58 21 C 49 39 48 40 34 42 C 22 43 21 43 18 47 C 17 51 20 52 28 53 C 42 54 43 56 33 86 C 24 111 23 112 15 144 C 5 176 5 175 8 179 C 9 183 11 185 16 185 C 34 186 86 142 78 134 C 75 130 72 132 60 144 C 45 160 40 162 35 157 C 33 154 33 148 37 135 C 43 119 59 72 59 71 C 59 69 60 66 61 62 C 66 53 68 52 83 53 C 100 54 104 54 106 51 C 112 43 106 40 90 41 C 79 41 78 41 75 39 C 72 35 72 34 77 20 C 80 9 79 4 73 4 C 69 4 68 4 66 7 z" fill="black"/><!-- width=117 height=196 -->
<path id="gl28166" d="M 51 6 C 31 13 1 39 3 46 C 4 50 7 48 18 39 C 31 26 39 26 39 36 C 39 39 39 41 28 71 C 9 117 3 139 7 148 C 12 159 24 156 45 139 C 55 133 64 123 85 101 C 97 88 102 94 94 116 C 91 123 88 131 86 133 C 77 153 88 160 110 149 C 133 137 153 118 150 111 C 149 107 144 110 133 120 C 123 129 121 132 118 132 C 108 132 108 124 122 91 C 127 77 133 61 134 57 C 135 53 139 45 142 37 C 149 22 151 15 150 13 C 149 8 145 7 140 7 C 134 7 132 9 126 23 C 110 61 94 83 62 112 C 41 132 37 134 33 129 C 29 126 30 118 39 97 C 44 85 50 68 53 60 C 57 48 62 36 64 30 C 72 13 72 9 64 6 C 61 3 57 3 51 6 z" fill="black"/><!-- width=160 height=166 -->
<path id="gl22793" d="M 35 8 C 28 12 13 24 11 30 C 7 39 12 41 19 34 C 29 25 35 24 39 30 C 41 34 40 39 9 130 C 4 147 4 149 7 153 C 12 160 20 155 25 141 C 47 84 78 33 90 29 C 94 28 99 33 101 38 C 105 45 111 44 116 35 C 118 26 120 18 117 13 C 110 -1 89 7 73 33 C 53 66 47 67 55 36 C 62 9 55 0 35 8 z" fill="black"/><!-- width=130 height=166 -->
<path id="gl6150" d="M 86 6 C 45 17 4 76 8 122 C 9 151 26 161 54 152 C 73 144 91 128 86 122 C 84 120 83 121 71 128 C 57 138 49 141 40 137 C 32 132 29 127 30 110 C 30 87 34 83 58 78 C 101 68 131 37 118 14 C 114 4 102 2 86 6 M 99 18 C 107 27 95 47 69 63 C 37 84 37 63 68 30 C 83 16 92 12 99 18 z" fill="black"/><!-- width=132 height=164 -->
</defs>
<use xlink:href="#gl6145" x="0" y="20"/>
<use xlink:href="#gl5913" x="139" y="116"/>
<use xlink:href="#gl28166" x="293" y="116"/>
<use xlink:href="#gl5912" x="469" y="117"/>
<use xlink:href="#gl25108" x="642" y="20"/>
<use xlink:href="#gl44288" x="877" y="117"/>
<use xlink:href="#gl31244" x="1000" y="112"/>
<use xlink:href="#gl5913" x="1122" y="115"/>
<use xlink:href="#gl25115" x="1274" y="114"/>
<use xlink:href="#gl17677" x="1478" y="90"/>
<use xlink:href="#gl6155" x="1689" y="5"/>
<use xlink:href="#gl5909" x="1779" y="27"/>
<use xlink:href="#gl5910" x="1861" y="113"/>
<use xlink:href="#gl17675" x="1966" y="1"/>
<use xlink:href="#gl44289" x="2145" y="112"/>
<use xlink:href="#gl6150" x="2399" y="112"/>
<use xlink:href="#gl6154" x="2530" y="111"/>
<use xlink:href="#gl6161" x="2706" y="82"/>
<use xlink:href="#gl5910" x="2790" y="112"/>
<use xlink:href="#gl10263" x="2979" y="101"/>
<use xlink:href="#gl6154" x="3153" y="111"/>
<use xlink:href="#gl17680" x="3321" y="0"/>
<use xlink:href="#gl6145" x="3600" y="14"/>
<use xlink:href="#gl5913" x="3739" y="110"/>
<use xlink:href="#gl6146" x="3892" y="109"/>
<use xlink:href="#gl5912" x="4068" y="110"/>
<use xlink:href="#gl44290" x="4261" y="16"/>
<use xlink:href="#gl6146" x="4461" y="108"/>
<use xlink:href="#gl6161" x="4632" y="78"/>
<use xlink:href="#gl28166" x="4741" y="108"/>
<use xlink:href="#gl22793" x="4917" y="107"/>
<use xlink:href="#gl6150" x="5022" y="108"/>
</svg>