<svg xmlns="http://www.w3.org/2000/svg" xmlns:xlink="http://www.w3.org/1999/xlink" width="369px" height="30px" viewBox="0 0 3697 303" version="1.1">
<defs>
<path id="gl4621" d="M 67 12 C 66 13 64 16 64 18 C 64 19 62 25 61 30 C 60 35 59 42 59 44 C 56 53 49 85 44 106 C 42 115 39 128 38 134 C 36 140 35 149 33 154 C 30 165 28 173 25 193 C 15 235 12 254 8 264 C 4 280 4 281 30 282 C 59 283 57 285 64 240 C 66 219 68 213 77 212 C 93 212 99 212 109 211 C 128 210 130 211 134 231 C 135 239 135 246 135 248 C 136 256 141 277 143 280 C 146 281 148 282 160 282 C 167 282 177 282 182 283 C 192 285 194 283 194 276 C 194 273 188 250 186 240 C 184 236 182 229 181 223 C 177 206 173 192 170 182 C 169 176 167 169 166 164 C 165 159 163 144 159 131 C 154 109 153 102 146 74 C 144 68 143 57 142 51 C 134 7 135 9 119 9 C 114 9 101 8 90 8 C 84 8 77 8 71 7 C 70 8 68 9 67 12 M 103 79 C 105 85 107 97 109 107 C 111 115 114 132 117 143 C 122 170 120 173 107 176 C 95 177 84 175 80 172 C 78 169 77 160 80 144 C 82 138 83 128 84 120 C 95 65 99 59 103 79 z" fill="black"/><!-- width=205 height=294 -->
<path id="gl4622" d="M 27 6 C 27 7 22 8 19 9 C 7 12 7 6 8 70 C 8 100 7 127 7 127 C 6 129 8 276 8 278 C 9 279 28 284 36 284 C 44 284 48 282 50 276 C 52 272 54 272 63 277 C 76 283 82 285 96 285 C 116 285 128 276 136 249 C 139 243 141 218 140 204 C 140 198 139 176 139 156 C 139 111 136 102 124 86 C 114 72 79 69 63 82 C 60 86 56 87 52 84 C 50 81 50 81 51 56 C 54 3 54 6 39 6 C 33 6 28 6 27 6 M 80 105 C 86 108 91 114 93 122 C 96 129 97 218 94 230 C 92 247 85 254 72 253 C 62 253 57 248 54 238 C 51 231 49 158 50 136 C 51 118 57 108 67 105 C 69 105 70 104 72 104 C 74 103 75 104 80 105 z" fill="black"/><!-- width=154 height=298 -->
<path id="gl4636" d="M 59 8 C 30 10 16 23 10 53 C 7 67 7 69 7 112 C 7 200 15 216 65 219 C 111 221 130 209 139 175 C 143 162 143 78 140 59 C 134 19 109 3 59 8 M 87 41 C 89 42 92 46 94 48 C 95 50 96 52 98 54 C 98 71 98 88 99 106 C 99 160 99 173 95 179 C 88 190 64 191 54 181 C 48 174 48 172 48 118 C 47 54 49 47 63 41 C 69 37 82 37 87 41 z" fill="black"/><!-- width=153 height=232 -->
<path id="gl4624" d="M 23 8 C 15 8 9 9 8 10 C 7 11 7 164 9 182 C 10 202 14 211 21 214 C 35 221 43 221 63 215 C 70 214 73 212 80 204 C 91 194 92 194 95 202 C 98 211 99 211 107 212 C 112 212 118 214 121 215 C 128 217 134 216 138 210 C 139 207 139 203 138 175 C 137 136 137 62 138 34 C 139 14 139 13 136 9 C 133 5 132 5 125 9 C 120 10 118 11 110 10 C 98 10 92 11 92 16 C 92 17 92 50 92 91 C 92 173 92 172 84 181 C 74 190 59 188 53 176 C 48 168 47 115 48 54 C 50 16 49 13 44 9 C 41 7 39 7 23 8 z" fill="black"/><!-- width=151 height=233 -->
<path id="gl4625" d="M 28 7 C 23 9 22 14 23 37 C 23 45 23 52 24 60 C 23 61 22 62 20 63 C 19 64 17 67 15 67 C 9 67 7 72 7 80 C 7 91 8 95 15 97 C 24 101 24 97 24 176 C 24 255 24 253 31 260 C 39 268 45 270 64 270 C 84 270 86 269 89 263 C 90 255 89 238 86 237 C 86 237 83 237 79 236 C 67 231 68 236 68 165 C 68 145 67 124 67 104 C 68 102 69 101 71 100 C 73 97 75 97 79 97 C 86 97 89 94 89 80 C 89 69 86 68 79 67 C 68 64 68 63 68 36 C 69 8 69 9 55 7 C 44 6 30 6 28 7 z" fill="black"/><!-- width=100 height=282 -->
<path id="gl4625" d="M 28 7 C 23 9 22 14 23 37 C 23 45 23 52 24 60 C 23 61 22 62 20 63 C 19 64 17 67 15 67 C 9 67 7 72 7 80 C 7 91 8 95 15 97 C 24 101 24 97 24 176 C 24 255 24 253 31 260 C 39 268 45 270 64 270 C 84 270 86 269 89 263 C 90 255 89 238 86 237 C 86 237 83 237 79 236 C 67 231 68 236 68 165 C 68 145 67 124 67 104 C 68 102 69 101 71 100 C 73 97 75 97 79 97 C 86 97 89 94 89 80 C 89 69 86 68 79 67 C 68 64 68 63 68 36 C 69 8 69 9 55 7 C 44 6 30 6 28 7 z" fill="black"/><!-- width=100 height=282 -->
<path id="gl45572" d="M 14 6 C 12 7 9 8 9 8 C 8 9 9 220 10 235 C 10 242 10 251 10 254 C 7 269 9 279 16 281 C 20 281 49 279 51 278 C 56 277 56 272 52 234 C 52 225 52 201 52 171 C 54 154 54 139 54 122 C 55 120 56 118 57 116 C 68 98 87 98 96 117 C 97 120 98 121 98 123 C 98 148 98 172 98 198 C 98 238 99 273 99 276 C 102 287 136 287 142 276 C 144 273 144 267 142 247 C 141 229 141 205 141 168 C 142 110 141 104 135 92 C 128 75 117 68 104 69 C 91 70 76 76 66 86 C 54 98 51 92 54 40 C 55 4 56 7 36 7 C 27 6 21 6 20 4 C 19 4 16 4 14 6 z" fill="black"/><!-- width=153 height=293 -->
<path id="gl45573" d="M 85 8 C 57 9 34 18 26 28 C 24 32 21 36 20 37 C 18 40 13 49 12 56 C 10 68 9 152 12 165 C 19 202 36 217 79 222 C 110 224 117 222 129 206 C 139 194 144 183 146 168 C 148 151 144 147 123 146 C 102 146 100 147 100 164 C 100 188 85 198 64 186 C 55 180 51 164 54 138 C 54 118 54 118 105 122 C 111 123 122 122 130 122 C 138 121 144 121 145 121 C 150 120 146 58 141 44 C 136 31 135 28 127 21 C 126 19 122 18 120 15 C 117 15 112 13 110 10 C 106 8 104 8 100 8 C 98 8 91 8 85 8 M 88 42 C 100 48 108 78 99 86 C 94 92 63 93 57 88 C 52 84 51 64 56 52 C 61 42 78 36 88 42 z" fill="black"/><!-- width=158 height=235 -->
<path id="gl4621" d="M 67 12 C 66 13 64 16 64 18 C 64 19 62 25 61 30 C 60 35 59 42 59 44 C 56 53 49 85 44 106 C 42 115 39 128 38 134 C 36 140 35 149 33 154 C 30 165 28 173 25 193 C 15 235 12 254 8 264 C 4 280 4 281 30 282 C 59 283 57 285 64 240 C 66 219 68 213 77 212 C 93 212 99 212 109 211 C 128 210 130 211 134 231 C 135 239 135 246 135 248 C 136 256 141 277 143 280 C 146 281 148 282 160 282 C 167 282 177 282 182 283 C 192 285 194 283 194 276 C 194 273 188 250 186 240 C 184 236 182 229 181 223 C 177 206 173 192 170 182 C 169 176 167 169 166 164 C 165 159 163 144 159 131 C 154 109 153 102 146 74 C 144 68 143 57 142 51 C 134 7 135 9 119 9 C 114 9 101 8 90 8 C 84 8 77 8 71 7 C 70 8 68 9 67 12 M 103 79 C 105 85 107 97 109 107 C 111 115 114 132 117 143 C 122 170 120 173 107 176 C 95 177 84 175 80 172 C 78 169 77 160 80 144 C 82 138 83 128 84 120 C 95 65 99 59 103 79 z" fill="black"/><!-- width=205 height=294 -->
<path id="gl45574" d="M 27 7 C 13 8 9 10 8 16 C 7 31 9 180 12 188 C 16 210 36 220 61 214 C 72 212 74 210 84 201 C 91 193 96 192 97 195 C 97 196 98 200 98 202 C 100 210 103 210 120 211 C 136 211 139 210 139 199 C 138 152 138 44 138 31 C 140 7 140 8 116 7 C 102 7 100 7 98 9 C 97 10 96 10 94 12 C 94 37 94 63 94 88 C 94 114 94 140 94 165 C 93 168 92 170 91 171 C 81 188 61 188 52 171 C 50 165 50 152 51 46 C 51 9 51 6 43 7 C 42 7 33 7 27 7 z" fill="black"/><!-- width=148 height=225 -->
<path id="gl4625" d="M 28 7 C 23 9 22 14 23 37 C 23 45 23 52 24 60 C 23 61 22 62 20 63 C 19 64 17 67 15 67 C 9 67 7 72 7 80 C 7 91 8 95 15 97 C 24 101 24 97 24 176 C 24 255 24 253 31 260 C 39 268 45 270 64 270 C 84 270 86 269 89 263 C 90 255 89 238 86 237 C 86 237 83 237 79 236 C 67 231 68 236 68 165 C 68 145 67 124 67 104 C 68 102 69 101 71 100 C 73 97 75 97 79 97 C 86 97 89 94 89 80 C 89 69 86 68 79 67 C 68 64 68 63 68 36 C 69 8 69 9 55 7 C 44 6 30 6 28 7 z" fill="black"/><!-- width=100 height=282 -->
<path id="gl4634" d="M 10 7 C 9 7 7 8 7 9 C 6 13 7 275 8 277 C 9 278 32 279 40 278 C 49 277 48 284 48 199 C 48 174 48 148 48 122 C 49 120 51 118 52 115 C 59 99 77 97 88 109 C 94 116 94 119 94 199 C 94 223 93 249 93 273 C 94 275 96 276 97 276 C 103 281 133 279 136 275 C 137 273 137 234 136 187 C 136 159 136 130 136 102 C 135 99 133 97 133 94 C 122 68 86 62 63 82 C 54 91 53 91 49 85 C 48 81 47 79 48 52 C 49 9 49 9 47 7 C 45 4 15 4 10 7 z" fill="black"/><!-- width=149 height=290 -->
<path id="gl4636" d="M 59 8 C 30 10 16 23 10 53 C 7 67 7 69 7 112 C 7 200 15 216 65 219 C 111 221 130 209 139 175 C 143 162 143 78 140 59 C 134 19 109 3 59 8 M 87 41 C 89 42 92 46 94 48 C 95 50 96 52 98 54 C 98 71 98 88 99 106 C 99 160 99 173 95 179 C 88 190 64 191 54 181 C 48 174 48 172 48 118 C 47 54 49 47 63 41 C 69 37 82 37 87 41 z" fill="black"/><!-- width=153 height=232 -->
<path id="gl4637" d="M 79 7 C 74 9 67 15 61 25 C 56 32 51 34 49 32 C 46 30 46 27 46 19 C 48 14 44 8 42 7 C 33 7 10 8 9 9 C 8 10 7 30 7 108 C 7 140 7 173 7 206 C 8 207 9 207 10 208 C 13 210 44 210 48 208 C 50 207 50 204 50 183 C 49 127 49 83 51 75 C 55 62 63 57 83 56 C 87 55 92 54 93 54 C 95 51 96 10 95 6 C 92 3 85 3 79 7 z" fill="black"/><!-- width=106 height=221 -->
<path id="gl4633" d="M 52 8 C 15 13 -1 46 14 85 C 20 99 37 116 56 127 C 68 134 86 147 89 151 C 95 160 95 173 89 182 C 85 187 80 189 70 189 C 56 189 51 183 50 165 C 49 149 49 149 27 151 C 4 151 2 153 9 177 C 17 211 41 224 83 218 C 123 213 140 195 137 158 C 136 135 129 127 77 92 C 57 79 55 75 52 71 C 44 55 55 38 73 39 C 85 40 92 46 93 61 C 94 71 95 71 117 73 C 133 73 135 71 136 70 C 140 65 137 47 130 35 C 127 29 116 17 112 17 C 112 17 110 16 110 15 C 103 9 75 5 52 8 z" fill="black"/><!-- width=149 height=231 -->
</defs>
<use xlink:href="#gl4621" x="0" y="2"/>
<use xlink:href="#gl4622" x="286" y="3"/>
<use xlink:href="#gl4636" x="534" y="69"/>
<use xlink:href="#gl4624" x="783" y="70"/>
<use xlink:href="#gl4625" x="1015" y="15"/>
<use xlink:href="#gl4625" x="1345" y="14"/>
<use xlink:href="#gl45572" x="1526" y="3"/>
<use xlink:href="#gl45573" x="1771" y="65"/>
<use xlink:href="#gl4621" x="2171" y="0"/>
<use xlink:href="#gl45574" x="2453" y="70"/>
<use xlink:href="#gl4625" x="2687" y="12"/>
<use xlink:href="#gl4634" x="2874" y="3"/>
<use xlink:href="#gl4636" x="3121" y="66"/>
<use xlink:href="#gl4637" x="3371" y="70"/>
<use xlink:href="#gl4633" x="3548" y="65"/>
</svg>