<svg xmlns="http://www.w3.org/2000/svg" xmlns:xlink="http://www.w3.org/1999/xlink" width="890px" height="1261px" viewBox="0 0 8903 12619" version="1.1">
<defs>
<path id="gl32522" d="M 9 8 C 6 11 7 138 9 142 C 12 144 13 144 37 143 C 74 143 80 139 88 116 C 89 112 90 109 91 105 C 91 94 91 83 91 72 C 91 26 89 18 72 11 C 69 9 67 8 64 6 C 56 6 47 6 37 6 C 18 6 11 7 9 8 M 57 29 C 63 34 64 39 66 57 C 68 94 64 115 55 121 C 46 125 33 122 31 117 C 31 106 31 34 33 31 C 35 25 49 24 57 29 z" fill="black"/><!-- width=105 height=155 -->
<path id="gl15887" d="M 31 6 C 22 8 14 13 11 21 C 4 32 7 39 17 39 C 26 39 28 37 31 32 C 37 21 52 22 52 33 C 52 39 48 44 38 48 C 13 58 7 64 7 83 C 7 96 12 106 21 110 C 27 114 38 112 44 110 C 50 106 54 106 58 109 C 63 111 74 111 76 109 C 79 105 78 26 74 19 C 69 8 50 3 31 6 M 52 65 C 54 68 54 80 52 85 C 48 99 31 95 31 81 C 31 68 45 57 52 65 z" fill="black"/><!-- width=90 height=124 -->
<path id="gl15907" d="M 18 7 C 16 10 15 12 16 20 C 16 28 16 30 12 33 C 6 40 6 51 12 53 C 16 55 16 60 16 93 C 16 132 16 132 26 137 C 45 146 58 132 45 118 C 43 116 42 115 41 112 C 41 103 41 95 41 85 C 41 76 41 67 41 57 C 42 56 43 55 45 53 C 50 48 50 47 50 43 C 50 40 50 38 45 35 C 41 30 41 28 41 20 C 41 7 38 5 27 5 C 22 5 20 6 18 7 z" fill="black"/><!-- width=61 height=150 -->
<path id="gl37377" d="M 27 7 C 9 14 8 16 8 56 C 8 67 8 78 8 88 C 9 91 10 93 12 96 C 19 109 30 114 50 111 C 64 110 70 105 75 92 C 81 79 79 73 67 73 C 58 73 56 75 52 82 C 46 99 32 94 32 75 C 32 62 34 61 58 62 C 79 63 80 62 78 42 C 76 24 74 18 68 13 C 62 7 60 7 45 6 C 36 4 32 6 27 7 M 51 20 C 60 31 54 45 42 45 C 31 45 26 34 33 26 C 42 16 48 14 51 20 z" fill="black"/><!-- width=92 height=126 -->
<path id="gl34063" d="M 9 7 C 7 9 8 136 10 139 C 13 143 59 141 67 138 C 88 130 94 92 78 73 C 73 69 73 65 77 60 C 81 56 84 48 84 40 C 84 23 76 10 64 7 C 54 4 12 4 9 7 M 52 27 C 55 30 58 36 58 42 C 58 56 43 66 35 58 C 31 53 30 35 33 29 C 38 24 46 24 52 27 M 54 82 C 64 88 64 115 53 118 C 43 122 35 121 33 115 C 31 110 31 89 33 86 C 36 80 46 78 54 82 z" fill="black"/><!-- width=99 height=153 -->
<path id="gl15885" d="M 30 6 C 11 12 8 18 8 56 C 8 96 11 101 24 108 C 40 117 64 112 71 100 C 81 85 79 75 67 75 C 59 74 55 76 54 82 C 48 100 30 95 30 76 C 30 64 35 61 58 63 C 79 64 79 64 77 44 C 76 23 72 13 61 8 C 55 6 38 4 30 6 M 50 28 C 54 32 54 38 51 43 C 48 46 37 46 33 43 C 24 32 42 17 50 28 z" fill="black"/><!-- width=90 height=123 -->
<path id="gl16653" d="M 14 7 C 12 7 9 8 9 9 C 8 12 8 138 9 142 C 10 144 18 146 25 145 C 33 144 33 144 32 104 C 31 71 31 70 33 65 C 38 57 47 55 52 63 C 54 66 54 69 53 104 C 53 148 52 145 65 145 C 71 145 74 145 76 143 C 76 142 77 140 78 139 C 78 126 78 112 78 99 C 78 76 77 57 77 55 C 74 42 59 35 46 41 C 33 46 31 42 32 25 C 35 14 33 10 30 8 C 27 6 19 4 14 7 z" fill="black"/><!-- width=89 height=155 -->
<path id="gl15906" d="M 31 8 C 18 11 12 17 8 28 C 6 38 7 41 15 41 C 24 42 26 40 30 34 C 36 23 51 24 51 38 C 51 42 45 49 34 52 C 22 56 13 62 11 68 C 7 76 7 99 11 105 C 15 116 30 120 42 114 C 46 112 49 111 51 110 C 52 111 55 111 57 112 C 65 115 73 115 76 112 C 77 111 77 104 77 68 C 76 17 76 18 63 12 C 56 8 41 7 31 8 M 50 68 C 53 71 53 83 51 89 C 46 103 30 99 30 84 C 30 72 44 61 50 68 z" fill="black"/><!-- width=89 height=127 -->
<path id="gl15878" d="M 9 7 C 7 8 6 9 6 11 C 4 13 18 72 24 98 C 27 108 28 109 42 109 C 53 109 59 106 59 98 C 59 93 72 38 77 19 C 81 7 74 2 59 7 C 54 8 53 11 51 28 C 47 72 36 72 32 27 C 31 19 29 12 29 11 C 28 6 16 3 9 7 z" fill="black"/><!-- width=89 height=121 -->
<path id="gl15892" d="M 12 6 C 7 7 6 8 6 16 C 6 25 10 27 18 27 C 28 27 32 22 31 12 C 30 6 20 2 12 6 M 10 41 C 6 44 6 138 10 141 C 13 143 25 143 27 141 C 28 139 30 139 31 138 C 31 123 31 107 31 91 C 31 36 31 40 18 40 C 15 40 11 40 10 41 z" fill="black"/><!-- width=44 height=153 -->
<path id="gl16134" d="M 31 7 C 11 9 6 23 7 71 C 8 106 13 112 40 112 C 66 112 74 105 75 74 C 76 55 75 32 73 26 C 68 11 52 3 31 7 M 49 29 C 50 31 52 32 53 33 C 53 42 53 50 53 60 C 53 69 53 78 53 88 C 52 89 50 90 49 91 C 44 95 38 95 33 91 C 32 90 31 89 29 89 C 29 79 29 69 29 60 C 29 32 29 32 32 28 C 37 23 44 23 49 29 z" fill="black"/><!-- width=88 height=125 -->
<path id="gl15886" d="M 43 7 C 36 13 34 13 29 8 C 26 6 23 6 19 6 C 8 6 8 2 8 57 C 8 113 8 108 21 108 C 33 108 32 109 33 72 C 33 37 33 34 43 33 C 44 33 48 32 49 32 C 56 31 58 26 58 17 C 58 4 52 1 43 7 z" fill="black"/><!-- width=69 height=119 -->
<path id="gl15906" d="M 31 8 C 18 11 12 17 8 28 C 6 38 7 41 15 41 C 24 42 26 40 30 34 C 36 23 51 24 51 38 C 51 42 45 49 34 52 C 22 56 13 62 11 68 C 7 76 7 99 11 105 C 15 116 30 120 42 114 C 46 112 49 111 51 110 C 52 111 55 111 57 112 C 65 115 73 115 76 112 C 77 111 77 104 77 68 C 76 17 76 18 63 12 C 56 8 41 7 31 8 M 50 68 C 53 71 53 83 51 89 C 46 103 30 99 30 84 C 30 72 44 61 50 68 z" fill="black"/><!-- width=89 height=127 -->
<path id="gl15888" d="M 14 4 C 8 6 8 6 8 74 C 8 149 7 143 21 143 C 33 143 33 149 33 74 C 33 39 33 9 32 9 C 32 6 22 3 14 4 z" fill="black"/><!-- width=46 height=154 -->
<path id="gl37378" d="M 38 8 C 27 10 16 19 14 26 C 9 44 8 111 13 127 C 20 151 58 158 78 140 C 84 135 86 130 90 117 C 93 99 92 96 81 94 C 68 93 64 97 63 110 C 63 121 61 126 54 127 C 48 128 44 127 39 121 C 38 120 37 118 36 116 C 36 104 36 92 36 80 C 36 68 36 56 34 44 C 36 43 37 40 38 38 C 42 31 44 28 51 28 C 60 28 62 32 64 48 C 66 54 82 57 88 51 C 93 46 90 26 80 16 C 74 8 52 4 38 8 z" fill="black"/><!-- width=102 height=159 -->
<path id="gl16653" d="M 14 7 C 12 7 9 8 9 9 C 8 12 8 138 9 142 C 10 144 18 146 25 145 C 33 144 33 144 32 104 C 31 71 31 70 33 65 C 38 57 47 55 52 63 C 54 66 54 69 53 104 C 53 148 52 145 65 145 C 71 145 74 145 76 143 C 76 142 77 140 78 139 C 78 126 78 112 78 99 C 78 76 77 57 77 55 C 74 42 59 35 46 41 C 33 46 31 42 32 25 C 35 14 33 10 30 8 C 27 6 19 4 14 7 z" fill="black"/><!-- width=89 height=155 -->
<path id="gl15887" d="M 31 6 C 22 8 14 13 11 21 C 4 32 7 39 17 39 C 26 39 28 37 31 32 C 37 21 52 22 52 33 C 52 39 48 44 38 48 C 13 58 7 64 7 83 C 7 96 12 106 21 110 C 27 114 38 112 44 110 C 50 106 54 106 58 109 C 63 111 74 111 76 109 C 79 105 78 26 74 19 C 69 8 50 3 31 6 M 52 65 C 54 68 54 80 52 85 C 48 99 31 95 31 81 C 31 68 45 57 52 65 z" fill="black"/><!-- width=90 height=124 -->
<path id="gl15909" d="M 39 9 C 34 12 33 12 27 9 C 18 7 12 7 9 9 C 7 11 7 13 7 59 C 7 115 6 113 18 113 C 31 113 29 113 29 76 C 28 58 28 41 29 38 C 31 28 41 24 48 31 C 48 32 49 33 51 34 C 51 47 51 59 51 72 C 51 114 49 113 63 113 C 76 113 76 114 74 64 C 74 17 74 17 66 11 C 59 6 48 4 39 9 z" fill="black"/><!-- width=87 height=124 -->
<path id="gl31749" d="M 20 9 C 11 14 8 24 9 65 C 9 92 9 94 12 101 C 18 112 28 115 43 110 C 50 109 54 112 52 119 C 51 128 44 130 33 125 C 17 118 6 124 13 136 C 20 149 50 150 65 139 C 76 131 77 123 77 61 C 77 45 77 29 77 13 C 76 12 76 11 75 11 C 71 7 67 7 56 9 C 50 11 49 11 43 8 C 34 6 27 6 20 9 M 48 28 C 52 30 52 34 52 60 C 52 82 52 84 50 88 C 46 97 38 96 34 88 C 32 83 32 82 32 60 C 32 48 32 36 33 34 C 35 27 41 24 48 28 z" fill="black"/><!-- width=91 height=157 -->
<path id="gl15885" d="M 30 6 C 11 12 8 18 8 56 C 8 96 11 101 24 108 C 40 117 64 112 71 100 C 81 85 79 75 67 75 C 59 74 55 76 54 82 C 48 100 30 95 30 76 C 30 64 35 61 58 63 C 79 64 79 64 77 44 C 76 23 72 13 61 8 C 55 6 38 4 30 6 M 50 28 C 54 32 54 38 51 43 C 48 46 37 46 33 43 C 24 32 42 17 50 28 z" fill="black"/><!-- width=90 height=123 -->
<path id="gl37379" d="M 87 6 C 81 7 80 13 75 45 C 69 81 58 79 53 40 C 48 3 51 6 28 6 C 15 6 10 7 9 8 C 7 9 7 13 7 73 C 7 108 7 137 7 138 C 8 146 24 147 30 142 C 32 140 32 138 30 116 C 29 93 30 69 31 63 C 32 60 34 60 36 60 C 40 63 49 96 52 121 C 54 142 58 147 68 143 C 74 142 74 141 76 123 C 79 104 81 90 86 75 C 91 64 91 64 93 65 C 97 68 98 87 97 116 C 96 143 96 144 110 144 C 124 144 125 142 123 120 C 123 108 123 40 124 15 C 124 7 121 6 104 6 C 97 6 90 6 87 6 z" fill="black"/><!-- width=135 height=157 -->
<path id="gl15887" d="M 31 6 C 22 8 14 13 11 21 C 4 32 7 39 17 39 C 26 39 28 37 31 32 C 37 21 52 22 52 33 C 52 39 48 44 38 48 C 13 58 7 64 7 83 C 7 96 12 106 21 110 C 27 114 38 112 44 110 C 50 106 54 106 58 109 C 63 111 74 111 76 109 C 79 105 78 26 74 19 C 69 8 50 3 31 6 M 52 65 C 54 68 54 80 52 85 C 48 99 31 95 31 81 C 31 68 45 57 52 65 z" fill="black"/><!-- width=90 height=124 -->
<path id="gl16129" d="M 62 4 C 56 7 53 9 51 15 C 48 22 45 24 41 22 C 39 20 39 19 35 12 C 33 7 30 4 19 4 C 12 4 11 6 9 8 C 7 12 7 12 22 39 C 33 57 33 57 18 82 C 6 104 6 105 8 107 C 15 115 31 110 34 100 C 39 86 48 85 51 99 C 53 106 56 108 62 110 C 71 111 77 110 79 106 C 80 102 80 102 71 84 C 57 60 56 58 57 55 C 57 51 68 30 75 19 C 83 8 77 1 62 4 z" fill="black"/><!-- width=90 height=122 -->
<path id="gl31755" d="M 12 8 C 8 12 8 21 10 26 C 14 30 29 30 32 25 C 37 20 37 12 32 8 C 27 3 15 3 12 8 M 12 42 C 9 43 9 47 9 92 C 9 147 8 144 21 144 C 35 144 33 146 33 92 C 33 76 33 60 33 44 C 33 43 32 43 31 42 C 27 40 15 40 12 42 z" fill="black"/><!-- width=47 height=153 -->
<path id="gl15893" d="M 41 8 C 35 11 34 11 26 8 C 17 7 11 7 8 10 C 8 11 7 26 7 59 C 7 75 7 90 7 107 C 8 107 10 108 11 109 C 13 112 24 112 27 109 C 29 108 30 108 31 107 C 31 96 30 83 30 70 C 30 29 30 25 41 24 C 53 24 54 27 53 70 C 53 82 53 93 53 106 C 53 107 54 107 55 108 C 59 112 70 112 74 108 C 75 107 77 106 78 106 C 77 94 77 83 77 72 C 75 34 75 32 80 27 C 89 18 102 30 99 45 C 99 48 98 61 98 78 C 98 88 98 97 98 107 C 99 107 101 108 101 109 C 106 112 118 112 121 108 C 123 106 123 26 121 20 C 116 6 98 1 83 10 C 80 11 78 12 75 13 C 72 12 69 11 66 10 C 56 5 50 5 41 8 z" fill="black"/><!-- width=136 height=122 -->
<path id="gl15904" d="M 10 6 C 6 8 6 10 7 56 C 7 97 7 100 9 102 C 15 111 27 113 39 107 C 42 106 44 105 47 103 C 48 105 50 106 51 106 C 60 109 66 109 71 107 C 73 105 73 105 73 59 C 73 20 73 12 72 9 C 70 4 55 4 50 8 C 49 9 49 16 49 44 C 50 83 49 85 43 90 C 33 95 27 86 28 71 C 30 44 30 10 27 8 C 25 6 14 4 10 6 z" fill="black"/><!-- width=86 height=120 -->
<path id="gl15893" d="M 41 8 C 35 11 34 11 26 8 C 17 7 11 7 8 10 C 8 11 7 26 7 59 C 7 75 7 90 7 107 C 8 107 10 108 11 109 C 13 112 24 112 27 109 C 29 108 30 108 31 107 C 31 96 30 83 30 70 C 30 29 30 25 41 24 C 53 24 54 27 53 70 C 53 82 53 93 53 106 C 53 107 54 107 55 108 C 59 112 70 112 74 108 C 75 107 77 106 78 106 C 77 94 77 83 77 72 C 75 34 75 32 80 27 C 89 18 102 30 99 45 C 99 48 98 61 98 78 C 98 88 98 97 98 107 C 99 107 101 108 101 109 C 106 112 118 112 121 108 C 123 106 123 26 121 20 C 116 6 98 1 83 10 C 80 11 78 12 75 13 C 72 12 69 11 66 10 C 56 5 50 5 41 8 z" fill="black"/><!-- width=136 height=122 -->
<path id="gl15912" d="M 37 8 C 33 10 33 14 32 20 C 31 25 29 37 26 48 C 22 59 19 76 16 88 C 14 99 10 113 9 119 C 4 140 6 144 16 144 C 29 145 32 141 35 125 C 36 111 39 107 50 107 C 64 107 67 111 70 124 C 71 141 75 145 87 145 C 100 145 101 139 96 121 C 95 114 91 102 89 94 C 88 84 84 68 82 59 C 79 49 76 33 75 26 C 71 6 71 6 53 6 C 41 4 41 4 37 8 M 58 59 C 64 75 61 88 52 88 C 43 88 41 79 45 64 C 49 50 54 49 58 59 z" fill="black"/><!-- width=111 height=153 -->
<path id="gl35587" d="M 40 8 C 35 9 33 9 27 8 C 20 6 10 7 8 9 C 8 10 7 94 7 101 C 8 110 21 112 29 107 C 31 104 31 107 30 64 C 30 37 30 36 32 31 C 37 24 46 24 50 31 C 53 36 53 38 52 70 C 52 81 50 92 50 104 C 52 104 53 105 54 106 C 58 110 69 111 73 106 C 76 104 76 104 76 64 C 76 21 75 19 70 13 C 65 6 50 3 40 8 z" fill="black"/><!-- width=88 height=122 -->
<path id="gl15891" d="M 8 7 C 4 8 6 14 17 33 C 29 57 29 55 16 80 C 2 105 2 110 16 109 C 26 109 29 108 32 100 C 38 85 44 85 49 100 C 52 106 53 108 63 109 C 78 110 80 105 73 93 C 64 80 54 59 54 55 C 54 52 64 33 72 21 C 79 9 77 4 64 4 C 55 4 52 7 49 14 C 44 24 38 24 34 14 C 33 12 31 8 29 8 C 27 6 12 4 8 7 z" fill="black"/><!-- width=86 height=120 -->
<path id="gl15892" d="M 12 6 C 7 7 6 8 6 16 C 6 25 10 27 18 27 C 28 27 32 22 31 12 C 30 6 20 2 12 6 M 10 41 C 6 44 6 138 10 141 C 13 143 25 143 27 141 C 28 139 30 139 31 138 C 31 123 31 107 31 91 C 31 36 31 40 18 40 C 15 40 11 40 10 41 z" fill="black"/><!-- width=44 height=153 -->
<path id="gl15879" d="M 32 7 C 20 8 15 12 10 21 C 6 27 6 86 8 95 C 19 121 67 120 74 93 C 78 79 76 76 64 76 C 57 76 50 79 50 86 C 50 92 40 97 34 92 C 27 88 26 72 32 67 C 36 63 36 63 53 64 C 72 65 72 64 74 60 C 77 57 76 35 73 25 C 68 11 53 3 32 7 M 49 27 C 54 32 52 44 45 46 C 36 49 29 44 29 36 C 29 26 41 21 49 27 z" fill="black"/><!-- width=87 height=126 -->
<path id="gl15907" d="M 18 7 C 16 10 15 12 16 20 C 16 28 16 30 12 33 C 6 40 6 51 12 53 C 16 55 16 60 16 93 C 16 132 16 132 26 137 C 45 146 58 132 45 118 C 43 116 42 115 41 112 C 41 103 41 95 41 85 C 41 76 41 67 41 57 C 42 56 43 55 45 53 C 50 48 50 47 50 43 C 50 40 50 38 45 35 C 41 30 41 28 41 20 C 41 7 38 5 27 5 C 22 5 20 6 18 7 z" fill="black"/><!-- width=61 height=150 -->
<path id="gl16647" d="M 58 6 C 54 8 53 13 50 29 C 48 69 36 67 32 23 C 29 7 28 6 16 6 C 4 6 1 9 6 21 C 7 23 8 29 9 36 C 12 42 16 58 19 73 C 31 120 31 120 21 124 C 8 129 13 145 26 145 C 43 144 49 137 55 106 C 63 75 65 68 67 62 C 68 57 70 48 72 40 C 73 33 75 24 76 22 C 79 14 79 8 75 6 C 73 3 63 3 58 6 z" fill="black"/><!-- width=89 height=155 -->
<path id="gl32525" d="M 30 8 C 27 11 19 29 15 40 C 7 66 7 118 15 143 C 24 171 32 183 39 183 C 49 183 49 178 42 160 C 34 139 33 130 33 91 C 33 53 34 43 42 23 C 48 10 48 9 45 7 C 41 2 35 3 30 8 z" fill="black"/><!-- width=59 height=192 -->
<path id="gl32528" d="M 29 6 C 20 9 13 15 10 24 C 7 34 8 120 12 129 C 17 139 24 144 41 144 C 66 146 79 136 80 108 C 81 97 81 96 85 92 C 88 87 88 80 83 76 C 82 76 81 75 81 74 C 81 68 81 60 81 54 C 81 25 76 14 64 8 C 58 6 35 4 29 6 M 51 29 C 52 30 53 31 54 32 C 54 47 54 60 54 75 C 54 88 54 103 54 116 C 53 118 52 119 51 120 C 47 125 42 125 37 121 C 31 116 31 115 31 73 C 32 59 32 46 32 32 C 34 31 35 30 36 29 C 41 25 46 25 51 29 z" fill="black"/><!-- width=96 height=158 -->
<path id="gl31763" d="M 4 7 C 3 8 4 25 6 26 C 7 27 24 27 47 27 C 93 26 92 26 92 16 C 92 7 93 7 47 7 C 24 7 4 7 4 7 z" fill="black"/><!-- width=103 height=40 -->
<path id="gl31764" d="M 45 7 C 44 7 42 11 39 14 C 34 22 29 26 22 27 C 7 29 3 34 7 43 C 8 48 9 49 22 49 C 38 49 37 45 37 95 C 37 110 35 123 35 137 C 37 138 38 140 39 140 C 44 143 55 143 59 141 C 60 140 61 138 63 138 C 63 117 63 95 63 74 C 63 53 63 30 63 9 C 61 9 60 8 59 7 C 57 4 49 4 45 7 z" fill="black"/><!-- width=75 height=153 -->
<path id="gl32530" d="M 25 8 C 8 16 7 20 7 76 C 7 126 7 130 17 138 C 30 148 59 146 70 135 C 77 126 79 123 79 74 C 79 60 79 45 79 31 C 77 28 76 26 75 23 C 70 11 60 7 42 7 C 35 7 30 7 25 8 M 46 27 C 53 31 53 35 53 76 C 53 118 52 120 46 123 C 41 125 37 124 33 119 C 32 118 31 116 30 115 C 31 101 31 89 31 75 C 31 61 31 47 31 33 C 32 32 33 31 35 30 C 40 26 41 26 46 27 z" fill="black"/><!-- width=91 height=156 -->
<path id="gl31765" d="M 28 7 C 21 10 13 17 11 25 C 8 35 8 115 11 124 C 15 138 26 144 45 144 C 65 144 77 135 80 118 C 82 106 82 36 80 27 C 75 10 52 0 28 7 M 51 28 C 56 33 56 36 56 75 C 56 118 55 120 47 121 C 42 123 40 123 36 119 C 36 118 35 116 33 115 C 33 103 33 90 33 76 C 33 36 33 31 38 28 C 42 26 49 26 51 28 z" fill="black"/><!-- width=95 height=157 -->
<path id="gl31761" d="M 8 4 C 6 7 6 10 10 22 C 25 56 25 121 12 157 C 6 175 6 179 14 179 C 21 179 25 175 32 161 C 49 125 50 73 36 34 C 30 19 25 8 21 6 C 18 2 10 2 8 4 z" fill="black"/><!-- width=57 height=188 -->
<path id="gl37380" d="M 7507 4 C 7506 4 7501 6 7495 4 C 7490 4 7480 4 7473 4 C 7467 4 6654 4 5664 6 C 4675 6 3567 7 3202 7 C 2674 7 2539 7 2538 8 C 2536 10 2532 10 2530 8 C 2529 7 2515 7 2514 8 C 2512 10 2445 10 2444 8 C 2443 7 2438 7 2437 8 C 2436 10 2373 10 2372 8 C 2371 7 2361 7 2360 8 C 2359 10 2349 10 2348 8 C 2347 7 2296 7 2102 7 C 1968 7 1834 7 1806 7 C 1710 7 1612 8 1611 9 C 1609 10 1398 10 1396 8 C 1395 7 1387 7 1386 8 C 1384 10 1380 10 1378 8 C 1377 7 1344 7 1342 8 C 1341 10 1309 10 1286 8 C 1262 7 984 7 982 8 C 981 10 722 10 721 8 C 720 7 700 7 699 8 C 698 10 693 10 692 8 C 691 8 691 8 690 8 C 688 10 668 10 667 8 C 666 7 620 7 612 8 C 604 10 348 10 346 8 C 345 7 336 7 334 8 C 333 9 219 9 196 8 C 190 8 186 8 186 9 C 186 9 147 9 96 9 C -2 9 1 9 2 16 C 2 20 2 21 6 22 C 8 22 94 22 198 22 C 326 24 387 24 387 25 C 388 26 530 26 532 24 C 534 24 537 24 541 24 C 554 25 586 26 589 25 C 592 24 1359 22 2258 21 C 2349 21 2600 21 2816 21 C 3032 21 3346 21 3514 21 C 4012 22 4093 22 4381 21 C 4570 21 4657 20 4659 20 C 4663 18 4687 18 4688 19 C 4689 21 4713 21 4714 19 C 4716 18 4754 18 4755 19 C 4756 21 4785 21 4786 19 C 4788 18 4826 18 4827 20 C 4830 21 5431 22 5475 20 C 5520 19 5722 18 5725 20 C 5727 21 5992 21 6158 21 C 6255 20 6376 20 6391 20 C 6398 21 6403 20 6404 20 C 6405 18 6424 18 6426 19 C 6427 21 6489 21 6490 19 C 6492 19 6495 18 6501 19 C 6506 19 6513 19 6516 19 C 6519 19 6538 19 6559 19 C 6580 19 6594 19 6595 19 C 6596 21 6609 20 6610 19 C 6612 18 6626 18 6627 19 C 6628 21 6643 21 6644 19 C 6645 18 6760 18 6762 20 C 6764 21 7006 21 7021 19 C 7035 18 7250 18 7251 19 C 7252 21 7262 21 7263 19 C 7264 18 7269 18 7270 20 C 7272 21 7549 21 7971 19 C 8091 19 8130 19 8131 20 C 8134 22 8487 21 8492 19 C 8497 16 8499 16 8504 19 C 8508 21 8566 21 8569 19 C 8571 18 8583 18 8586 19 C 8587 21 8596 21 8598 20 C 8599 18 8634 18 8635 19 C 8636 21 8649 21 8650 19 C 8652 18 8666 18 8667 19 C 8668 20 8677 20 8692 20 C 8706 20 8752 19 8796 19 C 8839 18 8876 18 8876 16 C 8880 14 8878 8 8874 7 C 8871 6 8817 4 8679 4 C 8545 6 8488 4 8487 4 C 8485 2 8414 3 8402 4 C 8391 7 7628 6 7621 3 C 7615 2 7600 3 7578 4 C 7573 4 7568 4 7567 4 C 7563 3 7509 3 7507 4 z" fill="black"/><!-- width=8886 height=34 -->
<path id="gl37381" d="M 8436 4 C 8432 4 8035 6 7203 6 C 6529 6 5925 7 5862 7 C 5798 7 5727 7 5704 7 C 5650 7 5636 7 5634 8 C 5632 10 5599 10 5598 8 C 5596 7 5577 7 5576 8 C 5575 10 5565 10 5564 8 C 5562 6 4844 6 4842 8 C 4840 10 4825 10 4819 9 C 4816 8 4814 8 4814 9 C 4813 10 4736 9 4630 8 C 4538 6 4210 7 4208 8 C 4207 10 4197 10 4196 8 C 4195 7 4190 7 4189 8 C 4188 10 4178 10 4177 8 C 4174 7 3990 7 3987 8 C 3986 10 3976 10 3975 8 C 3974 7 3864 7 3864 9 C 3864 9 3861 9 3859 9 C 3850 8 3812 7 3811 8 C 3810 10 3799 10 3798 8 C 3796 7 3772 7 3771 8 C 3770 10 3655 10 3654 8 C 3652 7 3404 7 3384 8 C 3363 10 3151 10 3150 8 C 3148 8 3084 7 2936 7 C 2864 7 2808 8 2806 8 C 2805 10 2800 10 2799 8 C 2797 6 2718 7 2714 9 C 2710 12 2700 12 2695 9 C 2691 7 2688 7 2686 8 C 2684 10 2624 10 2622 9 C 2620 7 2616 7 2614 8 C 2613 10 2604 10 2602 8 C 2601 7 2592 7 2590 8 C 2589 10 2584 10 2583 8 C 2582 8 2581 8 2581 8 C 2580 10 2277 10 2276 8 C 2274 7 1849 7 1846 8 C 1844 10 1202 10 1201 8 C 1200 7 1171 7 1170 8 C 1168 10 1164 10 1162 8 C 1161 7 1147 7 1146 8 C 1144 10 1120 10 1119 8 C 1118 7 1113 7 1112 8 C 1111 10 1070 10 1070 8 C 1070 7 1021 7 1018 8 C 1016 9 848 10 511 10 C 100 10 7 10 4 12 C 3 14 4 20 8 22 C 8 22 36 24 68 24 C 108 24 128 24 128 25 C 129 25 129 25 130 25 C 133 22 256 22 258 25 C 259 26 291 26 493 26 C 560 25 604 25 606 24 C 607 22 650 22 651 25 C 652 25 652 25 654 25 C 655 22 741 22 742 25 C 744 26 757 26 758 25 C 759 22 784 22 786 25 C 787 26 792 26 793 25 C 794 22 800 22 801 25 C 802 26 840 26 841 25 C 842 22 871 22 872 25 C 873 26 888 26 889 25 C 890 22 901 22 902 25 C 903 26 969 26 970 25 C 972 22 978 22 979 25 C 980 26 988 26 990 25 C 991 22 1261 22 1262 25 C 1263 25 1280 25 1310 25 C 1401 24 1778 22 1779 25 C 1780 26 1790 26 1791 25 C 1792 22 1812 22 1813 25 C 1814 26 1824 26 1825 25 C 1826 22 1831 22 1832 25 C 1833 26 1838 26 1839 25 C 1842 22 1940 22 1942 24 C 1944 26 1948 26 1950 24 C 1950 24 1963 22 1987 22 C 2019 22 2648 22 2758 24 C 2784 24 2803 24 2803 25 C 2804 26 2870 26 2871 24 C 2872 24 3232 22 4186 22 C 5322 21 6580 21 6586 20 C 6586 20 6603 21 6622 21 C 6654 22 6658 21 6662 20 C 6667 18 6669 18 6670 20 C 6673 21 7045 21 7047 20 C 7048 18 7116 18 7117 19 C 7118 21 7160 21 7162 20 C 7164 18 7168 18 7170 20 C 7172 21 7819 21 7844 19 C 7869 18 8110 18 8112 20 C 8114 22 8494 21 8498 19 C 8500 16 8509 16 8512 19 C 8515 21 8571 21 8574 19 C 8575 19 8628 18 8727 18 C 8894 18 8884 19 8883 10 C 8882 8 8881 7 8878 6 C 8876 6 8781 6 8667 6 C 8518 6 8460 4 8458 4 C 8455 2 8440 2 8436 4 z" fill="black"/><!-- width=8890 height=34 -->
<path id="gl37382" d="M 7484 3 C 7484 4 7470 4 7453 4 C 7417 4 5594 7 5587 7 C 5578 7 4989 7 4123 7 C 3511 7 3355 7 3354 8 C 3352 10 3338 10 3337 8 C 3336 7 3331 7 3330 8 C 3328 10 3315 10 3312 8 C 3307 6 2540 6 2538 8 C 2535 10 2287 10 2284 8 C 2283 7 1777 7 1774 8 C 1773 10 1764 10 1762 8 C 1760 7 1666 7 1664 9 C 1663 10 1653 10 1652 8 C 1651 7 1636 7 1635 8 C 1634 10 1245 10 1244 8 C 1242 7 1153 7 1150 8 C 1149 10 1135 10 1134 8 C 1132 7 1104 7 1102 8 C 1101 10 1092 10 1090 8 C 1089 7 1017 7 1016 8 C 1015 10 722 10 721 8 C 720 8 720 8 718 8 C 717 10 684 10 682 8 C 681 7 676 7 675 8 C 675 9 562 9 343 9 C 100 9 9 10 7 12 C 3 13 2 13 3 16 C 3 24 -3 24 174 24 C 283 24 339 24 339 25 C 340 26 355 26 356 25 C 357 22 372 22 373 25 C 375 26 598 26 601 25 C 602 22 909 22 910 25 C 912 26 926 26 927 24 C 928 24 1411 22 2602 22 C 3524 22 4561 21 4908 21 C 5426 21 5539 21 5540 20 C 5542 18 5718 18 5720 20 C 5722 21 6440 21 6442 20 C 6444 18 6453 18 6454 19 C 6456 21 6504 21 6505 19 C 6506 18 6516 18 6517 19 C 6518 21 6528 21 6529 19 C 6530 18 6717 18 6718 19 C 6720 21 6734 21 6735 19 C 6736 18 6760 18 6762 20 C 6764 21 7035 21 7038 19 C 7039 18 7168 18 7170 20 C 7171 20 7172 20 7172 20 C 7173 18 7192 18 7194 19 C 7195 21 7200 21 7201 19 C 7202 18 7284 18 7285 19 C 7286 21 7555 21 7556 19 C 7557 18 7668 18 7669 19 C 7670 21 7699 21 7700 19 C 7701 18 7725 18 7726 20 C 7728 20 7729 20 7729 20 C 7730 18 8176 18 8178 19 C 8179 20 8433 20 8488 19 C 8492 19 8504 20 8514 20 C 8528 21 8533 20 8534 19 C 8535 18 8565 18 8706 18 C 8890 18 8882 19 8882 12 C 8882 4 8886 4 8770 4 C 8702 4 8666 4 8665 4 C 8664 2 8644 2 8643 4 C 8642 6 8628 6 8626 4 C 8625 2 8389 2 8385 4 C 8382 6 8325 6 8324 3 C 8323 2 8313 2 8312 3 C 8311 6 8226 6 8223 4 C 8222 2 8217 2 8216 4 C 8214 6 7626 6 7623 3 C 7622 3 7605 3 7567 3 C 7501 4 7504 4 7494 3 C 7489 3 7485 3 7484 3 z" fill="black"/><!-- width=8890 height=34 -->
<path id="gl37383" d="M 7507 3 C 7454 3 7400 4 7386 4 C 7339 6 7274 4 7273 4 C 7272 2 7248 2 7246 4 C 7245 6 7236 6 7234 3 C 7233 3 7233 3 7232 3 C 7231 6 7221 6 7220 4 C 7219 3 7219 3 7218 4 C 7215 6 6751 6 6750 4 C 6748 2 6705 2 6704 4 C 6703 6 6679 6 6678 4 C 6676 2 6643 2 6642 4 C 6640 6 6242 6 6241 4 C 6240 2 6211 2 6210 4 C 6208 6 5829 6 4521 6 C 2692 6 2487 7 2485 8 C 2484 10 2479 10 2478 9 C 2475 7 2439 6 2437 8 C 2434 10 2428 10 2424 8 C 2419 6 1618 6 1616 8 C 1615 10 1600 10 1599 8 C 1598 7 1579 7 1578 8 C 1576 10 1476 10 1474 8 C 1473 8 1473 8 1472 8 C 1471 10 1418 10 1417 8 C 1414 6 999 7 997 8 C 996 10 920 10 918 8 C 916 7 600 8 571 9 C 560 9 554 9 553 8 C 550 7 542 7 499 9 C 488 9 482 9 481 9 C 480 7 475 7 474 8 C 472 10 453 10 452 8 C 451 7 427 7 420 9 C 415 9 411 9 405 9 C 400 8 398 8 397 8 C 396 10 381 10 380 8 C 378 7 6 9 3 12 C 1 13 1 14 6 19 C 7 20 8 21 9 22 C 87 22 166 22 246 22 C 411 22 482 24 483 25 C 484 25 484 25 486 25 C 486 24 499 22 524 22 C 546 22 919 22 1353 22 C 2196 21 2316 21 2318 19 C 2319 18 2402 18 2403 20 C 2404 20 2404 20 2406 20 C 2407 18 2416 18 2418 20 C 2419 21 2498 21 2802 21 C 3265 21 3278 21 3279 19 C 3280 18 3300 18 3301 20 C 3304 22 4240 21 4245 19 C 4248 18 4248 18 4251 19 C 4255 21 4653 21 4659 19 C 4664 18 4845 18 4848 20 C 4850 21 4851 21 4852 20 C 4856 18 4863 18 4866 20 C 4869 24 5335 21 5340 19 C 5343 16 5372 18 5374 20 C 5376 21 5515 21 5516 19 C 5517 18 5800 18 5802 19 C 5803 21 6171 21 6174 19 C 6175 18 6261 18 6262 19 C 6264 21 6273 21 6274 19 C 6276 18 6300 18 6301 20 C 6302 20 6302 20 6303 20 C 6304 18 6314 18 6315 19 C 6316 21 6326 21 6327 19 C 6328 18 6420 18 6421 19 C 6422 21 6427 21 6428 19 C 6429 18 6879 18 6882 19 C 6883 20 6883 20 6884 19 C 6885 18 6928 18 6930 19 C 6931 21 6988 21 6990 19 C 6991 18 7292 18 7294 19 C 7296 21 7300 21 7302 19 C 7303 18 7347 18 7348 20 C 7350 20 7356 20 7369 20 C 7394 19 7424 19 7432 20 C 7437 20 7442 20 7448 19 C 7454 18 7456 18 7459 19 C 7461 21 7492 20 7527 19 C 7569 16 7588 16 7608 20 C 7610 20 7612 20 7614 19 C 7617 16 7694 16 7702 19 C 7707 20 7710 20 7710 19 C 7712 18 8295 18 8300 19 C 8304 21 8385 21 8401 19 C 8408 19 8415 18 8418 18 C 8420 19 8427 19 8433 19 C 8440 19 8542 18 8660 18 C 8778 18 8876 18 8876 16 C 8877 16 8877 14 8878 12 C 8880 4 8880 4 8830 4 C 8802 4 8785 4 8785 4 C 8784 2 8755 2 8754 4 C 8752 6 8719 6 8718 4 C 8716 2 8707 2 8706 4 C 8704 6 8696 6 8692 3 C 8691 2 8690 2 8688 3 C 8685 6 8676 6 8674 3 C 8672 2 8215 2 8174 4 C 8166 4 8157 4 8156 4 C 8154 3 8121 2 8120 4 C 8119 6 7802 6 7801 4 C 7800 2 7626 2 7507 3 z" fill="black"/><!-- width=8886 height=34 -->
<path id="gl37632" d="M 8473 4 C 8471 6 8222 6 7236 6 C 5946 6 5761 7 5758 9 C 5756 10 5546 10 5545 8 C 5542 7 4867 7 4865 9 C 4864 10 4691 10 4689 8 C 4688 8 4687 8 4687 8 C 4686 10 4661 10 4659 9 C 4658 7 4573 7 4572 9 C 4571 10 4551 10 4550 8 C 4548 7 4204 7 4202 9 C 4201 10 4172 10 4171 9 C 4169 7 4165 7 4163 9 C 4162 10 4157 10 4156 9 C 4155 7 4145 7 4144 9 C 4143 10 4090 10 4089 9 C 4087 7 4060 7 4058 8 C 4056 10 4052 10 4050 9 C 4049 7 4040 7 4038 9 C 4037 10 4023 10 4022 9 C 4020 7 4011 7 4010 9 C 4008 10 4004 10 4002 8 C 4000 7 3896 7 3894 9 C 3892 10 3875 10 3873 9 C 3872 7 3838 7 3837 9 C 3835 10 3634 10 3633 9 C 3631 7 3564 7 3563 9 C 3562 10 3557 10 3556 9 C 3554 7 3540 7 3539 9 C 3538 10 3532 10 3532 9 C 3532 7 3521 7 3520 9 C 3518 10 3512 10 3512 9 C 3512 7 3386 7 3385 9 C 3384 10 3129 10 3128 9 C 3127 7 3117 7 3116 9 C 3115 10 3105 10 3104 9 C 3103 7 3074 7 3073 9 C 3072 10 3057 10 3056 9 C 3055 7 2829 7 2828 8 C 2825 10 2787 10 2783 9 C 2780 7 2776 7 2775 9 C 2773 10 2271 10 2268 8 C 2267 7 2262 7 2261 9 C 2260 10 2212 10 2211 9 C 2209 7 2195 7 2194 9 C 2193 10 2159 10 2158 9 C 2156 7 2123 7 2122 9 C 2120 10 2116 10 2114 9 C 2113 7 1868 7 1867 8 C 1866 9 1091 12 763 10 C 223 10 4 10 3 13 C 1 14 1 20 3 22 C 6 22 16 24 33 24 C 50 24 61 24 61 25 C 62 25 63 25 63 25 C 64 22 84 22 85 25 C 86 25 86 25 87 25 C 88 22 98 22 99 24 C 100 26 115 26 116 24 C 117 22 132 22 133 24 C 134 26 144 26 145 24 C 146 22 165 22 166 24 C 168 26 182 26 183 24 C 184 22 189 22 190 25 C 194 27 787 26 790 24 C 792 21 801 21 805 24 C 808 26 1022 26 1024 24 C 1025 22 1097 22 1098 25 C 1100 25 1100 25 1101 25 C 1102 22 1126 22 1127 24 C 1128 26 1148 26 1149 24 C 1150 22 1203 22 1204 25 C 1205 25 1207 25 1207 25 C 1208 22 1237 22 1238 24 C 1240 26 1411 26 1413 24 C 1414 22 1443 22 1444 25 C 1446 25 1447 25 1447 25 C 1448 22 1751 22 1752 25 C 1754 26 2011 26 2014 24 C 2015 22 2024 22 2026 24 C 2026 25 2027 25 2028 24 C 2030 22 2110 22 2112 24 C 2113 26 2118 26 2119 24 C 2122 22 2662 22 2665 24 C 2666 25 2666 25 2667 24 C 2669 22 2792 22 2794 24 C 2795 26 2906 26 2907 24 C 2908 24 5364 21 5632 22 C 5678 22 5760 22 5815 22 C 5870 22 6329 22 6834 22 C 7386 21 7777 21 7813 20 C 7914 19 8140 18 8141 20 C 8143 21 8570 21 8571 19 C 8572 18 8601 18 8602 19 C 8603 21 8613 21 8614 19 C 8617 18 8677 18 8679 19 C 8680 21 8700 21 8701 19 C 8702 18 8707 18 8708 19 C 8709 21 8714 21 8715 19 C 8715 19 8745 19 8798 19 C 8889 19 8886 19 8885 10 C 8885 8 8883 7 8881 6 C 8878 6 8792 4 8689 6 C 8557 6 8500 4 8499 4 C 8498 2 8474 2 8473 4 z" fill="black"/><!-- width=8892 height=33 -->
<path id="gl37633" d="M 7759 1 C 7759 1 7428 2 7023 2 C 6370 2 6288 2 6286 3 C 6283 7 6278 7 6276 4 C 6274 3 6273 3 6272 2 C 6200 2 6129 2 6057 2 C 5938 2 5827 2 5810 3 C 5752 4 5533 6 5530 3 C 5528 2 5079 2 5077 3 C 5076 6 5061 6 5060 4 C 5059 2 5025 2 5024 4 C 5023 6 5018 6 5017 4 C 5016 2 4948 2 4947 4 C 4946 6 4941 6 4940 4 C 4939 2 4934 2 4933 4 C 4932 6 4524 6 4522 3 C 4520 2 4220 2 4218 4 C 4216 6 4101 6 4100 4 C 4099 3 4096 3 4093 4 C 4083 6 4078 6 4076 3 C 4075 1 4070 1 4065 3 C 4062 6 3961 6 3960 4 C 3958 2 3916 2 3915 3 C 3914 6 3477 6 3476 4 C 3475 2 3433 2 3432 4 C 3430 6 2983 6 2982 4 C 2980 3 2980 3 2979 4 C 2978 4 2974 4 2966 4 C 2949 3 2934 3 2930 4 C 2928 4 2926 4 2924 4 C 2922 3 2919 2 2917 3 C 2916 3 2911 4 2907 4 C 2904 4 2494 6 1996 6 C 596 7 153 7 152 8 C 151 10 36 10 34 8 C 32 7 13 7 13 8 C 13 9 10 9 9 9 C 2 9 0 15 4 20 C 6 22 27 22 525 22 C 1292 21 1536 21 1537 20 C 1538 18 1586 18 1587 20 C 1590 21 2211 21 2214 20 C 2215 18 2224 18 2226 20 C 2227 21 2241 21 2242 20 C 2244 18 2274 18 2275 20 C 2276 21 2284 21 2286 20 C 2287 18 2623 18 2624 20 C 2625 21 2644 21 2646 20 C 2647 18 2656 18 2658 20 C 2660 21 2941 21 2949 20 C 2955 18 2968 18 2970 20 C 2971 21 2995 21 2996 19 C 2997 18 3654 18 3656 20 C 3657 21 3759 21 3771 20 C 3783 18 4066 18 4069 19 C 4071 21 4075 21 4077 20 C 4078 18 4173 18 4174 20 C 4176 20 4176 20 4177 20 C 4178 19 4476 18 5218 18 C 5790 18 6261 18 6265 18 C 6272 16 6273 16 6276 14 C 6276 13 6277 12 6278 12 C 6279 12 6280 13 6282 14 C 6283 15 6284 16 6285 16 C 6538 16 6790 16 7044 16 C 7461 16 7820 16 7840 15 C 7933 13 7970 13 7971 15 C 7974 18 8701 18 8703 15 C 8704 13 8709 13 8710 15 C 8712 16 8740 16 8742 15 C 8743 13 8748 13 8749 15 C 8750 15 8750 15 8751 15 C 8752 14 8756 13 8760 13 C 8790 15 8876 13 8877 12 C 8880 9 8878 4 8876 2 C 8876 1 7760 0 7759 1 z" fill="black"/><!-- width=8886 height=30 -->
<path id="gl37634" d="M 7476 2 C 7429 2 7401 3 7400 4 C 7399 6 7394 6 7393 4 C 7392 2 7320 2 7318 4 C 7317 6 7279 6 7278 4 C 7276 2 7243 2 7242 4 C 7240 6 7236 6 7234 4 C 7233 2 7224 2 7222 4 C 7222 4 7143 4 6988 4 C 6835 4 6754 4 6754 4 C 6753 2 6676 2 6675 4 C 6674 6 6660 6 6658 4 C 6657 2 6648 2 6646 4 C 6645 4 6327 6 5774 6 C 5295 6 4861 7 4809 7 C 4758 7 4564 7 4381 7 C 3648 6 3366 7 3363 8 C 3362 10 3309 10 3308 8 C 3307 7 3264 7 3262 8 C 3261 10 3252 10 3250 8 C 3249 7 3235 7 3234 8 C 3232 10 3218 10 3217 8 C 3216 7 3192 7 3190 8 C 3189 10 3180 10 3178 8 C 3176 6 2838 7 2835 8 C 2834 10 2829 10 2828 8 C 2826 7 2596 7 2595 8 C 2594 10 2589 10 2588 8 C 2587 7 2577 7 2576 8 C 2575 10 2570 10 2569 8 C 2568 7 2553 7 2552 8 C 2551 10 2268 10 2266 8 C 2265 7 2203 7 2202 8 C 2200 10 2191 10 2190 8 C 2187 7 1940 7 1936 9 C 1933 12 1929 12 1927 9 C 1923 7 1878 7 1875 9 C 1873 10 1736 10 1734 8 C 1732 8 1732 8 1731 8 C 1730 10 1711 10 1710 8 C 1708 7 1699 7 1698 8 C 1696 9 1377 10 850 10 C 282 10 4 12 3 13 C 0 16 1 24 8 24 C 10 24 13 24 13 25 C 14 26 57 26 58 25 C 60 22 112 22 114 25 C 115 26 120 26 121 25 C 122 22 165 22 166 25 C 169 27 1026 26 1028 25 C 1029 22 1063 22 1064 25 C 1065 26 1089 26 1090 25 C 1092 22 1096 22 1098 25 C 1099 26 1190 26 1191 25 C 1192 22 1197 22 1198 25 C 1200 25 1200 25 1201 25 C 1202 22 1231 22 1232 25 C 1234 26 1352 26 1354 25 C 1356 22 1366 22 1368 25 C 1369 26 1459 26 1460 25 C 1461 22 1759 22 1760 25 C 1761 26 1795 26 1796 25 C 1797 22 1807 22 1808 25 C 1809 26 1819 26 1820 25 C 1821 22 1836 22 1837 25 C 1838 26 1915 26 1916 25 C 1917 22 1932 22 1933 25 C 1934 26 1987 26 1988 25 C 1989 22 2008 22 2010 25 C 2011 26 2016 26 2017 24 C 2018 22 2394 22 4962 21 C 5432 21 5553 21 5554 20 C 5556 18 5728 18 5730 20 C 5732 22 6214 21 6217 20 C 6218 18 6237 18 6238 19 C 6240 21 6244 21 6246 19 C 6247 18 6271 18 6272 19 C 6273 21 6326 21 6327 19 C 6328 18 6333 18 6334 19 C 6336 21 6340 21 6342 19 C 6343 18 6352 18 6354 19 C 6355 21 6384 21 6385 19 C 6386 18 6396 18 6397 20 C 6398 20 6398 20 6399 20 C 6400 18 6424 18 6426 19 C 6427 21 6499 21 6500 19 C 6501 18 6516 18 6517 20 C 6518 20 6519 20 6519 20 C 6520 18 6928 18 6930 19 C 6931 21 6998 21 6999 19 C 7002 18 7467 18 7467 19 C 7468 20 7468 20 7470 19 C 7471 18 7602 18 8098 18 C 8702 18 8803 16 8804 14 C 8805 13 8815 13 8816 15 C 8817 15 8829 16 8842 16 C 8869 18 8869 18 8874 14 C 8880 10 8880 9 8874 4 C 8872 3 8871 2 8869 1 C 8739 2 8610 2 8480 2 C 8265 2 8088 3 8084 2 C 8080 2 8078 3 8077 3 C 8076 6 7903 6 7902 3 C 7899 2 7886 2 7885 4 C 7884 6 7874 6 7873 4 C 7872 2 7862 2 7861 4 C 7860 6 7807 6 7806 3 C 7803 2 7670 2 7476 2 z" fill="black"/><!-- width=8886 height=34 -->
<path id="gl37635" d="M 8611 1 C 8604 1 8481 2 8338 2 C 8133 2 8079 2 8078 3 C 8077 6 8071 6 8070 4 C 8070 3 8052 3 8026 2 C 7927 2 7191 2 7147 3 C 7120 3 7096 4 7094 4 C 7028 3 7009 3 7008 3 C 7005 6 6939 6 6937 3 C 6934 2 6614 2 6603 3 C 6594 6 6511 6 6510 4 C 6508 2 6499 2 6498 4 C 6496 6 6415 6 6414 4 C 6412 2 6385 2 6384 4 C 6382 4 6381 4 6379 4 C 6370 3 6294 2 6291 4 C 6289 4 6286 4 6280 4 C 6271 3 6145 3 6078 4 C 6033 4 5995 4 5900 4 C 5894 4 5382 4 4764 6 C 4146 6 3400 7 3109 7 C 2688 7 2578 7 2577 8 C 2575 10 2378 10 2377 8 C 2374 7 2358 7 2355 8 C 2354 10 2349 10 2348 8 C 2347 7 2342 7 2341 8 C 2340 10 2325 10 2324 8 C 2322 6 1809 7 1808 9 C 1807 10 1788 10 1786 9 C 1784 7 1699 7 1698 8 C 1696 10 1692 10 1688 8 C 1687 7 1686 7 1683 8 C 1681 10 1677 10 1674 8 C 1671 7 1670 7 1669 8 C 1668 10 1178 10 1177 8 C 1176 7 1166 7 1165 9 C 1162 10 1074 10 1071 9 C 1070 7 1060 7 1059 9 C 1058 9 229 12 10 12 C 8 12 7 12 6 15 C 1 22 -2 22 105 22 C 170 22 205 24 206 25 C 208 26 238 26 241 25 C 242 22 256 22 258 25 C 260 26 655 26 657 25 C 658 22 693 22 694 25 C 696 26 700 26 702 25 C 703 22 727 22 728 25 C 729 26 816 26 817 25 C 818 22 837 22 838 25 C 840 26 1002 26 1004 25 C 1005 22 1029 22 1030 25 C 1032 26 1041 26 1042 25 C 1044 22 1423 22 1424 25 C 1425 26 1426 26 1429 25 C 1434 22 1950 22 1953 24 C 1957 26 1958 26 1975 24 C 1982 22 2084 21 2325 22 C 3382 22 4618 21 4693 19 C 4705 19 4712 19 4713 19 C 4714 21 4723 21 4724 19 C 4725 18 4864 18 4866 20 C 4869 22 5335 21 5340 19 C 5342 18 5344 16 5348 18 C 5352 18 5359 19 5364 19 C 5371 19 5374 19 5376 20 C 5377 21 5497 21 5516 19 C 5529 18 5713 19 6020 20 C 6102 20 6151 20 6171 19 C 6193 19 6423 18 6967 18 C 7755 18 7923 16 7926 15 C 7927 13 7946 13 7947 15 C 7950 16 8653 18 8736 15 C 8763 15 8806 14 8833 14 C 8887 13 8887 13 8878 4 C 8877 3 8876 2 8875 1 C 8833 1 8791 1 8750 1 C 8680 1 8618 1 8611 1 z" fill="black"/><!-- width=8890 height=34 -->
<path id="gl37636" d="M 7720 1 C 7720 1 7315 2 6819 2 C 6324 2 5884 2 5844 3 C 5709 4 5546 6 5545 4 C 5544 2 5539 2 5538 4 C 5536 6 5527 6 5526 4 C 5523 2 5414 2 5413 4 C 5412 6 5402 6 5401 3 C 5398 2 5151 2 5096 3 C 5071 4 5070 4 5065 3 C 5061 3 5059 3 5059 3 C 5058 6 5037 6 5036 4 C 5035 3 5019 3 4986 3 C 4887 4 4514 6 4513 4 C 4510 2 4266 2 4248 4 C 4234 6 4096 6 4096 4 C 4095 2 4089 2 4088 4 C 4086 6 3920 6 3916 3 C 3915 2 3914 2 3913 3 C 3909 6 3456 6 3452 4 C 3451 3 3450 3 3450 4 C 3448 4 3345 4 3194 4 C 3054 4 2936 4 2932 4 C 2930 4 2644 6 2300 6 C 1954 6 1657 7 1638 7 C 1618 8 1600 8 1599 7 C 1597 7 654 7 595 8 C 588 8 579 8 579 9 C 578 9 572 9 567 9 C 553 7 460 7 459 8 C 458 10 444 10 440 8 C 439 8 438 8 435 8 C 433 9 428 9 415 9 C 375 7 4 9 2 12 C 0 14 1 19 3 21 C 4 22 73 22 360 22 C 1482 22 2208 21 2252 20 C 2335 19 2556 18 2557 20 C 2558 21 2572 21 2574 20 C 2575 18 2608 18 2610 20 C 2613 22 3038 21 3039 20 C 3040 18 3074 18 3075 20 C 3076 21 3086 21 3088 19 C 3091 16 3098 16 3103 19 C 3105 20 3106 20 3106 19 C 3109 18 3127 18 3128 20 C 3129 21 3172 21 3174 20 C 3175 18 3496 18 3498 20 C 3499 21 3513 21 3514 20 C 3516 18 3520 18 3523 20 C 3525 21 3526 21 3529 20 C 3531 18 3570 18 3571 20 C 3572 21 3600 21 3601 20 C 3602 18 3608 18 3609 20 C 3610 21 3628 21 3630 20 C 3631 18 3645 18 3646 20 C 3648 21 3831 20 3831 19 C 3832 18 4082 18 4086 20 C 4090 22 4093 22 4095 20 C 4098 18 4106 18 4107 20 C 4107 20 4108 20 4110 20 C 4112 18 4207 18 4209 20 C 4210 21 4219 21 4220 20 C 4221 18 4242 18 4243 20 C 4244 21 4257 21 4258 19 C 4260 19 4321 18 4471 18 C 4934 18 5066 19 5067 19 C 5068 21 5100 21 5104 19 C 5108 18 5115 18 5116 20 C 5118 21 5128 21 5133 19 C 5136 18 5139 16 5150 18 C 5158 19 5164 19 5166 19 C 5172 16 5192 16 5197 19 C 5200 20 5203 20 5211 19 C 5218 19 5551 18 6346 18 C 7364 18 7846 16 7880 15 C 7917 14 7980 13 7981 15 C 7983 16 8010 16 8012 15 C 8013 13 8023 13 8024 15 C 8026 16 8713 16 8736 15 C 8740 15 8749 14 8754 14 C 8758 13 8763 14 8764 15 C 8767 15 8769 16 8775 15 C 8779 15 8803 14 8828 14 C 8882 13 8882 13 8874 4 C 8872 3 8871 2 8870 1 C 8679 1 8487 1 8295 1 C 7980 1 7720 1 7720 1 z" fill="black"/><!-- width=8886 height=30 -->
<path id="gl37637" d="M 7096 1 C 7096 2 6850 2 6552 2 C 5774 2 5790 2 5788 4 C 5787 6 5469 6 5468 4 C 5467 2 5462 2 5461 4 C 5460 6 5392 6 5391 3 C 5389 2 5241 2 5235 4 C 5232 6 5232 6 5229 4 C 5226 2 5228 2 5091 4 C 5043 6 5010 6 5006 3 C 5002 2 5001 2 5000 3 C 4999 6 4960 6 4959 3 C 4958 3 4957 3 4957 3 C 4956 6 4509 6 4508 4 C 4507 2 4494 2 4492 4 C 4491 6 4476 6 4474 4 C 4473 2 4450 2 4449 4 C 4448 6 4423 6 4422 4 C 4420 2 4401 2 4393 4 C 4388 4 4386 4 4383 4 C 4381 2 4290 2 4269 4 C 4246 6 4107 6 4105 4 C 4104 2 4099 2 4098 4 C 4096 4 3949 6 3504 6 C 3178 6 2810 6 2686 6 C 2563 6 2294 7 2091 6 C 1734 6 1657 7 1656 9 C 1654 10 1639 10 1635 8 C 1634 7 1633 7 1632 8 C 1628 10 1558 10 1556 8 C 1555 8 1555 8 1554 8 C 1552 10 1538 10 1537 8 C 1536 7 1526 7 1525 8 C 1524 10 1422 10 1420 8 C 1418 7 1374 7 1371 8 C 1370 9 1368 9 1365 9 C 1356 7 1023 7 1021 9 C 1020 10 804 10 802 8 C 801 8 800 8 800 8 C 799 10 751 10 750 8 C 748 8 748 8 747 8 C 746 10 722 10 721 8 C 720 7 710 7 709 8 C 708 9 596 10 357 10 C -25 10 1 9 6 18 C 7 20 9 22 10 22 C 12 22 97 24 200 24 C 322 24 387 24 387 25 C 388 26 523 26 524 25 C 525 22 546 22 547 25 C 548 26 609 26 610 24 C 612 24 811 22 1339 22 C 2142 21 2344 21 2347 19 C 2348 18 2446 18 2448 20 C 2450 21 3175 21 3206 20 C 3234 19 3487 18 3488 19 C 3490 21 3536 21 3538 20 C 3540 18 3555 18 3556 19 C 3558 21 3624 21 3625 19 C 3626 18 3632 18 3633 19 C 3636 21 3844 21 3846 19 C 3847 18 4000 18 4002 19 C 4003 21 4017 21 4018 19 C 4020 18 4092 18 4093 19 C 4094 21 4102 22 4107 20 C 4111 19 4114 18 4132 19 C 4164 20 4165 20 4170 19 C 4172 18 4174 19 4176 19 C 4178 21 4286 21 4287 19 C 4288 18 5034 18 5035 19 C 5036 21 5232 21 5234 19 C 5235 18 5236 18 5239 19 C 5244 20 5272 20 5278 19 C 5281 18 5962 18 6094 19 C 6124 19 7626 16 7767 16 C 7874 16 7905 16 7906 15 C 7908 13 7951 13 7952 15 C 7953 16 8035 16 8353 16 C 8691 16 8768 16 8812 15 C 8815 14 8820 15 8822 15 C 8826 15 8827 15 8828 15 C 8829 13 8844 13 8845 15 C 8847 18 8869 18 8871 15 C 8872 15 8876 13 8877 13 C 8882 10 8882 9 8881 7 C 8880 6 8878 4 8877 3 C 8875 0 8071 1 8068 4 C 8067 6 8056 6 8055 3 C 8054 2 7957 2 7579 2 C 7317 2 7102 2 7100 1 C 7099 1 7098 1 7096 1 z" fill="black"/><!-- width=8890 height=34 -->
<path id="gl37638" d="M 8655 1 C 8655 2 7066 3 7010 2 C 6949 2 6693 2 6627 2 C 6598 2 6572 2 6568 2 C 6565 2 6561 3 6560 3 C 6559 6 6554 6 6553 3 C 6550 2 5892 2 5824 4 C 5767 6 5474 6 5473 4 C 5472 2 5466 2 5466 4 C 5466 6 5388 6 5386 3 C 5385 2 5149 2 5144 4 C 5142 6 5139 6 5136 6 C 5133 4 5130 4 5128 6 C 5124 7 5012 7 5008 4 C 5005 2 5001 2 5000 4 C 4999 4 4693 6 3856 6 C 2610 6 2506 7 2504 8 C 2503 10 2455 10 2454 8 C 2451 7 1766 6 1680 8 C 1573 9 1561 10 1560 8 C 1558 7 1550 7 1549 8 C 1548 10 1447 10 1446 8 C 1444 8 1430 7 1405 7 C 1401 7 1368 7 1330 7 C 1194 7 1012 8 1011 9 C 1010 10 895 10 894 8 C 892 8 889 7 883 8 C 859 10 856 10 855 9 C 854 7 835 7 834 8 C 832 10 823 10 822 8 C 820 7 812 7 811 9 C 811 9 808 9 805 9 C 798 8 756 8 751 9 C 748 9 746 9 745 9 C 742 8 645 8 619 9 C 616 9 610 8 606 8 C 601 7 597 8 595 8 C 592 10 380 9 367 8 C 362 8 360 8 358 8 C 356 10 291 10 286 8 C 285 8 283 8 282 8 C 280 8 218 9 142 9 C -4 10 1 10 6 18 C 7 20 8 21 12 22 C 14 22 102 24 205 24 C 320 24 393 24 393 24 C 393 25 434 25 511 24 C 518 24 538 24 552 24 C 554 24 565 25 577 25 C 591 26 598 25 602 25 C 607 24 718 22 1154 22 C 2144 21 2283 21 2311 20 C 2372 18 2444 18 2448 20 C 2451 21 2497 21 2802 21 C 3111 21 3210 21 3289 19 C 3302 19 3310 19 3310 19 C 3310 21 3316 21 3318 19 C 3319 18 3324 18 3325 19 C 3326 21 3345 21 3346 19 C 3348 18 3391 18 3392 19 C 3392 20 3399 20 3410 20 C 3434 19 3454 19 3463 20 C 3468 20 3471 20 3471 20 C 3472 18 3478 18 3480 20 C 3481 21 3510 21 3613 21 C 3732 21 3776 21 3901 19 C 3926 19 3939 19 3940 19 C 3942 21 3950 21 3951 19 C 3952 18 3962 18 3963 19 C 3964 21 3979 21 3980 19 C 3981 18 4000 18 4002 19 C 4004 21 4310 21 4311 19 C 4312 18 4317 18 4318 20 C 4320 20 4321 20 4321 20 C 4322 18 4346 18 4347 19 C 4348 21 4358 21 4359 19 C 4360 18 4375 18 4376 19 C 4377 21 4387 21 4388 19 C 4389 18 4428 18 4429 19 C 4430 21 4459 21 4460 20 C 4462 18 4525 16 4528 19 C 4532 20 4561 21 4598 19 C 4600 19 4605 19 4608 19 C 4609 19 4708 19 4826 19 C 4970 19 5042 19 5043 19 C 5044 21 5107 21 5109 19 C 5112 16 5116 16 5119 19 C 5121 21 5281 21 5288 19 C 5294 16 5446 16 5451 19 C 5455 21 5462 21 5463 19 C 5466 18 5953 18 5958 20 C 5960 20 5962 20 5965 19 C 5968 19 6039 18 6129 18 C 6244 19 7695 16 7777 16 C 7899 15 7896 15 7920 15 C 7930 16 7938 15 7939 15 C 7941 13 7978 13 7981 15 C 7983 16 8696 18 8762 15 C 8785 15 8814 14 8828 14 C 8845 14 8853 14 8854 15 C 8856 16 8860 16 8862 15 C 8862 14 8865 14 8870 14 C 8883 14 8886 10 8878 4 C 8876 3 8875 2 8874 1 C 8838 1 8802 1 8764 1 C 8704 1 8655 1 8655 1 z" fill="black"/><!-- width=8890 height=34 -->
<path id="gl37888" d="M 8486 1 C 8486 1 8181 1 7807 2 C 7267 2 7129 2 7127 3 C 7126 6 7117 6 7115 4 C 7114 2 7106 2 7024 2 C 6986 2 6898 2 6828 2 C 6658 2 6577 2 6576 4 C 6575 6 6555 6 6553 4 C 6552 2 6528 2 6527 4 C 6526 6 6511 6 6510 3 C 6509 3 6509 3 6508 3 C 6507 6 6497 6 6496 4 C 6495 2 6475 2 6474 4 C 6473 6 6430 6 6428 3 C 6427 2 6086 2 6085 4 C 6084 4 6080 4 6077 4 C 6061 2 6031 2 6027 4 C 6024 6 6021 7 6014 4 C 6009 4 5996 3 5986 4 C 5976 4 5962 4 5956 4 C 5950 4 5942 4 5938 4 C 5920 4 5898 4 5890 4 C 5886 4 5768 4 5630 4 C 5451 4 5378 4 5376 4 C 5374 2 5322 2 5321 4 C 5320 4 5318 4 5315 4 C 5309 3 5201 2 5184 4 C 5175 4 4788 6 3975 6 C 2761 6 2552 7 2549 9 C 2548 10 2524 10 2523 8 C 2522 8 2522 8 2520 8 C 2519 10 2459 10 2453 8 C 2448 6 1651 6 1647 8 C 1646 10 1640 10 1639 8 C 1638 8 1636 8 1636 8 C 1635 10 1515 10 1514 9 C 1513 7 1508 7 1507 9 C 1506 10 1414 10 1413 8 C 1411 7 1010 7 1007 8 C 1006 10 943 10 942 9 C 941 7 936 7 935 9 C 934 10 886 10 885 8 C 883 8 882 8 882 8 C 881 10 838 10 837 9 C 835 7 811 7 810 9 C 809 10 790 10 789 9 C 787 7 773 7 772 9 C 771 10 751 10 750 8 C 749 8 748 8 748 8 C 747 10 723 10 721 9 C 720 8 662 8 643 9 C 641 9 635 9 630 8 C 624 8 620 8 619 8 C 618 10 380 10 379 9 C 379 8 369 8 128 9 C -3 10 1 10 6 18 C 7 20 9 22 10 22 C 12 22 102 24 210 24 C 339 24 407 24 407 24 C 408 26 417 26 419 24 C 420 22 450 22 451 24 C 452 26 480 26 481 24 C 482 22 551 22 552 25 C 553 25 559 25 568 25 C 575 25 587 24 594 24 C 601 24 974 24 1420 22 C 2181 22 2335 21 2371 20 C 2414 19 2428 19 2429 19 C 2430 21 2440 21 2441 19 C 2442 18 2452 18 2453 20 C 2456 22 3424 22 3425 19 C 3426 18 3442 18 3443 20 C 3444 21 3935 21 4456 21 C 4485 21 4540 21 4580 21 C 4626 21 4655 20 4658 19 C 4663 18 4931 18 4932 19 C 4933 21 4961 21 4962 19 C 4963 18 4970 18 4972 19 C 4974 22 5304 21 5313 19 C 5316 18 5319 18 5322 19 C 5326 21 5327 21 5331 20 C 5337 18 5387 18 5390 19 C 5391 21 5409 21 5410 19 C 5411 18 5421 18 5422 19 C 5423 21 5428 21 5429 19 C 5430 18 5435 18 5436 19 C 5438 21 5471 21 5472 19 C 5474 18 5488 18 5489 19 C 5490 21 5505 21 5506 19 C 5507 18 5930 18 5931 19 C 5932 21 5986 21 6007 19 C 6021 18 6027 18 6038 19 C 6054 20 6162 20 6205 19 C 6221 18 6331 18 6458 18 C 7357 18 7888 16 7919 14 C 7924 14 7929 14 7930 14 C 7932 16 7939 16 7961 14 C 7968 13 7971 14 7973 15 C 7978 18 8773 18 8778 15 C 8780 14 8793 13 8833 13 C 8893 13 8894 13 8886 4 C 8885 3 8883 2 8881 1 C 8816 1 8750 1 8684 1 C 8575 1 8486 1 8486 1 z" fill="black"/><!-- width=8897 height=33 -->
<path id="gl37889" d="M 8799 1 C 8799 1 8653 1 8474 2 C 8179 2 8107 2 8073 4 C 8066 4 8061 4 8060 4 C 8059 2 8040 3 8038 4 C 8037 6 8023 6 8022 4 C 8020 2 8011 2 8010 4 C 8008 6 7999 6 7998 3 C 7995 1 7306 1 7209 3 C 7131 4 7124 4 7101 3 C 7089 2 7084 3 7083 3 C 7081 6 6938 6 6937 3 C 6934 2 6655 2 6602 4 C 6578 4 6540 4 6484 4 C 6336 3 6121 3 6120 4 C 6117 6 6070 4 6067 3 C 6062 1 6057 1 6052 3 C 6049 6 6013 6 5912 4 C 5894 4 5876 3 5871 3 C 5866 3 5863 3 5862 3 C 5858 6 5349 6 5347 4 C 5346 3 5328 3 5288 3 C 5257 4 5229 4 5227 4 C 5215 3 5214 3 5210 4 C 5208 4 5205 4 5204 4 C 5203 3 5200 2 5194 3 C 5190 4 5181 4 5175 4 C 5154 4 3092 6 2757 6 C 2576 6 2257 6 2047 6 C 458 8 60 8 33 7 C 26 7 19 7 12 6 C 10 7 8 8 7 9 C 4 12 3 13 1 14 C 2 15 4 16 6 18 C 7 20 8 21 9 22 C 138 22 265 22 392 22 C 603 22 1114 22 1528 21 C 1976 21 2293 21 2310 20 C 2359 19 2454 18 2456 20 C 2458 21 2553 21 2944 21 C 3212 21 3441 21 3456 21 C 3481 21 3723 21 3848 21 C 3943 21 3964 20 3966 19 C 3967 18 3972 18 3973 20 C 3974 21 3999 21 4087 21 C 4363 21 4628 20 4654 20 C 4722 19 4869 19 4870 20 C 4872 20 4873 20 4873 20 C 4874 18 4878 18 4881 20 C 4882 21 4884 21 4886 20 C 4888 18 4893 18 4894 20 C 4897 21 5125 22 5226 20 C 5307 19 5324 19 5332 20 C 5334 20 5341 19 5348 19 C 5362 16 5386 18 5389 19 C 5390 20 5403 20 5445 20 C 5547 19 5906 18 5907 20 C 5908 21 6038 21 6039 19 C 6040 19 6043 19 6048 19 C 6058 20 6157 21 6165 20 C 6169 19 6553 18 7422 18 C 8744 16 8871 16 8871 15 C 8871 14 8874 13 8874 13 C 8880 13 8880 7 8875 3 C 8872 2 8800 0 8799 1 z" fill="black"/><!-- width=8886 height=30 -->
<path id="gl37890" d="M 8517 2 C 8433 2 8397 3 8396 4 C 8393 6 7635 6 7633 4 C 7632 2 7599 2 7598 4 C 7597 6 7591 6 7590 4 C 7589 2 7561 2 7560 4 C 7559 6 7524 6 7523 4 C 7521 2 7508 2 7507 4 C 7506 4 7252 6 6695 6 C 5905 6 5764 7 5763 9 C 5762 10 5738 10 5737 8 C 5734 7 5708 7 5705 9 C 5704 10 5697 10 5697 9 C 5697 7 5687 7 5686 9 C 5685 10 5671 10 5669 8 C 5667 6 4915 7 4913 8 C 4912 10 4686 10 4685 8 C 4682 6 4233 7 4231 8 C 4229 10 4196 10 4195 9 C 4193 7 4189 7 4187 9 C 4186 10 4177 10 4175 8 C 4174 8 4173 8 4173 8 C 4172 10 4167 10 4166 9 C 4165 7 4160 7 4159 9 C 4157 10 4143 10 4141 8 C 4138 6 4127 6 4125 8 C 4123 10 4114 10 4113 8 C 4112 8 4111 8 4111 8 C 4109 10 4081 10 4079 9 C 4078 7 4073 7 4072 9 C 4071 10 4023 10 4022 8 C 4020 8 4020 8 4019 8 C 4018 10 3975 10 3974 9 C 3972 7 3963 7 3962 9 C 3960 10 3941 10 3940 9 C 3939 7 3905 7 3904 9 C 3902 10 3649 10 3647 9 C 3646 7 3593 7 3592 9 C 3590 10 3565 10 3564 9 C 3563 7 3415 7 3414 9 C 3413 10 3096 10 3094 9 C 3093 7 3088 7 3087 9 C 3086 10 3072 10 3070 9 C 3069 7 3060 7 3058 9 C 3057 10 3052 10 3051 9 C 3050 7 3045 7 3044 9 C 3043 10 3004 10 3003 9 C 3002 7 2997 7 2996 9 C 2995 10 2976 10 2974 9 C 2973 7 2911 7 2910 9 C 2907 10 2102 10 2100 8 C 2099 7 2070 7 2069 9 C 2068 10 2048 10 2047 9 C 2046 7 2032 7 2030 9 C 2029 9 1194 10 349 10 C 235 10 121 10 8 10 C 7 13 6 14 4 15 C 3 16 2 18 2 19 C 3 20 4 21 6 22 C 8 24 9 25 10 26 C 257 26 503 26 749 26 C 1318 26 1488 26 1489 25 C 1490 22 1640 22 1641 24 C 1642 26 1652 26 1653 24 C 1654 22 1683 22 1685 25 C 1687 26 2208 26 2211 24 C 2212 22 2221 22 2223 24 C 2224 26 2238 26 2239 24 C 2241 22 2255 22 2256 24 C 2257 26 2267 26 2268 24 C 2269 22 2279 22 2280 24 C 2281 26 2296 26 2297 24 C 2298 22 2673 22 2674 24 C 2675 26 2680 26 2681 24 C 2683 22 2707 22 2708 24 C 2709 26 2752 26 2753 24 C 2755 22 2764 22 2765 24 C 2767 26 3002 26 3003 24 C 3003 22 3690 22 3693 24 C 3694 26 3737 26 3738 24 C 3741 22 4123 22 4126 25 C 4130 27 4131 27 4136 25 C 4139 22 4181 22 4183 24 C 4184 26 4189 26 4190 24 C 4191 24 4393 22 4894 22 C 5279 22 5624 21 5659 21 C 5693 21 5893 21 6101 21 C 6947 21 7088 21 7090 20 C 7091 18 7117 18 7118 19 C 7119 21 7137 21 7138 19 C 7139 18 7155 18 7156 20 C 7159 21 7202 21 7221 19 C 7232 19 7237 18 7238 19 C 7240 21 7252 21 7437 21 C 7541 21 7589 20 7590 19 C 7591 18 7596 18 7598 20 C 7601 21 7602 21 7604 20 C 7607 18 7631 18 7632 19 C 7633 21 7742 21 7744 19 C 7745 18 7770 18 7771 19 C 7772 21 7782 21 7782 19 C 7782 18 7799 18 7800 19 C 7801 20 7808 20 7822 20 C 7860 19 8226 18 8228 19 C 8229 21 8243 21 8244 19 C 8246 18 8250 18 8252 20 C 8253 21 8523 20 8578 19 C 8591 19 8664 19 8740 19 C 8830 19 8880 18 8882 18 C 8886 15 8887 8 8882 7 C 8881 6 8847 4 8781 4 C 8713 4 8682 4 8680 4 C 8678 2 8655 2 8517 2 z" fill="black"/><!-- width=8892 height=33 -->
<path id="gl37891" d="M 8456 4 C 8450 4 8197 6 7838 6 C 7503 6 7206 7 7176 7 C 7146 8 7116 8 7108 7 C 7083 6 6123 7 6100 9 C 6085 10 6079 10 6078 9 C 6076 7 6058 7 6057 9 C 6056 10 6050 10 6049 9 C 6048 7 5953 7 5952 8 C 5950 10 5901 10 5900 8 C 5899 7 5895 8 5880 9 C 5875 9 5872 9 5871 9 C 5870 7 5850 7 5838 9 C 5823 10 5374 10 5372 8 C 5370 7 5239 8 5234 9 C 5230 10 5227 10 5222 10 C 5217 10 5211 9 5208 9 C 5202 9 5198 9 5174 9 C 5110 9 2694 12 2622 12 C 2556 12 2524 13 2523 13 C 2521 15 2488 15 2487 13 C 2486 12 2481 12 2480 13 C 2479 15 2469 15 2468 13 C 2467 12 2388 12 2079 12 C 1681 12 1641 12 1640 14 C 1639 15 1576 15 1575 13 C 1574 12 1569 12 1568 13 C 1567 15 1442 15 1441 13 C 1440 12 1425 12 1424 13 C 1423 15 1413 15 1412 13 C 1410 12 1033 12 1030 13 C 1029 15 996 15 994 13 C 993 12 969 12 968 13 C 967 15 952 15 951 13 C 950 13 950 13 949 13 C 948 15 933 15 932 13 C 931 12 926 12 925 13 C 924 15 909 15 908 13 C 906 12 639 12 580 14 C 565 14 558 14 556 14 C 555 12 446 12 445 13 C 444 15 439 15 438 13 C 436 12 6 14 3 16 C 1 18 1 21 2 24 C 4 27 15 28 261 27 C 564 27 554 27 555 30 C 556 30 561 30 568 30 C 589 28 595 28 1462 27 C 2298 27 2359 26 2361 25 C 2362 22 2373 22 2374 24 C 2377 26 2408 26 2410 25 C 2413 22 2450 22 2451 25 C 2454 26 4353 27 4545 25 C 4783 24 4936 22 4938 24 C 4939 26 4948 26 4950 25 C 4951 22 4960 22 4962 25 C 4963 26 4977 26 4978 25 C 4980 22 5023 22 5024 25 C 5025 26 5038 26 5078 26 C 5187 26 5320 25 5323 24 C 5328 22 5382 22 5384 24 C 5385 25 5386 25 5386 25 C 5389 22 5408 22 5752 22 C 5948 22 6075 24 6075 24 C 6076 26 6098 25 6103 24 C 6108 21 6116 22 6118 25 C 6120 25 6126 25 6135 25 C 6154 22 6472 22 7219 21 C 7616 21 7846 21 7869 20 C 7908 19 7960 19 8004 20 C 8022 20 8030 20 8031 20 C 8032 18 8037 18 8038 20 C 8041 22 8767 21 8769 20 C 8770 19 8785 18 8821 18 C 8876 18 8878 18 8877 12 C 8877 4 8889 4 8684 6 C 8581 6 8492 6 8486 4 C 8480 4 8473 3 8470 3 C 8468 3 8461 3 8456 4 z" fill="black"/><!-- width=8886 height=39 -->
<path id="gl37892" d="M 7782 1 C 7782 1 6614 3 6594 3 C 6586 2 6580 3 6580 3 C 6579 6 6570 6 6567 4 C 6564 2 6510 2 6507 3 C 6506 6 6492 6 6490 3 C 6488 1 6136 2 6132 4 C 6128 7 6094 6 6092 3 C 6090 2 5996 2 5994 4 C 5992 4 5989 4 5984 4 C 5966 3 5953 2 5952 3 C 5952 4 5941 4 5926 4 C 5913 4 5892 4 5878 4 C 5722 4 5359 4 5358 4 C 5356 3 5355 3 5355 4 C 5354 6 5344 6 5343 4 C 5342 2 5332 2 5331 4 C 5330 6 5311 6 5310 3 C 5308 3 5307 3 5307 3 C 5306 6 5287 6 5286 4 C 5284 3 5284 3 5283 4 C 5281 6 5214 7 5209 4 C 5205 2 5191 2 5186 4 C 5184 6 4960 6 3956 6 C 2770 6 2563 7 2562 9 C 2560 10 2536 10 2535 8 C 2534 7 2486 7 2485 8 C 2484 10 2474 10 2473 8 C 2472 7 2457 7 2456 8 C 2455 10 2440 10 2439 8 C 2437 6 1756 6 1701 8 C 1640 9 1526 10 1522 8 C 1521 8 1518 7 1515 8 C 1510 9 1504 9 1495 8 C 1490 7 1488 8 1486 8 C 1485 10 1408 10 1407 8 C 1405 7 1028 7 1026 8 C 1024 10 1010 10 1009 8 C 1008 7 998 7 997 8 C 996 10 962 10 961 8 C 960 7 955 7 954 8 C 952 10 895 10 894 8 C 892 7 854 7 853 8 C 852 10 836 10 835 8 C 834 7 806 7 805 8 C 804 10 794 10 793 8 C 792 7 712 8 571 9 C 543 9 528 9 528 8 C 526 7 489 7 488 8 C 487 10 381 10 380 8 C 379 7 270 8 243 9 C 236 9 231 9 230 9 C 229 8 220 8 205 8 C 193 8 142 9 93 9 C 44 10 3 10 3 12 C 1 13 1 16 2 19 C 4 22 20 22 259 22 C 397 24 493 24 493 24 C 493 25 499 25 506 25 C 541 22 544 22 547 25 C 549 25 552 26 555 25 C 561 24 564 24 584 25 C 592 25 604 25 612 24 C 618 24 984 22 1425 22 C 2331 21 2418 21 2420 20 C 2421 18 2434 18 2438 20 C 2442 21 2484 22 2866 21 C 3099 21 3291 21 3294 21 C 3319 21 4539 21 4603 20 C 4754 18 4921 18 4923 20 C 4927 21 5312 21 5314 19 C 5317 18 5386 18 5389 19 C 5390 21 5400 21 5401 19 C 5402 18 5416 18 5418 19 C 5419 21 5424 21 5425 20 C 5427 18 5440 18 5767 18 C 5967 18 6076 19 6076 19 C 6078 21 6112 21 6116 19 C 6121 16 6127 16 6134 19 C 6139 21 6141 21 6153 19 C 6165 18 6246 18 6996 16 C 7503 16 7840 16 7867 15 C 7942 14 7980 13 7981 15 C 7983 16 8006 16 8418 16 C 8643 16 8769 15 8770 15 C 8772 14 8792 14 8822 14 C 8854 14 8874 13 8876 13 C 8878 10 8878 4 8876 2 C 8874 1 7783 0 7782 1 z" fill="black"/><!-- width=8886 height=34 -->
<path id="gl37893" d="M 8822 1 C 8821 1 8666 2 8479 2 C 8208 2 8137 2 8136 3 C 8134 6 7951 6 7950 4 C 7948 2 7944 2 7942 4 C 7942 4 7935 4 7927 4 C 7918 4 7911 4 7911 4 C 7910 2 7886 2 7885 4 C 7884 6 7879 6 7878 3 C 7875 2 7476 2 7473 3 C 7472 6 7461 6 7460 4 C 7459 2 7444 2 7443 4 C 7442 6 7255 6 7254 4 C 7252 3 7252 3 7251 3 C 7250 4 6978 4 6560 6 C 5888 6 5755 7 5754 9 C 5752 10 5724 10 5722 8 C 5720 6 4921 6 4918 8 C 4917 10 4908 10 4906 8 C 4905 7 4891 7 4890 8 C 4888 10 4682 10 4681 8 C 4680 8 4678 8 4678 8 C 4677 10 4644 10 4642 8 C 4641 7 4603 7 4602 8 C 4600 10 4591 10 4590 8 C 4587 7 4273 7 4270 8 C 4269 10 4240 10 4239 8 C 4238 7 4233 7 4232 8 C 4231 10 4155 10 4153 8 C 4150 6 4143 6 4141 8 C 4138 10 3972 10 3970 8 C 3969 7 3955 7 3954 8 C 3952 10 3938 10 3937 8 C 3936 7 3931 7 3930 8 C 3928 10 3895 10 3894 8 C 3892 7 3888 7 3886 8 C 3884 10 3646 10 3644 8 C 3643 7 3614 7 3613 8 C 3612 10 3511 10 3510 8 C 3508 7 3504 7 3502 8 C 3501 10 3477 10 3476 8 C 3475 7 3422 7 3421 8 C 3420 10 3002 10 3001 8 C 3000 8 2998 8 2998 8 C 2997 10 2959 10 2958 8 C 2956 7 2923 7 2922 9 C 2919 10 2883 10 2881 9 C 2880 8 2880 8 2878 9 C 2876 10 2048 10 2046 8 C 2044 7 2020 7 2019 9 C 2018 10 1814 10 1011 10 C 267 10 4 12 3 13 C 1 15 1 20 4 22 C 6 22 7 24 8 25 C 8 26 123 26 126 25 C 127 22 132 22 133 25 C 134 26 144 26 145 25 C 146 22 156 22 157 25 C 158 26 163 26 164 25 C 165 22 175 22 176 25 C 177 26 192 26 193 25 C 194 22 199 22 200 25 C 202 27 1482 27 1484 25 C 1485 22 1586 22 1587 25 C 1590 26 1680 26 1681 24 C 1682 22 1716 22 1717 25 C 1719 27 2052 26 2055 24 C 2059 22 2084 22 2086 25 C 2089 26 2216 26 2218 25 C 2220 22 2234 22 2235 25 C 2236 26 2256 26 2257 25 C 2258 22 2272 22 2274 25 C 2275 26 2289 26 2290 25 C 2292 22 2296 22 2298 25 C 2299 26 2308 26 2310 25 C 2311 22 2632 22 2634 25 C 2635 26 2649 26 2650 25 C 2652 22 2676 22 2677 25 C 2679 26 3013 26 3015 25 C 3016 22 3127 22 3128 25 C 3129 26 3141 26 3141 25 C 3141 22 3146 22 3147 25 C 3148 26 3182 26 3183 25 C 3184 22 3199 22 3200 25 C 3201 26 3211 26 3212 25 C 3213 22 3636 22 3637 25 C 3638 25 3639 25 3639 25 C 3640 22 3655 22 3656 25 C 3657 26 3662 26 3663 25 C 3664 22 3679 22 3680 25 C 3681 26 3691 26 3692 25 C 3693 22 3712 22 3714 25 C 3715 26 3801 26 3802 25 C 3804 22 3823 22 3824 25 C 3825 26 3835 26 3836 25 C 3837 22 4140 22 4141 25 C 4142 26 4147 26 4148 25 C 4149 22 4698 22 6025 21 C 6414 21 6513 21 6514 20 C 6516 18 6520 18 6522 19 C 6523 21 6556 21 6558 19 C 6559 18 6568 18 6570 19 C 6571 21 6576 21 6577 19 C 6578 18 6588 18 6589 19 C 6590 21 6604 21 6606 19 C 6607 18 6616 18 6618 19 C 6619 21 6624 21 6625 19 C 6626 18 6765 18 6766 19 C 6768 21 7027 21 7028 19 C 7029 18 7034 18 7035 19 C 7036 21 7046 21 7047 19 C 7048 18 7428 18 7429 19 C 7430 21 7502 21 7503 19 C 7504 18 7514 18 7515 19 C 7516 21 7536 21 7537 19 C 7538 18 8707 16 8827 16 C 8840 18 8854 18 8869 18 C 8871 16 8872 15 8874 14 C 8878 9 8878 9 8875 6 C 8874 4 8872 3 8871 2 C 8863 2 8856 1 8848 1 C 8835 1 8823 1 8822 1 z" fill="black"/><!-- width=8886 height=34 -->
<path id="gl37894" d="M 7800 1 C 7800 1 7680 1 7533 2 C 7286 2 7154 3 7127 4 C 7121 4 7117 4 7115 4 C 7114 2 7102 2 7048 2 C 6992 2 6982 2 6962 4 C 6947 4 6944 4 6942 3 C 6940 2 6678 2 6624 4 C 6597 6 6588 6 6587 4 C 6586 2 6581 2 6580 4 C 6579 6 6463 6 6462 3 C 6461 3 6461 3 6460 3 C 6458 6 6454 6 6452 4 C 6451 2 6442 2 6440 4 C 6439 6 6415 6 6414 3 C 6413 2 6269 3 6262 4 C 6259 4 6256 4 6254 4 C 6252 2 6122 3 6120 4 C 6119 4 6102 4 6081 4 C 6061 4 6026 4 6005 6 C 5953 6 5943 6 5913 6 C 5900 4 5496 6 5020 6 C 4542 6 3976 7 3765 7 C 3470 7 3378 7 3377 8 C 3376 10 3350 10 3349 8 C 3345 6 2657 7 2637 9 C 2633 9 2630 9 2628 9 C 2626 8 2624 8 2618 8 C 2602 9 2356 10 2355 8 C 2351 6 1889 7 1872 9 C 1862 10 1855 12 1844 10 C 1836 10 1821 9 1813 10 C 1779 10 1754 9 1753 9 C 1752 7 1743 7 1742 9 C 1740 10 1223 10 1221 9 C 1219 7 1197 7 1193 9 C 1190 12 1182 12 1175 9 C 1173 9 1169 8 1168 8 C 1166 8 1162 8 1158 9 C 1154 10 1151 10 1149 9 C 1148 8 1146 8 1144 9 C 1139 10 1131 10 1130 8 C 1128 7 1127 7 1114 9 C 1110 10 1014 10 900 10 C 786 10 692 10 691 10 C 690 10 535 10 347 10 C 158 10 3 10 3 12 C 2 12 2 14 2 16 C 2 21 4 24 12 24 C 14 24 18 24 18 24 C 19 26 24 26 25 24 C 26 22 36 22 37 25 C 38 25 42 25 50 25 C 73 24 265 22 267 25 C 270 26 272 25 281 24 C 287 24 291 24 294 24 C 299 25 337 25 345 24 C 350 24 353 24 354 25 C 356 26 646 26 648 25 C 649 22 747 22 748 24 C 749 26 834 26 835 24 C 837 22 892 22 893 24 C 894 25 975 25 1062 24 C 1137 22 1318 22 1322 24 C 1324 25 1327 25 1329 24 C 1335 22 1413 22 1415 25 C 1417 25 1420 25 1430 25 C 1438 24 1516 24 1689 24 C 1826 24 1940 24 1944 24 C 1949 24 1979 22 2011 22 C 2045 22 2163 22 2273 22 C 2383 22 2565 22 2678 22 C 2789 22 3257 22 3715 21 C 4238 21 4579 21 4628 20 C 4728 19 4862 19 4898 20 C 4925 21 5226 21 5436 20 C 5557 19 5876 19 6021 20 C 6096 20 6153 20 6185 19 C 6237 18 6364 18 7263 18 C 7602 16 7867 16 7884 15 C 7933 14 7975 13 7978 15 C 7980 15 7984 15 7990 15 C 8007 14 8068 13 8069 14 C 8070 15 8086 16 8109 16 C 8163 16 8742 15 8752 15 C 8758 15 8788 14 8821 14 C 8882 13 8885 13 8885 8 C 8883 1 8900 1 8666 1 C 8403 2 8003 2 7886 1 C 7840 1 7800 1 7800 1 z" fill="black"/><!-- width=8892 height=33 -->
<path id="gl38144" d="M 8566 1 C 8564 1 7286 2 7170 2 C 7162 2 7155 3 7155 3 C 7154 6 7106 6 7105 4 C 7104 2 7056 2 7054 4 C 7053 6 7044 6 7042 4 C 7041 2 7022 2 7021 4 C 7020 6 7005 6 7004 4 C 7003 2 6998 2 6997 4 C 6996 6 6952 6 6951 3 C 6949 2 6621 2 6619 3 C 6618 6 6415 6 6414 3 C 6412 3 6404 3 6386 3 C 6352 4 6363 4 6266 3 C 6205 3 6182 3 6178 3 C 6176 4 5882 6 5037 6 C 4412 6 3781 7 3634 7 C 3424 7 3369 7 3368 8 C 3367 9 3360 9 3338 9 C 3315 9 3309 9 3308 8 C 3308 6 2594 6 2592 8 C 2589 10 2388 10 2386 8 C 2384 6 1878 7 1875 8 C 1874 10 1869 10 1868 8 C 1866 7 1777 7 1774 8 C 1773 10 1764 10 1762 8 C 1761 7 1737 7 1736 8 C 1735 10 1706 10 1705 8 C 1704 7 1699 7 1698 8 C 1696 10 1245 10 1244 8 C 1243 7 1185 7 1184 8 C 1183 10 1164 10 1162 8 C 1161 7 1147 7 1146 8 C 1144 10 1135 10 1134 8 C 1132 7 1128 7 1126 8 C 1125 10 1120 10 1119 8 C 1118 7 1108 7 1107 8 C 1106 10 1063 10 1062 8 C 1060 7 1051 7 1050 8 C 1047 10 368 10 366 9 C 364 7 358 7 355 9 C 354 9 300 10 178 10 C -10 10 0 10 2 18 C 3 22 8 24 31 24 C 43 24 51 24 51 25 C 52 26 62 26 63 25 C 64 22 352 22 354 25 C 356 26 661 26 663 24 C 664 22 904 22 906 25 C 907 26 926 26 927 25 C 928 22 972 22 973 25 C 974 26 988 26 990 25 C 991 22 1000 22 1002 25 C 1003 26 1041 26 1042 25 C 1044 22 1082 22 1083 25 C 1083 25 1084 25 1086 25 C 1088 22 1935 22 1938 24 C 1939 26 1958 26 1959 24 C 1960 22 2193 22 3111 22 C 4425 22 4717 21 4719 20 C 4720 18 4725 18 4726 19 C 4728 21 4736 21 4737 19 C 4738 18 4749 18 4750 19 C 4752 21 4766 21 4767 19 C 4768 18 4860 18 4861 20 C 4863 21 5527 21 5529 19 C 5532 18 5881 18 5883 19 C 5886 21 6198 21 6201 19 C 6202 19 6474 18 6979 18 C 7776 16 7933 16 7935 14 C 7936 13 7975 13 7976 15 C 7977 16 8030 16 8031 15 C 8032 13 8043 13 8044 15 C 8047 18 8785 18 8790 15 C 8791 14 8804 13 8835 13 C 8884 13 8886 13 8878 4 C 8877 3 8876 2 8875 1 C 8824 1 8773 1 8722 1 C 8637 1 8568 1 8566 1 z" fill="black"/><!-- width=8890 height=34 -->
<path id="gl38145" d="M 7538 3 C 7508 3 7482 4 7476 4 C 7466 7 7447 6 7446 3 C 7444 2 7430 2 7429 4 C 7428 4 7425 4 7422 4 C 7417 4 7400 3 7382 3 C 7316 4 7300 4 7284 3 C 7274 3 7266 3 7266 4 C 7266 4 7166 4 7044 6 C 6922 6 6810 6 6793 6 C 6772 6 6760 4 6756 4 C 6752 3 6746 3 6740 3 C 6727 4 6722 4 6712 3 C 6708 3 6700 3 6696 3 C 6688 4 6620 4 6452 4 C 6324 4 6216 4 6214 4 C 6212 4 5978 6 5695 6 C 4986 7 4892 7 4890 8 C 4888 10 4874 9 4858 8 C 4855 7 4852 8 4851 8 C 4850 10 4836 10 4834 8 C 4833 7 4766 7 4508 7 C 4330 7 4180 7 4177 6 C 4140 6 3892 8 3882 9 C 3871 10 3867 10 3865 9 C 3864 8 3862 8 3859 9 C 3855 10 3853 10 3848 9 C 3841 7 3412 7 3409 8 C 3405 10 3310 10 3308 8 C 3307 7 3255 8 3244 9 C 3240 9 3237 9 3236 8 C 3234 7 2924 7 2719 8 C 2654 8 2656 8 2636 9 C 2623 10 2618 9 2617 9 C 2616 8 2614 8 2612 8 C 2607 10 2330 10 2329 8 C 2328 7 2313 7 2312 8 C 2311 10 2278 10 2275 8 C 2272 7 2254 7 2160 7 C 2098 7 2012 7 1968 7 C 1921 8 1886 8 1886 9 C 1885 10 1836 10 1834 8 C 1833 7 1819 7 1818 8 C 1816 10 1754 10 1753 8 C 1752 7 1742 7 1741 8 C 1740 10 1731 10 1729 8 C 1726 7 1725 7 1723 8 C 1720 10 1269 9 1186 8 C 1160 8 1143 8 1132 9 C 1123 9 1113 10 1112 10 C 1110 10 1101 10 1095 10 C 1089 10 1081 10 1078 10 C 1077 10 1052 10 1026 10 C 998 10 758 10 490 10 C 81 10 4 10 3 12 C 0 16 2 21 10 22 C 14 24 16 24 18 25 C 19 25 20 25 20 25 C 21 22 45 22 46 25 C 48 25 50 26 55 25 C 67 24 271 22 272 25 C 273 26 278 26 279 25 C 280 22 295 22 296 25 C 297 26 302 26 303 25 C 304 22 343 22 344 24 C 345 27 661 26 663 24 C 666 22 726 22 728 25 C 730 26 758 26 759 25 C 760 22 765 22 766 25 C 768 25 771 25 778 25 C 799 24 895 22 896 25 C 897 26 938 26 1012 25 C 1077 24 1072 24 1088 25 C 1095 25 1101 25 1104 25 C 1106 22 1268 22 1270 24 C 1272 26 1281 26 1282 25 C 1284 22 1293 22 1294 25 C 1296 26 1300 26 1302 25 C 1303 22 1308 22 1309 25 C 1310 26 1315 26 1316 24 C 1318 22 1400 22 1407 25 C 1411 25 1418 25 1428 25 C 1461 24 1932 22 1941 25 C 1948 25 1963 25 1996 24 C 2029 24 2404 22 3337 22 C 5454 21 5570 21 5574 19 C 5577 18 5578 18 5580 19 C 5583 21 5606 21 5607 19 C 5608 18 5727 18 5730 20 C 5732 22 6387 21 6390 20 C 6391 18 6400 18 6402 20 C 6403 21 6493 21 6549 19 C 6555 19 6565 19 6570 19 C 6576 19 6620 19 6670 19 C 6732 19 6762 19 6763 19 C 6764 21 6801 21 6802 19 C 6804 19 6807 18 6813 19 C 6819 19 6824 19 6826 19 C 6829 19 6834 19 6837 19 C 6849 20 6858 19 6876 19 C 6888 18 6891 19 6891 19 C 6891 21 6907 20 6922 19 C 6926 18 6928 19 6931 20 C 6933 21 6946 21 6992 20 C 7066 19 7450 19 7483 20 C 7501 21 7509 20 7514 19 C 7520 18 7522 18 7527 20 C 7533 21 7534 21 7537 19 C 7539 18 7594 18 7962 18 C 8194 18 8496 18 8630 18 C 8712 18 8793 18 8875 16 C 8876 15 8877 14 8878 13 C 8880 12 8881 10 8882 9 C 8881 8 8880 8 8878 7 C 8877 6 8876 4 8875 4 C 8874 4 8871 4 8870 3 C 8865 1 8340 1 8217 3 C 8131 4 7972 4 7959 3 C 7953 3 7951 3 7948 4 C 7947 4 7945 4 7941 4 C 7936 3 7887 3 7878 4 C 7873 4 7869 4 7868 4 C 7864 2 7639 1 7538 3 z" fill="black"/><!-- width=8890 height=34 -->
<path id="gl38146" d="M 8247 3 C 8196 4 7882 4 7667 3 C 7571 3 7512 3 7509 4 C 7507 4 7204 6 6694 6 C 6223 6 5860 7 5828 8 C 5799 8 5763 9 5751 9 C 5737 9 5728 9 5727 9 C 5726 7 5716 7 5715 9 C 5714 10 5698 10 5697 8 C 5695 7 5679 7 5677 8 C 5674 10 5647 10 5643 9 C 5641 8 5639 8 5638 9 C 5637 9 5635 10 5630 9 C 5612 7 5523 7 5153 7 C 4970 8 4958 8 4954 9 C 4949 10 4691 9 4420 8 C 4372 8 4322 8 4307 9 C 4269 10 4192 10 4190 9 C 4189 8 4187 8 4187 9 C 4186 10 4014 10 3454 10 C 2701 10 2552 12 2549 14 C 2548 15 2538 15 2537 13 C 2536 12 2453 12 2135 12 C 1730 12 1671 12 1670 14 C 1669 15 1409 15 1408 14 C 1406 12 1048 12 1040 13 C 1032 15 901 15 887 14 C 881 13 879 13 877 14 C 876 14 873 15 868 14 C 851 13 817 12 815 14 C 813 14 810 15 805 14 C 802 14 797 13 795 13 C 784 14 733 14 718 14 C 709 14 617 14 512 14 C 407 14 317 14 311 14 C 271 13 2 15 2 18 C 0 19 0 24 1 25 C 4 30 21 32 24 28 C 25 28 27 27 32 28 C 50 31 52 31 54 30 C 55 27 377 27 378 30 C 380 31 632 31 658 28 C 680 27 1030 27 1031 28 C 1032 31 1041 31 1042 28 C 1043 27 1068 27 1070 28 C 1071 30 1072 30 1074 28 C 1077 28 1245 27 1694 27 C 2317 26 2376 26 2379 24 C 2380 24 2383 22 2389 24 C 2402 25 2426 25 2438 24 C 2445 22 2448 24 2450 24 C 2452 26 2400 26 2870 26 C 3331 26 3377 26 3378 24 C 3379 22 3389 22 3390 25 C 3394 27 3756 26 3759 24 C 3760 22 3761 22 3761 22 C 3769 26 3759 26 3928 24 C 3962 22 3975 24 3976 24 C 3977 25 3983 25 3992 25 C 4004 25 4055 25 4100 25 C 4228 26 4318 25 4320 24 C 4321 22 4327 22 4327 24 C 4327 25 4339 25 4351 25 C 4392 24 4482 24 4489 25 C 4494 25 4496 25 4497 24 C 4500 22 4569 22 4572 24 C 4573 26 4578 26 4579 24 C 4580 22 4598 22 4602 25 C 4603 26 4604 26 4605 25 C 4609 22 5107 22 5113 24 C 5115 25 5118 25 5119 24 C 5127 21 5211 22 5218 24 C 5223 26 5229 26 5253 24 C 5275 22 5342 22 5584 22 C 6671 21 7000 21 7046 20 C 7073 20 7114 19 7137 19 C 7165 18 7179 19 7180 19 C 7180 20 7183 20 7185 19 C 7191 18 7236 18 7239 20 C 7240 21 7242 21 7244 20 C 7246 18 7280 18 7284 20 C 7287 22 7696 21 7712 19 C 7716 18 7724 18 7732 18 C 7742 18 7796 19 7816 19 C 7820 19 7925 19 8045 19 C 8166 18 8279 18 8296 19 C 8367 21 8479 21 8485 19 C 8491 16 8492 16 8499 18 C 8509 20 8535 20 8569 19 C 8585 18 8650 18 8739 18 C 8895 18 8882 19 8887 12 C 8891 8 8887 6 8878 6 C 8876 6 8874 4 8874 3 C 8871 2 8324 1 8247 3 z" fill="black"/><!-- width=8897 height=38 -->
</defs>
<use xlink:href="#gl32522" x="57" y="154"/>
<use xlink:href="#gl15887" x="160" y="187"/>
<use xlink:href="#gl15907" x="246" y="161"/>
<use xlink:href="#gl37377" x="303" y="187"/>
<use xlink:href="#gl34063" x="2402" y="154"/>
<use xlink:href="#gl15885" x="2499" y="186"/>
<use xlink:href="#gl16653" x="2589" y="152"/>
<use xlink:href="#gl15906" x="2677" y="182"/>
<use xlink:href="#gl15878" x="2765" y="186"/>
<use xlink:href="#gl15892" x="2852" y="154"/>
<use xlink:href="#gl16134" x="2899" y="184"/>
<use xlink:href="#gl15886" x="2987" y="187"/>
<use xlink:href="#gl15906" x="3046" y="181"/>
<use xlink:href="#gl15888" x="3139" y="154"/>
<use xlink:href="#gl37378" x="3231" y="149"/>
<use xlink:href="#gl16653" x="3332" y="152"/>
<use xlink:href="#gl15887" x="3420" y="185"/>
<use xlink:href="#gl15909" x="3514" y="184"/>
<use xlink:href="#gl31749" x="3601" y="184"/>
<use xlink:href="#gl15885" x="3692" y="185"/>
<use xlink:href="#gl37379" x="6951" y="150"/>
<use xlink:href="#gl15887" x="7085" y="183"/>
<use xlink:href="#gl16129" x="7172" y="184"/>
<use xlink:href="#gl31755" x="7258" y="150"/>
<use xlink:href="#gl15893" x="7310" y="183"/>
<use xlink:href="#gl15904" x="7450" y="184"/>
<use xlink:href="#gl15893" x="7540" y="183"/>
<use xlink:href="#gl15912" x="7719" y="150"/>
<use xlink:href="#gl35587" x="7825" y="184"/>
<use xlink:href="#gl15891" x="7911" y="184"/>
<use xlink:href="#gl15892" x="7997" y="152"/>
<use xlink:href="#gl15879" x="8045" y="181"/>
<use xlink:href="#gl15907" x="8127" y="156"/>
<use xlink:href="#gl16647" x="8179" y="184"/>
<use xlink:href="#gl32525" x="8308" y="148"/>
<use xlink:href="#gl32528" x="8368" y="150"/>
<use xlink:href="#gl31763" x="8455" y="218"/>
<use xlink:href="#gl31764" x="8549" y="150"/>
<use xlink:href="#gl32530" x="8641" y="150"/>
<use xlink:href="#gl31765" x="8728" y="150"/>
<use xlink:href="#gl31761" x="8823" y="149"/>
<use xlink:href="#gl37380" x="15" y="0"/>
<use xlink:href="#gl37381" x="10" y="399"/>
<use xlink:href="#gl37382" x="10" y="1104"/>
<use xlink:href="#gl37383" x="10" y="1709"/>
<use xlink:href="#gl37632" x="10" y="2314"/>
<use xlink:href="#gl37633" x="10" y="2919"/>
<use xlink:href="#gl37634" x="10" y="3523"/>
<use xlink:href="#gl37635" x="5" y="4128"/>
<use xlink:href="#gl37636" x="10" y="4723"/>
<use xlink:href="#gl37637" x="5" y="5323"/>
<use xlink:href="#gl37638" x="5" y="5928"/>
<use xlink:href="#gl37888" x="6" y="6524"/>
<use xlink:href="#gl37889" x="5" y="7128"/>
<use xlink:href="#gl37890" x="5" y="7728"/>
<use xlink:href="#gl37891" x="5" y="8333"/>
<use xlink:href="#gl37892" x="5" y="8938"/>
<use xlink:href="#gl37893" x="5" y="9533"/>
<use xlink:href="#gl37894" x="6" y="10133"/>
<use xlink:href="#gl38144" x="0" y="10733"/>
<use xlink:href="#gl38145" x="0" y="11333"/>
<use xlink:href="#gl38146" x="1" y="12581"/>
</svg>