<svg xmlns="http://www.w3.org/2000/svg" xmlns:xlink="http://www.w3.org/1999/xlink" width="885px" height="1140px" viewBox="0 0 8850 11405" version="1.1">
<defs>
<path id="gl15882" d="M 13 7 C 10 7 9 8 9 8 C 8 8 8 38 8 74 C 7 150 7 145 19 145 C 32 145 31 150 31 78 C 32 43 32 13 31 10 C 30 6 19 3 13 7 z" fill="black"/><!-- width=44 height=155 -->
<path id="gl15893" d="M 41 8 C 35 11 34 11 26 8 C 17 7 11 7 8 10 C 8 11 7 26 7 59 C 7 75 7 90 7 107 C 8 107 10 108 11 109 C 13 112 24 112 27 109 C 29 108 30 108 31 107 C 31 96 30 83 30 70 C 30 29 30 25 41 24 C 53 24 54 27 53 70 C 53 82 53 93 53 106 C 53 107 54 107 55 108 C 59 112 70 112 74 108 C 75 107 77 106 78 106 C 77 94 77 83 77 72 C 75 34 75 32 80 27 C 89 18 102 30 99 45 C 99 48 98 61 98 78 C 98 88 98 97 98 107 C 99 107 101 108 101 109 C 106 112 118 112 121 108 C 123 106 123 26 121 20 C 116 6 98 1 83 10 C 80 11 78 12 75 13 C 72 12 69 11 66 10 C 56 5 50 5 41 8 z" fill="black"/><!-- width=136 height=122 -->
<path id="gl15887" d="M 31 6 C 22 8 14 13 11 21 C 4 32 7 39 17 39 C 26 39 28 37 31 32 C 37 21 52 22 52 33 C 52 39 48 44 38 48 C 13 58 7 64 7 83 C 7 96 12 106 21 110 C 27 114 38 112 44 110 C 50 106 54 106 58 109 C 63 111 74 111 76 109 C 79 105 78 26 74 19 C 69 8 50 3 31 6 M 52 65 C 54 68 54 80 52 85 C 48 99 31 95 31 81 C 31 68 45 57 52 65 z" fill="black"/><!-- width=90 height=124 -->
<path id="gl31749" d="M 20 9 C 11 14 8 24 9 65 C 9 92 9 94 12 101 C 18 112 28 115 43 110 C 50 109 54 112 52 119 C 51 128 44 130 33 125 C 17 118 6 124 13 136 C 20 149 50 150 65 139 C 76 131 77 123 77 61 C 77 45 77 29 77 13 C 76 12 76 11 75 11 C 71 7 67 7 56 9 C 50 11 49 11 43 8 C 34 6 27 6 20 9 M 48 28 C 52 30 52 34 52 60 C 52 82 52 84 50 88 C 46 97 38 96 34 88 C 32 83 32 82 32 60 C 32 48 32 36 33 34 C 35 27 41 24 48 28 z" fill="black"/><!-- width=91 height=157 -->
<path id="gl15885" d="M 30 6 C 11 12 8 18 8 56 C 8 96 11 101 24 108 C 40 117 64 112 71 100 C 81 85 79 75 67 75 C 59 74 55 76 54 82 C 48 100 30 95 30 76 C 30 64 35 61 58 63 C 79 64 79 64 77 44 C 76 23 72 13 61 8 C 55 6 38 4 30 6 M 50 28 C 54 32 54 38 51 43 C 48 46 37 46 33 43 C 24 32 42 17 50 28 z" fill="black"/><!-- width=90 height=123 -->
<path id="gl32522" d="M 9 8 C 6 11 7 138 9 142 C 12 144 13 144 37 143 C 74 143 80 139 88 116 C 89 112 90 109 91 105 C 91 94 91 83 91 72 C 91 26 89 18 72 11 C 69 9 67 8 64 6 C 56 6 47 6 37 6 C 18 6 11 7 9 8 M 57 29 C 63 34 64 39 66 57 C 68 94 64 115 55 121 C 46 125 33 122 31 117 C 31 106 31 34 33 31 C 35 25 49 24 57 29 z" fill="black"/><!-- width=105 height=155 -->
<path id="gl15885" d="M 30 6 C 11 12 8 18 8 56 C 8 96 11 101 24 108 C 40 117 64 112 71 100 C 81 85 79 75 67 75 C 59 74 55 76 54 82 C 48 100 30 95 30 76 C 30 64 35 61 58 63 C 79 64 79 64 77 44 C 76 23 72 13 61 8 C 55 6 38 4 30 6 M 50 28 C 54 32 54 38 51 43 C 48 46 37 46 33 43 C 24 32 42 17 50 28 z" fill="black"/><!-- width=90 height=123 -->
<path id="gl31751" d="M 27 7 C 13 13 7 24 12 41 C 13 48 22 57 35 65 C 50 76 51 77 51 85 C 51 96 36 96 32 84 C 30 77 27 76 20 76 C 8 74 4 80 10 94 C 16 107 32 114 51 112 C 70 108 77 100 77 83 C 77 70 73 64 56 53 C 37 42 35 38 35 33 C 35 28 39 24 43 24 C 48 24 54 30 55 33 C 55 38 71 42 76 38 C 82 35 78 21 70 14 C 61 6 42 2 27 7 z" fill="black"/><!-- width=90 height=125 -->
<path id="gl15900" d="M 23 8 C 9 13 7 19 7 58 C 7 69 7 79 7 89 C 8 92 9 94 11 97 C 17 109 32 114 49 109 C 62 104 68 98 69 83 C 71 72 68 69 58 69 C 48 69 47 71 46 79 C 44 92 33 94 31 84 C 28 79 28 37 31 32 C 34 22 46 24 46 36 C 46 42 48 44 57 44 C 71 44 74 33 66 19 C 58 8 39 3 23 8 z" fill="black"/><!-- width=80 height=123 -->
<path id="gl15880" d="M 10 7 C 10 7 8 8 7 8 C 7 25 7 41 7 57 C 7 113 6 110 18 110 C 31 110 31 110 30 73 C 30 62 30 52 30 42 C 31 41 32 40 34 39 C 36 35 39 35 44 34 C 52 32 55 30 55 18 C 55 15 54 8 54 7 C 51 5 45 5 41 7 C 34 15 32 15 27 10 C 22 6 15 5 10 7 z" fill="black"/><!-- width=66 height=122 -->
<path id="gl31755" d="M 12 8 C 8 12 8 21 10 26 C 14 30 29 30 32 25 C 37 20 37 12 32 8 C 27 3 15 3 12 8 M 12 42 C 9 43 9 47 9 92 C 9 147 8 144 21 144 C 35 144 33 146 33 92 C 33 76 33 60 33 44 C 33 43 32 43 31 42 C 27 40 15 40 12 42 z" fill="black"/><!-- width=47 height=153 -->
<path id="gl32523" d="M 50 4 C 49 6 45 6 42 7 C 37 9 34 9 25 8 C 14 6 14 6 12 9 C 10 10 9 10 8 12 C 8 33 8 55 8 76 C 8 97 8 118 8 140 C 9 141 10 141 12 142 C 13 144 15 145 20 144 C 31 144 31 142 31 124 C 31 106 33 103 44 109 C 56 116 69 109 74 94 C 78 84 78 32 75 22 C 72 10 61 3 50 4 M 49 26 C 52 30 52 37 52 58 C 52 84 51 88 46 91 C 43 92 42 92 39 91 C 32 87 32 84 31 57 C 31 50 31 42 31 34 C 32 33 33 31 34 30 C 38 24 45 22 49 26 z" fill="black"/><!-- width=86 height=153 -->
<path id="gl15907" d="M 18 7 C 16 10 15 12 16 20 C 16 28 16 30 12 33 C 6 40 6 51 12 53 C 16 55 16 60 16 93 C 16 132 16 132 26 137 C 45 146 58 132 45 118 C 43 116 42 115 41 112 C 41 103 41 95 41 85 C 41 76 41 67 41 57 C 42 56 43 55 45 53 C 50 48 50 47 50 43 C 50 40 50 38 45 35 C 41 30 41 28 41 20 C 41 7 38 5 27 5 C 22 5 20 6 18 7 z" fill="black"/><!-- width=61 height=150 -->
<path id="gl15892" d="M 12 6 C 7 7 6 8 6 16 C 6 25 10 27 18 27 C 28 27 32 22 31 12 C 30 6 20 2 12 6 M 10 41 C 6 44 6 138 10 141 C 13 143 25 143 27 141 C 28 139 30 139 31 138 C 31 123 31 107 31 91 C 31 36 31 40 18 40 C 15 40 11 40 10 41 z" fill="black"/><!-- width=44 height=153 -->
<path id="gl16134" d="M 31 7 C 11 9 6 23 7 71 C 8 106 13 112 40 112 C 66 112 74 105 75 74 C 76 55 75 32 73 26 C 68 11 52 3 31 7 M 49 29 C 50 31 52 32 53 33 C 53 42 53 50 53 60 C 53 69 53 78 53 88 C 52 89 50 90 49 91 C 44 95 38 95 33 91 C 32 90 31 89 29 89 C 29 79 29 69 29 60 C 29 32 29 32 32 28 C 37 23 44 23 49 29 z" fill="black"/><!-- width=88 height=125 -->
<path id="gl16133" d="M 45 8 C 37 11 36 11 26 8 C 19 6 12 7 9 9 C 9 11 8 33 8 59 C 8 75 8 91 8 107 C 9 108 11 108 12 110 C 15 112 28 112 30 110 C 33 107 33 105 33 73 C 31 34 33 31 40 28 C 53 22 56 35 53 91 C 53 96 52 101 52 106 C 53 107 55 108 56 108 C 61 112 74 112 77 108 C 78 107 78 97 78 64 C 78 22 78 22 75 17 C 68 6 56 2 45 8 z" fill="black"/><!-- width=90 height=122 -->
<path id="gl32524" d="M 7 8 C 4 12 4 13 7 26 C 9 32 10 42 12 48 C 13 52 14 62 15 67 C 20 85 22 100 27 124 C 32 144 31 142 48 142 C 68 144 67 145 72 112 C 73 109 74 104 75 102 C 75 99 78 93 78 86 C 84 61 84 57 85 55 C 86 52 87 49 88 45 C 88 42 91 32 92 25 C 97 8 96 7 81 7 C 67 7 66 7 64 28 C 63 39 62 46 57 72 C 55 86 51 93 46 91 C 44 88 40 74 39 62 C 39 55 38 48 37 46 C 37 45 36 40 34 34 C 33 20 31 10 27 8 C 24 6 9 6 7 8 z" fill="black"/><!-- width=105 height=153 -->
<path id="gl15892" d="M 12 6 C 7 7 6 8 6 16 C 6 25 10 27 18 27 C 28 27 32 22 31 12 C 30 6 20 2 12 6 M 10 41 C 6 44 6 138 10 141 C 13 143 25 143 27 141 C 28 139 30 139 31 138 C 31 123 31 107 31 91 C 31 36 31 40 18 40 C 15 40 11 40 10 41 z" fill="black"/><!-- width=44 height=153 -->
<path id="gl15884" d="M 11 6 C 6 7 6 12 11 32 C 17 57 24 88 26 98 C 28 109 31 110 44 110 C 58 110 60 109 62 98 C 65 83 77 37 79 26 C 84 8 83 4 70 4 C 58 4 57 7 54 26 C 51 70 39 72 34 27 C 34 19 33 11 33 9 C 31 6 19 3 11 6 z" fill="black"/><!-- width=94 height=120 -->
<path id="gl15892" d="M 12 6 C 7 7 6 8 6 16 C 6 25 10 27 18 27 C 28 27 32 22 31 12 C 30 6 20 2 12 6 M 10 41 C 6 44 6 138 10 141 C 13 143 25 143 27 141 C 28 139 30 139 31 138 C 31 123 31 107 31 91 C 31 36 31 40 18 40 C 15 40 11 40 10 41 z" fill="black"/><!-- width=44 height=153 -->
<path id="gl16652" d="M 58 5 C 52 7 50 8 52 22 C 53 42 52 43 34 38 C 25 36 16 40 12 49 C 8 56 8 56 8 91 C 8 127 8 127 12 133 C 17 145 30 148 42 143 C 44 142 47 142 50 142 C 67 145 71 145 73 142 C 77 138 77 10 73 7 C 72 5 62 3 58 5 M 47 59 C 52 62 52 67 52 92 C 52 113 52 117 50 120 C 45 128 36 128 33 119 C 30 114 30 68 33 63 C 35 58 40 56 47 59 z" fill="black"/><!-- width=89 height=157 -->
<path id="gl16133" d="M 45 8 C 37 11 36 11 26 8 C 19 6 12 7 9 9 C 9 11 8 33 8 59 C 8 75 8 91 8 107 C 9 108 11 108 12 110 C 15 112 28 112 30 110 C 33 107 33 105 33 73 C 31 34 33 31 40 28 C 53 22 56 35 53 91 C 53 96 52 101 52 106 C 53 107 55 108 56 108 C 61 112 74 112 77 108 C 78 107 78 97 78 64 C 78 22 78 22 75 17 C 68 6 56 2 45 8 z" fill="black"/><!-- width=90 height=122 -->
<path id="gl15889" d="M 30 7 C 13 13 9 20 9 53 C 8 97 14 110 39 112 C 61 116 77 105 79 86 C 80 79 78 75 70 75 C 62 74 57 77 55 84 C 51 99 35 97 33 81 C 30 67 35 63 53 64 C 74 64 74 64 78 62 C 81 58 80 30 75 20 C 69 7 48 1 30 7 M 52 28 C 58 34 56 44 48 45 C 40 48 33 44 33 36 C 33 25 45 20 52 28 z" fill="black"/><!-- width=91 height=124 -->
<path id="gl31753" d="M 26 7 C 13 11 8 17 8 29 C 8 46 12 52 32 66 C 47 75 49 78 49 84 C 49 94 38 97 32 89 C 31 88 28 84 28 84 C 28 79 24 77 16 77 C 8 77 7 78 7 84 C 7 103 21 113 43 112 C 61 112 71 104 74 90 C 77 74 72 64 51 53 C 41 46 34 41 33 37 C 28 26 43 19 49 31 C 54 38 57 39 64 39 C 72 39 74 38 74 31 C 74 12 51 0 26 7 z" fill="black"/><!-- width=87 height=124 -->
<path id="gl31753" d="M 26 7 C 13 11 8 17 8 29 C 8 46 12 52 32 66 C 47 75 49 78 49 84 C 49 94 38 97 32 89 C 31 88 28 84 28 84 C 28 79 24 77 16 77 C 8 77 7 78 7 84 C 7 103 21 113 43 112 C 61 112 71 104 74 90 C 77 74 72 64 51 53 C 41 46 34 41 33 37 C 28 26 43 19 49 31 C 54 38 57 39 64 39 C 72 39 74 38 74 31 C 74 12 51 0 26 7 z" fill="black"/><!-- width=87 height=124 -->
<path id="gl31754" d="M 15 7 C 9 9 8 13 9 32 C 10 41 10 52 10 54 C 10 56 9 77 9 100 C 9 113 9 127 9 141 C 10 141 12 142 12 144 C 16 146 27 146 32 144 C 32 142 33 141 35 141 C 35 129 35 117 35 105 C 35 66 35 61 39 65 C 42 65 43 67 44 70 C 48 78 55 113 55 121 C 55 141 65 152 73 142 C 77 139 77 138 78 127 C 83 93 93 61 98 65 C 101 69 101 99 100 123 C 99 135 100 141 102 144 C 107 147 123 145 125 140 C 125 139 127 110 127 75 C 127 54 127 32 127 12 C 125 10 124 9 123 9 C 119 6 119 6 104 7 C 84 7 83 8 82 24 C 73 88 62 90 54 29 C 53 14 50 10 46 8 C 43 6 19 6 15 7 z" fill="black"/><!-- width=140 height=156 -->
<path id="gl15887" d="M 31 6 C 22 8 14 13 11 21 C 4 32 7 39 17 39 C 26 39 28 37 31 32 C 37 21 52 22 52 33 C 52 39 48 44 38 48 C 13 58 7 64 7 83 C 7 96 12 106 21 110 C 27 114 38 112 44 110 C 50 106 54 106 58 109 C 63 111 74 111 76 109 C 79 105 78 26 74 19 C 69 8 50 3 31 6 M 52 65 C 54 68 54 80 52 85 C 48 99 31 95 31 81 C 31 68 45 57 52 65 z" fill="black"/><!-- width=90 height=124 -->
<path id="gl15891" d="M 8 7 C 4 8 6 14 17 33 C 29 57 29 55 16 80 C 2 105 2 110 16 109 C 26 109 29 108 32 100 C 38 85 44 85 49 100 C 52 106 53 108 63 109 C 78 110 80 105 73 93 C 64 80 54 59 54 55 C 54 52 64 33 72 21 C 79 9 77 4 64 4 C 55 4 52 7 49 14 C 44 24 38 24 34 14 C 33 12 31 8 29 8 C 27 6 12 4 8 7 z" fill="black"/><!-- width=86 height=120 -->
<path id="gl15892" d="M 12 6 C 7 7 6 8 6 16 C 6 25 10 27 18 27 C 28 27 32 22 31 12 C 30 6 20 2 12 6 M 10 41 C 6 44 6 138 10 141 C 13 143 25 143 27 141 C 28 139 30 139 31 138 C 31 123 31 107 31 91 C 31 36 31 40 18 40 C 15 40 11 40 10 41 z" fill="black"/><!-- width=44 height=153 -->
<path id="gl15893" d="M 41 8 C 35 11 34 11 26 8 C 17 7 11 7 8 10 C 8 11 7 26 7 59 C 7 75 7 90 7 107 C 8 107 10 108 11 109 C 13 112 24 112 27 109 C 29 108 30 108 31 107 C 31 96 30 83 30 70 C 30 29 30 25 41 24 C 53 24 54 27 53 70 C 53 82 53 93 53 106 C 53 107 54 107 55 108 C 59 112 70 112 74 108 C 75 107 77 106 78 106 C 77 94 77 83 77 72 C 75 34 75 32 80 27 C 89 18 102 30 99 45 C 99 48 98 61 98 78 C 98 88 98 97 98 107 C 99 107 101 108 101 109 C 106 112 118 112 121 108 C 123 106 123 26 121 20 C 116 6 98 1 83 10 C 80 11 78 12 75 13 C 72 12 69 11 66 10 C 56 5 50 5 41 8 z" fill="black"/><!-- width=136 height=122 -->
<path id="gl15904" d="M 10 6 C 6 8 6 10 7 56 C 7 97 7 100 9 102 C 15 111 27 113 39 107 C 42 106 44 105 47 103 C 48 105 50 106 51 106 C 60 109 66 109 71 107 C 73 105 73 105 73 59 C 73 20 73 12 72 9 C 70 4 55 4 50 8 C 49 9 49 16 49 44 C 50 83 49 85 43 90 C 33 95 27 86 28 71 C 30 44 30 10 27 8 C 25 6 14 4 10 6 z" fill="black"/><!-- width=86 height=120 -->
<path id="gl15893" d="M 41 8 C 35 11 34 11 26 8 C 17 7 11 7 8 10 C 8 11 7 26 7 59 C 7 75 7 90 7 107 C 8 107 10 108 11 109 C 13 112 24 112 27 109 C 29 108 30 108 31 107 C 31 96 30 83 30 70 C 30 29 30 25 41 24 C 53 24 54 27 53 70 C 53 82 53 93 53 106 C 53 107 54 107 55 108 C 59 112 70 112 74 108 C 75 107 77 106 78 106 C 77 94 77 83 77 72 C 75 34 75 32 80 27 C 89 18 102 30 99 45 C 99 48 98 61 98 78 C 98 88 98 97 98 107 C 99 107 101 108 101 109 C 106 112 118 112 121 108 C 123 106 123 26 121 20 C 116 6 98 1 83 10 C 80 11 78 12 75 13 C 72 12 69 11 66 10 C 56 5 50 5 41 8 z" fill="black"/><!-- width=136 height=122 -->
<path id="gl15912" d="M 37 8 C 33 10 33 14 32 20 C 31 25 29 37 26 48 C 22 59 19 76 16 88 C 14 99 10 113 9 119 C 4 140 6 144 16 144 C 29 145 32 141 35 125 C 36 111 39 107 50 107 C 64 107 67 111 70 124 C 71 141 75 145 87 145 C 100 145 101 139 96 121 C 95 114 91 102 89 94 C 88 84 84 68 82 59 C 79 49 76 33 75 26 C 71 6 71 6 53 6 C 41 4 41 4 37 8 M 58 59 C 64 75 61 88 52 88 C 43 88 41 79 45 64 C 49 50 54 49 58 59 z" fill="black"/><!-- width=111 height=153 -->
<path id="gl16133" d="M 45 8 C 37 11 36 11 26 8 C 19 6 12 7 9 9 C 9 11 8 33 8 59 C 8 75 8 91 8 107 C 9 108 11 108 12 110 C 15 112 28 112 30 110 C 33 107 33 105 33 73 C 31 34 33 31 40 28 C 53 22 56 35 53 91 C 53 96 52 101 52 106 C 53 107 55 108 56 108 C 61 112 74 112 77 108 C 78 107 78 97 78 64 C 78 22 78 22 75 17 C 68 6 56 2 45 8 z" fill="black"/><!-- width=90 height=122 -->
<path id="gl15891" d="M 8 7 C 4 8 6 14 17 33 C 29 57 29 55 16 80 C 2 105 2 110 16 109 C 26 109 29 108 32 100 C 38 85 44 85 49 100 C 52 106 53 108 63 109 C 78 110 80 105 73 93 C 64 80 54 59 54 55 C 54 52 64 33 72 21 C 79 9 77 4 64 4 C 55 4 52 7 49 14 C 44 24 38 24 34 14 C 33 12 31 8 29 8 C 27 6 12 4 8 7 z" fill="black"/><!-- width=86 height=120 -->
<path id="gl15892" d="M 12 6 C 7 7 6 8 6 16 C 6 25 10 27 18 27 C 28 27 32 22 31 12 C 30 6 20 2 12 6 M 10 41 C 6 44 6 138 10 141 C 13 143 25 143 27 141 C 28 139 30 139 31 138 C 31 123 31 107 31 91 C 31 36 31 40 18 40 C 15 40 11 40 10 41 z" fill="black"/><!-- width=44 height=153 -->
<path id="gl15885" d="M 30 6 C 11 12 8 18 8 56 C 8 96 11 101 24 108 C 40 117 64 112 71 100 C 81 85 79 75 67 75 C 59 74 55 76 54 82 C 48 100 30 95 30 76 C 30 64 35 61 58 63 C 79 64 79 64 77 44 C 76 23 72 13 61 8 C 55 6 38 4 30 6 M 50 28 C 54 32 54 38 51 43 C 48 46 37 46 33 43 C 24 32 42 17 50 28 z" fill="black"/><!-- width=90 height=123 -->
<path id="gl15907" d="M 18 7 C 16 10 15 12 16 20 C 16 28 16 30 12 33 C 6 40 6 51 12 53 C 16 55 16 60 16 93 C 16 132 16 132 26 137 C 45 146 58 132 45 118 C 43 116 42 115 41 112 C 41 103 41 95 41 85 C 41 76 41 67 41 57 C 42 56 43 55 45 53 C 50 48 50 47 50 43 C 50 40 50 38 45 35 C 41 30 41 28 41 20 C 41 7 38 5 27 5 C 22 5 20 6 18 7 z" fill="black"/><!-- width=61 height=150 -->
<path id="gl16647" d="M 58 6 C 54 8 53 13 50 29 C 48 69 36 67 32 23 C 29 7 28 6 16 6 C 4 6 1 9 6 21 C 7 23 8 29 9 36 C 12 42 16 58 19 73 C 31 120 31 120 21 124 C 8 129 13 145 26 145 C 43 144 49 137 55 106 C 63 75 65 68 67 62 C 68 57 70 48 72 40 C 73 33 75 24 76 22 C 79 14 79 8 75 6 C 73 3 63 3 58 6 z" fill="black"/><!-- width=89 height=155 -->
<path id="gl32522" d="M 9 8 C 6 11 7 138 9 142 C 12 144 13 144 37 143 C 74 143 80 139 88 116 C 89 112 90 109 91 105 C 91 94 91 83 91 72 C 91 26 89 18 72 11 C 69 9 67 8 64 6 C 56 6 47 6 37 6 C 18 6 11 7 9 8 M 57 29 C 63 34 64 39 66 57 C 68 94 64 115 55 121 C 46 125 33 122 31 117 C 31 106 31 34 33 31 C 35 25 49 24 57 29 z" fill="black"/><!-- width=105 height=155 -->
<path id="gl15906" d="M 31 8 C 18 11 12 17 8 28 C 6 38 7 41 15 41 C 24 42 26 40 30 34 C 36 23 51 24 51 38 C 51 42 45 49 34 52 C 22 56 13 62 11 68 C 7 76 7 99 11 105 C 15 116 30 120 42 114 C 46 112 49 111 51 110 C 52 111 55 111 57 112 C 65 115 73 115 76 112 C 77 111 77 104 77 68 C 76 17 76 18 63 12 C 56 8 41 7 31 8 M 50 68 C 53 71 53 83 51 89 C 46 103 30 99 30 84 C 30 72 44 61 50 68 z" fill="black"/><!-- width=89 height=127 -->
<path id="gl15907" d="M 18 7 C 16 10 15 12 16 20 C 16 28 16 30 12 33 C 6 40 6 51 12 53 C 16 55 16 60 16 93 C 16 132 16 132 26 137 C 45 146 58 132 45 118 C 43 116 42 115 41 112 C 41 103 41 95 41 85 C 41 76 41 67 41 57 C 42 56 43 55 45 53 C 50 48 50 47 50 43 C 50 40 50 38 45 35 C 41 30 41 28 41 20 C 41 7 38 5 27 5 C 22 5 20 6 18 7 z" fill="black"/><!-- width=61 height=150 -->
<path id="gl16651" d="M 26 9 C 9 17 8 19 8 59 C 8 70 8 81 8 93 C 9 95 11 98 12 100 C 17 111 27 116 43 116 C 60 116 70 110 75 98 C 80 84 76 76 64 78 C 57 79 54 80 53 88 C 48 104 31 98 29 79 C 29 69 34 65 45 65 C 73 68 76 67 76 53 C 76 29 72 17 62 11 C 53 7 33 7 26 9 M 50 31 C 52 32 52 36 52 39 C 52 52 31 52 31 38 C 31 27 44 22 50 31 z" fill="black"/><!-- width=90 height=129 -->
<path id="gl32525" d="M 30 8 C 27 11 19 29 15 40 C 7 66 7 118 15 143 C 24 171 32 183 39 183 C 49 183 49 178 42 160 C 34 139 33 130 33 91 C 33 53 34 43 42 23 C 48 10 48 9 45 7 C 41 2 35 3 30 8 z" fill="black"/><!-- width=59 height=192 -->
<path id="gl31759" d="M 11 5 C 10 7 9 8 8 9 C 8 10 8 40 8 74 C 8 96 8 117 8 138 C 9 139 10 139 11 141 C 14 143 24 143 28 141 C 30 138 30 138 30 128 C 30 114 32 110 37 110 C 41 110 46 118 47 126 C 49 139 53 143 64 143 C 77 143 79 137 72 123 C 62 104 55 86 55 82 C 55 80 56 77 61 69 C 65 65 69 58 72 54 C 79 43 77 39 65 39 C 55 39 52 40 47 49 C 42 61 40 65 36 64 C 30 64 29 58 32 33 C 33 9 33 7 26 5 C 20 3 15 3 11 5 z" fill="black"/><!-- width=86 height=154 -->
<path id="gl15879" d="M 32 7 C 20 8 15 12 10 21 C 6 27 6 86 8 95 C 19 121 67 120 74 93 C 78 79 76 76 64 76 C 57 76 50 79 50 86 C 50 92 40 97 34 92 C 27 88 26 72 32 67 C 36 63 36 63 53 64 C 72 65 72 64 74 60 C 77 57 76 35 73 25 C 68 11 53 3 32 7 M 49 27 C 54 32 52 44 45 46 C 36 49 29 44 29 36 C 29 26 41 21 49 27 z" fill="black"/><!-- width=87 height=126 -->
<path id="gl32526" d="M 9 7 C 8 8 7 8 6 9 C 7 16 8 20 9 27 C 14 43 19 64 27 97 C 33 119 33 122 24 125 C 12 130 14 146 27 146 C 46 146 51 141 60 103 C 70 59 71 56 78 28 C 85 6 83 4 71 4 C 59 4 57 6 55 27 C 51 50 48 61 45 61 C 41 61 36 46 35 28 C 34 19 33 12 32 11 C 29 3 16 2 9 7 z" fill="black"/><!-- width=94 height=157 -->
<path id="gl16648" d="M 10 5 C 7 8 7 13 9 23 C 10 28 11 37 13 43 C 14 47 16 61 17 69 C 20 79 22 91 22 95 C 25 107 27 110 39 110 C 51 110 53 106 53 98 C 53 87 59 71 63 73 C 67 74 70 83 70 93 C 71 106 73 106 77 109 C 88 113 103 107 103 99 C 103 97 104 86 106 75 C 109 64 111 51 112 46 C 113 40 115 32 116 27 C 121 9 119 4 107 4 C 95 4 94 7 94 23 C 94 37 89 57 86 57 C 81 57 77 45 75 22 C 74 8 71 5 64 4 C 55 3 50 8 50 20 C 50 34 45 57 41 57 C 38 57 34 45 33 23 C 32 7 31 4 20 4 C 15 4 11 4 10 5 z" fill="black"/><!-- width=130 height=122 -->
<path id="gl15902" d="M 34 6 C 18 9 12 17 9 36 C 8 51 9 86 12 93 C 15 106 25 111 43 111 C 70 111 77 104 79 75 C 82 41 78 19 68 12 C 61 6 45 3 34 6 M 49 25 C 55 28 55 29 55 60 C 55 68 55 78 55 87 C 55 88 54 89 52 90 C 47 95 40 95 35 89 C 34 88 33 87 31 86 C 31 77 31 68 31 60 C 31 33 33 29 39 25 C 44 23 44 23 49 25 z" fill="black"/><!-- width=92 height=124 -->
<path id="gl15886" d="M 43 7 C 36 13 34 13 29 8 C 26 6 23 6 19 6 C 8 6 8 2 8 57 C 8 113 8 108 21 108 C 33 108 32 109 33 72 C 33 37 33 34 43 33 C 44 33 48 32 49 32 C 56 31 58 26 58 17 C 58 4 52 1 43 7 z" fill="black"/><!-- width=69 height=119 -->
<path id="gl16652" d="M 58 5 C 52 7 50 8 52 22 C 53 42 52 43 34 38 C 25 36 16 40 12 49 C 8 56 8 56 8 91 C 8 127 8 127 12 133 C 17 145 30 148 42 143 C 44 142 47 142 50 142 C 67 145 71 145 73 142 C 77 138 77 10 73 7 C 72 5 62 3 58 5 M 47 59 C 52 62 52 67 52 92 C 52 113 52 117 50 120 C 45 128 36 128 33 119 C 30 114 30 68 33 63 C 35 58 40 56 47 59 z" fill="black"/><!-- width=89 height=157 -->
<path id="gl31753" d="M 26 7 C 13 11 8 17 8 29 C 8 46 12 52 32 66 C 47 75 49 78 49 84 C 49 94 38 97 32 89 C 31 88 28 84 28 84 C 28 79 24 77 16 77 C 8 77 7 78 7 84 C 7 103 21 113 43 112 C 61 112 71 104 74 90 C 77 74 72 64 51 53 C 41 46 34 41 33 37 C 28 26 43 19 49 31 C 54 38 57 39 64 39 C 72 39 74 38 74 31 C 74 12 51 0 26 7 z" fill="black"/><!-- width=87 height=124 -->
<path id="gl32527" d="M 7 7 C 4 9 4 10 8 19 C 15 41 18 51 18 78 C 20 114 17 150 9 167 C 6 175 6 180 9 183 C 21 191 40 153 43 112 C 46 79 41 52 29 24 C 20 4 14 0 7 7 z" fill="black"/><!-- width=56 height=195 -->
<path id="gl32528" d="M 29 6 C 20 9 13 15 10 24 C 7 34 8 120 12 129 C 17 139 24 144 41 144 C 66 146 79 136 80 108 C 81 97 81 96 85 92 C 88 87 88 80 83 76 C 82 76 81 75 81 74 C 81 68 81 60 81 54 C 81 25 76 14 64 8 C 58 6 35 4 29 6 M 51 29 C 52 30 53 31 54 32 C 54 47 54 60 54 75 C 54 88 54 103 54 116 C 53 118 52 119 51 120 C 47 125 42 125 37 121 C 31 116 31 115 31 73 C 32 59 32 46 32 32 C 34 31 35 30 36 29 C 41 25 46 25 51 29 z" fill="black"/><!-- width=96 height=158 -->
<path id="gl31763" d="M 4 7 C 3 8 4 25 6 26 C 7 27 24 27 47 27 C 93 26 92 26 92 16 C 92 7 93 7 47 7 C 24 7 4 7 4 7 z" fill="black"/><!-- width=103 height=40 -->
<path id="gl32529" d="M 43 6 C 43 6 40 9 37 13 C 34 20 29 24 20 25 C 7 28 3 31 6 40 C 7 45 12 47 23 46 C 37 45 36 42 36 94 C 36 107 35 122 35 135 C 36 136 37 136 37 138 C 41 141 57 141 59 138 C 63 135 63 9 59 6 C 57 3 47 3 43 6 z" fill="black"/><!-- width=74 height=150 -->
<path id="gl32530" d="M 25 8 C 8 16 7 20 7 76 C 7 126 7 130 17 138 C 30 148 59 146 70 135 C 77 126 79 123 79 74 C 79 60 79 45 79 31 C 77 28 76 26 75 23 C 70 11 60 7 42 7 C 35 7 30 7 25 8 M 46 27 C 53 31 53 35 53 76 C 53 118 52 120 46 123 C 41 125 37 124 33 119 C 32 118 31 116 30 115 C 31 101 31 89 31 75 C 31 61 31 47 31 33 C 32 32 33 31 35 30 C 40 26 41 26 46 27 z" fill="black"/><!-- width=91 height=156 -->
<path id="gl31765" d="M 28 7 C 21 10 13 17 11 25 C 8 35 8 115 11 124 C 15 138 26 144 45 144 C 65 144 77 135 80 118 C 82 106 82 36 80 27 C 75 10 52 0 28 7 M 51 28 C 56 33 56 36 56 75 C 56 118 55 120 47 121 C 42 123 40 123 36 119 C 36 118 35 116 33 115 C 33 103 33 90 33 76 C 33 36 33 31 38 28 C 42 26 49 26 51 28 z" fill="black"/><!-- width=95 height=157 -->
<path id="gl32531" d="M 27 7 C 19 10 13 16 10 24 C 8 31 8 118 10 126 C 16 141 33 149 54 144 C 71 140 78 132 80 111 C 82 95 83 93 88 94 C 92 95 94 90 93 83 C 93 76 90 75 88 77 C 83 81 82 76 81 52 C 81 23 77 15 64 9 C 55 4 36 3 27 7 M 49 27 C 55 32 56 33 56 75 C 56 111 55 113 54 117 C 48 124 40 126 35 118 C 32 115 32 112 32 75 C 32 47 33 33 33 32 C 37 26 44 24 49 27 z" fill="black"/><!-- width=101 height=156 -->
<path id="gl31763" d="M 4 7 C 3 8 4 25 6 26 C 7 27 24 27 47 27 C 93 26 92 26 92 16 C 92 7 93 7 47 7 C 24 7 4 7 4 7 z" fill="black"/><!-- width=103 height=40 -->
<path id="gl32529" d="M 43 6 C 43 6 40 9 37 13 C 34 20 29 24 20 25 C 7 28 3 31 6 40 C 7 45 12 47 23 46 C 37 45 36 42 36 94 C 36 107 35 122 35 135 C 36 136 37 136 37 138 C 41 141 57 141 59 138 C 63 135 63 9 59 6 C 57 3 47 3 43 6 z" fill="black"/><!-- width=74 height=150 -->
<path id="gl31765" d="M 28 7 C 21 10 13 17 11 25 C 8 35 8 115 11 124 C 15 138 26 144 45 144 C 65 144 77 135 80 118 C 82 106 82 36 80 27 C 75 10 52 0 28 7 M 51 28 C 56 33 56 36 56 75 C 56 118 55 120 47 121 C 42 123 40 123 36 119 C 36 118 35 116 33 115 C 33 103 33 90 33 76 C 33 36 33 31 38 28 C 42 26 49 26 51 28 z" fill="black"/><!-- width=95 height=157 -->
<path id="gl32530" d="M 25 8 C 8 16 7 20 7 76 C 7 126 7 130 17 138 C 30 148 59 146 70 135 C 77 126 79 123 79 74 C 79 60 79 45 79 31 C 77 28 76 26 75 23 C 70 11 60 7 42 7 C 35 7 30 7 25 8 M 46 27 C 53 31 53 35 53 76 C 53 118 52 120 46 123 C 41 125 37 124 33 119 C 32 118 31 116 30 115 C 31 101 31 89 31 75 C 31 61 31 47 31 33 C 32 32 33 31 35 30 C 40 26 41 26 46 27 z" fill="black"/><!-- width=91 height=156 -->
<path id="gl32768" d="M 2186 3 C 2185 4 2085 6 1094 6 C 105 6 3 6 2 7 C 0 9 1 14 3 16 C 4 18 354 18 1304 18 C 2456 19 2602 19 2605 20 C 2607 22 2635 22 2637 20 C 2638 18 3663 18 3666 20 C 3667 22 3686 22 3687 20 C 3690 18 3706 18 3709 20 C 3710 21 3710 21 3711 20 C 3715 18 3822 18 3823 20 C 3825 22 3907 22 3909 20 C 3910 19 3915 19 3948 19 C 3980 19 3985 19 3986 20 C 3988 22 3998 22 3999 20 C 4002 18 4009 18 4010 20 C 4012 21 4012 21 4014 20 C 4017 18 4172 18 4173 20 C 4176 22 4195 22 4197 20 C 4198 18 4230 18 4232 20 C 4233 22 4252 22 4254 20 C 4256 18 4282 18 4285 20 C 4287 22 4296 22 4297 20 C 4299 18 4306 18 4309 20 C 4311 22 4464 22 4465 20 C 4467 18 4474 18 4477 20 C 4479 22 4550 22 4552 20 C 4554 18 5108 18 5109 20 C 5112 22 5116 22 5119 20 C 5120 18 5223 18 5224 20 C 5227 22 5246 22 5248 20 C 5250 18 5343 18 5346 20 C 5348 22 5385 22 5386 20 C 5389 18 5391 18 5394 20 C 5396 22 5782 22 5785 20 C 5787 18 5824 18 5826 20 C 5826 21 5827 21 5828 20 C 5833 18 6217 18 6218 20 C 6220 22 6229 22 6231 20 C 6234 19 6391 19 7528 18 C 7959 18 8391 18 8822 18 C 8823 16 8824 15 8827 13 C 8830 8 8829 7 8821 6 C 8818 4 8815 4 8814 3 C 8812 1 8673 1 8672 3 C 8671 6 8659 6 8655 3 C 8654 2 8653 2 8653 3 C 8652 6 8619 6 8618 3 C 8616 1 8596 1 8594 3 C 8593 6 8566 6 8564 3 C 8563 2 8563 2 8562 3 C 8558 6 8403 6 8401 3 C 8400 1 8395 1 8394 3 C 8391 6 8250 6 8248 3 C 8246 1 8222 1 8220 3 C 8218 6 8211 6 8209 3 C 8208 1 8198 1 8196 3 C 8194 6 8178 6 8176 3 C 8174 2 8174 2 8172 3 C 8169 6 8106 6 8104 3 C 8102 1 8094 1 8091 3 C 8088 6 7051 6 7048 3 C 7045 1 7023 1 7020 3 C 7017 7 2198 7 2196 3 C 2192 1 2188 1 2186 3 z" fill="black"/><!-- width=8838 height=30 -->
<path id="gl32769" d="M 4 6 C 3 7 2 8 2 9 C 3 10 4 12 6 13 C 7 14 8 15 9 16 C 24 16 38 16 52 16 C 90 16 96 16 98 15 C 99 13 102 13 104 15 C 106 16 123 16 247 16 C 1412 16 4351 19 4352 20 C 4353 20 4354 20 4356 20 C 4358 18 5382 18 5384 19 C 5385 21 5391 21 5392 20 C 5394 18 5402 18 5403 20 C 5404 21 5406 21 5407 20 C 5408 18 5508 18 5509 20 C 5510 21 5516 21 5517 20 C 5518 18 5551 18 5552 20 C 5553 21 5559 21 5560 20 C 5562 18 5604 18 5605 20 C 5606 21 5612 21 5613 20 C 5614 18 5632 18 5634 20 C 5635 20 5636 20 5637 20 C 5638 19 6067 19 7234 18 C 8112 18 8832 16 8833 16 C 8836 14 8836 9 8832 6 C 8830 4 8828 3 8827 1 C 8782 2 8738 2 8694 2 C 8580 2 8559 2 8557 3 C 8554 6 8553 6 8550 3 C 8545 1 8468 1 8466 3 C 8464 6 8457 6 8455 3 C 8452 1 8434 1 8432 3 C 8431 6 8422 6 8421 3 C 8419 1 8396 1 8395 3 C 8392 6 8376 6 8373 3 C 8372 3 8371 3 8370 4 C 8367 6 8366 6 8364 4 C 8360 2 8338 2 8337 3 C 8334 6 8326 6 8325 3 C 8324 1 8310 1 8307 3 C 8306 6 8288 6 8287 3 C 8284 1 8182 1 8178 4 C 8175 6 8174 6 8173 4 C 8169 2 8155 2 8154 4 C 8152 6 8136 6 8132 3 C 8127 1 8122 1 8121 3 C 8119 6 8112 6 8109 3 C 8108 1 8017 1 8014 3 C 8012 6 7981 6 7980 3 C 7978 1 7974 1 7971 3 C 7970 6 7928 6 7927 3 C 7926 1 7916 2 7914 4 C 7912 6 7578 6 7576 3 C 7575 2 7574 2 7573 3 C 7572 6 7554 6 7552 4 C 7551 2 7545 2 7544 4 C 7543 6 7530 6 7528 3 C 7527 2 7526 2 7525 3 C 7524 6 7506 6 7504 4 C 7503 2 7492 2 7491 4 C 7490 6 7448 6 7447 3 C 7446 2 7444 2 7443 3 C 7442 6 7430 6 7426 3 C 7420 1 7346 1 7342 4 C 7340 6 7339 6 7338 4 C 7333 2 7273 1 7270 3 C 7269 6 7261 6 7260 3 C 7257 1 6975 1 6973 3 C 6972 6 6963 6 6962 3 C 6960 2 6802 2 6800 4 C 6799 6 6709 6 6708 4 C 6706 2 6691 2 6690 4 C 6688 6 5898 6 5896 4 C 5895 2 5889 2 5888 4 C 5887 6 5874 6 5872 4 C 5871 2 5851 2 5850 4 C 5848 6 5835 6 5834 4 C 5833 2 5827 2 5826 4 C 5824 6 5773 6 5772 4 C 5770 2 5750 2 5749 4 C 5748 6 5691 6 5690 4 C 5689 2 5683 2 5682 4 C 5680 6 5658 6 5656 4 C 5655 2 5640 2 5638 4 C 5637 6 5520 6 5516 3 C 5511 1 5506 1 5504 3 C 5503 6 5350 6 5349 4 C 5348 2 5337 2 5336 4 C 5335 6 5317 6 5316 4 C 5314 2 5296 1 5294 3 C 5290 6 5278 6 5276 3 C 5275 1 5268 2 5263 4 C 5262 6 5260 6 5258 4 C 5257 3 5256 3 5254 3 C 5253 6 5211 6 5210 3 C 5208 2 5074 1 5072 3 C 5071 6 5014 6 5013 4 C 5012 2 5001 2 5000 4 C 4999 6 4510 6 4509 4 C 4508 2 4502 2 4501 4 C 4500 6 4491 6 4490 3 C 4489 2 4488 2 4486 3 C 4485 6 4482 6 4479 3 C 4478 1 4450 2 4448 4 C 4447 6 4410 6 4408 4 C 4406 2 4381 1 4377 3 C 4374 6 4357 6 4356 4 C 4354 2 4348 2 4347 4 C 4346 6 4339 6 4335 3 C 4333 1 4320 2 4318 4 C 4317 6 4227 6 4226 4 C 4225 3 4206 2 4180 2 C 4137 2 4135 2 4131 3 C 4128 6 4123 6 4119 3 C 4117 1 4090 1 4088 3 C 4087 6 4078 6 4077 3 C 4075 1 3838 1 3834 3 C 3831 6 3830 6 3828 4 C 3824 2 3750 2 3747 3 C 3746 6 3728 6 3727 4 C 3726 2 3720 2 3718 4 C 3717 6 3498 6 3496 3 C 3495 2 3494 2 3493 3 C 3492 6 3474 6 3472 4 C 3471 2 3465 2 3464 4 C 3463 6 3454 6 3453 3 C 3451 2 3436 1 3432 3 C 3428 6 3411 6 3410 3 C 3408 2 3392 2 3388 3 C 3385 6 3373 6 3372 4 C 3370 2 3345 2 3344 4 C 3343 6 3325 6 3324 3 C 3321 1 3236 1 3234 3 C 3231 6 3224 6 3223 3 C 3220 2 3177 2 3176 4 C 3175 6 3151 6 3150 3 C 3150 2 3148 2 3147 3 C 3146 6 3132 6 3130 4 C 3130 2 3111 1 3109 3 C 3106 6 3104 6 3103 3 C 3100 1 3082 1 3080 3 C 3079 6 3070 6 3069 3 C 3068 2 3067 2 3066 3 C 3064 6 3056 6 3054 3 C 3052 1 3048 1 3046 3 C 3045 6 3037 6 3036 3 C 3033 1 3010 2 3008 3 C 3007 6 3001 6 3001 4 C 3001 3 2998 2 2995 2 C 2991 2 2988 3 2988 4 C 2988 6 2941 6 2940 4 C 2938 2 2932 2 2931 4 C 2930 6 2922 6 2919 3 C 2918 2 2913 2 2912 4 C 2911 6 2782 6 2781 4 C 2780 2 2769 2 2768 4 C 2767 6 2754 6 2752 4 C 2751 2 2721 2 2720 4 C 2719 6 2667 6 2666 4 C 2665 2 2637 2 2637 4 C 2637 6 2629 6 2628 4 C 2626 2 2620 2 2619 4 C 2618 6 2610 6 2608 3 C 2606 1 2456 1 2456 3 C 2455 6 2452 6 2449 3 C 2444 1 1940 1 1938 3 C 1936 6 1932 6 1930 3 C 1930 1 1828 1 1824 3 C 1819 6 1810 6 1806 3 C 1801 1 1795 1 1794 3 C 1792 6 1764 6 1762 3 C 1762 2 1761 2 1760 3 C 1759 6 1740 6 1738 3 C 1738 1 1688 1 1688 3 C 1687 6 1568 6 1566 3 C 1564 1 1546 1 1544 3 C 1542 6 1538 6 1537 3 C 1537 2 1503 2 1501 3 C 1500 6 1492 6 1488 3 C 1484 1 1429 1 1429 4 C 1428 6 1414 6 1412 3 C 1411 1 1084 1 1083 3 C 1082 6 1076 6 1076 4 C 1076 3 1076 2 1075 2 C 1074 2 1074 3 1074 4 C 1074 6 1064 6 1063 3 C 1060 2 999 1 535 1 C 360 1 183 1 8 1 C 7 3 6 4 4 6 z" fill="black"/><!-- width=8842 height=30 -->
<path id="gl32770" d="M 13 3 C 12 4 9 6 7 6 C 1 7 1 9 6 14 C 7 15 8 16 9 18 C 387 18 765 18 1143 18 C 1890 18 2277 19 2278 20 C 2280 21 2286 21 2286 20 C 2286 19 2295 19 2311 19 C 2326 19 2336 19 2336 20 C 2336 20 2338 20 2342 20 C 2346 20 2348 20 2348 20 C 2348 18 2364 18 2365 20 C 2367 21 2395 22 2397 20 C 2398 18 2444 18 2446 19 C 2449 21 2498 22 2502 20 C 2506 18 2508 18 2509 20 C 2509 22 2554 22 2554 20 C 2556 18 2613 18 2614 20 C 2614 21 2631 21 2631 20 C 2632 18 2643 18 2643 19 C 2643 21 2656 22 2660 20 C 2665 18 3639 18 3642 20 C 3643 21 3644 21 3644 20 C 3645 18 3655 18 3656 20 C 3657 21 3673 21 3673 20 C 3673 19 3678 19 3684 19 C 3690 19 3693 19 3693 20 C 3693 20 3697 20 3700 20 C 3704 20 3708 20 3708 20 C 3708 18 3722 18 3723 20 C 3724 21 3756 21 3756 20 C 3756 18 3770 18 3771 20 C 3772 21 3780 21 3780 20 C 3780 18 3818 18 3819 20 C 3819 22 3846 22 3846 20 C 3847 18 3866 18 3867 20 C 3867 21 3894 21 3894 20 C 3895 18 3975 18 3978 19 C 3980 21 4027 22 4029 20 C 4030 18 4154 18 4155 20 C 4155 22 4176 22 4177 20 C 4179 18 4202 18 4203 20 C 4203 22 4238 22 4240 20 C 4242 18 4269 18 4269 20 C 4269 21 4302 21 4303 20 C 4304 18 4332 18 4333 20 C 4333 22 4346 22 4350 20 C 4353 18 4360 18 4362 20 C 4362 21 4424 22 4426 20 C 4429 18 4437 18 4438 20 C 4438 21 4449 21 4452 20 C 4454 18 4514 18 4515 20 C 4515 21 4516 21 4518 20 C 4521 18 5200 18 5202 20 C 5203 21 5215 21 5215 20 C 5215 18 5234 18 5235 20 C 5236 21 5242 21 5244 20 C 5245 18 5349 18 5350 20 C 5352 21 5359 21 5359 20 C 5359 18 5368 18 5370 20 C 5372 21 5406 21 5406 20 C 5407 18 5426 18 5427 20 C 5430 21 5468 22 5468 20 C 5469 18 5479 18 5480 20 C 5482 21 5636 22 5636 20 C 5637 18 5656 18 5658 20 C 5660 21 5660 21 5660 20 C 5661 18 5680 18 5682 20 C 5683 21 5714 21 5714 20 C 5714 18 5762 18 5763 20 C 5764 21 5770 21 5770 20 C 5770 19 5847 19 5997 19 C 6147 19 6224 19 6224 20 C 6224 21 6236 21 6237 20 C 6237 19 6734 18 7532 18 C 7964 18 8396 18 8828 16 C 8829 16 8830 15 8832 14 C 8835 9 8835 9 8832 4 C 8830 3 8829 2 8828 1 C 8660 2 8493 2 8326 2 C 7927 2 7824 2 7822 3 C 7820 6 7742 6 7738 3 C 7735 1 7717 1 7717 3 C 7716 6 7698 6 7696 4 C 7695 2 7684 2 7683 4 C 7682 6 7582 6 7581 3 C 7579 1 6663 1 6661 3 C 6660 6 6200 6 6199 4 C 6198 2 6182 2 6181 4 C 6180 6 5876 6 5876 4 C 5876 2 5812 2 5811 4 C 5810 6 5800 6 5799 3 C 5799 2 5798 2 5798 3 C 5794 6 5707 6 5703 3 C 5701 1 5678 2 5677 4 C 5676 6 5660 6 5660 4 C 5660 2 5654 2 5653 4 C 5652 6 5637 6 5636 3 C 5636 2 5636 2 5634 3 C 5632 6 5575 6 5575 4 C 5575 2 5553 2 5552 4 C 5551 6 5516 6 5516 4 C 5516 2 5500 1 5496 3 C 5492 6 5458 6 5458 4 C 5458 3 5456 2 5454 2 C 5450 2 5446 3 5446 4 C 5445 6 5360 6 5359 3 C 5356 2 5346 2 5346 3 C 5344 6 5330 6 5330 4 C 5330 2 5323 2 5322 4 C 5320 6 5311 6 5311 4 C 5311 2 5299 2 5298 4 C 5296 6 5287 6 5287 4 C 5287 2 5275 2 5274 4 C 5272 6 5247 6 5247 4 C 5247 2 5241 2 5240 4 C 5239 6 5191 6 5190 3 C 5190 2 5163 2 5163 3 C 5162 4 5088 4 4792 4 C 4497 4 4423 4 4422 3 C 4422 2 4422 2 4419 3 C 4418 6 4398 6 4398 4 C 4398 2 4392 2 4390 4 C 4389 6 4279 6 4279 4 C 4279 3 4276 2 4274 2 C 4272 2 4269 3 4269 4 C 4269 6 4126 6 4125 3 C 4123 2 4107 2 4107 4 C 4106 6 4096 6 4096 4 C 4096 3 4094 2 4092 2 C 4089 2 4088 3 4088 4 C 4088 6 4030 6 4029 4 C 4028 2 4012 2 4011 4 C 4010 6 3991 6 3990 3 C 3990 1 3946 1 3944 3 C 3943 6 2608 6 2608 4 C 2608 2 2590 2 2589 4 C 2589 6 2440 6 2439 3 C 2438 1 2366 1 2364 3 C 2362 6 2354 6 2353 3 C 2353 1 2331 1 2331 3 C 2330 6 2305 6 2305 4 C 2305 3 2304 2 2301 2 C 2299 2 2296 3 2296 4 C 2296 6 2292 6 2290 3 C 2290 1 2106 1 2106 3 C 2104 6 2090 6 2089 3 C 2089 1 2060 1 2058 3 C 2055 6 2047 6 2047 4 C 2047 3 2046 2 2044 2 C 2043 2 2043 3 2043 4 C 2043 6 2010 6 2007 3 C 2006 1 1990 1 1990 3 C 1989 6 1431 6 1431 4 C 1431 3 1431 2 1430 2 C 1429 2 1429 3 1429 4 C 1429 4 1423 4 1413 4 C 1404 4 1399 4 1399 4 C 1399 3 1395 2 1392 2 C 1388 2 1386 3 1386 4 C 1386 6 1368 6 1364 3 C 1360 1 1320 1 1318 4 C 1316 6 1233 6 1231 3 C 1227 1 1224 1 1221 3 C 1220 6 1170 6 1168 3 C 1167 2 1164 1 1159 1 C 1154 1 1150 2 1149 3 C 1148 6 1090 6 1086 3 C 1084 2 1083 2 1083 3 C 1082 6 1045 6 1044 3 C 1041 1 1014 1 1011 3 C 1009 6 954 6 952 3 C 950 1 940 1 939 3 C 937 6 919 6 918 4 C 918 2 829 2 829 3 C 828 6 823 6 822 3 C 822 1 747 1 747 3 C 746 6 738 6 735 3 C 734 1 662 1 661 3 C 660 6 644 6 644 4 C 644 2 603 2 602 4 C 602 6 547 6 544 3 C 541 1 526 1 526 3 C 525 6 506 6 505 3 C 505 2 469 2 469 3 C 468 6 429 6 428 3 C 428 1 234 2 234 3 C 232 6 228 6 226 3 C 226 1 216 1 214 3 C 212 6 199 6 198 3 C 198 1 130 1 128 3 C 126 6 112 6 111 3 C 111 2 94 2 94 3 C 93 6 88 6 87 4 C 87 2 75 2 75 3 C 74 6 32 6 31 3 C 28 1 14 1 13 3 z" fill="black"/><!-- width=8842 height=30 -->
<path id="gl32771" d="M 12 4 C 9 6 7 6 7 6 C 2 6 1 9 6 13 C 7 14 8 15 9 16 C 729 18 1450 18 2170 18 C 3511 18 4332 19 4333 20 C 4334 21 4354 21 4356 20 C 4357 18 5377 18 5379 19 C 5380 21 5391 21 5392 20 C 5394 18 5421 18 5422 20 C 5424 21 5430 21 5431 20 C 5432 18 5551 18 5552 20 C 5553 21 5574 21 5575 20 C 5576 18 5709 18 5710 20 C 5712 21 5718 21 5719 20 C 5719 19 6298 18 7275 18 C 8732 16 8833 16 8834 15 C 8836 12 8836 8 8832 4 C 8830 3 8829 2 8828 1 C 8660 1 8493 2 8326 2 C 7927 2 7824 2 7822 3 C 7821 6 7755 6 7754 4 C 7753 2 7732 2 7731 4 C 7730 6 7587 6 7586 3 C 7584 1 6678 1 6675 3 C 6674 6 6555 6 6554 4 C 6553 2 6547 2 6546 4 C 6544 6 6459 6 6458 4 C 6457 2 6451 2 6450 4 C 6448 6 6397 6 6396 3 C 6393 2 6332 2 6330 4 C 6328 6 6301 6 6300 4 C 6298 2 6278 2 6277 4 C 6276 6 6243 6 6242 3 C 6241 2 6240 2 6238 3 C 6237 6 6214 6 6213 3 C 6212 2 6211 2 6210 3 C 6208 6 6200 6 6199 4 C 6198 2 6174 2 6171 4 C 6169 6 6168 4 6164 3 C 6159 1 6153 2 6152 4 C 6151 6 5989 6 5988 4 C 5986 2 5961 2 5960 4 C 5959 6 5926 6 5925 4 C 5924 2 5740 2 5739 4 C 5738 6 5733 6 5732 3 C 5732 2 5626 2 5624 4 C 5623 6 5614 6 5613 3 C 5612 2 5611 2 5610 3 C 5608 6 5581 6 5580 3 C 5577 1 5546 2 5542 4 C 5540 6 5539 6 5536 4 C 5533 2 5479 2 5475 4 C 5473 6 5472 6 5469 4 C 5467 2 5462 2 5461 4 C 5460 6 5451 6 5450 3 C 5448 2 5415 2 5413 4 C 5412 6 5394 6 5392 4 C 5390 2 5377 2 5374 3 C 5373 6 5350 6 5349 4 C 5348 2 5332 2 5331 4 C 5330 6 5317 6 5316 4 C 5314 2 5300 2 5298 4 C 5295 6 5294 6 5292 4 C 5287 1 5065 1 5062 3 C 5061 6 5043 6 5042 4 C 5041 2 5030 2 5029 4 C 5028 6 5019 6 5018 4 C 5016 2 4964 1 4963 3 C 4960 6 4495 6 4494 3 C 4494 2 4398 2 4395 3 C 4394 6 4384 6 4384 4 C 4384 2 4372 2 4371 4 C 4370 6 4362 6 4360 3 C 4358 1 4234 1 4232 3 C 4231 6 4212 6 4212 4 C 4212 2 4200 2 4198 4 C 4197 6 4165 6 4164 3 C 4161 1 3678 1 3675 3 C 3674 6 3640 6 3640 4 C 3640 2 3594 1 3590 3 C 3586 6 3578 6 3578 4 C 3578 2 3566 2 3565 4 C 3564 6 3559 6 3558 3 C 3558 2 3556 2 3555 3 C 3554 6 3468 6 3466 3 C 3466 2 3337 2 3334 4 C 3333 6 3291 6 3290 3 C 3288 2 3001 1 2998 3 C 2997 6 2743 6 2743 4 C 2743 2 2702 2 2701 4 C 2700 6 2670 6 2670 4 C 2670 2 2649 2 2648 4 C 2647 6 2623 6 2622 3 C 2622 1 1886 1 1881 3 C 1876 6 1870 6 1868 3 C 1867 1 1851 1 1851 3 C 1850 6 1834 6 1834 4 C 1834 2 1828 2 1827 3 C 1825 6 1740 6 1740 4 C 1740 3 1738 2 1737 2 C 1736 2 1735 3 1735 4 C 1735 6 1611 6 1610 4 C 1609 2 1600 2 1600 4 C 1600 4 1594 4 1584 4 C 1573 4 1566 4 1566 4 C 1566 2 1555 2 1554 4 C 1552 6 1538 6 1538 4 C 1538 2 1526 2 1525 4 C 1524 6 1504 6 1503 3 C 1503 2 1353 2 758 2 C 18 1 14 1 12 4 z" fill="black"/><!-- width=8842 height=30 -->
<path id="gl33024" d="M 13 3 C 12 4 9 6 7 6 C 2 7 1 9 4 13 C 6 15 7 16 8 18 C 397 18 786 18 1175 18 C 1943 18 2341 19 2341 20 C 2343 21 2346 21 2346 20 C 2346 19 2356 19 2375 19 C 2394 19 2405 19 2405 20 C 2405 20 2405 20 2406 20 C 2408 20 2408 20 2408 20 C 2408 18 2446 18 2447 20 C 2450 21 2470 21 2470 19 C 2471 18 2496 18 2496 20 C 2496 20 2500 20 2505 20 C 2510 20 2513 20 2513 20 C 2513 19 2520 19 2531 19 C 2542 19 2548 19 2548 20 C 2548 21 2556 21 2558 20 C 2558 18 3639 18 3639 20 C 3640 21 3676 21 3676 20 C 3676 19 3678 19 3679 19 C 3681 19 3683 19 3683 20 C 3683 21 3723 21 3724 20 C 3725 18 3730 18 3731 20 C 3731 21 3784 21 3786 20 C 3787 18 3816 18 3817 20 C 3817 21 3894 21 3897 20 C 3898 18 3917 18 3917 20 C 3917 21 3934 21 3935 20 C 3936 18 3971 18 3971 20 C 3971 21 3977 21 3978 20 C 3980 18 3984 18 3986 20 C 3986 21 4053 21 4055 20 C 4056 18 4081 18 4082 20 C 4082 22 4099 21 4099 20 C 4100 18 4143 18 4144 20 C 4144 22 4540 22 4540 20 C 4542 18 4546 18 4548 20 C 4548 21 4572 21 4574 20 C 4575 18 4623 18 4625 20 C 4625 21 4626 21 4627 20 C 4628 18 4643 18 4643 20 C 4643 20 4645 20 4647 20 C 4650 20 4651 20 4651 20 C 4651 18 5017 18 5018 20 C 5018 21 5018 21 5021 20 C 5022 18 5080 18 5081 19 C 5081 21 5117 21 5117 20 C 5118 18 5142 18 5143 20 C 5143 21 5165 21 5165 20 C 5166 18 5178 18 5182 20 C 5185 22 5256 21 5256 19 C 5257 18 5268 18 5268 20 C 5268 21 5274 21 5275 20 C 5277 18 5285 18 5286 20 C 5288 21 5318 21 5319 20 C 5320 18 5325 18 5325 20 C 5325 21 5351 21 5352 20 C 5354 18 5367 18 5368 20 C 5370 22 5750 22 5751 20 C 5753 18 5757 18 5758 20 C 5761 22 5826 22 5828 20 C 5829 18 5868 18 5869 20 C 5869 22 5926 21 5929 20 C 5931 18 6063 18 6066 20 C 6067 22 6071 22 6073 20 C 6075 18 6084 18 6085 20 C 6085 21 6181 21 6183 20 C 6185 18 6199 18 6200 20 C 6203 21 6335 22 6337 20 C 6338 18 6348 18 6349 20 C 6349 21 6350 21 6352 20 C 6353 18 6398 18 6401 20 C 6403 21 6404 21 6404 20 C 6406 18 6426 18 6426 20 C 6426 21 6432 21 6433 20 C 6434 18 6454 18 6455 19 C 6455 21 6496 21 6496 20 C 6497 18 6588 18 6589 20 C 6591 21 6595 21 6597 20 C 6598 18 6737 18 6737 20 C 6737 21 6783 21 6784 20 C 6785 18 6790 18 6791 20 C 6792 21 6845 21 6846 20 C 6848 18 6882 18 6882 20 C 6882 21 6888 21 6890 20 C 6891 18 6910 18 6911 20 C 6911 21 6993 21 6995 19 C 6997 18 7029 18 7030 20 C 7031 21 7052 21 7053 20 C 7054 18 7059 18 7060 20 C 7060 21 7103 21 7106 20 C 7107 18 7112 18 7113 20 C 7113 22 7147 22 7149 20 C 7150 18 7165 18 7165 20 C 7165 21 7225 21 7226 20 C 7227 18 7232 18 7233 20 C 7234 22 7282 22 7284 20 C 7285 18 7294 18 7296 20 C 7296 21 7327 21 7327 20 C 7328 18 7333 18 7334 20 C 7334 21 7428 21 7428 20 C 7429 18 7441 18 7443 20 C 7446 21 7452 21 7452 19 C 7452 18 7490 18 7491 20 C 7493 21 7500 21 7500 20 C 7500 19 7595 19 7782 19 C 7969 19 8064 19 8064 20 C 8064 20 8065 20 8068 20 C 8070 20 8071 20 8071 20 C 8071 18 8106 18 8107 20 C 8107 21 8109 21 8110 20 C 8111 18 8128 18 8130 20 C 8133 21 8134 21 8134 20 C 8135 18 8153 18 8154 20 C 8155 21 8162 21 8163 20 C 8164 18 8182 18 8183 20 C 8184 21 8190 21 8192 20 C 8193 18 8271 18 8271 20 C 8271 21 8286 21 8288 20 C 8289 18 8326 18 8327 20 C 8328 21 8336 21 8336 20 C 8336 18 8465 18 8467 20 C 8468 21 8488 21 8489 20 C 8491 18 8513 18 8515 20 C 8516 21 8517 21 8518 20 C 8519 18 8529 18 8529 20 C 8529 21 8536 21 8537 20 C 8539 18 8545 18 8545 20 C 8545 20 8547 20 8551 20 C 8554 20 8558 20 8558 20 C 8558 18 8566 18 8567 20 C 8569 21 8587 21 8587 20 C 8587 18 8611 18 8612 20 C 8612 22 8710 22 8710 20 C 8712 18 8732 18 8732 20 C 8732 21 8743 21 8744 20 C 8745 18 8751 18 8751 20 C 8751 20 8757 20 8767 20 C 8776 20 8784 20 8784 20 C 8784 18 8797 18 8799 20 C 8799 21 8803 22 8817 22 C 8833 22 8834 22 8838 19 C 8842 15 8842 12 8840 7 C 8840 6 8806 6 8559 6 C 8346 4 8279 4 8278 3 C 8277 3 8276 2 8276 3 C 8274 4 8137 4 7783 6 C 7305 6 7291 6 7290 3 C 7287 1 7282 2 7280 4 C 7280 6 2678 6 2678 3 C 2677 2 2674 2 2673 4 C 2673 6 2351 6 2351 3 C 2350 2 2343 2 2341 3 C 2340 6 2287 6 2287 3 C 2287 3 2287 3 2286 3 C 2285 3 2284 3 2284 3 C 2284 6 2274 6 2273 3 C 2273 2 2257 1 2256 3 C 2254 6 2236 6 2235 3 C 2235 2 2194 2 2194 3 C 2193 6 2178 6 2177 3 C 2177 2 2169 2 2169 4 C 2169 4 2166 4 2164 4 C 2161 4 2158 4 2158 3 C 2158 3 2155 3 2152 3 C 2148 3 2144 3 2144 3 C 2144 6 2077 6 2076 3 C 2075 1 2062 1 2059 3 C 2057 6 2038 6 2038 4 C 2038 2 2028 1 2026 3 C 2023 6 1486 6 1486 3 C 1486 3 1485 3 1484 3 C 1483 3 1482 3 1482 3 C 1482 4 1479 4 1477 4 C 1473 4 1471 4 1471 3 C 1471 3 1471 3 1470 3 C 1468 3 1468 3 1468 3 C 1468 6 1454 6 1453 3 C 1450 2 1440 2 1440 4 C 1438 6 1400 6 1399 3 C 1399 2 1382 2 1382 3 C 1381 6 1352 6 1351 3 C 1351 2 1286 2 1286 3 C 1285 6 1270 6 1269 3 C 1268 2 1247 2 1247 3 C 1247 6 1237 6 1235 3 C 1235 2 1156 2 1156 3 C 1155 6 1116 6 1116 3 C 1116 3 1113 3 1109 3 C 1106 3 1103 3 1103 3 C 1103 6 1059 6 1058 3 C 1058 1 580 1 580 3 C 578 6 569 6 568 3 C 568 1 421 1 421 3 C 420 6 373 6 372 3 C 371 2 367 2 362 2 C 359 2 355 2 354 3 C 351 6 349 6 347 3 C 344 1 297 1 295 3 C 294 6 290 6 289 3 C 289 1 91 1 90 3 C 87 6 79 6 78 3 C 78 1 14 1 13 3 z" fill="black"/><!-- width=8848 height=28 -->
<path id="gl33025" d="M 470 1 C 423 2 408 2 406 3 C 405 6 400 6 399 3 C 399 2 394 2 381 2 C 368 2 363 2 363 3 C 362 6 357 6 356 3 C 356 1 178 1 176 3 C 174 6 162 6 159 3 C 158 1 81 1 80 3 C 79 6 75 6 74 3 C 72 1 63 1 61 3 C 60 6 50 6 49 4 C 49 2 38 2 37 3 C 34 6 27 6 25 3 C 22 1 14 1 13 3 C 12 4 9 6 7 6 C 2 7 1 9 6 14 C 7 15 8 16 10 18 C 418 18 828 18 1237 18 C 2082 18 2464 19 2464 20 C 2466 21 2482 21 2484 20 C 2484 18 4335 18 4338 20 C 4340 21 4340 21 4340 20 C 4341 18 4365 18 4366 20 C 4368 21 4369 21 4369 20 C 4370 19 4755 18 6112 18 C 8113 16 7886 16 7888 15 C 7890 13 7898 13 7899 15 C 7900 16 7921 16 7921 15 C 7921 13 7936 13 7938 15 C 7939 16 8029 16 8378 16 C 8524 16 8671 16 8817 16 C 8818 16 8820 15 8821 14 C 8826 9 8826 9 8822 4 C 8820 3 8818 2 8818 1 C 8430 1 8042 1 7654 1 C 6546 1 6456 2 6454 4 C 6453 6 6439 6 6438 3 C 6438 1 6260 1 6258 3 C 6256 6 6247 6 6246 3 C 6246 1 5991 1 5989 3 C 5988 6 5983 6 5982 3 C 5982 1 4945 1 4942 3 C 4941 6 4911 6 4911 4 C 4911 2 4905 2 4904 4 C 4903 6 4509 6 4508 4 C 4508 2 4422 2 4419 3 C 4418 6 4404 6 4402 3 C 4402 1 4249 1 4246 3 C 4244 6 4236 6 4236 4 C 4236 2 4224 2 4222 4 C 4221 6 4212 6 4212 4 C 4212 2 4185 2 4184 4 C 4183 6 4164 6 4162 3 C 4162 1 4107 1 4107 3 C 4106 6 4092 6 4090 3 C 4090 1 3694 1 3694 3 C 3693 6 3650 6 3649 3 C 3649 1 3625 1 3622 3 C 3620 6 3600 6 3596 3 C 3592 1 3586 1 3584 3 C 3582 6 3476 6 3476 4 C 3476 3 3471 2 3463 2 C 3454 2 3450 3 3450 4 C 3450 4 3440 4 3424 4 C 3409 4 3399 4 3399 4 C 3399 3 3396 2 3391 2 C 3386 2 3382 3 3382 4 C 3382 6 3285 6 3284 3 C 3284 2 3284 2 3282 3 C 3280 6 3266 6 3265 3 C 3265 2 3243 2 3243 3 C 3242 6 3218 6 3217 3 C 3217 1 3200 1 3196 3 C 3193 6 3181 6 3178 3 C 3176 2 3159 2 3157 3 C 3156 6 3135 6 3135 4 C 3135 2 3105 2 3104 4 C 3103 6 3098 6 3097 4 C 3097 2 3054 2 3051 3 C 3050 6 2973 6 2973 4 C 2973 3 2972 2 2971 2 C 2970 2 2968 3 2968 4 C 2968 6 2776 6 2775 4 C 2774 2 2760 2 2758 4 C 2757 6 2752 6 2751 4 C 2750 2 2707 2 2706 4 C 2704 6 2656 6 2655 3 C 2655 2 2654 2 2653 3 C 2652 6 2631 6 2631 4 C 2631 2 2616 2 2614 4 C 2613 6 2608 6 2607 3 C 2607 1 2538 1 2538 3 C 2536 6 2527 6 2527 4 C 2527 3 2521 2 2512 2 C 2504 2 2498 3 2498 4 C 2498 6 2431 6 2430 3 C 2430 1 2366 1 2365 3 C 2364 6 2287 6 2286 3 C 2286 1 2218 1 2216 3 C 2214 6 2206 6 2205 3 C 2203 1 2034 1 2034 3 C 2032 6 2008 6 2008 4 C 2008 3 2004 2 1999 2 C 1994 2 1990 3 1990 4 C 1990 4 1982 4 1970 4 C 1958 4 1950 4 1950 4 C 1950 3 1950 2 1948 2 C 1947 2 1947 3 1947 4 C 1947 6 1917 6 1916 3 C 1916 1 1900 1 1899 3 C 1898 6 1674 6 1672 3 C 1670 2 1659 2 1659 4 C 1658 6 1548 6 1546 3 C 1546 2 1546 2 1544 3 C 1543 6 1521 6 1518 3 C 1514 1 1508 1 1506 3 C 1503 6 1466 6 1466 4 C 1466 2 1449 2 1448 4 C 1447 6 1418 6 1417 3 C 1417 1 1314 1 1314 3 C 1312 6 1303 6 1302 3 C 1302 1 1256 2 1256 3 C 1255 6 1245 6 1244 3 C 1244 2 1239 2 1228 2 C 1218 2 1213 2 1213 3 C 1212 6 1207 6 1206 3 C 1206 2 1100 2 1098 3 C 1096 6 1068 6 1066 3 C 1066 2 1038 2 1035 3 C 1034 6 1024 6 1023 3 C 1023 2 999 2 997 3 C 996 6 976 6 975 3 C 974 1 769 1 766 3 C 765 6 756 6 754 3 C 754 2 733 2 650 2 C 594 2 543 1 538 1 C 535 1 504 1 470 1 z" fill="black"/><!-- width=8833 height=30 -->
<path id="gl33026" d="M 7 4 C 4 6 2 7 2 7 C 0 9 1 14 3 16 C 4 18 558 18 2718 18 C 4510 18 5431 19 5431 20 C 5432 21 5444 21 5445 19 C 5445 18 5565 18 5565 20 C 5566 21 5578 21 5580 20 C 5580 19 6115 19 7201 18 C 8092 18 8823 18 8826 18 C 8828 16 8829 15 8830 13 C 8830 8 8829 6 8821 6 C 8818 4 8815 4 8814 3 C 8812 1 8769 1 8768 3 C 8767 6 8749 6 8746 3 C 8745 1 8730 2 8730 4 C 8728 6 8715 6 8714 4 C 8712 2 8703 1 8701 3 C 8698 6 8612 6 8612 4 C 8612 3 8611 2 8608 2 C 8606 2 8605 3 8605 4 C 8605 6 8592 6 8588 3 C 8583 1 8572 2 8571 4 C 8570 6 8559 6 8559 4 C 8559 2 8553 2 8552 4 C 8551 6 8541 6 8540 3 C 8540 2 8497 2 8494 3 C 8492 6 8448 6 8444 3 C 8440 1 8422 1 8422 3 C 8421 6 8322 6 8320 4 C 8319 2 8311 2 8311 4 C 8311 6 8268 6 8266 3 C 8266 2 8244 2 8240 4 C 8238 6 8236 6 8234 4 C 8229 2 8202 1 8197 3 C 8194 6 8193 6 8190 3 C 8185 1 8173 1 8173 4 C 8172 6 8102 6 8098 3 C 8097 1 8067 2 8067 4 C 8067 4 8060 4 8052 4 C 8042 4 8037 4 8037 4 C 8037 2 8025 2 8024 4 C 8023 6 8005 6 8004 4 C 8002 2 7996 2 7995 4 C 7994 6 7420 6 7417 3 C 7413 1 7390 2 7390 3 C 7389 6 7346 6 7345 3 C 7345 2 7287 2 7285 4 C 7284 6 7269 6 7268 3 C 7268 1 6822 1 6819 3 C 6818 6 6183 6 6183 4 C 6183 2 6177 2 6176 4 C 6175 6 6109 6 6108 4 C 6106 2 6098 2 6098 4 C 6098 4 6060 4 5983 4 C 5906 4 5868 4 5868 4 C 5868 3 5864 2 5860 2 C 5857 2 5854 3 5854 4 C 5854 4 5848 4 5841 4 C 5834 4 5828 4 5828 4 C 5828 2 5779 2 5778 4 C 5776 6 5767 6 5767 4 C 5767 2 5750 2 5749 4 C 5748 6 5689 6 5689 4 C 5689 2 5683 2 5682 4 C 5680 6 5676 6 5676 4 C 5676 2 5664 2 5662 4 C 5661 6 5517 6 5516 3 C 5516 1 5491 1 5488 4 C 5487 6 5466 6 5463 3 C 5463 2 5462 2 5461 3 C 5458 6 5407 6 5406 3 C 5406 2 5406 2 5403 3 C 5402 6 5395 6 5391 3 C 5390 2 5389 2 5389 3 C 5388 6 5355 6 5354 3 C 5352 1 5332 1 5331 3 C 5330 6 5288 6 5287 4 C 5286 2 5277 2 5277 4 C 5277 4 5276 4 5275 4 C 5274 4 5272 4 5272 4 C 5272 3 5271 2 5270 2 C 5269 2 5269 3 5269 4 C 5269 6 5216 6 5215 4 C 5214 2 5197 2 5197 4 C 5197 6 5182 6 5181 3 C 5179 1 5126 1 5125 3 C 5124 6 5114 6 5113 4 C 5113 2 5060 2 5058 3 C 5055 6 5010 6 5008 3 C 5006 2 4998 2 4995 4 C 4994 6 4548 6 4548 4 C 4548 2 4531 2 4530 4 C 4528 6 4480 6 4480 4 C 4480 3 4473 2 4464 2 C 4454 2 4448 3 4448 4 C 4448 6 4429 6 4428 3 C 4425 1 4383 1 4381 3 C 4378 6 4363 6 4359 3 C 4358 1 4348 2 4347 4 C 4346 6 4317 6 4316 3 C 4316 2 4232 2 4232 3 C 4231 6 4210 6 4210 4 C 4210 2 4204 2 4203 4 C 4202 6 4188 6 4186 3 C 4184 1 3841 1 3838 3 C 3837 6 3823 6 3822 3 C 3822 2 3750 2 3747 3 C 3746 6 3730 6 3730 4 C 3730 3 3728 2 3724 2 C 3721 2 3717 3 3717 4 C 3717 6 3468 6 3466 3 C 3466 2 3450 2 3450 3 C 3448 6 3433 6 3433 4 C 3433 3 3433 2 3432 2 C 3430 2 3430 3 3430 4 C 3430 4 3424 4 3417 4 C 3410 4 3404 4 3404 4 C 3404 3 3402 2 3398 2 C 3394 2 3391 3 3391 4 C 3391 4 3386 4 3376 4 C 3367 4 3361 4 3361 4 C 3361 3 3357 2 3350 2 C 3343 2 3339 3 3339 4 C 3339 6 3272 6 3271 4 C 3268 2 3243 2 3243 3 C 3242 6 3208 6 3208 4 C 3208 2 3201 2 3200 4 C 3199 6 3168 6 3164 3 C 3160 1 3126 1 3123 3 C 3121 6 3109 6 3108 3 C 3105 1 3091 1 3088 3 C 3087 6 3027 6 3025 3 C 3024 3 3024 3 3022 3 C 3021 6 3006 6 3006 4 C 3006 3 3003 2 3000 2 C 2996 2 2992 3 2992 4 C 2992 6 2954 6 2953 3 C 2953 1 2936 1 2936 3 C 2935 6 2910 6 2910 4 C 2910 3 2907 2 2904 2 C 2900 2 2896 3 2896 4 C 2896 4 2877 4 2839 4 C 2800 4 2781 4 2781 4 C 2781 2 2764 2 2763 4 C 2762 6 2695 6 2694 4 C 2692 2 2664 2 2662 4 C 2661 6 2647 6 2646 4 C 2643 2 2583 2 2581 3 C 2578 6 2570 6 2569 3 C 2568 1 1827 1 1827 3 C 1826 6 1744 6 1744 4 C 1744 3 1742 2 1740 2 C 1737 2 1736 3 1736 4 C 1736 6 1552 6 1551 3 C 1551 1 1525 1 1525 3 C 1524 6 1514 6 1514 4 C 1514 3 1512 2 1509 2 C 1507 2 1506 3 1506 4 C 1506 6 1500 6 1497 3 C 1496 2 1356 2 752 2 C 9 1 9 1 7 4 z" fill="black"/><!-- width=8838 height=30 -->
<path id="gl33280" d="M 6900 2 C 6898 3 6897 3 6896 4 C 6894 6 6881 6 6880 3 C 6879 2 6873 2 6872 3 C 6872 6 5297 6 5295 3 C 5292 2 5292 2 5292 3 C 5291 6 5177 6 5175 3 C 5173 2 5172 2 5172 3 C 5171 6 892 6 889 4 C 888 2 867 2 867 3 C 867 6 833 6 832 3 C 831 3 829 3 829 3 C 828 6 775 6 774 3 C 773 2 762 2 761 4 C 761 6 367 6 367 3 C 366 2 359 2 359 3 C 359 4 353 4 345 4 C 338 4 332 4 332 3 C 332 3 331 3 329 3 C 326 3 324 3 324 3 C 324 4 314 4 295 4 C 276 4 265 4 265 3 C 265 3 263 3 259 3 C 255 3 252 3 252 3 C 252 4 208 6 129 6 C -2 6 2 6 2 12 C 2 18 0 18 102 18 C 175 19 199 19 200 20 C 201 22 214 22 217 20 C 219 18 252 18 252 20 C 252 20 254 20 257 20 C 259 20 260 20 260 20 C 260 19 283 19 324 19 C 365 19 386 19 386 20 C 386 20 387 20 389 20 C 390 20 391 20 391 20 C 391 18 399 18 402 20 C 403 22 408 22 410 20 C 411 18 541 18 541 20 C 541 20 545 20 550 20 C 554 20 558 20 558 20 C 558 18 578 18 580 20 C 580 21 685 21 688 20 C 689 18 694 18 695 20 C 697 21 839 21 841 20 C 843 18 900 18 901 20 C 903 21 919 21 919 20 C 919 18 976 18 977 20 C 978 21 987 21 987 20 C 987 19 1001 19 1028 19 C 1054 19 1068 19 1068 20 C 1068 20 1073 20 1078 20 C 1083 20 1086 20 1086 20 C 1086 19 1089 19 1092 19 C 1095 19 1097 19 1097 20 C 1097 20 1100 20 1102 20 C 1104 20 1106 20 1106 20 C 1106 19 1108 19 1112 19 C 1114 19 1116 19 1116 20 C 1116 20 1118 20 1119 20 C 1120 20 1121 20 1121 20 C 1121 18 1261 18 1262 20 C 1262 21 1291 21 1293 20 C 1294 18 1323 18 1324 20 C 1324 21 1325 21 1327 20 C 1328 18 1342 18 1342 19 C 1342 21 1363 22 1365 20 C 1367 18 1395 18 1396 19 C 1396 21 1459 21 1461 20 C 1462 18 2016 18 2016 20 C 2016 20 2017 20 2020 20 C 2022 20 2024 20 2024 20 C 2024 19 2036 19 2060 19 C 2084 19 2096 19 2096 20 C 2096 20 2098 20 2099 20 C 2100 20 2101 20 2101 20 C 2101 18 2111 18 2112 20 C 2112 21 2112 21 2114 20 C 2116 18 2140 18 2140 20 C 2140 21 2152 21 2153 20 C 2154 18 2169 18 2170 20 C 2170 22 2179 22 2182 20 C 2184 18 2188 18 2189 20 C 2189 21 2201 21 2201 20 C 2202 18 2241 18 2242 20 C 2242 22 2722 22 2725 20 C 2726 18 2746 18 2746 20 C 2746 21 2757 21 2758 20 C 2759 18 2822 18 2822 20 C 2822 21 2848 21 2849 20 C 2851 18 3326 18 3327 20 C 3327 21 3364 21 3364 20 C 3365 18 3370 18 3370 20 C 3370 20 3372 20 3374 20 C 3377 20 3378 20 3378 20 C 3378 18 3600 18 3601 20 C 3601 21 3866 22 3868 20 C 3869 18 3879 18 3880 20 C 3880 21 3957 21 3959 20 C 3962 18 3987 18 3990 20 C 3994 22 4029 22 4031 20 C 4032 18 4047 18 4048 20 C 4048 21 4087 21 4089 20 C 4090 18 4095 18 4096 20 C 4096 21 4097 21 4099 20 C 4100 18 4106 18 4106 20 C 4106 20 4108 20 4112 20 C 4115 20 4119 20 4119 20 C 4119 18 4127 18 4129 19 C 4131 21 4139 22 4142 20 C 4144 18 4156 16 4161 19 C 4166 21 4283 22 4286 20 C 4287 18 4297 18 4298 20 C 4299 22 4476 22 4478 20 C 4480 18 4507 18 4509 20 C 4510 22 4533 22 4536 20 C 4537 18 5047 18 5047 20 C 5047 21 5062 21 5064 19 C 5067 18 5068 18 5070 20 C 5074 21 5091 21 5093 20 C 5094 18 5104 18 5104 20 C 5104 21 5121 21 5122 20 C 5123 18 5131 18 5133 20 C 5134 21 5149 21 5151 20 C 5152 18 5181 18 5182 20 C 5182 22 5220 22 5223 20 C 5224 18 5229 18 5230 20 C 5230 21 5312 21 5314 20 C 5315 18 5330 18 5330 20 C 5330 21 5337 21 5338 20 C 5339 18 5349 18 5350 20 C 5350 22 5677 22 5679 20 C 5680 18 5699 18 5701 20 C 5701 22 5751 22 5755 20 C 5758 18 5762 18 5763 20 C 5763 21 5787 21 5790 20 C 5791 18 5886 18 5887 20 C 5888 21 5899 21 5900 20 C 5901 18 5920 18 5920 20 C 5920 21 5937 21 5938 20 C 5940 18 6068 18 6069 20 C 6071 21 6091 21 6092 20 C 6093 18 6107 18 6108 20 C 6109 21 6110 21 6111 20 C 6113 18 6193 18 6194 20 C 6195 21 6197 21 6198 20 C 6199 18 6231 18 6233 20 C 6235 22 6272 21 6275 20 C 6276 18 6294 18 6295 20 C 6296 21 6302 21 6304 20 C 6305 18 6918 18 6920 20 C 6921 21 6927 21 6928 20 C 6930 18 7258 18 7261 20 C 7264 22 7269 22 7273 20 C 7276 18 7287 18 7291 20 C 7296 22 7310 22 7312 20 C 7315 18 7341 18 7342 20 C 7344 21 7369 21 7370 20 C 7371 18 8498 18 8500 19 C 8501 21 8507 21 8509 19 C 8510 19 8559 18 8674 18 C 8851 18 8842 18 8842 12 C 8842 8 8840 7 8835 6 C 8833 6 8830 4 8830 3 C 8829 1 8599 1 8596 3 C 8595 6 8572 6 8571 3 C 8569 2 8493 2 8491 3 C 8488 6 8453 6 8451 3 C 8449 2 8416 1 8414 3 C 8413 6 8390 6 8388 3 C 8387 2 8381 2 8380 3 C 8379 6 8351 6 8350 3 C 8348 2 8338 1 8333 3 C 8330 6 8279 6 8278 3 C 8277 2 8247 2 8246 3 C 8244 6 8207 6 8206 3 C 8205 2 8170 2 8169 3 C 8168 6 8116 6 8115 3 C 8112 2 8070 2 8068 3 C 8067 6 8025 6 8023 3 C 8022 2 8021 2 8020 3 C 8017 6 7220 6 7215 3 C 7212 2 7204 2 7203 4 C 7202 6 7189 6 7187 3 C 7186 2 7175 2 7174 3 C 7173 6 7112 6 7111 3 C 7109 2 7103 2 7102 3 C 7101 6 7093 6 7091 3 C 7089 2 7042 2 7041 3 C 7039 6 7030 6 7029 3 C 7027 2 7004 2 7001 3 C 7000 6 6973 6 6970 3 C 6970 2 6969 2 6969 3 C 6968 6 6953 6 6952 3 C 6951 2 6940 2 6939 3 C 6938 6 6910 6 6909 4 C 6908 3 6904 2 6900 2 z" fill="black"/><!-- width=8848 height=28 -->
<path id="gl33281" d="M 8767 1 C 8766 1 8577 2 8348 2 C 8015 2 7930 2 7930 3 C 7929 6 7924 6 7923 3 C 7920 2 7872 2 7872 3 C 7871 6 7861 6 7860 3 C 7858 2 7858 2 7858 3 C 7856 6 7842 6 7841 3 C 7840 2 7834 2 7834 3 C 7834 6 7818 6 7817 3 C 7814 2 7814 2 7814 3 C 7813 6 7593 6 7591 3 C 7589 2 7469 2 7469 3 C 7467 6 7440 6 7437 3 C 7435 1 6765 1 6762 3 C 6761 6 6737 6 6736 3 C 6735 2 6706 2 6705 3 C 6703 6 6660 6 6659 3 C 6658 2 6647 2 6647 3 C 6647 6 6607 6 6606 3 C 6605 3 6605 3 6604 3 C 6603 6 6247 6 6246 3 C 6245 2 6234 2 6234 3 C 6234 6 6209 6 6207 3 C 6206 2 6205 2 6205 3 C 6204 6 5955 6 5953 3 C 5952 3 5950 3 5950 3 C 5949 6 5887 6 5886 3 C 5886 3 5870 3 5842 3 C 5816 3 5800 3 5800 3 C 5800 4 5781 4 5745 4 C 5709 4 5689 4 5689 3 C 5687 2 5656 2 5656 3 C 5656 6 5517 6 5516 3 C 5514 2 5495 2 5494 3 C 5493 6 5453 6 5453 3 C 5453 3 5452 3 5450 3 C 5447 3 5445 3 5445 3 C 5445 6 5301 6 5300 3 C 5298 2 5283 2 5283 3 C 5283 6 5209 6 5208 3 C 5206 2 5115 2 5115 3 C 5113 6 4143 6 4143 3 C 4142 2 4133 2 4133 3 C 4133 6 4100 6 4099 3 C 4097 2 4091 2 4091 3 C 4091 6 4071 6 4070 3 C 4068 2 4062 2 4061 4 C 4061 6 3986 6 3983 3 C 3982 2 3971 2 3970 3 C 3970 6 2261 6 2259 4 C 2257 2 2243 2 2242 3 C 2241 6 1169 6 1169 3 C 1169 3 1168 3 1167 3 C 1166 3 1166 3 1166 3 C 1166 6 886 6 885 3 C 885 2 865 2 863 3 C 861 6 690 6 688 4 C 686 2 680 2 680 3 C 680 4 618 4 497 4 C 375 4 314 4 314 3 C 314 3 312 3 309 3 C 307 3 306 3 306 3 C 306 4 283 4 240 4 C 196 4 175 4 175 3 C 175 3 170 3 165 3 C 160 3 157 3 157 3 C 157 4 130 4 82 6 C 0 6 2 4 2 12 C 2 16 2 16 6 18 C 8 18 57 18 116 18 C 186 19 223 19 224 20 C 224 21 251 21 251 20 C 252 18 301 18 301 20 C 301 20 302 20 305 20 C 307 20 308 20 308 20 C 308 18 377 18 378 20 C 378 21 404 21 405 19 C 405 18 540 18 540 20 C 541 21 550 21 550 20 C 550 19 552 19 554 19 C 557 19 560 19 560 20 C 560 20 582 20 624 20 C 666 20 688 20 688 20 C 688 18 703 18 704 20 C 706 21 725 21 726 20 C 727 18 737 18 738 20 C 738 21 784 21 784 20 C 785 18 814 18 815 20 C 816 21 832 21 832 20 C 832 18 876 18 877 20 C 879 21 888 21 889 20 C 891 18 901 18 901 20 C 901 21 912 21 913 20 C 915 18 924 18 925 20 C 927 21 936 21 937 20 C 939 18 1252 18 1252 20 C 1252 20 1252 20 1253 20 C 1255 20 1255 20 1255 20 C 1255 19 1261 19 1270 19 C 1280 19 1286 19 1286 20 C 1286 20 1292 20 1301 20 C 1311 20 1318 20 1318 20 C 1318 18 1361 18 1363 20 C 1363 21 1468 21 1471 20 C 1472 18 1520 18 1521 20 C 1522 20 1524 20 1524 20 C 1525 18 1572 18 1575 20 C 1580 22 1580 22 1585 20 C 1588 18 2064 18 2064 20 C 2064 20 2065 20 2068 20 C 2070 20 2071 20 2071 20 C 2071 18 2106 18 2107 20 C 2107 21 2134 21 2134 20 C 2135 18 2160 18 2160 20 C 2160 20 2161 20 2164 20 C 2166 20 2167 20 2167 20 C 2167 19 2171 19 2173 19 C 2176 19 2178 19 2178 20 C 2178 20 2181 20 2183 20 C 2185 20 2187 20 2187 20 C 2187 18 2241 18 2242 20 C 2244 22 2746 22 2749 20 C 2750 18 2779 18 2780 19 C 2782 21 2825 21 2825 20 C 2827 18 3207 18 3207 20 C 3207 20 3210 20 3213 20 C 3217 20 3221 20 3221 20 C 3221 19 3236 19 3266 19 C 3296 19 3313 19 3313 20 C 3313 20 3313 20 3314 20 C 3315 20 3317 20 3317 20 C 3317 18 3605 18 3606 19 C 3606 21 3712 21 3714 20 C 3715 18 3720 18 3721 20 C 3724 22 3904 21 3906 20 C 3908 18 3933 18 3933 20 C 3933 21 3939 21 3940 20 C 3941 18 3980 18 3981 20 C 3981 22 4007 22 4007 20 C 4008 18 4019 18 4019 20 C 4019 20 4022 20 4025 20 C 4029 20 4032 20 4032 20 C 4032 19 4036 19 4042 19 C 4048 19 4052 19 4052 20 C 4052 21 4073 21 4074 20 C 4076 18 4210 18 4211 20 C 4211 21 4238 21 4238 20 C 4239 18 4273 18 4273 20 C 4273 21 4299 21 4300 20 C 4301 18 4311 18 4312 20 C 4312 21 4454 21 4454 20 C 4455 18 5195 18 5196 20 C 5196 22 5212 22 5215 20 C 5221 18 5384 18 5384 20 C 5384 21 5390 21 5391 20 C 5392 18 5408 18 5408 20 C 5408 21 5466 21 5468 20 C 5469 18 5483 18 5484 20 C 5487 21 5619 21 5621 20 C 5623 18 5651 18 5653 20 C 5654 21 5668 21 5669 20 C 5671 18 5728 18 5729 20 C 5731 20 5731 20 5732 20 C 5733 18 6079 18 6079 20 C 6079 21 6086 21 6087 20 C 6089 19 6609 18 7454 18 C 8206 18 8823 18 8827 16 C 8838 16 8840 10 8833 4 C 8832 3 8830 3 8829 2 C 8818 2 8809 1 8799 1 C 8782 1 8768 1 8767 1 z" fill="black"/><!-- width=8844 height=28 -->
<path id="gl33282" d="M 8778 4 C 8776 6 8389 6 5656 7 C 5060 7 4909 7 4909 8 C 4908 10 4898 10 4897 8 C 4897 6 4767 6 4765 8 C 4764 10 4735 10 4734 8 C 4732 7 4713 7 4712 8 C 4711 10 4605 10 4604 8 C 4603 7 4588 7 4587 8 C 4586 10 4528 10 4527 8 C 4526 8 4526 8 4525 8 C 4524 10 4500 10 4498 8 C 4496 6 4402 7 4400 8 C 4399 10 4394 10 4393 8 C 4390 6 3706 6 3704 8 C 3703 10 3684 10 3682 8 C 3681 7 3676 7 3675 8 C 3674 10 3639 10 3639 8 C 3639 7 3624 7 3622 8 C 3621 10 3612 10 3610 8 C 3609 7 3590 7 3589 8 C 3588 10 3513 10 3510 8 C 3508 6 3499 7 3498 9 C 3496 10 3487 10 3487 8 C 3487 7 3465 7 3464 8 C 3463 10 3420 10 3420 8 C 3420 7 3412 7 3411 8 C 3410 10 3391 10 3390 8 C 3388 7 3379 7 3378 8 C 3376 10 3348 10 3346 8 C 3345 7 3340 7 3339 8 C 3338 10 3328 10 3327 8 C 3326 7 3321 7 3320 8 C 3319 10 3241 10 3241 8 C 3241 8 3241 7 3240 7 C 3238 7 3238 8 3238 8 C 3238 10 3232 10 3231 8 C 3230 7 3225 7 3224 8 C 3223 10 3204 10 3202 8 C 3201 8 3201 8 3200 8 C 3199 10 3180 10 3178 8 C 3177 7 3168 7 3166 8 C 3165 10 3069 10 3068 8 C 3067 7 3057 7 3056 8 C 3055 10 2944 10 2943 8 C 2942 8 2942 8 2941 8 C 2940 10 2930 10 2929 8 C 2928 7 2923 7 2922 8 C 2920 10 2608 10 2607 8 C 2606 7 2601 7 2600 8 C 2599 10 2583 10 2583 8 C 2583 7 2529 7 2528 8 C 2527 10 2508 10 2506 8 C 2504 6 2479 7 2474 9 C 2469 12 2437 10 2434 8 C 2432 7 2358 7 2354 9 C 2350 12 2325 10 2324 8 C 2323 7 2304 7 2302 8 C 2301 10 2258 10 2257 8 C 2256 7 2239 7 2239 8 C 2239 10 2234 10 2233 8 C 2230 7 2127 7 2125 8 C 2124 10 2085 10 2084 8 C 2083 7 2073 7 2072 8 C 2071 10 2061 10 2060 8 C 2059 7 2011 7 2010 9 C 2007 10 1918 10 1916 8 C 1915 7 1896 7 1894 8 C 1893 10 1394 10 1393 8 C 1392 7 1377 7 1376 8 C 1375 10 1365 10 1364 8 C 1363 7 1339 7 1338 8 C 1336 10 1202 10 1201 8 C 1200 7 1190 7 1189 9 C 1186 10 976 10 976 8 C 975 7 973 7 972 9 C 972 10 891 10 889 8 C 888 7 859 7 858 9 C 855 10 843 10 841 9 C 840 7 835 7 834 8 C 832 10 828 10 826 8 C 825 7 801 7 800 9 C 798 10 608 10 606 9 C 604 7 571 7 570 9 C 567 10 525 10 525 9 C 524 7 522 7 520 8 C 520 10 304 10 304 9 C 303 7 301 7 300 9 C 300 10 243 10 241 8 C 240 8 240 8 238 8 C 237 10 194 10 194 8 C 194 7 187 7 186 8 C 184 10 180 10 178 8 C 177 8 176 8 176 8 C 175 10 151 10 151 8 C 151 8 148 7 146 7 C 144 7 141 8 141 8 C 141 9 118 9 75 10 C 38 10 7 10 4 10 C 2 12 2 13 2 16 C 2 20 2 21 4 22 C 7 22 49 22 98 22 C 159 22 189 24 190 25 C 192 26 196 26 198 25 C 199 22 204 22 205 25 C 207 26 248 26 250 24 C 254 21 374 22 376 25 C 379 27 405 26 405 24 C 405 24 408 24 410 24 C 414 24 416 24 416 25 C 416 26 423 26 424 24 C 424 22 548 22 550 24 C 553 26 805 26 807 25 C 808 22 818 22 819 25 C 820 26 825 26 826 24 C 829 22 898 22 901 25 C 903 26 925 26 927 25 C 928 22 972 22 972 25 C 972 25 973 26 974 26 C 975 26 975 25 975 25 C 975 22 1240 22 1242 25 C 1243 26 1248 26 1249 25 C 1250 22 1274 22 1275 25 C 1276 26 1281 26 1282 25 C 1284 22 1309 22 1309 25 C 1309 26 1320 26 1321 25 C 1322 22 1332 22 1333 25 C 1334 26 1353 26 1354 25 C 1356 22 1428 22 1429 25 C 1430 26 1440 26 1441 25 C 1442 22 1485 22 1486 25 C 1488 25 1488 25 1489 25 C 1491 22 2132 22 2134 24 C 2136 26 2150 26 2151 25 C 2154 22 2276 22 2278 24 C 2281 26 2336 26 2338 25 C 2341 22 2350 21 2354 24 C 2358 26 2414 26 2415 25 C 2416 22 2421 22 2422 25 C 2424 26 2547 26 2550 25 C 2551 22 2556 22 2557 25 C 2558 26 2577 26 2578 24 C 2581 22 2593 22 2595 25 C 2598 26 2677 26 2679 25 C 2680 22 2704 22 2706 25 C 2707 26 2716 26 2718 25 C 2719 24 3475 22 4687 22 C 5768 22 6890 21 7178 21 C 7596 21 7704 21 7705 20 C 7706 18 7754 18 7755 19 C 7756 21 7804 21 7806 19 C 7807 18 7936 18 7938 20 C 7939 21 7940 21 7940 20 C 7941 18 7984 18 7986 19 C 7987 21 7992 21 7993 19 C 7994 18 7999 18 8000 20 C 8001 21 8098 21 8412 21 C 8548 21 8685 21 8822 21 C 8823 21 8824 20 8826 19 C 8828 16 8829 14 8829 12 C 8829 6 8828 6 8804 6 C 8791 4 8781 4 8780 3 C 8779 3 8779 3 8778 4 z" fill="black"/><!-- width=8838 height=34 -->
<path id="gl33536" d="M 8040 3 C 8036 6 7243 6 7240 3 C 7239 2 7238 2 7237 3 C 7236 6 7213 6 7212 3 C 7210 2 7209 2 7208 3 C 7207 6 7179 6 7178 4 C 7177 2 7171 2 7170 4 C 7168 6 7069 6 7068 4 C 7066 2 7056 2 7054 4 C 7053 6 7045 6 7044 3 C 7042 2 7041 2 7040 3 C 7039 4 6326 6 3523 6 C 1528 6 6 6 4 7 C 0 8 0 15 4 16 C 7 18 46 19 111 19 C 178 19 214 19 214 20 C 216 21 220 21 222 20 C 223 18 228 18 229 20 C 231 21 313 21 313 20 C 314 18 367 18 368 20 C 368 21 423 21 423 20 C 424 18 488 18 488 20 C 488 20 490 20 494 20 C 498 20 501 20 501 20 C 501 18 511 18 512 20 C 512 21 529 21 529 20 C 530 18 549 18 550 20 C 550 22 843 22 846 20 C 848 18 874 18 877 20 C 879 22 969 22 972 20 C 974 18 1058 18 1059 20 C 1059 21 1076 21 1076 20 C 1077 18 1081 18 1084 20 C 1088 22 1129 22 1129 20 C 1130 18 1197 18 1198 20 C 1200 21 1201 21 1201 20 C 1202 18 1221 18 1222 20 C 1222 21 1250 22 1254 20 C 1257 18 1264 18 1266 20 C 1266 21 1316 21 1316 19 C 1317 18 1327 18 1328 20 C 1329 21 1346 21 1346 20 C 1346 18 1365 18 1366 20 C 1369 21 1460 21 1460 20 C 1461 18 1474 18 1478 20 C 1483 22 1509 22 1513 20 C 1516 18 1599 18 1602 20 C 1603 21 1604 21 1604 20 C 1605 18 1624 18 1626 20 C 1627 21 1628 21 1628 20 C 1629 18 1975 18 1976 20 C 1977 21 1984 21 1984 20 C 1984 19 1990 19 2001 19 C 2012 19 2019 19 2019 20 C 2019 20 2023 20 2030 20 C 2037 20 2041 20 2041 20 C 2041 18 2052 18 2053 20 C 2054 21 2065 21 2065 20 C 2065 18 2076 18 2077 20 C 2079 22 2185 22 2185 20 C 2186 18 2191 18 2192 20 C 2193 21 2199 21 2199 20 C 2199 18 2205 18 2206 20 C 2209 22 2761 22 2761 20 C 2762 18 2776 18 2778 20 C 2780 21 2852 21 2852 20 C 2853 18 2868 18 2869 20 C 2870 21 2910 21 2910 20 C 2910 18 2962 18 2966 20 C 2971 22 2996 22 2996 20 C 2997 18 3007 18 3008 20 C 3009 21 3021 21 3021 20 C 3021 18 3050 18 3051 20 C 3052 21 3064 21 3064 20 C 3064 18 3121 18 3123 20 C 3126 22 3154 22 3154 20 C 3156 18 3165 18 3166 20 C 3169 21 3255 21 3255 20 C 3256 18 3261 18 3262 20 C 3264 21 3280 21 3280 20 C 3280 18 3295 18 3296 20 C 3298 22 3375 22 3375 20 C 3376 18 3386 18 3387 20 C 3390 21 3403 21 3405 20 C 3406 18 3468 18 3469 20 C 3470 21 3505 21 3505 20 C 3505 18 3597 18 3598 20 C 3601 22 3931 22 3933 20 C 3934 18 3946 18 3950 20 C 3955 22 4617 22 4620 20 C 4621 18 5018 18 5019 20 C 5020 21 5037 21 5037 20 C 5037 18 5070 18 5073 20 C 5077 21 5095 21 5095 19 C 5095 18 5100 18 5101 19 C 5103 21 5178 21 5181 20 C 5184 18 5185 18 5187 20 C 5192 22 5846 22 5848 20 C 5850 18 5863 18 5864 20 C 5865 21 5905 21 5906 20 C 5907 18 6069 18 6070 20 C 6072 21 6115 21 6118 19 C 6120 18 6121 18 6122 19 C 6126 21 6154 21 6156 20 C 6157 18 6184 18 6186 20 C 6187 21 6194 21 6194 20 C 6194 18 6199 18 6200 20 C 6202 22 6284 22 6284 20 C 6285 18 6314 18 6315 20 C 6316 21 6321 21 6325 19 C 6326 18 6327 18 6330 19 C 6332 21 6342 21 6343 20 C 6344 18 6732 18 6733 20 C 6734 21 6735 21 6736 20 C 6738 18 6751 18 6752 20 C 6753 21 6769 21 6770 20 C 6771 18 6784 18 6786 20 C 6787 21 6806 21 6808 19 C 6811 18 6812 18 6814 19 C 6817 21 6826 21 6828 20 C 6829 18 6837 18 6838 20 C 6840 21 6850 21 6852 20 C 6853 18 6890 18 6891 19 C 6894 21 6955 21 6957 20 C 6958 18 7101 18 7102 20 C 7104 21 7110 21 7111 20 C 7112 18 7183 18 7184 20 C 7185 21 7215 21 7216 20 C 7218 18 7236 18 7237 20 C 7239 21 7329 21 7332 20 C 7333 18 7356 18 7357 20 C 7358 21 7364 21 7365 20 C 7366 18 7408 18 7410 20 C 7412 21 7459 21 7461 20 C 7462 19 7598 19 8145 19 C 8605 19 8827 18 8829 16 C 8832 15 8832 8 8829 6 C 8827 6 8823 4 8818 4 C 8815 4 8810 4 8810 3 C 8808 1 8764 1 8760 3 C 8756 6 8725 6 8724 4 C 8722 2 8716 2 8715 4 C 8714 6 8614 6 8613 4 C 8612 2 8587 2 8586 4 C 8584 6 8557 6 8556 4 C 8554 2 8538 1 8534 3 C 8530 6 8414 6 8412 3 C 8410 3 8408 2 8404 2 C 8402 2 8400 3 8398 3 C 8397 6 8374 6 8373 4 C 8372 2 8366 2 8365 4 C 8364 6 8250 6 8248 4 C 8247 2 8241 2 8240 4 C 8239 6 8101 6 8098 3 C 8097 1 8084 1 8082 3 C 8079 6 8053 6 8050 3 C 8048 1 8043 1 8040 3 z" fill="black"/><!-- width=8838 height=30 -->
<path id="gl33537" d="M 9 1 C 3 2 2 3 2 8 C 2 13 4 13 20 13 C 28 13 31 14 32 15 C 32 16 63 16 63 15 C 64 13 69 13 70 15 C 73 18 1680 18 1686 15 C 1689 13 1693 13 1694 15 C 1694 18 1733 18 1735 15 C 1737 13 1746 13 1747 15 C 1748 15 1748 15 1749 15 C 1751 13 1765 13 1766 15 C 1766 16 1778 16 1778 15 C 1779 13 1808 13 1809 15 C 1809 16 1839 16 1841 15 C 1842 13 1896 13 1896 15 C 1896 16 1911 16 1913 15 C 1914 13 1924 13 1925 15 C 1925 16 1807 16 3400 16 C 4997 16 4822 16 4824 15 C 4825 13 4842 13 4847 15 C 4852 18 4884 16 4886 15 C 4888 13 4892 13 4894 15 C 4896 16 4946 16 4949 15 C 4950 13 4955 13 4956 15 C 4958 18 7694 18 7697 15 C 7699 13 7953 13 7954 15 C 7955 16 7965 16 7966 15 C 7967 13 7972 13 7973 15 C 7974 16 8003 16 8004 15 C 8005 13 8015 13 8016 15 C 8017 16 8037 16 8038 15 C 8039 13 8077 13 8079 15 C 8079 18 8410 18 8413 15 C 8414 13 8419 13 8420 15 C 8421 16 8464 16 8625 16 C 8694 16 8761 16 8828 18 C 8829 16 8832 15 8833 14 C 8838 10 8838 7 8835 3 C 8833 1 9098 1 6803 2 C 4483 2 4761 2 4759 3 C 4758 6 4739 6 4737 3 C 4736 3 4735 3 4735 3 C 4734 6 4686 6 4685 3 C 4683 2 4306 2 2809 2 C 1777 2 726 1 474 1 C 220 1 10 1 9 1 z" fill="black"/><!-- width=8844 height=24 -->
<path id="gl33538" d="M 50 3 C 50 4 44 4 27 6 C 1 6 0 7 6 14 C 7 15 8 16 9 18 C 395 18 779 18 1163 18 C 1883 19 2316 19 2317 20 C 2319 21 2355 21 2355 20 C 2355 18 2365 18 2367 20 C 2367 21 2574 22 2579 20 C 2583 18 2591 18 2592 20 C 2592 21 2698 21 2701 20 C 2702 18 2707 18 2708 20 C 2708 21 2709 21 2710 20 C 2711 18 3321 18 3321 20 C 3321 20 3327 20 3336 20 C 3344 20 3350 20 3350 20 C 3350 18 3500 18 3505 20 C 3510 22 3517 21 3517 20 C 3517 19 3530 19 3550 19 C 3570 19 3581 19 3581 20 C 3581 21 3631 21 3633 20 C 3634 18 3653 18 3654 20 C 3654 21 3796 21 3796 20 C 3797 18 3807 18 3808 20 C 3808 21 3947 21 3950 20 C 3951 18 3984 18 3986 20 C 3986 22 4111 21 4113 20 C 4114 18 4153 18 4154 20 C 4154 22 4461 22 4464 20 C 4465 18 4484 18 4485 20 C 4485 21 4543 21 4545 20 C 4546 18 4551 18 4552 20 C 4552 21 4565 21 4565 20 C 4566 18 5024 18 5028 20 C 5029 22 5044 21 5045 19 C 5046 18 5062 18 5062 20 C 5062 20 5064 20 5068 20 C 5071 20 5075 20 5075 20 C 5075 18 5085 18 5086 20 C 5086 21 5151 22 5154 20 C 5159 18 5181 18 5182 20 C 5182 22 5237 21 5237 20 C 5238 18 5247 18 5249 20 C 5251 22 5263 22 5266 20 C 5268 18 5282 18 5282 20 C 5282 21 5313 21 5314 20 C 5315 18 5325 18 5326 20 C 5326 22 5850 22 5852 20 C 5853 18 5887 18 5888 20 C 5888 21 5937 21 5938 19 C 5940 18 6073 18 6074 20 C 6075 21 6127 21 6127 20 C 6127 18 6141 18 6143 19 C 6143 21 6278 22 6283 20 C 6287 19 6288 18 6290 19 C 6292 20 6293 20 6294 20 C 6295 18 6407 18 6407 19 C 6407 21 6446 22 6451 20 C 6455 18 6498 18 6498 20 C 6498 21 6504 21 6505 20 C 6507 18 6756 18 6756 20 C 6756 21 6773 21 6774 20 C 6776 18 6780 18 6780 20 C 6780 21 6802 21 6803 20 C 6804 18 6815 18 6815 20 C 6815 21 6845 21 6846 20 C 6848 18 6894 18 6896 20 C 6898 21 6983 21 6986 20 C 6987 18 7081 18 7083 20 C 7084 21 7085 21 7087 20 C 7088 18 7096 18 7097 20 C 7100 22 7156 22 7159 20 C 7160 18 7189 18 7189 20 C 7189 21 7201 21 7202 20 C 7203 18 7208 18 7209 20 C 7209 22 7372 22 7375 20 C 7376 18 7389 18 7390 20 C 7392 21 7402 21 7404 20 C 7405 18 7428 18 7429 20 C 7430 21 7436 21 7437 20 C 7438 18 7447 18 7448 20 C 7451 22 7502 22 7505 20 C 7506 18 8187 18 8188 20 C 8189 21 8190 21 8192 20 C 8193 18 8518 18 8519 20 C 8521 21 8541 21 8542 20 C 8543 18 8576 18 8577 20 C 8578 21 8589 21 8590 20 C 8591 18 8638 18 8640 20 C 8641 21 8665 21 8668 19 C 8673 16 8704 18 8707 20 C 8709 21 8742 21 8744 20 C 8746 18 8810 18 8812 20 C 8815 21 8816 21 8816 20 C 8816 19 8820 19 8826 18 C 8839 18 8841 18 8841 13 C 8842 10 8841 8 8840 7 C 8838 6 8381 6 5542 6 C 3155 6 2245 4 2245 4 C 2244 2 2231 2 2231 3 C 2231 6 2207 6 2206 3 C 2206 2 2205 2 2203 3 C 2200 6 2184 6 2182 3 C 2179 1 2170 1 2165 3 C 2160 6 1228 6 1226 3 C 1225 2 1194 2 1194 3 C 1193 6 1034 6 1034 3 C 1034 3 1032 3 1030 3 C 1028 3 1025 3 1025 3 C 1025 6 943 6 942 3 C 942 3 919 2 886 2 C 831 1 828 1 825 3 C 821 6 820 6 803 6 C 792 4 784 4 784 3 C 784 3 784 3 783 3 C 781 3 780 3 780 3 C 780 6 775 6 774 3 C 774 2 704 2 704 3 C 703 6 694 6 692 3 C 692 2 671 2 671 3 C 670 6 665 6 665 3 C 665 3 661 3 658 3 C 654 3 652 3 652 3 C 652 6 503 6 500 3 C 498 1 485 1 482 3 C 481 6 468 6 467 3 C 467 2 421 2 421 3 C 420 6 373 6 372 3 C 368 0 321 1 319 3 C 317 7 301 6 299 3 C 297 2 243 2 243 3 C 242 6 204 6 202 3 C 202 1 52 1 50 3 z" fill="black"/><!-- width=8848 height=28 -->
<path id="gl33539" d="M 8 1 C 3 2 2 3 2 8 C 2 13 2 14 80 14 C 127 14 151 14 151 14 C 151 15 152 16 153 16 C 154 16 154 15 154 14 C 154 13 170 13 171 15 C 172 18 1536 18 1537 15 C 1538 13 1552 13 1554 15 C 1556 18 1657 18 1657 15 C 1658 13 1749 13 1750 14 C 1752 16 1758 16 1758 14 C 1758 13 1773 13 1774 14 C 1776 16 1786 16 1786 14 C 1786 14 1812 14 1860 14 C 1908 14 1932 14 1932 14 C 1932 15 1936 16 1941 16 C 1946 16 1950 15 1950 14 C 1950 13 1956 13 1957 14 C 1958 16 1969 16 1969 14 C 1969 13 1984 13 1986 15 C 1988 18 4632 18 4633 15 C 4635 13 4642 13 4645 15 C 4647 18 4705 16 4705 14 C 4706 13 4714 13 4718 15 C 4722 18 4738 18 4738 15 C 4740 13 4863 13 4866 15 C 4868 16 4882 16 4882 15 C 4884 13 4956 13 4957 14 C 4958 16 4964 16 4964 14 C 4964 13 4989 13 4990 15 C 4993 18 6486 18 6486 15 C 6487 13 6499 13 6504 15 C 6508 18 6529 16 6529 14 C 6530 13 6549 13 6550 15 C 6553 18 6591 16 6591 15 C 6592 13 6602 13 6603 14 C 6604 16 6610 16 6610 14 C 6610 13 6684 13 6685 14 C 6686 16 6702 16 6702 14 C 6702 13 6717 13 6718 14 C 6720 16 6745 16 6745 14 C 6745 13 6765 13 6766 14 C 6768 16 6841 16 6841 14 C 6841 13 6847 13 6848 15 C 6850 18 7032 18 7034 15 C 7035 13 7065 13 7070 15 C 7075 18 7569 18 7572 15 C 7573 13 7591 13 7592 14 C 7593 16 7642 16 7642 14 C 7642 14 7711 14 7845 14 C 7978 14 8048 14 8048 14 C 8049 16 8060 16 8061 14 C 8062 13 8124 13 8125 14 C 8126 16 8184 16 8187 14 C 8188 13 8190 13 8191 14 C 8194 16 8204 16 8205 14 C 8206 13 8215 13 8216 14 C 8217 16 8223 16 8224 14 C 8226 13 8268 13 8269 15 C 8271 16 8332 16 8335 14 C 8337 13 8474 13 8475 15 C 8478 16 8569 16 8569 14 C 8570 13 8575 13 8576 15 C 8578 16 8745 18 8748 15 C 8749 13 8757 13 8758 15 C 8761 18 8816 18 8818 15 C 8820 14 8823 14 8826 13 C 8833 12 8833 2 8826 1 C 8823 1 7882 1 6735 1 C 4176 2 4501 2 2049 1 C 928 1 10 1 8 1 z" fill="black"/><!-- width=8838 height=25 -->
<path id="gl33540" d="M 8742 2 C 8739 2 8737 3 8736 4 C 8734 6 8712 6 8710 3 C 8710 3 8706 3 8702 3 C 8697 3 8692 3 8692 3 C 8691 6 8625 6 8624 3 C 8623 2 8621 2 8620 3 C 8619 6 8246 6 8244 3 C 8243 2 8218 2 8217 3 C 8216 6 8092 6 8091 3 C 8089 2 8079 2 8077 3 C 8077 6 7300 6 7298 3 C 7297 2 7296 2 7294 4 C 7294 6 7228 6 7226 3 C 7225 2 7214 2 7213 4 C 7213 6 7055 6 7053 4 C 7052 2 7042 2 7041 3 C 7040 6 7035 6 7034 3 C 7033 2 7028 2 7027 4 C 7024 6 5821 7 3330 7 C 1873 7 1678 7 1675 8 C 1670 10 1657 10 1653 8 C 1651 6 1651 6 1647 8 C 1644 10 1641 10 1639 8 C 1638 6 1628 6 1626 8 C 1624 10 1616 10 1615 8 C 1615 7 1454 7 560 7 C 146 7 4 7 3 8 C 1 9 1 15 3 16 C 4 18 12 19 19 19 C 27 19 31 19 32 20 C 32 22 1729 22 1730 20 C 1731 18 1736 18 1737 20 C 1737 22 1800 22 1802 20 C 1803 18 1808 18 1809 20 C 1809 22 1843 22 1845 20 C 1847 18 1866 18 1867 20 C 1867 21 1883 22 1884 20 C 1885 18 1896 18 1896 20 C 1896 21 1907 21 1908 20 C 1909 18 1924 18 1925 20 C 1927 22 3575 22 3578 20 C 3582 18 3586 18 3587 20 C 3589 22 4764 22 4766 20 C 4767 18 4787 18 4788 20 C 4788 21 4797 21 4800 20 C 4801 18 4864 18 4865 20 C 4866 21 4880 21 4882 20 C 4883 18 4945 18 4946 20 C 4949 22 5989 22 5991 20 C 5992 18 6021 18 6023 20 C 6023 22 6373 22 6374 20 C 6377 18 6391 18 6392 20 C 6392 21 6439 22 6442 20 C 6444 18 6452 18 6454 20 C 6455 21 6461 21 6462 20 C 6463 18 6498 18 6498 20 C 6498 21 6504 21 6505 20 C 6507 18 6703 18 6705 20 C 6706 21 6720 21 6722 20 C 6723 18 6742 18 6743 20 C 6744 21 6792 21 6794 20 C 6795 18 6815 18 6815 20 C 6815 21 6845 21 6846 19 C 6849 18 6893 18 6896 19 C 6898 21 6916 21 6920 19 C 6923 16 6928 18 6930 20 C 6932 21 6989 21 6991 20 C 6992 18 6997 18 6998 20 C 7000 21 7042 21 7043 20 C 7045 18 7051 18 7051 20 C 7051 21 7057 21 7058 20 C 7059 18 7072 18 7073 20 C 7076 21 7147 21 7149 20 C 7150 18 7189 18 7190 20 C 7190 21 7377 21 7380 20 C 7381 18 7400 18 7400 20 C 7400 21 7460 21 7461 20 C 7463 18 7478 18 7478 20 C 7478 20 7487 20 7500 20 C 7514 20 7524 20 7524 20 C 7525 18 7538 18 7539 20 C 7542 21 7560 21 7562 20 C 7565 18 8123 18 8125 20 C 8127 21 8137 21 8139 20 C 8140 18 8494 18 8495 20 C 8497 21 8498 21 8499 20 C 8500 18 8523 18 8524 20 C 8525 21 8551 21 8552 20 C 8553 18 8566 18 8567 20 C 8569 21 8570 21 8571 20 C 8572 18 8638 18 8640 20 C 8641 20 8642 20 8643 20 C 8644 19 8670 18 8739 18 C 8844 18 8838 18 8838 10 C 8838 8 8836 7 8834 6 C 8833 6 8832 4 8830 3 C 8830 2 8751 1 8742 2 z" fill="black"/><!-- width=8844 height=28 -->
<path id="gl33541" d="M 3159 2 C 3156 2 3153 3 3152 4 C 3151 6 3146 6 3145 4 C 3145 3 3141 2 3139 2 C 3136 2 3133 3 3133 4 C 3133 4 3079 4 2976 4 C 2872 4 2818 4 2818 4 C 2817 2 2803 2 2802 4 C 2802 4 2721 4 2568 4 C 2414 4 2334 4 2334 4 C 2332 2 2284 2 2283 4 C 2283 4 2278 4 2272 4 C 2266 4 2262 4 2262 4 C 2260 2 2241 2 2240 4 C 2239 6 2157 6 2156 4 C 2155 2 2150 2 2149 4 C 2146 6 1635 6 1633 4 C 1632 2 1617 2 1616 4 C 1615 6 1610 6 1609 4 C 1608 2 1592 2 1591 4 C 1591 4 1351 6 799 6 C 363 6 6 6 4 7 C 0 9 1 16 7 18 C 8 18 12 19 12 20 C 14 21 33 21 34 19 C 36 18 40 18 42 20 C 43 21 105 21 316 21 C 582 21 589 21 592 19 C 596 16 609 16 613 20 C 615 22 925 22 927 20 C 928 18 933 18 934 20 C 937 21 1040 21 1042 20 C 1044 18 1480 18 1482 20 C 1483 21 1492 21 1494 20 C 1495 18 1524 18 1525 20 C 1526 21 1531 21 1532 20 C 1534 18 1585 18 1587 19 C 1588 21 1598 21 1599 20 C 1600 18 1648 18 1650 20 C 1651 21 1660 21 1662 20 C 1663 18 1687 18 1688 20 C 1689 21 1708 21 1710 20 C 1711 18 1730 18 1731 20 C 1732 21 1742 21 1743 20 C 1746 18 1815 18 1818 19 C 1820 21 2115 21 2118 20 C 2119 18 2152 18 2154 20 C 2156 21 2192 21 2194 20 C 2196 18 2224 18 2226 20 C 2227 20 2227 20 2228 20 C 2229 19 2738 18 3759 18 C 4830 16 5289 16 5290 15 C 5293 14 5293 6 5290 3 C 5288 1 4161 1 4160 3 C 4159 6 4120 6 4119 4 C 4118 2 4108 2 4107 4 C 4106 6 4048 6 4047 3 C 4047 1 3896 1 3896 3 C 3895 6 3885 6 3884 3 C 3884 1 3380 1 3378 3 C 3376 6 3372 6 3370 3 C 3368 1 3246 1 3243 3 C 3242 6 3200 6 3198 4 C 3196 3 3166 2 3159 2 z" fill="black"/><!-- width=5300 height=30 -->
<path id="gl33542" d="M 12 2 C 9 2 7 3 4 6 C 0 12 2 13 22 13 C 36 14 40 14 42 15 C 44 18 62 18 63 15 C 66 13 68 13 69 15 C 70 16 88 16 175 16 C 277 16 278 16 280 14 C 284 12 291 12 295 14 C 296 15 296 16 297 18 C 452 16 607 16 760 16 C 1113 16 1225 16 1225 15 C 1227 13 1232 12 1236 14 C 1237 15 1237 16 1238 18 C 1310 18 1382 18 1454 18 C 1641 18 1669 16 1671 15 C 1674 13 1725 13 1726 15 C 1726 16 1801 16 1801 15 C 1802 13 1810 13 1813 15 C 1814 18 1830 18 1830 15 C 1831 13 1926 13 1928 15 C 1929 18 1950 18 1950 15 C 1951 13 1956 13 1957 15 C 1957 18 2924 18 2924 15 C 2925 13 2959 13 2960 15 C 2962 18 3049 18 3049 15 C 3050 13 3079 13 3080 15 C 3080 18 3456 18 3458 15 C 3459 13 3462 13 3464 15 C 3466 18 3500 18 3501 15 C 3502 13 3510 13 3511 15 C 3513 18 3518 18 3519 15 C 3520 14 3523 14 3525 14 C 3535 14 3540 7 3534 2 C 3531 1 3253 1 308 2 C 294 2 292 2 290 4 C 288 8 284 7 280 3 C 278 1 276 1 147 1 C 75 1 14 1 12 2 z" fill="black"/><!-- width=3543 height=25 -->
<path id="gl33792" d="M 8021 2 C 7777 2 7714 2 7714 3 C 7712 6 7703 6 7702 3 C 7699 2 7682 2 7680 3 C 7679 6 7664 6 7663 3 C 7661 1 6601 1 6599 3 C 6598 6 6564 6 6563 3 C 6562 2 6528 2 6527 3 C 6526 6 6521 6 6520 3 C 6517 2 6466 2 6464 3 C 6463 6 6410 6 6409 3 C 6408 2 6389 2 6388 3 C 6386 6 6382 6 6380 3 C 6379 2 6365 2 6364 3 C 6362 6 6348 6 6347 3 C 6344 2 6241 1 6239 3 C 6235 6 6218 6 6217 3 C 6217 1 6120 1 6119 3 C 6117 6 6103 6 6102 3 C 6101 2 6072 2 6071 3 C 6069 6 6055 6 6054 3 C 6051 2 6008 2 6008 3 C 6007 6 5997 6 5996 3 C 5995 2 5918 2 5917 3 C 5916 6 5882 6 5881 3 C 5878 2 5766 2 5763 3 C 5762 6 5747 6 5746 3 C 5744 2 5617 2 5614 4 C 5612 6 5575 6 5575 4 C 5573 2 5560 2 5560 3 C 5560 6 5546 6 5545 3 C 5542 2 5420 2 5417 3 C 5416 6 5406 6 5405 3 C 5405 3 5399 3 5393 3 C 5387 3 5384 3 5384 3 C 5384 6 5368 6 5367 3 C 5364 2 5030 2 5028 3 C 5027 6 5022 6 5021 3 C 5020 2 5010 2 5009 3 C 5008 6 5003 6 5002 3 C 5000 2 4952 2 4951 3 C 4951 4 4868 4 4707 4 C 4546 4 4464 4 4464 3 C 4462 2 4458 2 4456 3 C 4455 6 4412 6 4411 3 C 4410 2 4381 2 4380 3 C 4378 6 4330 6 4329 3 C 4328 2 4313 2 4312 3 C 4311 6 4273 6 4271 3 C 4270 2 4263 2 4263 3 C 4263 6 4229 6 4228 3 C 4227 2 4217 2 4216 3 C 4215 6 4143 6 4142 3 C 4141 2 4113 2 4111 3 C 4109 6 4105 6 4103 3 C 4102 2 4025 2 4024 3 C 4022 6 3986 6 3983 4 C 3981 2 3878 2 3875 3 C 3874 6 3811 6 3810 3 C 3810 3 3809 3 3808 3 C 3807 4 3240 6 1908 6 C 1275 6 641 6 8 6 C 7 7 7 8 4 10 C 0 16 1 18 28 18 C 42 19 50 19 50 20 C 50 20 51 20 52 20 C 54 20 55 20 55 20 C 55 19 61 19 72 19 C 82 19 90 19 90 20 C 90 20 92 20 96 20 C 99 20 102 20 102 20 C 102 18 175 18 176 20 C 176 21 192 21 193 20 C 194 18 199 18 200 20 C 202 22 305 22 308 19 C 313 16 315 16 319 19 C 324 22 1054 22 1058 20 C 1059 18 1064 18 1065 20 C 1065 22 1175 22 1178 20 C 1179 18 1188 18 1190 20 C 1192 22 1550 22 1552 20 C 1554 18 1576 18 1579 20 C 1581 22 1624 21 1624 19 C 1626 18 1943 18 1944 20 C 1945 21 2017 21 2018 20 C 2020 18 2087 18 2088 20 C 2088 22 2155 22 2158 20 C 2159 18 2164 18 2165 20 C 2166 21 2190 21 2191 20 C 2193 18 2197 18 2199 20 C 2199 22 2698 22 2701 20 C 2702 18 2731 18 2731 20 C 2731 21 2757 21 2758 20 C 2759 18 2769 18 2770 20 C 2771 21 2805 21 2806 20 C 2807 18 2851 18 2852 20 C 2853 20 2853 20 2854 20 C 2855 18 2910 18 2910 20 C 2910 21 2916 21 2917 20 C 2918 18 3125 18 3126 20 C 3127 21 3132 21 3133 20 C 3134 18 3182 18 3183 20 C 3185 21 3211 21 3211 20 C 3211 18 3273 18 3275 20 C 3275 21 3276 21 3277 20 C 3279 18 3302 18 3302 19 C 3303 21 3307 21 3307 20 C 3307 18 3648 18 3649 20 C 3651 21 3775 21 3777 20 C 3778 18 3783 18 3784 20 C 3785 21 3790 21 3791 20 C 3792 18 3807 18 3808 20 C 3809 21 3852 21 3854 20 C 3855 18 3869 18 3870 20 C 3873 21 3928 21 3930 20 C 3933 18 4028 18 4028 19 C 4029 21 4059 21 4060 20 C 4061 18 4076 18 4077 20 C 4078 21 4093 21 4094 20 C 4096 18 4214 18 4216 20 C 4219 21 4231 21 4233 20 C 4234 18 4258 18 4259 20 C 4261 21 4265 21 4267 20 C 4268 18 4277 18 4279 20 C 4280 20 4280 20 4281 20 C 4282 18 4311 18 4312 19 C 4315 21 4389 21 4392 20 C 4393 18 4402 18 4404 20 C 4404 20 4405 20 4406 20 C 4408 18 5559 18 5561 19 C 5563 21 5572 21 5573 20 C 5575 19 5997 18 6657 18 C 7252 16 7774 16 7816 16 C 7874 16 7892 16 7894 15 C 7895 13 7909 13 7910 15 C 7912 16 8007 16 8373 16 C 8527 16 8680 16 8834 16 C 8835 16 8836 15 8838 14 C 8842 10 8842 7 8840 3 C 8839 1 8558 1 8021 2 z" fill="black"/><!-- width=8848 height=28 -->
<path id="gl33793" d="M 128 3 C 126 4 120 4 68 4 C 36 4 9 6 8 6 C 7 7 6 8 4 10 C 0 18 -6 18 134 18 C 205 18 263 19 263 19 C 263 21 269 21 271 20 C 273 18 369 18 373 20 C 377 22 384 22 386 20 C 386 18 544 18 545 19 C 547 21 834 21 837 20 C 838 18 843 18 843 20 C 843 21 855 21 856 20 C 857 18 867 18 867 20 C 867 21 936 21 937 20 C 939 18 958 18 959 20 C 960 21 975 21 976 20 C 977 18 1073 18 1073 20 C 1073 20 1074 20 1076 20 C 1077 20 1078 20 1078 20 C 1078 19 1088 19 1107 19 C 1126 19 1137 19 1137 20 C 1137 20 1139 20 1143 20 C 1146 20 1149 20 1149 20 C 1149 18 1208 18 1209 20 C 1210 20 1210 20 1211 20 C 1213 18 1261 18 1262 20 C 1264 21 1341 22 1341 20 C 1342 18 1414 18 1414 20 C 1414 20 1417 20 1419 20 C 1421 20 1423 20 1423 20 C 1423 19 1425 19 1429 19 C 1432 19 1433 19 1433 20 C 1433 21 1437 21 1438 20 C 1438 18 2215 18 2218 19 C 2219 20 2220 20 2220 19 C 2223 18 2269 18 2271 20 C 2271 21 2395 21 2398 20 C 2400 18 2420 18 2423 19 C 2427 21 2554 21 2556 20 C 2558 18 2596 18 2596 20 C 2596 21 2603 21 2604 20 C 2606 18 2631 18 2631 20 C 2631 21 2653 21 2654 20 C 2654 18 5448 18 5451 19 C 5452 21 5457 21 5458 20 C 5459 19 7055 16 8244 16 C 8832 16 8839 16 8840 15 C 8842 10 8842 8 8838 4 C 8836 3 8835 2 8834 2 C 8662 2 8491 2 8320 2 C 7868 2 7806 2 7804 3 C 7802 6 7776 6 7772 3 C 7769 1 7734 1 7728 3 C 7724 6 7723 6 7721 3 C 7716 2 7622 1 7622 3 C 7621 6 7587 6 7586 3 C 7584 1 6553 1 6552 3 C 6550 6 6540 6 6539 3 C 6537 2 6472 2 6469 3 C 6468 6 6444 6 6443 3 C 6442 2 6437 2 6436 3 C 6434 6 6406 6 6404 4 C 6402 2 6336 2 6334 3 C 6332 6 6318 6 6318 4 C 6318 2 6308 1 6306 3 C 6304 6 6282 6 6280 4 C 6277 2 6269 1 6268 3 C 6265 6 6253 6 6251 3 C 6248 2 6126 2 6123 3 C 6122 6 6093 6 6092 3 C 6090 2 6090 2 6090 3 C 6089 6 6023 6 6020 3 C 6018 2 5998 2 5998 3 C 5997 6 5983 6 5982 3 C 5979 1 5620 2 5618 4 C 5615 7 5608 7 5603 4 C 5599 2 5408 1 5408 3 C 5406 6 5397 6 5396 3 C 5393 2 4944 2 4942 3 C 4940 6 4503 6 4502 3 C 4501 2 4476 2 4476 3 C 4476 6 4460 6 4459 4 C 4456 2 4399 2 4399 3 C 4398 6 4380 6 4377 3 C 4375 2 4346 2 4346 3 C 4345 6 4341 6 4338 3 C 4333 1 4312 1 4312 3 C 4311 6 4292 6 4291 3 C 4288 2 4221 2 4221 3 C 4220 6 4201 6 4199 3 C 4198 2 4189 2 4187 3 C 4186 6 4181 6 4180 3 C 4178 2 3732 1 3730 3 C 3729 6 3725 6 3724 3 C 3723 2 3718 2 3717 3 C 3715 6 3705 6 3705 3 C 3705 3 3703 3 3701 3 C 3699 3 3697 3 3697 3 C 3697 6 3691 6 3690 3 C 3689 2 3679 2 3678 3 C 3677 6 3643 6 3642 3 C 3641 2 3609 2 3606 3 C 3605 6 3469 6 3469 3 C 3469 3 3468 3 3466 3 C 3463 3 3461 3 3461 3 C 3461 6 3288 6 3287 3 C 3285 2 3233 2 3231 3 C 3230 6 3115 6 3114 3 C 3112 2 3076 2 3076 3 C 3076 4 2989 4 2815 4 C 2642 4 2552 4 2552 3 C 2550 2 2541 2 2540 3 C 2538 6 2433 6 2432 3 C 2430 2 2427 2 2423 4 C 2420 7 2383 6 2383 3 C 2383 2 2358 2 2357 3 C 2356 6 2332 6 2331 3 C 2329 2 2315 2 2314 3 C 2313 6 2298 6 2297 3 C 2295 2 2239 2 2236 4 C 2233 7 2229 7 2226 4 C 2224 2 2218 2 2218 3 C 2218 6 2207 6 2206 3 C 2205 2 2193 2 2193 3 C 2193 6 2188 6 2187 3 C 2185 2 2171 2 2170 3 C 2169 6 2159 6 2158 3 C 2156 3 2155 3 2155 3 C 2154 6 2135 6 2134 3 C 2132 3 2131 3 2131 3 C 2130 6 2116 6 2114 3 C 2113 3 2112 3 2112 3 C 2111 6 2101 6 2100 3 C 2100 2 2062 2 2059 3 C 2058 6 2044 6 2042 3 C 2040 2 2040 2 2040 3 C 2039 6 2024 6 2023 3 C 2022 2 2021 2 2021 3 C 2020 6 1275 6 1275 3 C 1274 2 1271 2 1271 3 C 1271 6 963 6 962 3 C 960 3 960 3 959 3 C 958 6 876 6 875 3 C 874 2 847 2 847 3 C 847 6 775 6 774 3 C 773 3 773 3 772 4 C 769 6 655 6 655 3 C 654 2 642 2 641 3 C 641 7 479 6 476 3 C 474 1 471 1 468 3 C 465 6 142 6 140 3 C 139 1 129 1 128 3 z" fill="black"/><!-- width=8848 height=28 -->
<path id="gl33794" d="M 6842 2 C 6840 3 6839 3 6838 4 C 6837 6 6828 6 6827 3 C 6827 3 6821 3 6813 3 C 6806 3 6800 3 6800 3 C 6800 4 6747 4 6645 4 C 6544 4 6491 4 6491 3 C 6490 2 6484 2 6483 3 C 6483 6 6224 6 6222 4 C 6221 2 6215 2 6213 3 C 6213 6 1927 7 314 6 C -18 6 2 6 2 13 C 2 16 4 19 15 19 C 24 19 26 19 27 20 C 28 22 73 21 73 19 C 74 18 94 18 94 20 C 94 20 96 20 98 20 C 100 20 103 20 103 20 C 103 18 159 18 162 20 C 163 22 1670 22 1672 20 C 1675 18 1683 18 1685 20 C 1687 22 1761 22 1764 20 C 1765 18 1776 18 1776 20 C 1776 21 1796 21 1797 20 C 1799 18 1823 18 1824 20 C 1826 21 1872 21 1874 20 C 1875 18 1920 18 1920 20 C 1920 21 1945 21 1946 20 C 1948 18 1957 18 1958 20 C 1958 22 4581 22 4584 20 C 4585 18 4599 18 4601 20 C 4602 21 4626 21 4627 20 C 4628 18 5017 18 5018 20 C 5018 22 5297 22 5300 20 C 5301 18 5310 18 5312 20 C 5312 22 5826 22 5827 20 C 5829 18 5872 18 5874 20 C 5874 21 5922 21 5924 20 C 5925 18 6051 18 6051 20 C 6051 21 6067 21 6068 20 C 6069 18 6079 18 6079 20 C 6079 21 6091 21 6092 20 C 6093 18 6099 18 6099 20 C 6099 21 6144 21 6145 20 C 6146 18 6156 18 6156 20 C 6156 20 6159 20 6162 20 C 6165 20 6169 20 6169 20 C 6169 19 6171 19 6173 19 C 6174 19 6175 19 6175 20 C 6175 21 6182 21 6183 20 C 6185 18 6189 18 6191 19 C 6191 21 6239 21 6241 20 C 6242 18 6252 18 6252 20 C 6252 21 6269 21 6270 20 C 6271 18 6396 18 6396 20 C 6396 21 6408 21 6409 20 C 6410 18 6934 18 6935 20 C 6935 20 6936 20 6938 20 C 6940 18 7093 18 7093 19 C 7094 21 7114 21 7115 20 C 7117 19 7441 19 7975 18 C 8671 18 8834 18 8835 15 C 8839 13 8838 8 8833 4 C 8832 3 8830 2 8829 1 C 8686 2 8545 2 8403 2 C 8064 2 7978 2 7978 3 C 7977 6 7948 6 7947 3 C 7944 2 7853 2 7853 4 C 7852 6 7847 6 7846 3 C 7844 2 7794 2 7794 3 C 7794 6 7583 6 7581 3 C 7580 2 7579 2 7578 3 C 7577 6 7554 6 7553 3 C 7551 2 7531 2 7530 3 C 7529 6 7491 6 7490 3 C 7489 2 7483 2 7482 3 C 7481 6 7472 6 7471 3 C 7470 2 7459 2 7459 3 C 7459 6 7448 6 7447 3 C 7446 2 7425 2 7356 2 C 7286 2 7267 2 7267 3 C 7266 6 7261 6 7260 3 C 7258 2 6849 1 6842 2 z" fill="black"/><!-- width=8844 height=28 -->
</defs>
<use xlink:href="#gl15882" x="2842" y="1"/>
<use xlink:href="#gl15893" x="2890" y="34"/>
<use xlink:href="#gl15887" x="3025" y="34"/>
<use xlink:href="#gl31749" x="3115" y="33"/>
<use xlink:href="#gl15885" x="3206" y="34"/>
<use xlink:href="#gl32522" x="3345" y="1"/>
<use xlink:href="#gl15885" x="3450" y="34"/>
<use xlink:href="#gl31751" x="3532" y="34"/>
<use xlink:href="#gl15900" x="3620" y="35"/>
<use xlink:href="#gl15880" x="3700" y="35"/>
<use xlink:href="#gl31755" x="3759" y="2"/>
<use xlink:href="#gl32523" x="3807" y="35"/>
<use xlink:href="#gl15907" x="3890" y="8"/>
<use xlink:href="#gl15892" x="3951" y="2"/>
<use xlink:href="#gl16134" x="3998" y="34"/>
<use xlink:href="#gl16133" x="4085" y="34"/>
<use xlink:href="#gl32524" x="5914" y="1"/>
<use xlink:href="#gl15892" x="6019" y="2"/>
<use xlink:href="#gl15884" x="6057" y="35"/>
<use xlink:href="#gl15892" x="6147" y="3"/>
<use xlink:href="#gl16652" x="6193" y="2"/>
<use xlink:href="#gl16133" x="6282" y="34"/>
<use xlink:href="#gl15889" x="6370" y="34"/>
<use xlink:href="#gl31753" x="6458" y="34"/>
<use xlink:href="#gl31753" x="6537" y="34"/>
<use xlink:href="#gl31754" x="7420" y="0"/>
<use xlink:href="#gl15887" x="7557" y="34"/>
<use xlink:href="#gl15891" x="7646" y="35"/>
<use xlink:href="#gl15892" x="7732" y="2"/>
<use xlink:href="#gl15893" x="7781" y="33"/>
<use xlink:href="#gl15904" x="7919" y="35"/>
<use xlink:href="#gl15893" x="8009" y="32"/>
<use xlink:href="#gl15912" x="8186" y="0"/>
<use xlink:href="#gl16133" x="8289" y="33"/>
<use xlink:href="#gl15891" x="8377" y="34"/>
<use xlink:href="#gl15892" x="8463" y="1"/>
<use xlink:href="#gl15885" x="8509" y="33"/>
<use xlink:href="#gl15907" x="8592" y="5"/>
<use xlink:href="#gl16647" x="8644" y="34"/>
<use xlink:href="#gl32522" x="476" y="302"/>
<use xlink:href="#gl15906" x="580" y="332"/>
<use xlink:href="#gl15907" x="664" y="308"/>
<use xlink:href="#gl16651" x="721" y="333"/>
<use xlink:href="#gl32525" x="3081" y="300"/>
<use xlink:href="#gl31759" x="3139" y="303"/>
<use xlink:href="#gl15879" x="3222" y="334"/>
<use xlink:href="#gl32526" x="3303" y="336"/>
<use xlink:href="#gl16648" x="3428" y="338"/>
<use xlink:href="#gl15902" x="3553" y="335"/>
<use xlink:href="#gl15886" x="3643" y="337"/>
<use xlink:href="#gl16652" x="3704" y="302"/>
<use xlink:href="#gl31753" x="3789" y="335"/>
<use xlink:href="#gl32527" x="3877" y="300"/>
<use xlink:href="#gl32528" x="6043" y="303"/>
<use xlink:href="#gl31763" x="6130" y="371"/>
<use xlink:href="#gl32529" x="6222" y="305"/>
<use xlink:href="#gl32530" x="6313" y="302"/>
<use xlink:href="#gl31765" x="6399" y="304"/>
<use xlink:href="#gl32531" x="7848" y="302"/>
<use xlink:href="#gl31763" x="7938" y="369"/>
<use xlink:href="#gl32529" x="8029" y="304"/>
<use xlink:href="#gl31765" x="8116" y="302"/>
<use xlink:href="#gl32530" x="8208" y="302"/>
<use xlink:href="#gl32768" x="6" y="553"/>
<use xlink:href="#gl32769" x="1" y="1158"/>
<use xlink:href="#gl32770" x="1" y="1763"/>
<use xlink:href="#gl32771" x="1" y="2368"/>
<use xlink:href="#gl33024" x="0" y="2963"/>
<use xlink:href="#gl33025" x="0" y="3563"/>
<use xlink:href="#gl33026" x="5" y="4163"/>
<use xlink:href="#gl33280" x="1" y="4763"/>
<use xlink:href="#gl33281" x="6" y="5368"/>
<use xlink:href="#gl33282" x="5" y="5968"/>
<use xlink:href="#gl33536" x="5" y="6572"/>
<use xlink:href="#gl33537" x="5" y="7177"/>
<use xlink:href="#gl33538" x="0" y="7773"/>
<use xlink:href="#gl33539" x="5" y="8372"/>
<use xlink:href="#gl33540" x="6" y="8968"/>
<use xlink:href="#gl33541" x="3543" y="9572"/>
<use xlink:href="#gl33542" x="0" y="9577"/>
<use xlink:href="#gl33792" x="1" y="10177"/>
<use xlink:href="#gl33793" x="1" y="10777"/>
<use xlink:href="#gl33794" x="6" y="11377"/>
</svg>