<svg xmlns="http://www.w3.org/2000/svg" xmlns:xlink="http://www.w3.org/1999/xlink" width="887px" height="1135px" viewBox="0 0 8873 11357" version="1.1">
<defs>
<path id="gl15912" d="M 37 8 C 33 10 33 14 32 20 C 31 25 29 37 26 48 C 22 59 19 76 16 88 C 14 99 10 113 9 119 C 4 140 6 144 16 144 C 29 145 32 141 35 125 C 36 111 39 107 50 107 C 64 107 67 111 70 124 C 71 141 75 145 87 145 C 100 145 101 139 96 121 C 95 114 91 102 89 94 C 88 84 84 68 82 59 C 79 49 76 33 75 26 C 71 6 71 6 53 6 C 41 4 41 4 37 8 M 58 59 C 64 75 61 88 52 88 C 43 88 41 79 45 64 C 49 50 54 49 58 59 z" fill="black"/><!-- width=111 height=153 -->
<path id="gl16133" d="M 45 8 C 37 11 36 11 26 8 C 19 6 12 7 9 9 C 9 11 8 33 8 59 C 8 75 8 91 8 107 C 9 108 11 108 12 110 C 15 112 28 112 30 110 C 33 107 33 105 33 73 C 31 34 33 31 40 28 C 53 22 56 35 53 91 C 53 96 52 101 52 106 C 53 107 55 108 56 108 C 61 112 74 112 77 108 C 78 107 78 97 78 64 C 78 22 78 22 75 17 C 68 6 56 2 45 8 z" fill="black"/><!-- width=90 height=122 -->
<path id="gl15891" d="M 8 7 C 4 8 6 14 17 33 C 29 57 29 55 16 80 C 2 105 2 110 16 109 C 26 109 29 108 32 100 C 38 85 44 85 49 100 C 52 106 53 108 63 109 C 78 110 80 105 73 93 C 64 80 54 59 54 55 C 54 52 64 33 72 21 C 79 9 77 4 64 4 C 55 4 52 7 49 14 C 44 24 38 24 34 14 C 33 12 31 8 29 8 C 27 6 12 4 8 7 z" fill="black"/><!-- width=86 height=120 -->
<path id="gl15892" d="M 12 6 C 7 7 6 8 6 16 C 6 25 10 27 18 27 C 28 27 32 22 31 12 C 30 6 20 2 12 6 M 10 41 C 6 44 6 138 10 141 C 13 143 25 143 27 141 C 28 139 30 139 31 138 C 31 123 31 107 31 91 C 31 36 31 40 18 40 C 15 40 11 40 10 41 z" fill="black"/><!-- width=44 height=153 -->
<path id="gl16134" d="M 31 7 C 11 9 6 23 7 71 C 8 106 13 112 40 112 C 66 112 74 105 75 74 C 76 55 75 32 73 26 C 68 11 52 3 31 7 M 49 29 C 50 31 52 32 53 33 C 53 42 53 50 53 60 C 53 69 53 78 53 88 C 52 89 50 90 49 91 C 44 95 38 95 33 91 C 32 90 31 89 29 89 C 29 79 29 69 29 60 C 29 32 29 32 32 28 C 37 23 44 23 49 29 z" fill="black"/><!-- width=88 height=125 -->
<path id="gl34059" d="M 11 8 C 10 9 10 9 9 10 C 9 23 9 37 9 51 C 9 73 10 93 10 95 C 13 109 27 115 44 107 C 46 106 49 105 50 104 C 52 105 55 106 56 106 C 64 110 71 110 75 107 C 75 106 76 105 77 105 C 77 89 77 73 77 57 C 77 41 77 26 77 10 C 76 9 75 8 75 8 C 70 4 59 3 55 7 C 55 8 53 9 52 9 C 52 20 52 29 52 40 C 53 57 53 71 53 73 C 56 80 49 91 43 91 C 33 91 32 87 33 45 C 34 5 34 5 22 5 C 15 4 14 4 11 8 z" fill="black"/><!-- width=91 height=124 -->
<path id="gl35585" d="M 31 6 C 18 8 9 18 9 32 C 9 44 14 51 34 64 C 49 74 54 81 46 87 C 42 92 33 88 30 80 C 27 70 9 70 8 80 C 4 97 24 112 43 111 C 61 110 73 103 75 90 C 78 73 74 63 60 55 C 39 42 33 36 34 31 C 37 22 46 24 52 31 C 60 43 75 42 75 30 C 75 13 58 3 31 6 z" fill="black"/><!-- width=86 height=124 -->
<path id="gl34060" d="M 10 7 C 7 9 7 9 7 77 C 7 139 7 139 9 140 C 14 144 61 142 67 139 C 79 132 83 125 84 106 C 85 90 84 83 77 77 C 72 71 72 69 77 59 C 87 40 81 18 66 9 C 60 7 16 4 10 7 M 49 30 C 60 36 57 57 45 61 C 34 63 30 59 30 44 C 30 28 38 22 49 30 M 53 84 C 62 92 61 114 50 121 C 43 124 38 124 33 120 C 30 116 30 115 30 102 C 30 87 31 84 37 81 C 40 80 48 81 53 84 z" fill="black"/><!-- width=96 height=154 -->
<path id="gl15885" d="M 30 6 C 11 12 8 18 8 56 C 8 96 11 101 24 108 C 40 117 64 112 71 100 C 81 85 79 75 67 75 C 59 74 55 76 54 82 C 48 100 30 95 30 76 C 30 64 35 61 58 63 C 79 64 79 64 77 44 C 76 23 72 13 61 8 C 55 6 38 4 30 6 M 50 28 C 54 32 54 38 51 43 C 48 46 37 46 33 43 C 24 32 42 17 50 28 z" fill="black"/><!-- width=90 height=123 -->
<path id="gl16641" d="M 9 6 C 9 7 8 8 7 8 C 7 30 7 51 7 73 C 7 94 7 117 7 137 C 8 139 9 139 11 140 C 13 142 22 142 25 140 C 30 137 30 131 29 98 C 29 70 29 67 30 64 C 35 54 43 52 49 60 C 51 62 51 65 51 99 C 50 112 50 124 50 135 C 51 136 52 137 54 139 C 56 142 57 142 64 141 C 76 141 76 142 75 93 C 75 80 75 66 75 52 C 73 50 72 49 71 46 C 66 36 54 34 44 39 C 32 44 28 40 29 22 C 29 18 30 13 30 9 C 29 8 28 7 27 7 C 23 3 14 3 9 6 z" fill="black"/><!-- width=88 height=152 -->
<path id="gl15887" d="M 31 6 C 22 8 14 13 11 21 C 4 32 7 39 17 39 C 26 39 28 37 31 32 C 37 21 52 22 52 33 C 52 39 48 44 38 48 C 13 58 7 64 7 83 C 7 96 12 106 21 110 C 27 114 38 112 44 110 C 50 106 54 106 58 109 C 63 111 74 111 76 109 C 79 105 78 26 74 19 C 69 8 50 3 31 6 M 52 65 C 54 68 54 80 52 85 C 48 99 31 95 31 81 C 31 68 45 57 52 65 z" fill="black"/><!-- width=90 height=124 -->
<path id="gl15878" d="M 9 7 C 7 8 6 9 6 11 C 4 13 18 72 24 98 C 27 108 28 109 42 109 C 53 109 59 106 59 98 C 59 93 72 38 77 19 C 81 7 74 2 59 7 C 54 8 53 11 51 28 C 47 72 36 72 32 27 C 31 19 29 12 29 11 C 28 6 16 3 9 7 z" fill="black"/><!-- width=89 height=121 -->
<path id="gl15892" d="M 12 6 C 7 7 6 8 6 16 C 6 25 10 27 18 27 C 28 27 32 22 31 12 C 30 6 20 2 12 6 M 10 41 C 6 44 6 138 10 141 C 13 143 25 143 27 141 C 28 139 30 139 31 138 C 31 123 31 107 31 91 C 31 36 31 40 18 40 C 15 40 11 40 10 41 z" fill="black"/><!-- width=44 height=153 -->
<path id="gl16138" d="M 27 7 C 11 12 7 19 7 57 C 7 91 8 96 17 103 C 28 114 59 113 68 100 C 75 94 76 89 76 62 C 77 23 73 13 59 8 C 50 4 34 4 27 7 M 50 27 C 51 29 54 32 54 34 C 54 55 54 81 52 84 C 49 93 39 94 33 87 C 30 83 30 83 30 57 C 30 49 30 40 30 32 C 30 30 32 29 33 28 C 38 22 44 22 50 27 z" fill="black"/><!-- width=89 height=123 -->
<path id="gl15880" d="M 10 7 C 10 7 8 8 7 8 C 7 25 7 41 7 57 C 7 113 6 110 18 110 C 31 110 31 110 30 73 C 30 62 30 52 30 42 C 31 41 32 40 34 39 C 36 35 39 35 44 34 C 52 32 55 30 55 18 C 55 15 54 8 54 7 C 51 5 45 5 41 7 C 34 15 32 15 27 10 C 22 6 15 5 10 7 z" fill="black"/><!-- width=66 height=122 -->
<path id="gl35586" d="M 12 7 C 10 7 8 8 8 8 C 7 10 7 135 8 138 C 9 141 20 144 27 141 C 32 139 33 136 31 108 C 30 80 31 74 34 74 C 39 74 43 80 52 109 C 64 141 64 142 79 142 C 86 142 92 139 92 135 C 93 122 92 13 92 10 C 91 7 87 4 79 4 C 66 4 64 7 67 34 C 69 58 68 72 64 74 C 62 75 62 75 60 73 C 57 70 50 55 49 50 C 49 49 48 45 46 43 C 45 42 43 33 42 27 C 36 12 34 8 31 6 C 27 4 15 4 12 7 z" fill="black"/><!-- width=106 height=154 -->
<path id="gl15902" d="M 34 6 C 18 9 12 17 9 36 C 8 51 9 86 12 93 C 15 106 25 111 43 111 C 70 111 77 104 79 75 C 82 41 78 19 68 12 C 61 6 45 3 34 6 M 49 25 C 55 28 55 29 55 60 C 55 68 55 78 55 87 C 55 88 54 89 52 90 C 47 95 40 95 35 89 C 34 88 33 87 31 86 C 31 77 31 68 31 60 C 31 33 33 29 39 25 C 44 23 44 23 49 25 z" fill="black"/><!-- width=92 height=124 -->
<path id="gl35587" d="M 40 8 C 35 9 33 9 27 8 C 20 6 10 7 8 9 C 8 10 7 94 7 101 C 8 110 21 112 29 107 C 31 104 31 107 30 64 C 30 37 30 36 32 31 C 37 24 46 24 50 31 C 53 36 53 38 52 70 C 52 81 50 92 50 104 C 52 104 53 105 54 106 C 58 110 69 111 73 106 C 76 104 76 104 76 64 C 76 21 75 19 70 13 C 65 6 50 3 40 8 z" fill="black"/><!-- width=88 height=122 -->
<path id="gl15887" d="M 31 6 C 22 8 14 13 11 21 C 4 32 7 39 17 39 C 26 39 28 37 31 32 C 37 21 52 22 52 33 C 52 39 48 44 38 48 C 13 58 7 64 7 83 C 7 96 12 106 21 110 C 27 114 38 112 44 110 C 50 106 54 106 58 109 C 63 111 74 111 76 109 C 79 105 78 26 74 19 C 69 8 50 3 31 6 M 52 65 C 54 68 54 80 52 85 C 48 99 31 95 31 81 C 31 68 45 57 52 65 z" fill="black"/><!-- width=90 height=124 -->
<path id="gl16133" d="M 45 8 C 37 11 36 11 26 8 C 19 6 12 7 9 9 C 9 11 8 33 8 59 C 8 75 8 91 8 107 C 9 108 11 108 12 110 C 15 112 28 112 30 110 C 33 107 33 105 33 73 C 31 34 33 31 40 28 C 53 22 56 35 53 91 C 53 96 52 101 52 106 C 53 107 55 108 56 108 C 61 112 74 112 77 108 C 78 107 78 97 78 64 C 78 22 78 22 75 17 C 68 6 56 2 45 8 z" fill="black"/><!-- width=90 height=122 -->
<path id="gl15891" d="M 8 7 C 4 8 6 14 17 33 C 29 57 29 55 16 80 C 2 105 2 110 16 109 C 26 109 29 108 32 100 C 38 85 44 85 49 100 C 52 106 53 108 63 109 C 78 110 80 105 73 93 C 64 80 54 59 54 55 C 54 52 64 33 72 21 C 79 9 77 4 64 4 C 55 4 52 7 49 14 C 44 24 38 24 34 14 C 33 12 31 8 29 8 C 27 6 12 4 8 7 z" fill="black"/><!-- width=86 height=120 -->
<path id="gl15892" d="M 12 6 C 7 7 6 8 6 16 C 6 25 10 27 18 27 C 28 27 32 22 31 12 C 30 6 20 2 12 6 M 10 41 C 6 44 6 138 10 141 C 13 143 25 143 27 141 C 28 139 30 139 31 138 C 31 123 31 107 31 91 C 31 36 31 40 18 40 C 15 40 11 40 10 41 z" fill="black"/><!-- width=44 height=153 -->
<path id="gl16138" d="M 27 7 C 11 12 7 19 7 57 C 7 91 8 96 17 103 C 28 114 59 113 68 100 C 75 94 76 89 76 62 C 77 23 73 13 59 8 C 50 4 34 4 27 7 M 50 27 C 51 29 54 32 54 34 C 54 55 54 81 52 84 C 49 93 39 94 33 87 C 30 83 30 83 30 57 C 30 49 30 40 30 32 C 30 30 32 29 33 28 C 38 22 44 22 50 27 z" fill="black"/><!-- width=89 height=123 -->
<path id="gl34059" d="M 11 8 C 10 9 10 9 9 10 C 9 23 9 37 9 51 C 9 73 10 93 10 95 C 13 109 27 115 44 107 C 46 106 49 105 50 104 C 52 105 55 106 56 106 C 64 110 71 110 75 107 C 75 106 76 105 77 105 C 77 89 77 73 77 57 C 77 41 77 26 77 10 C 76 9 75 8 75 8 C 70 4 59 3 55 7 C 55 8 53 9 52 9 C 52 20 52 29 52 40 C 53 57 53 71 53 73 C 56 80 49 91 43 91 C 33 91 32 87 33 45 C 34 5 34 5 22 5 C 15 4 14 4 11 8 z" fill="black"/><!-- width=91 height=124 -->
<path id="gl15898" d="M 31 5 C 15 7 8 13 8 27 C 7 44 13 54 31 64 C 48 73 53 82 46 88 C 41 95 29 90 29 82 C 29 76 13 71 8 76 C 5 80 7 92 13 100 C 19 107 27 110 40 110 C 62 110 72 102 74 87 C 77 73 71 63 55 53 C 31 39 27 33 35 26 C 40 20 48 22 50 31 C 54 38 55 39 67 38 C 72 38 73 38 74 34 C 78 22 67 7 52 6 C 39 5 38 5 31 5 z" fill="black"/><!-- width=87 height=123 -->
<path id="gl34063" d="M 9 7 C 7 9 8 136 10 139 C 13 143 59 141 67 138 C 88 130 94 92 78 73 C 73 69 73 65 77 60 C 81 56 84 48 84 40 C 84 23 76 10 64 7 C 54 4 12 4 9 7 M 52 27 C 55 30 58 36 58 42 C 58 56 43 66 35 58 C 31 53 30 35 33 29 C 38 24 46 24 52 27 M 54 82 C 64 88 64 115 53 118 C 43 122 35 121 33 115 C 31 110 31 89 33 86 C 36 80 46 78 54 82 z" fill="black"/><!-- width=99 height=153 -->
<path id="gl15879" d="M 32 7 C 20 8 15 12 10 21 C 6 27 6 86 8 95 C 19 121 67 120 74 93 C 78 79 76 76 64 76 C 57 76 50 79 50 86 C 50 92 40 97 34 92 C 27 88 26 72 32 67 C 36 63 36 63 53 64 C 72 65 72 64 74 60 C 77 57 76 35 73 25 C 68 11 53 3 32 7 M 49 27 C 54 32 52 44 45 46 C 36 49 29 44 29 36 C 29 26 41 21 49 27 z" fill="black"/><!-- width=87 height=126 -->
<path id="gl16641" d="M 9 6 C 9 7 8 8 7 8 C 7 30 7 51 7 73 C 7 94 7 117 7 137 C 8 139 9 139 11 140 C 13 142 22 142 25 140 C 30 137 30 131 29 98 C 29 70 29 67 30 64 C 35 54 43 52 49 60 C 51 62 51 65 51 99 C 50 112 50 124 50 135 C 51 136 52 137 54 139 C 56 142 57 142 64 141 C 76 141 76 142 75 93 C 75 80 75 66 75 52 C 73 50 72 49 71 46 C 66 36 54 34 44 39 C 32 44 28 40 29 22 C 29 18 30 13 30 9 C 29 8 28 7 27 7 C 23 3 14 3 9 6 z" fill="black"/><!-- width=88 height=152 -->
<path id="gl15881" d="M 28 7 C 13 9 3 22 6 34 C 7 40 20 40 25 34 C 34 23 39 20 46 27 C 55 33 49 43 32 49 C 14 55 8 61 7 74 C 2 103 18 119 40 109 C 45 107 49 106 50 107 C 51 107 55 108 58 109 C 64 112 70 111 74 108 C 75 106 75 33 74 24 C 72 18 64 9 58 8 C 50 6 34 4 28 7 M 50 64 C 51 69 51 82 48 87 C 39 102 22 87 30 71 C 35 64 46 59 50 64 z" fill="black"/><!-- width=87 height=124 -->
<path id="gl15884" d="M 11 6 C 6 7 6 12 11 32 C 17 57 24 88 26 98 C 28 109 31 110 44 110 C 58 110 60 109 62 98 C 65 83 77 37 79 26 C 84 8 83 4 70 4 C 58 4 57 7 54 26 C 51 70 39 72 34 27 C 34 19 33 11 33 9 C 31 6 19 3 11 6 z" fill="black"/><!-- width=94 height=120 -->
<path id="gl15892" d="M 12 6 C 7 7 6 8 6 16 C 6 25 10 27 18 27 C 28 27 32 22 31 12 C 30 6 20 2 12 6 M 10 41 C 6 44 6 138 10 141 C 13 143 25 143 27 141 C 28 139 30 139 31 138 C 31 123 31 107 31 91 C 31 36 31 40 18 40 C 15 40 11 40 10 41 z" fill="black"/><!-- width=44 height=153 -->
<path id="gl16134" d="M 31 7 C 11 9 6 23 7 71 C 8 106 13 112 40 112 C 66 112 74 105 75 74 C 76 55 75 32 73 26 C 68 11 52 3 31 7 M 49 29 C 50 31 52 32 53 33 C 53 42 53 50 53 60 C 53 69 53 78 53 88 C 52 89 50 90 49 91 C 44 95 38 95 33 91 C 32 90 31 89 29 89 C 29 79 29 69 29 60 C 29 32 29 32 32 28 C 37 23 44 23 49 29 z" fill="black"/><!-- width=88 height=125 -->
<path id="gl16417" d="M 10 4 C 7 7 7 101 10 103 C 14 105 26 105 30 103 C 30 102 31 101 32 101 C 32 91 32 81 32 73 C 31 36 33 30 45 30 C 54 30 56 27 56 18 C 57 2 52 0 42 7 C 34 10 33 10 30 7 C 26 3 14 1 10 4 z" fill="black"/><!-- width=68 height=115 -->
<path id="gl15912" d="M 37 8 C 33 10 33 14 32 20 C 31 25 29 37 26 48 C 22 59 19 76 16 88 C 14 99 10 113 9 119 C 4 140 6 144 16 144 C 29 145 32 141 35 125 C 36 111 39 107 50 107 C 64 107 67 111 70 124 C 71 141 75 145 87 145 C 100 145 101 139 96 121 C 95 114 91 102 89 94 C 88 84 84 68 82 59 C 79 49 76 33 75 26 C 71 6 71 6 53 6 C 41 4 41 4 37 8 M 58 59 C 64 75 61 88 52 88 C 43 88 41 79 45 64 C 49 50 54 49 58 59 z" fill="black"/><!-- width=111 height=153 -->
<path id="gl35587" d="M 40 8 C 35 9 33 9 27 8 C 20 6 10 7 8 9 C 8 10 7 94 7 101 C 8 110 21 112 29 107 C 31 104 31 107 30 64 C 30 37 30 36 32 31 C 37 24 46 24 50 31 C 53 36 53 38 52 70 C 52 81 50 92 50 104 C 52 104 53 105 54 106 C 58 110 69 111 73 106 C 76 104 76 104 76 64 C 76 21 75 19 70 13 C 65 6 50 3 40 8 z" fill="black"/><!-- width=88 height=122 -->
<path id="gl15891" d="M 8 7 C 4 8 6 14 17 33 C 29 57 29 55 16 80 C 2 105 2 110 16 109 C 26 109 29 108 32 100 C 38 85 44 85 49 100 C 52 106 53 108 63 109 C 78 110 80 105 73 93 C 64 80 54 59 54 55 C 54 52 64 33 72 21 C 79 9 77 4 64 4 C 55 4 52 7 49 14 C 44 24 38 24 34 14 C 33 12 31 8 29 8 C 27 6 12 4 8 7 z" fill="black"/><!-- width=86 height=120 -->
<path id="gl15892" d="M 12 6 C 7 7 6 8 6 16 C 6 25 10 27 18 27 C 28 27 32 22 31 12 C 30 6 20 2 12 6 M 10 41 C 6 44 6 138 10 141 C 13 143 25 143 27 141 C 28 139 30 139 31 138 C 31 123 31 107 31 91 C 31 36 31 40 18 40 C 15 40 11 40 10 41 z" fill="black"/><!-- width=44 height=153 -->
<path id="gl15885" d="M 30 6 C 11 12 8 18 8 56 C 8 96 11 101 24 108 C 40 117 64 112 71 100 C 81 85 79 75 67 75 C 59 74 55 76 54 82 C 48 100 30 95 30 76 C 30 64 35 61 58 63 C 79 64 79 64 77 44 C 76 23 72 13 61 8 C 55 6 38 4 30 6 M 50 28 C 54 32 54 38 51 43 C 48 46 37 46 33 43 C 24 32 42 17 50 28 z" fill="black"/><!-- width=90 height=123 -->
<path id="gl15907" d="M 18 7 C 16 10 15 12 16 20 C 16 28 16 30 12 33 C 6 40 6 51 12 53 C 16 55 16 60 16 93 C 16 132 16 132 26 137 C 45 146 58 132 45 118 C 43 116 42 115 41 112 C 41 103 41 95 41 85 C 41 76 41 67 41 57 C 42 56 43 55 45 53 C 50 48 50 47 50 43 C 50 40 50 38 45 35 C 41 30 41 28 41 20 C 41 7 38 5 27 5 C 22 5 20 6 18 7 z" fill="black"/><!-- width=61 height=150 -->
<path id="gl16647" d="M 58 6 C 54 8 53 13 50 29 C 48 69 36 67 32 23 C 29 7 28 6 16 6 C 4 6 1 9 6 21 C 7 23 8 29 9 36 C 12 42 16 58 19 73 C 31 120 31 120 21 124 C 8 129 13 145 26 145 C 43 144 49 137 55 106 C 63 75 65 68 67 62 C 68 57 70 48 72 40 C 73 33 75 24 76 22 C 79 14 79 8 75 6 C 73 3 63 3 58 6 z" fill="black"/><!-- width=89 height=155 -->
<path id="gl32528" d="M 29 6 C 20 9 13 15 10 24 C 7 34 8 120 12 129 C 17 139 24 144 41 144 C 66 146 79 136 80 108 C 81 97 81 96 85 92 C 88 87 88 80 83 76 C 82 76 81 75 81 74 C 81 68 81 60 81 54 C 81 25 76 14 64 8 C 58 6 35 4 29 6 M 51 29 C 52 30 53 31 54 32 C 54 47 54 60 54 75 C 54 88 54 103 54 116 C 53 118 52 119 51 120 C 47 125 42 125 37 121 C 31 116 31 115 31 73 C 32 59 32 46 32 32 C 34 31 35 30 36 29 C 41 25 46 25 51 29 z" fill="black"/><!-- width=96 height=158 -->
<path id="gl31763" d="M 4 7 C 3 8 4 25 6 26 C 7 27 24 27 47 27 C 93 26 92 26 92 16 C 92 7 93 7 47 7 C 24 7 4 7 4 7 z" fill="black"/><!-- width=103 height=40 -->
<path id="gl31764" d="M 45 7 C 44 7 42 11 39 14 C 34 22 29 26 22 27 C 7 29 3 34 7 43 C 8 48 9 49 22 49 C 38 49 37 45 37 95 C 37 110 35 123 35 137 C 37 138 38 140 39 140 C 44 143 55 143 59 141 C 60 140 61 138 63 138 C 63 117 63 95 63 74 C 63 53 63 30 63 9 C 61 9 60 8 59 7 C 57 4 49 4 45 7 z" fill="black"/><!-- width=75 height=153 -->
<path id="gl32530" d="M 25 8 C 8 16 7 20 7 76 C 7 126 7 130 17 138 C 30 148 59 146 70 135 C 77 126 79 123 79 74 C 79 60 79 45 79 31 C 77 28 76 26 75 23 C 70 11 60 7 42 7 C 35 7 30 7 25 8 M 46 27 C 53 31 53 35 53 76 C 53 118 52 120 46 123 C 41 125 37 124 33 119 C 32 118 31 116 30 115 C 31 101 31 89 31 75 C 31 61 31 47 31 33 C 32 32 33 31 35 30 C 40 26 41 26 46 27 z" fill="black"/><!-- width=91 height=156 -->
<path id="gl31765" d="M 28 7 C 21 10 13 17 11 25 C 8 35 8 115 11 124 C 15 138 26 144 45 144 C 65 144 77 135 80 118 C 82 106 82 36 80 27 C 75 10 52 0 28 7 M 51 28 C 56 33 56 36 56 75 C 56 118 55 120 47 121 C 42 123 40 123 36 119 C 36 118 35 116 33 115 C 33 103 33 90 33 76 C 33 36 33 31 38 28 C 42 26 49 26 51 28 z" fill="black"/><!-- width=95 height=157 -->
<path id="gl35588" d="M 8247 3 C 8244 6 8212 6 8211 4 C 8210 2 8199 2 8198 3 C 8198 4 7954 6 7613 6 C 6750 6 6609 7 6609 8 C 6607 10 6603 10 6601 8 C 6601 7 6546 7 6546 9 C 6545 10 6520 10 6520 9 C 6520 8 6517 7 6514 7 C 6510 7 6507 8 6507 9 C 6507 10 6483 10 6481 8 C 6481 7 6331 7 6329 8 C 6328 10 6060 10 6059 8 C 6057 6 6054 6 6050 8 C 6048 10 5916 10 5916 9 C 5914 7 5912 7 5911 8 C 5911 9 4966 12 4700 12 C 4641 12 4631 12 4629 13 C 4627 15 4615 15 4613 13 C 4611 13 4610 13 4610 13 C 4609 15 4508 15 4507 13 C 4506 12 4500 12 4500 13 C 4500 14 4474 15 4426 15 C 4378 15 4354 14 4354 13 C 4354 13 4347 12 4335 12 C 4323 12 4317 13 4317 13 C 4317 14 4315 15 4311 15 C 4309 15 4306 14 4306 13 C 4306 13 4301 12 4294 12 C 4287 12 4282 13 4282 13 C 4282 15 4268 15 4267 13 C 4265 12 4258 12 4258 13 C 4258 15 4239 15 4238 13 C 4237 12 4226 12 4226 13 C 4226 15 4210 15 4209 13 C 4209 12 4111 10 4106 13 C 4101 15 4018 15 4017 13 C 4016 10 4005 10 4000 13 C 3996 15 3912 15 3912 13 C 3912 13 3910 12 3908 12 C 3905 12 3904 13 3904 13 C 3904 14 3896 15 3881 15 C 3867 15 3858 14 3858 13 C 3858 13 3858 12 3857 12 C 3856 12 3856 13 3856 13 C 3856 14 3851 15 3845 15 C 3839 15 3834 14 3834 13 C 3834 13 3831 12 3823 12 C 3816 12 3813 13 3813 13 C 3813 14 3810 15 3807 15 C 3804 15 3802 14 3802 13 C 3802 13 3797 12 3792 12 C 3787 12 3783 13 3783 13 C 3783 14 3781 15 3780 15 C 3779 15 3778 14 3778 13 C 3778 13 3775 12 3773 12 C 3771 12 3769 13 3769 13 C 3769 14 3767 15 3763 15 C 3761 15 3759 14 3759 13 C 3759 12 3755 12 3754 13 C 3754 14 3552 15 2268 16 C 2060 16 2006 16 2006 18 C 2005 20 1972 20 1970 18 C 1970 16 1958 16 1958 18 C 1957 20 1952 20 1951 18 C 1951 15 1848 15 1848 18 C 1847 20 1664 20 1664 18 C 1664 18 1662 18 1659 18 C 1657 18 1656 18 1656 18 C 1656 19 1652 19 1647 19 C 1642 19 1640 19 1640 18 C 1640 18 1638 18 1635 18 C 1633 18 1632 18 1632 18 C 1632 19 1624 19 1614 19 C 1603 19 1597 19 1597 18 C 1597 18 1592 18 1587 18 C 1582 18 1578 18 1578 18 C 1578 19 1570 19 1556 19 C 1542 19 1534 19 1534 18 C 1534 18 1527 18 1518 18 C 1508 18 1501 18 1501 18 C 1501 20 1385 20 1384 18 C 1384 15 1355 15 1353 18 C 1351 20 1261 21 1261 19 C 1259 16 1252 16 1251 18 C 1251 20 1066 20 1062 18 C 1060 15 1043 15 1041 18 C 1038 19 980 20 522 20 C 80 20 4 20 3 22 C 1 25 0 28 2 31 C 4 32 13 32 99 32 C 162 32 195 33 195 34 C 195 34 195 36 196 36 C 198 36 198 34 198 34 C 198 32 236 32 238 34 C 240 37 248 37 251 34 C 253 32 260 32 263 34 C 264 37 294 37 294 34 C 295 32 315 32 315 34 C 315 34 317 36 319 36 C 321 36 324 34 324 34 C 324 33 396 32 540 32 C 684 32 756 33 756 34 C 756 36 769 36 771 34 C 771 33 1094 32 1647 32 C 2555 31 2585 31 2585 30 C 2586 27 2807 27 2809 30 C 2809 31 2849 31 2849 30 C 2851 27 2855 27 2857 30 C 2857 31 3075 31 3075 30 C 3076 27 3087 27 3087 30 C 3087 30 3088 30 3091 30 C 3093 30 3096 30 3096 30 C 3096 27 3152 27 3155 30 C 3156 32 3165 32 3168 30 C 3169 27 3203 27 3203 30 C 3203 30 3203 30 3204 30 C 3205 30 3205 30 3205 30 C 3205 28 3210 28 3216 28 C 3222 28 3227 28 3227 30 C 3227 30 3227 30 3228 30 C 3229 30 3230 30 3230 30 C 3230 27 3248 27 3249 30 C 3252 31 3259 31 3259 28 C 3259 28 3269 28 3281 28 C 3295 28 3302 28 3302 30 C 3302 30 3305 30 3307 30 C 3309 30 3311 30 3311 30 C 3311 27 3331 27 3332 30 C 3332 31 3354 31 3354 30 C 3355 27 3366 27 3366 30 C 3366 30 3370 30 3374 30 C 3379 30 3383 30 3383 30 C 3383 27 3392 27 3394 30 C 3396 31 3448 32 3450 30 C 3452 27 3509 27 3510 30 C 3510 31 3530 31 3532 30 C 3533 28 3700 28 4161 27 C 5232 26 5297 26 5300 25 C 5301 22 5315 22 5316 24 C 5319 26 5513 26 5516 25 C 5517 22 5536 22 5537 24 C 5540 26 5653 26 5655 25 C 5656 22 5695 22 5695 24 C 5695 25 5697 25 5699 25 C 5702 25 5703 25 5703 24 C 5703 24 5711 24 5723 24 C 5735 24 5744 24 5744 24 C 5744 25 5745 25 5747 25 C 5750 25 5751 25 5751 24 C 5751 24 5756 24 5762 24 C 5768 24 5773 24 5773 24 C 5773 25 5776 25 5781 25 C 5786 25 5790 25 5790 24 C 5790 22 5889 22 5893 25 C 5894 26 5895 26 5895 25 C 5896 22 5911 22 5912 24 C 5912 26 5922 27 5924 25 C 5926 22 5944 22 5946 25 C 5946 27 5971 27 5972 25 C 5974 22 6012 21 6012 24 C 6013 26 6025 26 6025 24 C 6025 24 6027 24 6029 24 C 6030 24 6031 24 6031 24 C 6031 26 6035 26 6036 25 C 6036 24 6515 22 6939 22 C 7153 22 7180 21 7183 20 C 7185 18 7645 18 7646 20 C 7646 22 7668 22 7668 20 C 7669 18 7693 18 7693 19 C 7693 20 7696 20 7698 20 C 7700 20 7702 20 7702 19 C 7702 18 8017 18 8021 20 C 8022 21 8023 21 8023 20 C 8025 18 8180 18 8180 19 C 8180 21 8192 21 8193 19 C 8193 19 8278 18 8516 18 C 8766 18 8839 16 8840 16 C 8844 13 8842 8 8838 4 C 8836 3 8835 2 8834 1 C 8810 2 8787 2 8764 2 C 8706 2 8695 2 8694 3 C 8691 6 8688 6 8686 3 C 8686 1 8248 1 8247 3 z" fill="black"/><!-- width=8848 height=43 -->
<path id="gl35589" d="M 7904 2 C 7575 2 7489 2 7488 3 C 7487 6 7472 6 7471 3 C 7471 2 7408 2 7406 3 C 7405 4 7017 6 6444 6 C 5434 7 5352 7 5350 9 C 5349 10 5344 10 5343 8 C 5340 7 5288 7 5288 8 C 5286 10 5229 10 5229 9 C 5229 8 5224 8 5219 8 C 5214 8 5211 8 5211 9 C 5211 10 5195 10 5194 8 C 5193 8 5191 8 5191 8 C 5190 10 5008 10 5006 9 C 5005 7 4981 7 4980 9 C 4979 9 4646 10 4078 10 C 2674 12 2727 12 2727 13 C 2726 15 2639 15 2638 13 C 2636 12 2624 12 2621 13 C 2620 14 2202 15 1315 15 C 880 15 444 16 9 16 C 8 18 7 19 6 20 C 4 21 3 22 2 24 C 3 25 4 26 6 27 C 7 30 8 31 9 32 C 97 32 186 32 275 32 C 420 32 795 31 1106 31 C 1606 31 1670 31 1672 30 C 1675 27 1687 27 1689 30 C 1692 31 1706 31 1706 30 C 1707 27 1782 27 1785 30 C 1788 32 1790 32 1793 30 C 1795 28 1968 28 3045 27 C 4112 26 4295 26 4299 25 C 4304 22 4345 22 4346 25 C 4346 27 4404 27 4406 25 C 4407 22 4417 22 4417 24 C 4417 26 4434 26 4435 25 C 4436 24 4850 22 5447 22 C 6492 21 6587 21 6587 19 C 6588 18 6603 18 6604 20 C 6606 21 6637 21 6640 20 C 6641 18 6646 18 6647 19 C 6648 21 6696 21 6697 19 C 6699 18 6703 18 6703 19 C 6703 20 6708 20 6713 20 C 6718 20 6723 20 6723 19 C 6723 19 6728 19 6737 19 C 6747 19 6752 19 6752 19 C 6752 21 6759 21 6760 19 C 6761 18 6766 18 6767 20 C 6770 21 6815 21 6818 20 C 6819 18 6828 18 6830 19 C 6831 21 6850 21 6851 19 C 6852 18 6863 18 6863 19 C 6863 21 6879 21 6880 19 C 6881 18 6944 18 6945 19 C 6946 21 7009 21 7010 19 C 7011 19 7290 18 7926 18 C 8230 18 8535 16 8840 16 C 8841 15 8842 14 8844 13 C 8847 9 8847 4 8845 2 C 8842 1 8638 1 7904 2 z" fill="black"/><!-- width=8853 height=38 -->
<path id="gl35590" d="M 8464 1 C 8461 1 8354 2 8226 2 C 8043 2 7993 2 7992 3 C 7991 6 7986 6 7985 3 C 7985 1 7882 1 7882 3 C 7880 6 7876 6 7874 3 C 7872 1 7527 1 7525 3 C 7524 6 7520 6 7519 4 C 7518 2 7511 2 7511 4 C 7511 6 7506 6 7505 4 C 7503 2 7499 2 7497 3 C 7496 4 6732 6 5985 7 C 5662 7 5608 7 5606 8 C 5602 10 5599 10 5597 9 C 5596 7 5558 7 5557 9 C 5555 10 5551 10 5549 9 C 5549 7 5482 7 5480 8 C 5478 10 5392 10 5391 9 C 5390 7 5370 7 5369 9 C 5368 10 5190 10 5189 9 C 5189 8 5188 8 5187 8 C 5185 9 4340 12 3360 12 C 2853 12 2731 12 2728 13 C 2725 14 1771 15 575 16 C 313 16 273 16 272 18 C 270 20 267 20 265 18 C 264 16 248 16 136 16 C 94 16 52 16 9 16 C 8 16 7 18 6 19 C 1 24 1 24 4 28 C 7 30 7 31 8 32 C 122 32 235 32 349 31 C 1437 31 1709 31 1711 30 C 1712 27 2000 27 2000 28 C 2000 30 2002 30 2003 30 C 2004 30 2005 30 2005 28 C 2005 27 2008 27 2011 30 C 2012 31 2014 31 2014 30 C 2015 27 2106 27 2107 30 C 2107 31 2107 31 2110 30 C 2111 27 2125 27 2126 30 C 2129 31 2158 31 2158 28 C 2159 28 2560 27 3313 27 C 4301 26 4467 26 4470 25 C 4471 22 4476 22 4476 24 C 4476 25 4477 25 4479 25 C 4482 25 4484 25 4484 24 C 4484 22 4507 22 4509 25 C 4510 27 4520 26 4521 24 C 4522 22 4551 22 4551 24 C 4551 25 4552 25 4554 25 C 4555 25 4556 25 4556 24 C 4556 22 4758 22 4759 25 C 4760 25 4760 25 4761 25 C 4763 22 4854 22 4855 24 C 4856 26 4861 26 4862 24 C 4864 22 4950 22 4951 24 C 4952 26 4957 26 4958 24 C 4960 22 4979 22 4980 24 C 4981 26 4991 26 4992 25 C 4993 24 5297 22 5790 22 C 6227 22 6693 21 6825 21 C 7016 21 7066 21 7067 20 C 7069 18 7073 18 7075 20 C 7076 20 7076 20 7077 20 C 7078 18 7126 18 7126 19 C 7126 21 7130 21 7131 19 C 7131 19 7420 18 7985 18 C 8686 16 8839 16 8840 15 C 8842 14 8842 4 8841 2 C 8840 1 8485 1 8464 1 z" fill="black"/><!-- width=8848 height=38 -->
<path id="gl35591" d="M 8475 4 C 8474 4 8319 6 7938 6 C 7392 7 7321 7 7318 9 C 7317 10 7303 10 7302 8 C 7299 6 7220 6 7218 8 C 7216 10 7212 10 7210 9 C 7209 7 7200 7 7198 9 C 7197 10 7111 10 7110 8 C 7110 7 7090 7 7088 8 C 7087 10 7077 10 7076 8 C 7075 8 7074 8 7074 8 C 7072 10 7063 10 7062 9 C 7060 7 7036 7 7035 9 C 7034 10 7024 10 7023 9 C 7022 7 6902 7 6901 9 C 6900 10 6895 10 6894 9 C 6892 7 6878 7 6877 9 C 6876 10 6871 10 6870 9 C 6868 7 6859 7 6858 9 C 6856 10 6837 10 6836 9 C 6835 7 6794 7 6794 9 C 6794 10 6789 10 6788 9 C 6787 7 6706 7 6704 8 C 6703 9 6511 10 5980 10 C 5584 10 5148 12 5011 12 C 4815 12 4761 12 4760 13 C 4759 15 4720 15 4719 13 C 4718 12 4704 12 4702 13 C 4701 14 4302 15 3711 15 C 3166 15 2682 16 2632 16 C 2564 16 2544 16 2542 18 C 2541 20 2474 20 2473 19 C 2472 16 2462 16 2461 19 C 2460 20 2402 20 2401 19 C 2400 16 2390 16 2389 19 C 2388 20 2378 20 2377 19 C 2376 16 2356 16 2355 19 C 2354 20 2325 20 2324 18 C 2324 16 2312 16 2312 18 C 2311 20 2296 20 2295 19 C 2294 16 2284 16 2283 19 C 2281 20 2230 20 2228 19 C 2227 16 2212 16 2211 19 C 2210 20 2181 20 2180 18 C 2180 15 2163 15 2163 18 C 2162 20 2095 20 2095 19 C 2095 16 2073 16 2072 19 C 2071 20 1936 20 1935 19 C 1934 16 1924 16 1923 19 C 1922 20 1917 20 1916 19 C 1915 16 1910 16 1909 19 C 1908 19 1634 20 1083 20 C -72 21 13 21 13 22 C 12 24 9 25 8 25 C 2 26 1 27 4 32 C 6 33 7 36 8 37 C 144 37 278 37 412 36 C 1405 36 1664 36 1666 34 C 1668 32 1682 32 1683 33 C 1684 36 1689 36 1690 34 C 1692 33 2078 32 2718 32 C 4135 31 4270 31 4273 30 C 4274 27 4370 27 4371 30 C 4371 30 4372 30 4374 30 C 4375 28 4975 27 5898 26 C 6165 26 6235 26 6236 25 C 6237 22 6247 22 6248 25 C 6250 26 6315 26 6318 25 C 6319 24 6742 22 7897 21 C 8293 21 8395 21 8396 20 C 8397 18 8412 18 8413 19 C 8414 21 8443 21 8444 19 C 8445 18 8464 18 8466 20 C 8468 21 8559 21 8559 20 C 8560 18 8575 18 8576 19 C 8577 21 8596 21 8598 19 C 8599 18 8656 18 8658 20 C 8660 21 8780 21 8780 20 C 8781 18 8791 18 8792 20 C 8794 21 8827 21 8828 20 C 8829 19 8830 18 8832 18 C 8834 16 8835 15 8834 12 C 8834 9 8834 8 8834 7 C 8832 7 8829 6 8827 6 C 8822 6 8820 4 8820 3 C 8820 3 8818 3 8817 3 C 8816 3 8815 3 8815 3 C 8815 6 8805 6 8804 3 C 8804 2 8804 2 8802 3 C 8800 6 8767 6 8766 3 C 8764 2 8754 2 8752 4 C 8752 6 8485 6 8482 3 C 8481 2 8476 2 8475 4 z" fill="black"/><!-- width=8842 height=44 -->
<path id="gl35592" d="M 8065 2 C 8056 2 8049 3 8048 3 C 8047 6 8028 6 8026 3 C 8025 3 8025 3 8024 3 C 8023 6 7898 6 7897 3 C 7897 2 7896 2 7894 3 C 7893 4 7632 6 6531 7 C 6196 7 6110 7 6109 8 C 6108 10 6091 10 6087 8 C 6084 7 5991 7 5989 9 C 5988 10 5978 10 5977 9 C 5977 8 5976 8 5974 9 C 5972 10 5931 10 5929 9 C 5928 7 5774 7 5773 9 C 5772 10 5767 10 5766 9 C 5764 7 5670 7 5667 8 C 5666 9 5445 10 5083 10 C 4430 12 4417 12 4414 13 C 4413 15 4408 15 4407 13 C 4405 12 4381 12 4381 13 C 4380 15 4370 15 4369 13 C 4366 12 3567 12 3565 13 C 3564 15 3554 15 3553 13 C 3552 12 3542 12 3541 13 C 3540 15 3482 15 3481 13 C 3480 12 3460 12 3459 13 C 3458 15 3448 15 3447 13 C 3446 12 3417 12 3416 13 C 3415 15 3055 15 3054 13 C 3052 12 3043 12 3042 13 C 3040 15 2988 15 2986 13 C 2985 12 2956 12 2955 13 C 2954 15 2120 16 1320 16 C 912 16 806 16 805 18 C 804 20 770 20 769 18 C 766 16 675 16 675 19 C 674 20 583 20 583 19 C 583 16 576 16 574 19 C 574 19 478 19 292 19 C 106 19 10 20 7 21 C 2 22 0 27 3 30 C 4 32 13 32 72 32 C 112 32 136 33 136 33 C 136 36 158 36 159 33 C 160 32 180 32 181 34 C 182 34 183 34 183 34 C 184 32 242 32 243 34 C 243 36 255 36 255 34 C 256 32 333 32 334 33 C 334 34 336 34 337 33 C 338 33 646 32 1365 32 C 2604 31 2530 31 2530 30 C 2532 27 2781 27 2782 30 C 2784 31 2808 31 2809 30 C 2810 27 2834 27 2835 30 C 2836 31 2928 31 2929 30 C 2930 27 2940 27 2941 30 C 2942 31 2952 31 2953 30 C 2954 27 2978 27 2979 30 C 2982 31 3048 32 3051 30 C 3057 27 3174 27 3176 30 C 3177 31 3192 31 3193 30 C 3194 27 3228 27 3229 30 C 3230 31 3259 31 3260 30 C 3261 27 3295 27 3296 30 C 3297 31 3302 31 3303 30 C 3304 27 3357 27 3358 30 C 3360 31 3364 31 3366 30 C 3367 27 3400 27 3402 30 C 3403 31 3412 31 3414 30 C 3415 27 3424 27 3426 30 C 3427 31 3441 31 3442 30 C 3444 28 4006 27 4921 26 C 5113 26 5164 26 5166 25 C 5167 22 5172 22 5173 24 C 5174 26 5232 26 5233 24 C 5234 22 5248 22 5250 24 C 5251 26 5260 26 5262 24 C 5263 22 5282 22 5283 25 C 5284 25 5286 25 5286 25 C 5287 22 5325 22 5326 25 C 5328 25 5329 25 5329 25 C 5330 22 5378 22 5379 25 C 5380 25 5380 25 5382 25 C 5383 22 5392 22 5394 24 C 5395 26 5467 26 5468 24 C 5469 22 5493 22 5494 24 C 5496 26 5510 26 5511 24 C 5512 22 5589 22 5590 24 C 5592 26 5620 26 5622 24 C 5624 22 5660 22 5662 24 C 5664 26 5674 26 5674 24 C 5674 22 5743 22 5744 24 C 5745 26 5764 26 5766 24 C 5767 22 5839 22 5840 24 C 5841 26 5856 26 5857 24 C 5858 22 5896 22 5898 24 C 5899 26 5936 26 5940 24 C 5944 21 5954 22 5955 25 C 5956 26 6028 26 6030 24 C 6031 24 6238 22 6588 22 C 7162 21 7232 21 7234 19 C 7236 18 7255 18 7256 20 C 7257 20 7258 20 7258 20 C 7260 18 7538 18 7539 19 C 7540 21 7548 21 7548 19 C 7548 18 7658 18 7659 19 C 7660 21 7666 21 7666 19 C 7666 19 7720 19 7824 19 C 7927 19 7981 19 7981 19 C 7982 21 8016 21 8017 19 C 8018 18 8023 18 8024 19 C 8025 21 8035 21 8036 19 C 8036 19 8042 19 8047 19 C 8053 19 8058 19 8058 19 C 8058 20 8062 21 8066 21 C 8071 21 8074 20 8074 19 C 8074 19 8089 19 8112 19 C 8134 19 8149 19 8149 19 C 8150 21 8188 21 8190 19 C 8191 18 8260 18 8511 18 C 8619 18 8725 18 8833 18 C 8833 16 8834 15 8835 13 C 8839 9 8839 7 8835 7 C 8834 7 8832 6 8829 3 C 8828 3 8827 2 8826 1 C 8702 1 8577 2 8454 2 C 8248 2 8073 2 8065 2 z" fill="black"/><!-- width=8847 height=44 -->
<path id="gl35840" d="M 7765 2 C 7758 2 7750 3 7750 4 C 7749 4 7405 6 6811 6 C 5547 7 5593 7 5590 8 C 5589 10 5556 10 5554 9 C 5553 7 5529 7 5528 9 C 5527 10 5498 10 5497 9 C 5496 7 5486 7 5485 8 C 5484 9 5074 10 3794 12 C 3406 12 3307 12 3306 13 C 3304 15 3300 15 3298 13 C 3297 12 3249 12 3248 13 C 3247 15 3232 15 3231 13 C 3229 10 2852 12 2850 13 C 2848 15 2810 15 2809 13 C 2808 13 2808 13 2806 13 C 2805 14 2518 15 1828 15 C 447 16 481 16 478 18 C 477 20 463 20 462 18 C 459 16 337 16 334 18 C 333 20 295 20 294 19 C 294 16 183 16 181 18 C 180 19 160 20 93 20 C 36 20 6 20 3 21 C 1 22 1 30 3 31 C 6 32 289 32 900 32 C 2005 31 2101 31 2103 30 C 2104 27 2109 27 2110 30 C 2113 31 2384 31 2386 28 C 2388 27 2421 27 2422 28 C 2424 31 2428 31 2430 30 C 2431 28 2847 27 3440 27 C 4513 26 4516 26 4519 25 C 4520 22 4533 22 4534 25 C 4536 26 4550 26 4551 25 C 4552 22 4605 22 4606 25 C 4608 26 4641 26 4642 25 C 4644 22 4744 22 4746 25 C 4747 26 4806 26 4806 25 C 4806 22 4821 22 4822 25 C 4824 26 4848 26 4849 25 C 4850 22 4869 22 4870 25 C 4873 26 4923 26 4926 25 C 4927 22 4936 22 4938 25 C 4939 26 4989 26 4989 25 C 4989 22 4999 22 5000 25 C 5001 26 5011 26 5012 25 C 5013 22 5042 22 5043 25 C 5044 26 5092 26 5094 25 C 5095 22 5388 22 5389 25 C 5390 26 5419 26 5420 25 C 5422 22 5919 22 5922 25 C 5923 25 5924 25 5924 25 C 5925 22 5983 22 5984 25 C 5985 26 5995 26 5996 24 C 5997 24 6123 22 6512 22 C 7153 21 7150 21 7153 20 C 7154 18 7168 18 7170 20 C 7171 21 7180 21 7182 20 C 7183 19 7512 18 8007 18 C 8596 18 8832 16 8833 15 C 8835 13 8835 9 8832 4 C 8830 3 8829 2 8828 2 C 8718 2 8608 2 8499 2 C 8238 2 8169 2 8168 3 C 8167 6 8157 6 8156 3 C 8154 2 8084 2 8082 3 C 8080 6 8065 6 8065 4 C 8065 2 8059 2 8058 4 C 8058 4 8031 6 7984 6 C 7936 6 7912 4 7912 4 C 7912 2 7896 2 7894 4 C 7893 6 7816 6 7815 4 C 7814 3 7785 2 7765 2 z" fill="black"/><!-- width=8842 height=39 -->
<path id="gl35841" d="M 8809 1 C 8808 1 8521 2 8170 2 C 7693 2 7532 2 7531 3 C 7530 4 6873 6 5841 7 C 5501 7 5434 7 5432 8 C 5428 10 5411 10 5410 8 C 5409 8 5408 8 5408 8 C 5406 10 5402 10 5400 9 C 5398 7 5380 7 5378 8 C 5376 10 5334 10 5333 9 C 5332 7 5327 7 5326 9 C 5325 9 4860 10 4066 10 C 2831 12 2734 12 2732 14 C 2731 15 2711 15 2710 14 C 2709 12 2680 12 2679 14 C 2678 15 2668 15 2667 13 C 2665 10 2580 12 2578 13 C 2577 15 2394 15 2393 14 C 2392 12 2387 12 2386 14 C 2385 15 2346 15 2345 13 C 2344 13 2344 13 2343 13 C 2341 15 2284 15 2283 14 C 2281 12 2272 12 2271 14 C 2269 15 2250 15 2249 14 C 2248 12 2233 12 2232 14 C 2231 15 2221 15 2220 14 C 2219 12 2185 12 2184 14 C 2183 15 2178 15 2177 14 C 2176 12 2171 12 2170 14 C 2169 15 2154 15 2153 14 C 2152 12 2142 12 2141 14 C 2140 15 2135 15 2134 13 C 2131 12 2076 12 2074 14 C 2072 15 2048 15 2047 14 C 2046 12 2032 12 2030 14 C 2029 15 1555 15 1552 14 C 1551 13 1551 13 1550 14 C 1548 15 1464 15 1461 14 C 1460 12 1455 12 1454 14 C 1453 15 1409 15 1408 14 C 1408 13 1407 13 1406 14 C 1403 15 1319 15 1317 13 C 1316 13 1315 13 1315 14 C 1313 15 1286 15 1191 15 C 1097 15 1068 15 1067 14 C 1066 13 1066 13 1065 14 C 1062 15 1036 15 1034 14 C 1032 13 1032 13 1031 14 C 1029 15 988 15 986 14 C 984 13 984 13 983 14 C 982 15 850 15 493 15 C 146 16 4 16 3 18 C 2 18 2 20 2 22 C 2 27 4 27 28 27 C 43 27 50 28 51 30 C 54 32 477 31 482 28 C 485 26 485 26 487 28 C 490 31 522 31 524 28 C 526 27 530 27 532 28 C 533 31 556 31 558 30 C 559 27 574 27 575 28 C 576 31 638 31 640 28 C 641 27 646 27 647 28 C 648 31 879 31 880 28 C 881 27 910 27 911 30 C 913 32 1108 31 1112 28 C 1115 26 1124 26 1126 28 C 1128 31 1201 31 1202 28 C 1203 27 1213 27 1214 30 C 1216 31 1560 31 1562 30 C 1563 27 1573 27 1574 28 C 1575 31 1580 31 1581 28 C 1582 27 1621 27 1622 28 C 1623 31 1638 31 1639 30 C 1640 28 2129 27 2946 27 C 4317 26 4432 26 4435 24 C 4436 22 4888 22 4889 24 C 4890 26 4928 26 4930 24 C 4931 22 4945 22 4946 24 C 4948 26 4957 26 4958 24 C 4960 22 4974 22 4975 24 C 4976 26 4986 26 4987 24 C 4988 24 5326 22 5964 22 C 6935 21 7070 21 7072 19 C 7073 18 7097 18 7099 19 C 7100 21 7138 21 7139 19 C 7141 19 7435 18 7987 18 C 8270 18 8552 18 8834 16 C 8835 15 8836 15 8838 14 C 8842 10 8844 6 8840 3 C 8839 2 8811 0 8809 1 z" fill="black"/><!-- width=8848 height=38 -->
<path id="gl35842" d="M 8566 2 C 8529 2 8507 3 8506 4 C 8505 6 8500 6 8499 4 C 8498 2 8493 2 8492 4 C 8491 6 8486 6 8485 4 C 8485 3 8458 3 8409 3 C 8360 3 8333 3 8333 4 C 8332 6 8303 6 8302 4 C 8301 2 8258 2 8256 3 C 8255 4 7720 6 6904 7 C 6694 7 6639 7 6637 8 C 6636 10 6622 10 6621 9 C 6619 7 6403 7 6402 9 C 6401 10 6367 10 6366 9 C 6365 7 6336 7 6335 9 C 6334 10 6247 10 6246 9 C 6245 7 6225 7 6224 9 C 6223 10 6074 10 6073 9 C 6072 7 6067 7 6066 9 C 6065 9 5833 10 5435 10 C 4697 12 4598 12 4596 13 C 4595 15 4585 15 4584 13 C 4583 12 4568 12 4567 13 C 4566 15 4537 15 4536 13 C 4533 12 4492 12 4490 13 C 4489 15 4474 15 4473 13 C 4472 12 4434 12 4432 13 C 4431 15 4354 15 4353 13 C 4352 12 4323 12 4322 13 C 4321 15 4306 15 4305 13 C 4304 12 4251 12 4250 13 C 4249 15 4205 15 4204 13 C 4202 12 4108 12 4106 14 C 4103 15 4019 15 4017 14 C 4016 12 3958 12 3957 13 C 3956 15 3946 15 3945 13 C 3944 13 3944 13 3942 13 C 3941 15 3927 15 3926 13 C 3924 12 3775 12 3774 13 C 3773 15 3763 15 3762 13 C 3761 12 3742 12 3741 14 C 3739 15 3541 15 2976 15 C 1831 16 1845 16 1843 18 C 1842 20 1803 20 1802 18 C 1801 16 1777 16 1776 18 C 1775 20 1760 20 1759 19 C 1757 16 1303 16 1300 18 C 1298 20 1271 20 1269 19 C 1267 16 1245 16 1241 19 C 1238 21 1217 21 1213 19 C 1209 15 992 15 987 19 C 984 20 984 20 982 19 C 980 16 965 16 964 18 C 963 20 958 20 957 18 C 954 16 808 16 805 18 C 804 20 795 20 793 18 C 792 16 783 16 781 18 C 780 20 737 20 736 18 C 735 18 735 18 733 18 C 732 20 314 20 313 18 C 312 16 307 16 306 18 C 305 19 257 20 157 20 C 76 20 8 20 7 20 C 2 21 2 22 2 25 C 1 33 0 32 61 32 C 100 32 117 33 118 34 C 120 34 120 34 121 34 C 122 32 136 32 138 34 C 139 34 139 34 140 34 C 142 32 275 32 277 33 C 278 36 284 36 284 34 C 284 33 287 32 290 32 C 294 32 295 33 295 34 C 295 36 307 36 308 34 C 309 33 647 32 1396 32 C 2639 31 2722 31 2725 30 C 2726 27 2735 27 2737 30 C 2739 32 3621 32 3623 30 C 3624 27 3687 27 3688 30 C 3689 31 3713 31 3714 30 C 3715 27 3750 27 3750 30 C 3750 31 3761 31 3762 30 C 3763 27 3835 27 3837 30 C 3838 31 3924 31 3926 30 C 3927 27 3965 27 3966 30 C 3968 31 4040 31 4041 30 C 4042 27 4052 27 4053 30 C 4054 31 4073 31 4074 30 C 4077 27 4103 27 4106 28 C 4107 31 4126 31 4127 30 C 4129 28 4958 26 5775 26 C 6146 26 6274 26 6275 25 C 6276 24 6407 24 6789 22 C 7414 21 7372 21 7375 20 C 7376 18 7381 18 7382 20 C 7382 21 7430 21 7432 20 C 7434 18 7438 18 7440 20 C 7441 20 7441 20 7442 20 C 7443 18 7471 18 7475 20 C 7479 22 8304 21 8307 19 C 8308 18 8318 18 8319 19 C 8320 21 8368 21 8369 19 C 8370 18 8380 18 8381 19 C 8382 21 8411 21 8413 19 C 8415 18 8510 18 8510 19 C 8511 21 8551 21 8553 19 C 8554 18 8668 18 8668 19 C 8670 21 8680 21 8682 19 C 8683 18 8702 18 8703 19 C 8703 20 8704 20 8706 19 C 8707 19 8726 18 8773 18 C 8842 18 8842 18 8842 12 C 8842 9 8840 8 8838 6 C 8836 4 8834 3 8833 2 C 8798 2 8764 2 8730 2 C 8672 2 8599 2 8566 2 z" fill="black"/><!-- width=8848 height=43 -->
<path id="gl35843" d="M 8808 2 C 8805 3 8804 3 8803 4 C 8802 6 8751 6 8749 4 C 8748 2 8743 2 8742 4 C 8739 6 8660 6 8658 4 C 8656 2 8623 2 8621 4 C 8621 4 8613 6 8601 6 C 8589 6 8581 4 8581 4 C 8579 2 8560 2 8559 4 C 8558 6 8553 6 8552 4 C 8551 2 8541 2 8540 4 C 8539 6 8491 6 8489 4 C 8488 2 8483 2 8482 4 C 8481 6 8471 6 8470 4 C 8469 2 8426 2 8425 4 C 8423 6 8394 6 8393 4 C 8392 2 8378 2 8376 4 C 8375 6 8366 6 8364 4 C 8363 2 8358 2 8357 4 C 8356 6 8351 6 8350 4 C 8349 2 8330 2 8328 4 C 8327 6 8318 6 8316 4 C 8315 2 8301 2 8300 4 C 8298 4 8145 6 7766 6 C 7254 6 7206 7 7204 9 C 7203 10 7179 10 7178 9 C 7177 7 7143 7 7142 9 C 7141 10 7121 10 7120 8 C 7118 7 7019 7 7017 8 C 7016 10 7011 10 7010 8 C 7007 6 6654 6 6652 8 C 6651 10 6646 10 6645 8 C 6642 7 6628 7 6628 8 C 6627 10 6612 10 6611 8 C 6611 7 6342 7 6340 9 C 6338 10 6324 10 6323 9 C 6322 7 6293 7 6292 9 C 6290 10 6286 10 6284 9 C 6283 7 6274 7 6272 9 C 6271 10 6257 10 6256 9 C 6254 7 6187 7 6186 9 C 6185 10 6074 10 6073 9 C 6072 7 6067 7 6066 9 C 6065 10 5896 10 5895 9 C 5894 7 5884 7 5883 9 C 5882 10 5863 10 5862 9 C 5860 7 5851 7 5850 9 C 5848 10 5839 10 5838 9 C 5836 7 5832 7 5830 9 C 5829 10 5786 10 5785 9 C 5784 7 5755 7 5753 9 C 5752 10 5747 10 5746 9 C 5745 7 5711 7 5710 9 C 5709 9 5478 10 5073 10 C 4347 12 4382 12 4380 13 C 4378 15 4369 15 4368 13 C 4365 10 3532 10 3529 13 C 3528 15 3514 15 3512 13 C 3510 12 3445 12 3443 13 C 3442 15 3427 15 3426 13 C 3425 13 3424 13 3424 13 C 3422 15 3403 15 3402 13 C 3402 12 3368 12 3366 14 C 3365 15 3336 15 3335 13 C 3332 12 3300 12 3299 14 C 3297 15 3278 15 3278 14 C 3278 12 3266 12 3265 14 C 3264 15 3249 15 3248 14 C 3247 12 3240 12 3240 14 C 3240 15 3221 15 3219 13 C 3218 13 3218 13 3217 13 C 3216 15 3195 15 3195 14 C 3195 12 3185 12 3183 14 C 3182 15 3139 15 3138 14 C 3137 12 3055 12 3054 14 C 3052 15 3024 15 3022 14 C 3021 12 3007 12 3006 14 C 3004 15 2990 15 2989 13 C 2986 12 2902 12 2900 13 C 2899 14 1849 16 766 16 C 514 16 261 16 9 16 C 8 16 7 18 6 19 C 0 22 0 27 3 30 C 4 31 269 31 865 31 C 1917 31 1862 31 1865 30 C 1866 27 1871 27 1872 28 C 1873 31 1878 31 1879 28 C 1880 27 1899 27 1901 28 C 1902 31 1926 31 1927 28 C 1928 27 1978 27 1978 28 C 1978 31 1993 31 1994 28 C 1996 27 2015 27 2016 28 C 2017 31 2036 31 2038 28 C 2039 27 2044 27 2045 30 C 2047 31 2362 31 2364 30 C 2365 27 2380 27 2381 28 C 2382 31 2402 31 2403 28 C 2404 27 2414 27 2415 30 C 2416 30 2416 30 2417 30 C 2418 27 2831 27 2833 30 C 2834 30 2835 30 2835 30 C 2836 27 2846 27 2847 28 C 2848 31 2854 31 2855 28 C 2855 27 3004 27 3006 30 C 3007 31 3020 31 3022 30 C 3024 27 3067 27 3068 28 C 3069 31 3074 31 3075 28 C 3076 27 3162 27 3164 28 C 3165 31 3175 31 3176 28 C 3177 27 3182 27 3183 28 C 3185 31 3194 31 3195 28 C 3197 27 3216 27 3217 28 C 3218 31 3223 31 3224 28 C 3225 27 3240 27 3241 28 C 3241 30 3242 30 3243 28 C 3246 27 3339 27 3342 28 C 3343 31 3372 31 3373 28 C 3374 27 3384 27 3385 28 C 3386 31 3391 31 3392 28 C 3394 28 3576 27 4011 27 C 4646 27 4682 26 4685 25 C 4686 22 4691 22 4692 25 C 4694 27 5208 27 5208 25 C 5209 22 5229 22 5230 25 C 5232 26 5247 26 5247 25 C 5248 22 5267 22 5268 24 C 5271 26 5422 26 5424 25 C 5426 22 5459 22 5460 24 C 5462 26 5529 26 5530 24 C 5531 22 5536 22 5537 25 C 5540 26 5691 26 5693 25 C 5695 22 5714 22 5715 24 C 5716 26 5721 26 5722 24 C 5723 22 5733 22 5734 24 C 5735 26 5793 26 5794 24 C 5796 22 5824 22 5826 24 C 5827 26 5857 26 5857 24 C 5857 22 5872 22 5874 24 C 5875 26 5899 26 5900 24 C 5901 22 5906 22 5907 24 C 5908 26 5956 26 5958 24 C 5959 22 6065 22 6066 24 C 6067 26 6120 26 6121 25 C 6122 24 6348 22 6676 22 C 7315 21 7387 21 7389 19 C 7390 18 7400 18 7401 19 C 7402 21 7407 21 7408 19 C 7410 18 7424 18 7425 19 C 7426 21 7431 21 7432 19 C 7434 18 7482 18 7483 20 C 7483 21 8429 21 8432 20 C 8433 18 8447 18 8449 20 C 8450 20 8451 20 8451 20 C 8452 18 8495 18 8497 19 C 8498 21 8507 21 8509 19 C 8510 18 8521 18 8521 19 C 8521 21 8571 21 8572 19 C 8572 18 8619 18 8620 20 C 8623 21 8646 21 8648 19 C 8649 18 8654 18 8655 19 C 8656 21 8690 21 8691 19 C 8692 18 8703 18 8703 19 C 8703 20 8718 20 8744 20 C 8772 20 8787 20 8787 19 C 8788 18 8793 18 8794 20 C 8797 21 8829 21 8830 20 C 8832 19 8833 19 8835 18 C 8846 15 8845 7 8833 6 C 8829 6 8827 4 8827 3 C 8826 2 8811 1 8808 2 z" fill="black"/><!-- width=8848 height=38 -->
<path id="gl35844" d="M 8202 2 C 8150 2 8121 3 8120 4 C 8119 6 8114 6 8113 4 C 8112 2 8064 2 8062 4 C 8062 4 8016 6 7927 6 C 7838 6 7791 4 7791 4 C 7790 2 7780 2 7779 3 C 7778 4 7136 6 6084 7 C 5670 7 5510 8 5509 8 C 5508 9 5161 10 4252 10 C 2787 12 2732 12 2730 13 C 2728 15 2724 15 2722 13 C 2721 12 2716 12 2715 13 C 2715 14 2712 14 2709 14 C 2707 14 2703 14 2703 13 C 2702 12 2673 12 2672 13 C 2671 15 2642 15 2641 13 C 2638 12 2612 12 2610 13 C 2608 15 2580 15 2578 13 C 2577 12 2568 12 2566 13 C 2565 15 2306 15 2305 13 C 2304 12 2299 12 2298 13 C 2296 15 2200 15 2199 13 C 2198 12 2193 12 2192 14 C 2191 14 1863 15 1100 15 C 736 15 373 16 9 16 C 8 18 7 19 6 19 C 1 24 1 24 4 28 C 6 30 7 31 8 31 C 285 31 562 31 838 31 C 1501 31 1670 31 1671 30 C 1672 27 1677 27 1678 28 C 1680 31 1689 31 1690 30 C 1692 28 2182 27 3010 27 C 4388 26 4470 26 4470 25 C 4471 22 4826 22 4827 25 C 4828 26 4838 26 4839 25 C 4840 22 4864 22 4866 25 C 4867 26 4934 26 4935 25 C 4936 22 4941 22 4942 25 C 4944 26 4963 26 4964 25 C 4965 22 4975 22 4976 25 C 4977 26 5006 26 5007 25 C 5008 22 5061 22 5062 25 C 5064 25 5064 25 5065 25 C 5066 24 5391 22 6037 22 C 7052 22 7242 21 7244 20 C 7245 18 7509 18 7510 20 C 7512 21 7521 21 7522 20 C 7524 18 7538 18 7539 20 C 7540 21 7584 21 7585 20 C 7586 18 7615 18 7616 20 C 7618 21 7693 21 7695 20 C 7696 18 7701 18 7702 20 C 7704 21 7713 21 7714 20 C 7717 18 7782 18 7784 19 C 7785 21 7819 21 7820 20 C 7821 18 7831 18 7832 20 C 7833 21 7843 21 7844 20 C 7845 18 7960 18 7962 20 C 7963 21 8001 21 8002 20 C 8004 18 8018 18 8019 20 C 8020 21 8083 21 8084 20 C 8085 18 8138 18 8139 20 C 8140 21 8217 21 8218 19 C 8220 18 8300 18 8526 18 C 8770 18 8832 16 8833 15 C 8836 13 8835 8 8830 4 C 8829 3 8828 3 8827 2 C 8736 2 8644 2 8553 2 C 8403 2 8245 2 8202 2 z" fill="black"/><!-- width=8842 height=39 -->
<path id="gl36096" d="M 8231 2 C 8184 2 8157 3 8155 4 C 8154 6 8134 6 8134 4 C 8134 2 8080 2 8079 3 C 8077 4 7643 6 6820 7 C 6671 7 6633 7 6633 8 C 6631 10 6627 10 6625 8 C 6623 7 6501 7 6498 9 C 6497 10 6483 10 6481 9 C 6480 7 6437 7 6436 9 C 6434 10 6425 10 6424 9 C 6422 7 6384 7 6383 9 C 6382 10 6377 10 6376 9 C 6374 7 6360 7 6359 9 C 6358 10 6353 10 6352 9 C 6350 7 6322 7 6320 9 C 6319 10 6242 10 6241 9 C 6240 7 6230 7 6229 9 C 6228 10 6216 10 6216 9 C 6216 7 6177 7 6176 9 C 6175 10 5901 10 5900 9 C 5899 7 5884 7 5883 9 C 5882 9 5737 10 5345 10 C 4765 12 4728 12 4725 13 C 4724 15 4719 15 4718 13 C 4716 12 4617 12 4615 13 C 4614 15 4599 15 4598 13 C 4597 12 4592 12 4591 13 C 4590 15 4532 15 4531 13 C 4530 12 4501 12 4500 13 C 4498 15 4354 15 4353 13 C 4352 12 4347 12 4346 13 C 4345 15 4335 15 4334 13 C 4333 12 4317 12 4317 13 C 4317 15 4311 15 4310 13 C 4309 12 4289 12 4288 13 C 4287 15 4282 15 4281 13 C 4280 13 4280 13 4279 13 C 4277 15 4273 15 4271 13 C 4270 12 4131 12 4130 13 C 4129 15 4109 15 4108 13 C 4107 12 4102 12 4101 13 C 4100 15 4095 15 4094 13 C 4093 13 4091 13 4091 13 C 4090 15 4085 15 4084 13 C 4082 12 4002 12 4000 13 C 3999 15 3994 15 3993 13 C 3992 13 3992 13 3990 13 C 3989 15 3960 15 3959 13 C 3958 12 3948 12 3947 13 C 3945 15 3851 15 3849 14 C 3848 12 3828 12 3827 13 C 3826 15 3811 15 3810 13 C 3809 12 3790 12 3789 13 C 3787 15 3773 15 3772 13 C 3771 12 3747 12 3745 13 C 3744 15 3730 15 3729 13 C 3727 12 3718 12 3717 14 C 3715 14 3554 15 3138 15 C 2577 15 2493 16 2492 19 C 2490 20 2487 20 2483 18 C 2480 15 1996 15 1992 18 C 1988 20 1963 20 1961 18 C 1957 16 1879 15 1877 18 C 1875 20 1856 20 1855 18 C 1854 16 1849 16 1848 18 C 1847 20 1827 20 1826 18 C 1825 18 1825 18 1824 18 C 1823 20 1779 20 1778 18 C 1777 16 1767 16 1766 18 C 1765 20 1741 20 1740 18 C 1739 16 1724 16 1723 18 C 1722 20 1664 20 1663 18 C 1662 16 1633 16 1632 18 C 1630 20 1616 20 1615 18 C 1614 16 1527 16 1526 18 C 1525 20 1520 20 1519 18 C 1516 16 1191 16 1190 18 C 1188 20 1179 20 1178 18 C 1176 16 1154 16 1150 19 C 1145 21 1086 21 1083 19 C 1079 16 1038 16 1036 19 C 1034 20 993 20 990 18 C 989 16 965 16 964 19 C 962 20 925 20 923 19 C 922 16 917 16 916 19 C 913 20 887 20 885 19 C 883 18 883 18 882 19 C 880 20 825 20 27 20 C 21 20 14 20 8 20 C 7 22 6 24 4 25 C 3 26 2 27 2 30 C 3 30 4 31 7 32 C 8 34 9 36 12 37 C 153 36 294 36 435 36 C 730 36 859 34 861 34 C 862 32 871 32 873 34 C 874 36 893 36 894 34 C 895 32 900 32 901 34 C 901 37 1031 36 1035 33 C 1037 32 1037 32 1041 33 C 1044 37 1078 37 1082 33 C 1086 31 1090 31 1092 33 C 1095 36 1247 36 1251 33 C 1253 31 1263 31 1265 33 C 1268 36 1402 36 1403 34 C 1405 32 1438 32 1440 34 C 1441 36 1474 36 1476 34 C 1477 33 2143 32 3002 31 C 3245 31 3260 31 3264 28 C 3266 27 3266 27 3270 28 C 3273 31 3629 32 3633 30 C 3634 27 3653 27 3654 30 C 3655 31 3660 31 3661 30 C 3663 27 3672 27 3673 30 C 3673 31 3745 31 3748 30 C 3749 27 3754 27 3755 30 C 3757 31 3774 31 3777 30 C 3778 27 3792 27 3793 30 C 3795 31 3804 31 3805 30 C 3807 27 3850 27 3851 30 C 3852 30 3852 30 3854 30 C 3855 27 3864 27 3866 30 C 3867 31 3905 31 3906 30 C 3908 27 3917 27 3918 30 C 3920 31 3992 31 3993 30 C 3994 27 3999 27 4000 30 C 4001 31 4006 31 4007 30 C 4008 27 4018 27 4019 30 C 4020 31 4093 31 4094 30 C 4095 27 4100 27 4101 30 C 4102 31 4107 31 4108 30 C 4109 27 4119 27 4120 30 C 4121 30 4121 30 4123 30 C 4124 27 4139 27 4139 30 C 4139 31 4150 31 4151 30 C 4153 27 4201 27 4202 30 C 4203 31 4208 31 4209 30 C 4210 28 4787 27 5834 26 C 6187 26 6278 26 6280 25 C 6281 22 6290 22 6292 24 C 6293 26 6302 26 6304 25 C 6305 24 6492 22 6774 22 C 7417 21 7422 21 7422 20 C 7423 18 7463 18 7464 19 C 7465 21 7479 21 7481 19 C 7482 18 7487 18 7488 20 C 7490 21 8130 21 8133 19 C 8134 18 8145 18 8146 19 C 8147 21 8242 21 8243 19 C 8243 19 8248 18 8252 18 C 8256 18 8261 19 8261 19 C 8262 21 8271 21 8272 19 C 8273 18 8303 18 8304 19 C 8306 21 8357 21 8358 19 C 8360 19 8432 18 8599 18 C 8799 18 8838 18 8840 16 C 8842 14 8842 8 8839 6 C 8838 6 8836 4 8835 3 C 8834 1 8534 1 8231 2 z" fill="black"/><!-- width=8848 height=43 -->
<path id="gl36097" d="M 7926 3 C 7923 6 7794 6 7793 4 C 7792 2 7700 2 7699 3 C 7698 4 7437 6 7011 6 C 6633 6 6276 7 6219 7 C 6138 7 6115 7 6114 8 C 6113 10 6103 10 6102 8 C 6099 7 5943 7 5941 8 C 5940 10 5935 10 5934 8 C 5931 7 5645 7 5643 8 C 5642 10 5623 10 5621 9 C 5620 7 5615 7 5614 9 C 5613 10 5565 10 5564 9 C 5563 7 5539 7 5537 8 C 5536 9 4967 10 3945 12 C 3600 12 3511 12 3510 13 C 3509 15 3504 15 3503 13 C 3500 12 3450 12 3448 13 C 3446 15 3403 15 3402 14 C 3401 12 3372 12 3371 14 C 3370 15 3336 15 3335 13 C 3332 12 3320 12 3318 13 C 3317 15 3162 15 3162 14 C 3162 12 3098 12 3097 14 C 3096 15 3086 15 3085 14 C 3084 12 2955 12 2953 14 C 2952 15 2904 15 2902 14 C 2901 12 2896 12 2895 14 C 2894 15 2855 15 2854 14 C 2854 13 2853 13 2852 14 C 2851 14 2412 15 970 16 C 719 16 653 16 652 18 C 650 20 626 20 626 18 C 626 16 586 16 584 18 C 583 20 578 20 577 18 C 575 16 505 16 503 18 C 502 20 164 20 164 18 C 164 18 164 18 163 18 C 162 18 162 18 162 18 C 162 19 159 19 156 19 C 153 19 151 19 151 18 C 151 18 150 18 148 18 C 147 18 146 18 146 18 C 146 19 122 19 78 19 C 34 19 7 20 4 20 C 1 22 0 30 4 31 C 7 33 1886 32 1932 31 C 1945 30 1956 30 1956 28 C 1957 27 1969 27 1973 30 C 1976 32 2391 32 2393 30 C 2394 27 2471 27 2472 28 C 2474 31 2488 31 2489 28 C 2490 27 2807 27 2809 28 C 2810 31 2867 31 2869 28 C 2870 27 2880 27 2881 30 C 2883 31 2905 31 2907 30 C 2908 27 2918 27 2919 28 C 2920 31 2930 31 2931 28 C 2932 27 2971 27 2972 30 C 2974 31 3044 31 3046 30 C 3048 27 3240 27 3241 28 C 3242 31 3276 31 3277 28 C 3278 27 3370 27 3371 28 C 3372 31 3391 31 3392 28 C 3394 28 3580 27 4011 27 C 4350 27 4629 26 4632 26 C 4634 26 4637 25 4637 24 C 4638 22 4652 22 4653 25 C 4656 26 5177 26 5179 25 C 5181 22 5214 22 5215 24 C 5217 26 5226 26 5227 24 C 5229 22 5233 22 5235 24 C 5236 26 5245 26 5247 24 C 5248 22 5253 22 5254 24 C 5255 26 5279 26 5280 24 C 5282 22 5315 22 5316 24 C 5318 26 5351 26 5352 24 C 5354 22 5358 22 5360 24 C 5361 26 5428 26 5429 24 C 5430 22 5445 22 5446 24 C 5447 26 5490 26 5492 24 C 5493 22 5560 22 5561 25 C 5563 25 5563 25 5564 25 C 5565 22 5579 22 5581 24 C 5582 26 5615 26 5617 24 C 5617 24 5641 22 5683 22 C 5725 22 5749 24 5749 24 C 5750 26 5774 26 5775 24 C 5776 22 5815 22 5816 25 C 5817 25 5817 25 5818 25 C 5820 22 5844 22 5845 24 C 5846 26 5851 26 5852 24 C 5853 22 5863 22 5864 25 C 5865 25 5865 25 5866 25 C 5868 22 5887 22 5888 24 C 5889 26 5928 26 5929 24 C 5930 24 6149 22 6533 22 C 7123 21 7197 21 7197 19 C 7197 18 7467 18 7469 20 C 7470 20 7470 20 7471 20 C 7472 18 7554 18 7555 19 C 7556 21 7561 21 7562 19 C 7563 18 7639 18 7641 19 C 7643 21 7663 21 7663 19 C 7663 18 8020 18 8021 19 C 8022 21 8041 21 8043 19 C 8044 19 8162 18 8440 18 C 8755 18 8835 16 8836 15 C 8838 13 8838 4 8835 3 C 8833 1 8014 2 8011 3 C 8010 6 7986 6 7985 4 C 7983 2 7930 1 7926 3 z" fill="black"/><!-- width=8844 height=38 -->
<path id="gl36098" d="M 8044 2 C 8042 3 8040 3 8038 4 C 8037 6 8032 6 8031 3 C 8031 3 8028 3 8025 3 C 8023 3 8019 3 8019 3 C 8019 4 8014 6 8011 6 C 8006 6 8002 4 8002 3 C 8002 3 7999 3 7996 3 C 7994 3 7990 3 7990 3 C 7990 4 7987 6 7982 6 C 7977 6 7974 4 7974 3 C 7974 3 7969 3 7965 3 C 7960 3 7957 3 7957 3 C 7957 4 7953 6 7951 6 C 7948 6 7945 4 7945 3 C 7944 2 7924 2 7923 3 C 7922 6 7908 6 7906 3 C 7905 2 7872 2 7870 3 C 7869 6 7826 6 7825 3 C 7825 3 7807 3 7776 3 C 7744 3 7726 3 7726 3 C 7725 6 7711 6 7710 3 C 7710 3 7708 3 7707 3 C 7706 4 6958 6 6048 7 C 5709 7 5620 7 5619 8 C 5618 10 5532 10 5530 9 C 5529 7 5520 7 5518 8 C 5517 9 4856 10 3958 12 C 3616 12 3528 12 3526 13 C 3525 15 3520 15 3519 13 C 3518 12 3446 12 3445 13 C 3444 15 3415 15 3414 13 C 3412 12 3393 12 3392 13 C 3391 15 3348 15 3346 13 C 3345 12 3316 12 3315 13 C 3314 15 3295 15 3294 13 C 3292 13 3292 13 3291 13 C 3290 15 3280 15 3279 13 C 3278 12 3273 12 3272 13 C 3271 15 3261 15 3260 13 C 3259 12 3249 12 3248 13 C 3247 15 3208 15 3207 13 C 3206 12 3196 12 3195 13 C 3194 15 3175 15 3174 13 C 3172 12 3072 12 3070 13 C 3069 15 3045 15 3044 13 C 3043 12 3038 12 3037 13 C 3036 15 3026 15 3025 13 C 3024 12 2913 12 2912 13 C 2911 14 2104 15 1147 16 C 826 16 807 16 804 19 C 801 20 801 20 799 19 C 795 16 663 15 661 18 C 660 20 636 20 634 19 C 633 16 628 16 627 18 C 625 20 573 20 573 19 C 572 16 566 16 565 19 C 564 20 535 20 534 19 C 532 16 528 16 526 19 C 525 20 511 20 510 19 C 510 18 508 18 507 19 C 506 19 436 20 258 20 C 10 20 8 20 7 22 C 6 24 4 25 4 26 C 0 32 6 33 69 33 C 106 33 128 33 128 33 C 129 36 144 36 145 33 C 146 32 156 32 157 33 C 158 36 201 36 202 33 C 204 32 228 32 229 34 C 231 36 296 36 298 34 C 300 32 309 32 310 33 C 312 36 336 36 337 33 C 339 32 409 32 411 33 C 412 36 441 36 442 33 C 444 32 650 32 651 33 C 652 36 696 36 697 33 C 698 32 746 32 747 33 C 748 36 758 36 759 33 C 760 32 921 32 1434 32 C 2412 31 2413 31 2415 30 C 2416 27 2488 27 2490 30 C 2491 31 2524 31 2526 30 C 2527 27 2805 27 2806 30 C 2808 30 2809 30 2809 30 C 2810 27 2820 27 2821 30 C 2822 31 2942 31 2943 30 C 2944 27 2959 27 2960 30 C 2961 31 2971 31 2972 30 C 2973 27 2988 27 2989 30 C 2990 31 3019 31 3020 30 C 3021 27 3074 27 3075 30 C 3076 31 3086 31 3087 30 C 3088 27 3093 27 3094 30 C 3096 31 3110 31 3111 30 C 3112 27 3165 27 3166 30 C 3168 31 3177 31 3178 30 C 3180 27 3199 27 3200 30 C 3201 31 3206 31 3207 30 C 3208 27 3247 27 3248 30 C 3249 31 3259 31 3260 30 C 3261 27 3271 27 3272 30 C 3273 30 3273 30 3274 30 C 3277 27 3337 27 3339 28 C 3340 31 3355 31 3356 30 C 3357 27 3362 27 3363 30 C 3364 31 3369 31 3370 28 C 3372 28 3522 27 3926 27 C 4644 26 4640 26 4642 25 C 4644 22 4719 22 4722 25 C 4724 26 4755 26 4758 24 C 4759 22 4778 22 4779 24 C 4780 26 4848 26 4849 24 C 4850 22 4855 22 4856 25 C 4858 27 5125 27 5127 25 C 5128 22 5152 22 5154 24 C 5155 26 5160 26 5161 24 C 5162 22 5191 22 5192 24 C 5193 26 5212 26 5214 24 C 5215 22 5234 22 5235 25 C 5236 25 5238 25 5238 25 C 5239 22 5253 22 5254 24 C 5256 26 5275 26 5276 24 C 5277 22 5306 22 5307 25 C 5308 25 5310 25 5310 25 C 5311 22 5364 22 5365 24 C 5366 26 5457 26 5458 24 C 5460 22 5479 22 5480 24 C 5481 26 5486 26 5487 24 C 5490 22 5583 22 5586 24 C 5587 26 5596 26 5598 24 C 5599 24 5835 22 6285 22 C 7003 21 7194 21 7196 19 C 7198 18 7984 18 7986 19 C 7987 21 8001 21 8002 19 C 8002 19 8012 19 8028 19 C 8042 19 8053 19 8053 19 C 8054 21 8059 21 8060 19 C 8061 19 8194 18 8446 18 C 8576 18 8704 16 8833 16 C 8834 15 8835 14 8836 13 C 8838 12 8839 10 8839 9 C 8838 8 8836 7 8835 6 C 8834 4 8833 3 8832 2 C 8722 2 8614 2 8505 2 C 8246 2 8179 2 8178 3 C 8178 4 8174 6 8169 6 C 8166 6 8161 4 8161 3 C 8158 2 8062 1 8044 2 z" fill="black"/><!-- width=8847 height=44 -->
<path id="gl36099" d="M 8184 2 C 8119 2 8085 3 8083 4 C 8081 6 7954 6 7951 4 C 7950 2 7941 2 7939 4 C 7938 6 7732 6 7730 4 C 7730 3 7729 3 7728 3 C 7727 4 7572 6 7267 6 C 6581 7 6274 8 6272 9 C 6271 10 6266 10 6265 8 C 6263 7 6203 7 6200 9 C 6199 10 6117 10 6116 8 C 6115 8 6114 8 6114 8 C 6113 10 6069 10 6068 9 C 6067 7 6057 7 6056 9 C 6054 10 5907 10 5905 9 C 5904 7 5870 7 5869 9 C 5868 10 5839 10 5838 9 C 5836 7 5817 7 5816 9 C 5815 10 5772 10 5770 8 C 5769 8 5768 8 5768 8 C 5767 10 5738 10 5737 9 C 5735 7 5716 7 5715 9 C 5714 9 5541 10 5249 10 C 4461 12 4443 12 4442 13 C 4441 15 4374 15 4372 13 C 4370 12 4046 12 4043 13 C 4042 15 4023 15 4022 13 C 4019 12 3637 12 3635 13 C 3634 15 3629 15 3628 13 C 3627 12 3617 12 3616 13 C 3615 15 3590 15 3589 13 C 3589 13 3588 13 3587 13 C 3586 14 2848 15 1367 16 C 943 16 811 16 810 18 C 809 20 795 20 793 18 C 792 16 783 16 781 18 C 780 20 775 20 774 18 C 773 18 773 18 772 18 C 771 20 756 20 755 18 C 754 16 730 16 729 18 C 727 20 674 20 673 18 C 672 16 667 16 666 18 C 665 20 617 20 616 18 C 614 18 614 18 613 18 C 611 20 373 20 371 18 C 369 16 365 16 363 18 C 362 20 295 20 294 18 C 293 16 283 16 282 18 C 281 19 236 20 145 20 C 72 20 8 20 7 20 C 2 21 2 21 2 26 C 1 32 2 32 43 32 C 67 32 80 33 80 34 C 81 34 82 34 82 34 C 84 32 146 32 147 34 C 148 36 182 36 183 34 C 184 32 189 32 190 34 C 192 36 211 36 212 34 C 213 32 223 32 224 34 C 226 36 258 36 260 34 C 261 32 281 32 282 34 C 282 36 306 36 308 34 C 309 32 329 32 330 34 C 332 36 368 36 371 34 C 372 32 386 32 387 34 C 389 34 389 34 390 34 C 391 32 405 32 407 34 C 408 36 446 36 447 33 C 449 33 744 32 1438 32 C 2480 31 2578 31 2580 30 C 2582 27 2586 27 2588 30 C 2589 31 2598 31 2600 30 C 2601 27 2663 27 2665 30 C 2666 30 2666 30 2667 30 C 2668 27 2678 27 2679 30 C 2680 31 2685 31 2686 30 C 2687 27 2774 27 2775 30 C 2777 31 3135 32 3138 30 C 3140 27 3162 27 3164 28 C 3167 31 3467 31 3469 30 C 3470 27 3475 27 3476 30 C 3478 31 3487 31 3488 30 C 3490 27 3499 27 3500 30 C 3503 31 3534 31 3536 30 C 3538 27 3557 27 3558 30 C 3559 31 3569 31 3570 30 C 3571 28 3881 27 4323 27 C 5534 26 5836 25 5838 24 C 5840 22 5852 22 5854 24 C 5857 26 6023 26 6025 25 C 6026 22 6050 22 6051 24 C 6053 26 6062 26 6063 24 C 6066 22 6087 22 6090 24 C 6091 26 6139 26 6140 25 C 6140 24 6353 22 6684 22 C 7213 22 7268 21 7269 19 C 7270 18 7294 18 7296 19 C 7297 21 7302 21 7303 19 C 7304 18 7463 18 7464 19 C 7465 21 7470 21 7471 19 C 7472 18 7487 18 7488 20 C 7490 21 7541 21 7543 19 C 7544 18 7549 18 7550 20 C 7553 21 7685 21 7687 19 C 7688 18 7693 18 7694 19 C 7696 21 7744 21 7745 19 C 7746 18 7780 18 7781 19 C 7782 21 7792 21 7793 19 C 7794 18 7799 18 7800 20 C 7802 21 7877 21 7879 19 C 7880 18 7933 18 7935 19 C 7936 21 8027 21 8028 19 C 8029 18 8039 18 8040 19 C 8041 21 8046 21 8047 19 C 8049 18 8053 18 8055 19 C 8055 20 8058 20 8061 20 C 8064 20 8067 20 8067 19 C 8068 18 8073 18 8074 19 C 8075 21 8080 21 8081 19 C 8082 18 8111 18 8112 19 C 8113 21 8118 21 8119 19 C 8121 18 8149 18 8151 19 C 8152 21 8219 21 8220 19 C 8220 19 8224 18 8226 18 C 8229 18 8232 19 8232 19 C 8234 21 8238 21 8240 19 C 8242 18 8326 18 8328 19 C 8330 20 8330 20 8331 19 C 8332 19 8411 18 8584 18 C 8670 18 8754 18 8838 18 C 8838 16 8839 15 8840 15 C 8842 10 8842 9 8838 6 C 8836 4 8835 3 8834 1 C 8743 2 8650 2 8559 2 C 8408 2 8240 2 8184 2 z" fill="black"/><!-- width=8848 height=43 -->
<path id="gl36100" d="M 8300 1 C 8300 1 8125 2 7914 2 C 7607 2 7527 2 7526 3 C 7525 6 7459 6 7457 3 C 7455 2 7454 2 7454 3 C 7453 4 6929 6 5874 7 C 5599 7 5505 7 5505 8 C 5502 9 4903 10 3885 10 C 3445 12 3385 12 3382 13 C 3378 15 3365 15 3364 14 C 3364 12 3258 12 3255 13 C 3254 15 3159 15 3157 13 C 3155 12 3075 12 3073 14 C 3072 15 3067 15 3066 14 C 3063 12 2890 12 2890 13 C 2889 15 2837 15 2835 13 C 2834 13 2833 13 2833 13 C 2831 15 2812 15 2811 14 C 2810 12 2791 12 2789 14 C 2788 14 2470 15 1817 15 C 437 16 486 16 484 18 C 482 20 473 20 471 19 C 470 16 445 16 445 19 C 445 20 391 20 390 18 C 387 16 342 16 339 19 C 338 20 314 20 313 19 C 312 16 291 16 291 19 C 291 19 288 19 283 19 C 278 19 276 19 276 19 C 276 16 259 16 258 19 C 257 20 252 20 251 18 C 248 16 210 16 210 18 C 208 20 157 20 154 18 C 153 18 152 18 152 18 C 151 20 130 20 130 19 C 130 18 130 18 129 18 C 128 18 128 18 128 19 C 128 19 110 19 76 19 C 43 19 26 19 26 19 C 26 18 25 18 24 18 C 22 18 21 18 21 19 C 21 19 19 19 14 19 C 4 19 2 21 2 26 C 2 30 2 31 4 32 C 7 32 192 32 618 32 C 953 32 1372 31 1549 31 C 1829 31 1869 31 1873 30 C 1877 27 1879 27 1881 30 C 1884 32 1915 31 1917 28 C 1919 27 1928 27 1930 30 C 1930 32 2367 32 2369 30 C 2371 27 2817 27 2818 28 C 2819 31 2824 31 2825 28 C 2827 27 2837 27 2837 28 C 2837 30 2840 30 2843 30 C 2847 30 2851 30 2851 28 C 2851 27 2952 27 2953 30 C 2954 30 2955 30 2955 30 C 2956 27 2995 27 2996 28 C 2997 31 3016 31 3018 28 C 3019 27 3039 27 3039 28 C 3039 31 3050 31 3051 28 C 3052 27 3264 27 3265 30 C 3266 30 3267 30 3267 30 C 3269 27 3326 27 3327 30 C 3329 30 3329 30 3330 30 C 3331 27 3384 27 3385 28 C 3385 30 3386 30 3388 28 C 3389 27 3521 27 3941 27 C 4619 26 4572 26 4574 25 C 4575 22 4580 22 4581 24 C 4584 26 4625 26 4627 25 C 4628 22 4681 22 4682 24 C 4683 26 4693 26 4694 24 C 4695 22 4743 22 4745 25 C 4746 25 4747 25 4747 25 C 4748 22 4777 22 4777 24 C 4777 26 4789 26 4790 24 C 4791 22 4796 22 4797 24 C 4799 26 4823 26 4824 24 C 4825 22 4836 22 4836 24 C 4836 26 4842 26 4843 24 C 4844 22 4854 22 4855 25 C 4858 26 5129 26 5131 25 C 5133 22 5142 22 5143 24 C 5145 26 5154 26 5155 24 C 5157 22 5286 22 5288 25 C 5289 25 5290 25 5290 25 C 5291 22 5325 22 5326 24 C 5327 26 5337 26 5338 24 C 5339 22 5363 22 5364 24 C 5366 26 5370 26 5372 24 C 5373 22 5382 22 5384 24 C 5385 26 5462 26 5463 24 C 5464 22 5474 22 5475 24 C 5476 26 5481 26 5482 24 C 5483 22 5594 22 5595 24 C 5596 26 5601 26 5602 25 C 5603 24 5856 22 6264 22 C 7087 21 7060 21 7063 20 C 7064 18 7112 18 7113 20 C 7115 21 7142 21 7144 20 C 7145 19 7451 18 7990 18 C 8271 18 8553 18 8834 16 C 8835 15 8836 15 8838 14 C 8842 9 8842 9 8838 4 C 8836 3 8835 2 8834 1 C 8745 1 8656 1 8567 1 C 8421 1 8300 1 8300 1 z" fill="black"/><!-- width=8848 height=38 -->
<path id="gl36352" d="M 8190 2 C 8186 3 8181 3 8180 4 C 8178 6 8154 6 8153 4 C 8153 3 8151 3 8149 3 C 8148 3 8146 3 8146 4 C 8145 6 8125 6 8124 4 C 8123 2 8089 2 8088 4 C 8086 6 7771 6 7769 4 C 7769 3 7768 3 7766 4 C 7765 4 7533 6 6731 7 C 6455 7 6336 8 6335 8 C 6334 10 6324 10 6323 9 C 6322 7 6293 7 6292 9 C 6290 10 6262 10 6260 9 C 6259 7 6225 7 6224 9 C 6222 10 6095 10 6092 9 C 6091 7 6086 7 6085 9 C 6084 10 5916 10 5914 9 C 5913 7 5904 7 5902 9 C 5901 10 5892 10 5890 9 C 5889 7 5884 7 5883 9 C 5882 10 5738 10 5737 9 C 5735 7 5726 7 5725 9 C 5723 10 5704 10 5703 9 C 5702 7 5697 7 5696 9 C 5695 10 5498 10 5005 12 C 4677 12 4623 12 4621 13 C 4617 15 4330 15 4329 13 C 4328 12 4294 12 4293 13 C 4292 15 4273 15 4271 13 C 4270 13 4269 13 4269 13 C 4268 15 4239 15 4238 13 C 4237 12 4097 12 4096 13 C 4095 15 3898 15 3897 13 C 3896 12 3881 12 3880 13 C 3879 15 3850 15 3849 13 C 3848 12 3775 12 3774 14 C 3773 14 3624 15 3219 15 C 2544 16 2349 16 2347 18 C 2346 20 2313 20 2311 18 C 2309 16 2259 16 2256 18 C 2255 20 2250 20 2249 18 C 2248 16 2195 16 2194 18 C 2193 20 2183 20 2182 18 C 2181 16 2152 16 2150 18 C 2149 20 2135 20 2134 18 C 2131 16 2066 16 2064 18 C 2063 20 2044 20 2042 18 C 2040 16 2014 16 2011 18 C 2010 20 1957 20 1956 18 C 1955 16 1916 16 1915 18 C 1914 20 1741 20 1740 18 C 1739 18 1739 18 1737 18 C 1736 20 1707 20 1706 18 C 1705 16 1700 16 1699 18 C 1698 20 1611 20 1610 18 C 1609 16 1570 16 1569 18 C 1568 20 1554 20 1552 18 C 1551 18 1551 18 1550 18 C 1549 20 1525 20 1524 18 C 1524 18 1522 18 1521 19 C 1519 20 1440 20 1437 18 C 1436 16 1431 16 1430 19 C 1429 20 1285 20 719 20 C 482 20 246 20 9 21 C 8 22 7 24 6 25 C 4 26 3 27 2 28 C 3 30 4 31 6 32 C 7 33 8 36 9 37 C 186 37 362 36 540 36 C 1025 36 1071 36 1073 33 C 1077 31 1079 31 1084 33 C 1088 36 1592 37 1596 34 C 1597 32 1606 32 1608 34 C 1610 36 1636 36 1639 34 C 1640 33 1847 32 3398 31 C 3849 31 4020 30 4022 30 C 4023 27 4028 27 4029 30 C 4030 31 4121 31 4123 30 C 4124 27 4138 27 4139 30 C 4141 31 4150 31 4151 30 C 4153 28 4575 27 5660 26 C 5953 26 6192 25 6193 25 C 6194 24 6419 24 6694 22 C 7178 22 7244 21 7245 19 C 7246 18 7294 18 7296 19 C 7298 21 7363 21 7365 20 C 7366 18 7376 18 7377 19 C 7378 21 7383 21 7384 19 C 7386 18 7467 18 7469 19 C 7470 21 7479 21 7481 19 C 7482 18 7496 18 7497 19 C 7500 21 7584 21 7586 20 C 7587 18 7592 18 7593 20 C 7595 20 7596 20 7596 20 C 7597 18 7626 18 7627 20 C 7627 21 7781 21 7783 19 C 7784 18 7828 18 7829 19 C 7829 21 7849 22 7854 20 C 7858 18 7867 18 7867 19 C 7867 21 7878 21 7879 19 C 7880 18 7957 18 7959 20 C 7960 20 7961 20 7961 20 C 7962 18 7967 18 7968 19 C 7969 21 8032 21 8033 19 C 8034 18 8049 18 8050 19 C 8051 21 8061 21 8062 19 C 8063 18 8073 18 8074 19 C 8075 21 8094 21 8095 19 C 8095 19 8107 18 8125 18 C 8145 18 8155 19 8155 19 C 8155 21 8200 21 8201 19 C 8202 19 8289 18 8521 18 C 8766 18 8839 16 8840 16 C 8844 13 8842 8 8838 4 C 8836 3 8835 2 8834 1 C 8728 2 8623 2 8517 2 C 8343 2 8195 2 8190 2 z" fill="black"/><!-- width=8848 height=43 -->
<path id="gl36353" d="M 8118 2 C 8105 2 8094 3 8093 4 C 8092 6 8087 6 8086 4 C 8086 3 8082 3 8080 3 C 8077 3 8074 3 8074 4 C 8073 6 7962 6 7961 4 C 7960 2 7954 2 7953 3 C 7953 4 7732 6 7460 6 C 6523 7 6501 7 6498 8 C 6497 10 6487 10 6486 8 C 6484 7 6317 7 6316 9 C 6314 10 6310 10 6308 9 C 6307 7 6293 7 6292 9 C 6290 10 6257 10 6256 9 C 6254 7 6206 7 6205 9 C 6204 10 6199 10 6198 8 C 6197 8 6195 8 6195 8 C 6194 10 6180 10 6179 9 C 6177 7 6153 7 6152 9 C 6150 10 6080 12 6078 9 C 6077 7 6043 7 6042 9 C 6039 10 5662 10 5660 9 C 5659 8 5659 8 5657 9 C 5656 9 5517 10 5221 10 C 4632 12 4579 12 4577 13 C 4575 15 4546 15 4545 13 C 4544 12 4515 12 4514 13 C 4513 15 4484 15 4483 13 C 4482 12 4462 12 4461 13 C 4460 15 4398 15 4396 13 C 4395 13 4395 13 4394 13 C 4393 15 4316 15 4315 13 C 4313 12 4285 12 4283 13 C 4282 15 4263 15 4262 14 C 4259 12 4074 12 4072 13 C 4071 15 4061 15 4060 13 C 4059 12 4040 12 4038 13 C 4037 15 4032 15 4031 13 C 4030 12 3992 12 3990 14 C 3988 15 3957 15 3954 14 C 3953 12 3944 12 3942 13 C 3940 15 3904 15 3902 14 C 3900 12 3790 12 3789 13 C 3787 15 3759 15 3757 13 C 3756 12 3737 12 3736 14 C 3733 15 3596 15 3594 14 C 3593 12 3588 12 3587 14 C 3586 15 3487 15 3112 15 C 2445 16 2412 16 2410 18 C 2409 20 2399 20 2398 18 C 2397 16 2373 16 2371 18 C 2370 20 2322 20 2321 19 C 2319 16 2220 16 2219 18 C 2217 20 2202 20 2201 18 C 2199 16 2033 16 2030 18 C 2029 20 2024 20 2023 18 C 2022 16 2012 16 2011 18 C 2010 20 1781 20 1778 19 C 1777 18 1776 18 1776 19 C 1775 19 1582 20 1077 20 C 3 21 15 21 13 22 C 13 24 9 25 7 25 C 2 27 2 28 4 31 C 4 31 6 33 7 34 C 8 37 19 37 355 36 C 546 36 919 36 1186 36 C 1552 36 1670 36 1672 34 C 1674 33 2070 32 3269 31 C 3660 31 3761 31 3762 30 C 3763 27 3778 27 3779 30 C 3780 31 3809 31 3810 30 C 3811 27 3831 27 3832 30 C 3833 31 3838 31 3839 30 C 3840 27 3855 27 3856 30 C 3857 31 3905 31 3906 30 C 3908 27 3922 27 3923 30 C 3924 31 3934 31 3935 30 C 3936 27 3941 27 3942 30 C 3944 31 3958 31 3959 28 C 3962 27 3993 27 3995 30 C 3996 31 4049 31 4050 30 C 4052 27 4076 27 4077 30 C 4078 31 4112 31 4113 30 C 4114 27 4138 27 4139 30 C 4141 30 4141 30 4142 30 C 4143 27 4186 27 4187 30 C 4189 31 4198 31 4199 30 C 4201 28 4650 27 5384 26 C 5698 26 5725 26 5728 24 C 5732 21 5733 21 5738 24 C 5743 26 5802 26 5804 24 C 5805 22 5868 22 5869 25 C 5870 25 5871 25 5871 25 C 5872 22 5882 22 5883 25 C 5886 26 6120 26 6121 24 C 6122 22 6132 22 6133 24 C 6134 26 6177 26 6179 25 C 6180 24 6379 22 6676 22 C 7161 22 7239 21 7240 19 C 7242 18 7261 18 7262 20 C 7263 20 7264 20 7264 20 C 7266 18 7290 18 7291 19 C 7292 21 7316 21 7317 19 C 7318 18 7323 18 7324 19 C 7326 21 7354 21 7356 19 C 7357 18 7487 18 7488 19 C 7489 21 7527 21 7529 19 C 7530 18 7544 18 7545 19 C 7547 21 7580 21 7581 19 C 7583 18 7597 18 7598 19 C 7599 21 7604 21 7605 19 C 7607 18 7616 18 7617 20 C 7620 21 7742 21 7745 19 C 7746 18 7804 18 7805 19 C 7807 21 7838 21 7840 20 C 7842 18 7856 18 7858 19 C 7859 21 7878 21 7879 19 C 7880 18 7948 18 7949 19 C 7950 21 7965 21 7966 19 C 7967 18 7977 18 7978 19 C 7979 21 7993 21 7995 19 C 7996 18 8039 18 8040 19 C 8041 21 8109 21 8110 19 C 8110 19 8119 18 8133 18 C 8146 18 8155 19 8155 19 C 8155 20 8160 21 8166 21 C 8172 21 8177 20 8177 19 C 8178 18 8207 18 8208 19 C 8210 21 8214 21 8216 19 C 8218 18 8278 18 8280 19 C 8282 20 8283 20 8283 19 C 8284 18 8346 18 8563 18 C 8826 18 8840 16 8841 15 C 8842 14 8844 12 8845 12 C 8846 9 8846 9 8841 4 C 8840 3 8839 2 8838 1 C 8732 1 8627 2 8522 2 C 8271 2 8205 2 8204 3 C 8202 6 8198 6 8196 4 C 8195 3 8154 2 8118 2 z" fill="black"/><!-- width=8853 height=43 -->
<path id="gl36354" d="M 8803 1 C 8803 1 8579 2 8308 2 C 7914 2 7814 2 7814 3 C 7813 6 7799 6 7798 4 C 7796 2 7771 2 7771 4 C 7771 6 7751 6 7750 4 C 7748 2 7700 2 7699 4 C 7698 6 7607 6 7605 4 C 7604 2 7584 2 7583 3 C 7583 4 7407 6 7167 6 C 6259 7 6115 8 6114 9 C 6111 10 6075 10 6074 9 C 6072 7 6067 7 6066 9 C 6063 10 6027 10 6025 9 C 6024 7 5966 7 5965 9 C 5964 10 5906 10 5905 9 C 5904 7 5889 7 5888 9 C 5887 10 5791 10 5790 9 C 5788 7 5769 7 5768 9 C 5766 10 5734 10 5732 9 C 5731 7 5697 7 5696 9 C 5695 10 5685 10 5684 9 C 5683 7 5673 7 5672 9 C 5671 10 5647 10 5645 9 C 5644 7 5639 7 5638 8 C 5637 9 5321 10 4795 12 C 4647 12 4607 12 4605 13 C 4604 15 4585 15 4584 13 C 4583 12 4578 12 4577 13 C 4575 15 4551 15 4550 13 C 4549 13 4548 13 4548 13 C 4546 15 4277 15 4276 13 C 4275 12 4256 12 4255 13 C 4253 15 4196 15 4195 13 C 4193 12 4179 12 4178 13 C 4177 15 4167 15 4166 13 C 4165 12 4141 12 4139 13 C 4138 15 4109 15 4108 13 C 4107 12 4078 12 4077 14 C 4074 15 3995 15 3993 14 C 3992 12 3968 12 3966 14 C 3964 15 3942 15 3940 14 C 3939 12 3934 12 3933 14 C 3932 14 3785 15 3391 15 C 2612 16 2561 16 2559 18 C 2558 20 2553 20 2552 18 C 2550 16 2512 16 2511 18 C 2510 20 2486 20 2484 18 C 2482 16 2391 16 2391 18 C 2389 20 2327 20 2326 18 C 2323 16 2177 16 2175 18 C 2173 20 2164 20 2163 18 C 2161 18 2161 18 2160 18 C 2159 20 2130 20 2129 18 C 2126 16 2006 16 2006 18 C 2005 20 1933 20 1932 18 C 1932 18 1931 18 1930 18 C 1928 19 1704 20 1120 20 C -46 21 9 21 8 22 C 7 24 6 25 4 25 C 1 27 1 32 3 34 C 4 36 193 37 789 36 C 1641 36 1603 36 1605 34 C 1606 32 1626 32 1627 34 C 1628 36 1638 36 1639 34 C 1640 32 1659 32 1660 34 C 1662 36 1671 36 1672 34 C 1674 33 2048 32 2631 32 C 3158 31 3636 31 3694 31 C 3775 31 3799 31 3801 30 C 3802 27 3807 27 3808 30 C 3810 31 4163 31 4166 30 C 4167 27 4186 27 4187 30 C 4189 30 4189 30 4190 30 C 4191 27 4196 27 4197 30 C 4198 31 4208 31 4209 30 C 4210 27 4234 27 4235 30 C 4237 31 4280 31 4281 30 C 4282 28 4621 27 5489 26 C 5739 26 5841 25 5842 25 C 5844 22 5848 22 5850 24 C 5851 26 5856 26 5857 24 C 5858 22 5872 22 5874 24 C 5876 26 6047 26 6049 25 C 6050 22 6055 22 6056 25 C 6059 26 6181 26 6183 25 C 6185 24 6326 22 6678 22 C 7162 22 7225 21 7226 19 C 7227 18 7299 18 7300 19 C 7302 21 7311 21 7312 19 C 7314 18 7496 18 7497 19 C 7499 21 7566 21 7567 19 C 7568 18 7578 18 7578 19 C 7578 21 7599 21 7601 19 C 7603 18 7653 18 7656 20 C 7657 21 7681 21 7682 19 C 7684 18 7693 18 7694 19 C 7696 21 7710 21 7711 19 C 7712 18 7732 18 7733 19 C 7734 20 7734 20 7735 19 C 7736 19 7903 18 8288 18 C 8470 18 8654 18 8838 16 C 8839 16 8839 15 8840 14 C 8841 13 8842 10 8842 9 C 8842 3 8839 1 8821 1 C 8812 1 8804 1 8803 1 z" fill="black"/><!-- width=8848 height=43 -->
<path id="gl36355" d="M 8458 1 C 8453 1 8321 2 8164 2 C 7937 2 7877 2 7876 3 C 7874 6 7856 6 7855 4 C 7854 2 7828 2 7828 4 C 7828 6 7818 6 7817 4 C 7814 2 7738 2 7738 3 C 7736 6 7722 6 7721 4 C 7720 2 7674 2 7674 4 C 7674 6 7631 6 7629 4 C 7628 2 7617 2 7616 4 C 7615 6 7563 6 7562 3 C 7560 2 7536 2 7536 3 C 7535 6 7482 6 7481 4 C 7479 2 7473 2 7473 4 C 7473 6 7458 6 7457 3 C 7455 2 7454 2 7454 3 C 7453 4 7345 6 6967 6 C 6123 7 5976 7 5974 9 C 5973 10 5959 10 5958 9 C 5956 7 5950 7 5949 9 C 5949 10 5936 10 5934 9 C 5931 7 5626 6 5624 8 C 5623 10 5560 10 5559 9 C 5558 7 5529 7 5528 8 C 5527 9 5339 10 5049 10 C 4580 12 4562 12 4562 14 C 4562 15 4557 15 4554 13 C 4550 10 4050 10 4049 13 C 4047 15 4042 15 4041 13 C 4038 12 3748 12 3745 13 C 3744 15 3715 15 3714 13 C 3713 12 3707 12 3707 13 C 3707 15 3677 15 3676 13 C 3675 12 3617 12 3616 13 C 3615 15 3504 15 3503 13 C 3502 12 3482 12 3481 13 C 3480 14 3258 15 2900 15 C 1831 16 1845 16 1843 18 C 1842 20 1827 20 1826 18 C 1825 16 1815 16 1814 18 C 1813 20 1779 20 1778 18 C 1777 16 1683 16 1683 18 C 1683 20 1654 20 1653 18 C 1652 18 1651 18 1651 18 C 1650 20 1616 20 1615 18 C 1612 16 1508 16 1507 18 C 1506 20 1486 20 1485 18 C 1484 16 1470 16 1468 18 C 1467 20 1443 20 1442 18 C 1441 16 1349 16 1348 18 C 1347 20 1337 20 1336 18 C 1335 16 1325 16 1324 18 C 1323 20 1318 20 1317 18 C 1316 16 1311 16 1309 19 C 1306 21 1297 21 1294 19 C 1291 16 1279 16 1275 19 C 1271 21 1265 21 1261 19 C 1257 16 1239 16 1238 18 C 1237 20 1227 20 1226 18 C 1225 18 1223 18 1223 18 C 1222 20 1203 20 1202 18 C 1201 16 1191 16 1190 18 C 1188 20 1184 20 1182 18 C 1181 16 1167 16 1166 18 C 1163 20 1092 20 1092 19 C 1091 16 1084 16 1083 18 C 1083 19 174 21 21 21 C 8 21 4 21 3 22 C 1 25 1 30 4 32 C 6 32 7 33 7 34 C 7 34 8 36 9 36 C 10 36 10 34 10 34 C 10 32 16 32 18 34 C 18 37 94 37 97 34 C 99 32 103 32 104 34 C 106 37 527 37 529 34 C 530 32 535 32 536 34 C 538 36 547 36 548 34 C 550 32 574 32 575 34 C 577 36 993 36 995 34 C 996 32 1006 32 1006 34 C 1006 36 1013 36 1014 34 C 1017 32 1049 32 1049 33 C 1050 36 1061 36 1062 34 C 1064 32 1088 32 1089 34 C 1090 36 1095 36 1096 34 C 1097 32 1113 32 1113 34 C 1113 34 1119 36 1131 36 C 1143 36 1149 34 1149 34 C 1149 32 1160 32 1161 34 C 1162 36 1229 36 1231 34 C 1232 32 1246 32 1247 34 C 1250 36 1417 36 1418 34 C 1419 32 1424 32 1425 34 C 1426 36 1441 36 1442 34 C 1443 33 1632 32 2022 32 C 2513 31 2600 31 2603 30 C 2607 27 2609 27 2613 30 C 2616 32 3126 32 3128 30 C 3129 27 3149 27 3150 30 C 3152 31 3568 31 3570 30 C 3571 28 3810 28 4205 27 C 5181 26 5206 26 5208 25 C 5209 22 5229 22 5230 24 C 5231 26 5245 26 5247 24 C 5248 22 5253 22 5254 25 C 5256 26 5529 26 5530 24 C 5531 22 5570 22 5571 24 C 5572 26 5606 26 5607 24 C 5608 22 5632 22 5633 24 C 5635 26 5644 26 5645 24 C 5647 22 5728 22 5729 24 C 5731 26 5769 26 5770 24 C 5772 22 5776 22 5778 24 C 5779 26 5806 26 5809 25 C 5810 22 5820 22 5821 24 C 5822 26 5851 26 5852 25 C 5854 22 5905 22 5907 24 C 5908 26 5923 26 5924 24 C 5925 24 6097 22 6468 22 C 7009 22 7075 21 7077 19 C 7078 18 7112 18 7113 19 C 7113 21 7143 21 7144 19 C 7145 18 7150 18 7150 19 C 7150 21 7157 21 7159 19 C 7160 18 7543 18 7544 19 C 7545 21 7551 21 7553 19 C 7554 19 7733 18 8194 18 C 8408 18 8620 16 8834 16 C 8835 15 8836 15 8838 14 C 8846 7 8842 2 8830 1 C 8815 1 8468 1 8458 1 z" fill="black"/><!-- width=8848 height=43 -->
<path id="gl36356" d="M 8198 2 C 8190 2 8186 3 8184 4 C 8183 6 8106 6 8105 4 C 8104 2 8097 2 8097 4 C 8097 6 8058 6 8057 4 C 8056 2 8039 2 8039 4 C 8039 6 7948 6 7947 3 C 7945 2 7944 2 7944 3 C 7943 6 7771 6 7769 4 C 7768 2 7762 2 7760 4 C 7759 4 7603 6 7240 6 C 6525 7 6539 7 6537 8 C 6535 10 6526 10 6525 9 C 6523 7 6509 7 6508 9 C 6507 10 6502 10 6501 9 C 6499 7 6480 7 6479 9 C 6478 10 6473 10 6472 9 C 6470 7 6317 7 6316 9 C 6314 9 5738 10 5002 12 C 4769 12 4728 12 4725 13 C 4722 15 4715 15 4713 13 C 4711 12 4637 12 4634 13 C 4632 15 4187 15 4185 14 C 4184 13 4183 13 4183 13 C 4181 14 3904 15 3394 15 C 2627 16 2589 16 2588 19 C 2586 20 2572 20 2571 18 C 2571 16 2542 16 2540 18 C 2538 20 2500 20 2499 19 C 2496 16 2403 16 2400 18 C 2399 20 2303 20 2302 18 C 2301 16 2291 16 2290 18 C 2289 20 2279 20 2278 18 C 2275 16 2199 16 2199 18 C 2197 20 2183 20 2182 18 C 2181 18 2179 18 2179 18 C 2178 20 2164 20 2163 18 C 2161 18 2161 18 2160 18 C 2159 20 2135 20 2134 18 C 2131 16 2071 16 2069 18 C 2068 19 1442 20 737 20 C 311 20 272 21 269 22 C 264 25 259 25 257 22 C 254 21 237 21 133 21 C 92 21 51 21 10 21 C 9 22 7 24 6 24 C 1 27 0 32 3 34 C 6 37 1645 37 1647 34 C 1650 33 1892 32 2607 32 C 3687 31 3837 31 3839 30 C 3840 27 3855 27 3856 30 C 3856 31 3899 31 3902 30 C 3903 27 3908 27 3909 30 C 3911 31 4163 31 4166 30 C 4167 27 4172 27 4173 30 C 4175 31 4245 31 4247 30 C 4249 27 4268 27 4269 30 C 4270 31 4275 31 4276 30 C 4277 28 4908 27 5781 26 C 6099 26 6187 26 6188 25 C 6189 22 6209 22 6210 24 C 6211 26 6221 26 6222 25 C 6223 24 6428 22 6718 22 C 7268 21 7243 21 7245 20 C 7246 18 7285 18 7286 19 C 7287 21 7297 21 7298 19 C 7299 18 7309 18 7310 19 C 7311 21 7340 21 7341 19 C 7342 18 7463 18 7463 19 C 7463 21 7484 21 7485 19 C 7487 18 7491 18 7493 20 C 7495 22 7692 22 7696 20 C 7699 18 7709 18 7709 19 C 7709 21 7726 22 7729 20 C 7734 18 7738 18 7742 20 C 7746 22 7753 21 7754 19 C 7756 18 7765 18 7766 19 C 7768 21 7792 21 7793 19 C 7794 18 7813 18 7814 20 C 7814 21 7877 21 7879 19 C 7880 18 7919 18 7919 19 C 7919 21 7926 21 7927 19 C 7929 18 7962 18 7963 19 C 7965 21 8065 21 8067 19 C 8069 18 8159 18 8159 19 C 8160 21 8176 21 8177 19 C 8177 19 8181 18 8183 18 C 8186 18 8189 19 8189 19 C 8190 21 8219 21 8220 19 C 8220 19 8307 18 8529 18 C 8762 18 8839 16 8840 15 C 8842 14 8842 7 8840 3 C 8839 1 8835 1 8524 2 C 8351 2 8204 2 8198 2 z" fill="black"/><!-- width=8848 height=43 -->
</defs>
<use xlink:href="#gl15912" x="1" y="165"/>
<use xlink:href="#gl16133" x="105" y="197"/>
<use xlink:href="#gl15891" x="192" y="198"/>
<use xlink:href="#gl15892" x="279" y="165"/>
<use xlink:href="#gl16134" x="327" y="196"/>
<use xlink:href="#gl34059" x="413" y="198"/>
<use xlink:href="#gl35585" x="499" y="197"/>
<use xlink:href="#gl34060" x="633" y="164"/>
<use xlink:href="#gl15885" x="728" y="196"/>
<use xlink:href="#gl16641" x="820" y="165"/>
<use xlink:href="#gl15887" x="905" y="195"/>
<use xlink:href="#gl15878" x="993" y="196"/>
<use xlink:href="#gl15892" x="1081" y="163"/>
<use xlink:href="#gl16138" x="1128" y="197"/>
<use xlink:href="#gl15880" x="1219" y="196"/>
<use xlink:href="#gl35586" x="3917" y="158"/>
<use xlink:href="#gl15902" x="4021" y="190"/>
<use xlink:href="#gl35587" x="4114" y="190"/>
<use xlink:href="#gl15887" x="4200" y="189"/>
<use xlink:href="#gl16133" x="4291" y="189"/>
<use xlink:href="#gl15891" x="4378" y="191"/>
<use xlink:href="#gl15892" x="4464" y="157"/>
<use xlink:href="#gl16138" x="4511" y="190"/>
<use xlink:href="#gl34059" x="4598" y="190"/>
<use xlink:href="#gl15898" x="4685" y="190"/>
<use xlink:href="#gl34063" x="4815" y="157"/>
<use xlink:href="#gl15879" x="4915" y="187"/>
<use xlink:href="#gl16641" x="5004" y="157"/>
<use xlink:href="#gl15881" x="5093" y="187"/>
<use xlink:href="#gl15884" x="5175" y="189"/>
<use xlink:href="#gl15892" x="5265" y="155"/>
<use xlink:href="#gl16134" x="5313" y="186"/>
<use xlink:href="#gl16417" x="5401" y="192"/>
<use xlink:href="#gl15912" x="7699" y="149"/>
<use xlink:href="#gl35587" x="7804" y="183"/>
<use xlink:href="#gl15891" x="7890" y="182"/>
<use xlink:href="#gl15892" x="7976" y="149"/>
<use xlink:href="#gl15885" x="8021" y="181"/>
<use xlink:href="#gl15907" x="8104" y="153"/>
<use xlink:href="#gl16647" x="8156" y="182"/>
<use xlink:href="#gl32528" x="8284" y="148"/>
<use xlink:href="#gl31763" x="8371" y="216"/>
<use xlink:href="#gl31764" x="8462" y="148"/>
<use xlink:href="#gl32530" x="8554" y="147"/>
<use xlink:href="#gl31765" x="8640" y="148"/>
<use xlink:href="#gl35588" x="5" y="0"/>
<use xlink:href="#gl35589" x="0" y="398"/>
<use xlink:href="#gl35590" x="5" y="1109"/>
<use xlink:href="#gl35591" x="5" y="1704"/>
<use xlink:href="#gl35592" x="5" y="2313"/>
<use xlink:href="#gl35840" x="10" y="2918"/>
<use xlink:href="#gl35841" x="10" y="3523"/>
<use xlink:href="#gl35842" x="15" y="4123"/>
<use xlink:href="#gl35843" x="14" y="4718"/>
<use xlink:href="#gl35844" x="15" y="5313"/>
<use xlink:href="#gl36096" x="15" y="5914"/>
<use xlink:href="#gl36097" x="20" y="6518"/>
<use xlink:href="#gl36098" x="14" y="7123"/>
<use xlink:href="#gl36099" x="20" y="7723"/>
<use xlink:href="#gl36100" x="20" y="8328"/>
<use xlink:href="#gl36352" x="19" y="8923"/>
<use xlink:href="#gl36353" x="20" y="9518"/>
<use xlink:href="#gl36354" x="25" y="10118"/>
<use xlink:href="#gl36355" x="25" y="10718"/>
<use xlink:href="#gl36356" x="24" y="11314"/>
</svg>