<svg xmlns="http://www.w3.org/2000/svg" xmlns:xlink="http://www.w3.org/1999/xlink" width="218px" height="36px" viewBox="0 0 2188 367" version="1.1">
<defs>
<path id="gl5643" d="M 66 9 C 62 10 54 15 48 19 C 15 37 8 60 8 158 C 8 229 13 255 30 272 C 36 278 54 288 62 292 C 70 295 91 293 105 291 C 142 284 155 269 164 227 C 170 194 170 192 142 193 C 118 193 119 192 118 214 C 117 245 108 257 90 255 C 71 252 62 244 59 223 C 55 206 55 97 58 83 C 62 58 70 50 93 48 C 107 45 116 56 117 81 C 118 97 120 99 146 99 C 168 99 169 96 164 71 C 158 37 143 19 116 13 C 89 7 78 6 66 9 z" fill="black"/><!-- width=177 height=307 -->
<path id="gl5899" d="M 30 7 C 29 8 24 9 20 10 C 7 13 9 -2 8 145 C 8 252 9 275 10 276 C 13 279 30 282 40 282 C 54 282 53 290 52 201 C 52 177 52 151 52 126 C 53 123 54 121 55 118 C 63 103 83 100 92 115 C 93 117 94 118 95 121 C 95 146 95 173 95 199 C 95 270 95 276 98 278 C 101 281 135 281 138 278 C 142 273 142 111 138 103 C 127 75 95 65 69 82 C 52 94 48 88 52 47 C 54 15 54 13 50 9 C 48 6 33 4 30 7 z" fill="black"/><!-- width=155 height=296 -->
<path id="gl5900" d="M 39 12 C 33 13 28 17 25 18 C 22 22 13 40 11 49 C 6 69 11 74 33 74 C 45 74 50 72 51 63 C 54 45 62 38 79 40 C 93 41 99 47 99 62 C 99 78 88 88 66 94 C 56 96 35 106 29 110 C 19 117 11 137 8 154 C 4 196 24 225 54 222 C 65 219 74 216 81 211 C 95 200 96 200 103 207 C 106 213 106 213 127 214 C 148 217 148 216 144 198 C 144 195 143 160 143 121 C 143 39 143 40 132 28 C 121 15 108 11 83 9 C 45 8 49 7 39 12 M 95 115 C 96 116 99 120 99 122 C 100 130 98 165 95 171 C 90 186 76 192 63 187 C 54 182 50 175 51 158 C 51 143 55 136 67 127 C 83 114 90 110 95 115 z" fill="black"/><!-- width=159 height=235 -->
<path id="gl5901" d="M 81 7 C 75 9 71 10 65 15 C 58 21 55 20 49 13 C 47 12 44 9 43 8 C 39 8 36 8 31 8 C 12 8 8 9 8 19 C 8 22 8 75 8 136 C 8 197 8 252 8 258 C 7 279 8 281 27 281 C 42 281 47 280 48 274 C 48 272 48 257 48 240 C 45 208 47 202 50 198 C 54 197 55 197 64 204 C 90 223 123 217 136 189 C 140 180 141 171 141 110 C 141 89 141 70 141 49 C 140 44 137 39 136 35 C 133 24 131 20 128 16 C 118 8 93 2 81 7 M 87 41 C 96 48 96 54 96 111 C 96 148 96 159 95 164 C 88 191 60 192 53 166 C 49 154 49 62 53 53 C 59 38 76 32 87 41 z" fill="black"/><!-- width=157 height=294 -->
<path id="gl4625" d="M 28 7 C 23 9 22 14 23 37 C 23 45 23 52 24 60 C 23 61 22 62 20 63 C 19 64 17 67 15 67 C 9 67 7 72 7 80 C 7 91 8 95 15 97 C 24 101 24 97 24 176 C 24 255 24 253 31 260 C 39 268 45 270 64 270 C 84 270 86 269 89 263 C 90 255 89 238 86 237 C 86 237 83 237 79 236 C 67 231 68 236 68 165 C 68 145 67 124 67 104 C 68 102 69 101 71 100 C 73 97 75 97 79 97 C 86 97 89 94 89 80 C 89 69 86 68 79 67 C 68 64 68 63 68 36 C 69 8 69 9 55 7 C 44 6 30 6 28 7 z" fill="black"/><!-- width=100 height=282 -->
<path id="gl17672" d="M 77 10 C 68 10 48 16 39 20 C 25 26 15 40 12 61 C 7 85 10 175 16 192 C 21 205 38 220 52 222 C 55 222 62 225 68 226 C 107 237 144 208 144 168 C 144 156 144 156 120 155 C 97 155 98 154 97 169 C 96 189 92 192 78 193 C 63 195 56 190 52 174 C 50 163 49 139 50 136 C 55 128 60 126 69 130 C 75 131 99 131 107 128 C 113 127 116 126 126 127 C 146 128 146 128 144 93 C 143 46 138 33 116 20 C 104 12 91 9 77 10 M 81 46 C 95 51 101 60 101 75 C 101 91 98 92 81 95 C 74 95 67 96 66 96 C 55 97 50 90 50 75 C 50 58 56 48 67 46 C 69 46 72 45 73 45 C 75 44 75 45 81 46 z" fill="black"/><!-- width=158 height=240 -->
<path id="gl4627" d="M 81 8 C 73 12 68 15 65 20 C 56 36 47 38 47 22 C 47 12 46 12 28 12 C 17 12 13 12 11 13 C 9 14 8 14 7 15 C 7 47 8 79 8 113 C 8 200 8 210 11 211 C 13 215 45 215 49 212 C 52 210 52 210 51 150 C 50 89 51 84 57 75 C 61 68 73 62 83 62 C 94 62 95 61 95 34 C 95 11 95 11 93 8 C 89 4 87 4 81 8 z" fill="black"/><!-- width=106 height=226 -->
<path id="gl44069" d="M 90 8 C 81 10 79 14 75 25 C 69 43 55 52 27 57 C 7 60 6 60 6 76 C 6 92 8 93 49 90 C 57 88 58 88 61 92 C 69 97 69 93 68 190 C 68 285 68 279 75 283 C 80 285 93 285 104 283 C 112 282 116 278 116 271 C 116 269 115 240 115 208 C 115 177 114 133 114 111 C 112 79 114 67 115 52 C 117 24 117 15 114 13 C 110 10 98 6 96 7 C 96 7 93 7 90 8 z" fill="black"/><!-- width=129 height=297 -->
<path id="gl10261" d="M 62 12 C 26 21 12 37 8 71 C 4 97 6 100 30 100 C 49 100 49 101 49 79 C 51 57 56 50 72 49 C 96 47 107 68 99 101 C 95 113 93 117 80 131 C 76 136 70 143 67 147 C 66 151 57 160 50 167 C 16 206 10 218 6 266 C 3 281 7 282 35 281 C 47 281 56 281 65 282 C 77 283 86 283 120 282 C 148 281 147 282 147 262 C 147 246 148 246 123 246 C 112 246 102 245 100 244 C 95 242 83 244 74 246 C 59 252 49 240 57 224 C 61 218 74 202 78 200 C 79 199 86 192 93 184 C 100 176 109 165 115 158 C 132 138 136 134 142 119 C 155 88 149 48 130 30 C 123 22 105 13 93 10 C 80 7 83 7 62 12 z" fill="black"/><!-- width=161 height=298 -->
</defs>
<use xlink:href="#gl5643" x="0" y="0"/>
<use xlink:href="#gl5899" x="271" y="6"/>
<use xlink:href="#gl5900" x="514" y="70"/>
<use xlink:href="#gl5901" x="768" y="73"/>
<use xlink:href="#gl4625" x="1001" y="17"/>
<use xlink:href="#gl17672" x="1183" y="64"/>
<use xlink:href="#gl4627" x="1436" y="70"/>
<use xlink:href="#gl44069" x="1777" y="2"/>
<use xlink:href="#gl10261" x="2027" y="1"/>
</svg>