<svg xmlns="http://www.w3.org/2000/svg" xmlns:xlink="http://www.w3.org/1999/xlink" width="557px" height="85px" viewBox="0 0 5573 854" version="1.1">
<defs>
<path id="gl28165" d="M 158 3 C 158 3 152 4 146 5 C 127 7 106 14 92 21 C 20 59 -10 136 15 204 C 25 231 48 247 82 252 C 102 254 104 256 115 253 C 120 252 128 251 132 251 C 135 251 141 250 145 248 C 148 247 152 247 154 247 C 165 247 169 242 181 217 C 190 198 190 194 183 195 C 178 195 177 196 169 207 C 152 229 134 239 107 240 C 91 241 88 240 76 237 C 47 226 34 200 33 158 C 33 111 63 58 101 36 C 106 33 111 29 114 28 C 127 20 163 13 182 17 C 201 21 207 28 208 50 C 210 70 216 67 223 42 C 233 17 232 14 216 9 C 201 4 161 0 158 3 z" fill="black"/><!-- width=240 height=264 -->
<path id="gl5913" d="M 74 7 C 48 16 21 48 12 83 C 2 114 6 140 21 150 C 59 174 118 118 125 52 C 128 41 127 39 124 27 C 118 7 98 0 74 7 M 94 16 C 104 21 107 39 100 62 C 85 117 56 154 36 143 C 24 135 24 117 34 85 C 51 38 78 7 94 16 z" fill="black"/><!-- width=138 height=165 -->
<path id="gl6154" d="M 47 6 C 28 13 8 29 11 36 C 12 39 15 39 22 34 C 34 25 41 24 44 30 C 45 35 42 41 20 102 C 4 145 3 149 8 154 C 14 160 18 156 33 126 C 56 80 64 68 91 41 C 110 23 115 19 121 19 C 131 19 132 30 122 55 C 118 63 111 79 107 90 C 102 102 96 118 93 127 C 84 147 84 153 94 155 C 109 159 158 126 150 117 C 149 115 147 115 138 122 C 126 133 121 136 117 132 C 115 128 115 125 122 109 C 154 36 158 14 142 6 C 127 -1 100 13 73 47 C 52 73 49 66 64 26 C 69 14 69 9 62 6 C 58 3 55 3 47 6 z" fill="black"/><!-- width=162 height=166 -->
<path id="gl5918" d="M 65 6 C 64 6 61 14 56 23 C 47 40 46 41 32 43 C 21 45 18 46 18 50 C 18 53 19 54 28 54 C 35 54 39 58 39 62 C 39 63 35 75 31 90 C 21 117 8 160 7 168 C 3 183 12 186 26 179 C 54 167 84 139 76 133 C 74 130 72 131 58 145 C 45 157 40 160 36 158 C 32 156 31 151 34 144 C 37 131 59 67 61 62 C 64 54 67 53 80 54 C 101 56 107 54 107 47 C 107 42 103 41 89 42 C 70 43 68 40 74 23 C 78 13 78 8 75 6 C 74 3 68 3 65 6 z" fill="black"/><!-- width=116 height=194 -->
<path id="gl5912" d="M 35 7 C 24 12 9 28 9 35 C 9 40 12 40 17 35 C 28 26 34 23 38 29 C 42 34 35 53 16 114 C 4 146 4 146 8 151 C 14 158 19 153 31 130 C 44 94 59 66 75 45 C 90 26 94 23 101 38 C 106 47 111 45 116 35 C 124 17 115 1 101 4 C 91 8 83 18 66 43 C 53 66 48 65 54 39 C 58 22 59 17 57 12 C 54 3 47 2 35 7 z" fill="black"/><!-- width=128 height=163 -->
<path id="gl5913" d="M 74 7 C 48 16 21 48 12 83 C 2 114 6 140 21 150 C 59 174 118 118 125 52 C 128 41 127 39 124 27 C 118 7 98 0 74 7 M 94 16 C 104 21 107 39 100 62 C 85 117 56 154 36 143 C 24 135 24 117 34 85 C 51 38 78 7 94 16 z" fill="black"/><!-- width=138 height=165 -->
<path id="gl6155" d="M 93 3 C 81 6 69 9 67 12 C 63 15 63 17 69 24 C 74 30 73 36 60 74 C 54 94 44 125 39 142 C 33 159 27 179 24 187 C 15 213 6 250 6 252 C 6 266 25 268 44 256 C 66 244 84 218 73 217 C 71 216 67 219 55 232 C 42 245 40 247 36 247 C 28 247 28 240 35 220 C 38 212 46 185 55 159 C 63 132 78 88 88 60 C 94 42 99 24 105 7 C 104 7 103 6 103 4 C 99 3 98 2 93 3 z" fill="black"/><!-- width=114 height=274 -->
<path id="gl6155" d="M 93 3 C 81 6 69 9 67 12 C 63 15 63 17 69 24 C 74 30 73 36 60 74 C 54 94 44 125 39 142 C 33 159 27 179 24 187 C 15 213 6 250 6 252 C 6 266 25 268 44 256 C 66 244 84 218 73 217 C 71 216 67 219 55 232 C 42 245 40 247 36 247 C 28 247 28 240 35 220 C 38 212 46 185 55 159 C 63 132 78 88 88 60 C 94 42 99 24 105 7 C 104 7 103 6 103 4 C 99 3 98 2 93 3 z" fill="black"/><!-- width=114 height=274 -->
<path id="gl5909" d="M 70 8 C 62 15 60 29 68 35 C 74 41 85 37 90 26 C 99 10 84 -2 70 8 M 54 97 C 35 107 17 120 18 125 C 18 129 23 129 29 124 C 39 117 42 117 45 119 C 47 123 47 126 36 152 C 24 181 9 219 7 228 C 1 246 20 245 52 224 C 67 214 73 207 73 202 C 73 195 70 196 56 209 C 36 226 29 220 40 195 C 42 188 49 170 57 153 C 64 136 71 119 73 114 C 82 93 75 86 54 97 z" fill="black"/><!-- width=102 height=251 -->
<path id="gl6154" d="M 47 6 C 28 13 8 29 11 36 C 12 39 15 39 22 34 C 34 25 41 24 44 30 C 45 35 42 41 20 102 C 4 145 3 149 8 154 C 14 160 18 156 33 126 C 56 80 64 68 91 41 C 110 23 115 19 121 19 C 131 19 132 30 122 55 C 118 63 111 79 107 90 C 102 102 96 118 93 127 C 84 147 84 153 94 155 C 109 159 158 126 150 117 C 149 115 147 115 138 122 C 126 133 121 136 117 132 C 115 128 115 125 122 109 C 154 36 158 14 142 6 C 127 -1 100 13 73 47 C 52 73 49 66 64 26 C 69 14 69 9 62 6 C 58 3 55 3 47 6 z" fill="black"/><!-- width=162 height=166 -->
<path id="gl5914" d="M 101 7 C 75 14 53 40 46 70 C 41 89 42 99 55 110 C 64 119 64 119 59 130 C 55 140 55 144 56 155 C 57 163 56 165 41 171 C 7 185 -3 214 14 232 C 44 258 127 247 144 214 C 152 196 143 183 107 161 C 84 148 77 141 75 135 C 72 124 78 118 94 113 C 126 102 150 69 151 37 C 151 24 155 20 166 23 C 182 25 192 17 182 7 C 177 3 174 3 165 7 C 155 9 145 9 137 7 C 127 3 113 3 101 7 M 127 17 C 133 25 130 39 121 59 C 101 97 80 115 68 103 C 62 96 64 78 77 57 C 96 22 117 6 127 17 M 85 173 C 95 178 112 189 116 194 C 133 215 113 233 75 233 C 29 233 13 206 44 181 C 59 170 72 167 85 173 z" fill="black"/><!-- width=193 height=255 -->
<path id="gl25107" d="M 24 6 C 20 10 6 41 4 46 C 3 49 6 53 8 53 C 9 53 14 48 20 42 C 35 26 47 23 80 21 C 99 21 100 23 99 34 C 99 38 98 47 96 52 C 83 88 79 104 79 108 C 77 110 76 116 74 122 C 69 138 62 165 58 175 C 57 178 55 186 54 190 C 52 195 51 201 49 205 C 42 229 34 239 19 243 C 9 244 4 249 9 251 C 13 254 92 251 94 250 C 96 248 92 244 85 243 C 77 242 74 239 72 232 C 70 225 70 223 92 150 C 96 141 98 130 99 126 C 100 122 104 109 109 97 C 115 75 125 45 127 37 C 131 24 135 21 160 23 C 192 24 195 25 198 42 C 199 58 209 59 212 43 C 212 41 215 35 217 29 C 227 4 226 3 210 7 C 199 9 198 9 126 9 C 52 9 43 9 36 4 C 30 2 26 2 24 6 z" fill="black"/><!-- width=234 height=262 -->
<path id="gl5908" d="M 91 4 C 72 9 68 12 73 22 C 78 29 78 34 62 82 C 53 106 44 136 40 148 C 33 170 20 210 9 240 C 6 250 4 257 4 258 C 7 265 14 267 19 261 C 20 259 26 248 33 237 C 53 194 73 169 102 144 C 136 116 143 133 125 191 C 115 221 106 241 100 246 C 96 250 96 250 89 247 C 82 245 78 245 75 248 C 69 256 73 264 82 267 C 91 269 112 254 127 234 C 137 220 151 186 158 161 C 171 105 132 99 84 149 C 60 174 58 175 58 162 C 58 156 78 98 105 22 C 111 8 110 4 100 4 C 96 4 93 4 91 4 z" fill="black"/><!-- width=170 height=276 -->
<path id="gl5913" d="M 74 7 C 48 16 21 48 12 83 C 2 114 6 140 21 150 C 59 174 118 118 125 52 C 128 41 127 39 124 27 C 118 7 98 0 74 7 M 94 16 C 104 21 107 39 100 62 C 85 117 56 154 36 143 C 24 135 24 117 34 85 C 51 38 78 7 94 16 z" fill="black"/><!-- width=138 height=165 -->
<path id="gl28166" d="M 51 6 C 31 13 1 39 3 46 C 4 50 7 48 18 39 C 31 26 39 26 39 36 C 39 39 39 41 28 71 C 9 117 3 139 7 148 C 12 159 24 156 45 139 C 55 133 64 123 85 101 C 97 88 102 94 94 116 C 91 123 88 131 86 133 C 77 153 88 160 110 149 C 133 137 153 118 150 111 C 149 107 144 110 133 120 C 123 129 121 132 118 132 C 108 132 108 124 122 91 C 127 77 133 61 134 57 C 135 53 139 45 142 37 C 149 22 151 15 150 13 C 149 8 145 7 140 7 C 134 7 132 9 126 23 C 110 61 94 83 62 112 C 41 132 37 134 33 129 C 29 126 30 118 39 97 C 44 85 50 68 53 60 C 57 48 62 36 64 30 C 72 13 72 9 64 6 C 61 3 57 3 51 6 z" fill="black"/><!-- width=160 height=166 -->
<path id="gl5914" d="M 101 7 C 75 14 53 40 46 70 C 41 89 42 99 55 110 C 64 119 64 119 59 130 C 55 140 55 144 56 155 C 57 163 56 165 41 171 C 7 185 -3 214 14 232 C 44 258 127 247 144 214 C 152 196 143 183 107 161 C 84 148 77 141 75 135 C 72 124 78 118 94 113 C 126 102 150 69 151 37 C 151 24 155 20 166 23 C 182 25 192 17 182 7 C 177 3 174 3 165 7 C 155 9 145 9 137 7 C 127 3 113 3 101 7 M 127 17 C 133 25 130 39 121 59 C 101 97 80 115 68 103 C 62 96 64 78 77 57 C 96 22 117 6 127 17 M 85 173 C 95 178 112 189 116 194 C 133 215 113 233 75 233 C 29 233 13 206 44 181 C 59 170 72 167 85 173 z" fill="black"/><!-- width=193 height=255 -->
<path id="gl5908" d="M 91 4 C 72 9 68 12 73 22 C 78 29 78 34 62 82 C 53 106 44 136 40 148 C 33 170 20 210 9 240 C 6 250 4 257 4 258 C 7 265 14 267 19 261 C 20 259 26 248 33 237 C 53 194 73 169 102 144 C 136 116 143 133 125 191 C 115 221 106 241 100 246 C 96 250 96 250 89 247 C 82 245 78 245 75 248 C 69 256 73 264 82 267 C 91 269 112 254 127 234 C 137 220 151 186 158 161 C 171 105 132 99 84 149 C 60 174 58 175 58 162 C 58 156 78 98 105 22 C 111 8 110 4 100 4 C 96 4 93 4 91 4 z" fill="black"/><!-- width=170 height=276 -->
<path id="gl28167" d="M 64 8 C 61 12 56 19 49 34 C 46 42 43 43 28 45 C 20 46 19 46 16 49 C 15 50 14 51 14 52 C 14 54 15 54 16 55 C 18 57 20 58 26 58 C 36 58 37 60 37 70 C 37 74 37 78 37 81 C 38 81 39 80 40 80 C 45 80 45 84 40 88 C 39 90 39 90 38 91 C 37 90 36 88 36 87 C 33 84 33 84 33 86 C 33 87 32 90 31 92 C 28 94 26 102 22 111 C 21 115 20 121 8 157 C 3 175 3 177 7 182 C 9 184 9 186 15 184 C 26 184 50 169 66 153 C 78 141 79 140 78 136 C 78 129 73 132 61 142 C 44 158 38 162 33 158 C 31 156 31 150 34 141 C 42 122 49 103 50 97 C 51 91 57 72 61 64 C 64 57 75 54 84 57 C 96 61 112 51 104 45 C 100 43 97 43 84 44 C 75 45 75 45 73 42 C 69 37 69 36 74 24 C 75 19 76 13 76 12 C 75 4 68 3 64 8 z" fill="black"/><!-- width=116 height=198 -->
<path id="gl5906" d="M 72 4 C 60 9 42 25 37 37 C 33 51 35 63 49 85 C 61 105 62 116 56 127 C 49 139 37 139 23 127 C 15 122 12 121 8 126 C 0 136 9 149 24 150 C 51 153 78 129 78 104 C 78 93 75 87 66 71 C 57 56 53 47 53 39 C 53 22 68 14 82 24 C 85 26 89 29 90 30 C 98 36 105 24 100 14 C 94 4 84 1 72 4 z" fill="black"/><!-- width=111 height=162 -->
<path id="gl25107" d="M 24 6 C 20 10 6 41 4 46 C 3 49 6 53 8 53 C 9 53 14 48 20 42 C 35 26 47 23 80 21 C 99 21 100 23 99 34 C 99 38 98 47 96 52 C 83 88 79 104 79 108 C 77 110 76 116 74 122 C 69 138 62 165 58 175 C 57 178 55 186 54 190 C 52 195 51 201 49 205 C 42 229 34 239 19 243 C 9 244 4 249 9 251 C 13 254 92 251 94 250 C 96 248 92 244 85 243 C 77 242 74 239 72 232 C 70 225 70 223 92 150 C 96 141 98 130 99 126 C 100 122 104 109 109 97 C 115 75 125 45 127 37 C 131 24 135 21 160 23 C 192 24 195 25 198 42 C 199 58 209 59 212 43 C 212 41 215 35 217 29 C 227 4 226 3 210 7 C 199 9 198 9 126 9 C 52 9 43 9 36 4 C 30 2 26 2 24 6 z" fill="black"/><!-- width=234 height=262 -->
<path id="gl5908" d="M 91 4 C 72 9 68 12 73 22 C 78 29 78 34 62 82 C 53 106 44 136 40 148 C 33 170 20 210 9 240 C 6 250 4 257 4 258 C 7 265 14 267 19 261 C 20 259 26 248 33 237 C 53 194 73 169 102 144 C 136 116 143 133 125 191 C 115 221 106 241 100 246 C 96 250 96 250 89 247 C 82 245 78 245 75 248 C 69 256 73 264 82 267 C 91 269 112 254 127 234 C 137 220 151 186 158 161 C 171 105 132 99 84 149 C 60 174 58 175 58 162 C 58 156 78 98 105 22 C 111 8 110 4 100 4 C 96 4 93 4 91 4 z" fill="black"/><!-- width=170 height=276 -->
<path id="gl5915" d="M 139 7 C 137 9 134 12 134 13 C 134 13 134 15 132 18 C 129 21 126 21 118 19 C 98 10 63 32 36 72 C 4 118 -1 161 20 161 C 32 161 54 148 74 131 C 90 115 95 117 87 139 C 83 151 83 155 88 158 C 95 166 123 154 143 135 C 150 128 150 127 148 124 C 145 122 144 122 133 131 C 120 141 112 144 109 137 C 107 133 109 128 117 106 C 121 97 128 78 134 64 C 139 49 146 32 149 25 C 155 10 155 9 151 6 C 148 2 143 2 139 7 M 112 32 C 122 40 121 52 105 81 C 93 104 67 131 48 140 C 23 154 29 111 58 67 C 78 38 99 24 112 32 z" fill="black"/><!-- width=163 height=172 -->
<path id="gl5918" d="M 65 6 C 64 6 61 14 56 23 C 47 40 46 41 32 43 C 21 45 18 46 18 50 C 18 53 19 54 28 54 C 35 54 39 58 39 62 C 39 63 35 75 31 90 C 21 117 8 160 7 168 C 3 183 12 186 26 179 C 54 167 84 139 76 133 C 74 130 72 131 58 145 C 45 157 40 160 36 158 C 32 156 31 151 34 144 C 37 131 59 67 61 62 C 64 54 67 53 80 54 C 101 56 107 54 107 47 C 107 42 103 41 89 42 C 70 43 68 40 74 23 C 78 13 78 8 75 6 C 74 3 68 3 65 6 z" fill="black"/><!-- width=116 height=194 -->
<path id="gl28165" d="M 158 3 C 158 3 152 4 146 5 C 127 7 106 14 92 21 C 20 59 -10 136 15 204 C 25 231 48 247 82 252 C 102 254 104 256 115 253 C 120 252 128 251 132 251 C 135 251 141 250 145 248 C 148 247 152 247 154 247 C 165 247 169 242 181 217 C 190 198 190 194 183 195 C 178 195 177 196 169 207 C 152 229 134 239 107 240 C 91 241 88 240 76 237 C 47 226 34 200 33 158 C 33 111 63 58 101 36 C 106 33 111 29 114 28 C 127 20 163 13 182 17 C 201 21 207 28 208 50 C 210 70 216 67 223 42 C 233 17 232 14 216 9 C 201 4 161 0 158 3 z" fill="black"/><!-- width=240 height=264 -->
<path id="gl5915" d="M 139 7 C 137 9 134 12 134 13 C 134 13 134 15 132 18 C 129 21 126 21 118 19 C 98 10 63 32 36 72 C 4 118 -1 161 20 161 C 32 161 54 148 74 131 C 90 115 95 117 87 139 C 83 151 83 155 88 158 C 95 166 123 154 143 135 C 150 128 150 127 148 124 C 145 122 144 122 133 131 C 120 141 112 144 109 137 C 107 133 109 128 117 106 C 121 97 128 78 134 64 C 139 49 146 32 149 25 C 155 10 155 9 151 6 C 148 2 143 2 139 7 M 112 32 C 122 40 121 52 105 81 C 93 104 67 131 48 140 C 23 154 29 111 58 67 C 78 38 99 24 112 32 z" fill="black"/><!-- width=163 height=172 -->
<path id="gl28166" d="M 51 6 C 31 13 1 39 3 46 C 4 50 7 48 18 39 C 31 26 39 26 39 36 C 39 39 39 41 28 71 C 9 117 3 139 7 148 C 12 159 24 156 45 139 C 55 133 64 123 85 101 C 97 88 102 94 94 116 C 91 123 88 131 86 133 C 77 153 88 160 110 149 C 133 137 153 118 150 111 C 149 107 144 110 133 120 C 123 129 121 132 118 132 C 108 132 108 124 122 91 C 127 77 133 61 134 57 C 135 53 139 45 142 37 C 149 22 151 15 150 13 C 149 8 145 7 140 7 C 134 7 132 9 126 23 C 110 61 94 83 62 112 C 41 132 37 134 33 129 C 29 126 30 118 39 97 C 44 85 50 68 53 60 C 57 48 62 36 64 30 C 72 13 72 9 64 6 C 61 3 57 3 51 6 z" fill="black"/><!-- width=160 height=166 -->
<path id="gl5910" d="M 72 7 C 66 8 54 18 48 25 C 32 42 32 57 48 85 C 58 103 60 109 60 117 C 60 136 43 144 29 133 C 15 123 13 123 9 128 C 6 132 6 140 8 145 C 18 161 52 155 69 134 C 83 116 83 100 66 71 C 53 49 52 35 60 26 C 68 19 77 20 88 30 C 96 37 103 34 103 24 C 103 10 88 2 72 7 z" fill="black"/><!-- width=113 height=166 -->
<path id="gl6150" d="M 86 6 C 45 17 4 76 8 122 C 9 151 26 161 54 152 C 73 144 91 128 86 122 C 84 120 83 121 71 128 C 57 138 49 141 40 137 C 32 132 29 127 30 110 C 30 87 34 83 58 78 C 101 68 131 37 118 14 C 114 4 102 2 86 6 M 99 18 C 107 27 95 47 69 63 C 37 84 37 63 68 30 C 83 16 92 12 99 18 z" fill="black"/><!-- width=132 height=164 -->
<path id="gl25108" d="M 191 9 C 180 15 178 16 173 27 C 169 33 162 44 156 52 C 142 71 133 82 118 106 C 96 138 88 150 77 165 C 72 173 64 184 60 188 C 35 226 28 233 8 240 C 4 242 4 246 8 247 C 9 248 23 248 40 248 C 50 247 60 247 70 247 C 70 246 70 245 70 243 C 71 241 70 241 65 239 C 55 234 56 229 75 199 C 81 190 87 181 88 180 C 88 178 92 172 95 167 C 105 153 106 153 138 151 C 178 150 177 148 172 202 C 171 217 169 227 166 232 C 163 235 155 239 151 240 C 145 240 143 247 148 248 C 149 248 166 248 185 248 C 220 247 220 247 220 245 C 221 241 218 240 211 239 C 197 236 196 226 202 129 C 202 119 203 99 203 83 C 204 68 205 47 206 37 C 209 10 209 8 206 5 C 202 4 199 4 191 9 M 180 53 C 181 56 180 74 178 116 C 175 138 174 139 148 138 C 114 137 114 136 135 107 C 141 98 149 84 155 76 C 171 51 175 46 180 53 z" fill="black"/><!-- width=229 height=258 -->
<path id="gl6154" d="M 47 6 C 28 13 8 29 11 36 C 12 39 15 39 22 34 C 34 25 41 24 44 30 C 45 35 42 41 20 102 C 4 145 3 149 8 154 C 14 160 18 156 33 126 C 56 80 64 68 91 41 C 110 23 115 19 121 19 C 131 19 132 30 122 55 C 118 63 111 79 107 90 C 102 102 96 118 93 127 C 84 147 84 153 94 155 C 109 159 158 126 150 117 C 149 115 147 115 138 122 C 126 133 121 136 117 132 C 115 128 115 125 122 109 C 154 36 158 14 142 6 C 127 -1 100 13 73 47 C 52 73 49 66 64 26 C 69 14 69 9 62 6 C 58 3 55 3 47 6 z" fill="black"/><!-- width=162 height=166 -->
<path id="gl6159" d="M 55 8 C 47 12 32 33 32 40 C 32 45 37 45 43 38 C 50 29 55 30 60 40 C 65 49 74 72 75 79 C 77 89 77 89 45 123 C 37 132 33 133 28 127 C 21 121 18 121 13 126 C 2 137 3 153 16 155 C 25 158 44 143 61 121 C 80 97 84 97 91 118 C 103 152 112 162 126 152 C 137 144 149 121 144 115 C 142 112 137 115 134 120 C 128 132 118 132 112 120 C 108 111 97 84 97 80 C 98 75 101 70 108 61 C 112 58 120 50 124 44 C 141 27 143 25 152 34 C 157 39 158 40 160 39 C 176 34 174 6 157 6 C 144 6 124 23 107 49 C 95 66 90 64 80 33 C 74 14 71 9 65 7 C 60 4 61 4 55 8 z" fill="black"/><!-- width=181 height=167 -->
<path id="gl5909" d="M 70 8 C 62 15 60 29 68 35 C 74 41 85 37 90 26 C 99 10 84 -2 70 8 M 54 97 C 35 107 17 120 18 125 C 18 129 23 129 29 124 C 39 117 42 117 45 119 C 47 123 47 126 36 152 C 24 181 9 219 7 228 C 1 246 20 245 52 224 C 67 214 73 207 73 202 C 73 195 70 196 56 209 C 36 226 29 220 40 195 C 42 188 49 170 57 153 C 64 136 71 119 73 114 C 82 93 75 86 54 97 z" fill="black"/><!-- width=102 height=251 -->
<path id="gl6150" d="M 86 6 C 45 17 4 76 8 122 C 9 151 26 161 54 152 C 73 144 91 128 86 122 C 84 120 83 121 71 128 C 57 138 49 141 40 137 C 32 132 29 127 30 110 C 30 87 34 83 58 78 C 101 68 131 37 118 14 C 114 4 102 2 86 6 M 99 18 C 107 27 95 47 69 63 C 37 84 37 63 68 30 C 83 16 92 12 99 18 z" fill="black"/><!-- width=132 height=164 -->
<path id="gl5918" d="M 65 6 C 64 6 61 14 56 23 C 47 40 46 41 32 43 C 21 45 18 46 18 50 C 18 53 19 54 28 54 C 35 54 39 58 39 62 C 39 63 35 75 31 90 C 21 117 8 160 7 168 C 3 183 12 186 26 179 C 54 167 84 139 76 133 C 74 130 72 131 58 145 C 45 157 40 160 36 158 C 32 156 31 151 34 144 C 37 131 59 67 61 62 C 64 54 67 53 80 54 C 101 56 107 54 107 47 C 107 42 103 41 89 42 C 70 43 68 40 74 23 C 78 13 78 8 75 6 C 74 3 68 3 65 6 z" fill="black"/><!-- width=116 height=194 -->
<path id="gl6162" d="M 86 5 C 83 5 78 9 75 11 C 66 19 63 20 60 17 C 57 16 56 17 57 23 C 58 28 58 31 57 35 C 52 51 58 57 65 43 C 74 29 81 26 87 34 C 98 50 96 133 86 167 C 78 191 59 218 46 224 C 38 228 35 228 27 223 C 17 216 14 216 8 222 C 0 230 5 245 19 247 C 44 251 77 221 113 160 C 118 153 124 142 127 136 C 144 111 148 102 154 89 C 157 82 161 71 163 65 C 165 60 167 53 168 51 C 172 43 177 22 177 17 C 177 13 172 5 167 5 C 157 4 155 8 153 28 C 149 56 145 72 136 98 C 126 124 118 136 114 129 C 113 129 113 107 113 83 C 113 45 113 38 111 29 C 106 9 99 2 86 5 z" fill="black"/><!-- width=186 height=258 -->
<path id="gl28168" d="M 48 8 C 38 13 33 27 38 34 C 44 43 54 44 62 38 C 68 34 69 31 69 22 C 69 9 60 2 48 8 M 19 117 C 7 122 3 140 12 147 C 22 154 38 144 38 129 C 38 118 30 112 19 117 z" fill="black"/><!-- width=82 height=159 -->
<path id="gl28169" d="M 96 7 C 82 7 69 8 68 8 C 64 9 68 14 73 15 C 80 16 85 21 85 30 C 86 36 85 40 76 66 C 70 81 64 100 62 109 C 60 117 56 129 55 135 C 52 142 50 150 50 153 C 48 162 39 190 37 195 C 36 198 33 204 31 210 C 25 228 18 237 8 238 C 6 238 3 240 3 241 C 3 241 3 242 3 243 C 2 247 8 247 40 248 C 75 248 79 247 74 242 C 72 241 70 240 69 240 C 64 240 61 235 58 230 C 56 223 56 218 63 199 C 66 190 69 180 70 174 C 72 168 74 162 75 160 C 75 158 78 148 81 139 C 84 128 87 115 90 109 C 91 102 96 88 98 79 C 110 38 116 27 127 20 C 132 18 135 16 139 16 C 144 16 146 14 146 10 C 146 6 135 4 96 7 M 194 7 C 188 8 189 16 195 16 C 196 16 200 18 202 20 C 211 27 210 33 200 63 C 189 92 180 126 175 144 C 166 178 152 217 145 228 C 141 232 133 238 128 238 C 124 238 117 244 118 246 C 120 246 134 247 152 247 C 169 247 184 248 187 248 C 189 248 193 248 195 247 C 198 246 199 246 201 244 C 200 243 199 243 198 242 C 196 241 193 238 189 237 C 178 234 176 225 183 206 C 184 200 187 193 188 190 C 194 169 198 159 199 156 C 199 151 202 141 207 123 C 208 120 211 110 213 100 C 217 91 219 82 219 81 C 222 78 230 54 232 48 C 236 28 249 16 262 16 C 265 16 267 10 265 8 C 264 7 206 6 194 7 z" fill="black"/><!-- width=274 height=260 -->
<path id="gl25112" d="M 16 7 C 2 13 4 38 19 39 C 26 39 28 37 32 29 C 38 18 37 13 29 9 C 22 6 19 4 16 7 z" fill="black"/><!-- width=48 height=49 -->
<path id="gl28170" d="M 26 6 C 22 8 15 20 15 22 C 15 22 15 25 14 25 C 12 28 6 42 4 45 C 3 49 4 49 7 50 C 9 51 10 50 18 43 C 33 26 48 21 78 22 C 84 22 90 22 96 22 C 97 24 97 25 98 26 C 102 30 102 32 98 45 C 96 51 91 66 87 78 C 81 97 72 126 63 157 C 50 201 46 212 40 224 C 34 236 27 241 19 241 C 12 241 8 244 8 246 C 8 251 10 251 51 251 C 93 251 93 251 92 246 C 92 244 91 244 85 242 C 69 239 66 230 72 213 C 73 211 74 205 75 200 C 78 194 80 188 81 185 C 82 181 85 169 88 161 C 91 150 93 140 96 137 C 97 133 98 125 100 120 C 102 115 105 104 108 96 C 110 87 114 78 115 73 C 116 68 118 61 120 57 C 121 54 122 50 122 48 C 122 45 125 40 127 36 C 133 22 135 21 159 22 C 189 22 198 27 199 43 C 199 61 209 56 213 37 C 213 36 215 33 216 31 C 219 22 222 14 222 10 C 222 6 217 4 210 8 C 205 10 198 12 122 12 C 97 12 72 12 46 12 C 44 10 42 9 39 8 C 36 7 31 4 30 4 C 28 3 27 3 26 6 z" fill="black"/><!-- width=230 height=259 -->
<path id="gl17675" d="M 91 6 C 72 9 67 14 73 22 C 78 30 77 34 61 83 C 52 107 43 138 39 151 C 30 183 24 199 13 232 C 3 262 2 264 8 268 C 14 273 18 269 31 244 C 52 202 65 184 85 161 C 115 130 130 124 134 140 C 137 152 122 205 108 237 C 101 252 99 254 83 250 C 78 249 71 254 71 260 C 71 264 78 272 84 272 C 113 272 151 208 160 150 C 162 128 155 115 139 115 C 122 115 98 132 77 157 C 66 169 63 170 60 170 C 55 170 57 158 67 131 C 71 121 77 105 79 96 C 83 86 87 72 91 63 C 95 55 98 45 98 40 C 101 37 103 30 104 25 C 111 7 109 3 91 6 z" fill="black"/><!-- width=169 height=280 -->
<path id="gl5909" d="M 70 8 C 62 15 60 29 68 35 C 74 41 85 37 90 26 C 99 10 84 -2 70 8 M 54 97 C 35 107 17 120 18 125 C 18 129 23 129 29 124 C 39 117 42 117 45 119 C 47 123 47 126 36 152 C 24 181 9 219 7 228 C 1 246 20 245 52 224 C 67 214 73 207 73 202 C 73 195 70 196 56 209 C 36 226 29 220 40 195 C 42 188 49 170 57 153 C 64 136 71 119 73 114 C 82 93 75 86 54 97 z" fill="black"/><!-- width=102 height=251 -->
<path id="gl6154" d="M 47 6 C 28 13 8 29 11 36 C 12 39 15 39 22 34 C 34 25 41 24 44 30 C 45 35 42 41 20 102 C 4 145 3 149 8 154 C 14 160 18 156 33 126 C 56 80 64 68 91 41 C 110 23 115 19 121 19 C 131 19 132 30 122 55 C 118 63 111 79 107 90 C 102 102 96 118 93 127 C 84 147 84 153 94 155 C 109 159 158 126 150 117 C 149 115 147 115 138 122 C 126 133 121 136 117 132 C 115 128 115 125 122 109 C 154 36 158 14 142 6 C 127 -1 100 13 73 47 C 52 73 49 66 64 26 C 69 14 69 9 62 6 C 58 3 55 3 47 6 z" fill="black"/><!-- width=162 height=166 -->
<path id="gl28171" d="M 93 7 C 93 7 87 9 81 10 C 64 15 62 19 68 28 C 70 31 73 36 73 38 C 73 43 66 66 61 79 C 56 90 52 100 45 124 C 42 134 38 146 37 150 C 34 154 32 162 31 166 C 31 171 28 181 26 188 C 24 195 21 202 20 205 C 20 207 15 220 10 232 C 7 246 3 259 3 260 C 3 267 10 271 16 266 C 19 265 27 246 37 218 C 40 211 46 205 51 204 C 57 202 61 207 67 224 C 69 231 72 238 73 241 C 81 264 90 272 102 269 C 115 265 136 241 129 238 C 126 237 123 237 117 242 C 104 252 98 247 88 222 C 81 200 82 196 98 192 C 122 183 153 153 153 138 C 153 120 133 111 111 121 C 98 126 93 128 81 139 C 69 148 67 150 64 147 C 62 145 63 135 67 123 C 69 117 73 109 75 102 C 76 96 79 90 80 87 C 81 85 85 76 87 67 C 91 57 96 45 98 39 C 108 15 106 3 93 7 M 122 135 C 132 146 123 159 97 177 C 74 193 58 200 54 196 C 45 190 54 175 73 156 C 94 134 114 127 122 135 z" fill="black"/><!-- width=163 height=278 -->
<path id="gl17684" d="M 71 7 C 60 13 59 31 70 36 C 83 43 100 19 88 7 C 84 3 76 3 71 7 M 58 93 C 43 99 16 118 16 124 C 16 128 20 128 29 123 C 37 117 41 116 43 117 C 48 121 48 121 31 162 C 24 180 19 193 15 202 C 14 207 12 215 9 220 C -1 249 13 252 52 226 C 70 214 76 206 71 201 C 69 198 69 198 59 207 C 48 218 42 221 37 220 C 32 218 33 210 40 195 C 44 183 53 162 64 135 C 65 130 70 121 72 115 C 81 94 76 87 58 93 z" fill="black"/><!-- width=103 height=253 -->
<path id="gl6154" d="M 47 6 C 28 13 8 29 11 36 C 12 39 15 39 22 34 C 34 25 41 24 44 30 C 45 35 42 41 20 102 C 4 145 3 149 8 154 C 14 160 18 156 33 126 C 56 80 64 68 91 41 C 110 23 115 19 121 19 C 131 19 132 30 122 55 C 118 63 111 79 107 90 C 102 102 96 118 93 127 C 84 147 84 153 94 155 C 109 159 158 126 150 117 C 149 115 147 115 138 122 C 126 133 121 136 117 132 C 115 128 115 125 122 109 C 154 36 158 14 142 6 C 127 -1 100 13 73 47 C 52 73 49 66 64 26 C 69 14 69 9 62 6 C 58 3 55 3 47 6 z" fill="black"/><!-- width=162 height=166 -->
<path id="gl5914" d="M 101 7 C 75 14 53 40 46 70 C 41 89 42 99 55 110 C 64 119 64 119 59 130 C 55 140 55 144 56 155 C 57 163 56 165 41 171 C 7 185 -3 214 14 232 C 44 258 127 247 144 214 C 152 196 143 183 107 161 C 84 148 77 141 75 135 C 72 124 78 118 94 113 C 126 102 150 69 151 37 C 151 24 155 20 166 23 C 182 25 192 17 182 7 C 177 3 174 3 165 7 C 155 9 145 9 137 7 C 127 3 113 3 101 7 M 127 17 C 133 25 130 39 121 59 C 101 97 80 115 68 103 C 62 96 64 78 77 57 C 96 22 117 6 127 17 M 85 173 C 95 178 112 189 116 194 C 133 215 113 233 75 233 C 29 233 13 206 44 181 C 59 170 72 167 85 173 z" fill="black"/><!-- width=193 height=255 -->
<path id="gl5918" d="M 65 6 C 64 6 61 14 56 23 C 47 40 46 41 32 43 C 21 45 18 46 18 50 C 18 53 19 54 28 54 C 35 54 39 58 39 62 C 39 63 35 75 31 90 C 21 117 8 160 7 168 C 3 183 12 186 26 179 C 54 167 84 139 76 133 C 74 130 72 131 58 145 C 45 157 40 160 36 158 C 32 156 31 151 34 144 C 37 131 59 67 61 62 C 64 54 67 53 80 54 C 101 56 107 54 107 47 C 107 42 103 41 89 42 C 70 43 68 40 74 23 C 78 13 78 8 75 6 C 74 3 68 3 65 6 z" fill="black"/><!-- width=116 height=194 -->
<path id="gl17675" d="M 91 6 C 72 9 67 14 73 22 C 78 30 77 34 61 83 C 52 107 43 138 39 151 C 30 183 24 199 13 232 C 3 262 2 264 8 268 C 14 273 18 269 31 244 C 52 202 65 184 85 161 C 115 130 130 124 134 140 C 137 152 122 205 108 237 C 101 252 99 254 83 250 C 78 249 71 254 71 260 C 71 264 78 272 84 272 C 113 272 151 208 160 150 C 162 128 155 115 139 115 C 122 115 98 132 77 157 C 66 169 63 170 60 170 C 55 170 57 158 67 131 C 71 121 77 105 79 96 C 83 86 87 72 91 63 C 95 55 98 45 98 40 C 101 37 103 30 104 25 C 111 7 109 3 91 6 z" fill="black"/><!-- width=169 height=280 -->
<path id="gl6148" d="M 85 4 C 44 16 7 69 7 115 C 7 141 15 152 34 152 C 46 152 55 150 64 144 C 74 138 85 128 85 125 C 85 119 83 117 75 123 C 55 139 44 140 34 131 C 28 126 27 117 28 103 C 31 85 34 81 50 78 C 57 76 70 73 73 72 C 74 70 78 69 81 68 C 90 64 103 55 110 48 C 132 24 116 -3 85 4 M 95 15 C 110 22 90 51 58 67 C 46 73 40 70 43 62 C 48 45 79 14 90 13 C 91 13 93 14 95 15 z" fill="black"/><!-- width=131 height=163 -->
<path id="gl28172" d="M 291 3 C 268 4 264 8 274 16 C 281 22 277 28 253 68 C 246 78 240 89 238 93 C 235 97 232 102 230 104 C 229 105 228 108 228 109 C 228 109 226 113 223 116 C 220 119 218 122 218 123 C 218 123 217 126 216 127 C 210 135 204 145 199 155 C 196 161 192 167 191 168 C 190 170 190 172 190 173 C 190 174 179 190 175 193 C 166 203 163 197 157 160 C 156 150 155 135 155 128 C 155 123 155 119 155 114 C 156 111 158 109 160 107 C 162 103 169 93 175 85 C 192 62 194 58 197 55 C 204 43 224 22 232 19 C 235 16 240 13 243 12 C 244 10 245 10 246 9 C 245 8 244 8 243 7 C 238 3 196 2 191 6 C 187 8 187 9 192 15 C 198 21 197 28 190 40 C 187 43 186 45 186 46 C 186 46 184 50 181 54 C 179 57 175 63 173 67 C 155 97 147 97 144 69 C 139 25 139 21 151 14 C 162 7 156 6 123 4 C 103 4 99 6 97 7 C 96 8 95 8 93 9 C 95 9 96 10 96 12 C 98 13 101 15 102 16 C 111 20 114 28 123 85 C 131 128 129 132 115 151 C 113 155 107 164 102 170 C 87 191 83 197 78 197 C 72 197 70 191 66 155 C 64 143 63 128 62 121 C 61 115 60 104 58 98 C 58 91 57 84 56 83 C 55 78 49 30 50 26 C 51 21 55 16 58 15 C 61 15 64 13 66 12 C 70 9 70 9 68 7 C 66 4 64 4 37 6 C 0 6 -1 8 14 18 C 20 20 22 27 25 43 C 28 68 36 113 38 129 C 39 140 40 156 44 178 C 46 190 49 214 50 230 C 51 244 51 245 55 247 C 60 251 63 249 69 238 C 73 233 81 221 86 212 C 92 205 102 190 109 179 C 121 160 123 157 128 157 C 131 157 134 163 135 168 C 138 184 141 214 143 227 C 144 243 145 247 149 249 C 155 250 158 246 167 232 C 169 228 172 222 174 221 C 175 218 178 214 179 211 C 184 204 194 185 199 180 C 202 178 203 174 204 173 C 205 173 209 166 214 158 C 218 152 222 145 223 144 C 224 143 227 140 228 137 C 230 133 233 131 233 131 C 233 129 233 128 235 127 C 236 126 238 123 238 122 C 238 121 243 114 249 105 C 253 97 261 87 262 84 C 264 80 269 74 270 72 C 273 69 277 61 282 55 C 297 31 311 16 320 16 C 320 16 322 14 324 13 C 326 12 327 10 328 9 C 327 8 326 7 324 6 C 321 3 317 2 291 3 z" fill="black"/><!-- width=336 height=259 -->
<path id="gl28173" d="M 82 7 C 62 10 46 24 28 51 C 13 74 4 116 10 138 C 18 160 50 166 76 148 C 117 121 144 43 121 15 C 114 7 98 3 82 7 M 100 20 C 112 30 109 55 92 97 C 80 124 70 138 55 146 C 40 153 27 140 30 122 C 31 115 39 85 43 74 C 58 33 86 7 100 20 z" fill="black"/><!-- width=140 height=169 -->
<path id="gl22793" d="M 35 8 C 28 12 13 24 11 30 C 7 39 12 41 19 34 C 29 25 35 24 39 30 C 41 34 40 39 9 130 C 4 147 4 149 7 153 C 12 160 20 155 25 141 C 47 84 78 33 90 29 C 94 28 99 33 101 38 C 105 45 111 44 116 35 C 118 26 120 18 117 13 C 110 -1 89 7 73 33 C 53 66 47 67 55 36 C 62 9 55 0 35 8 z" fill="black"/><!-- width=130 height=166 -->
<path id="gl17679" d="M 71 7 C 59 12 45 24 39 36 C 33 51 34 61 50 93 C 61 114 62 123 57 132 C 50 145 38 145 22 131 C 16 126 13 126 9 130 C 3 136 7 151 16 155 C 20 158 38 157 45 155 C 64 148 76 131 78 113 C 80 100 78 94 64 67 C 54 48 52 35 60 27 C 66 19 75 19 84 27 C 96 35 102 34 102 23 C 102 9 87 1 71 7 z" fill="black"/><!-- width=112 height=168 -->
<path id="gl6161" d="M 66 7 C 65 8 60 15 58 21 C 49 39 48 40 34 42 C 22 43 21 43 18 47 C 17 51 20 52 28 53 C 42 54 43 56 33 86 C 24 111 23 112 15 144 C 5 176 5 175 8 179 C 9 183 11 185 16 185 C 34 186 86 142 78 134 C 75 130 72 132 60 144 C 45 160 40 162 35 157 C 33 154 33 148 37 135 C 43 119 59 72 59 71 C 59 69 60 66 61 62 C 66 53 68 52 83 53 C 100 54 104 54 106 51 C 112 43 106 40 90 41 C 79 41 78 41 75 39 C 72 35 72 34 77 20 C 80 9 79 4 73 4 C 69 4 68 4 66 7 z" fill="black"/><!-- width=117 height=196 -->
</defs>
<use xlink:href="#gl28165" x="22" y="16"/>
<use xlink:href="#gl5913" x="233" y="113"/>
<use xlink:href="#gl6154" x="386" y="112"/>
<use xlink:href="#gl5918" x="562" y="83"/>
<use xlink:href="#gl5912" x="667" y="113"/>
<use xlink:href="#gl5913" x="782" y="113"/>
<use xlink:href="#gl6155" x="929" y="1"/>
<use xlink:href="#gl6155" x="1017" y="3"/>
<use xlink:href="#gl5909" x="1107" y="24"/>
<use xlink:href="#gl6154" x="1209" y="112"/>
<use xlink:href="#gl5914" x="1348" y="113"/>
<use xlink:href="#gl25107" x="1628" y="12"/>
<use xlink:href="#gl5908" x="1813" y="1"/>
<use xlink:href="#gl5913" x="1987" y="112"/>
<use xlink:href="#gl28166" x="2140" y="111"/>
<use xlink:href="#gl5914" x="2274" y="112"/>
<use xlink:href="#gl5908" x="2442" y="0"/>
<use xlink:href="#gl28167" x="2621" y="80"/>
<use xlink:href="#gl5906" x="2703" y="114"/>
<use xlink:href="#gl25107" x="2920" y="11"/>
<use xlink:href="#gl5908" x="3105" y="0"/>
<use xlink:href="#gl5915" x="3270" y="103"/>
<use xlink:href="#gl5918" x="3441" y="82"/>
<use xlink:href="#gl28165" x="3649" y="13"/>
<use xlink:href="#gl5915" x="3851" y="103"/>
<use xlink:href="#gl28166" x="4028" y="110"/>
<use xlink:href="#gl5910" x="4180" y="110"/>
<use xlink:href="#gl6150" x="4288" y="110"/>
<use xlink:href="#gl25108" x="4471" y="14"/>
<use xlink:href="#gl6154" x="4715" y="109"/>
<use xlink:href="#gl6159" x="4868" y="109"/>
<use xlink:href="#gl5909" x="5040" y="24"/>
<use xlink:href="#gl6150" x="5136" y="109"/>
<use xlink:href="#gl5918" x="5264" y="80"/>
<use xlink:href="#gl6162" x="5312" y="109"/>
<use xlink:href="#gl28168" x="5491" y="113"/>
<use xlink:href="#gl28169" x="0" y="502"/>
<use xlink:href="#gl25112" x="246" y="712"/>
<use xlink:href="#gl28170" x="446" y="497"/>
<use xlink:href="#gl17675" x="631" y="485"/>
<use xlink:href="#gl5909" x="808" y="510"/>
<use xlink:href="#gl6154" x="911" y="596"/>
<use xlink:href="#gl28171" x="1085" y="483"/>
<use xlink:href="#gl17684" x="1248" y="509"/>
<use xlink:href="#gl6154" x="1351" y="596"/>
<use xlink:href="#gl5914" x="1488" y="599"/>
<use xlink:href="#gl5918" x="1753" y="566"/>
<use xlink:href="#gl17675" x="1847" y="484"/>
<use xlink:href="#gl6148" x="2020" y="598"/>
<use xlink:href="#gl28172" x="2247" y="502"/>
<use xlink:href="#gl28173" x="2496" y="593"/>
<use xlink:href="#gl22793" x="2652" y="594"/>
<use xlink:href="#gl17679" x="2751" y="593"/>
<use xlink:href="#gl6161" x="2862" y="565"/>
</svg>