<svg xmlns="http://www.w3.org/2000/svg" xmlns:xlink="http://www.w3.org/1999/xlink" width="558px" height="85px" viewBox="0 0 5582 854" version="1.1">
<defs>
<path id="gl22791" d="M 160 4 C 154 4 148 5 146 7 C 144 7 142 7 139 7 C 118 7 65 35 48 56 C 47 58 42 63 40 65 C 28 80 16 105 10 127 C 7 143 7 180 10 194 C 14 207 22 222 29 230 C 34 236 52 249 54 249 C 56 249 58 249 62 250 C 78 259 111 261 127 257 C 130 256 137 255 144 254 C 157 251 165 249 169 245 C 173 243 187 214 188 210 C 188 207 189 206 189 205 C 191 201 187 198 183 198 C 181 198 174 205 170 211 C 164 222 148 235 134 241 C 126 244 102 247 89 244 C 54 238 33 207 35 163 C 38 112 62 64 100 39 C 108 33 128 23 132 23 C 133 23 137 22 142 20 C 152 16 186 16 194 20 C 205 27 207 32 207 46 C 207 59 208 63 212 64 C 217 65 220 60 223 53 C 223 50 225 42 228 35 C 232 21 232 19 229 15 C 222 8 185 2 160 4 z" fill="black"/><!-- width=241 height=268 -->
<path id="gl5913" d="M 74 7 C 48 16 21 48 12 83 C 2 114 6 140 21 150 C 59 174 118 118 125 52 C 128 41 127 39 124 27 C 118 7 98 0 74 7 M 94 16 C 104 21 107 39 100 62 C 85 117 56 154 36 143 C 24 135 24 117 34 85 C 51 38 78 7 94 16 z" fill="black"/><!-- width=138 height=165 -->
<path id="gl6154" d="M 47 6 C 28 13 8 29 11 36 C 12 39 15 39 22 34 C 34 25 41 24 44 30 C 45 35 42 41 20 102 C 4 145 3 149 8 154 C 14 160 18 156 33 126 C 56 80 64 68 91 41 C 110 23 115 19 121 19 C 131 19 132 30 122 55 C 118 63 111 79 107 90 C 102 102 96 118 93 127 C 84 147 84 153 94 155 C 109 159 158 126 150 117 C 149 115 147 115 138 122 C 126 133 121 136 117 132 C 115 128 115 125 122 109 C 154 36 158 14 142 6 C 127 -1 100 13 73 47 C 52 73 49 66 64 26 C 69 14 69 9 62 6 C 58 3 55 3 47 6 z" fill="black"/><!-- width=162 height=166 -->
<path id="gl5918" d="M 65 6 C 64 6 61 14 56 23 C 47 40 46 41 32 43 C 21 45 18 46 18 50 C 18 53 19 54 28 54 C 35 54 39 58 39 62 C 39 63 35 75 31 90 C 21 117 8 160 7 168 C 3 183 12 186 26 179 C 54 167 84 139 76 133 C 74 130 72 131 58 145 C 45 157 40 160 36 158 C 32 156 31 151 34 144 C 37 131 59 67 61 62 C 64 54 67 53 80 54 C 101 56 107 54 107 47 C 107 42 103 41 89 42 C 70 43 68 40 74 23 C 78 13 78 8 75 6 C 74 3 68 3 65 6 z" fill="black"/><!-- width=116 height=194 -->
<path id="gl5912" d="M 35 7 C 24 12 9 28 9 35 C 9 40 12 40 17 35 C 28 26 34 23 38 29 C 42 34 35 53 16 114 C 4 146 4 146 8 151 C 14 158 19 153 31 130 C 44 94 59 66 75 45 C 90 26 94 23 101 38 C 106 47 111 45 116 35 C 124 17 115 1 101 4 C 91 8 83 18 66 43 C 53 66 48 65 54 39 C 58 22 59 17 57 12 C 54 3 47 2 35 7 z" fill="black"/><!-- width=128 height=163 -->
<path id="gl5913" d="M 74 7 C 48 16 21 48 12 83 C 2 114 6 140 21 150 C 59 174 118 118 125 52 C 128 41 127 39 124 27 C 118 7 98 0 74 7 M 94 16 C 104 21 107 39 100 62 C 85 117 56 154 36 143 C 24 135 24 117 34 85 C 51 38 78 7 94 16 z" fill="black"/><!-- width=138 height=165 -->
<path id="gl6155" d="M 93 3 C 81 6 69 9 67 12 C 63 15 63 17 69 24 C 74 30 73 36 60 74 C 54 94 44 125 39 142 C 33 159 27 179 24 187 C 15 213 6 250 6 252 C 6 266 25 268 44 256 C 66 244 84 218 73 217 C 71 216 67 219 55 232 C 42 245 40 247 36 247 C 28 247 28 240 35 220 C 38 212 46 185 55 159 C 63 132 78 88 88 60 C 94 42 99 24 105 7 C 104 7 103 6 103 4 C 99 3 98 2 93 3 z" fill="black"/><!-- width=114 height=274 -->
<path id="gl6155" d="M 93 3 C 81 6 69 9 67 12 C 63 15 63 17 69 24 C 74 30 73 36 60 74 C 54 94 44 125 39 142 C 33 159 27 179 24 187 C 15 213 6 250 6 252 C 6 266 25 268 44 256 C 66 244 84 218 73 217 C 71 216 67 219 55 232 C 42 245 40 247 36 247 C 28 247 28 240 35 220 C 38 212 46 185 55 159 C 63 132 78 88 88 60 C 94 42 99 24 105 7 C 104 7 103 6 103 4 C 99 3 98 2 93 3 z" fill="black"/><!-- width=114 height=274 -->
<path id="gl5909" d="M 70 8 C 62 15 60 29 68 35 C 74 41 85 37 90 26 C 99 10 84 -2 70 8 M 54 97 C 35 107 17 120 18 125 C 18 129 23 129 29 124 C 39 117 42 117 45 119 C 47 123 47 126 36 152 C 24 181 9 219 7 228 C 1 246 20 245 52 224 C 67 214 73 207 73 202 C 73 195 70 196 56 209 C 36 226 29 220 40 195 C 42 188 49 170 57 153 C 64 136 71 119 73 114 C 82 93 75 86 54 97 z" fill="black"/><!-- width=102 height=251 -->
<path id="gl6154" d="M 47 6 C 28 13 8 29 11 36 C 12 39 15 39 22 34 C 34 25 41 24 44 30 C 45 35 42 41 20 102 C 4 145 3 149 8 154 C 14 160 18 156 33 126 C 56 80 64 68 91 41 C 110 23 115 19 121 19 C 131 19 132 30 122 55 C 118 63 111 79 107 90 C 102 102 96 118 93 127 C 84 147 84 153 94 155 C 109 159 158 126 150 117 C 149 115 147 115 138 122 C 126 133 121 136 117 132 C 115 128 115 125 122 109 C 154 36 158 14 142 6 C 127 -1 100 13 73 47 C 52 73 49 66 64 26 C 69 14 69 9 62 6 C 58 3 55 3 47 6 z" fill="black"/><!-- width=162 height=166 -->
<path id="gl25106" d="M 112 4 C 88 8 65 26 53 53 C 39 81 41 100 55 112 C 65 121 66 123 60 135 C 55 145 55 150 56 158 C 58 163 56 168 53 169 C 52 170 45 173 38 176 C 13 188 0 208 8 225 C 18 245 45 254 87 248 C 122 243 146 226 146 208 C 146 192 139 183 110 166 C 84 152 81 148 77 144 C 72 131 77 122 91 117 C 124 107 151 72 151 39 C 151 22 154 19 168 22 C 176 24 181 22 185 18 C 187 13 187 12 183 7 C 179 3 176 3 163 7 C 153 9 145 9 137 6 C 133 3 119 2 112 4 M 125 15 C 140 24 122 73 95 100 C 81 116 66 112 66 93 C 66 76 87 35 104 21 C 114 12 119 12 125 15 M 89 179 C 113 192 122 202 122 212 C 122 239 50 246 32 221 C 24 209 30 196 49 182 C 64 171 75 171 89 179 z" fill="black"/><!-- width=196 height=260 -->
<path id="gl25107" d="M 24 6 C 20 10 6 41 4 46 C 3 49 6 53 8 53 C 9 53 14 48 20 42 C 35 26 47 23 80 21 C 99 21 100 23 99 34 C 99 38 98 47 96 52 C 83 88 79 104 79 108 C 77 110 76 116 74 122 C 69 138 62 165 58 175 C 57 178 55 186 54 190 C 52 195 51 201 49 205 C 42 229 34 239 19 243 C 9 244 4 249 9 251 C 13 254 92 251 94 250 C 96 248 92 244 85 243 C 77 242 74 239 72 232 C 70 225 70 223 92 150 C 96 141 98 130 99 126 C 100 122 104 109 109 97 C 115 75 125 45 127 37 C 131 24 135 21 160 23 C 192 24 195 25 198 42 C 199 58 209 59 212 43 C 212 41 215 35 217 29 C 227 4 226 3 210 7 C 199 9 198 9 126 9 C 52 9 43 9 36 4 C 30 2 26 2 24 6 z" fill="black"/><!-- width=234 height=262 -->
<path id="gl17675" d="M 91 6 C 72 9 67 14 73 22 C 78 30 77 34 61 83 C 52 107 43 138 39 151 C 30 183 24 199 13 232 C 3 262 2 264 8 268 C 14 273 18 269 31 244 C 52 202 65 184 85 161 C 115 130 130 124 134 140 C 137 152 122 205 108 237 C 101 252 99 254 83 250 C 78 249 71 254 71 260 C 71 264 78 272 84 272 C 113 272 151 208 160 150 C 162 128 155 115 139 115 C 122 115 98 132 77 157 C 66 169 63 170 60 170 C 55 170 57 158 67 131 C 71 121 77 105 79 96 C 83 86 87 72 91 63 C 95 55 98 45 98 40 C 101 37 103 30 104 25 C 111 7 109 3 91 6 z" fill="black"/><!-- width=169 height=280 -->
<path id="gl17678" d="M 73 6 C 29 22 -4 100 10 140 C 22 165 64 162 90 133 C 123 98 136 38 118 14 C 110 3 89 0 73 6 M 95 15 C 119 27 88 124 55 144 C 31 157 20 135 32 96 C 48 41 77 6 95 15 z" fill="black"/><!-- width=139 height=168 -->
<path id="gl6146" d="M 54 4 C 39 11 3 37 3 44 C 3 50 8 49 18 40 C 30 28 40 27 40 37 C 40 39 37 48 34 55 C 18 99 8 128 7 139 C 6 153 16 159 29 152 C 45 143 61 130 79 110 C 90 96 95 92 97 95 C 101 97 99 107 90 130 C 82 147 82 152 91 154 C 97 157 107 154 126 141 C 142 130 152 120 151 115 C 151 107 146 108 137 118 C 123 132 118 136 113 131 C 108 126 115 106 143 37 C 153 13 153 13 147 8 C 139 1 136 4 122 33 C 104 70 94 85 65 112 C 44 131 40 134 35 131 C 29 128 29 122 39 99 C 43 87 49 71 53 63 C 55 54 61 40 64 33 C 70 17 71 11 68 7 C 64 4 59 3 54 4 z" fill="black"/><!-- width=160 height=165 -->
<path id="gl25106" d="M 112 4 C 88 8 65 26 53 53 C 39 81 41 100 55 112 C 65 121 66 123 60 135 C 55 145 55 150 56 158 C 58 163 56 168 53 169 C 52 170 45 173 38 176 C 13 188 0 208 8 225 C 18 245 45 254 87 248 C 122 243 146 226 146 208 C 146 192 139 183 110 166 C 84 152 81 148 77 144 C 72 131 77 122 91 117 C 124 107 151 72 151 39 C 151 22 154 19 168 22 C 176 24 181 22 185 18 C 187 13 187 12 183 7 C 179 3 176 3 163 7 C 153 9 145 9 137 6 C 133 3 119 2 112 4 M 125 15 C 140 24 122 73 95 100 C 81 116 66 112 66 93 C 66 76 87 35 104 21 C 114 12 119 12 125 15 M 89 179 C 113 192 122 202 122 212 C 122 239 50 246 32 221 C 24 209 30 196 49 182 C 64 171 75 171 89 179 z" fill="black"/><!-- width=196 height=260 -->
<path id="gl5908" d="M 91 4 C 72 9 68 12 73 22 C 78 29 78 34 62 82 C 53 106 44 136 40 148 C 33 170 20 210 9 240 C 6 250 4 257 4 258 C 7 265 14 267 19 261 C 20 259 26 248 33 237 C 53 194 73 169 102 144 C 136 116 143 133 125 191 C 115 221 106 241 100 246 C 96 250 96 250 89 247 C 82 245 78 245 75 248 C 69 256 73 264 82 267 C 91 269 112 254 127 234 C 137 220 151 186 158 161 C 171 105 132 99 84 149 C 60 174 58 175 58 162 C 58 156 78 98 105 22 C 111 8 110 4 100 4 C 96 4 93 4 91 4 z" fill="black"/><!-- width=170 height=276 -->
<path id="gl6161" d="M 66 7 C 65 8 60 15 58 21 C 49 39 48 40 34 42 C 22 43 21 43 18 47 C 17 51 20 52 28 53 C 42 54 43 56 33 86 C 24 111 23 112 15 144 C 5 176 5 175 8 179 C 9 183 11 185 16 185 C 34 186 86 142 78 134 C 75 130 72 132 60 144 C 45 160 40 162 35 157 C 33 154 33 148 37 135 C 43 119 59 72 59 71 C 59 69 60 66 61 62 C 66 53 68 52 83 53 C 100 54 104 54 106 51 C 112 43 106 40 90 41 C 79 41 78 41 75 39 C 72 35 72 34 77 20 C 80 9 79 4 73 4 C 69 4 68 4 66 7 z" fill="black"/><!-- width=117 height=196 -->
<path id="gl17679" d="M 71 7 C 59 12 45 24 39 36 C 33 51 34 61 50 93 C 61 114 62 123 57 132 C 50 145 38 145 22 131 C 16 126 13 126 9 130 C 3 136 7 151 16 155 C 20 158 38 157 45 155 C 64 148 76 131 78 113 C 80 100 78 94 64 67 C 54 48 52 35 60 27 C 66 19 75 19 84 27 C 96 35 102 34 102 23 C 102 9 87 1 71 7 z" fill="black"/><!-- width=112 height=168 -->
<path id="gl25107" d="M 24 6 C 20 10 6 41 4 46 C 3 49 6 53 8 53 C 9 53 14 48 20 42 C 35 26 47 23 80 21 C 99 21 100 23 99 34 C 99 38 98 47 96 52 C 83 88 79 104 79 108 C 77 110 76 116 74 122 C 69 138 62 165 58 175 C 57 178 55 186 54 190 C 52 195 51 201 49 205 C 42 229 34 239 19 243 C 9 244 4 249 9 251 C 13 254 92 251 94 250 C 96 248 92 244 85 243 C 77 242 74 239 72 232 C 70 225 70 223 92 150 C 96 141 98 130 99 126 C 100 122 104 109 109 97 C 115 75 125 45 127 37 C 131 24 135 21 160 23 C 192 24 195 25 198 42 C 199 58 209 59 212 43 C 212 41 215 35 217 29 C 227 4 226 3 210 7 C 199 9 198 9 126 9 C 52 9 43 9 36 4 C 30 2 26 2 24 6 z" fill="black"/><!-- width=234 height=262 -->
<path id="gl17675" d="M 91 6 C 72 9 67 14 73 22 C 78 30 77 34 61 83 C 52 107 43 138 39 151 C 30 183 24 199 13 232 C 3 262 2 264 8 268 C 14 273 18 269 31 244 C 52 202 65 184 85 161 C 115 130 130 124 134 140 C 137 152 122 205 108 237 C 101 252 99 254 83 250 C 78 249 71 254 71 260 C 71 264 78 272 84 272 C 113 272 151 208 160 150 C 162 128 155 115 139 115 C 122 115 98 132 77 157 C 66 169 63 170 60 170 C 55 170 57 158 67 131 C 71 121 77 105 79 96 C 83 86 87 72 91 63 C 95 55 98 45 98 40 C 101 37 103 30 104 25 C 111 7 109 3 91 6 z" fill="black"/><!-- width=169 height=280 -->
<path id="gl10263" d="M 141 7 C 140 8 137 12 136 14 C 133 22 127 24 119 20 C 108 13 81 25 60 45 C 22 83 -2 147 12 162 C 18 166 21 166 30 164 C 43 159 58 150 75 134 C 91 117 96 121 88 142 C 83 158 85 165 96 165 C 116 165 163 128 146 127 C 144 127 141 128 135 134 C 125 142 121 145 116 144 C 107 144 107 135 118 107 C 122 99 129 82 134 70 C 137 56 145 39 148 31 C 152 22 154 14 154 12 C 154 4 146 1 141 7 M 112 33 C 123 38 123 49 111 72 C 96 101 87 114 65 131 C 48 146 47 146 42 146 C 18 146 48 71 84 41 C 95 31 104 30 112 33 z" fill="black"/><!-- width=164 height=175 -->
<path id="gl5918" d="M 65 6 C 64 6 61 14 56 23 C 47 40 46 41 32 43 C 21 45 18 46 18 50 C 18 53 19 54 28 54 C 35 54 39 58 39 62 C 39 63 35 75 31 90 C 21 117 8 160 7 168 C 3 183 12 186 26 179 C 54 167 84 139 76 133 C 74 130 72 131 58 145 C 45 157 40 160 36 158 C 32 156 31 151 34 144 C 37 131 59 67 61 62 C 64 54 67 53 80 54 C 101 56 107 54 107 47 C 107 42 103 41 89 42 C 70 43 68 40 74 23 C 78 13 78 8 75 6 C 74 3 68 3 65 6 z" fill="black"/><!-- width=116 height=194 -->
<path id="gl22791" d="M 160 4 C 154 4 148 5 146 7 C 144 7 142 7 139 7 C 118 7 65 35 48 56 C 47 58 42 63 40 65 C 28 80 16 105 10 127 C 7 143 7 180 10 194 C 14 207 22 222 29 230 C 34 236 52 249 54 249 C 56 249 58 249 62 250 C 78 259 111 261 127 257 C 130 256 137 255 144 254 C 157 251 165 249 169 245 C 173 243 187 214 188 210 C 188 207 189 206 189 205 C 191 201 187 198 183 198 C 181 198 174 205 170 211 C 164 222 148 235 134 241 C 126 244 102 247 89 244 C 54 238 33 207 35 163 C 38 112 62 64 100 39 C 108 33 128 23 132 23 C 133 23 137 22 142 20 C 152 16 186 16 194 20 C 205 27 207 32 207 46 C 207 59 208 63 212 64 C 217 65 220 60 223 53 C 223 50 225 42 228 35 C 232 21 232 19 229 15 C 222 8 185 2 160 4 z" fill="black"/><!-- width=241 height=268 -->
<path id="gl10263" d="M 141 7 C 140 8 137 12 136 14 C 133 22 127 24 119 20 C 108 13 81 25 60 45 C 22 83 -2 147 12 162 C 18 166 21 166 30 164 C 43 159 58 150 75 134 C 91 117 96 121 88 142 C 83 158 85 165 96 165 C 116 165 163 128 146 127 C 144 127 141 128 135 134 C 125 142 121 145 116 144 C 107 144 107 135 118 107 C 122 99 129 82 134 70 C 137 56 145 39 148 31 C 152 22 154 14 154 12 C 154 4 146 1 141 7 M 112 33 C 123 38 123 49 111 72 C 96 101 87 114 65 131 C 48 146 47 146 42 146 C 18 146 48 71 84 41 C 95 31 104 30 112 33 z" fill="black"/><!-- width=164 height=175 -->
<path id="gl6146" d="M 54 4 C 39 11 3 37 3 44 C 3 50 8 49 18 40 C 30 28 40 27 40 37 C 40 39 37 48 34 55 C 18 99 8 128 7 139 C 6 153 16 159 29 152 C 45 143 61 130 79 110 C 90 96 95 92 97 95 C 101 97 99 107 90 130 C 82 147 82 152 91 154 C 97 157 107 154 126 141 C 142 130 152 120 151 115 C 151 107 146 108 137 118 C 123 132 118 136 113 131 C 108 126 115 106 143 37 C 153 13 153 13 147 8 C 139 1 136 4 122 33 C 104 70 94 85 65 112 C 44 131 40 134 35 131 C 29 128 29 122 39 99 C 43 87 49 71 53 63 C 55 54 61 40 64 33 C 70 17 71 11 68 7 C 64 4 59 3 54 4 z" fill="black"/><!-- width=160 height=165 -->
<path id="gl17679" d="M 71 7 C 59 12 45 24 39 36 C 33 51 34 61 50 93 C 61 114 62 123 57 132 C 50 145 38 145 22 131 C 16 126 13 126 9 130 C 3 136 7 151 16 155 C 20 158 38 157 45 155 C 64 148 76 131 78 113 C 80 100 78 94 64 67 C 54 48 52 35 60 27 C 66 19 75 19 84 27 C 96 35 102 34 102 23 C 102 9 87 1 71 7 z" fill="black"/><!-- width=112 height=168 -->
<path id="gl6150" d="M 86 6 C 45 17 4 76 8 122 C 9 151 26 161 54 152 C 73 144 91 128 86 122 C 84 120 83 121 71 128 C 57 138 49 141 40 137 C 32 132 29 127 30 110 C 30 87 34 83 58 78 C 101 68 131 37 118 14 C 114 4 102 2 86 6 M 99 18 C 107 27 95 47 69 63 C 37 84 37 63 68 30 C 83 16 92 12 99 18 z" fill="black"/><!-- width=132 height=164 -->
<path id="gl25108" d="M 191 9 C 180 15 178 16 173 27 C 169 33 162 44 156 52 C 142 71 133 82 118 106 C 96 138 88 150 77 165 C 72 173 64 184 60 188 C 35 226 28 233 8 240 C 4 242 4 246 8 247 C 9 248 23 248 40 248 C 50 247 60 247 70 247 C 70 246 70 245 70 243 C 71 241 70 241 65 239 C 55 234 56 229 75 199 C 81 190 87 181 88 180 C 88 178 92 172 95 167 C 105 153 106 153 138 151 C 178 150 177 148 172 202 C 171 217 169 227 166 232 C 163 235 155 239 151 240 C 145 240 143 247 148 248 C 149 248 166 248 185 248 C 220 247 220 247 220 245 C 221 241 218 240 211 239 C 197 236 196 226 202 129 C 202 119 203 99 203 83 C 204 68 205 47 206 37 C 209 10 209 8 206 5 C 202 4 199 4 191 9 M 180 53 C 181 56 180 74 178 116 C 175 138 174 139 148 138 C 114 137 114 136 135 107 C 141 98 149 84 155 76 C 171 51 175 46 180 53 z" fill="black"/><!-- width=229 height=258 -->
<path id="gl6154" d="M 47 6 C 28 13 8 29 11 36 C 12 39 15 39 22 34 C 34 25 41 24 44 30 C 45 35 42 41 20 102 C 4 145 3 149 8 154 C 14 160 18 156 33 126 C 56 80 64 68 91 41 C 110 23 115 19 121 19 C 131 19 132 30 122 55 C 118 63 111 79 107 90 C 102 102 96 118 93 127 C 84 147 84 153 94 155 C 109 159 158 126 150 117 C 149 115 147 115 138 122 C 126 133 121 136 117 132 C 115 128 115 125 122 109 C 154 36 158 14 142 6 C 127 -1 100 13 73 47 C 52 73 49 66 64 26 C 69 14 69 9 62 6 C 58 3 55 3 47 6 z" fill="black"/><!-- width=162 height=166 -->
<path id="gl6159" d="M 55 8 C 47 12 32 33 32 40 C 32 45 37 45 43 38 C 50 29 55 30 60 40 C 65 49 74 72 75 79 C 77 89 77 89 45 123 C 37 132 33 133 28 127 C 21 121 18 121 13 126 C 2 137 3 153 16 155 C 25 158 44 143 61 121 C 80 97 84 97 91 118 C 103 152 112 162 126 152 C 137 144 149 121 144 115 C 142 112 137 115 134 120 C 128 132 118 132 112 120 C 108 111 97 84 97 80 C 98 75 101 70 108 61 C 112 58 120 50 124 44 C 141 27 143 25 152 34 C 157 39 158 40 160 39 C 176 34 174 6 157 6 C 144 6 124 23 107 49 C 95 66 90 64 80 33 C 74 14 71 9 65 7 C 60 4 61 4 55 8 z" fill="black"/><!-- width=181 height=167 -->
<path id="gl25109" d="M 73 3 C 58 13 60 38 74 38 C 85 38 92 28 92 16 C 92 4 82 -1 73 3 M 66 91 C 64 92 60 94 56 96 C 52 98 48 100 46 102 C 44 103 43 104 42 104 C 40 104 32 109 24 115 C 19 118 15 124 16 126 C 19 127 25 126 30 122 C 43 114 49 114 48 123 C 48 127 46 130 45 133 C 44 135 40 142 37 150 C 33 157 30 165 28 168 C 27 171 27 175 27 176 C 27 177 26 180 25 181 C 24 183 21 192 18 200 C 14 208 10 219 9 224 C 0 248 16 251 46 230 C 52 226 57 223 58 223 C 60 222 63 218 66 216 C 69 212 72 208 73 207 C 75 205 74 200 72 200 C 69 199 66 201 58 208 C 51 216 48 219 44 220 C 31 224 31 212 46 180 C 50 172 57 153 62 142 C 68 128 74 114 76 110 C 80 104 79 96 75 93 C 72 90 68 90 66 91 z" fill="black"/><!-- width=100 height=254 -->
<path id="gl6150" d="M 86 6 C 45 17 4 76 8 122 C 9 151 26 161 54 152 C 73 144 91 128 86 122 C 84 120 83 121 71 128 C 57 138 49 141 40 137 C 32 132 29 127 30 110 C 30 87 34 83 58 78 C 101 68 131 37 118 14 C 114 4 102 2 86 6 M 99 18 C 107 27 95 47 69 63 C 37 84 37 63 68 30 C 83 16 92 12 99 18 z" fill="black"/><!-- width=132 height=164 -->
<path id="gl6161" d="M 66 7 C 65 8 60 15 58 21 C 49 39 48 40 34 42 C 22 43 21 43 18 47 C 17 51 20 52 28 53 C 42 54 43 56 33 86 C 24 111 23 112 15 144 C 5 176 5 175 8 179 C 9 183 11 185 16 185 C 34 186 86 142 78 134 C 75 130 72 132 60 144 C 45 160 40 162 35 157 C 33 154 33 148 37 135 C 43 119 59 72 59 71 C 59 69 60 66 61 62 C 66 53 68 52 83 53 C 100 54 104 54 106 51 C 112 43 106 40 90 41 C 79 41 78 41 75 39 C 72 35 72 34 77 20 C 80 9 79 4 73 4 C 69 4 68 4 66 7 z" fill="black"/><!-- width=117 height=196 -->
<path id="gl6162" d="M 86 5 C 83 5 78 9 75 11 C 66 19 63 20 60 17 C 57 16 56 17 57 23 C 58 28 58 31 57 35 C 52 51 58 57 65 43 C 74 29 81 26 87 34 C 98 50 96 133 86 167 C 78 191 59 218 46 224 C 38 228 35 228 27 223 C 17 216 14 216 8 222 C 0 230 5 245 19 247 C 44 251 77 221 113 160 C 118 153 124 142 127 136 C 144 111 148 102 154 89 C 157 82 161 71 163 65 C 165 60 167 53 168 51 C 172 43 177 22 177 17 C 177 13 172 5 167 5 C 157 4 155 8 153 28 C 149 56 145 72 136 98 C 126 124 118 136 114 129 C 113 129 113 107 113 83 C 113 45 113 38 111 29 C 106 9 99 2 86 5 z" fill="black"/><!-- width=186 height=258 -->
<path id="gl25110" d="M 52 6 C 44 8 40 13 40 24 C 40 39 50 45 63 36 C 80 25 72 0 52 6 M 14 121 C 7 129 6 140 12 148 C 13 151 14 152 21 152 C 30 152 33 148 38 139 C 42 133 42 132 39 124 C 33 115 22 114 14 121 z" fill="black"/><!-- width=81 height=163 -->
<path id="gl25111" d="M 74 6 C 73 9 74 10 81 13 C 91 18 94 24 93 33 C 92 38 87 57 86 60 C 85 61 82 66 81 72 C 78 82 70 106 58 142 C 56 152 51 169 48 180 C 40 205 38 213 34 219 C 31 225 22 232 19 234 C 16 234 13 236 10 237 C 6 240 6 240 7 242 C 9 244 80 244 85 242 C 86 241 87 241 88 240 C 87 240 86 238 85 237 C 82 236 79 234 76 234 C 68 232 64 228 66 216 C 66 205 68 194 73 182 C 73 178 75 172 76 168 C 81 152 94 112 98 103 C 99 97 102 88 103 85 C 106 73 118 39 122 32 C 126 21 132 18 144 15 C 152 13 156 10 154 7 C 153 3 150 2 133 3 C 124 4 111 4 102 3 C 75 2 76 2 74 6 z" fill="black"/><!-- width=164 height=255 -->
<path id="gl25112" d="M 16 7 C 2 13 4 38 19 39 C 26 39 28 37 32 29 C 38 18 37 13 29 9 C 22 6 19 4 16 7 z" fill="black"/><!-- width=48 height=49 -->
<path id="gl10266" d="M 126 2 C 122 3 120 4 118 4 C 117 6 114 6 112 6 C 110 6 104 8 90 14 C 77 21 50 43 40 57 C 20 81 10 110 6 151 C 2 194 19 231 47 243 C 53 246 58 248 60 249 C 65 252 89 254 105 253 C 174 247 231 175 230 93 C 230 37 200 3 149 2 C 138 2 128 2 126 2 M 156 14 C 156 15 160 16 162 16 C 175 18 191 33 198 50 C 200 54 201 57 202 60 C 202 67 202 75 202 82 C 202 160 152 237 100 241 C 65 243 46 230 33 198 C 31 188 30 167 32 154 C 33 146 35 139 35 135 C 36 129 43 106 48 95 C 54 80 72 54 84 42 C 90 36 111 21 112 21 C 114 21 116 21 118 20 C 120 19 127 16 132 16 C 138 15 143 14 143 14 C 144 13 155 13 156 14 z" fill="black"/><!-- width=242 height=262 -->
<path id="gl25113" d="M 43 4 C 28 12 10 26 6 34 C 1 44 8 45 18 36 C 30 24 37 21 40 25 C 44 28 43 36 37 48 C 34 52 31 63 28 69 C 26 75 22 86 21 92 C 8 128 8 147 21 153 C 31 158 42 154 68 140 C 74 138 103 109 103 106 C 103 106 104 103 106 99 C 127 72 140 32 136 14 C 134 3 124 0 116 7 C 115 8 114 9 112 10 C 114 13 114 16 114 19 C 117 44 115 55 102 81 C 86 111 57 140 45 138 C 33 135 31 120 39 99 C 43 90 50 69 54 62 C 55 57 56 52 57 50 C 70 16 72 15 68 9 C 64 2 52 0 43 4 z" fill="black"/><!-- width=148 height=168 -->
<path id="gl6150" d="M 86 6 C 45 17 4 76 8 122 C 9 151 26 161 54 152 C 73 144 91 128 86 122 C 84 120 83 121 71 128 C 57 138 49 141 40 137 C 32 132 29 127 30 110 C 30 87 34 83 58 78 C 101 68 131 37 118 14 C 114 4 102 2 86 6 M 99 18 C 107 27 95 47 69 63 C 37 84 37 63 68 30 C 83 16 92 12 99 18 z" fill="black"/><!-- width=132 height=164 -->
<path id="gl22793" d="M 35 8 C 28 12 13 24 11 30 C 7 39 12 41 19 34 C 29 25 35 24 39 30 C 41 34 40 39 9 130 C 4 147 4 149 7 153 C 12 160 20 155 25 141 C 47 84 78 33 90 29 C 94 28 99 33 101 38 C 105 45 111 44 116 35 C 118 26 120 18 117 13 C 110 -1 89 7 73 33 C 53 66 47 67 55 36 C 62 9 55 0 35 8 z" fill="black"/><!-- width=130 height=166 -->
<path id="gl6150" d="M 86 6 C 45 17 4 76 8 122 C 9 151 26 161 54 152 C 73 144 91 128 86 122 C 84 120 83 121 71 128 C 57 138 49 141 40 137 C 32 132 29 127 30 110 C 30 87 34 83 58 78 C 101 68 131 37 118 14 C 114 4 102 2 86 6 M 99 18 C 107 27 95 47 69 63 C 37 84 37 63 68 30 C 83 16 92 12 99 18 z" fill="black"/><!-- width=132 height=164 -->
<path id="gl25114" d="M 69 6 C 50 14 38 28 34 43 C 33 53 35 60 46 83 C 61 112 61 123 50 133 C 43 140 34 139 20 128 C 13 122 8 123 6 129 C 1 138 8 149 18 153 C 41 159 71 138 75 113 C 79 98 75 88 62 66 C 51 46 50 37 55 27 C 59 18 72 16 80 22 C 93 32 96 33 98 27 C 106 11 87 -1 69 6 z" fill="black"/><!-- width=109 height=163 -->
<path id="gl6161" d="M 66 7 C 65 8 60 15 58 21 C 49 39 48 40 34 42 C 22 43 21 43 18 47 C 17 51 20 52 28 53 C 42 54 43 56 33 86 C 24 111 23 112 15 144 C 5 176 5 175 8 179 C 9 183 11 185 16 185 C 34 186 86 142 78 134 C 75 130 72 132 60 144 C 45 160 40 162 35 157 C 33 154 33 148 37 135 C 43 119 59 72 59 71 C 59 69 60 66 61 62 C 66 53 68 52 83 53 C 100 54 104 54 106 51 C 112 43 106 40 90 41 C 79 41 78 41 75 39 C 72 35 72 34 77 20 C 80 9 79 4 73 4 C 69 4 68 4 66 7 z" fill="black"/><!-- width=117 height=196 -->
<path id="gl5909" d="M 70 8 C 62 15 60 29 68 35 C 74 41 85 37 90 26 C 99 10 84 -2 70 8 M 54 97 C 35 107 17 120 18 125 C 18 129 23 129 29 124 C 39 117 42 117 45 119 C 47 123 47 126 36 152 C 24 181 9 219 7 228 C 1 246 20 245 52 224 C 67 214 73 207 73 202 C 73 195 70 196 56 209 C 36 226 29 220 40 195 C 42 188 49 170 57 153 C 64 136 71 119 73 114 C 82 93 75 86 54 97 z" fill="black"/><!-- width=102 height=251 -->
<path id="gl25115" d="M 49 4 C 31 8 13 20 8 30 C 4 40 10 40 21 31 C 32 23 38 23 42 30 C 43 35 43 34 17 110 C 13 120 8 132 7 137 C 2 150 3 155 12 155 C 18 155 20 150 30 131 C 38 113 45 102 52 90 C 70 58 107 20 119 20 C 128 20 130 30 119 55 C 117 60 114 70 111 75 C 108 85 100 104 91 128 C 82 149 83 155 93 155 C 99 155 102 153 114 130 C 121 114 127 103 138 85 C 150 64 188 23 197 20 C 205 17 210 23 209 32 C 207 37 200 57 195 70 C 194 74 189 85 187 93 C 183 102 178 115 175 121 C 162 150 164 156 181 154 C 199 153 234 126 231 117 C 229 114 226 115 218 122 C 206 133 199 135 197 128 C 195 126 200 113 207 97 C 217 74 228 43 231 32 C 237 2 211 -3 180 19 C 176 21 169 31 161 38 C 142 64 137 64 143 41 C 148 26 148 18 144 12 C 132 -4 103 7 74 45 C 63 58 59 62 57 60 C 54 59 54 53 62 34 C 68 13 69 9 62 6 C 59 4 54 3 49 4 z" fill="black"/><!-- width=242 height=165 -->
<path id="gl10263" d="M 141 7 C 140 8 137 12 136 14 C 133 22 127 24 119 20 C 108 13 81 25 60 45 C 22 83 -2 147 12 162 C 18 166 21 166 30 164 C 43 159 58 150 75 134 C 91 117 96 121 88 142 C 83 158 85 165 96 165 C 116 165 163 128 146 127 C 144 127 141 128 135 134 C 125 142 121 145 116 144 C 107 144 107 135 118 107 C 122 99 129 82 134 70 C 137 56 145 39 148 31 C 152 22 154 14 154 12 C 154 4 146 1 141 7 M 112 33 C 123 38 123 49 111 72 C 96 101 87 114 65 131 C 48 146 47 146 42 146 C 18 146 48 71 84 41 C 95 31 104 30 112 33 z" fill="black"/><!-- width=164 height=175 -->
<path id="gl6161" d="M 66 7 C 65 8 60 15 58 21 C 49 39 48 40 34 42 C 22 43 21 43 18 47 C 17 51 20 52 28 53 C 42 54 43 56 33 86 C 24 111 23 112 15 144 C 5 176 5 175 8 179 C 9 183 11 185 16 185 C 34 186 86 142 78 134 C 75 130 72 132 60 144 C 45 160 40 162 35 157 C 33 154 33 148 37 135 C 43 119 59 72 59 71 C 59 69 60 66 61 62 C 66 53 68 52 83 53 C 100 54 104 54 106 51 C 112 43 106 40 90 41 C 79 41 78 41 75 39 C 72 35 72 34 77 20 C 80 9 79 4 73 4 C 69 4 68 4 66 7 z" fill="black"/><!-- width=117 height=196 -->
<path id="gl17684" d="M 71 7 C 60 13 59 31 70 36 C 83 43 100 19 88 7 C 84 3 76 3 71 7 M 58 93 C 43 99 16 118 16 124 C 16 128 20 128 29 123 C 37 117 41 116 43 117 C 48 121 48 121 31 162 C 24 180 19 193 15 202 C 14 207 12 215 9 220 C -1 249 13 252 52 226 C 70 214 76 206 71 201 C 69 198 69 198 59 207 C 48 218 42 221 37 220 C 32 218 33 210 40 195 C 44 183 53 162 64 135 C 65 130 70 121 72 115 C 81 94 76 87 58 93 z" fill="black"/><!-- width=103 height=253 -->
<path id="gl6154" d="M 47 6 C 28 13 8 29 11 36 C 12 39 15 39 22 34 C 34 25 41 24 44 30 C 45 35 42 41 20 102 C 4 145 3 149 8 154 C 14 160 18 156 33 126 C 56 80 64 68 91 41 C 110 23 115 19 121 19 C 131 19 132 30 122 55 C 118 63 111 79 107 90 C 102 102 96 118 93 127 C 84 147 84 153 94 155 C 109 159 158 126 150 117 C 149 115 147 115 138 122 C 126 133 121 136 117 132 C 115 128 115 125 122 109 C 154 36 158 14 142 6 C 127 -1 100 13 73 47 C 52 73 49 66 64 26 C 69 14 69 9 62 6 C 58 3 55 3 47 6 z" fill="black"/><!-- width=162 height=166 -->
<path id="gl5914" d="M 101 7 C 75 14 53 40 46 70 C 41 89 42 99 55 110 C 64 119 64 119 59 130 C 55 140 55 144 56 155 C 57 163 56 165 41 171 C 7 185 -3 214 14 232 C 44 258 127 247 144 214 C 152 196 143 183 107 161 C 84 148 77 141 75 135 C 72 124 78 118 94 113 C 126 102 150 69 151 37 C 151 24 155 20 166 23 C 182 25 192 17 182 7 C 177 3 174 3 165 7 C 155 9 145 9 137 7 C 127 3 113 3 101 7 M 127 17 C 133 25 130 39 121 59 C 101 97 80 115 68 103 C 62 96 64 78 77 57 C 96 22 117 6 127 17 M 85 173 C 95 178 112 189 116 194 C 133 215 113 233 75 233 C 29 233 13 206 44 181 C 59 170 72 167 85 173 z" fill="black"/><!-- width=193 height=255 -->
<path id="gl6161" d="M 66 7 C 65 8 60 15 58 21 C 49 39 48 40 34 42 C 22 43 21 43 18 47 C 17 51 20 52 28 53 C 42 54 43 56 33 86 C 24 111 23 112 15 144 C 5 176 5 175 8 179 C 9 183 11 185 16 185 C 34 186 86 142 78 134 C 75 130 72 132 60 144 C 45 160 40 162 35 157 C 33 154 33 148 37 135 C 43 119 59 72 59 71 C 59 69 60 66 61 62 C 66 53 68 52 83 53 C 100 54 104 54 106 51 C 112 43 106 40 90 41 C 79 41 78 41 75 39 C 72 35 72 34 77 20 C 80 9 79 4 73 4 C 69 4 68 4 66 7 z" fill="black"/><!-- width=117 height=196 -->
<path id="gl5908" d="M 91 4 C 72 9 68 12 73 22 C 78 29 78 34 62 82 C 53 106 44 136 40 148 C 33 170 20 210 9 240 C 6 250 4 257 4 258 C 7 265 14 267 19 261 C 20 259 26 248 33 237 C 53 194 73 169 102 144 C 136 116 143 133 125 191 C 115 221 106 241 100 246 C 96 250 96 250 89 247 C 82 245 78 245 75 248 C 69 256 73 264 82 267 C 91 269 112 254 127 234 C 137 220 151 186 158 161 C 171 105 132 99 84 149 C 60 174 58 175 58 162 C 58 156 78 98 105 22 C 111 8 110 4 100 4 C 96 4 93 4 91 4 z" fill="black"/><!-- width=170 height=276 -->
<path id="gl6150" d="M 86 6 C 45 17 4 76 8 122 C 9 151 26 161 54 152 C 73 144 91 128 86 122 C 84 120 83 121 71 128 C 57 138 49 141 40 137 C 32 132 29 127 30 110 C 30 87 34 83 58 78 C 101 68 131 37 118 14 C 114 4 102 2 86 6 M 99 18 C 107 27 95 47 69 63 C 37 84 37 63 68 30 C 83 16 92 12 99 18 z" fill="black"/><!-- width=132 height=164 -->
<path id="gl25344" d="M 115 4 C 112 4 103 6 93 6 C 74 7 73 8 72 12 C 70 15 74 18 82 20 C 96 22 94 31 78 82 C 75 90 72 102 69 109 C 67 116 63 129 61 136 C 51 165 45 181 43 193 C 39 207 32 224 27 229 C 25 230 20 234 15 236 C 7 238 3 243 8 246 C 8 246 25 246 45 246 C 79 246 81 246 82 243 C 84 240 82 238 76 236 C 64 231 61 223 63 213 C 64 212 64 208 64 206 C 64 205 66 200 67 196 C 70 188 74 176 79 158 C 85 136 88 133 104 133 C 117 132 122 138 129 160 C 130 169 134 178 140 200 C 141 202 142 207 142 211 C 148 237 158 247 183 247 C 196 247 198 247 199 242 C 200 240 199 238 192 235 C 176 228 174 223 154 158 C 147 135 150 129 164 124 C 202 110 222 80 211 48 C 206 31 190 12 180 12 C 180 12 176 12 174 10 C 168 7 127 3 115 4 M 157 19 C 176 26 187 39 187 57 C 187 91 157 120 117 124 C 94 127 90 121 98 99 C 100 92 104 80 106 73 C 109 66 111 57 112 54 C 114 50 115 45 116 40 C 123 15 133 10 157 19 z" fill="black"/><!-- width=226 height=255 -->
<path id="gl5909" d="M 70 8 C 62 15 60 29 68 35 C 74 41 85 37 90 26 C 99 10 84 -2 70 8 M 54 97 C 35 107 17 120 18 125 C 18 129 23 129 29 124 C 39 117 42 117 45 119 C 47 123 47 126 36 152 C 24 181 9 219 7 228 C 1 246 20 245 52 224 C 67 214 73 207 73 202 C 73 195 70 196 56 209 C 36 226 29 220 40 195 C 42 188 49 170 57 153 C 64 136 71 119 73 114 C 82 93 75 86 54 97 z" fill="black"/><!-- width=102 height=251 -->
<path id="gl17679" d="M 71 7 C 59 12 45 24 39 36 C 33 51 34 61 50 93 C 61 114 62 123 57 132 C 50 145 38 145 22 131 C 16 126 13 126 9 130 C 3 136 7 151 16 155 C 20 158 38 157 45 155 C 64 148 76 131 78 113 C 80 100 78 94 64 67 C 54 48 52 35 60 27 C 66 19 75 19 84 27 C 96 35 102 34 102 23 C 102 9 87 1 71 7 z" fill="black"/><!-- width=112 height=168 -->
<path id="gl22794" d="M 82 7 C 68 12 67 14 72 22 C 73 27 74 32 74 34 C 74 39 67 67 56 97 C 54 104 49 122 44 135 C 36 163 27 187 22 204 C 4 252 3 262 10 265 C 19 268 22 264 33 231 C 39 212 44 203 51 199 C 54 198 55 198 57 197 C 58 198 60 200 62 201 C 64 205 68 211 72 222 C 85 259 94 270 109 263 C 123 256 135 239 131 233 C 131 231 127 233 125 235 C 114 242 112 244 109 242 C 103 241 99 236 92 218 C 84 198 85 189 98 187 C 111 185 128 174 143 159 C 155 146 157 141 156 132 C 155 108 115 109 87 134 C 75 146 73 147 69 149 C 66 149 66 149 66 143 C 64 137 64 137 79 94 C 84 84 88 69 91 63 C 92 57 96 48 98 40 C 108 16 110 8 106 6 C 104 3 93 4 82 7 M 123 131 C 126 132 128 138 128 141 C 128 155 105 175 74 187 C 61 193 56 194 55 189 C 48 171 104 123 123 131 z" fill="black"/><!-- width=168 height=276 -->
</defs>
<use xlink:href="#gl22791" x="29" y="17"/>
<use xlink:href="#gl5913" x="243" y="116"/>
<use xlink:href="#gl6154" x="394" y="115"/>
<use xlink:href="#gl5918" x="571" y="86"/>
<use xlink:href="#gl5912" x="675" y="116"/>
<use xlink:href="#gl5913" x="790" y="116"/>
<use xlink:href="#gl6155" x="937" y="5"/>
<use xlink:href="#gl6155" x="1025" y="4"/>
<use xlink:href="#gl5909" x="1115" y="29"/>
<use xlink:href="#gl6154" x="1218" y="114"/>
<use xlink:href="#gl25106" x="1355" y="114"/>
<use xlink:href="#gl25107" x="1637" y="14"/>
<use xlink:href="#gl17675" x="1822" y="1"/>
<use xlink:href="#gl17678" x="1996" y="115"/>
<use xlink:href="#gl6146" x="2149" y="114"/>
<use xlink:href="#gl25106" x="2282" y="113"/>
<use xlink:href="#gl5908" x="2451" y="3"/>
<use xlink:href="#gl6161" x="2627" y="84"/>
<use xlink:href="#gl17679" x="2711" y="113"/>
<use xlink:href="#gl25107" x="2929" y="15"/>
<use xlink:href="#gl17675" x="3115" y="0"/>
<use xlink:href="#gl10263" x="3279" y="103"/>
<use xlink:href="#gl5918" x="3450" y="84"/>
<use xlink:href="#gl22791" x="3658" y="12"/>
<use xlink:href="#gl10263" x="3860" y="102"/>
<use xlink:href="#gl6146" x="4036" y="112"/>
<use xlink:href="#gl17679" x="4190" y="110"/>
<use xlink:href="#gl6150" x="4297" y="112"/>
<use xlink:href="#gl25108" x="4481" y="15"/>
<use xlink:href="#gl6154" x="4724" y="111"/>
<use xlink:href="#gl6159" x="4878" y="111"/>
<use xlink:href="#gl25109" x="5050" y="24"/>
<use xlink:href="#gl6150" x="5144" y="111"/>
<use xlink:href="#gl6161" x="5272" y="81"/>
<use xlink:href="#gl6162" x="5322" y="110"/>
<use xlink:href="#gl25110" x="5501" y="115"/>
<use xlink:href="#gl25111" x="0" y="508"/>
<use xlink:href="#gl25112" x="134" y="714"/>
<use xlink:href="#gl10266" x="332" y="503"/>
<use xlink:href="#gl25113" x="581" y="600"/>
<use xlink:href="#gl6150" x="723" y="598"/>
<use xlink:href="#gl22793" x="856" y="597"/>
<use xlink:href="#gl6150" x="961" y="599"/>
<use xlink:href="#gl25114" x="1075" y="600"/>
<use xlink:href="#gl6161" x="1184" y="569"/>
<use xlink:href="#gl5909" x="1286" y="512"/>
<use xlink:href="#gl25115" x="1389" y="598"/>
<use xlink:href="#gl10263" x="1633" y="588"/>
<use xlink:href="#gl6161" x="1804" y="568"/>
<use xlink:href="#gl17684" x="1908" y="510"/>
<use xlink:href="#gl6154" x="2009" y="598"/>
<use xlink:href="#gl5914" x="2148" y="599"/>
<use xlink:href="#gl6161" x="2410" y="568"/>
<use xlink:href="#gl5908" x="2506" y="487"/>
<use xlink:href="#gl6150" x="2678" y="597"/>
<use xlink:href="#gl25344" x="2885" y="504"/>
<use xlink:href="#gl5909" x="3101" y="510"/>
<use xlink:href="#gl17679" x="3183" y="595"/>
<use xlink:href="#gl22794" x="3288" y="487"/>
</svg>