<svg xmlns="http://www.w3.org/2000/svg" xmlns:xlink="http://www.w3.org/1999/xlink" width="440px" height="85px" viewBox="0 0 4407 858" version="1.1">
<defs>
<path id="gl6153" d="M 152 3 C 148 4 142 5 141 5 C 139 7 135 7 133 7 C 128 7 100 16 97 20 C 96 21 93 22 92 22 C 90 22 87 24 86 24 C 84 26 78 30 72 34 C 47 49 27 76 15 106 C 5 134 3 174 10 197 C 15 210 23 223 33 231 C 39 237 55 247 58 247 C 59 247 60 247 62 248 C 72 253 106 256 118 253 C 121 253 127 251 131 250 C 136 250 142 249 143 248 C 146 247 154 244 160 243 C 175 238 177 236 177 226 C 177 219 178 217 186 191 C 194 165 198 159 207 154 C 216 149 218 147 215 144 C 211 141 141 141 139 144 C 136 148 139 149 149 152 C 168 158 169 163 158 199 C 144 236 140 241 109 241 C 83 242 68 237 55 225 C 26 199 26 142 55 84 C 74 48 116 21 158 17 C 163 16 172 15 174 15 C 179 15 196 17 199 20 C 209 24 213 33 213 47 C 215 57 215 58 217 59 C 222 60 225 57 231 38 C 240 14 238 13 213 7 C 198 3 166 2 152 3 z" fill="black"/><!-- width=247 height=263 -->
<path id="gl6150" d="M 86 6 C 45 17 4 76 8 122 C 9 151 26 161 54 152 C 73 144 91 128 86 122 C 84 120 83 121 71 128 C 57 138 49 141 40 137 C 32 132 29 127 30 110 C 30 87 34 83 58 78 C 101 68 131 37 118 14 C 114 4 102 2 86 6 M 99 18 C 107 27 95 47 69 63 C 37 84 37 63 68 30 C 83 16 92 12 99 18 z" fill="black"/><!-- width=132 height=164 -->
<path id="gl5918" d="M 65 6 C 64 6 61 14 56 23 C 47 40 46 41 32 43 C 21 45 18 46 18 50 C 18 53 19 54 28 54 C 35 54 39 58 39 62 C 39 63 35 75 31 90 C 21 117 8 160 7 168 C 3 183 12 186 26 179 C 54 167 84 139 76 133 C 74 130 72 131 58 145 C 45 157 40 160 36 158 C 32 156 31 151 34 144 C 37 131 59 67 61 62 C 64 54 67 53 80 54 C 101 56 107 54 107 47 C 107 42 103 41 89 42 C 70 43 68 40 74 23 C 78 13 78 8 75 6 C 74 3 68 3 65 6 z" fill="black"/><!-- width=116 height=194 -->
<path id="gl5918" d="M 65 6 C 64 6 61 14 56 23 C 47 40 46 41 32 43 C 21 45 18 46 18 50 C 18 53 19 54 28 54 C 35 54 39 58 39 62 C 39 63 35 75 31 90 C 21 117 8 160 7 168 C 3 183 12 186 26 179 C 54 167 84 139 76 133 C 74 130 72 131 58 145 C 45 157 40 160 36 158 C 32 156 31 151 34 144 C 37 131 59 67 61 62 C 64 54 67 53 80 54 C 101 56 107 54 107 47 C 107 42 103 41 89 42 C 70 43 68 40 74 23 C 78 13 78 8 75 6 C 74 3 68 3 65 6 z" fill="black"/><!-- width=116 height=194 -->
<path id="gl5909" d="M 70 8 C 62 15 60 29 68 35 C 74 41 85 37 90 26 C 99 10 84 -2 70 8 M 54 97 C 35 107 17 120 18 125 C 18 129 23 129 29 124 C 39 117 42 117 45 119 C 47 123 47 126 36 152 C 24 181 9 219 7 228 C 1 246 20 245 52 224 C 67 214 73 207 73 202 C 73 195 70 196 56 209 C 36 226 29 220 40 195 C 42 188 49 170 57 153 C 64 136 71 119 73 114 C 82 93 75 86 54 97 z" fill="black"/><!-- width=102 height=251 -->
<path id="gl6154" d="M 47 6 C 28 13 8 29 11 36 C 12 39 15 39 22 34 C 34 25 41 24 44 30 C 45 35 42 41 20 102 C 4 145 3 149 8 154 C 14 160 18 156 33 126 C 56 80 64 68 91 41 C 110 23 115 19 121 19 C 131 19 132 30 122 55 C 118 63 111 79 107 90 C 102 102 96 118 93 127 C 84 147 84 153 94 155 C 109 159 158 126 150 117 C 149 115 147 115 138 122 C 126 133 121 136 117 132 C 115 128 115 125 122 109 C 154 36 158 14 142 6 C 127 -1 100 13 73 47 C 52 73 49 66 64 26 C 69 14 69 9 62 6 C 58 3 55 3 47 6 z" fill="black"/><!-- width=162 height=166 -->
<path id="gl5914" d="M 101 7 C 75 14 53 40 46 70 C 41 89 42 99 55 110 C 64 119 64 119 59 130 C 55 140 55 144 56 155 C 57 163 56 165 41 171 C 7 185 -3 214 14 232 C 44 258 127 247 144 214 C 152 196 143 183 107 161 C 84 148 77 141 75 135 C 72 124 78 118 94 113 C 126 102 150 69 151 37 C 151 24 155 20 166 23 C 182 25 192 17 182 7 C 177 3 174 3 165 7 C 155 9 145 9 137 7 C 127 3 113 3 101 7 M 127 17 C 133 25 130 39 121 59 C 101 97 80 115 68 103 C 62 96 64 78 77 57 C 96 22 117 6 127 17 M 85 173 C 95 178 112 189 116 194 C 133 215 113 233 75 233 C 29 233 13 206 44 181 C 59 170 72 167 85 173 z" fill="black"/><!-- width=193 height=255 -->
<path id="gl5918" d="M 65 6 C 64 6 61 14 56 23 C 47 40 46 41 32 43 C 21 45 18 46 18 50 C 18 53 19 54 28 54 C 35 54 39 58 39 62 C 39 63 35 75 31 90 C 21 117 8 160 7 168 C 3 183 12 186 26 179 C 54 167 84 139 76 133 C 74 130 72 131 58 145 C 45 157 40 160 36 158 C 32 156 31 151 34 144 C 37 131 59 67 61 62 C 64 54 67 53 80 54 C 101 56 107 54 107 47 C 107 42 103 41 89 42 C 70 43 68 40 74 23 C 78 13 78 8 75 6 C 74 3 68 3 65 6 z" fill="black"/><!-- width=116 height=194 -->
<path id="gl5913" d="M 74 7 C 48 16 21 48 12 83 C 2 114 6 140 21 150 C 59 174 118 118 125 52 C 128 41 127 39 124 27 C 118 7 98 0 74 7 M 94 16 C 104 21 107 39 100 62 C 85 117 56 154 36 143 C 24 135 24 117 34 85 C 51 38 78 7 94 16 z" fill="black"/><!-- width=138 height=165 -->
<path id="gl5918" d="M 65 6 C 64 6 61 14 56 23 C 47 40 46 41 32 43 C 21 45 18 46 18 50 C 18 53 19 54 28 54 C 35 54 39 58 39 62 C 39 63 35 75 31 90 C 21 117 8 160 7 168 C 3 183 12 186 26 179 C 54 167 84 139 76 133 C 74 130 72 131 58 145 C 45 157 40 160 36 158 C 32 156 31 151 34 144 C 37 131 59 67 61 62 C 64 54 67 53 80 54 C 101 56 107 54 107 47 C 107 42 103 41 89 42 C 70 43 68 40 74 23 C 78 13 78 8 75 6 C 74 3 68 3 65 6 z" fill="black"/><!-- width=116 height=194 -->
<path id="gl5908" d="M 91 4 C 72 9 68 12 73 22 C 78 29 78 34 62 82 C 53 106 44 136 40 148 C 33 170 20 210 9 240 C 6 250 4 257 4 258 C 7 265 14 267 19 261 C 20 259 26 248 33 237 C 53 194 73 169 102 144 C 136 116 143 133 125 191 C 115 221 106 241 100 246 C 96 250 96 250 89 247 C 82 245 78 245 75 248 C 69 256 73 264 82 267 C 91 269 112 254 127 234 C 137 220 151 186 158 161 C 171 105 132 99 84 149 C 60 174 58 175 58 162 C 58 156 78 98 105 22 C 111 8 110 4 100 4 C 96 4 93 4 91 4 z" fill="black"/><!-- width=170 height=276 -->
<path id="gl6150" d="M 86 6 C 45 17 4 76 8 122 C 9 151 26 161 54 152 C 73 144 91 128 86 122 C 84 120 83 121 71 128 C 57 138 49 141 40 137 C 32 132 29 127 30 110 C 30 87 34 83 58 78 C 101 68 131 37 118 14 C 114 4 102 2 86 6 M 99 18 C 107 27 95 47 69 63 C 37 84 37 63 68 30 C 83 16 92 12 99 18 z" fill="black"/><!-- width=132 height=164 -->
<path id="gl31240" d="M 69 3 C 68 3 67 4 67 4 C 67 4 67 6 67 8 C 68 10 69 10 74 12 C 78 12 80 13 82 16 C 85 18 86 20 87 21 C 87 25 86 27 86 31 C 86 37 84 44 82 50 C 79 58 78 67 69 96 C 67 104 62 121 58 133 C 55 144 50 158 49 163 C 43 184 33 210 30 217 C 25 226 21 230 12 235 C 3 238 3 240 4 241 C 7 243 16 246 24 244 C 26 244 39 243 52 243 C 84 243 86 242 72 236 C 60 230 58 226 60 216 C 60 211 67 188 72 174 C 73 171 74 166 74 164 C 82 130 87 124 102 126 C 105 126 127 126 147 126 C 195 126 199 126 204 128 C 208 129 208 135 206 145 C 204 148 202 154 201 157 C 201 159 200 164 199 169 C 196 171 194 182 190 190 C 181 220 175 230 168 232 C 163 234 150 238 148 238 C 148 240 148 241 151 242 C 153 244 153 244 168 243 C 176 243 192 243 201 243 C 218 243 229 243 231 240 C 232 240 229 237 223 235 C 214 231 213 229 211 220 C 210 217 216 194 228 158 C 230 150 232 139 235 133 C 237 126 240 118 240 114 C 241 111 243 104 244 99 C 246 94 248 87 249 82 C 252 78 253 69 254 64 C 260 42 267 26 274 20 C 278 16 285 12 288 12 C 296 12 302 6 296 3 C 292 2 220 2 219 3 C 217 6 220 10 225 12 C 230 13 236 18 237 22 C 238 27 236 39 230 61 C 228 69 224 82 223 88 C 216 112 220 111 163 112 C 136 112 112 112 108 112 C 93 112 91 108 98 86 C 99 80 103 69 105 62 C 110 43 117 26 121 21 C 124 18 135 13 141 12 C 147 10 148 9 146 6 C 146 4 145 3 145 2 C 133 2 120 2 108 2 C 87 2 70 2 69 3 z" fill="black"/><!-- width=308 height=255 -->
<path id="gl6150" d="M 86 6 C 45 17 4 76 8 122 C 9 151 26 161 54 152 C 73 144 91 128 86 122 C 84 120 83 121 71 128 C 57 138 49 141 40 137 C 32 132 29 127 30 110 C 30 87 34 83 58 78 C 101 68 131 37 118 14 C 114 4 102 2 86 6 M 99 18 C 107 27 95 47 69 63 C 37 84 37 63 68 30 C 83 16 92 12 99 18 z" fill="black"/><!-- width=132 height=164 -->
<path id="gl10263" d="M 141 7 C 140 8 137 12 136 14 C 133 22 127 24 119 20 C 108 13 81 25 60 45 C 22 83 -2 147 12 162 C 18 166 21 166 30 164 C 43 159 58 150 75 134 C 91 117 96 121 88 142 C 83 158 85 165 96 165 C 116 165 163 128 146 127 C 144 127 141 128 135 134 C 125 142 121 145 116 144 C 107 144 107 135 118 107 C 122 99 129 82 134 70 C 137 56 145 39 148 31 C 152 22 154 14 154 12 C 154 4 146 1 141 7 M 112 33 C 123 38 123 49 111 72 C 96 101 87 114 65 131 C 48 146 47 146 42 146 C 18 146 48 71 84 41 C 95 31 104 30 112 33 z" fill="black"/><!-- width=164 height=175 -->
<path id="gl5912" d="M 35 7 C 24 12 9 28 9 35 C 9 40 12 40 17 35 C 28 26 34 23 38 29 C 42 34 35 53 16 114 C 4 146 4 146 8 151 C 14 158 19 153 31 130 C 44 94 59 66 75 45 C 90 26 94 23 101 38 C 106 47 111 45 116 35 C 124 17 115 1 101 4 C 91 8 83 18 66 43 C 53 66 48 65 54 39 C 58 22 59 17 57 12 C 54 3 47 2 35 7 z" fill="black"/><!-- width=128 height=163 -->
<path id="gl5918" d="M 65 6 C 64 6 61 14 56 23 C 47 40 46 41 32 43 C 21 45 18 46 18 50 C 18 53 19 54 28 54 C 35 54 39 58 39 62 C 39 63 35 75 31 90 C 21 117 8 160 7 168 C 3 183 12 186 26 179 C 54 167 84 139 76 133 C 74 130 72 131 58 145 C 45 157 40 160 36 158 C 32 156 31 151 34 144 C 37 131 59 67 61 62 C 64 54 67 53 80 54 C 101 56 107 54 107 47 C 107 42 103 41 89 42 C 70 43 68 40 74 23 C 78 13 78 8 75 6 C 74 3 68 3 65 6 z" fill="black"/><!-- width=116 height=194 -->
<path id="gl5913" d="M 74 7 C 48 16 21 48 12 83 C 2 114 6 140 21 150 C 59 174 118 118 125 52 C 128 41 127 39 124 27 C 118 7 98 0 74 7 M 94 16 C 104 21 107 39 100 62 C 85 117 56 154 36 143 C 24 135 24 117 34 85 C 51 38 78 7 94 16 z" fill="black"/><!-- width=138 height=165 -->
<path id="gl6144" d="M 200 4 C 178 8 160 23 144 46 C 134 60 132 66 123 90 C 114 120 115 120 99 120 C 87 121 86 121 84 123 C 81 129 83 132 94 133 C 107 133 111 138 106 152 C 105 156 99 180 92 208 C 67 306 60 327 50 336 C 43 343 35 342 21 329 C 10 321 0 334 7 348 C 10 353 20 359 27 359 C 43 357 65 345 75 329 C 86 315 99 274 115 214 C 128 164 134 143 135 139 C 139 133 141 133 161 133 C 166 133 172 134 178 134 C 179 133 180 132 181 131 C 190 122 185 118 163 120 C 140 120 139 118 150 87 C 162 52 174 30 188 21 C 198 13 215 18 218 29 C 223 43 225 47 229 47 C 241 47 247 25 240 14 C 232 4 215 1 200 4 M 237 174 C 235 174 236 174 240 174 C 243 174 245 174 245 174 C 243 172 238 172 237 174 M 179 198 C 179 200 188 200 191 198 C 192 197 191 197 186 197 C 183 197 179 197 179 198 z" fill="black"/><!-- width=253 height=366 -->
<path id="gl28172" d="M 291 3 C 268 4 264 8 274 16 C 281 22 277 28 253 68 C 246 78 240 89 238 93 C 235 97 232 102 230 104 C 229 105 228 108 228 109 C 228 109 226 113 223 116 C 220 119 218 122 218 123 C 218 123 217 126 216 127 C 210 135 204 145 199 155 C 196 161 192 167 191 168 C 190 170 190 172 190 173 C 190 174 179 190 175 193 C 166 203 163 197 157 160 C 156 150 155 135 155 128 C 155 123 155 119 155 114 C 156 111 158 109 160 107 C 162 103 169 93 175 85 C 192 62 194 58 197 55 C 204 43 224 22 232 19 C 235 16 240 13 243 12 C 244 10 245 10 246 9 C 245 8 244 8 243 7 C 238 3 196 2 191 6 C 187 8 187 9 192 15 C 198 21 197 28 190 40 C 187 43 186 45 186 46 C 186 46 184 50 181 54 C 179 57 175 63 173 67 C 155 97 147 97 144 69 C 139 25 139 21 151 14 C 162 7 156 6 123 4 C 103 4 99 6 97 7 C 96 8 95 8 93 9 C 95 9 96 10 96 12 C 98 13 101 15 102 16 C 111 20 114 28 123 85 C 131 128 129 132 115 151 C 113 155 107 164 102 170 C 87 191 83 197 78 197 C 72 197 70 191 66 155 C 64 143 63 128 62 121 C 61 115 60 104 58 98 C 58 91 57 84 56 83 C 55 78 49 30 50 26 C 51 21 55 16 58 15 C 61 15 64 13 66 12 C 70 9 70 9 68 7 C 66 4 64 4 37 6 C 0 6 -1 8 14 18 C 20 20 22 27 25 43 C 28 68 36 113 38 129 C 39 140 40 156 44 178 C 46 190 49 214 50 230 C 51 244 51 245 55 247 C 60 251 63 249 69 238 C 73 233 81 221 86 212 C 92 205 102 190 109 179 C 121 160 123 157 128 157 C 131 157 134 163 135 168 C 138 184 141 214 143 227 C 144 243 145 247 149 249 C 155 250 158 246 167 232 C 169 228 172 222 174 221 C 175 218 178 214 179 211 C 184 204 194 185 199 180 C 202 178 203 174 204 173 C 205 173 209 166 214 158 C 218 152 222 145 223 144 C 224 143 227 140 228 137 C 230 133 233 131 233 131 C 233 129 233 128 235 127 C 236 126 238 123 238 122 C 238 121 243 114 249 105 C 253 97 261 87 262 84 C 264 80 269 74 270 72 C 273 69 277 61 282 55 C 297 31 311 16 320 16 C 320 16 322 14 324 13 C 326 12 327 10 328 9 C 327 8 326 7 324 6 C 321 3 317 2 291 3 z" fill="black"/><!-- width=336 height=259 -->
<path id="gl5913" d="M 74 7 C 48 16 21 48 12 83 C 2 114 6 140 21 150 C 59 174 118 118 125 52 C 128 41 127 39 124 27 C 118 7 98 0 74 7 M 94 16 C 104 21 107 39 100 62 C 85 117 56 154 36 143 C 24 135 24 117 34 85 C 51 38 78 7 94 16 z" fill="black"/><!-- width=138 height=165 -->
<path id="gl31241" d="M 32 6 C 26 10 9 25 7 30 C 6 34 7 39 9 39 C 10 39 13 36 16 33 C 31 18 40 25 34 46 C 32 52 31 58 30 62 C 28 66 26 73 24 80 C 22 86 18 98 15 108 C 12 117 8 128 7 132 C 3 142 3 148 7 151 C 13 156 18 152 24 136 C 28 123 43 93 52 78 C 52 76 55 72 56 67 C 58 63 61 60 61 60 C 62 58 62 57 63 56 C 84 25 92 19 98 33 C 103 44 110 44 114 32 C 120 16 116 3 105 3 C 94 2 82 12 72 31 C 69 37 66 43 64 44 C 62 45 61 48 61 49 C 60 55 54 61 50 60 C 48 57 48 51 51 38 C 56 22 56 9 52 6 C 48 1 40 2 32 6 z" fill="black"/><!-- width=129 height=163 -->
<path id="gl5912" d="M 35 7 C 24 12 9 28 9 35 C 9 40 12 40 17 35 C 28 26 34 23 38 29 C 42 34 35 53 16 114 C 4 146 4 146 8 151 C 14 158 19 153 31 130 C 44 94 59 66 75 45 C 90 26 94 23 101 38 C 106 47 111 45 116 35 C 124 17 115 1 101 4 C 91 8 83 18 66 43 C 53 66 48 65 54 39 C 58 22 59 17 57 12 C 54 3 47 2 35 7 z" fill="black"/><!-- width=128 height=163 -->
<path id="gl6162" d="M 86 5 C 83 5 78 9 75 11 C 66 19 63 20 60 17 C 57 16 56 17 57 23 C 58 28 58 31 57 35 C 52 51 58 57 65 43 C 74 29 81 26 87 34 C 98 50 96 133 86 167 C 78 191 59 218 46 224 C 38 228 35 228 27 223 C 17 216 14 216 8 222 C 0 230 5 245 19 247 C 44 251 77 221 113 160 C 118 153 124 142 127 136 C 144 111 148 102 154 89 C 157 82 161 71 163 65 C 165 60 167 53 168 51 C 172 43 177 22 177 17 C 177 13 172 5 167 5 C 157 4 155 8 153 28 C 149 56 145 72 136 98 C 126 124 118 136 114 129 C 113 129 113 107 113 83 C 113 45 113 38 111 29 C 106 9 99 2 86 5 z" fill="black"/><!-- width=186 height=258 -->
<path id="gl5909" d="M 70 8 C 62 15 60 29 68 35 C 74 41 85 37 90 26 C 99 10 84 -2 70 8 M 54 97 C 35 107 17 120 18 125 C 18 129 23 129 29 124 C 39 117 42 117 45 119 C 47 123 47 126 36 152 C 24 181 9 219 7 228 C 1 246 20 245 52 224 C 67 214 73 207 73 202 C 73 195 70 196 56 209 C 36 226 29 220 40 195 C 42 188 49 170 57 153 C 64 136 71 119 73 114 C 82 93 75 86 54 97 z" fill="black"/><!-- width=102 height=251 -->
<path id="gl6154" d="M 47 6 C 28 13 8 29 11 36 C 12 39 15 39 22 34 C 34 25 41 24 44 30 C 45 35 42 41 20 102 C 4 145 3 149 8 154 C 14 160 18 156 33 126 C 56 80 64 68 91 41 C 110 23 115 19 121 19 C 131 19 132 30 122 55 C 118 63 111 79 107 90 C 102 102 96 118 93 127 C 84 147 84 153 94 155 C 109 159 158 126 150 117 C 149 115 147 115 138 122 C 126 133 121 136 117 132 C 115 128 115 125 122 109 C 154 36 158 14 142 6 C 127 -1 100 13 73 47 C 52 73 49 66 64 26 C 69 14 69 9 62 6 C 58 3 55 3 47 6 z" fill="black"/><!-- width=162 height=166 -->
<path id="gl25106" d="M 112 4 C 88 8 65 26 53 53 C 39 81 41 100 55 112 C 65 121 66 123 60 135 C 55 145 55 150 56 158 C 58 163 56 168 53 169 C 52 170 45 173 38 176 C 13 188 0 208 8 225 C 18 245 45 254 87 248 C 122 243 146 226 146 208 C 146 192 139 183 110 166 C 84 152 81 148 77 144 C 72 131 77 122 91 117 C 124 107 151 72 151 39 C 151 22 154 19 168 22 C 176 24 181 22 185 18 C 187 13 187 12 183 7 C 179 3 176 3 163 7 C 153 9 145 9 137 6 C 133 3 119 2 112 4 M 125 15 C 140 24 122 73 95 100 C 81 116 66 112 66 93 C 66 76 87 35 104 21 C 114 12 119 12 125 15 M 89 179 C 113 192 122 202 122 212 C 122 239 50 246 32 221 C 24 209 30 196 49 182 C 64 171 75 171 89 179 z" fill="black"/><!-- width=196 height=260 -->
<path id="gl31242" d="M 43 8 C 31 16 30 32 39 39 C 51 48 67 34 64 19 C 63 7 52 2 43 8 M 14 118 C 3 123 0 141 7 148 C 18 159 39 139 32 124 C 28 117 21 115 14 118 z" fill="black"/><!-- width=78 height=164 -->
<path id="gl17681" d="M 139 3 C 86 3 75 4 74 6 C 73 8 75 12 81 14 C 92 19 93 26 89 43 C 85 57 75 91 67 115 C 60 139 50 170 46 183 C 36 220 31 231 20 235 C 19 235 15 237 14 238 C 13 238 10 239 8 239 C 4 242 4 244 7 245 C 12 248 85 246 86 244 C 87 242 86 240 79 238 C 60 233 60 225 74 172 C 80 154 85 137 86 134 C 91 126 99 125 132 127 C 152 130 157 132 160 144 C 161 152 162 155 166 155 C 169 155 172 150 176 134 C 178 127 181 115 185 108 C 190 93 190 90 186 89 C 183 89 180 90 173 99 C 164 110 160 113 138 114 C 95 117 92 115 99 92 C 101 87 105 72 110 58 C 124 14 122 15 146 15 C 191 14 205 20 205 42 C 205 48 209 51 213 48 C 216 44 217 40 223 15 C 227 6 222 2 210 3 C 207 3 174 3 139 3 z" fill="black"/><!-- width=235 height=256 -->
<path id="gl31243" d="M 141 8 C 140 9 138 13 136 15 C 133 22 129 24 122 22 C 110 18 87 24 75 33 C 73 34 70 36 70 37 C 62 39 33 75 24 96 C 10 121 4 153 9 160 C 19 174 44 164 73 138 C 81 128 86 126 88 126 C 93 126 94 129 88 142 C 82 159 86 168 99 166 C 117 166 164 129 147 128 C 145 128 142 129 135 135 C 112 156 104 148 115 120 C 117 114 121 103 123 96 C 132 72 144 43 152 22 C 156 14 156 9 151 7 C 147 4 144 4 141 8 M 111 33 C 123 39 123 48 110 75 C 103 90 84 117 81 117 C 81 117 80 120 78 123 C 75 126 72 129 69 130 C 67 132 62 136 58 139 C 49 150 39 151 34 144 C 30 134 42 97 57 73 C 60 68 63 63 63 62 C 67 56 86 38 93 36 C 102 31 104 31 111 33 z" fill="black"/><!-- width=163 height=177 -->
<path id="gl31244" d="M 86 7 C 61 12 36 36 21 69 C 13 88 10 96 9 112 C 6 147 18 162 45 156 C 67 152 98 127 86 123 C 84 122 80 122 74 128 C 56 144 40 146 33 132 C 30 124 31 103 37 84 C 42 67 51 48 60 36 C 78 13 93 12 98 31 C 100 39 102 42 108 42 C 116 42 121 36 121 26 C 121 12 105 3 86 7 z" fill="black"/><!-- width=133 height=169 -->
<path id="gl5909" d="M 70 8 C 62 15 60 29 68 35 C 74 41 85 37 90 26 C 99 10 84 -2 70 8 M 54 97 C 35 107 17 120 18 125 C 18 129 23 129 29 124 C 39 117 42 117 45 119 C 47 123 47 126 36 152 C 24 181 9 219 7 228 C 1 246 20 245 52 224 C 67 214 73 207 73 202 C 73 195 70 196 56 209 C 36 226 29 220 40 195 C 42 188 49 170 57 153 C 64 136 71 119 73 114 C 82 93 75 86 54 97 z" fill="black"/><!-- width=102 height=251 -->
<path id="gl6154" d="M 47 6 C 28 13 8 29 11 36 C 12 39 15 39 22 34 C 34 25 41 24 44 30 C 45 35 42 41 20 102 C 4 145 3 149 8 154 C 14 160 18 156 33 126 C 56 80 64 68 91 41 C 110 23 115 19 121 19 C 131 19 132 30 122 55 C 118 63 111 79 107 90 C 102 102 96 118 93 127 C 84 147 84 153 94 155 C 109 159 158 126 150 117 C 149 115 147 115 138 122 C 126 133 121 136 117 132 C 115 128 115 125 122 109 C 154 36 158 14 142 6 C 127 -1 100 13 73 47 C 52 73 49 66 64 26 C 69 14 69 9 62 6 C 58 3 55 3 47 6 z" fill="black"/><!-- width=162 height=166 -->
<path id="gl25106" d="M 112 4 C 88 8 65 26 53 53 C 39 81 41 100 55 112 C 65 121 66 123 60 135 C 55 145 55 150 56 158 C 58 163 56 168 53 169 C 52 170 45 173 38 176 C 13 188 0 208 8 225 C 18 245 45 254 87 248 C 122 243 146 226 146 208 C 146 192 139 183 110 166 C 84 152 81 148 77 144 C 72 131 77 122 91 117 C 124 107 151 72 151 39 C 151 22 154 19 168 22 C 176 24 181 22 185 18 C 187 13 187 12 183 7 C 179 3 176 3 163 7 C 153 9 145 9 137 6 C 133 3 119 2 112 4 M 125 15 C 140 24 122 73 95 100 C 81 116 66 112 66 93 C 66 76 87 35 104 21 C 114 12 119 12 125 15 M 89 179 C 113 192 122 202 122 212 C 122 239 50 246 32 221 C 24 209 30 196 49 182 C 64 171 75 171 89 179 z" fill="black"/><!-- width=196 height=260 -->
<path id="gl6145" d="M 164 4 C 154 6 150 10 156 14 C 168 22 168 25 145 51 C 123 79 116 88 103 106 C 91 123 89 125 84 124 C 79 124 78 120 63 47 C 59 25 61 20 73 15 C 80 13 82 10 79 8 C 77 4 19 4 14 8 C 10 10 12 13 20 16 C 31 21 34 28 43 66 C 44 75 49 94 51 106 C 61 147 61 153 47 194 C 34 230 31 235 10 238 C 6 240 4 243 7 246 C 8 247 84 247 85 246 C 89 244 88 241 84 240 C 62 235 61 230 74 188 C 88 144 89 142 113 114 C 129 96 137 85 151 68 C 167 48 189 25 197 21 C 200 20 206 18 209 15 C 217 12 217 10 214 7 C 213 4 185 3 164 4 z" fill="black"/><!-- width=226 height=258 -->
<path id="gl5913" d="M 74 7 C 48 16 21 48 12 83 C 2 114 6 140 21 150 C 59 174 118 118 125 52 C 128 41 127 39 124 27 C 118 7 98 0 74 7 M 94 16 C 104 21 107 39 100 62 C 85 117 56 154 36 143 C 24 135 24 117 34 85 C 51 38 78 7 94 16 z" fill="black"/><!-- width=138 height=165 -->
<path id="gl28166" d="M 51 6 C 31 13 1 39 3 46 C 4 50 7 48 18 39 C 31 26 39 26 39 36 C 39 39 39 41 28 71 C 9 117 3 139 7 148 C 12 159 24 156 45 139 C 55 133 64 123 85 101 C 97 88 102 94 94 116 C 91 123 88 131 86 133 C 77 153 88 160 110 149 C 133 137 153 118 150 111 C 149 107 144 110 133 120 C 123 129 121 132 118 132 C 108 132 108 124 122 91 C 127 77 133 61 134 57 C 135 53 139 45 142 37 C 149 22 151 15 150 13 C 149 8 145 7 140 7 C 134 7 132 9 126 23 C 110 61 94 83 62 112 C 41 132 37 134 33 129 C 29 126 30 118 39 97 C 44 85 50 68 53 60 C 57 48 62 36 64 30 C 72 13 72 9 64 6 C 61 3 57 3 51 6 z" fill="black"/><!-- width=160 height=166 -->
<path id="gl22793" d="M 35 8 C 28 12 13 24 11 30 C 7 39 12 41 19 34 C 29 25 35 24 39 30 C 41 34 40 39 9 130 C 4 147 4 149 7 153 C 12 160 20 155 25 141 C 47 84 78 33 90 29 C 94 28 99 33 101 38 C 105 45 111 44 116 35 C 118 26 120 18 117 13 C 110 -1 89 7 73 33 C 53 66 47 67 55 36 C 62 9 55 0 35 8 z" fill="black"/><!-- width=130 height=166 -->
<path id="gl17681" d="M 139 3 C 86 3 75 4 74 6 C 73 8 75 12 81 14 C 92 19 93 26 89 43 C 85 57 75 91 67 115 C 60 139 50 170 46 183 C 36 220 31 231 20 235 C 19 235 15 237 14 238 C 13 238 10 239 8 239 C 4 242 4 244 7 245 C 12 248 85 246 86 244 C 87 242 86 240 79 238 C 60 233 60 225 74 172 C 80 154 85 137 86 134 C 91 126 99 125 132 127 C 152 130 157 132 160 144 C 161 152 162 155 166 155 C 169 155 172 150 176 134 C 178 127 181 115 185 108 C 190 93 190 90 186 89 C 183 89 180 90 173 99 C 164 110 160 113 138 114 C 95 117 92 115 99 92 C 101 87 105 72 110 58 C 124 14 122 15 146 15 C 191 14 205 20 205 42 C 205 48 209 51 213 48 C 216 44 217 40 223 15 C 227 6 222 2 210 3 C 207 3 174 3 139 3 z" fill="black"/><!-- width=235 height=256 -->
<path id="gl6150" d="M 86 6 C 45 17 4 76 8 122 C 9 151 26 161 54 152 C 73 144 91 128 86 122 C 84 120 83 121 71 128 C 57 138 49 141 40 137 C 32 132 29 127 30 110 C 30 87 34 83 58 78 C 101 68 131 37 118 14 C 114 4 102 2 86 6 M 99 18 C 107 27 95 47 69 63 C 37 84 37 63 68 30 C 83 16 92 12 99 18 z" fill="black"/><!-- width=132 height=164 -->
<path id="gl10263" d="M 141 7 C 140 8 137 12 136 14 C 133 22 127 24 119 20 C 108 13 81 25 60 45 C 22 83 -2 147 12 162 C 18 166 21 166 30 164 C 43 159 58 150 75 134 C 91 117 96 121 88 142 C 83 158 85 165 96 165 C 116 165 163 128 146 127 C 144 127 141 128 135 134 C 125 142 121 145 116 144 C 107 144 107 135 118 107 C 122 99 129 82 134 70 C 137 56 145 39 148 31 C 152 22 154 14 154 12 C 154 4 146 1 141 7 M 112 33 C 123 38 123 49 111 72 C 96 101 87 114 65 131 C 48 146 47 146 42 146 C 18 146 48 71 84 41 C 95 31 104 30 112 33 z" fill="black"/><!-- width=164 height=175 -->
<path id="gl22793" d="M 35 8 C 28 12 13 24 11 30 C 7 39 12 41 19 34 C 29 25 35 24 39 30 C 41 34 40 39 9 130 C 4 147 4 149 7 153 C 12 160 20 155 25 141 C 47 84 78 33 90 29 C 94 28 99 33 101 38 C 105 45 111 44 116 35 C 118 26 120 18 117 13 C 110 -1 89 7 73 33 C 53 66 47 67 55 36 C 62 9 55 0 35 8 z" fill="black"/><!-- width=130 height=166 -->
<path id="gl25114" d="M 69 6 C 50 14 38 28 34 43 C 33 53 35 60 46 83 C 61 112 61 123 50 133 C 43 140 34 139 20 128 C 13 122 8 123 6 129 C 1 138 8 149 18 153 C 41 159 71 138 75 113 C 79 98 75 88 62 66 C 51 46 50 37 55 27 C 59 18 72 16 80 22 C 93 32 96 33 98 27 C 106 11 87 -1 69 6 z" fill="black"/><!-- width=109 height=163 -->
</defs>
<use xlink:href="#gl6153" x="29" y="18"/>
<use xlink:href="#gl6150" x="250" y="115"/>
<use xlink:href="#gl5918" x="379" y="84"/>
<use xlink:href="#gl5918" x="481" y="84"/>
<use xlink:href="#gl5909" x="582" y="26"/>
<use xlink:href="#gl6154" x="685" y="113"/>
<use xlink:href="#gl5914" x="824" y="114"/>
<use xlink:href="#gl5918" x="1088" y="83"/>
<use xlink:href="#gl5913" x="1186" y="113"/>
<use xlink:href="#gl5918" x="1424" y="83"/>
<use xlink:href="#gl5908" x="1519" y="2"/>
<use xlink:href="#gl6150" x="1692" y="112"/>
<use xlink:href="#gl31240" x="1901" y="20"/>
<use xlink:href="#gl6150" x="2168" y="111"/>
<use xlink:href="#gl10263" x="2284" y="100"/>
<use xlink:href="#gl5912" x="2460" y="112"/>
<use xlink:href="#gl5918" x="2581" y="80"/>
<use xlink:href="#gl5913" x="2769" y="110"/>
<use xlink:href="#gl6144" x="2846" y="0"/>
<use xlink:href="#gl28172" x="3129" y="15"/>
<use xlink:href="#gl5913" x="3383" y="110"/>
<use xlink:href="#gl31241" x="3538" y="111"/>
<use xlink:href="#gl5912" x="3656" y="109"/>
<use xlink:href="#gl6162" x="3729" y="109"/>
<use xlink:href="#gl5909" x="3913" y="21"/>
<use xlink:href="#gl6154" x="4016" y="107"/>
<use xlink:href="#gl25106" x="4153" y="108"/>
<use xlink:href="#gl31242" x="4329" y="111"/>
<use xlink:href="#gl17681" x="0" y="504"/>
<use xlink:href="#gl31243" x="178" y="586"/>
<use xlink:href="#gl31244" x="343" y="596"/>
<use xlink:href="#gl5909" x="470" y="511"/>
<use xlink:href="#gl6154" x="573" y="597"/>
<use xlink:href="#gl25106" x="710" y="598"/>
<use xlink:href="#gl6145" x="987" y="503"/>
<use xlink:href="#gl5913" x="1127" y="596"/>
<use xlink:href="#gl28166" x="1280" y="597"/>
<use xlink:href="#gl22793" x="1456" y="595"/>
<use xlink:href="#gl17681" x="1652" y="503"/>
<use xlink:href="#gl6150" x="1837" y="596"/>
<use xlink:href="#gl10263" x="1953" y="586"/>
<use xlink:href="#gl22793" x="2128" y="595"/>
<use xlink:href="#gl25114" x="2232" y="597"/>
</svg>