<svg xmlns="http://www.w3.org/2000/svg" xmlns:xlink="http://www.w3.org/1999/xlink" width="623px" height="81px" viewBox="0 0 6236 818" version="1.1">
<defs>
<path id="gl5655" d="M 28 6 C 12 11 0 27 6 31 C 8 32 9 32 14 27 C 34 9 54 24 44 51 C 42 59 28 77 17 87 C 0 103 1 103 42 103 C 80 103 78 103 83 93 C 89 80 85 77 74 84 C 69 88 68 88 56 88 C 32 89 31 87 46 71 C 62 52 66 44 66 31 C 66 12 47 1 28 6 z" fill="black"/><!-- width=95 height=114 -->
<path id="gl516" d="M 15 7 C 2 11 5 31 18 31 C 30 31 35 18 27 10 C 24 9 23 7 22 7 C 22 7 20 6 19 6 C 19 6 17 6 15 7 z" fill="black"/><!-- width=44 height=43 -->
<path id="gl1800" d="M 12 7 C 4 8 6 13 13 18 C 19 22 20 23 20 79 C 20 139 20 137 11 144 C 4 148 4 149 7 152 C 8 154 52 154 54 152 C 56 149 56 148 50 144 C 41 139 41 136 40 112 C 40 89 41 88 50 88 C 60 88 63 92 78 115 C 93 138 101 148 115 154 C 123 157 136 157 138 154 C 142 150 141 149 131 143 C 121 137 110 125 99 109 C 82 84 82 83 94 74 C 119 55 114 20 85 8 C 78 6 77 6 47 6 C 30 6 14 6 12 7 M 65 17 C 83 22 92 39 85 58 C 82 71 74 76 60 79 C 41 82 40 81 40 40 C 41 22 41 20 44 18 C 47 14 55 14 65 17 z" fill="black"/><!-- width=149 height=165 -->
<path id="gl261" d="M 39 6 C 18 10 7 26 7 54 C 7 73 9 79 18 87 C 32 102 63 102 75 87 C 83 80 76 76 67 81 C 46 92 23 75 21 51 C 21 40 23 39 50 40 C 76 41 80 40 81 30 C 81 13 59 1 39 6 M 54 15 C 62 18 62 28 54 30 C 50 32 34 32 30 31 C 28 29 28 25 32 20 C 37 14 46 12 54 15 z" fill="black"/><!-- width=91 height=111 -->
<path id="gl5637" d="M 41 6 C 27 9 17 18 11 29 C 4 41 4 67 11 80 C 23 103 60 107 80 87 C 88 79 83 70 74 79 C 48 98 14 72 23 39 C 29 16 49 8 69 23 C 75 27 80 27 82 22 C 87 8 65 0 41 6 z" fill="black"/><!-- width=93 height=109 -->
<path id="gl7" d="M 37 6 C 18 9 1 26 4 33 C 8 41 19 36 24 26 C 26 19 31 16 36 16 C 47 16 50 22 50 36 C 50 47 48 49 33 54 C 9 60 2 68 4 83 C 7 98 23 104 39 95 C 42 94 46 92 48 90 C 50 92 54 94 57 95 C 65 100 72 101 78 96 C 87 93 87 88 78 87 C 68 85 65 79 68 54 C 69 23 68 13 58 8 C 52 4 43 3 37 6 M 48 62 C 57 70 48 88 34 88 C 17 88 18 68 37 62 C 44 58 44 58 48 62 z" fill="black"/><!-- width=94 height=110 -->
<path id="gl512" d="M 20 8 C 9 13 7 17 13 24 C 14 26 15 27 17 29 C 17 48 17 69 17 88 C 17 108 17 127 17 148 C 14 149 13 152 10 153 C 4 159 4 161 7 163 C 9 164 42 164 43 163 C 47 161 46 158 41 154 C 34 149 34 149 35 76 C 35 -1 36 1 20 8 z" fill="black"/><!-- width=55 height=175 -->
<path id="gl512" d="M 20 8 C 9 13 7 17 13 24 C 14 26 15 27 17 29 C 17 48 17 69 17 88 C 17 108 17 127 17 148 C 14 149 13 152 10 153 C 4 159 4 161 7 163 C 9 164 42 164 43 163 C 47 161 46 158 41 154 C 34 149 34 149 35 76 C 35 -1 36 1 20 8 z" fill="black"/><!-- width=55 height=175 -->
<path id="gl773" d="M 46 6 C 46 6 37 7 27 7 C 7 8 4 9 4 16 C 4 22 9 23 26 21 C 34 19 43 18 47 18 C 57 18 62 16 62 12 C 62 6 52 3 46 6 z" fill="black"/><!-- width=71 height=33 -->
<path id="gl518" d="M 21 7 C 10 12 7 15 12 22 C 15 27 15 28 15 55 C 15 64 15 73 15 81 C 13 83 12 84 10 86 C 2 94 3 95 25 97 C 44 97 49 97 47 93 C 47 90 46 89 40 86 C 34 85 32 83 32 57 C 32 35 32 28 36 23 C 39 21 46 21 50 23 C 62 30 74 18 65 8 C 60 5 55 5 46 10 C 37 13 36 13 32 8 C 28 3 30 3 21 7 z" fill="black"/><!-- width=78 height=107 -->
<path id="gl261" d="M 39 6 C 18 10 7 26 7 54 C 7 73 9 79 18 87 C 32 102 63 102 75 87 C 83 80 76 76 67 81 C 46 92 23 75 21 51 C 21 40 23 39 50 40 C 76 41 80 40 81 30 C 81 13 59 1 39 6 M 54 15 C 62 18 62 28 54 30 C 50 32 34 32 30 31 C 28 29 28 25 32 20 C 37 14 46 12 54 15 z" fill="black"/><!-- width=91 height=111 -->
<path id="gl260" d="M 15 7 C 7 11 6 14 11 22 C 11 23 12 25 13 27 C 13 45 13 63 13 82 C 14 147 14 147 8 153 C 1 160 3 163 23 163 C 41 163 44 160 36 152 C 35 151 33 149 31 147 C 31 124 31 100 31 77 C 31 2 31 3 25 3 C 24 3 19 6 15 7 z" fill="black"/><!-- width=51 height=172 -->
<path id="gl7" d="M 37 6 C 18 9 1 26 4 33 C 8 41 19 36 24 26 C 26 19 31 16 36 16 C 47 16 50 22 50 36 C 50 47 48 49 33 54 C 9 60 2 68 4 83 C 7 98 23 104 39 95 C 42 94 46 92 48 90 C 50 92 54 94 57 95 C 65 100 72 101 78 96 C 87 93 87 88 78 87 C 68 85 65 79 68 54 C 69 23 68 13 58 8 C 52 4 43 3 37 6 M 48 62 C 57 70 48 88 34 88 C 17 88 18 68 37 62 C 44 58 44 58 48 62 z" fill="black"/><!-- width=94 height=110 -->
<path id="gl5395" d="M 72 3 C 60 5 59 6 60 12 C 64 21 55 35 49 31 C 41 28 37 18 41 12 C 45 5 42 3 22 5 C 17 5 11 5 6 5 C 6 6 6 7 6 8 C 5 11 6 12 12 15 C 20 20 40 45 40 50 C 40 56 17 82 11 84 C 6 85 5 86 5 90 C 5 94 6 94 21 94 C 35 94 37 94 36 89 C 36 87 35 84 35 82 C 33 79 40 66 43 64 C 51 59 65 80 57 85 C 54 89 52 90 55 92 C 56 95 94 95 95 92 C 98 90 96 87 90 85 C 84 81 80 77 67 60 C 61 52 57 46 57 43 C 57 37 76 17 85 15 C 92 12 95 8 92 6 C 90 3 85 3 72 3 z" fill="black"/><!-- width=106 height=105 -->
<path id="gl7" d="M 37 6 C 18 9 1 26 4 33 C 8 41 19 36 24 26 C 26 19 31 16 36 16 C 47 16 50 22 50 36 C 50 47 48 49 33 54 C 9 60 2 68 4 83 C 7 98 23 104 39 95 C 42 94 46 92 48 90 C 50 92 54 94 57 95 C 65 100 72 101 78 96 C 87 93 87 88 78 87 C 68 85 65 79 68 54 C 69 23 68 13 58 8 C 52 4 43 3 37 6 M 48 62 C 57 70 48 88 34 88 C 17 88 18 68 37 62 C 44 58 44 58 48 62 z" fill="black"/><!-- width=94 height=110 -->
<path id="gl1" d="M 20 11 C 18 13 14 17 11 19 C 4 23 4 25 8 30 C 11 31 12 34 13 35 C 13 36 13 50 13 66 C 13 96 14 103 23 106 C 34 111 54 109 57 103 C 61 98 58 95 49 96 C 33 96 31 94 31 58 C 30 28 30 29 42 29 C 55 30 57 30 60 28 C 62 25 62 24 60 22 C 58 18 58 18 47 18 C 35 17 34 17 31 9 C 29 3 24 3 20 11 z" fill="black"/><!-- width=71 height=121 -->
<path id="gl2" d="M 18 4 C 11 8 9 19 14 25 C 27 37 43 19 32 7 C 28 3 23 3 18 4 M 18 61 C 9 66 8 70 13 79 C 14 82 16 85 14 110 C 14 119 14 128 14 137 C 13 139 12 140 9 142 C 4 148 4 148 7 150 C 8 152 12 152 24 152 C 45 152 48 150 39 140 C 37 139 35 138 34 137 C 34 124 34 112 34 100 C 34 79 33 61 33 60 C 32 58 25 58 18 61 z" fill="black"/><!-- width=54 height=163 -->
<path id="gl0" d="M 42 6 C 27 8 16 17 10 31 C 5 42 6 67 11 77 C 30 111 83 106 95 68 C 106 31 78 -1 42 6 M 61 18 C 81 28 82 73 63 86 C 45 99 23 78 26 47 C 27 22 42 8 61 18 z" fill="black"/><!-- width=111 height=111 -->
<path id="gl3" d="M 20 8 C 10 13 8 16 13 23 C 16 27 16 28 16 50 C 17 79 16 83 10 89 C 2 96 3 98 25 99 C 46 99 49 96 40 88 C 39 86 36 85 35 84 C 35 75 35 66 35 57 C 33 23 36 20 54 20 C 73 20 75 23 75 56 C 74 83 74 85 67 89 C 64 93 64 96 67 98 C 71 99 101 99 104 98 C 105 95 104 91 99 89 C 94 85 94 83 93 52 C 93 25 93 23 90 18 C 81 3 67 2 44 12 C 39 13 39 13 36 10 C 31 5 27 5 20 8 z" fill="black"/><!-- width=115 height=110 -->
<path id="gl259" d="M 19 8 C 9 13 8 16 13 25 C 19 38 17 88 9 88 C 9 88 8 91 7 92 C 3 98 6 100 24 100 C 46 100 48 98 40 88 C 39 87 37 86 35 83 C 35 75 35 66 35 58 C 34 29 35 27 43 22 C 49 18 62 19 69 24 C 74 29 74 34 74 55 C 74 79 74 83 69 88 C 65 92 64 97 66 98 C 66 98 74 100 83 100 C 104 100 107 97 98 88 C 97 87 95 86 93 83 C 93 75 93 66 93 58 C 93 33 93 32 96 28 C 102 17 123 17 129 29 C 132 33 132 37 132 56 C 132 81 132 85 125 88 C 122 92 122 97 124 98 C 128 100 158 100 160 97 C 163 96 163 93 158 90 C 151 85 150 82 150 55 C 150 28 150 23 145 16 C 137 3 118 2 101 12 C 93 17 90 17 83 13 C 72 4 64 3 51 8 C 40 13 38 13 35 9 C 32 4 28 4 19 8 z" fill="black"/><!-- width=172 height=109 -->
<path id="gl10755" d="M 39 4 C 17 11 6 27 6 53 C 6 77 17 91 37 95 C 52 99 70 94 78 84 C 85 75 78 69 69 77 C 59 84 39 82 31 72 C 23 62 18 45 23 41 C 26 38 27 38 50 38 C 77 39 79 38 82 32 C 86 16 60 0 39 4 M 55 14 C 60 17 63 22 60 27 C 58 29 57 29 43 29 C 27 29 24 28 29 22 C 36 13 47 11 55 14 z" fill="black"/><!-- width=93 height=108 -->
<path id="gl9" d="M 37 7 C 20 12 7 22 7 31 C 7 41 23 38 27 27 C 31 18 37 15 46 17 C 52 20 55 25 55 35 C 56 47 53 48 37 55 C 13 61 7 66 7 78 C 7 96 25 105 43 95 C 52 91 55 91 62 96 C 72 103 95 96 88 88 C 87 87 85 87 82 87 C 71 87 70 81 72 51 C 72 33 72 27 72 22 C 68 8 53 2 37 7 M 53 63 C 58 71 51 86 42 87 C 20 87 21 68 42 61 C 48 60 51 60 53 63 z" fill="black"/><!-- width=98 height=110 -->
<path id="gl3" d="M 20 8 C 10 13 8 16 13 23 C 16 27 16 28 16 50 C 17 79 16 83 10 89 C 2 96 3 98 25 99 C 46 99 49 96 40 88 C 39 86 36 85 35 84 C 35 75 35 66 35 57 C 33 23 36 20 54 20 C 73 20 75 23 75 56 C 74 83 74 85 67 89 C 64 93 64 96 67 98 C 71 99 101 99 104 98 C 105 95 104 91 99 89 C 94 85 94 83 93 52 C 93 25 93 23 90 18 C 81 3 67 2 44 12 C 39 13 39 13 36 10 C 31 5 27 5 20 8 z" fill="black"/><!-- width=115 height=110 -->
<path id="gl514" d="M 28 6 C 17 9 9 18 9 29 C 9 41 13 46 32 57 C 47 67 50 73 46 82 C 39 93 26 90 17 77 C 13 70 12 69 9 70 C 6 70 6 70 6 78 C 6 93 12 96 31 96 C 52 96 62 89 63 74 C 64 60 58 52 41 42 C 27 34 23 28 27 21 C 31 11 41 11 50 21 C 59 29 64 29 63 18 C 62 8 55 4 42 4 C 37 4 31 4 28 6 z" fill="black"/><!-- width=75 height=108 -->
<path id="gl513" d="M 14 8 C 4 12 3 15 8 24 C 9 25 10 27 12 30 C 12 51 12 72 12 94 C 10 165 10 160 20 161 C 24 162 31 164 37 165 C 72 172 101 146 98 111 C 96 82 71 63 45 72 C 30 78 28 76 30 49 C 31 14 31 9 30 7 C 27 4 21 4 14 8 M 56 85 C 70 90 77 101 77 118 C 78 141 68 155 50 155 C 35 155 30 147 30 118 C 28 106 30 94 30 92 C 32 83 43 80 56 85 z" fill="black"/><!-- width=112 height=177 -->
<path id="gl4" d="M 16 9 C 8 13 7 16 12 24 C 13 28 14 32 14 54 C 14 80 13 86 8 87 C 6 90 3 94 4 95 C 7 99 44 99 45 95 C 47 92 44 90 40 90 C 39 90 37 87 35 86 C 34 85 33 84 32 84 C 32 74 32 65 32 56 C 32 29 32 29 34 26 C 38 22 43 22 49 24 C 59 28 66 24 66 17 C 66 4 55 2 44 11 C 37 16 34 14 32 9 C 29 4 26 3 16 9 z" fill="black"/><!-- width=76 height=108 -->
<path id="gl2" d="M 18 4 C 11 8 9 19 14 25 C 27 37 43 19 32 7 C 28 3 23 3 18 4 M 18 61 C 9 66 8 70 13 79 C 14 82 16 85 14 110 C 14 119 14 128 14 137 C 13 139 12 140 9 142 C 4 148 4 148 7 150 C 8 152 12 152 24 152 C 45 152 48 150 39 140 C 37 139 35 138 34 137 C 34 124 34 112 34 100 C 34 79 33 61 33 60 C 32 58 25 58 18 61 z" fill="black"/><!-- width=54 height=163 -->
<path id="gl3" d="M 20 8 C 10 13 8 16 13 23 C 16 27 16 28 16 50 C 17 79 16 83 10 89 C 2 96 3 98 25 99 C 46 99 49 96 40 88 C 39 86 36 85 35 84 C 35 75 35 66 35 57 C 33 23 36 20 54 20 C 73 20 75 23 75 56 C 74 83 74 85 67 89 C 64 93 64 96 67 98 C 71 99 101 99 104 98 C 105 95 104 91 99 89 C 94 85 94 83 93 52 C 93 25 93 23 90 18 C 81 3 67 2 44 12 C 39 13 39 13 36 10 C 31 5 27 5 20 8 z" fill="black"/><!-- width=115 height=110 -->
<path id="gl1795" d="M 33 7 C 10 14 1 40 16 60 C 22 67 22 72 16 76 C 7 82 7 88 15 97 C 21 104 20 106 14 114 C 7 122 6 123 6 131 C 6 167 76 167 94 131 C 98 122 98 108 96 102 C 90 91 80 87 54 88 C 34 90 30 88 27 82 C 25 74 31 70 46 69 C 69 68 79 58 81 38 C 82 30 85 26 92 25 C 96 24 97 22 98 20 C 100 15 96 13 84 13 C 78 13 73 12 66 9 C 55 6 42 4 33 7 M 56 20 C 70 32 62 63 45 61 C 32 60 25 42 31 26 C 36 15 48 13 56 20 M 70 105 C 82 109 85 125 75 135 C 61 150 28 146 25 129 C 22 120 26 111 34 106 C 39 104 62 104 70 105 z" fill="black"/><!-- width=109 height=168 -->
<path id="gl2" d="M 18 4 C 11 8 9 19 14 25 C 27 37 43 19 32 7 C 28 3 23 3 18 4 M 18 61 C 9 66 8 70 13 79 C 14 82 16 85 14 110 C 14 119 14 128 14 137 C 13 139 12 140 9 142 C 4 148 4 148 7 150 C 8 152 12 152 24 152 C 45 152 48 150 39 140 C 37 139 35 138 34 137 C 34 124 34 112 34 100 C 34 79 33 61 33 60 C 32 58 25 58 18 61 z" fill="black"/><!-- width=54 height=163 -->
<path id="gl3" d="M 20 8 C 10 13 8 16 13 23 C 16 27 16 28 16 50 C 17 79 16 83 10 89 C 2 96 3 98 25 99 C 46 99 49 96 40 88 C 39 86 36 85 35 84 C 35 75 35 66 35 57 C 33 23 36 20 54 20 C 73 20 75 23 75 56 C 74 83 74 85 67 89 C 64 93 64 96 67 98 C 71 99 101 99 104 98 C 105 95 104 91 99 89 C 94 85 94 83 93 52 C 93 25 93 23 90 18 C 81 3 67 2 44 12 C 39 13 39 13 36 10 C 31 5 27 5 20 8 z" fill="black"/><!-- width=115 height=110 -->
<path id="gl10008" d="M 35 4 C 34 4 32 6 29 6 C 8 12 1 39 16 59 C 20 66 20 67 14 75 C 6 82 6 87 13 94 C 20 102 20 103 13 112 C 3 121 2 128 7 137 C 18 162 72 158 89 131 C 98 119 98 102 89 94 C 82 87 82 87 55 87 C 48 87 39 87 30 87 C 30 86 29 84 28 83 C 20 75 27 68 44 68 C 67 66 77 57 80 36 C 81 27 82 23 89 23 C 93 23 98 19 98 18 C 98 13 94 12 84 12 C 75 12 71 11 65 8 C 57 6 39 3 35 4 M 50 16 C 62 19 66 46 55 56 C 43 66 27 55 27 36 C 27 20 38 11 50 16 M 71 104 C 80 108 83 120 77 129 C 66 144 33 145 24 131 C 19 123 22 110 30 105 C 35 102 64 100 71 104 z" fill="black"/><!-- width=107 height=163 -->
<path id="gl0" d="M 42 6 C 27 8 16 17 10 31 C 5 42 6 67 11 77 C 30 111 83 106 95 68 C 106 31 78 -1 42 6 M 61 18 C 81 28 82 73 63 86 C 45 99 23 78 26 47 C 27 22 42 8 61 18 z" fill="black"/><!-- width=111 height=111 -->
<path id="gl3" d="M 20 8 C 10 13 8 16 13 23 C 16 27 16 28 16 50 C 17 79 16 83 10 89 C 2 96 3 98 25 99 C 46 99 49 96 40 88 C 39 86 36 85 35 84 C 35 75 35 66 35 57 C 33 23 36 20 54 20 C 73 20 75 23 75 56 C 74 83 74 85 67 89 C 64 93 64 96 67 98 C 71 99 101 99 104 98 C 105 95 104 91 99 89 C 94 85 94 83 93 52 C 93 25 93 23 90 18 C 81 3 67 2 44 12 C 39 13 39 13 36 10 C 31 5 27 5 20 8 z" fill="black"/><!-- width=115 height=110 -->
<path id="gl7" d="M 37 6 C 18 9 1 26 4 33 C 8 41 19 36 24 26 C 26 19 31 16 36 16 C 47 16 50 22 50 36 C 50 47 48 49 33 54 C 9 60 2 68 4 83 C 7 98 23 104 39 95 C 42 94 46 92 48 90 C 50 92 54 94 57 95 C 65 100 72 101 78 96 C 87 93 87 88 78 87 C 68 85 65 79 68 54 C 69 23 68 13 58 8 C 52 4 43 3 37 6 M 48 62 C 57 70 48 88 34 88 C 17 88 18 68 37 62 C 44 58 44 58 48 62 z" fill="black"/><!-- width=94 height=110 -->
<path id="gl17431" d="M 25 5 C 15 10 8 17 8 28 C 8 39 12 44 28 54 C 43 65 45 66 45 73 C 47 77 45 80 43 82 C 35 93 22 89 15 73 C 10 63 5 65 5 76 C 5 90 11 96 28 96 C 45 98 58 90 62 77 C 66 63 59 52 39 40 C 24 31 20 22 29 15 C 35 10 42 11 49 19 C 58 28 62 28 62 20 C 63 7 57 2 40 2 C 33 3 28 3 25 5 z" fill="black"/><!-- width=73 height=107 -->
<path id="gl1027" d="M 22 12 C 20 15 15 19 13 20 C 7 24 6 26 12 32 C 13 33 14 35 16 36 C 16 47 16 56 16 66 C 15 105 18 107 36 111 C 47 112 61 106 60 100 C 60 98 59 98 52 98 C 42 99 37 96 35 91 C 32 85 31 38 33 33 C 35 32 35 31 36 30 C 39 30 43 31 47 31 C 59 31 62 30 62 25 C 62 20 59 18 48 19 C 38 20 37 19 33 12 C 30 4 29 4 22 12 z" fill="black"/><!-- width=72 height=122 -->
<path id="gl7" d="M 37 6 C 18 9 1 26 4 33 C 8 41 19 36 24 26 C 26 19 31 16 36 16 C 47 16 50 22 50 36 C 50 47 48 49 33 54 C 9 60 2 68 4 83 C 7 98 23 104 39 95 C 42 94 46 92 48 90 C 50 92 54 94 57 95 C 65 100 72 101 78 96 C 87 93 87 88 78 87 C 68 85 65 79 68 54 C 69 23 68 13 58 8 C 52 4 43 3 37 6 M 48 62 C 57 70 48 88 34 88 C 17 88 18 68 37 62 C 44 58 44 58 48 62 z" fill="black"/><!-- width=94 height=110 -->
<path id="gl1" d="M 20 11 C 18 13 14 17 11 19 C 4 23 4 25 8 30 C 11 31 12 34 13 35 C 13 36 13 50 13 66 C 13 96 14 103 23 106 C 34 111 54 109 57 103 C 61 98 58 95 49 96 C 33 96 31 94 31 58 C 30 28 30 29 42 29 C 55 30 57 30 60 28 C 62 25 62 24 60 22 C 58 18 58 18 47 18 C 35 17 34 17 31 9 C 29 3 24 3 20 11 z" fill="black"/><!-- width=71 height=121 -->
<path id="gl261" d="M 39 6 C 18 10 7 26 7 54 C 7 73 9 79 18 87 C 32 102 63 102 75 87 C 83 80 76 76 67 81 C 46 92 23 75 21 51 C 21 40 23 39 50 40 C 76 41 80 40 81 30 C 81 13 59 1 39 6 M 54 15 C 62 18 62 28 54 30 C 50 32 34 32 30 31 C 28 29 28 25 32 20 C 37 14 46 12 54 15 z" fill="black"/><!-- width=91 height=111 -->
<path id="gl0" d="M 42 6 C 27 8 16 17 10 31 C 5 42 6 67 11 77 C 30 111 83 106 95 68 C 106 31 78 -1 42 6 M 61 18 C 81 28 82 73 63 86 C 45 99 23 78 26 47 C 27 22 42 8 61 18 z" fill="black"/><!-- width=111 height=111 -->
<path id="gl8713" d="M 55 6 C 32 9 18 28 16 60 C 14 74 13 76 9 80 C 6 82 6 85 9 90 C 12 91 13 92 14 95 C 14 104 14 112 14 121 C 14 151 13 154 7 158 C 0 165 4 168 27 167 C 33 167 39 167 45 167 C 45 165 45 164 45 164 C 45 162 44 160 40 158 C 33 154 33 153 32 122 C 32 112 32 104 32 94 C 33 94 34 92 35 91 C 38 89 39 89 47 90 C 56 91 63 87 63 82 C 63 79 56 76 47 78 C 32 79 29 74 34 45 C 39 19 48 13 64 23 C 74 30 76 30 81 26 C 91 16 74 1 55 6 z" fill="black"/><!-- width=92 height=178 -->
<path id="gl4" d="M 16 9 C 8 13 7 16 12 24 C 13 28 14 32 14 54 C 14 80 13 86 8 87 C 6 90 3 94 4 95 C 7 99 44 99 45 95 C 47 92 44 90 40 90 C 39 90 37 87 35 86 C 34 85 33 84 32 84 C 32 74 32 65 32 56 C 32 29 32 29 34 26 C 38 22 43 22 49 24 C 59 28 66 24 66 17 C 66 4 55 2 44 11 C 37 16 34 14 32 9 C 29 4 26 3 16 9 z" fill="black"/><!-- width=76 height=108 -->
<path id="gl6" d="M 39 3 C 18 9 7 26 7 52 C 7 80 22 96 50 94 C 65 94 78 86 78 78 C 78 74 75 74 67 78 C 47 88 21 72 21 47 C 21 37 23 37 50 37 C 78 37 79 37 80 29 C 83 13 59 0 39 3 M 57 14 C 67 22 59 29 42 29 C 29 29 26 27 29 21 C 34 12 50 8 57 14 z" fill="black"/><!-- width=91 height=106 -->
<path id="gl260" d="M 15 7 C 7 11 6 14 11 22 C 11 23 12 25 13 27 C 13 45 13 63 13 82 C 14 147 14 147 8 153 C 1 160 3 163 23 163 C 41 163 44 160 36 152 C 35 151 33 149 31 147 C 31 124 31 100 31 77 C 31 2 31 3 25 3 C 24 3 19 6 15 7 z" fill="black"/><!-- width=51 height=172 -->
<path id="gl9" d="M 37 7 C 20 12 7 22 7 31 C 7 41 23 38 27 27 C 31 18 37 15 46 17 C 52 20 55 25 55 35 C 56 47 53 48 37 55 C 13 61 7 66 7 78 C 7 96 25 105 43 95 C 52 91 55 91 62 96 C 72 103 95 96 88 88 C 87 87 85 87 82 87 C 71 87 70 81 72 51 C 72 33 72 27 72 22 C 68 8 53 2 37 7 M 53 63 C 58 71 51 86 42 87 C 20 87 21 68 42 61 C 48 60 51 60 53 63 z" fill="black"/><!-- width=98 height=110 -->
<path id="gl5395" d="M 72 3 C 60 5 59 6 60 12 C 64 21 55 35 49 31 C 41 28 37 18 41 12 C 45 5 42 3 22 5 C 17 5 11 5 6 5 C 6 6 6 7 6 8 C 5 11 6 12 12 15 C 20 20 40 45 40 50 C 40 56 17 82 11 84 C 6 85 5 86 5 90 C 5 94 6 94 21 94 C 35 94 37 94 36 89 C 36 87 35 84 35 82 C 33 79 40 66 43 64 C 51 59 65 80 57 85 C 54 89 52 90 55 92 C 56 95 94 95 95 92 C 98 90 96 87 90 85 C 84 81 80 77 67 60 C 61 52 57 46 57 43 C 57 37 76 17 85 15 C 92 12 95 8 92 6 C 90 3 85 3 72 3 z" fill="black"/><!-- width=106 height=105 -->
<path id="gl7" d="M 37 6 C 18 9 1 26 4 33 C 8 41 19 36 24 26 C 26 19 31 16 36 16 C 47 16 50 22 50 36 C 50 47 48 49 33 54 C 9 60 2 68 4 83 C 7 98 23 104 39 95 C 42 94 46 92 48 90 C 50 92 54 94 57 95 C 65 100 72 101 78 96 C 87 93 87 88 78 87 C 68 85 65 79 68 54 C 69 23 68 13 58 8 C 52 4 43 3 37 6 M 48 62 C 57 70 48 88 34 88 C 17 88 18 68 37 62 C 44 58 44 58 48 62 z" fill="black"/><!-- width=94 height=110 -->
<path id="gl1" d="M 20 11 C 18 13 14 17 11 19 C 4 23 4 25 8 30 C 11 31 12 34 13 35 C 13 36 13 50 13 66 C 13 96 14 103 23 106 C 34 111 54 109 57 103 C 61 98 58 95 49 96 C 33 96 31 94 31 58 C 30 28 30 29 42 29 C 55 30 57 30 60 28 C 62 25 62 24 60 22 C 58 18 58 18 47 18 C 35 17 34 17 31 9 C 29 3 24 3 20 11 z" fill="black"/><!-- width=71 height=121 -->
<path id="gl2" d="M 18 4 C 11 8 9 19 14 25 C 27 37 43 19 32 7 C 28 3 23 3 18 4 M 18 61 C 9 66 8 70 13 79 C 14 82 16 85 14 110 C 14 119 14 128 14 137 C 13 139 12 140 9 142 C 4 148 4 148 7 150 C 8 152 12 152 24 152 C 45 152 48 150 39 140 C 37 139 35 138 34 137 C 34 124 34 112 34 100 C 34 79 33 61 33 60 C 32 58 25 58 18 61 z" fill="black"/><!-- width=54 height=163 -->
<path id="gl0" d="M 42 6 C 27 8 16 17 10 31 C 5 42 6 67 11 77 C 30 111 83 106 95 68 C 106 31 78 -1 42 6 M 61 18 C 81 28 82 73 63 86 C 45 99 23 78 26 47 C 27 22 42 8 61 18 z" fill="black"/><!-- width=111 height=111 -->
<path id="gl3" d="M 20 8 C 10 13 8 16 13 23 C 16 27 16 28 16 50 C 17 79 16 83 10 89 C 2 96 3 98 25 99 C 46 99 49 96 40 88 C 39 86 36 85 35 84 C 35 75 35 66 35 57 C 33 23 36 20 54 20 C 73 20 75 23 75 56 C 74 83 74 85 67 89 C 64 93 64 96 67 98 C 71 99 101 99 104 98 C 105 95 104 91 99 89 C 94 85 94 83 93 52 C 93 25 93 23 90 18 C 81 3 67 2 44 12 C 39 13 39 13 36 10 C 31 5 27 5 20 8 z" fill="black"/><!-- width=115 height=110 -->
<path id="gl1027" d="M 22 12 C 20 15 15 19 13 20 C 7 24 6 26 12 32 C 13 33 14 35 16 36 C 16 47 16 56 16 66 C 15 105 18 107 36 111 C 47 112 61 106 60 100 C 60 98 59 98 52 98 C 42 99 37 96 35 91 C 32 85 31 38 33 33 C 35 32 35 31 36 30 C 39 30 43 31 47 31 C 59 31 62 30 62 25 C 62 20 59 18 48 19 C 38 20 37 19 33 12 C 30 4 29 4 22 12 z" fill="black"/><!-- width=72 height=122 -->
<path id="gl1796" d="M 20 9 C 11 14 9 17 14 25 C 18 30 18 31 18 115 C 18 126 18 138 17 150 C 15 151 14 153 12 154 C 6 161 4 163 11 164 C 15 167 40 167 44 164 C 47 163 47 158 44 156 C 38 152 38 148 38 121 C 38 113 38 104 38 97 C 39 94 40 93 40 92 C 47 84 63 83 71 92 C 76 95 77 103 77 122 C 77 145 77 150 71 154 C 62 163 66 166 88 166 C 109 166 114 163 104 156 C 97 151 97 150 97 119 C 95 90 95 90 92 84 C 84 72 66 68 50 77 C 47 78 44 79 43 78 C 36 78 36 75 38 41 C 38 17 38 12 36 9 C 34 6 29 6 20 9 z" fill="black"/><!-- width=119 height=177 -->
<path id="gl518" d="M 21 7 C 10 12 7 15 12 22 C 15 27 15 28 15 55 C 15 64 15 73 15 81 C 13 83 12 84 10 86 C 2 94 3 95 25 97 C 44 97 49 97 47 93 C 47 90 46 89 40 86 C 34 85 32 83 32 57 C 32 35 32 28 36 23 C 39 21 46 21 50 23 C 62 30 74 18 65 8 C 60 5 55 5 46 10 C 37 13 36 13 32 8 C 28 3 30 3 21 7 z" fill="black"/><!-- width=78 height=107 -->
<path id="gl0" d="M 42 6 C 27 8 16 17 10 31 C 5 42 6 67 11 77 C 30 111 83 106 95 68 C 106 31 78 -1 42 6 M 61 18 C 81 28 82 73 63 86 C 45 99 23 78 26 47 C 27 22 42 8 61 18 z" fill="black"/><!-- width=111 height=111 -->
<path id="gl256" d="M 16 4 C 4 6 3 9 9 18 C 12 23 13 23 13 49 C 13 63 13 78 14 80 C 18 95 38 101 57 94 C 68 89 68 89 72 94 C 75 98 78 98 93 94 C 105 91 108 88 99 83 C 89 79 89 79 90 42 C 90 23 90 7 90 7 C 89 3 84 3 75 4 C 62 6 59 9 67 16 C 68 18 70 22 70 24 C 73 31 73 69 70 74 C 65 86 41 88 33 77 C 31 72 31 72 31 39 C 31 28 32 17 32 7 C 31 6 29 6 28 4 C 26 2 24 2 16 4 z" fill="black"/><!-- width=114 height=109 -->
<path id="gl521" d="M 35 6 C 11 11 1 37 15 58 C 20 64 20 68 17 73 C 7 81 7 85 14 95 C 20 102 20 105 14 112 C 7 119 6 122 6 129 C 6 165 77 163 92 128 C 101 111 96 94 80 89 C 77 88 70 86 55 88 C 34 88 34 88 30 85 C 22 77 28 69 46 67 C 68 66 77 58 80 37 C 81 28 84 24 90 23 C 103 20 97 11 83 11 C 78 11 72 11 66 8 C 55 4 42 3 35 6 M 55 17 C 68 29 63 57 47 59 C 37 62 28 50 28 36 C 28 19 44 8 55 17 M 73 105 C 85 112 83 132 68 139 C 59 143 42 143 34 139 C 18 130 20 107 39 102 C 47 101 67 102 73 105 z" fill="black"/><!-- width=106 height=166 -->
<path id="gl8" d="M 20 8 C 9 12 8 16 13 25 C 14 26 15 29 15 30 C 15 49 15 67 15 87 C 15 148 16 148 9 154 C 6 158 4 159 6 160 C 8 163 41 164 43 162 C 45 160 45 157 41 153 C 38 152 36 148 36 147 C 35 142 35 95 36 93 C 41 84 55 82 64 87 C 75 91 76 95 75 124 C 75 131 75 140 75 148 C 73 150 71 151 70 153 C 64 158 64 158 65 162 C 67 165 104 164 106 160 C 107 158 107 158 104 156 C 94 148 93 145 94 118 C 95 99 94 89 89 82 C 81 71 66 67 52 73 C 36 81 33 78 35 61 C 36 44 36 9 35 7 C 32 4 27 4 20 8 z" fill="black"/><!-- width=117 height=174 -->
<path id="gl258" d="M 77 7 C 66 11 65 14 71 25 C 74 32 75 32 75 47 C 75 70 75 69 57 70 C 26 71 11 84 7 112 C 2 148 32 175 62 161 C 69 158 70 158 76 162 C 81 165 81 165 89 164 C 106 161 112 155 101 151 C 99 149 95 148 94 145 C 93 143 93 85 93 35 C 94 26 94 17 94 8 C 93 8 91 7 91 5 C 88 3 85 3 77 7 M 66 82 C 74 87 75 91 74 118 C 74 126 74 134 74 143 C 72 143 71 145 70 145 C 59 156 37 148 29 131 C 16 102 41 68 66 82 z" fill="black"/><!-- width=118 height=176 -->
<path id="gl261" d="M 39 6 C 18 10 7 26 7 54 C 7 73 9 79 18 87 C 32 102 63 102 75 87 C 83 80 76 76 67 81 C 46 92 23 75 21 51 C 21 40 23 39 50 40 C 76 41 80 40 81 30 C 81 13 59 1 39 6 M 54 15 C 62 18 62 28 54 30 C 50 32 34 32 30 31 C 28 29 28 25 32 20 C 37 14 46 12 54 15 z" fill="black"/><!-- width=91 height=111 -->
<path id="gl261" d="M 39 6 C 18 10 7 26 7 54 C 7 73 9 79 18 87 C 32 102 63 102 75 87 C 83 80 76 76 67 81 C 46 92 23 75 21 51 C 21 40 23 39 50 40 C 76 41 80 40 81 30 C 81 13 59 1 39 6 M 54 15 C 62 18 62 28 54 30 C 50 32 34 32 30 31 C 28 29 28 25 32 20 C 37 14 46 12 54 15 z" fill="black"/><!-- width=91 height=111 -->
<path id="gl517" d="M 24 6 C 19 8 11 14 9 17 C 9 18 11 22 12 25 C 13 28 14 29 14 32 C 14 49 14 66 14 83 C 14 137 14 141 8 147 C 1 155 4 157 28 157 C 46 157 48 156 48 152 C 48 150 48 149 43 146 C 35 142 33 140 33 120 C 33 102 34 101 45 102 C 76 104 102 81 103 48 C 103 19 77 0 52 8 C 40 13 36 13 34 9 C 32 6 28 4 24 6 M 70 25 C 83 34 86 61 75 80 C 66 93 44 96 36 82 C 34 78 33 76 33 56 C 33 27 35 23 46 22 C 55 20 64 22 70 25 z" fill="black"/><!-- width=114 height=167 -->
<path id="gl262" d="M 41 6 C 31 10 23 13 17 21 C 2 38 3 72 21 87 C 37 101 66 100 80 85 C 87 76 82 71 73 77 C 50 93 21 73 23 45 C 25 30 33 18 46 15 C 52 13 58 15 67 21 C 78 28 86 23 82 13 C 78 5 58 1 41 6 z" fill="black"/><!-- width=93 height=108 -->
<path id="gl0" d="M 42 6 C 27 8 16 17 10 31 C 5 42 6 67 11 77 C 30 111 83 106 95 68 C 106 31 78 -1 42 6 M 61 18 C 81 28 82 73 63 86 C 45 99 23 78 26 47 C 27 22 42 8 61 18 z" fill="black"/><!-- width=111 height=111 -->
<path id="gl1026" d="M 21 10 C 10 14 9 18 14 26 C 15 27 16 30 18 32 C 16 40 16 50 16 58 C 16 67 16 76 16 85 C 14 87 13 88 10 91 C 9 93 8 94 6 97 C 7 97 7 98 8 98 C 12 102 42 102 44 99 C 46 97 46 94 42 91 C 36 86 34 82 34 57 C 34 32 36 28 44 24 C 49 21 62 20 67 24 C 75 27 75 30 75 58 C 75 68 75 76 75 85 C 74 87 72 88 70 91 C 64 96 64 97 67 98 C 70 102 100 102 104 98 C 106 96 106 96 102 92 C 94 85 94 84 94 55 C 94 42 93 28 93 26 C 88 9 69 3 50 12 C 43 15 39 15 37 13 C 33 6 30 6 21 10 z" fill="black"/><!-- width=116 height=111 -->
<path id="gl777" d="M 44 6 C 29 9 18 17 12 29 C 3 48 7 75 19 86 C 37 103 68 101 83 85 C 91 75 85 68 75 75 C 68 81 65 83 55 83 C 31 83 16 55 28 32 C 37 13 55 11 72 23 C 79 31 89 21 84 11 C 80 4 58 2 44 6 z" fill="black"/><!-- width=98 height=110 -->
<path id="gl261" d="M 39 6 C 18 10 7 26 7 54 C 7 73 9 79 18 87 C 32 102 63 102 75 87 C 83 80 76 76 67 81 C 46 92 23 75 21 51 C 21 40 23 39 50 40 C 76 41 80 40 81 30 C 81 13 59 1 39 6 M 54 15 C 62 18 62 28 54 30 C 50 32 34 32 30 31 C 28 29 28 25 32 20 C 37 14 46 12 54 15 z" fill="black"/><!-- width=91 height=111 -->
<path id="gl3" d="M 20 8 C 10 13 8 16 13 23 C 16 27 16 28 16 50 C 17 79 16 83 10 89 C 2 96 3 98 25 99 C 46 99 49 96 40 88 C 39 86 36 85 35 84 C 35 75 35 66 35 57 C 33 23 36 20 54 20 C 73 20 75 23 75 56 C 74 83 74 85 67 89 C 64 93 64 96 67 98 C 71 99 101 99 104 98 C 105 95 104 91 99 89 C 94 85 94 83 93 52 C 93 25 93 23 90 18 C 81 3 67 2 44 12 C 39 13 39 13 36 10 C 31 5 27 5 20 8 z" fill="black"/><!-- width=115 height=110 -->
<path id="gl1" d="M 20 11 C 18 13 14 17 11 19 C 4 23 4 25 8 30 C 11 31 12 34 13 35 C 13 36 13 50 13 66 C 13 96 14 103 23 106 C 34 111 54 109 57 103 C 61 98 58 95 49 96 C 33 96 31 94 31 58 C 30 28 30 29 42 29 C 55 30 57 30 60 28 C 62 25 62 24 60 22 C 58 18 58 18 47 18 C 35 17 34 17 31 9 C 29 3 24 3 20 11 z" fill="black"/><!-- width=71 height=121 -->
<path id="gl518" d="M 21 7 C 10 12 7 15 12 22 C 15 27 15 28 15 55 C 15 64 15 73 15 81 C 13 83 12 84 10 86 C 2 94 3 95 25 97 C 44 97 49 97 47 93 C 47 90 46 89 40 86 C 34 85 32 83 32 57 C 32 35 32 28 36 23 C 39 21 46 21 50 23 C 62 30 74 18 65 8 C 60 5 55 5 46 10 C 37 13 36 13 32 8 C 28 3 30 3 21 7 z" fill="black"/><!-- width=78 height=107 -->
<path id="gl7" d="M 37 6 C 18 9 1 26 4 33 C 8 41 19 36 24 26 C 26 19 31 16 36 16 C 47 16 50 22 50 36 C 50 47 48 49 33 54 C 9 60 2 68 4 83 C 7 98 23 104 39 95 C 42 94 46 92 48 90 C 50 92 54 94 57 95 C 65 100 72 101 78 96 C 87 93 87 88 78 87 C 68 85 65 79 68 54 C 69 23 68 13 58 8 C 52 4 43 3 37 6 M 48 62 C 57 70 48 88 34 88 C 17 88 18 68 37 62 C 44 58 44 58 48 62 z" fill="black"/><!-- width=94 height=110 -->
<path id="gl8452" d="M 22 9 C 18 13 13 17 12 18 C 6 20 6 23 11 28 C 12 29 14 30 15 31 C 15 41 15 50 15 58 C 14 90 15 95 22 100 C 31 109 56 107 61 98 C 62 93 60 91 50 93 C 42 94 42 94 39 90 C 34 87 34 84 33 53 C 33 25 33 25 49 26 C 61 28 66 25 63 19 C 61 15 57 14 46 15 C 37 17 35 15 34 9 C 33 6 30 3 29 3 C 28 3 25 6 22 9 z" fill="black"/><!-- width=72 height=116 -->
<path id="gl2" d="M 18 4 C 11 8 9 19 14 25 C 27 37 43 19 32 7 C 28 3 23 3 18 4 M 18 61 C 9 66 8 70 13 79 C 14 82 16 85 14 110 C 14 119 14 128 14 137 C 13 139 12 140 9 142 C 4 148 4 148 7 150 C 8 152 12 152 24 152 C 45 152 48 150 39 140 C 37 139 35 138 34 137 C 34 124 34 112 34 100 C 34 79 33 61 33 60 C 32 58 25 58 18 61 z" fill="black"/><!-- width=54 height=163 -->
<path id="gl0" d="M 42 6 C 27 8 16 17 10 31 C 5 42 6 67 11 77 C 30 111 83 106 95 68 C 106 31 78 -1 42 6 M 61 18 C 81 28 82 73 63 86 C 45 99 23 78 26 47 C 27 22 42 8 61 18 z" fill="black"/><!-- width=111 height=111 -->
<path id="gl3" d="M 20 8 C 10 13 8 16 13 23 C 16 27 16 28 16 50 C 17 79 16 83 10 89 C 2 96 3 98 25 99 C 46 99 49 96 40 88 C 39 86 36 85 35 84 C 35 75 35 66 35 57 C 33 23 36 20 54 20 C 73 20 75 23 75 56 C 74 83 74 85 67 89 C 64 93 64 96 67 98 C 71 99 101 99 104 98 C 105 95 104 91 99 89 C 94 85 94 83 93 52 C 93 25 93 23 90 18 C 81 3 67 2 44 12 C 39 13 39 13 36 10 C 31 5 27 5 20 8 z" fill="black"/><!-- width=115 height=110 -->
<path id="gl7" d="M 37 6 C 18 9 1 26 4 33 C 8 41 19 36 24 26 C 26 19 31 16 36 16 C 47 16 50 22 50 36 C 50 47 48 49 33 54 C 9 60 2 68 4 83 C 7 98 23 104 39 95 C 42 94 46 92 48 90 C 50 92 54 94 57 95 C 65 100 72 101 78 96 C 87 93 87 88 78 87 C 68 85 65 79 68 54 C 69 23 68 13 58 8 C 52 4 43 3 37 6 M 48 62 C 57 70 48 88 34 88 C 17 88 18 68 37 62 C 44 58 44 58 48 62 z" fill="black"/><!-- width=94 height=110 -->
<path id="gl1026" d="M 21 10 C 10 14 9 18 14 26 C 15 27 16 30 18 32 C 16 40 16 50 16 58 C 16 67 16 76 16 85 C 14 87 13 88 10 91 C 9 93 8 94 6 97 C 7 97 7 98 8 98 C 12 102 42 102 44 99 C 46 97 46 94 42 91 C 36 86 34 82 34 57 C 34 32 36 28 44 24 C 49 21 62 20 67 24 C 75 27 75 30 75 58 C 75 68 75 76 75 85 C 74 87 72 88 70 91 C 64 96 64 97 67 98 C 70 102 100 102 104 98 C 106 96 106 96 102 92 C 94 85 94 84 94 55 C 94 42 93 28 93 26 C 88 9 69 3 50 12 C 43 15 39 15 37 13 C 33 6 30 6 21 10 z" fill="black"/><!-- width=116 height=111 -->
<path id="gl258" d="M 77 7 C 66 11 65 14 71 25 C 74 32 75 32 75 47 C 75 70 75 69 57 70 C 26 71 11 84 7 112 C 2 148 32 175 62 161 C 69 158 70 158 76 162 C 81 165 81 165 89 164 C 106 161 112 155 101 151 C 99 149 95 148 94 145 C 93 143 93 85 93 35 C 94 26 94 17 94 8 C 93 8 91 7 91 5 C 88 3 85 3 77 7 M 66 82 C 74 87 75 91 74 118 C 74 126 74 134 74 143 C 72 143 71 145 70 145 C 59 156 37 148 29 131 C 16 102 41 68 66 82 z" fill="black"/><!-- width=118 height=176 -->
<path id="gl4" d="M 16 9 C 8 13 7 16 12 24 C 13 28 14 32 14 54 C 14 80 13 86 8 87 C 6 90 3 94 4 95 C 7 99 44 99 45 95 C 47 92 44 90 40 90 C 39 90 37 87 35 86 C 34 85 33 84 32 84 C 32 74 32 65 32 56 C 32 29 32 29 34 26 C 38 22 43 22 49 24 C 59 28 66 24 66 17 C 66 4 55 2 44 11 C 37 16 34 14 32 9 C 29 4 26 3 16 9 z" fill="black"/><!-- width=76 height=108 -->
<path id="gl5391" d="M 36 5 C 17 12 7 26 6 49 C 3 78 20 98 46 98 C 65 98 88 83 79 75 C 78 73 71 75 70 76 C 70 78 66 80 64 81 C 45 89 22 73 21 49 C 21 39 21 39 47 39 C 79 40 83 39 80 25 C 78 10 54 0 36 5 M 58 16 C 61 20 63 23 60 27 C 56 31 30 31 27 27 C 22 18 47 8 58 16 z" fill="black"/><!-- width=92 height=109 -->
<path id="gl777" d="M 44 6 C 29 9 18 17 12 29 C 3 48 7 75 19 86 C 37 103 68 101 83 85 C 91 75 85 68 75 75 C 68 81 65 83 55 83 C 31 83 16 55 28 32 C 37 13 55 11 72 23 C 79 31 89 21 84 11 C 80 4 58 2 44 6 z" fill="black"/><!-- width=98 height=110 -->
<path id="gl9" d="M 37 7 C 20 12 7 22 7 31 C 7 41 23 38 27 27 C 31 18 37 15 46 17 C 52 20 55 25 55 35 C 56 47 53 48 37 55 C 13 61 7 66 7 78 C 7 96 25 105 43 95 C 52 91 55 91 62 96 C 72 103 95 96 88 88 C 87 87 85 87 82 87 C 71 87 70 81 72 51 C 72 33 72 27 72 22 C 68 8 53 2 37 7 M 53 63 C 58 71 51 86 42 87 C 20 87 21 68 42 61 C 48 60 51 60 53 63 z" fill="black"/><!-- width=98 height=110 -->
<path id="gl5398" d="M 18 7 C 7 10 4 15 10 23 C 12 24 12 25 13 26 C 13 46 13 65 13 85 C 14 150 13 152 7 157 C 4 158 4 159 4 162 C 4 164 6 164 21 165 C 31 165 39 165 41 164 C 43 163 43 159 39 156 C 31 151 31 153 32 76 C 32 -2 34 1 18 7 z" fill="black"/><!-- width=53 height=176 -->
<path id="gl512" d="M 20 8 C 9 13 7 17 13 24 C 14 26 15 27 17 29 C 17 48 17 69 17 88 C 17 108 17 127 17 148 C 14 149 13 152 10 153 C 4 159 4 161 7 163 C 9 164 42 164 43 163 C 47 161 46 158 41 154 C 34 149 34 149 35 76 C 35 -1 36 1 20 8 z" fill="black"/><!-- width=55 height=175 -->
<path id="gl10249" d="M 19 5 C 7 10 11 26 22 26 C 31 26 35 22 36 16 C 36 6 27 1 19 5 M 19 62 C 10 67 8 69 13 77 C 16 82 16 86 16 120 C 16 126 16 131 15 138 C 13 139 12 140 10 143 C 1 152 3 153 25 153 C 48 153 50 152 40 143 C 39 142 36 140 35 139 C 35 125 35 112 35 100 C 35 53 35 53 19 62 z" fill="black"/><!-- width=57 height=163 -->
<path id="gl1026" d="M 21 10 C 10 14 9 18 14 26 C 15 27 16 30 18 32 C 16 40 16 50 16 58 C 16 67 16 76 16 85 C 14 87 13 88 10 91 C 9 93 8 94 6 97 C 7 97 7 98 8 98 C 12 102 42 102 44 99 C 46 97 46 94 42 91 C 36 86 34 82 34 57 C 34 32 36 28 44 24 C 49 21 62 20 67 24 C 75 27 75 30 75 58 C 75 68 75 76 75 85 C 74 87 72 88 70 91 C 64 96 64 97 67 98 C 70 102 100 102 104 98 C 106 96 106 96 102 92 C 94 85 94 84 94 55 C 94 42 93 28 93 26 C 88 9 69 3 50 12 C 43 15 39 15 37 13 C 33 6 30 6 21 10 z" fill="black"/><!-- width=116 height=111 -->
<path id="gl521" d="M 35 6 C 11 11 1 37 15 58 C 20 64 20 68 17 73 C 7 81 7 85 14 95 C 20 102 20 105 14 112 C 7 119 6 122 6 129 C 6 165 77 163 92 128 C 101 111 96 94 80 89 C 77 88 70 86 55 88 C 34 88 34 88 30 85 C 22 77 28 69 46 67 C 68 66 77 58 80 37 C 81 28 84 24 90 23 C 103 20 97 11 83 11 C 78 11 72 11 66 8 C 55 4 42 3 35 6 M 55 17 C 68 29 63 57 47 59 C 37 62 28 50 28 36 C 28 19 44 8 55 17 M 73 105 C 85 112 83 132 68 139 C 59 143 42 143 34 139 C 18 130 20 107 39 102 C 47 101 67 102 73 105 z" fill="black"/><!-- width=106 height=166 -->
<path id="gl1" d="M 20 11 C 18 13 14 17 11 19 C 4 23 4 25 8 30 C 11 31 12 34 13 35 C 13 36 13 50 13 66 C 13 96 14 103 23 106 C 34 111 54 109 57 103 C 61 98 58 95 49 96 C 33 96 31 94 31 58 C 30 28 30 29 42 29 C 55 30 57 30 60 28 C 62 25 62 24 60 22 C 58 18 58 18 47 18 C 35 17 34 17 31 9 C 29 3 24 3 20 11 z" fill="black"/><!-- width=71 height=121 -->
<path id="gl8" d="M 20 8 C 9 12 8 16 13 25 C 14 26 15 29 15 30 C 15 49 15 67 15 87 C 15 148 16 148 9 154 C 6 158 4 159 6 160 C 8 163 41 164 43 162 C 45 160 45 157 41 153 C 38 152 36 148 36 147 C 35 142 35 95 36 93 C 41 84 55 82 64 87 C 75 91 76 95 75 124 C 75 131 75 140 75 148 C 73 150 71 151 70 153 C 64 158 64 158 65 162 C 67 165 104 164 106 160 C 107 158 107 158 104 156 C 94 148 93 145 94 118 C 95 99 94 89 89 82 C 81 71 66 67 52 73 C 36 81 33 78 35 61 C 36 44 36 9 35 7 C 32 4 27 4 20 8 z" fill="black"/><!-- width=117 height=174 -->
<path id="gl522" d="M 36 8 C 14 14 2 38 7 66 C 9 90 22 101 47 101 C 66 101 85 89 78 79 C 77 77 77 77 72 79 C 61 85 59 87 53 87 C 36 87 21 70 21 53 C 21 42 20 42 49 42 C 58 42 66 43 74 43 C 76 42 77 41 78 39 C 85 32 78 18 65 10 C 58 7 45 6 36 8 M 54 18 C 60 20 62 27 58 31 C 55 35 32 36 29 32 C 26 30 26 27 31 22 C 38 16 47 14 54 18 z" fill="black"/><!-- width=91 height=113 -->
<path id="gl5138" d="M 50 6 C 29 12 18 28 16 58 C 14 66 13 71 11 75 C 8 80 7 82 8 84 C 14 92 14 91 14 118 C 14 147 13 148 9 153 C 2 160 6 163 25 163 C 45 163 49 161 40 154 C 33 148 32 144 32 116 C 32 92 32 91 35 88 C 38 86 39 86 46 86 C 55 87 61 85 61 80 C 61 76 58 74 46 74 C 32 74 29 70 34 44 C 39 17 48 12 66 24 C 75 30 84 27 84 18 C 84 7 66 1 50 6 z" fill="black"/><!-- width=92 height=173 -->
<path id="gl522" d="M 36 8 C 14 14 2 38 7 66 C 9 90 22 101 47 101 C 66 101 85 89 78 79 C 77 77 77 77 72 79 C 61 85 59 87 53 87 C 36 87 21 70 21 53 C 21 42 20 42 49 42 C 58 42 66 43 74 43 C 76 42 77 41 78 39 C 85 32 78 18 65 10 C 58 7 45 6 36 8 M 54 18 C 60 20 62 27 58 31 C 55 35 32 36 29 32 C 26 30 26 27 31 22 C 38 16 47 14 54 18 z" fill="black"/><!-- width=91 height=113 -->
<path id="gl21260" d="M 39 7 C 13 16 0 46 11 75 C 19 100 59 107 77 88 C 86 80 81 72 70 80 C 50 92 23 76 23 50 C 23 42 24 40 40 42 C 77 43 84 42 84 32 C 84 14 59 1 39 7 M 58 18 C 63 22 63 28 59 30 C 54 33 32 33 30 30 C 23 22 48 11 58 18 z" fill="black"/><!-- width=93 height=111 -->
<path id="gl512" d="M 20 8 C 9 13 7 17 13 24 C 14 26 15 27 17 29 C 17 48 17 69 17 88 C 17 108 17 127 17 148 C 14 149 13 152 10 153 C 4 159 4 161 7 163 C 9 164 42 164 43 163 C 47 161 46 158 41 154 C 34 149 34 149 35 76 C 35 -1 36 1 20 8 z" fill="black"/><!-- width=55 height=175 -->
<path id="gl10249" d="M 19 5 C 7 10 11 26 22 26 C 31 26 35 22 36 16 C 36 6 27 1 19 5 M 19 62 C 10 67 8 69 13 77 C 16 82 16 86 16 120 C 16 126 16 131 15 138 C 13 139 12 140 10 143 C 1 152 3 153 25 153 C 48 153 50 152 40 143 C 39 142 36 140 35 139 C 35 125 35 112 35 100 C 35 53 35 53 19 62 z" fill="black"/><!-- width=57 height=163 -->
<path id="gl1026" d="M 21 10 C 10 14 9 18 14 26 C 15 27 16 30 18 32 C 16 40 16 50 16 58 C 16 67 16 76 16 85 C 14 87 13 88 10 91 C 9 93 8 94 6 97 C 7 97 7 98 8 98 C 12 102 42 102 44 99 C 46 97 46 94 42 91 C 36 86 34 82 34 57 C 34 32 36 28 44 24 C 49 21 62 20 67 24 C 75 27 75 30 75 58 C 75 68 75 76 75 85 C 74 87 72 88 70 91 C 64 96 64 97 67 98 C 70 102 100 102 104 98 C 106 96 106 96 102 92 C 94 85 94 84 94 55 C 94 42 93 28 93 26 C 88 9 69 3 50 12 C 43 15 39 15 37 13 C 33 6 30 6 21 10 z" fill="black"/><!-- width=116 height=111 -->
<path id="gl521" d="M 35 6 C 11 11 1 37 15 58 C 20 64 20 68 17 73 C 7 81 7 85 14 95 C 20 102 20 105 14 112 C 7 119 6 122 6 129 C 6 165 77 163 92 128 C 101 111 96 94 80 89 C 77 88 70 86 55 88 C 34 88 34 88 30 85 C 22 77 28 69 46 67 C 68 66 77 58 80 37 C 81 28 84 24 90 23 C 103 20 97 11 83 11 C 78 11 72 11 66 8 C 55 4 42 3 35 6 M 55 17 C 68 29 63 57 47 59 C 37 62 28 50 28 36 C 28 19 44 8 55 17 M 73 105 C 85 112 83 132 68 139 C 59 143 42 143 34 139 C 18 130 20 107 39 102 C 47 101 67 102 73 105 z" fill="black"/><!-- width=106 height=166 -->
<path id="gl257" d="M 31 6 C 24 8 17 13 13 20 C 6 35 11 45 33 58 C 48 69 52 77 45 85 C 37 94 25 91 19 80 C 11 66 3 67 6 82 C 7 93 13 99 28 100 C 53 104 72 83 62 62 C 60 55 56 52 42 44 C 26 34 22 26 30 18 C 37 12 46 14 53 24 C 60 33 67 29 64 18 C 62 7 50 3 31 6 z" fill="black"/><!-- width=78 height=112 -->
<path id="gl0" d="M 42 6 C 27 8 16 17 10 31 C 5 42 6 67 11 77 C 30 111 83 106 95 68 C 106 31 78 -1 42 6 M 61 18 C 81 28 82 73 63 86 C 45 99 23 78 26 47 C 27 22 42 8 61 18 z" fill="black"/><!-- width=111 height=111 -->
<path id="gl5394" d="M 54 6 C 33 12 20 30 18 62 C 17 73 17 75 13 78 C 8 83 8 85 13 90 C 14 91 16 93 17 94 C 17 102 17 110 17 118 C 17 131 17 145 17 147 C 16 151 16 154 12 157 C 6 163 4 166 8 167 C 13 168 46 168 49 167 C 51 165 49 161 44 159 C 36 155 36 155 35 123 C 35 113 35 103 35 93 C 36 93 38 92 38 91 C 40 90 43 90 51 90 C 59 91 60 91 62 88 C 70 81 64 76 51 77 C 35 78 34 76 36 55 C 39 19 50 11 69 24 C 78 30 85 29 87 20 C 90 9 71 1 54 6 z" fill="black"/><!-- width=96 height=180 -->
<path id="gl4" d="M 16 9 C 8 13 7 16 12 24 C 13 28 14 32 14 54 C 14 80 13 86 8 87 C 6 90 3 94 4 95 C 7 99 44 99 45 95 C 47 92 44 90 40 90 C 39 90 37 87 35 86 C 34 85 33 84 32 84 C 32 74 32 65 32 56 C 32 29 32 29 34 26 C 38 22 43 22 49 24 C 59 28 66 24 66 17 C 66 4 55 2 44 11 C 37 16 34 14 32 9 C 29 4 26 3 16 9 z" fill="black"/><!-- width=76 height=108 -->
<path id="gl5" d="M 38 7 C 19 13 8 30 8 56 C 8 80 20 96 42 99 C 55 101 71 96 78 89 C 85 79 80 76 69 82 C 49 91 24 76 24 51 C 24 40 24 40 53 40 C 61 40 69 40 78 40 C 78 39 79 38 80 36 C 84 33 84 28 80 22 C 74 8 56 2 38 7 M 57 15 C 65 20 65 28 57 30 C 52 33 35 33 33 30 C 30 28 30 25 34 22 C 40 14 50 12 57 15 z" fill="black"/><!-- width=94 height=112 -->
<path id="gl260" d="M 15 7 C 7 11 6 14 11 22 C 11 23 12 25 13 27 C 13 45 13 63 13 82 C 14 147 14 147 8 153 C 1 160 3 163 23 163 C 41 163 44 160 36 152 C 35 151 33 149 31 147 C 31 124 31 100 31 77 C 31 2 31 3 25 3 C 24 3 19 6 15 7 z" fill="black"/><!-- width=51 height=172 -->
<path id="gl7" d="M 37 6 C 18 9 1 26 4 33 C 8 41 19 36 24 26 C 26 19 31 16 36 16 C 47 16 50 22 50 36 C 50 47 48 49 33 54 C 9 60 2 68 4 83 C 7 98 23 104 39 95 C 42 94 46 92 48 90 C 50 92 54 94 57 95 C 65 100 72 101 78 96 C 87 93 87 88 78 87 C 68 85 65 79 68 54 C 69 23 68 13 58 8 C 52 4 43 3 37 6 M 48 62 C 57 70 48 88 34 88 C 17 88 18 68 37 62 C 44 58 44 58 48 62 z" fill="black"/><!-- width=94 height=110 -->
<path id="gl772" d="M 7 7 C 5 10 6 12 12 17 C 18 21 35 42 37 49 C 40 55 25 74 10 85 C 6 89 5 89 6 92 C 8 94 8 95 18 95 C 32 95 34 94 34 85 C 32 75 39 64 45 64 C 49 64 54 69 56 75 C 59 79 59 80 56 85 C 54 94 55 95 73 95 C 93 95 97 93 85 84 C 78 78 59 55 58 49 C 55 41 66 25 79 17 C 93 10 92 6 74 6 C 60 6 60 6 59 16 C 59 31 50 37 42 29 C 39 25 37 21 39 13 C 40 7 37 6 22 6 C 13 6 8 6 7 7 z" fill="black"/><!-- width=102 height=104 -->
<path id="gl9" d="M 37 7 C 20 12 7 22 7 31 C 7 41 23 38 27 27 C 31 18 37 15 46 17 C 52 20 55 25 55 35 C 56 47 53 48 37 55 C 13 61 7 66 7 78 C 7 96 25 105 43 95 C 52 91 55 91 62 96 C 72 103 95 96 88 88 C 87 87 85 87 82 87 C 71 87 70 81 72 51 C 72 33 72 27 72 22 C 68 8 53 2 37 7 M 53 63 C 58 71 51 86 42 87 C 20 87 21 68 42 61 C 48 60 51 60 53 63 z" fill="black"/><!-- width=98 height=110 -->
<path id="gl1" d="M 20 11 C 18 13 14 17 11 19 C 4 23 4 25 8 30 C 11 31 12 34 13 35 C 13 36 13 50 13 66 C 13 96 14 103 23 106 C 34 111 54 109 57 103 C 61 98 58 95 49 96 C 33 96 31 94 31 58 C 30 28 30 29 42 29 C 55 30 57 30 60 28 C 62 25 62 24 60 22 C 58 18 58 18 47 18 C 35 17 34 17 31 9 C 29 3 24 3 20 11 z" fill="black"/><!-- width=71 height=121 -->
<path id="gl2" d="M 18 4 C 11 8 9 19 14 25 C 27 37 43 19 32 7 C 28 3 23 3 18 4 M 18 61 C 9 66 8 70 13 79 C 14 82 16 85 14 110 C 14 119 14 128 14 137 C 13 139 12 140 9 142 C 4 148 4 148 7 150 C 8 152 12 152 24 152 C 45 152 48 150 39 140 C 37 139 35 138 34 137 C 34 124 34 112 34 100 C 34 79 33 61 33 60 C 32 58 25 58 18 61 z" fill="black"/><!-- width=54 height=163 -->
<path id="gl0" d="M 42 6 C 27 8 16 17 10 31 C 5 42 6 67 11 77 C 30 111 83 106 95 68 C 106 31 78 -1 42 6 M 61 18 C 81 28 82 73 63 86 C 45 99 23 78 26 47 C 27 22 42 8 61 18 z" fill="black"/><!-- width=111 height=111 -->
<path id="gl774" d="M 19 8 C 9 13 8 14 13 25 C 15 31 15 33 15 52 C 15 79 15 81 9 88 C 1 95 3 96 24 96 C 45 97 48 95 40 86 C 34 81 34 78 34 53 C 33 25 36 20 52 20 C 72 19 75 24 74 57 C 74 66 74 73 74 80 C 72 83 70 84 68 86 C 59 95 62 96 84 96 C 106 96 108 95 99 86 C 94 83 92 80 92 77 C 92 74 92 62 92 50 C 92 26 92 25 90 19 C 83 6 64 1 48 9 C 41 13 37 13 35 8 C 31 4 26 4 19 8 z" fill="black"/><!-- width=115 height=106 -->
<path id="gl516" d="M 15 7 C 2 11 5 31 18 31 C 30 31 35 18 27 10 C 24 9 23 7 22 7 C 22 7 20 6 19 6 C 19 6 17 6 15 7 z" fill="black"/><!-- width=44 height=43 -->
<path id="gl1797" d="M 12 7 C 7 10 3 31 6 35 C 8 39 9 38 16 31 C 25 21 29 20 44 20 C 66 19 64 13 64 81 C 64 148 65 142 48 151 C 44 152 43 154 45 157 C 48 160 99 160 101 157 C 103 153 102 152 96 148 C 84 143 85 147 85 82 C 85 62 85 43 85 24 C 87 24 88 22 89 21 C 91 19 93 19 106 20 C 124 20 125 21 134 33 C 137 39 141 39 143 36 C 145 33 146 27 146 20 C 147 7 146 4 139 6 C 136 6 131 7 129 7 C 125 8 102 8 76 8 C 32 8 29 8 22 6 C 14 3 15 3 12 7 z" fill="black"/><!-- width=157 height=169 -->
<path id="gl17667" d="M 8 7 C 6 9 7 12 13 16 C 22 21 22 21 21 81 C 21 142 21 139 11 144 C 6 147 3 152 7 153 C 8 153 19 153 33 153 C 55 154 58 153 59 152 C 61 148 59 147 51 143 C 42 141 42 138 42 111 C 42 82 40 82 63 84 C 79 85 79 85 86 97 C 89 101 90 102 94 100 C 97 97 97 61 94 58 C 91 55 87 56 84 64 C 80 71 76 72 60 74 C 40 74 42 75 42 44 C 42 37 42 29 42 21 C 42 21 43 19 44 18 C 45 17 47 16 48 14 C 53 14 58 16 63 16 C 82 17 86 18 91 27 C 100 40 105 38 103 21 C 103 4 107 4 54 4 C 17 4 8 6 8 7 z" fill="black"/><!-- width=113 height=163 -->
</defs>
<use xlink:href="#gl5655" x="0" y="63"/>
<use xlink:href="#gl516" x="98" y="138"/>
<use xlink:href="#gl1800" x="359" y="13"/>
<use xlink:href="#gl261" x="496" y="71"/>
<use xlink:href="#gl5637" x="581" y="70"/>
<use xlink:href="#gl7" x="671" y="71"/>
<use xlink:href="#gl512" x="757" y="3"/>
<use xlink:href="#gl512" x="811" y="3"/>
<use xlink:href="#gl773" x="867" y="107"/>
<use xlink:href="#gl518" x="940" y="71"/>
<use xlink:href="#gl261" x="1009" y="70"/>
<use xlink:href="#gl260" x="1097" y="5"/>
<use xlink:href="#gl7" x="1151" y="71"/>
<use xlink:href="#gl5395" x="1234" y="73"/>
<use xlink:href="#gl7" x="1335" y="71"/>
<use xlink:href="#gl1" x="1425" y="61"/>
<use xlink:href="#gl2" x="1493" y="15"/>
<use xlink:href="#gl0" x="1546" y="70"/>
<use xlink:href="#gl3" x="1655" y="70"/>
<use xlink:href="#gl259" x="1826" y="69"/>
<use xlink:href="#gl10755" x="1998" y="72"/>
<use xlink:href="#gl9" x="2082" y="70"/>
<use xlink:href="#gl3" x="2174" y="69"/>
<use xlink:href="#gl514" x="2286" y="73"/>
<use xlink:href="#gl513" x="2415" y="4"/>
<use xlink:href="#gl4" x="2528" y="70"/>
<use xlink:href="#gl2" x="2599" y="15"/>
<use xlink:href="#gl3" x="2654" y="70"/>
<use xlink:href="#gl1795" x="2766" y="69"/>
<use xlink:href="#gl2" x="2869" y="16"/>
<use xlink:href="#gl3" x="2925" y="70"/>
<use xlink:href="#gl10008" x="3038" y="72"/>
<use xlink:href="#gl0" x="3191" y="70"/>
<use xlink:href="#gl3" x="3301" y="69"/>
<use xlink:href="#gl7" x="3471" y="70"/>
<use xlink:href="#gl17431" x="3613" y="73"/>
<use xlink:href="#gl1027" x="3686" y="58"/>
<use xlink:href="#gl7" x="3754" y="70"/>
<use xlink:href="#gl1" x="3844" y="60"/>
<use xlink:href="#gl261" x="3910" y="70"/>
<use xlink:href="#gl0" x="4052" y="70"/>
<use xlink:href="#gl8713" x="4162" y="0"/>
<use xlink:href="#gl4" x="4295" y="70"/>
<use xlink:href="#gl6" x="4363" y="72"/>
<use xlink:href="#gl260" x="4451" y="5"/>
<use xlink:href="#gl9" x="4501" y="70"/>
<use xlink:href="#gl5395" x="4588" y="73"/>
<use xlink:href="#gl7" x="4689" y="70"/>
<use xlink:href="#gl1" x="4779" y="60"/>
<use xlink:href="#gl2" x="4847" y="15"/>
<use xlink:href="#gl0" x="4901" y="70"/>
<use xlink:href="#gl3" x="5009" y="68"/>
<use xlink:href="#gl1027" x="355" y="376"/>
<use xlink:href="#gl1796" x="418" y="321"/>
<use xlink:href="#gl518" x="537" y="389"/>
<use xlink:href="#gl0" x="607" y="388"/>
<use xlink:href="#gl256" x="716" y="390"/>
<use xlink:href="#gl521" x="826" y="389"/>
<use xlink:href="#gl8" x="924" y="322"/>
<use xlink:href="#gl258" x="1092" y="323"/>
<use xlink:href="#gl261" x="1206" y="388"/>
<use xlink:href="#gl261" x="1293" y="388"/>
<use xlink:href="#gl517" x="1379" y="387"/>
<use xlink:href="#gl262" x="1547" y="389"/>
<use xlink:href="#gl0" x="1634" y="388"/>
<use xlink:href="#gl1026" x="1742" y="385"/>
<use xlink:href="#gl777" x="1855" y="389"/>
<use xlink:href="#gl261" x="1946" y="388"/>
<use xlink:href="#gl3" x="2033" y="387"/>
<use xlink:href="#gl1" x="2150" y="378"/>
<use xlink:href="#gl518" x="2217" y="389"/>
<use xlink:href="#gl7" x="2289" y="388"/>
<use xlink:href="#gl8452" x="2376" y="381"/>
<use xlink:href="#gl2" x="2446" y="333"/>
<use xlink:href="#gl0" x="2500" y="388"/>
<use xlink:href="#gl3" x="2607" y="387"/>
<use xlink:href="#gl7" x="2778" y="388"/>
<use xlink:href="#gl1026" x="2866" y="385"/>
<use xlink:href="#gl258" x="2980" y="322"/>
<use xlink:href="#gl4" x="3152" y="387"/>
<use xlink:href="#gl5391" x="3219" y="389"/>
<use xlink:href="#gl777" x="3304" y="388"/>
<use xlink:href="#gl9" x="3393" y="388"/>
<use xlink:href="#gl5398" x="3485" y="322"/>
<use xlink:href="#gl512" x="3536" y="321"/>
<use xlink:href="#gl10249" x="3594" y="332"/>
<use xlink:href="#gl1026" x="3649" y="385"/>
<use xlink:href="#gl521" x="3764" y="390"/>
<use xlink:href="#gl1" x="3920" y="378"/>
<use xlink:href="#gl8" x="3985" y="322"/>
<use xlink:href="#gl522" x="4099" y="385"/>
<use xlink:href="#gl5138" x="4244" y="321"/>
<use xlink:href="#gl522" x="4305" y="385"/>
<use xlink:href="#gl21260" x="4391" y="387"/>
<use xlink:href="#gl512" x="4478" y="321"/>
<use xlink:href="#gl10249" x="4535" y="331"/>
<use xlink:href="#gl1026" x="4590" y="385"/>
<use xlink:href="#gl521" x="4705" y="389"/>
<use xlink:href="#gl257" x="4801" y="388"/>
<use xlink:href="#gl0" x="4930" y="388"/>
<use xlink:href="#gl5394" x="5036" y="319"/>
<use xlink:href="#gl4" x="358" y="707"/>
<use xlink:href="#gl5" x="423" y="706"/>
<use xlink:href="#gl260" x="514" y="643"/>
<use xlink:href="#gl7" x="568" y="706"/>
<use xlink:href="#gl772" x="652" y="709"/>
<use xlink:href="#gl9" x="747" y="706"/>
<use xlink:href="#gl1" x="841" y="697"/>
<use xlink:href="#gl2" x="908" y="651"/>
<use xlink:href="#gl0" x="963" y="706"/>
<use xlink:href="#gl774" x="1071" y="707"/>
<use xlink:href="#gl516" x="1191" y="773"/>
<use xlink:href="#gl1797" x="5528" y="645"/>
<use xlink:href="#gl17667" x="6123" y="650"/>
</svg>