<svg xmlns="http://www.w3.org/2000/svg" xmlns:xlink="http://www.w3.org/1999/xlink" width="194px" height="36px" viewBox="0 0 1942 369" version="1.1">
<defs>
<path id="gl5643" d="M 66 9 C 62 10 54 15 48 19 C 15 37 8 60 8 158 C 8 229 13 255 30 272 C 36 278 54 288 62 292 C 70 295 91 293 105 291 C 142 284 155 269 164 227 C 170 194 170 192 142 193 C 118 193 119 192 118 214 C 117 245 108 257 90 255 C 71 252 62 244 59 223 C 55 206 55 97 58 83 C 62 58 70 50 93 48 C 107 45 116 56 117 81 C 118 97 120 99 146 99 C 168 99 169 96 164 71 C 158 37 143 19 116 13 C 89 7 78 6 66 9 z" fill="black"/><!-- width=177 height=307 -->
<path id="gl5899" d="M 30 7 C 29 8 24 9 20 10 C 7 13 9 -2 8 145 C 8 252 9 275 10 276 C 13 279 30 282 40 282 C 54 282 53 290 52 201 C 52 177 52 151 52 126 C 53 123 54 121 55 118 C 63 103 83 100 92 115 C 93 117 94 118 95 121 C 95 146 95 173 95 199 C 95 270 95 276 98 278 C 101 281 135 281 138 278 C 142 273 142 111 138 103 C 127 75 95 65 69 82 C 52 94 48 88 52 47 C 54 15 54 13 50 9 C 48 6 33 4 30 7 z" fill="black"/><!-- width=155 height=296 -->
<path id="gl5900" d="M 39 12 C 33 13 28 17 25 18 C 22 22 13 40 11 49 C 6 69 11 74 33 74 C 45 74 50 72 51 63 C 54 45 62 38 79 40 C 93 41 99 47 99 62 C 99 78 88 88 66 94 C 56 96 35 106 29 110 C 19 117 11 137 8 154 C 4 196 24 225 54 222 C 65 219 74 216 81 211 C 95 200 96 200 103 207 C 106 213 106 213 127 214 C 148 217 148 216 144 198 C 144 195 143 160 143 121 C 143 39 143 40 132 28 C 121 15 108 11 83 9 C 45 8 49 7 39 12 M 95 115 C 96 116 99 120 99 122 C 100 130 98 165 95 171 C 90 186 76 192 63 187 C 54 182 50 175 51 158 C 51 143 55 136 67 127 C 83 114 90 110 95 115 z" fill="black"/><!-- width=159 height=235 -->
<path id="gl17671" d="M 80 9 C 77 10 72 13 67 16 C 59 24 56 24 51 16 C 45 10 43 9 28 9 C 9 9 8 12 9 27 C 10 43 10 254 9 267 C 8 284 9 285 25 286 C 38 288 43 286 46 280 C 48 279 49 278 50 277 C 50 266 49 255 49 244 C 49 200 50 197 67 209 C 98 233 136 220 142 183 C 142 178 143 155 143 120 C 142 61 142 53 139 42 C 138 39 137 33 137 31 C 132 14 101 3 80 9 M 85 40 C 91 44 95 49 97 57 C 98 69 98 166 96 173 C 89 198 59 195 53 168 C 50 157 50 74 53 63 C 56 44 71 34 85 40 z" fill="black"/><!-- width=157 height=300 -->
<path id="gl4625" d="M 28 7 C 23 9 22 14 23 37 C 23 45 23 52 24 60 C 23 61 22 62 20 63 C 19 64 17 67 15 67 C 9 67 7 72 7 80 C 7 91 8 95 15 97 C 24 101 24 97 24 176 C 24 255 24 253 31 260 C 39 268 45 270 64 270 C 84 270 86 269 89 263 C 90 255 89 238 86 237 C 86 237 83 237 79 236 C 67 231 68 236 68 165 C 68 145 67 124 67 104 C 68 102 69 101 71 100 C 73 97 75 97 79 97 C 86 97 89 94 89 80 C 89 69 86 68 79 67 C 68 64 68 63 68 36 C 69 8 69 9 55 7 C 44 6 30 6 28 7 z" fill="black"/><!-- width=100 height=282 -->
<path id="gl17672" d="M 77 10 C 68 10 48 16 39 20 C 25 26 15 40 12 61 C 7 85 10 175 16 192 C 21 205 38 220 52 222 C 55 222 62 225 68 226 C 107 237 144 208 144 168 C 144 156 144 156 120 155 C 97 155 98 154 97 169 C 96 189 92 192 78 193 C 63 195 56 190 52 174 C 50 163 49 139 50 136 C 55 128 60 126 69 130 C 75 131 99 131 107 128 C 113 127 116 126 126 127 C 146 128 146 128 144 93 C 143 46 138 33 116 20 C 104 12 91 9 77 10 M 81 46 C 95 51 101 60 101 75 C 101 91 98 92 81 95 C 74 95 67 96 66 96 C 55 97 50 90 50 75 C 50 58 56 48 67 46 C 69 46 72 45 73 45 C 75 44 75 45 81 46 z" fill="black"/><!-- width=158 height=240 -->
<path id="gl4627" d="M 81 8 C 73 12 68 15 65 20 C 56 36 47 38 47 22 C 47 12 46 12 28 12 C 17 12 13 12 11 13 C 9 14 8 14 7 15 C 7 47 8 79 8 113 C 8 200 8 210 11 211 C 13 215 45 215 49 212 C 52 210 52 210 51 150 C 50 89 51 84 57 75 C 61 68 73 62 83 62 C 94 62 95 61 95 34 C 95 11 95 11 93 8 C 89 4 87 4 81 8 z" fill="black"/><!-- width=106 height=226 -->
<path id="gl25105" d="M 75 8 C 72 10 68 12 66 12 C 40 15 22 30 16 48 C 8 73 7 88 7 153 C 7 207 8 220 12 235 C 19 266 31 279 60 286 C 86 294 105 291 121 279 C 141 265 148 249 150 212 C 152 172 150 147 141 129 C 130 106 93 91 75 103 C 66 111 58 114 56 111 C 46 103 51 66 62 56 C 66 52 76 48 82 48 C 93 48 98 52 99 63 C 100 69 102 69 123 69 C 147 68 147 68 146 55 C 145 45 138 31 129 25 C 122 20 96 7 94 7 C 93 8 87 8 84 7 C 81 7 78 7 75 8 M 85 139 C 96 139 103 153 103 170 C 102 180 102 184 103 216 C 103 237 103 240 96 246 C 90 252 86 253 74 252 C 64 252 61 249 57 240 C 54 231 54 230 52 208 C 51 157 57 136 75 139 C 78 139 82 139 85 139 z" fill="black"/><!-- width=164 height=303 -->
</defs>
<use xlink:href="#gl5643" x="0" y="0"/>
<use xlink:href="#gl5899" x="271" y="5"/>
<use xlink:href="#gl5900" x="514" y="70"/>
<use xlink:href="#gl17671" x="767" y="69"/>
<use xlink:href="#gl4625" x="1002" y="17"/>
<use xlink:href="#gl17672" x="1183" y="64"/>
<use xlink:href="#gl4627" x="1437" y="70"/>
<use xlink:href="#gl25105" x="1778" y="1"/>
</svg>