<svg xmlns="http://www.w3.org/2000/svg" xmlns:xlink="http://www.w3.org/1999/xlink" width="890px" height="1157px" viewBox="0 0 8902 11573" version="1.1">
<defs>
<path id="gl16137" d="M 11 6 C 7 8 6 12 7 20 C 9 30 13 51 17 67 C 18 76 20 90 22 98 C 23 107 25 119 27 124 C 29 144 30 146 45 146 C 61 146 65 143 65 129 C 65 114 71 82 75 81 C 77 80 81 87 82 94 C 85 104 87 122 88 130 C 90 144 91 146 107 146 C 122 146 125 141 125 128 C 125 125 126 119 128 115 C 129 106 133 90 135 75 C 136 70 138 60 139 53 C 140 45 143 34 144 28 C 149 7 147 4 133 4 C 119 4 118 7 117 28 C 112 99 103 106 93 44 C 92 36 91 28 91 23 C 90 8 86 4 76 4 C 65 4 62 8 61 34 C 57 71 50 96 45 86 C 43 82 39 56 36 33 C 34 12 34 11 30 8 C 27 4 16 4 11 6 z" fill="black"/><!-- width=157 height=156 -->
<path id="gl39680" d="M 7 6 C 6 8 6 10 6 20 C 7 27 7 48 6 69 C 4 117 6 139 7 141 C 8 142 12 142 16 142 C 31 142 30 145 30 100 C 30 64 30 62 32 59 C 36 53 43 53 48 59 C 49 60 50 61 52 62 C 52 75 50 88 50 100 C 50 145 49 142 62 142 C 76 142 75 146 75 94 C 75 78 75 64 75 49 C 73 47 72 46 71 44 C 65 33 54 32 41 38 C 31 42 30 41 30 21 C 31 2 31 2 18 2 C 9 2 8 3 7 6 z" fill="black"/><!-- width=87 height=153 -->
<path id="gl15887" d="M 31 6 C 22 8 14 13 11 21 C 4 32 7 39 17 39 C 26 39 28 37 31 32 C 37 21 52 22 52 33 C 52 39 48 44 38 48 C 13 58 7 64 7 83 C 7 96 12 106 21 110 C 27 114 38 112 44 110 C 50 106 54 106 58 109 C 63 111 74 111 76 109 C 79 105 78 26 74 19 C 69 8 50 3 31 6 M 52 65 C 54 68 54 80 52 85 C 48 99 31 95 31 81 C 31 68 45 57 52 65 z" fill="black"/><!-- width=90 height=124 -->
<path id="gl38669" d="M 15 6 C 13 7 13 9 12 18 C 12 27 12 28 8 33 C 3 39 3 43 8 50 C 9 51 10 52 12 55 C 12 67 12 78 12 90 C 12 131 12 131 21 134 C 27 138 40 138 44 136 C 49 131 48 121 40 115 C 39 114 38 113 36 111 C 36 102 36 93 36 85 C 36 56 37 55 43 49 C 49 44 48 34 42 32 C 38 31 36 25 37 18 C 38 7 36 4 25 4 C 20 4 18 4 15 6 z" fill="black"/><!-- width=57 height=149 -->
<path id="gl39681" d="M 9 4 C 8 6 8 136 8 139 C 9 140 13 140 21 140 C 32 140 33 140 33 138 C 34 135 34 110 34 69 C 34 46 34 25 34 3 C 31 3 26 3 22 3 C 15 2 9 3 9 4 z" fill="black"/><!-- width=44 height=150 -->
<path id="gl16652" d="M 58 5 C 52 7 50 8 52 22 C 53 42 52 43 34 38 C 25 36 16 40 12 49 C 8 56 8 56 8 91 C 8 127 8 127 12 133 C 17 145 30 148 42 143 C 44 142 47 142 50 142 C 67 145 71 145 73 142 C 77 138 77 10 73 7 C 72 5 62 3 58 5 M 47 59 C 52 62 52 67 52 92 C 52 113 52 117 50 120 C 45 128 36 128 33 119 C 30 114 30 68 33 63 C 35 58 40 56 47 59 z" fill="black"/><!-- width=89 height=157 -->
<path id="gl15892" d="M 12 6 C 7 7 6 8 6 16 C 6 25 10 27 18 27 C 28 27 32 22 31 12 C 30 6 20 2 12 6 M 10 41 C 6 44 6 138 10 141 C 13 143 25 143 27 141 C 28 139 30 139 31 138 C 31 123 31 107 31 91 C 31 36 31 40 18 40 C 15 40 11 40 10 41 z" fill="black"/><!-- width=44 height=153 -->
<path id="gl16652" d="M 58 5 C 52 7 50 8 52 22 C 53 42 52 43 34 38 C 25 36 16 40 12 49 C 8 56 8 56 8 91 C 8 127 8 127 12 133 C 17 145 30 148 42 143 C 44 142 47 142 50 142 C 67 145 71 145 73 142 C 77 138 77 10 73 7 C 72 5 62 3 58 5 M 47 59 C 52 62 52 67 52 92 C 52 113 52 117 50 120 C 45 128 36 128 33 119 C 30 114 30 68 33 63 C 35 58 40 56 47 59 z" fill="black"/><!-- width=89 height=157 -->
<path id="gl15907" d="M 18 7 C 16 10 15 12 16 20 C 16 28 16 30 12 33 C 6 40 6 51 12 53 C 16 55 16 60 16 93 C 16 132 16 132 26 137 C 45 146 58 132 45 118 C 43 116 42 115 41 112 C 41 103 41 95 41 85 C 41 76 41 67 41 57 C 42 56 43 55 45 53 C 50 48 50 47 50 43 C 50 40 50 38 45 35 C 41 30 41 28 41 20 C 41 7 38 5 27 5 C 22 5 20 6 18 7 z" fill="black"/><!-- width=61 height=150 -->
<path id="gl16134" d="M 31 7 C 11 9 6 23 7 71 C 8 106 13 112 40 112 C 66 112 74 105 75 74 C 76 55 75 32 73 26 C 68 11 52 3 31 7 M 49 29 C 50 31 52 32 53 33 C 53 42 53 50 53 60 C 53 69 53 78 53 88 C 52 89 50 90 49 91 C 44 95 38 95 33 91 C 32 90 31 89 29 89 C 29 79 29 69 29 60 C 29 32 29 32 32 28 C 37 23 44 23 49 29 z" fill="black"/><!-- width=88 height=125 -->
<path id="gl16652" d="M 58 5 C 52 7 50 8 52 22 C 53 42 52 43 34 38 C 25 36 16 40 12 49 C 8 56 8 56 8 91 C 8 127 8 127 12 133 C 17 145 30 148 42 143 C 44 142 47 142 50 142 C 67 145 71 145 73 142 C 77 138 77 10 73 7 C 72 5 62 3 58 5 M 47 59 C 52 62 52 67 52 92 C 52 113 52 117 50 120 C 45 128 36 128 33 119 C 30 114 30 68 33 63 C 35 58 40 56 47 59 z" fill="black"/><!-- width=89 height=157 -->
<path id="gl15906" d="M 31 8 C 18 11 12 17 8 28 C 6 38 7 41 15 41 C 24 42 26 40 30 34 C 36 23 51 24 51 38 C 51 42 45 49 34 52 C 22 56 13 62 11 68 C 7 76 7 99 11 105 C 15 116 30 120 42 114 C 46 112 49 111 51 110 C 52 111 55 111 57 112 C 65 115 73 115 76 112 C 77 111 77 104 77 68 C 76 17 76 18 63 12 C 56 8 41 7 31 8 M 50 68 C 53 71 53 83 51 89 C 46 103 30 99 30 84 C 30 72 44 61 50 68 z" fill="black"/><!-- width=89 height=127 -->
<path id="gl32526" d="M 9 7 C 8 8 7 8 6 9 C 7 16 8 20 9 27 C 14 43 19 64 27 97 C 33 119 33 122 24 125 C 12 130 14 146 27 146 C 46 146 51 141 60 103 C 70 59 71 56 78 28 C 85 6 83 4 71 4 C 59 4 57 6 55 27 C 51 50 48 61 45 61 C 41 61 36 46 35 28 C 34 19 33 12 32 11 C 29 3 16 2 9 7 z" fill="black"/><!-- width=94 height=157 -->
<path id="gl16137" d="M 11 6 C 7 8 6 12 7 20 C 9 30 13 51 17 67 C 18 76 20 90 22 98 C 23 107 25 119 27 124 C 29 144 30 146 45 146 C 61 146 65 143 65 129 C 65 114 71 82 75 81 C 77 80 81 87 82 94 C 85 104 87 122 88 130 C 90 144 91 146 107 146 C 122 146 125 141 125 128 C 125 125 126 119 128 115 C 129 106 133 90 135 75 C 136 70 138 60 139 53 C 140 45 143 34 144 28 C 149 7 147 4 133 4 C 119 4 118 7 117 28 C 112 99 103 106 93 44 C 92 36 91 28 91 23 C 90 8 86 4 76 4 C 65 4 62 8 61 34 C 57 71 50 96 45 86 C 43 82 39 56 36 33 C 34 12 34 11 30 8 C 27 4 16 4 11 6 z" fill="black"/><!-- width=157 height=156 -->
<path id="gl16653" d="M 14 7 C 12 7 9 8 9 9 C 8 12 8 138 9 142 C 10 144 18 146 25 145 C 33 144 33 144 32 104 C 31 71 31 70 33 65 C 38 57 47 55 52 63 C 54 66 54 69 53 104 C 53 148 52 145 65 145 C 71 145 74 145 76 143 C 76 142 77 140 78 139 C 78 126 78 112 78 99 C 78 76 77 57 77 55 C 74 42 59 35 46 41 C 33 46 31 42 32 25 C 35 14 33 10 30 8 C 27 6 19 4 14 7 z" fill="black"/><!-- width=89 height=155 -->
<path id="gl15881" d="M 28 7 C 13 9 3 22 6 34 C 7 40 20 40 25 34 C 34 23 39 20 46 27 C 55 33 49 43 32 49 C 14 55 8 61 7 74 C 2 103 18 119 40 109 C 45 107 49 106 50 107 C 51 107 55 108 58 109 C 64 112 70 111 74 108 C 75 106 75 33 74 24 C 72 18 64 9 58 8 C 50 6 34 4 28 7 M 50 64 C 51 69 51 82 48 87 C 39 102 22 87 30 71 C 35 64 46 59 50 64 z" fill="black"/><!-- width=87 height=124 -->
<path id="gl15907" d="M 18 7 C 16 10 15 12 16 20 C 16 28 16 30 12 33 C 6 40 6 51 12 53 C 16 55 16 60 16 93 C 16 132 16 132 26 137 C 45 146 58 132 45 118 C 43 116 42 115 41 112 C 41 103 41 95 41 85 C 41 76 41 67 41 57 C 42 56 43 55 45 53 C 50 48 50 47 50 43 C 50 40 50 38 45 35 C 41 30 41 28 41 20 C 41 7 38 5 27 5 C 22 5 20 6 18 7 z" fill="black"/><!-- width=61 height=150 -->
<path id="gl15882" d="M 13 7 C 10 7 9 8 9 8 C 8 8 8 38 8 74 C 7 150 7 145 19 145 C 32 145 31 150 31 78 C 32 43 32 13 31 10 C 30 6 19 3 13 7 z" fill="black"/><!-- width=44 height=155 -->
<path id="gl39682" d="M 42 10 C 37 13 36 13 23 9 C 15 8 14 8 12 10 C 10 12 9 13 8 13 C 8 36 8 59 8 81 C 8 104 8 128 7 149 C 8 151 9 151 10 152 C 15 154 24 154 28 152 C 30 149 31 149 30 134 C 30 113 32 109 43 117 C 51 120 60 120 67 115 C 76 109 78 99 78 62 C 78 29 76 21 69 13 C 64 7 51 6 42 10 M 48 30 C 54 34 57 79 52 92 C 48 102 39 102 34 91 C 30 82 30 43 34 35 C 37 28 43 25 48 30 z" fill="black"/><!-- width=89 height=165 -->
<path id="gl15882" d="M 13 7 C 10 7 9 8 9 8 C 8 8 8 38 8 74 C 7 150 7 145 19 145 C 32 145 31 150 31 78 C 32 43 32 13 31 10 C 30 6 19 3 13 7 z" fill="black"/><!-- width=44 height=155 -->
<path id="gl15906" d="M 31 8 C 18 11 12 17 8 28 C 6 38 7 41 15 41 C 24 42 26 40 30 34 C 36 23 51 24 51 38 C 51 42 45 49 34 52 C 22 56 13 62 11 68 C 7 76 7 99 11 105 C 15 116 30 120 42 114 C 46 112 49 111 51 110 C 52 111 55 111 57 112 C 65 115 73 115 76 112 C 77 111 77 104 77 68 C 76 17 76 18 63 12 C 56 8 41 7 31 8 M 50 68 C 53 71 53 83 51 89 C 46 103 30 99 30 84 C 30 72 44 61 50 68 z" fill="black"/><!-- width=89 height=127 -->
<path id="gl15909" d="M 39 9 C 34 12 33 12 27 9 C 18 7 12 7 9 9 C 7 11 7 13 7 59 C 7 115 6 113 18 113 C 31 113 29 113 29 76 C 28 58 28 41 29 38 C 31 28 41 24 48 31 C 48 32 49 33 51 34 C 51 47 51 59 51 72 C 51 114 49 113 63 113 C 76 113 76 114 74 64 C 74 17 74 17 66 11 C 59 6 48 4 39 9 z" fill="black"/><!-- width=87 height=124 -->
<path id="gl16133" d="M 45 8 C 37 11 36 11 26 8 C 19 6 12 7 9 9 C 9 11 8 33 8 59 C 8 75 8 91 8 107 C 9 108 11 108 12 110 C 15 112 28 112 30 110 C 33 107 33 105 33 73 C 31 34 33 31 40 28 C 53 22 56 35 53 91 C 53 96 52 101 52 106 C 53 107 55 108 56 108 C 61 112 74 112 77 108 C 78 107 78 97 78 64 C 78 22 78 22 75 17 C 68 6 56 2 45 8 z" fill="black"/><!-- width=90 height=122 -->
<path id="gl15879" d="M 32 7 C 20 8 15 12 10 21 C 6 27 6 86 8 95 C 19 121 67 120 74 93 C 78 79 76 76 64 76 C 57 76 50 79 50 86 C 50 92 40 97 34 92 C 27 88 26 72 32 67 C 36 63 36 63 53 64 C 72 65 72 64 74 60 C 77 57 76 35 73 25 C 68 11 53 3 32 7 M 49 27 C 54 32 52 44 45 46 C 36 49 29 44 29 36 C 29 26 41 21 49 27 z" fill="black"/><!-- width=87 height=126 -->
<path id="gl39683" d="M 53 7 C 52 7 51 8 50 10 C 50 13 51 18 51 22 C 52 40 48 45 40 40 C 36 38 30 37 23 37 C 18 38 12 45 10 52 C 7 57 7 63 7 92 C 7 131 8 135 15 142 C 21 147 31 148 41 143 C 47 141 47 141 53 143 C 61 146 70 146 72 143 C 75 142 75 140 75 76 C 76 41 76 10 75 8 C 72 3 58 2 53 7 M 46 60 C 51 63 51 68 51 93 C 51 121 50 126 41 127 C 31 127 30 120 30 92 C 30 70 30 65 33 60 C 36 57 42 57 46 60 z" fill="black"/><!-- width=87 height=157 -->
<path id="gl16137" d="M 11 6 C 7 8 6 12 7 20 C 9 30 13 51 17 67 C 18 76 20 90 22 98 C 23 107 25 119 27 124 C 29 144 30 146 45 146 C 61 146 65 143 65 129 C 65 114 71 82 75 81 C 77 80 81 87 82 94 C 85 104 87 122 88 130 C 90 144 91 146 107 146 C 122 146 125 141 125 128 C 125 125 126 119 128 115 C 129 106 133 90 135 75 C 136 70 138 60 139 53 C 140 45 143 34 144 28 C 149 7 147 4 133 4 C 119 4 118 7 117 28 C 112 99 103 106 93 44 C 92 36 91 28 91 23 C 90 8 86 4 76 4 C 65 4 62 8 61 34 C 57 71 50 96 45 86 C 43 82 39 56 36 33 C 34 12 34 11 30 8 C 27 4 16 4 11 6 z" fill="black"/><!-- width=157 height=156 -->
<path id="gl16653" d="M 14 7 C 12 7 9 8 9 9 C 8 12 8 138 9 142 C 10 144 18 146 25 145 C 33 144 33 144 32 104 C 31 71 31 70 33 65 C 38 57 47 55 52 63 C 54 66 54 69 53 104 C 53 148 52 145 65 145 C 71 145 74 145 76 143 C 76 142 77 140 78 139 C 78 126 78 112 78 99 C 78 76 77 57 77 55 C 74 42 59 35 46 41 C 33 46 31 42 32 25 C 35 14 33 10 30 8 C 27 6 19 4 14 7 z" fill="black"/><!-- width=89 height=155 -->
<path id="gl15881" d="M 28 7 C 13 9 3 22 6 34 C 7 40 20 40 25 34 C 34 23 39 20 46 27 C 55 33 49 43 32 49 C 14 55 8 61 7 74 C 2 103 18 119 40 109 C 45 107 49 106 50 107 C 51 107 55 108 58 109 C 64 112 70 111 74 108 C 75 106 75 33 74 24 C 72 18 64 9 58 8 C 50 6 34 4 28 7 M 50 64 C 51 69 51 82 48 87 C 39 102 22 87 30 71 C 35 64 46 59 50 64 z" fill="black"/><!-- width=87 height=124 -->
<path id="gl15907" d="M 18 7 C 16 10 15 12 16 20 C 16 28 16 30 12 33 C 6 40 6 51 12 53 C 16 55 16 60 16 93 C 16 132 16 132 26 137 C 45 146 58 132 45 118 C 43 116 42 115 41 112 C 41 103 41 95 41 85 C 41 76 41 67 41 57 C 42 56 43 55 45 53 C 50 48 50 47 50 43 C 50 40 50 38 45 35 C 41 30 41 28 41 20 C 41 7 38 5 27 5 C 22 5 20 6 18 7 z" fill="black"/><!-- width=61 height=150 -->
<path id="gl15882" d="M 13 7 C 10 7 9 8 9 8 C 8 8 8 38 8 74 C 7 150 7 145 19 145 C 32 145 31 150 31 78 C 32 43 32 13 31 10 C 30 6 19 3 13 7 z" fill="black"/><!-- width=44 height=155 -->
<path id="gl16648" d="M 10 5 C 7 8 7 13 9 23 C 10 28 11 37 13 43 C 14 47 16 61 17 69 C 20 79 22 91 22 95 C 25 107 27 110 39 110 C 51 110 53 106 53 98 C 53 87 59 71 63 73 C 67 74 70 83 70 93 C 71 106 73 106 77 109 C 88 113 103 107 103 99 C 103 97 104 86 106 75 C 109 64 111 51 112 46 C 113 40 115 32 116 27 C 121 9 119 4 107 4 C 95 4 94 7 94 23 C 94 37 89 57 86 57 C 81 57 77 45 75 22 C 74 8 71 5 64 4 C 55 3 50 8 50 20 C 50 34 45 57 41 57 C 38 57 34 45 33 23 C 32 7 31 4 20 4 C 15 4 11 4 10 5 z" fill="black"/><!-- width=130 height=122 -->
<path id="gl15906" d="M 31 8 C 18 11 12 17 8 28 C 6 38 7 41 15 41 C 24 42 26 40 30 34 C 36 23 51 24 51 38 C 51 42 45 49 34 52 C 22 56 13 62 11 68 C 7 76 7 99 11 105 C 15 116 30 120 42 114 C 46 112 49 111 51 110 C 52 111 55 111 57 112 C 65 115 73 115 76 112 C 77 111 77 104 77 68 C 76 17 76 18 63 12 C 56 8 41 7 31 8 M 50 68 C 53 71 53 83 51 89 C 46 103 30 99 30 84 C 30 72 44 61 50 68 z" fill="black"/><!-- width=89 height=127 -->
<path id="gl16133" d="M 45 8 C 37 11 36 11 26 8 C 19 6 12 7 9 9 C 9 11 8 33 8 59 C 8 75 8 91 8 107 C 9 108 11 108 12 110 C 15 112 28 112 30 110 C 33 107 33 105 33 73 C 31 34 33 31 40 28 C 53 22 56 35 53 91 C 53 96 52 101 52 106 C 53 107 55 108 56 108 C 61 112 74 112 77 108 C 78 107 78 97 78 64 C 78 22 78 22 75 17 C 68 6 56 2 45 8 z" fill="black"/><!-- width=90 height=122 -->
<path id="gl16130" d="M 19 6 C 15 8 14 9 15 19 C 15 22 15 25 15 28 C 14 30 13 32 10 33 C 4 39 4 45 12 52 C 13 54 14 56 16 57 C 16 69 15 80 15 92 C 15 131 15 131 25 136 C 31 139 44 139 48 136 C 51 131 50 124 45 119 C 39 113 39 111 39 83 C 39 74 39 65 39 56 C 42 55 43 54 45 51 C 49 49 51 48 52 48 C 58 49 58 38 52 37 C 50 37 46 36 44 33 C 43 32 42 31 39 30 C 39 26 39 24 39 20 C 39 10 39 9 38 7 C 34 4 22 3 19 6 z" fill="black"/><!-- width=65 height=149 -->
<path id="gl15889" d="M 30 7 C 13 13 9 20 9 53 C 8 97 14 110 39 112 C 61 116 77 105 79 86 C 80 79 78 75 70 75 C 62 74 57 77 55 84 C 51 99 35 97 33 81 C 30 67 35 63 53 64 C 74 64 74 64 78 62 C 81 58 80 30 75 20 C 69 7 48 1 30 7 M 52 28 C 58 34 56 44 48 45 C 40 48 33 44 33 36 C 33 25 45 20 52 28 z" fill="black"/><!-- width=91 height=124 -->
<path id="gl39683" d="M 53 7 C 52 7 51 8 50 10 C 50 13 51 18 51 22 C 52 40 48 45 40 40 C 36 38 30 37 23 37 C 18 38 12 45 10 52 C 7 57 7 63 7 92 C 7 131 8 135 15 142 C 21 147 31 148 41 143 C 47 141 47 141 53 143 C 61 146 70 146 72 143 C 75 142 75 140 75 76 C 76 41 76 10 75 8 C 72 3 58 2 53 7 M 46 60 C 51 63 51 68 51 93 C 51 121 50 126 41 127 C 31 127 30 120 30 92 C 30 70 30 65 33 60 C 36 57 42 57 46 60 z" fill="black"/><!-- width=87 height=157 -->
<path id="gl15907" d="M 18 7 C 16 10 15 12 16 20 C 16 28 16 30 12 33 C 6 40 6 51 12 53 C 16 55 16 60 16 93 C 16 132 16 132 26 137 C 45 146 58 132 45 118 C 43 116 42 115 41 112 C 41 103 41 95 41 85 C 41 76 41 67 41 57 C 42 56 43 55 45 53 C 50 48 50 47 50 43 C 50 40 50 38 45 35 C 41 30 41 28 41 20 C 41 7 38 5 27 5 C 22 5 20 6 18 7 z" fill="black"/><!-- width=61 height=150 -->
<path id="gl15908" d="M 29 9 C 12 14 8 23 8 66 C 8 110 13 117 42 117 C 62 117 70 112 75 97 C 80 84 79 36 74 25 C 68 11 48 3 29 9 M 46 29 C 53 31 55 34 55 63 C 55 92 53 96 46 99 C 41 100 34 97 31 92 C 30 90 30 67 31 39 C 31 35 36 29 40 28 C 41 28 42 28 42 28 C 42 28 45 28 46 29 z" fill="black"/><!-- width=90 height=129 -->
<path id="gl16652" d="M 58 5 C 52 7 50 8 52 22 C 53 42 52 43 34 38 C 25 36 16 40 12 49 C 8 56 8 56 8 91 C 8 127 8 127 12 133 C 17 145 30 148 42 143 C 44 142 47 142 50 142 C 67 145 71 145 73 142 C 77 138 77 10 73 7 C 72 5 62 3 58 5 M 47 59 C 52 62 52 67 52 92 C 52 113 52 117 50 120 C 45 128 36 128 33 119 C 30 114 30 68 33 63 C 35 58 40 56 47 59 z" fill="black"/><!-- width=89 height=157 -->
<path id="gl16134" d="M 31 7 C 11 9 6 23 7 71 C 8 106 13 112 40 112 C 66 112 74 105 75 74 C 76 55 75 32 73 26 C 68 11 52 3 31 7 M 49 29 C 50 31 52 32 53 33 C 53 42 53 50 53 60 C 53 69 53 78 53 88 C 52 89 50 90 49 91 C 44 95 38 95 33 91 C 32 90 31 89 29 89 C 29 79 29 69 29 60 C 29 32 29 32 32 28 C 37 23 44 23 49 29 z" fill="black"/><!-- width=88 height=125 -->
<path id="gl38673" d="M 6 7 C 2 8 3 29 7 29 C 9 29 14 33 14 37 C 14 39 12 42 9 46 C 3 51 3 51 4 54 C 7 59 17 54 22 46 C 26 41 26 39 26 26 C 27 4 27 4 17 4 C 12 4 7 6 6 7 z" fill="black"/><!-- width=38 height=66 -->
<path id="gl32522" d="M 9 8 C 6 11 7 138 9 142 C 12 144 13 144 37 143 C 74 143 80 139 88 116 C 89 112 90 109 91 105 C 91 94 91 83 91 72 C 91 26 89 18 72 11 C 69 9 67 8 64 6 C 56 6 47 6 37 6 C 18 6 11 7 9 8 M 57 29 C 63 34 64 39 66 57 C 68 94 64 115 55 121 C 46 125 33 122 31 117 C 31 106 31 34 33 31 C 35 25 49 24 57 29 z" fill="black"/><!-- width=105 height=155 -->
<path id="gl15906" d="M 31 8 C 18 11 12 17 8 28 C 6 38 7 41 15 41 C 24 42 26 40 30 34 C 36 23 51 24 51 38 C 51 42 45 49 34 52 C 22 56 13 62 11 68 C 7 76 7 99 11 105 C 15 116 30 120 42 114 C 46 112 49 111 51 110 C 52 111 55 111 57 112 C 65 115 73 115 76 112 C 77 111 77 104 77 68 C 76 17 76 18 63 12 C 56 8 41 7 31 8 M 50 68 C 53 71 53 83 51 89 C 46 103 30 99 30 84 C 30 72 44 61 50 68 z" fill="black"/><!-- width=89 height=127 -->
<path id="gl15907" d="M 18 7 C 16 10 15 12 16 20 C 16 28 16 30 12 33 C 6 40 6 51 12 53 C 16 55 16 60 16 93 C 16 132 16 132 26 137 C 45 146 58 132 45 118 C 43 116 42 115 41 112 C 41 103 41 95 41 85 C 41 76 41 67 41 57 C 42 56 43 55 45 53 C 50 48 50 47 50 43 C 50 40 50 38 45 35 C 41 30 41 28 41 20 C 41 7 38 5 27 5 C 22 5 20 6 18 7 z" fill="black"/><!-- width=61 height=150 -->
<path id="gl16651" d="M 26 9 C 9 17 8 19 8 59 C 8 70 8 81 8 93 C 9 95 11 98 12 100 C 17 111 27 116 43 116 C 60 116 70 110 75 98 C 80 84 76 76 64 78 C 57 79 54 80 53 88 C 48 104 31 98 29 79 C 29 69 34 65 45 65 C 73 68 76 67 76 53 C 76 29 72 17 62 11 C 53 7 33 7 26 9 M 50 31 C 52 32 52 36 52 39 C 52 52 31 52 31 38 C 31 27 44 22 50 31 z" fill="black"/><!-- width=90 height=129 -->
<path id="gl39684" d="M 9 9 C 6 14 7 27 12 31 C 15 33 29 33 31 30 C 33 27 35 12 32 8 C 29 4 12 6 9 9 M 10 87 C 6 91 7 106 10 110 C 15 112 29 112 31 110 C 35 105 35 90 31 87 C 26 82 15 82 10 87 z" fill="black"/><!-- width=43 height=121 -->
<path id="gl15907" d="M 18 7 C 16 10 15 12 16 20 C 16 28 16 30 12 33 C 6 40 6 51 12 53 C 16 55 16 60 16 93 C 16 132 16 132 26 137 C 45 146 58 132 45 118 C 43 116 42 115 41 112 C 41 103 41 95 41 85 C 41 76 41 67 41 57 C 42 56 43 55 45 53 C 50 48 50 47 50 43 C 50 40 50 38 45 35 C 41 30 41 28 41 20 C 41 7 38 5 27 5 C 22 5 20 6 18 7 z" fill="black"/><!-- width=61 height=150 -->
<path id="gl15908" d="M 29 9 C 12 14 8 23 8 66 C 8 110 13 117 42 117 C 62 117 70 112 75 97 C 80 84 79 36 74 25 C 68 11 48 3 29 9 M 46 29 C 53 31 55 34 55 63 C 55 92 53 96 46 99 C 41 100 34 97 31 92 C 30 90 30 67 31 39 C 31 35 36 29 40 28 C 41 28 42 28 42 28 C 42 28 45 28 46 29 z" fill="black"/><!-- width=90 height=129 -->
<path id="gl16652" d="M 58 5 C 52 7 50 8 52 22 C 53 42 52 43 34 38 C 25 36 16 40 12 49 C 8 56 8 56 8 91 C 8 127 8 127 12 133 C 17 145 30 148 42 143 C 44 142 47 142 50 142 C 67 145 71 145 73 142 C 77 138 77 10 73 7 C 72 5 62 3 58 5 M 47 59 C 52 62 52 67 52 92 C 52 113 52 117 50 120 C 45 128 36 128 33 119 C 30 114 30 68 33 63 C 35 58 40 56 47 59 z" fill="black"/><!-- width=89 height=157 -->
<path id="gl15902" d="M 34 6 C 18 9 12 17 9 36 C 8 51 9 86 12 93 C 15 106 25 111 43 111 C 70 111 77 104 79 75 C 82 41 78 19 68 12 C 61 6 45 3 34 6 M 49 25 C 55 28 55 29 55 60 C 55 68 55 78 55 87 C 55 88 54 89 52 90 C 47 95 40 95 35 89 C 34 88 33 87 31 86 C 31 77 31 68 31 60 C 31 33 33 29 39 25 C 44 23 44 23 49 25 z" fill="black"/><!-- width=92 height=124 -->
<path id="gl38680" d="M 11 6 C 6 7 6 26 11 29 C 19 33 19 38 13 45 C 7 50 7 51 9 53 C 13 57 24 52 28 44 C 30 39 31 12 29 8 C 28 6 15 4 11 6 z" fill="black"/><!-- width=45 height=66 -->
<path id="gl39685" d="M 14 5 C 7 7 7 3 7 76 C 7 149 7 145 15 146 C 17 146 21 146 23 145 C 31 143 34 143 41 145 C 53 151 66 146 72 133 C 75 130 75 124 75 101 C 76 60 73 47 63 41 C 57 38 46 38 41 41 C 33 47 29 41 31 26 C 32 11 31 9 26 7 C 21 5 20 4 14 5 M 47 62 C 48 63 50 64 51 64 C 51 72 51 82 51 90 C 52 116 51 122 47 126 C 42 130 38 128 33 124 C 32 124 31 121 29 120 C 29 112 29 103 29 94 C 29 85 29 76 29 68 C 32 65 33 64 34 63 C 38 58 42 57 47 62 z" fill="black"/><!-- width=87 height=161 -->
<path id="gl39686" d="M 14 7 C 6 9 4 10 6 20 C 6 25 7 44 7 63 C 7 84 7 102 7 103 C 10 116 28 122 39 114 C 44 110 45 110 55 112 C 64 116 69 116 73 111 C 73 110 73 92 73 72 C 73 50 73 28 73 22 C 75 9 72 6 58 7 C 48 8 48 10 49 30 C 50 57 50 86 48 90 C 44 96 39 97 34 94 C 28 92 27 87 28 46 C 28 4 30 4 14 7 z" fill="black"/><!-- width=87 height=130 -->
<path id="gl15907" d="M 18 7 C 16 10 15 12 16 20 C 16 28 16 30 12 33 C 6 40 6 51 12 53 C 16 55 16 60 16 93 C 16 132 16 132 26 137 C 45 146 58 132 45 118 C 43 116 42 115 41 112 C 41 103 41 95 41 85 C 41 76 41 67 41 57 C 42 56 43 55 45 53 C 50 48 50 47 50 43 C 50 40 50 38 45 35 C 41 30 41 28 41 20 C 41 7 38 5 27 5 C 22 5 20 6 18 7 z" fill="black"/><!-- width=61 height=150 -->
<path id="gl16652" d="M 58 5 C 52 7 50 8 52 22 C 53 42 52 43 34 38 C 25 36 16 40 12 49 C 8 56 8 56 8 91 C 8 127 8 127 12 133 C 17 145 30 148 42 143 C 44 142 47 142 50 142 C 67 145 71 145 73 142 C 77 138 77 10 73 7 C 72 5 62 3 58 5 M 47 59 C 52 62 52 67 52 92 C 52 113 52 117 50 120 C 45 128 36 128 33 119 C 30 114 30 68 33 63 C 35 58 40 56 47 59 z" fill="black"/><!-- width=89 height=157 -->
<path id="gl15892" d="M 12 6 C 7 7 6 8 6 16 C 6 25 10 27 18 27 C 28 27 32 22 31 12 C 30 6 20 2 12 6 M 10 41 C 6 44 6 138 10 141 C 13 143 25 143 27 141 C 28 139 30 139 31 138 C 31 123 31 107 31 91 C 31 36 31 40 18 40 C 15 40 11 40 10 41 z" fill="black"/><!-- width=44 height=153 -->
<path id="gl16652" d="M 58 5 C 52 7 50 8 52 22 C 53 42 52 43 34 38 C 25 36 16 40 12 49 C 8 56 8 56 8 91 C 8 127 8 127 12 133 C 17 145 30 148 42 143 C 44 142 47 142 50 142 C 67 145 71 145 73 142 C 77 138 77 10 73 7 C 72 5 62 3 58 5 M 47 59 C 52 62 52 67 52 92 C 52 113 52 117 50 120 C 45 128 36 128 33 119 C 30 114 30 68 33 63 C 35 58 40 56 47 59 z" fill="black"/><!-- width=89 height=157 -->
<path id="gl15909" d="M 39 9 C 34 12 33 12 27 9 C 18 7 12 7 9 9 C 7 11 7 13 7 59 C 7 115 6 113 18 113 C 31 113 29 113 29 76 C 28 58 28 41 29 38 C 31 28 41 24 48 31 C 48 32 49 33 51 34 C 51 47 51 59 51 72 C 51 114 49 113 63 113 C 76 113 76 114 74 64 C 74 17 74 17 66 11 C 59 6 48 4 39 9 z" fill="black"/><!-- width=87 height=124 -->
<path id="gl15908" d="M 29 9 C 12 14 8 23 8 66 C 8 110 13 117 42 117 C 62 117 70 112 75 97 C 80 84 79 36 74 25 C 68 11 48 3 29 9 M 46 29 C 53 31 55 34 55 63 C 55 92 53 96 46 99 C 41 100 34 97 31 92 C 30 90 30 67 31 39 C 31 35 36 29 40 28 C 41 28 42 28 42 28 C 42 28 45 28 46 29 z" fill="black"/><!-- width=90 height=129 -->
<path id="gl15907" d="M 18 7 C 16 10 15 12 16 20 C 16 28 16 30 12 33 C 6 40 6 51 12 53 C 16 55 16 60 16 93 C 16 132 16 132 26 137 C 45 146 58 132 45 118 C 43 116 42 115 41 112 C 41 103 41 95 41 85 C 41 76 41 67 41 57 C 42 56 43 55 45 53 C 50 48 50 47 50 43 C 50 40 50 38 45 35 C 41 30 41 28 41 20 C 41 7 38 5 27 5 C 22 5 20 6 18 7 z" fill="black"/><!-- width=61 height=150 -->
<path id="gl16652" d="M 58 5 C 52 7 50 8 52 22 C 53 42 52 43 34 38 C 25 36 16 40 12 49 C 8 56 8 56 8 91 C 8 127 8 127 12 133 C 17 145 30 148 42 143 C 44 142 47 142 50 142 C 67 145 71 145 73 142 C 77 138 77 10 73 7 C 72 5 62 3 58 5 M 47 59 C 52 62 52 67 52 92 C 52 113 52 117 50 120 C 45 128 36 128 33 119 C 30 114 30 68 33 63 C 35 58 40 56 47 59 z" fill="black"/><!-- width=89 height=157 -->
<path id="gl39687" d="M 33 8 C 21 9 14 13 9 24 C 6 33 6 95 9 105 C 16 116 26 121 46 120 C 64 120 72 114 77 99 C 80 89 79 36 75 27 C 69 11 57 4 33 8 M 51 31 C 54 34 54 31 54 63 C 54 93 54 97 48 99 C 42 102 38 102 33 98 C 32 97 31 95 31 94 C 31 84 31 74 31 64 C 31 46 31 36 32 33 C 36 26 46 24 51 31 z" fill="black"/><!-- width=90 height=134 -->
<path id="gl39685" d="M 14 5 C 7 7 7 3 7 76 C 7 149 7 145 15 146 C 17 146 21 146 23 145 C 31 143 34 143 41 145 C 53 151 66 146 72 133 C 75 130 75 124 75 101 C 76 60 73 47 63 41 C 57 38 46 38 41 41 C 33 47 29 41 31 26 C 32 11 31 9 26 7 C 21 5 20 4 14 5 M 47 62 C 48 63 50 64 51 64 C 51 72 51 82 51 90 C 52 116 51 122 47 126 C 42 130 38 128 33 124 C 32 124 31 121 29 120 C 29 112 29 103 29 94 C 29 85 29 76 29 68 C 32 65 33 64 34 63 C 38 58 42 57 47 62 z" fill="black"/><!-- width=87 height=161 -->
<path id="gl34059" d="M 11 8 C 10 9 10 9 9 10 C 9 23 9 37 9 51 C 9 73 10 93 10 95 C 13 109 27 115 44 107 C 46 106 49 105 50 104 C 52 105 55 106 56 106 C 64 110 71 110 75 107 C 75 106 76 105 77 105 C 77 89 77 73 77 57 C 77 41 77 26 77 10 C 76 9 75 8 75 8 C 70 4 59 3 55 7 C 55 8 53 9 52 9 C 52 20 52 29 52 40 C 53 57 53 71 53 73 C 56 80 49 91 43 91 C 33 91 32 87 33 45 C 34 5 34 5 22 5 C 15 4 14 4 11 8 z" fill="black"/><!-- width=91 height=124 -->
<path id="gl15907" d="M 18 7 C 16 10 15 12 16 20 C 16 28 16 30 12 33 C 6 40 6 51 12 53 C 16 55 16 60 16 93 C 16 132 16 132 26 137 C 45 146 58 132 45 118 C 43 116 42 115 41 112 C 41 103 41 95 41 85 C 41 76 41 67 41 57 C 42 56 43 55 45 53 C 50 48 50 47 50 43 C 50 40 50 38 45 35 C 41 30 41 28 41 20 C 41 7 38 5 27 5 C 22 5 20 6 18 7 z" fill="black"/><!-- width=61 height=150 -->
<path id="gl16652" d="M 58 5 C 52 7 50 8 52 22 C 53 42 52 43 34 38 C 25 36 16 40 12 49 C 8 56 8 56 8 91 C 8 127 8 127 12 133 C 17 145 30 148 42 143 C 44 142 47 142 50 142 C 67 145 71 145 73 142 C 77 138 77 10 73 7 C 72 5 62 3 58 5 M 47 59 C 52 62 52 67 52 92 C 52 113 52 117 50 120 C 45 128 36 128 33 119 C 30 114 30 68 33 63 C 35 58 40 56 47 59 z" fill="black"/><!-- width=89 height=157 -->
<path id="gl31755" d="M 12 8 C 8 12 8 21 10 26 C 14 30 29 30 32 25 C 37 20 37 12 32 8 C 27 3 15 3 12 8 M 12 42 C 9 43 9 47 9 92 C 9 147 8 144 21 144 C 35 144 33 146 33 92 C 33 76 33 60 33 44 C 33 43 32 43 31 42 C 27 40 15 40 12 42 z" fill="black"/><!-- width=47 height=153 -->
<path id="gl16652" d="M 58 5 C 52 7 50 8 52 22 C 53 42 52 43 34 38 C 25 36 16 40 12 49 C 8 56 8 56 8 91 C 8 127 8 127 12 133 C 17 145 30 148 42 143 C 44 142 47 142 50 142 C 67 145 71 145 73 142 C 77 138 77 10 73 7 C 72 5 62 3 58 5 M 47 59 C 52 62 52 67 52 92 C 52 113 52 117 50 120 C 45 128 36 128 33 119 C 30 114 30 68 33 63 C 35 58 40 56 47 59 z" fill="black"/><!-- width=89 height=157 -->
<path id="gl16133" d="M 45 8 C 37 11 36 11 26 8 C 19 6 12 7 9 9 C 9 11 8 33 8 59 C 8 75 8 91 8 107 C 9 108 11 108 12 110 C 15 112 28 112 30 110 C 33 107 33 105 33 73 C 31 34 33 31 40 28 C 53 22 56 35 53 91 C 53 96 52 101 52 106 C 53 107 55 108 56 108 C 61 112 74 112 77 108 C 78 107 78 97 78 64 C 78 22 78 22 75 17 C 68 6 56 2 45 8 z" fill="black"/><!-- width=90 height=122 -->
<path id="gl15902" d="M 34 6 C 18 9 12 17 9 36 C 8 51 9 86 12 93 C 15 106 25 111 43 111 C 70 111 77 104 79 75 C 82 41 78 19 68 12 C 61 6 45 3 34 6 M 49 25 C 55 28 55 29 55 60 C 55 68 55 78 55 87 C 55 88 54 89 52 90 C 47 95 40 95 35 89 C 34 88 33 87 31 86 C 31 77 31 68 31 60 C 31 33 33 29 39 25 C 44 23 44 23 49 25 z" fill="black"/><!-- width=92 height=124 -->
<path id="gl15907" d="M 18 7 C 16 10 15 12 16 20 C 16 28 16 30 12 33 C 6 40 6 51 12 53 C 16 55 16 60 16 93 C 16 132 16 132 26 137 C 45 146 58 132 45 118 C 43 116 42 115 41 112 C 41 103 41 95 41 85 C 41 76 41 67 41 57 C 42 56 43 55 45 53 C 50 48 50 47 50 43 C 50 40 50 38 45 35 C 41 30 41 28 41 20 C 41 7 38 5 27 5 C 22 5 20 6 18 7 z" fill="black"/><!-- width=61 height=150 -->
<path id="gl39680" d="M 7 6 C 6 8 6 10 6 20 C 7 27 7 48 6 69 C 4 117 6 139 7 141 C 8 142 12 142 16 142 C 31 142 30 145 30 100 C 30 64 30 62 32 59 C 36 53 43 53 48 59 C 49 60 50 61 52 62 C 52 75 50 88 50 100 C 50 145 49 142 62 142 C 76 142 75 146 75 94 C 75 78 75 64 75 49 C 73 47 72 46 71 44 C 65 33 54 32 41 38 C 31 42 30 41 30 21 C 31 2 31 2 18 2 C 9 2 8 3 7 6 z" fill="black"/><!-- width=87 height=153 -->
<path id="gl15887" d="M 31 6 C 22 8 14 13 11 21 C 4 32 7 39 17 39 C 26 39 28 37 31 32 C 37 21 52 22 52 33 C 52 39 48 44 38 48 C 13 58 7 64 7 83 C 7 96 12 106 21 110 C 27 114 38 112 44 110 C 50 106 54 106 58 109 C 63 111 74 111 76 109 C 79 105 78 26 74 19 C 69 8 50 3 31 6 M 52 65 C 54 68 54 80 52 85 C 48 99 31 95 31 81 C 31 68 45 57 52 65 z" fill="black"/><!-- width=90 height=124 -->
<path id="gl15884" d="M 11 6 C 6 7 6 12 11 32 C 17 57 24 88 26 98 C 28 109 31 110 44 110 C 58 110 60 109 62 98 C 65 83 77 37 79 26 C 84 8 83 4 70 4 C 58 4 57 7 54 26 C 51 70 39 72 34 27 C 34 19 33 11 33 9 C 31 6 19 3 11 6 z" fill="black"/><!-- width=94 height=120 -->
<path id="gl15885" d="M 30 6 C 11 12 8 18 8 56 C 8 96 11 101 24 108 C 40 117 64 112 71 100 C 81 85 79 75 67 75 C 59 74 55 76 54 82 C 48 100 30 95 30 76 C 30 64 35 61 58 63 C 79 64 79 64 77 44 C 76 23 72 13 61 8 C 55 6 38 4 30 6 M 50 28 C 54 32 54 38 51 43 C 48 46 37 46 33 43 C 24 32 42 17 50 28 z" fill="black"/><!-- width=90 height=123 -->
<path id="gl15907" d="M 18 7 C 16 10 15 12 16 20 C 16 28 16 30 12 33 C 6 40 6 51 12 53 C 16 55 16 60 16 93 C 16 132 16 132 26 137 C 45 146 58 132 45 118 C 43 116 42 115 41 112 C 41 103 41 95 41 85 C 41 76 41 67 41 57 C 42 56 43 55 45 53 C 50 48 50 47 50 43 C 50 40 50 38 45 35 C 41 30 41 28 41 20 C 41 7 38 5 27 5 C 22 5 20 6 18 7 z" fill="black"/><!-- width=61 height=150 -->
<path id="gl15892" d="M 12 6 C 7 7 6 8 6 16 C 6 25 10 27 18 27 C 28 27 32 22 31 12 C 30 6 20 2 12 6 M 10 41 C 6 44 6 138 10 141 C 13 143 25 143 27 141 C 28 139 30 139 31 138 C 31 123 31 107 31 91 C 31 36 31 40 18 40 C 15 40 11 40 10 41 z" fill="black"/><!-- width=44 height=153 -->
<path id="gl31756" d="M 45 9 C 39 11 36 12 30 9 C 22 8 14 8 12 11 C 11 12 9 19 9 61 C 9 77 9 94 9 110 C 11 110 12 111 13 112 C 14 113 17 114 22 114 C 35 114 34 114 34 72 C 33 40 33 36 35 33 C 39 25 47 24 53 30 C 55 31 56 33 57 34 C 57 46 56 58 56 70 C 56 84 56 96 55 108 C 56 110 57 111 58 111 C 63 116 74 114 78 111 C 79 110 80 108 80 108 C 80 101 80 92 80 85 C 80 73 79 58 79 51 C 78 33 83 24 94 26 C 102 28 103 30 102 72 C 102 84 101 96 101 108 C 102 110 103 111 105 111 C 110 116 122 114 124 111 C 129 106 128 24 124 18 C 117 6 101 2 88 9 C 79 14 78 14 69 11 C 62 6 53 6 45 9 z" fill="black"/><!-- width=139 height=125 -->
<path id="gl15911" d="M 28 11 C 11 16 8 23 8 57 C 7 104 12 114 37 119 C 60 123 77 112 78 92 C 80 82 77 80 67 80 C 59 80 54 82 54 88 C 54 96 45 102 39 98 C 30 95 28 77 34 71 C 35 70 37 69 38 67 C 44 67 50 69 56 69 C 82 70 82 69 78 40 C 77 23 75 19 65 13 C 57 7 39 6 28 11 M 48 28 C 60 33 56 51 43 51 C 29 51 27 33 39 28 C 44 25 43 25 48 28 z" fill="black"/><!-- width=92 height=133 -->
<path id="gl39688" d="M 31 5 C 21 8 16 15 16 26 C 16 32 14 37 10 41 C 7 46 7 53 10 58 C 16 65 16 65 15 103 C 15 115 15 127 15 139 C 15 139 16 141 17 142 C 21 146 32 146 37 142 C 38 141 39 141 40 139 C 40 126 40 114 40 102 C 40 89 39 77 39 65 C 41 63 43 62 45 59 C 52 53 52 47 47 43 C 40 38 40 35 40 33 C 40 31 41 28 45 25 C 50 20 51 19 51 14 C 51 5 45 3 31 5 z" fill="black"/><!-- width=62 height=155 -->
<path id="gl15908" d="M 29 9 C 12 14 8 23 8 66 C 8 110 13 117 42 117 C 62 117 70 112 75 97 C 80 84 79 36 74 25 C 68 11 48 3 29 9 M 46 29 C 53 31 55 34 55 63 C 55 92 53 96 46 99 C 41 100 34 97 31 92 C 30 90 30 67 31 39 C 31 35 36 29 40 28 C 41 28 42 28 42 28 C 42 28 45 28 46 29 z" fill="black"/><!-- width=90 height=129 -->
<path id="gl15880" d="M 10 7 C 10 7 8 8 7 8 C 7 25 7 41 7 57 C 7 113 6 110 18 110 C 31 110 31 110 30 73 C 30 62 30 52 30 42 C 31 41 32 40 34 39 C 36 35 39 35 44 34 C 52 32 55 30 55 18 C 55 15 54 8 54 7 C 51 5 45 5 41 7 C 34 15 32 15 27 10 C 22 6 15 5 10 7 z" fill="black"/><!-- width=66 height=122 -->
<path id="gl39689" d="M 8684 1 C 8683 1 8458 1 8183 2 C 7818 2 7684 3 7682 3 C 7679 6 7673 6 7671 4 C 7670 2 7644 2 7643 4 C 7641 4 7637 4 7627 4 C 7619 4 7593 3 7571 4 C 7466 4 7441 4 7432 3 C 7428 3 7424 3 7422 4 C 7420 6 7327 6 7019 6 C 6156 7 6003 7 5990 8 C 5977 10 5708 9 5674 8 C 5663 7 5654 8 5648 8 C 5641 9 5637 9 5632 8 C 5626 7 5624 7 5620 9 C 5615 10 5587 12 5249 12 C 4849 12 4772 12 4760 13 C 4749 15 4643 15 4641 13 C 4640 12 4632 12 4631 13 C 4629 15 4508 15 4507 13 C 4506 12 4237 12 4226 13 C 4222 14 4082 15 3876 15 C 3085 16 2959 18 2958 19 C 2956 19 2869 20 2733 20 C 2039 20 1349 21 1301 24 C 1279 24 1167 25 1052 25 C 647 26 447 27 432 28 C 428 28 423 28 422 28 C 419 27 415 27 411 28 C 408 30 405 30 403 27 C 401 26 399 26 397 27 C 395 30 357 30 356 27 C 355 26 313 26 182 26 C 124 26 67 26 10 26 C 8 27 7 28 6 30 C 0 33 0 39 6 42 C 9 42 661 42 869 40 C 927 40 977 40 982 40 C 987 40 994 39 998 38 C 1002 38 1005 38 1010 39 C 1014 40 1017 40 1019 39 C 1022 37 1035 37 1038 39 C 1043 40 1170 40 1192 38 C 1205 37 1209 37 1210 38 C 1213 40 1363 40 1370 38 C 1376 36 1385 36 1393 38 C 1397 40 1399 40 1407 38 C 1413 37 1418 36 1420 37 C 1423 38 1427 38 1431 38 C 1441 37 1676 37 1932 36 C 2106 36 2176 34 2177 34 C 2178 32 2471 32 2472 34 C 2474 34 2474 34 2475 34 C 2476 32 2486 32 2487 33 C 2488 36 2513 36 2513 33 C 2513 32 2601 32 2602 33 C 2603 36 2613 36 2613 33 C 2613 32 2620 32 2621 33 C 2622 36 2637 36 2638 34 C 2638 33 2821 32 3092 32 C 3832 31 3953 31 3954 28 C 3956 28 3958 27 3963 28 C 3987 31 4005 31 4007 30 C 4008 27 4095 27 4096 28 C 4097 31 4107 31 4108 28 C 4108 27 4485 27 5320 26 C 5565 26 5642 26 5661 24 C 5675 24 5690 22 5692 22 C 5693 22 5711 22 5732 22 C 5752 24 5768 24 5768 25 C 5769 26 5779 26 5780 25 C 5780 24 5828 22 5922 22 C 5998 22 6089 22 6121 22 C 6155 22 6325 21 6501 21 C 6676 21 6848 21 6882 20 C 6983 19 7117 18 7118 20 C 7119 21 7129 21 7130 19 C 7131 18 7145 19 7151 20 C 7154 20 7156 20 7157 20 C 7160 18 7178 19 7239 20 C 7275 21 7478 20 7493 20 C 7509 18 7862 18 8342 16 C 8542 16 8695 16 8716 15 C 8736 15 8782 14 8820 14 C 8893 13 8892 13 8889 7 C 8887 0 8888 0 8782 1 C 8728 1 8684 1 8684 1 z" fill="black"/><!-- width=8897 height=48 -->
<path id="gl39690" d="M 656 1 C 655 1 521 2 356 2 C 127 2 57 2 56 3 C 55 4 48 6 31 6 C 3 6 1 6 1 12 C 1 15 2 16 4 18 C 10 20 959 16 962 15 C 963 13 1049 13 1050 15 C 1052 16 1061 16 1062 15 C 1064 13 1097 13 1098 15 C 1100 16 1104 16 1106 15 C 1107 13 1121 13 1122 15 C 1124 16 1128 16 1130 15 C 1131 13 1179 13 1179 15 C 1179 15 1181 16 1184 16 C 1186 16 1188 15 1188 15 C 1188 14 1190 13 1192 13 C 1201 13 1203 12 1203 7 C 1203 3 1203 2 1201 1 C 1199 0 660 0 656 1 z" fill="black"/><!-- width=1210 height=24 -->
<path id="gl39691" d="M 8612 1 C 8612 1 8411 1 8166 2 C 7754 2 7651 2 7622 4 C 7615 4 7610 4 7609 4 C 7607 2 7581 2 7479 4 C 7455 4 7443 4 7442 4 C 7441 2 7422 2 7420 4 C 7420 4 7408 6 7388 6 C 7342 6 7342 6 7341 3 C 7340 3 7339 3 7336 4 C 7334 6 7191 6 6779 6 C 6187 6 5996 7 5994 9 C 5992 10 5973 10 5972 9 C 5971 7 5966 7 5965 9 C 5964 10 5954 10 5953 9 C 5952 7 5942 7 5941 9 C 5940 10 5882 10 5881 8 C 5880 7 5878 8 5866 9 C 5864 9 5862 9 5862 9 C 5860 7 5851 7 5850 9 C 5848 10 5838 10 5836 9 C 5835 7 5806 7 5802 9 C 5798 10 5797 10 5794 9 C 5792 8 5790 8 5780 8 C 5770 9 5767 9 5763 9 C 5761 8 5757 8 5753 8 C 5747 9 5719 9 5683 8 C 5657 7 5654 8 5651 9 C 5648 12 5627 10 5626 8 C 5625 7 5611 7 5609 9 C 5608 10 5539 12 5530 10 C 5527 9 5523 9 5522 10 C 5519 10 5360 12 5164 12 C 4969 12 4800 12 4787 13 C 4751 14 4619 15 4617 13 C 4616 12 4611 12 4610 13 C 4609 15 4537 15 4536 14 C 4534 12 4256 12 4222 14 C 4213 14 4183 14 4155 14 C 4091 14 3445 15 3141 16 C 3002 16 2907 18 2905 18 C 2896 20 2586 20 2585 18 C 2584 16 2579 16 2578 18 C 2577 19 2475 20 2248 20 C 1887 20 1753 21 1752 24 C 1751 25 1745 25 1743 22 C 1742 21 1734 21 1712 21 C 1697 21 1657 21 1624 21 C 1491 21 1315 22 1310 24 C 1299 26 1289 26 1283 24 C 1279 22 1276 22 1276 24 C 1274 25 1268 26 883 26 C 620 26 552 26 551 27 C 550 30 208 30 207 28 C 206 26 196 26 195 28 C 195 28 190 30 181 28 C 164 27 151 27 145 28 C 142 28 141 28 140 28 C 139 26 110 26 109 28 C 108 30 93 30 92 28 C 91 26 72 26 70 27 C 70 28 55 30 37 30 C 2 30 2 30 2 37 C 2 43 1 43 98 42 C 168 42 189 43 190 43 C 192 44 193 45 195 44 C 198 43 294 42 526 42 C 706 42 853 40 855 40 C 855 40 880 39 910 39 C 942 39 966 39 966 38 C 968 37 977 37 978 39 C 980 39 981 39 981 39 C 982 37 1044 37 1046 39 C 1048 40 1084 40 1086 38 C 1088 37 1107 37 1108 38 C 1109 40 1124 40 1125 38 C 1126 38 1131 38 1139 38 C 1169 39 1194 40 1196 38 C 1197 37 1208 37 1209 39 C 1210 40 1400 39 1405 38 C 1407 37 1514 37 1757 36 C 1948 36 2119 36 2138 34 C 2188 33 2371 32 2371 33 C 2371 36 2377 36 2379 33 C 2380 32 2510 32 2511 33 C 2512 36 2520 36 2522 33 C 2523 32 2567 32 2568 33 C 2570 36 2583 36 2584 33 C 2585 32 2591 32 2592 33 C 2594 36 2641 36 2642 33 C 2644 32 2653 32 2834 32 C 2925 32 3033 32 3074 32 C 3132 32 3149 32 3149 33 C 3151 36 3156 36 3157 33 C 3159 32 3169 31 3553 31 C 3822 31 3923 30 3924 30 C 3926 27 3975 27 3976 30 C 3977 31 4006 31 4007 30 C 4008 27 4105 27 4106 30 C 4107 31 4112 31 4113 30 C 4114 28 4184 28 4273 27 C 4432 26 4502 26 4824 26 C 5015 26 5134 26 5135 24 C 5136 22 5147 22 5148 25 C 5149 26 5154 26 5155 25 C 5157 22 5200 22 5201 25 C 5202 26 5207 26 5208 25 C 5209 22 5219 22 5220 25 C 5221 26 5231 26 5232 25 C 5233 22 5257 22 5259 25 C 5260 26 5265 26 5266 25 C 5267 22 5286 22 5288 25 C 5290 27 5639 26 5645 24 C 5649 22 5651 22 5659 22 C 5663 24 5668 24 5668 24 C 5669 24 5764 22 5880 22 C 5995 22 6090 22 6090 22 C 6091 22 6139 22 6197 22 C 6256 22 6337 21 6379 21 C 6422 21 6469 21 6484 21 C 6534 21 6893 21 6917 20 C 6969 19 7203 18 7204 20 C 7206 21 7215 21 7216 20 C 7218 18 7266 18 7267 20 C 7268 21 7471 21 7475 19 C 7476 19 7902 18 8515 16 C 8697 16 8751 16 8752 15 C 8754 14 8769 13 8820 13 C 8892 13 8891 14 8889 7 C 8889 0 8895 0 8748 1 C 8673 1 8612 1 8612 1 z" fill="black"/><!-- width=8897 height=52 -->
<path id="gl39692" d="M 8569 4 C 8542 6 8503 6 8456 6 C 8449 4 8359 6 8259 6 C 8114 6 7478 8 7473 8 C 7473 8 7444 8 7411 8 C 7377 8 7341 8 7330 8 C 7316 7 7311 8 7309 9 C 7304 12 7298 12 7292 9 C 7286 7 7232 7 7201 9 C 7190 9 6992 10 6746 10 C 6147 12 5756 13 5649 13 C 5599 13 5551 14 5541 14 C 5530 13 5520 14 5516 14 C 5511 15 5400 16 5130 16 C 4814 16 4750 16 4747 19 C 4743 19 4741 20 4740 19 C 4738 18 4736 18 4734 19 C 4728 20 4668 20 4665 18 C 4664 18 4660 16 4652 18 C 4640 19 4592 19 4570 18 C 4539 16 4420 16 4320 18 C 4153 19 4137 19 3718 20 C 3009 21 2923 21 2919 22 C 2917 24 2866 25 2746 25 C 2068 25 1318 26 1306 28 C 1297 30 1228 30 806 31 C 630 31 566 31 547 33 C 542 34 538 33 537 33 C 536 32 528 32 513 32 C 456 33 349 34 346 33 C 345 31 21 31 19 32 C 19 33 14 34 10 34 C 2 34 2 36 2 40 C 2 44 2 45 4 46 C 7 46 40 48 93 48 C 150 48 181 48 186 49 C 192 49 196 49 202 49 C 212 48 260 46 1113 45 C 1388 44 1438 44 1455 43 C 1461 42 1591 42 1786 42 C 1964 42 2116 40 2127 40 C 2138 40 2160 39 2174 39 C 2190 39 2203 39 2204 38 C 2205 37 2306 38 2313 39 C 2316 39 2317 39 2318 39 C 2319 37 2331 37 2332 39 C 2335 40 2360 40 2362 39 C 2364 38 2367 37 2374 38 C 2379 38 2385 39 2386 39 C 2410 37 2418 37 2419 39 C 2421 40 2552 40 2554 38 C 2556 37 2560 37 2562 38 C 2563 40 2622 40 2689 39 C 2751 38 3142 36 3148 37 C 3151 38 3158 38 3163 37 C 3169 37 3345 36 3556 36 C 3910 36 3992 34 4075 33 C 4095 33 4106 33 4107 34 C 4108 36 4118 36 4119 34 C 4119 33 4160 32 4242 32 C 4309 32 4501 32 4668 32 C 4836 32 5121 31 5301 31 C 5491 31 5644 30 5661 30 C 5694 27 6062 27 6067 28 C 6068 28 6079 28 6091 28 C 6105 27 6231 26 6518 26 C 6802 26 6931 25 6945 25 C 6964 24 7208 24 7276 25 C 7282 25 7293 25 7300 25 C 7308 25 7324 25 7339 25 C 7352 25 7377 24 7394 24 C 7412 24 7429 24 7432 24 C 7440 24 7407 24 7730 22 C 7911 22 8005 22 8007 22 C 8010 24 8012 24 8013 22 C 8014 22 8167 21 8350 21 C 8540 21 8689 20 8696 19 C 8702 19 8745 18 8792 18 C 8844 18 8877 18 8880 18 C 8883 15 8884 8 8881 7 C 8881 6 8822 6 8751 4 C 8682 4 8618 3 8611 3 C 8604 3 8584 3 8569 4 z" fill="black"/><!-- width=8890 height=58 -->
<path id="gl39693" d="M 8427 3 C 8384 4 8319 4 8274 3 C 8257 3 8247 3 8246 4 C 8245 4 8241 6 8236 4 C 8226 3 7914 3 7885 4 C 7870 4 7740 6 7592 6 C 7320 6 7128 7 7110 8 C 7098 9 7096 9 7058 8 C 7005 6 6608 7 6591 8 C 6579 9 6289 9 6160 8 C 6140 8 6114 8 6103 9 C 6082 10 6062 10 6052 9 C 6049 9 5980 9 5900 10 C 5821 10 5646 12 5514 12 C 5367 12 5270 13 5268 13 C 5265 14 5212 14 5134 14 C 5065 14 5005 14 5001 14 C 4999 14 4994 14 4990 14 C 4988 14 4982 14 4976 14 C 4963 14 4958 14 4953 13 C 4951 13 4947 13 4945 13 C 4942 14 4758 15 4342 15 C 4012 15 3741 16 3741 16 C 3740 16 3700 18 3652 18 C 3600 18 3566 18 3566 18 C 3565 20 3555 20 3550 19 C 3548 18 3546 18 3546 19 C 3544 20 3535 20 3534 18 C 3532 16 3528 16 3526 18 C 3525 20 3448 20 3447 18 C 3447 18 3436 18 3417 18 C 3384 19 3354 19 3342 19 C 3338 18 3301 19 3260 19 C 3151 20 3102 20 2775 20 C 2612 21 2449 21 2415 22 C 2314 24 2091 25 2089 22 C 2086 21 2001 21 1994 24 C 1990 24 1986 24 1983 24 C 1971 22 1888 21 1862 22 C 1827 25 1686 25 1371 25 C 1225 26 1119 26 1105 27 C 1090 27 1075 28 1068 28 C 1046 27 952 27 892 28 C 859 28 658 30 446 30 C 19 30 12 30 6 34 C 1 37 1 39 3 43 C 4 45 7 45 16 45 C 30 46 344 45 368 44 C 410 43 525 42 526 43 C 528 44 601 45 674 44 C 679 44 716 44 759 44 C 813 45 840 44 843 43 C 848 42 855 42 871 43 C 884 44 895 44 901 44 C 907 43 1009 42 1140 42 C 1266 42 1472 40 1599 40 C 1726 39 1857 39 1892 39 C 1946 40 1956 39 1964 38 C 1976 36 2097 36 2101 39 C 2103 40 2104 40 2109 39 C 2116 37 2419 36 2940 36 C 3158 36 3260 34 3290 34 C 3325 33 3637 33 3660 34 C 3662 34 3668 33 3672 33 C 3675 32 3788 32 4034 31 C 4231 31 4429 31 4473 30 C 4588 28 4839 27 4842 28 C 4843 30 4856 30 4876 30 C 4894 30 4912 30 4916 30 C 4977 30 5052 30 5080 30 C 5114 28 5253 27 5989 26 C 6192 26 6358 25 6360 25 C 6362 22 6784 22 7504 21 C 7890 21 8043 21 8080 19 C 8090 18 8101 18 8103 18 C 8108 18 8342 18 8674 18 C 8742 18 8809 18 8876 18 C 8877 16 8877 15 8880 14 C 8883 9 8883 8 8880 6 C 8878 6 8877 4 8876 3 C 8875 2 8491 1 8427 3 z" fill="black"/><!-- width=8889 height=52 -->
<path id="gl39694" d="M 8518 1 C 8517 1 8354 2 8155 2 C 7807 2 7731 3 7651 4 C 7627 4 7615 4 7614 4 C 7612 3 7598 3 7538 4 C 7531 4 7375 6 7192 6 C 6603 7 6554 7 6552 9 C 6550 9 6547 10 6538 9 C 6525 8 6519 8 6505 9 C 6499 9 6495 9 6494 9 C 6493 8 6489 7 6486 7 C 6459 7 6451 8 6450 9 C 6447 10 6444 10 6405 8 C 6386 7 6122 7 6046 8 C 6013 9 5844 10 5671 10 C 5498 10 5317 12 5268 13 C 5218 13 5179 13 5179 13 C 5176 12 5065 12 5062 14 C 5060 15 5056 15 5047 14 C 5031 12 4872 12 4870 14 C 4869 14 4852 14 4824 13 C 4815 13 4807 13 4803 13 C 4798 14 4656 15 4330 15 C 3916 15 3724 16 3604 18 C 3544 19 3542 19 3535 18 C 3531 16 3528 18 3526 18 C 3525 20 3487 20 3486 18 C 3486 18 3483 18 3481 19 C 3476 20 3457 20 3456 19 C 3454 16 3399 16 3398 18 C 3397 20 3314 20 3313 19 C 3313 18 3297 18 3296 19 C 3295 20 3284 20 3283 18 C 3282 16 3276 16 3266 18 C 3255 20 3147 21 2810 21 C 2631 21 2457 21 2421 22 C 2366 24 2226 24 2214 24 C 2211 24 2182 24 2151 24 C 2113 24 2095 24 2094 22 C 2092 21 2040 21 2031 24 C 2028 24 2024 24 2023 24 C 2019 22 1881 22 1856 24 C 1844 24 1734 25 1611 25 C 1489 25 1323 26 1244 26 C 1141 26 1100 27 1099 27 C 1098 28 1090 28 1076 28 C 1032 27 985 27 874 28 C 812 30 602 30 408 30 C 66 30 9 31 8 32 C 7 33 6 34 4 34 C 1 37 1 38 4 43 C 7 44 8 45 8 46 C 55 46 100 46 146 46 C 220 45 283 45 284 45 C 284 45 313 45 348 45 C 382 45 428 44 448 43 C 476 43 487 43 488 43 C 489 45 494 45 495 43 C 496 43 498 43 500 43 C 512 45 780 46 871 44 C 936 43 1206 42 1413 42 C 1542 40 1657 40 1671 40 C 1686 40 1762 39 1844 39 C 1924 39 1994 38 1999 38 C 2014 37 2032 37 2124 37 C 2227 38 2715 37 2716 36 C 2716 36 2728 36 2742 36 C 2971 36 3292 36 3307 34 C 3326 32 3618 32 3674 33 C 3688 33 3706 33 3711 32 C 3717 32 3878 31 4123 31 C 4380 31 4532 30 4542 30 C 4551 28 4738 27 5059 27 C 5995 26 6105 26 6138 24 C 6142 24 6280 22 6446 22 C 6807 22 6963 21 6964 20 C 6966 18 7087 18 7088 20 C 7089 21 7078 21 7303 21 C 7426 21 7498 20 7508 20 C 7518 19 7576 18 7665 18 C 8294 18 8707 16 8739 15 C 8746 15 8781 14 8817 14 C 8872 13 8882 13 8882 12 C 8884 9 8883 4 8881 2 C 8881 1 8522 0 8518 1 z" fill="black"/><!-- width=8890 height=54 -->
<path id="gl39936" d="M 8483 4 C 8464 4 8446 6 8445 6 C 8445 6 8440 6 8437 6 C 8426 4 7817 6 7693 7 C 7634 7 7545 8 7496 7 C 7447 7 7392 7 7372 7 C 7353 7 7308 8 7270 8 C 7233 8 7192 8 7179 8 C 7166 9 6956 10 6677 10 C 5809 12 5593 12 5521 14 C 5502 14 5483 15 5480 14 C 5476 14 5471 14 5469 14 C 5466 15 5328 15 5161 15 C 4978 15 4838 16 4810 18 C 4733 19 4668 20 4663 18 C 4661 18 4659 18 4658 18 C 4657 20 4608 20 4607 18 C 4605 16 4598 16 4556 16 C 4543 16 4534 18 4533 19 C 4532 20 4526 20 4497 18 C 4478 16 4225 16 4216 18 C 4205 20 4139 20 4137 18 C 4135 16 4133 16 4131 18 C 4129 19 4100 20 3243 21 C 3091 21 2974 22 2965 24 C 2956 24 2753 25 2445 25 C 1928 25 1778 26 1776 28 C 1773 30 1678 30 1677 27 C 1676 26 1671 26 1670 27 C 1669 30 1654 30 1653 27 C 1652 26 1628 26 1628 27 C 1628 30 1568 30 1567 27 C 1564 26 1462 26 1460 28 C 1459 28 1456 28 1454 28 C 1452 28 1444 27 1438 27 C 1420 27 1418 27 1377 27 C 1345 27 1336 27 1331 28 C 1324 30 1282 30 994 31 C 799 31 649 31 625 32 C 568 33 172 34 169 32 C 166 32 160 31 147 32 C 138 32 102 33 67 33 C 33 34 6 34 6 34 C 6 34 4 36 3 37 C -1 43 2 48 15 48 C 19 48 22 48 25 49 C 26 50 27 50 30 49 C 32 46 36 46 37 48 C 38 49 38 49 39 48 C 40 48 43 48 46 48 C 54 49 80 49 140 49 C 163 49 193 49 206 49 C 220 48 249 48 272 48 C 311 48 576 46 1187 45 C 1363 45 1444 44 1448 43 C 1452 43 1558 42 1795 42 C 1996 42 2153 40 2172 39 C 2213 38 2251 38 2256 39 C 2257 40 2261 39 2262 39 C 2263 38 2269 38 2283 38 C 2337 40 2344 40 2345 39 C 2346 37 2414 37 2415 39 C 2416 39 2417 39 2417 39 C 2418 37 2453 37 2454 38 C 2456 40 2684 40 2705 38 C 2714 38 2919 37 3180 37 C 3809 36 4013 36 4034 34 C 4058 32 4129 32 4130 34 C 4131 36 4136 36 4137 33 C 4138 33 4262 32 4550 32 C 5006 31 5170 31 5173 28 C 5176 27 5190 27 5191 30 C 5194 31 5214 31 5217 30 C 5218 27 5224 27 5225 28 C 5226 31 5250 31 5251 28 C 5253 27 5277 27 5278 28 C 5279 31 5289 31 5290 28 C 5291 27 5301 27 5302 28 C 5303 31 5639 31 5654 28 C 5659 28 5665 27 5667 27 C 5675 28 5680 28 6036 27 C 6410 27 6546 26 6547 24 C 6549 22 6559 22 6561 25 C 6563 26 6912 26 6946 24 C 6974 22 7306 22 7314 25 C 7317 25 7318 25 7321 25 C 7322 24 7332 24 7354 24 C 7395 25 7390 25 7457 24 C 7523 24 7802 22 8193 21 C 8733 20 8882 19 8887 18 C 8891 15 8892 8 8887 7 C 8886 6 8870 4 8846 4 C 8818 4 8805 4 8805 3 C 8805 3 8803 3 8799 3 C 8794 4 8740 4 8595 3 C 8553 3 8504 3 8483 4 z" fill="black"/><!-- width=8897 height=57 -->
<path id="gl39937" d="M 8543 4 C 8535 6 8509 6 8474 6 C 8457 4 8334 6 8201 6 C 8068 6 7820 7 7650 7 C 7481 8 7310 8 7269 8 C 7222 8 7196 8 7195 8 C 7193 9 7012 10 6682 10 C 6222 12 6017 12 5955 14 C 5942 14 5935 14 5934 13 C 5932 13 5932 13 5931 14 C 5930 15 5868 15 5866 14 C 5865 12 5846 12 5845 14 C 5844 15 5805 15 5804 13 C 5803 13 5798 12 5791 13 C 5776 14 5726 14 5689 13 C 5668 12 5656 13 5641 14 C 5629 15 5617 15 5614 15 C 5611 14 5541 14 5540 15 C 5539 15 5380 15 5185 15 C 4946 16 4823 16 4799 18 C 4773 19 4598 19 4530 19 C 4527 19 4519 19 4510 19 C 4410 18 4255 18 4228 18 C 4209 19 4061 20 3879 20 C 3705 20 3467 21 3351 21 C 3236 21 3109 21 3069 22 C 3031 22 2998 22 2997 24 C 2996 24 2478 25 2042 26 C 1942 26 1843 26 1825 27 C 1807 27 1781 28 1767 28 C 1754 28 1730 28 1716 28 C 1700 27 1663 28 1633 28 C 1590 28 1578 28 1576 27 C 1574 26 1456 26 1429 28 C 1408 30 1394 30 1375 28 C 1367 28 1360 28 1357 28 C 1352 30 1348 30 1346 28 C 1342 27 1335 27 1324 28 C 1316 28 1144 30 943 31 C 742 31 571 32 564 32 C 554 33 295 33 135 32 C 109 32 69 33 46 33 C 33 33 20 34 6 34 C 6 36 4 37 3 37 C 0 42 1 45 8 46 C 10 48 12 48 13 49 C 13 50 159 50 163 48 C 164 48 168 48 171 48 C 181 49 253 49 285 48 C 301 48 514 46 760 46 C 1345 45 1472 45 1496 43 C 1503 42 1509 42 1510 42 C 1510 42 1522 43 1537 42 C 1554 42 1564 43 1564 44 C 1566 45 1579 45 1580 44 C 1581 43 2622 39 2717 40 C 2722 40 2731 39 2737 39 C 2752 37 3114 37 3116 38 C 3117 40 3133 39 3146 38 C 3151 38 3153 38 3155 38 C 3156 39 3162 39 3175 39 C 3186 39 3199 38 3204 38 C 3218 38 3550 37 3834 36 C 3998 36 4065 34 4071 33 C 4077 33 4079 33 4082 34 C 4083 34 4087 34 4089 34 C 4095 33 4133 32 4135 34 C 4136 36 4144 36 4145 34 C 4147 32 4167 32 4168 34 C 4169 36 4174 36 4175 33 C 4177 32 4208 33 4220 34 C 4223 34 4227 34 4228 34 C 4231 33 4244 32 4287 33 C 4352 34 4369 34 4426 33 C 4479 32 5027 31 5338 31 C 5464 31 5595 31 5632 30 C 5710 28 5734 28 5739 30 C 5740 31 5744 30 5745 28 C 5747 28 5750 27 5756 28 C 5760 28 5764 28 5766 28 C 5768 28 5890 28 5904 28 C 5905 28 5941 28 5982 28 C 6024 28 6061 28 6065 28 C 6068 30 6074 30 6078 28 C 6086 27 6237 27 6625 26 C 6850 26 6946 25 6954 25 C 6964 24 7012 24 7129 24 C 7329 25 7332 25 7341 25 C 7346 25 7354 25 7360 25 C 7389 25 7407 24 7420 24 C 7432 22 7437 22 7442 24 C 7446 25 7452 25 7475 25 C 7503 24 7585 22 8331 21 C 8530 21 8706 20 8719 20 C 8732 20 8775 19 8815 19 C 8854 18 8887 18 8888 16 C 8889 16 8891 14 8891 12 C 8891 9 8889 7 8888 7 C 8887 6 8834 6 8768 4 C 8609 3 8613 3 8593 4 C 8584 4 8570 4 8564 3 C 8557 3 8547 3 8543 4 z" fill="black"/><!-- width=8897 height=57 -->
<path id="gl39938" d="M 8433 3 C 8394 4 8384 4 8091 3 C 7965 3 7910 3 7894 4 C 7877 6 7788 6 7550 7 C 7374 7 7210 7 7187 8 C 7135 9 7054 9 7048 8 C 7046 8 7043 8 7042 9 C 7041 9 7036 10 7024 9 C 7016 9 7006 8 7003 8 C 6971 9 6927 9 6923 8 C 6917 7 6645 7 6639 8 C 6637 9 6569 9 6486 9 C 6342 9 6090 10 5648 12 C 5494 12 5440 13 5438 14 C 5435 15 5432 15 5427 14 C 5423 13 5415 13 5403 13 C 5385 13 5372 14 5345 13 C 5338 13 5330 13 5326 13 C 5324 13 5319 13 5316 13 C 5315 13 5308 13 5303 14 C 5298 14 5093 14 4848 15 C 4294 16 4190 16 4187 18 C 4183 20 4159 20 4154 18 C 4150 15 4131 15 4118 19 C 4113 20 4111 20 4107 19 C 4103 18 4099 18 4089 18 C 4060 19 3994 20 3993 18 C 3990 16 3729 16 3707 19 C 3700 19 3558 20 3351 20 C 3153 20 3007 21 3003 21 C 3000 22 2992 22 2986 22 C 2980 21 2961 21 2944 22 C 2878 24 2849 25 2847 22 C 2845 22 2842 21 2840 22 C 2831 24 2775 25 2773 22 C 2770 21 2459 21 2429 22 C 2410 22 1909 25 1567 26 C 1358 26 1273 27 1269 28 C 1263 30 1210 30 1205 27 C 1202 26 1201 26 1197 27 C 1194 28 1193 28 1191 27 C 1190 27 1186 27 1182 27 C 1174 28 727 30 341 31 C 20 31 16 31 10 33 C 8 34 4 37 4 37 C 2 39 7 45 10 46 C 21 46 841 45 885 44 C 916 44 943 43 947 43 C 949 43 953 43 954 43 C 983 42 1217 43 1220 44 C 1222 44 1225 45 1228 44 C 1231 44 1239 43 1245 43 C 1268 44 1305 43 1325 43 C 1336 43 1347 43 1351 43 C 1354 43 1369 43 1384 43 C 1458 42 1530 42 1830 40 C 2063 40 2155 40 2156 39 C 2159 38 2325 38 2752 37 C 3440 36 3781 36 3790 34 C 3796 33 3799 33 3826 34 C 3840 34 3848 34 3850 33 C 3852 33 3956 32 4202 32 C 4432 32 4561 31 4581 30 C 4623 28 4671 28 4677 30 C 4686 32 5135 31 5142 30 C 5147 27 5535 27 5557 30 C 5567 30 5573 30 5579 28 C 5591 27 5655 27 6025 26 C 6277 26 6401 26 6430 24 C 6433 24 6682 22 6980 22 C 7532 21 8039 20 8056 20 C 8061 20 8076 20 8089 19 C 8117 18 8752 16 8828 16 C 8874 18 8878 18 8881 15 C 8882 14 8883 13 8885 13 C 8888 13 8893 10 8892 8 C 8891 7 8889 6 8886 3 C 8881 1 8880 1 8676 2 C 8563 2 8453 2 8433 3 z" fill="black"/><!-- width=8899 height=52 -->
<path id="gl39939" d="M 8685 1 C 8685 1 8496 2 8266 2 C 7888 2 7849 2 7843 4 C 7838 6 7836 6 7828 4 C 7822 3 7812 2 7753 3 C 7639 4 7509 4 7206 6 C 7046 6 6841 7 6748 7 C 6657 7 6572 8 6561 7 C 6548 7 6541 8 6541 8 C 6540 10 6535 10 6534 8 C 6532 8 6529 7 6524 8 C 6500 10 6498 10 6495 8 C 6493 8 6490 7 6486 8 C 6470 9 6424 10 6422 8 C 6417 7 6133 7 6032 9 C 6019 9 5856 10 5670 10 C 5474 10 5314 12 5288 13 C 5227 14 5138 15 5137 14 C 5136 12 5068 12 5067 14 C 5066 14 5059 15 5043 14 C 5022 13 4946 13 4928 13 C 4923 14 4914 13 4906 13 C 4899 13 4893 13 4892 13 C 4888 14 4818 14 4353 15 C 3501 16 3277 18 3218 19 C 3196 19 2827 20 2502 21 C 2382 21 2348 21 2347 22 C 2346 25 2335 25 2334 22 C 2332 21 2310 21 2308 24 C 2307 24 2304 24 2299 24 C 2280 21 2275 21 2274 22 C 2272 25 2258 25 2257 22 C 2254 21 1932 21 1831 24 C 1824 24 1702 24 1562 25 C 1422 25 1221 26 1118 26 C 1015 27 862 27 780 27 C 697 27 627 27 624 28 C 621 28 615 27 610 27 C 604 27 601 27 598 27 C 597 28 501 30 300 30 C 98 30 3 31 2 31 C 0 33 1 42 2 44 C 4 46 13 46 171 45 C 274 45 346 44 357 44 C 369 43 416 43 502 43 C 573 43 636 43 642 43 C 655 43 672 43 730 44 C 754 44 793 44 816 43 C 837 43 860 42 864 43 C 878 43 886 43 1072 42 C 1173 42 1362 40 1490 40 C 1728 39 1771 39 1903 38 C 1942 38 2090 37 2230 37 C 2371 37 2566 36 2665 36 C 2764 36 2856 36 2868 36 C 3022 36 3205 36 3260 34 C 3403 32 3627 32 3642 33 C 3645 34 3664 34 3684 33 C 3703 33 3870 32 4053 32 C 4237 32 4425 31 4472 30 C 4586 28 4947 27 4948 30 C 4950 31 4957 31 4958 30 C 4959 27 5008 27 5012 30 C 5013 30 5022 30 5040 30 C 5056 28 5185 27 5384 27 C 5558 27 5791 26 5901 26 C 6013 26 6120 25 6140 25 C 6159 25 6182 25 6190 24 C 6208 22 6214 22 6228 24 C 6241 26 6259 26 6272 24 C 6286 22 6297 22 6301 24 C 6303 25 6304 25 6307 24 C 6308 24 6315 22 6327 22 C 6338 24 6492 22 6669 22 C 6847 22 7108 21 7250 21 C 7425 21 7515 20 7534 20 C 7562 18 7752 19 7804 20 C 7821 21 7831 20 7837 19 C 7843 18 7845 18 7846 19 C 7850 21 7923 20 7933 18 C 7940 16 7941 16 7947 19 C 7956 21 8011 21 8018 19 C 8020 18 8120 16 8346 16 C 8662 16 8772 16 8775 15 C 8776 14 8800 14 8827 14 C 8871 13 8877 13 8878 10 C 8880 8 8878 3 8875 1 C 8871 0 8691 0 8685 1 z" fill="black"/><!-- width=8886 height=54 -->
<path id="gl39940" d="M 8683 1 C 8682 1 8492 2 8263 2 C 7845 2 7749 3 7656 4 C 7617 6 7605 4 7603 4 C 7602 3 7598 2 7594 3 C 7591 3 7561 4 7526 4 C 7491 4 7431 6 7390 6 C 7351 6 7180 7 7012 7 C 6846 7 6680 7 6646 8 C 6561 9 6368 10 6366 9 C 6366 8 6355 8 6343 8 C 6306 9 6231 9 6202 8 C 6178 7 6175 8 6168 9 C 6160 10 6158 12 6141 10 C 6129 9 6120 9 6116 9 C 6112 10 6001 10 5869 10 C 5737 10 5580 12 5520 12 C 5460 13 5388 13 5360 13 C 5329 12 5308 13 5304 13 C 5298 14 5152 15 4819 15 C 4311 16 4221 16 4189 19 C 4172 19 4167 19 4166 18 C 4165 18 4161 16 4156 16 C 4082 16 4051 18 4050 19 C 4048 19 4045 19 4039 19 C 4034 19 4028 18 4024 18 C 4021 18 4015 18 4012 18 C 3950 18 3692 18 3690 19 C 3687 20 3598 20 3346 21 C 3159 21 2988 21 2964 22 C 2896 24 2694 25 2692 22 C 2691 21 2670 21 2668 22 C 2667 24 2613 24 2509 22 C 2506 22 2492 24 2475 24 C 2460 24 2444 25 2442 25 C 2438 25 2368 25 2286 25 C 2203 25 2134 25 2133 25 C 2133 25 1962 26 1754 26 C 1364 27 1312 27 1308 30 C 1305 30 1182 31 984 31 C 806 31 640 31 614 32 C 588 32 507 33 436 33 C 364 33 302 33 297 33 C 273 33 213 33 147 32 C 81 32 26 33 13 34 C 8 34 7 36 6 39 C 1 46 -2 46 100 46 C 159 46 194 48 195 48 C 196 50 217 50 223 48 C 226 48 286 48 382 48 C 624 48 1030 45 1032 43 C 1033 42 1044 42 1045 44 C 1046 44 1088 45 1206 44 C 1443 44 1453 44 1456 43 C 1459 42 1530 42 1750 42 C 2070 40 2200 40 2203 38 C 2204 38 2431 37 2708 37 C 3526 36 3738 34 3796 33 C 3826 33 3979 32 4135 32 C 4464 32 4573 31 4578 30 C 4582 27 4778 27 4779 30 C 4780 31 4790 31 4791 30 C 4792 27 4842 27 4843 28 C 4844 31 4845 31 4982 31 C 5049 31 5110 30 5119 30 C 5126 28 5276 27 5451 27 C 6010 26 6154 26 6159 24 C 6162 22 6164 22 6168 24 C 6175 26 6198 25 6211 22 C 6217 22 6219 22 6224 24 C 6230 26 6296 26 6303 24 C 6304 24 6313 24 6321 24 C 6331 25 6337 25 6339 25 C 6342 24 6690 21 6913 21 C 6973 21 7005 21 7010 20 C 7020 19 7062 19 7087 20 C 7111 22 7496 21 7526 19 C 7546 18 7930 18 7970 19 C 7977 19 7992 19 8002 18 C 8013 18 8162 18 8334 16 C 8505 16 8672 16 8703 15 C 8736 15 8788 14 8821 14 C 8853 13 8881 13 8881 12 C 8884 10 8883 3 8880 1 C 8877 1 8689 0 8683 1 z" fill="black"/><!-- width=8890 height=58 -->
<path id="gl39941" d="M 8092 2 C 8092 2 8050 2 8000 3 C 7948 3 7903 3 7899 4 C 7896 4 7891 6 7890 4 C 7888 4 7880 4 7872 4 C 7863 4 7726 6 7569 6 C 7272 6 7129 7 7126 8 C 7124 9 7092 9 7090 8 C 7089 8 7080 8 7069 8 C 7058 8 7023 8 6992 8 C 6956 7 6934 8 6934 8 C 6933 10 6928 10 6927 8 C 6925 7 6648 7 6608 8 C 6592 9 6506 10 6387 10 C 6279 10 6141 10 6081 10 C 6020 10 5838 12 5676 12 C 5396 12 5301 13 5268 14 C 5254 14 4983 15 4057 16 C 3864 16 3688 18 3668 18 C 3648 19 3628 19 3626 19 C 3585 19 3082 21 2983 21 C 2906 22 2834 22 2820 22 C 2786 21 2443 22 2416 22 C 2390 22 1929 25 1904 25 C 1900 25 1866 25 1826 25 C 1785 25 1646 26 1515 26 C 1378 26 1270 27 1257 28 C 1231 30 1225 30 1224 28 C 1222 27 1206 27 1180 27 C 1090 28 645 31 296 31 C 31 31 15 31 13 33 C 10 34 8 36 8 36 C 2 36 4 45 10 46 C 27 46 814 45 867 44 C 933 43 1056 43 1178 43 C 1213 43 1281 43 1314 42 C 1316 42 1323 42 1329 42 C 1335 42 1344 42 1348 42 C 1353 42 1362 42 1364 42 C 1368 42 1377 42 1384 42 C 1392 42 1401 43 1405 43 C 1410 43 1414 43 1418 43 C 1422 42 1530 40 1773 40 C 1966 40 2137 39 2152 38 C 2187 37 2235 37 2235 38 C 2235 40 2241 42 2246 39 C 2248 38 2289 38 2616 37 C 3246 36 3432 36 3446 33 C 3451 32 3454 33 3457 34 C 3460 37 3828 36 3838 32 C 3843 31 4143 31 4154 32 C 4158 33 4166 33 4171 32 C 4177 32 4275 31 4390 31 C 4504 31 4606 30 4617 30 C 4645 28 4674 28 4681 30 C 4684 30 4688 30 4689 30 C 4690 28 4724 28 4737 30 C 4742 31 4755 31 4767 31 C 4780 30 4803 30 4819 30 C 4862 31 5109 31 5131 30 C 5152 27 5551 27 5568 28 C 5575 30 5581 28 5584 28 C 5588 27 5695 27 5938 26 C 6130 26 6309 26 6334 25 C 6398 24 6391 24 6884 22 C 7435 21 7570 21 7584 20 C 7591 19 7596 19 7602 20 C 7606 20 7666 21 7809 21 C 8022 21 8059 20 8066 19 C 8070 18 8190 18 8379 18 C 8734 16 8864 16 8866 14 C 8866 14 8871 14 8875 14 C 8880 14 8883 13 8884 12 C 8886 10 8887 10 8888 9 C 8886 8 8884 7 8883 6 C 8882 4 8881 2 8880 1 C 8786 1 8692 2 8599 2 C 8394 2 8318 2 8317 3 C 8316 6 8310 6 8308 4 C 8307 3 8094 1 8092 2 z" fill="black"/><!-- width=8895 height=54 -->
<path id="gl39942" d="M 8607 1 C 8607 1 8425 2 8204 2 C 7983 2 7784 3 7762 3 C 7658 4 7537 6 7088 6 C 6822 7 6600 8 6594 8 C 6577 10 6558 10 6557 8 C 6556 7 6534 8 6522 9 C 6519 9 6516 9 6515 9 C 6514 7 6509 7 6508 8 C 6507 10 6443 10 6442 8 C 6442 8 6434 7 6421 8 C 6410 8 6371 8 6334 8 C 6163 8 6099 8 6084 9 C 6075 9 5953 10 5811 10 C 5402 12 5290 12 5289 13 C 5288 15 5262 15 5259 13 C 5257 13 5256 13 5254 13 C 5251 14 5238 14 5203 14 C 5178 14 5155 14 5154 14 C 5153 14 5107 14 5053 14 C 5000 14 4805 14 4620 15 C 4436 15 4155 16 3996 16 C 3838 16 3699 18 3688 18 C 3676 19 3524 20 3351 20 C 3179 20 3006 21 2967 21 C 2928 22 2890 22 2884 22 C 2877 21 2871 22 2871 22 C 2870 25 2786 25 2779 22 C 2771 21 2459 21 2406 22 C 2392 24 2199 25 1978 25 C 1397 26 1298 26 1282 30 C 1277 30 1273 30 1268 30 C 1262 28 1259 28 1255 30 C 1247 31 1219 30 1216 28 C 1215 26 1207 26 1205 28 C 1204 30 1127 30 911 30 C 745 30 606 31 588 32 C 571 32 552 33 546 33 C 529 32 503 32 482 33 C 469 33 463 33 462 32 C 459 31 438 31 435 32 C 434 34 425 34 423 32 C 422 31 419 31 410 33 C 408 33 405 33 404 33 C 401 30 16 30 13 33 C 13 33 10 33 8 34 C 2 36 0 42 3 45 C 6 46 787 46 888 44 C 986 43 1049 42 1050 43 C 1052 45 1079 45 1080 43 C 1082 42 1219 43 1223 44 C 1226 45 1228 44 1229 43 C 1232 43 1235 42 1243 43 C 1257 44 1282 44 1282 43 C 1283 42 1301 42 1309 44 C 1315 45 1316 45 1322 43 C 1327 42 1353 40 1369 42 C 1370 42 1376 42 1383 42 C 1391 42 1396 42 1400 42 C 1402 43 1413 43 1443 43 C 1465 42 1628 40 1807 40 C 1985 40 2132 39 2136 39 C 2138 39 2143 38 2147 38 C 2150 38 2153 38 2155 38 C 2156 39 2160 40 2164 39 C 2176 38 2179 38 2585 37 C 3167 36 3400 34 3401 33 C 3403 32 3450 32 3452 34 C 3454 36 3491 34 3509 33 C 3515 33 3518 33 3520 33 C 3521 36 3550 36 3551 33 C 3552 33 3556 33 3562 33 C 3580 34 3759 34 3762 33 C 3766 32 3834 31 4088 31 C 4434 31 4538 31 4572 28 C 4597 27 4859 28 4865 30 C 4867 30 4868 30 4871 30 C 4872 28 4879 28 4891 28 C 4918 30 4916 30 4926 28 C 4931 28 4934 28 4936 28 C 4939 30 4981 30 4982 28 C 4985 27 5016 27 5018 30 C 5020 30 5028 31 5056 30 C 5109 28 5109 28 5394 27 C 6000 26 6122 25 6164 24 C 6188 24 6213 24 6219 24 C 6242 24 6313 22 6353 22 C 6373 22 6397 22 6404 22 C 6413 24 6510 22 6621 22 C 6921 21 6976 21 6979 20 C 6982 18 7025 18 7027 20 C 7028 21 7031 21 7077 19 C 7089 18 7093 19 7094 20 C 7096 21 7481 21 7531 20 C 7559 19 7792 18 7812 19 C 7813 20 7822 19 7829 19 C 7871 18 7981 16 7987 18 C 7992 19 7999 19 8005 18 C 8011 18 8155 18 8337 16 C 8515 16 8686 16 8719 15 C 8751 15 8803 14 8833 14 C 8891 13 8891 13 8889 7 C 8889 0 8894 0 8746 1 C 8671 1 8608 1 8607 1 z" fill="black"/><!-- width=8897 height=52 -->
<path id="gl40192" d="M 8623 2 C 8623 2 8594 2 8558 3 C 8523 3 8490 3 8485 4 C 8478 4 8474 4 8473 3 C 8470 2 8464 2 8448 3 C 8426 6 8293 6 7526 7 C 7359 7 7219 8 7206 8 C 7190 9 6978 10 6684 10 C 6036 12 5925 12 5923 13 C 5922 15 5901 15 5900 13 C 5900 13 5894 13 5889 13 C 5878 13 5840 13 5698 13 C 5630 13 5620 13 5618 14 C 5616 16 5607 16 5604 14 C 5601 12 5593 12 5592 14 C 5590 15 5520 15 5246 15 C 5030 15 4879 16 4839 18 C 4747 19 4500 20 4497 18 C 4495 16 4492 16 4394 18 C 4375 18 4353 19 4345 19 C 4333 19 4327 19 4326 18 C 4323 18 4315 16 4290 18 C 4233 19 4214 19 3938 20 C 3276 21 3175 22 3164 24 C 3160 25 3152 24 3145 22 C 3134 22 3130 22 3129 22 C 3128 25 3116 25 3115 22 C 3114 21 3074 21 3067 24 C 3062 25 3061 25 3060 24 C 3056 21 3028 21 3027 22 C 3026 24 2806 25 2085 26 C 1917 26 1816 27 1810 27 C 1803 28 1682 30 1478 30 C 1302 30 1106 31 1046 31 C 985 31 861 31 772 31 C 684 32 610 32 609 32 C 609 33 472 34 308 34 C 142 34 7 36 6 36 C 0 38 0 44 6 48 C 8 48 9 49 10 50 C 58 50 108 50 156 50 C 241 50 320 50 349 49 C 381 48 543 46 879 46 C 1440 45 1520 45 1522 43 C 1524 42 1539 42 1540 43 C 1542 45 1632 45 1633 43 C 1634 42 1692 42 1693 43 C 1694 44 1694 44 1695 43 C 1698 42 1783 42 1785 43 C 1788 44 1791 44 1797 44 C 1822 42 1972 42 2476 40 C 2692 40 2750 40 2751 39 C 2752 37 2944 37 2946 39 C 2947 39 2947 39 2948 39 C 2950 37 3112 37 3114 39 C 3115 40 3188 39 3235 38 C 3262 37 3478 37 3745 36 C 3968 36 4069 36 4102 33 C 4108 33 4112 33 4113 33 C 4114 36 4123 36 4124 34 C 4125 32 4158 32 4162 34 C 4165 36 4167 36 4179 34 C 4197 33 4326 32 4329 34 C 4330 34 4338 34 4351 34 C 4386 33 4722 32 5383 31 C 5534 31 5662 30 5668 30 C 5712 28 5803 27 6090 27 C 6480 26 6474 26 6476 25 C 6477 22 6480 22 6487 25 C 6496 26 6541 25 6559 24 C 6566 22 6568 24 6570 25 C 6572 26 6873 26 6933 25 C 6985 24 7280 22 7281 25 C 7282 26 7296 26 7299 25 C 7302 24 7402 22 7438 22 C 7440 22 7537 22 7653 22 C 7770 22 7953 21 8060 21 C 8166 21 8294 21 8342 20 C 8438 20 8474 19 8487 19 C 8492 19 8530 19 8571 19 C 8630 18 8650 19 8656 20 C 8662 21 8665 21 8668 19 C 8672 18 8691 18 8774 18 C 8884 18 8882 18 8882 10 C 8882 7 8880 6 8870 6 C 8865 6 8862 4 8862 4 C 8862 2 8856 2 8854 4 C 8853 6 8820 6 8818 4 C 8817 3 8796 2 8752 3 C 8676 3 8638 3 8630 2 C 8626 2 8624 2 8623 2 z" fill="black"/><!-- width=8890 height=58 -->
<path id="gl40193" d="M 8540 4 C 8540 4 8413 6 8258 6 C 8001 6 7573 8 7533 8 C 7514 8 7445 9 7429 8 C 7423 8 7395 8 7368 9 C 7340 9 7156 10 6958 10 C 6430 12 6072 12 6053 13 C 6013 14 5553 15 5049 16 C 4894 16 4795 18 4793 18 C 4789 19 4585 20 4241 20 C 3473 21 3311 21 3297 24 C 3290 24 3284 25 3279 24 C 3272 22 3239 22 3200 24 C 3175 25 3149 25 3103 25 C 3081 25 2941 25 2792 25 C 2643 25 2368 26 2181 26 C 1967 26 1836 27 1827 27 C 1820 28 1687 30 1472 30 C 1283 30 1114 31 1096 31 C 1077 31 1029 31 988 31 C 945 32 912 32 912 32 C 911 33 903 33 889 32 C 859 31 807 31 805 33 C 804 33 801 33 793 32 C 785 32 773 31 749 32 C 731 32 713 33 710 32 C 698 32 652 32 632 33 C 622 33 479 34 313 34 C 28 34 8 36 8 38 C 8 38 6 39 4 39 C 1 42 1 44 6 48 C 7 49 9 50 10 51 C 67 51 124 50 181 50 C 287 50 354 49 357 49 C 365 46 698 46 700 48 C 701 50 774 50 781 48 C 785 46 804 46 886 48 C 888 48 978 46 1088 46 C 1197 46 1371 45 1476 45 C 1600 45 1665 44 1666 44 C 1668 42 1717 42 1718 44 C 1719 44 1721 44 1723 44 C 1728 42 1746 42 1747 44 C 1747 44 1757 44 1775 44 C 1823 43 1861 43 2273 42 C 2638 40 2703 40 2777 38 C 2787 38 2793 38 2794 38 C 2795 40 2800 40 2801 38 C 2803 37 2942 37 2943 39 C 2946 42 3252 40 3266 38 C 3278 37 3288 37 3291 38 C 3294 40 3302 40 3314 38 C 3319 38 3438 37 3581 37 C 4132 36 4210 34 4213 34 C 4215 32 4220 32 4221 33 C 4221 34 4446 34 4472 33 C 4482 33 4489 33 4490 34 C 4491 34 4502 34 4516 34 C 4558 33 5057 32 5433 31 C 5697 31 5787 31 5788 30 C 5790 27 5796 27 5797 28 C 5798 31 5832 31 5833 30 C 5834 28 5887 27 5888 28 C 5889 31 5902 31 5904 28 C 5905 27 5911 27 5912 28 C 5912 30 6014 30 6032 28 C 6036 28 6054 28 6074 28 C 6093 30 6137 28 6171 28 C 6209 27 6358 27 6561 27 C 6756 26 6905 26 6933 25 C 6993 24 7255 22 7257 24 C 7260 26 7291 27 7309 25 C 7318 25 7329 24 7334 25 C 7357 25 7491 25 7506 24 C 7523 24 7806 22 8456 21 C 8641 21 8761 20 8768 20 C 8775 19 8805 19 8833 18 C 8866 18 8886 18 8887 18 C 8892 15 8891 8 8887 7 C 8885 6 8826 4 8725 4 C 8637 6 8560 4 8553 4 C 8547 4 8541 4 8540 4 z" fill="black"/><!-- width=8897 height=57 -->
<path id="gl40194" d="M 8612 4 C 8612 4 8607 6 8602 4 C 8596 4 8519 6 8428 6 C 8338 6 8152 7 8014 7 C 7874 7 7698 7 7621 8 C 7490 9 7455 9 7440 9 C 7436 9 7412 9 7386 9 C 7334 10 6820 10 6382 12 C 6215 12 6085 13 6059 13 C 6033 14 5886 15 5701 15 C 5528 15 5355 16 5316 16 C 5278 18 5242 18 5236 18 C 5230 16 5225 18 5225 18 C 5224 20 5200 20 5199 18 C 5196 16 4838 16 4816 18 C 4808 19 4610 20 4375 20 C 3731 21 3488 21 3487 24 C 3486 24 3481 24 3474 24 C 3462 22 3335 22 3321 22 C 3317 24 3300 24 3282 24 C 3264 24 3246 24 3241 25 C 3236 25 3061 25 2851 25 C 2612 26 2452 26 2422 27 C 2369 28 2291 28 2193 27 C 2152 27 2131 27 2131 27 C 2130 30 2119 30 2118 27 C 2116 26 1902 26 1860 27 C 1843 28 1731 30 1611 30 C 1083 31 954 32 901 33 C 879 34 865 33 856 32 C 846 32 841 32 834 32 C 827 33 738 34 480 34 C -36 34 14 34 8 38 C 1 42 1 43 6 48 C 7 49 8 50 9 51 C 52 51 94 51 138 51 C 249 50 320 50 415 48 C 431 48 439 48 440 48 C 441 50 446 50 447 48 C 449 46 530 46 532 48 C 533 49 544 49 556 48 C 570 48 578 48 580 49 C 581 49 601 50 634 49 C 662 49 724 49 771 49 C 817 49 867 49 879 49 C 1030 46 1185 46 1376 45 C 1592 45 1827 44 1892 43 C 1909 43 2062 42 2232 42 C 2404 42 2592 40 2653 40 C 2713 40 2771 39 2783 40 C 2799 40 2806 39 2806 39 C 2807 37 2822 37 2823 39 C 2824 39 2825 39 2825 39 C 2827 37 2857 37 2858 38 C 2859 39 2872 40 2899 40 C 2922 40 2991 40 3054 40 C 3207 40 3296 40 3327 38 C 3343 38 3458 37 3584 37 C 3807 36 4179 36 4183 36 C 4196 37 4567 34 4568 33 C 4569 33 4766 32 5008 32 C 5406 32 5572 31 6000 30 C 6079 30 6155 28 6169 28 C 6182 27 6344 27 6529 27 C 6713 26 6891 26 6923 25 C 7010 24 7261 22 7262 25 C 7264 26 7454 26 7508 25 C 7533 24 7745 22 8458 21 C 8629 21 8749 20 8754 20 C 8757 19 8788 19 8822 19 C 8862 18 8887 18 8887 16 C 8891 15 8891 8 8888 7 C 8887 6 8828 6 8757 4 C 8685 4 8624 3 8619 3 C 8615 3 8612 3 8612 4 z" fill="black"/><!-- width=8897 height=57 -->
<path id="gl40195" d="M 8589 2 C 8572 2 8541 3 8519 4 C 8489 4 8480 6 8479 4 C 8477 2 8468 2 8455 4 C 8449 4 8306 6 8095 6 C 7902 6 7633 7 7497 7 C 7363 7 7242 8 7230 8 C 7219 7 7208 8 7207 8 C 7206 9 7028 10 6713 10 C 6159 12 5967 12 5965 14 C 5964 14 5958 14 5948 13 C 5940 13 5928 13 5920 13 C 5907 14 5907 14 5828 13 C 5794 13 5773 13 5773 14 C 5772 15 5751 15 5750 13 C 5749 12 5615 13 5606 15 C 5600 16 5599 15 5593 14 C 5587 13 5584 13 5582 14 C 5579 15 5614 15 5183 15 C 4901 16 4816 16 4772 19 C 4763 20 4758 19 4757 18 C 4754 16 4753 16 4752 18 C 4748 20 4647 20 4646 18 C 4645 16 4640 16 4639 19 C 4638 20 4615 19 4601 18 C 4597 18 4593 18 4592 18 C 4590 19 4578 20 4544 19 C 4488 18 4247 18 4219 19 C 4203 20 4196 19 4195 19 C 4193 16 4189 16 4187 18 C 4186 19 4073 20 3876 20 C 3707 20 3490 21 3396 21 C 3301 21 3180 21 3128 21 C 3075 21 3033 22 3032 22 C 3031 24 2821 25 2534 25 C 1980 26 1807 26 1805 28 C 1803 30 1573 30 1572 27 C 1570 26 1533 26 1532 27 C 1532 28 1426 31 1384 30 C 1377 30 1353 30 1330 30 C 1307 30 1140 31 960 31 C 744 31 628 32 619 32 C 611 33 505 34 308 34 C 208 34 109 34 8 34 C 8 36 7 37 6 38 C 2 43 2 44 8 46 C 10 48 13 49 13 49 C 14 51 297 50 323 49 C 345 48 357 48 819 46 C 1348 45 1497 45 1500 43 C 1502 42 1563 42 1564 44 C 1566 45 1575 45 1576 44 C 1578 42 1592 42 1593 44 C 1594 45 1604 45 1605 44 C 1606 42 1624 42 1628 44 C 1629 45 1630 45 1633 44 C 1635 42 1741 42 1742 44 C 1743 45 1748 45 1749 44 C 1751 42 1775 42 1776 44 C 1777 45 1782 45 1783 44 C 1783 43 1795 42 1812 42 C 1915 42 2156 40 2196 40 C 2224 40 2248 39 2249 39 C 2303 40 2702 40 2717 39 C 2758 38 3139 37 3140 38 C 3141 40 3150 40 3151 38 C 3151 38 3170 38 3205 38 C 3315 38 4049 34 4068 34 C 4071 34 4074 34 4074 33 C 4074 32 4085 32 4087 34 C 4088 36 4097 36 4099 34 C 4100 32 4177 32 4178 33 C 4179 36 4192 37 4197 34 C 4201 32 4374 32 4393 34 C 4396 34 4401 34 4404 34 C 4407 33 4516 32 4759 32 C 5569 31 5679 31 5709 28 C 5726 28 5788 28 5863 28 C 6013 28 5994 28 6036 28 C 6056 27 6071 28 6072 28 C 6074 30 6080 30 6089 28 C 6110 27 6131 27 6133 28 C 6134 31 6139 31 6140 28 C 6143 27 6141 27 6358 26 C 6460 26 6495 25 6496 25 C 6497 24 6499 24 6504 24 C 6525 26 6789 27 6917 25 C 6938 25 7047 24 7162 24 C 7276 24 7384 22 7401 22 C 7429 21 7434 22 7440 24 C 7445 25 7448 25 7460 25 C 7471 24 7550 22 7710 22 C 8038 21 8230 21 8340 20 C 8393 20 8441 19 8447 19 C 8453 19 8470 19 8482 20 C 8495 20 8511 19 8519 19 C 8529 18 8534 18 8535 19 C 8536 20 8536 20 8537 20 C 8539 18 8552 18 8555 20 C 8557 21 8558 21 8560 20 C 8563 18 8624 18 8629 20 C 8631 21 8632 21 8633 20 C 8635 18 8638 18 8700 18 C 8840 18 8886 18 8888 16 C 8891 14 8891 8 8887 7 C 8886 6 8875 4 8858 4 C 8841 4 8830 4 8830 4 C 8829 2 8836 2 8745 2 C 8702 3 8658 2 8644 2 C 8632 2 8607 2 8589 2 z" fill="black"/><!-- width=8897 height=57 -->
<path id="gl39938" d="M 8433 3 C 8394 4 8384 4 8091 3 C 7965 3 7910 3 7894 4 C 7877 6 7788 6 7550 7 C 7374 7 7210 7 7187 8 C 7135 9 7054 9 7048 8 C 7046 8 7043 8 7042 9 C 7041 9 7036 10 7024 9 C 7016 9 7006 8 7003 8 C 6971 9 6927 9 6923 8 C 6917 7 6645 7 6639 8 C 6637 9 6569 9 6486 9 C 6342 9 6090 10 5648 12 C 5494 12 5440 13 5438 14 C 5435 15 5432 15 5427 14 C 5423 13 5415 13 5403 13 C 5385 13 5372 14 5345 13 C 5338 13 5330 13 5326 13 C 5324 13 5319 13 5316 13 C 5315 13 5308 13 5303 14 C 5298 14 5093 14 4848 15 C 4294 16 4190 16 4187 18 C 4183 20 4159 20 4154 18 C 4150 15 4131 15 4118 19 C 4113 20 4111 20 4107 19 C 4103 18 4099 18 4089 18 C 4060 19 3994 20 3993 18 C 3990 16 3729 16 3707 19 C 3700 19 3558 20 3351 20 C 3153 20 3007 21 3003 21 C 3000 22 2992 22 2986 22 C 2980 21 2961 21 2944 22 C 2878 24 2849 25 2847 22 C 2845 22 2842 21 2840 22 C 2831 24 2775 25 2773 22 C 2770 21 2459 21 2429 22 C 2410 22 1909 25 1567 26 C 1358 26 1273 27 1269 28 C 1263 30 1210 30 1205 27 C 1202 26 1201 26 1197 27 C 1194 28 1193 28 1191 27 C 1190 27 1186 27 1182 27 C 1174 28 727 30 341 31 C 20 31 16 31 10 33 C 8 34 4 37 4 37 C 2 39 7 45 10 46 C 21 46 841 45 885 44 C 916 44 943 43 947 43 C 949 43 953 43 954 43 C 983 42 1217 43 1220 44 C 1222 44 1225 45 1228 44 C 1231 44 1239 43 1245 43 C 1268 44 1305 43 1325 43 C 1336 43 1347 43 1351 43 C 1354 43 1369 43 1384 43 C 1458 42 1530 42 1830 40 C 2063 40 2155 40 2156 39 C 2159 38 2325 38 2752 37 C 3440 36 3781 36 3790 34 C 3796 33 3799 33 3826 34 C 3840 34 3848 34 3850 33 C 3852 33 3956 32 4202 32 C 4432 32 4561 31 4581 30 C 4623 28 4671 28 4677 30 C 4686 32 5135 31 5142 30 C 5147 27 5535 27 5557 30 C 5567 30 5573 30 5579 28 C 5591 27 5655 27 6025 26 C 6277 26 6401 26 6430 24 C 6433 24 6682 22 6980 22 C 7532 21 8039 20 8056 20 C 8061 20 8076 20 8089 19 C 8117 18 8752 16 8828 16 C 8874 18 8878 18 8881 15 C 8882 14 8883 13 8885 13 C 8888 13 8893 10 8892 8 C 8891 7 8889 6 8886 3 C 8881 1 8880 1 8676 2 C 8563 2 8453 2 8433 3 z" fill="black"/><!-- width=8899 height=52 -->
<path id="gl40196" d="M 8286 2 C 8068 2 7885 3 7878 3 C 7870 2 7864 3 7863 3 C 7862 4 7740 6 7546 6 C 7222 7 7155 7 7152 9 C 7149 10 7087 10 7086 8 C 7084 7 7069 7 7022 8 C 6988 8 6957 8 6952 8 C 6922 7 6626 8 6619 9 C 6613 9 6534 9 6406 9 C 6295 9 6201 9 6200 9 C 6141 10 5926 12 5719 12 C 5511 12 5452 13 5451 14 C 5449 15 5448 15 5442 14 C 5437 13 5434 12 5430 13 C 5426 14 5421 14 5416 14 C 5392 12 5388 12 5385 14 C 5383 15 5370 14 5354 13 C 5350 13 5347 13 5346 13 C 5344 14 5236 14 5031 15 C 4860 15 4606 16 4471 16 C 4334 16 4216 18 4208 18 C 4200 18 4194 18 4194 18 C 4192 20 3967 20 3966 18 C 3964 16 3907 16 3906 18 C 3904 20 3816 21 3813 19 C 3810 16 3816 16 3729 19 C 3706 20 3559 20 3394 20 C 3094 21 2966 21 2965 24 C 2965 24 2796 25 2589 25 C 2383 25 2164 25 2104 25 C 2044 25 1850 26 1672 26 C 1434 26 1347 27 1339 28 C 1327 30 1324 30 1314 30 C 1262 28 582 31 580 32 C 579 33 543 34 384 33 C 277 33 172 33 153 33 C 133 32 114 32 108 32 C 98 32 94 32 45 33 C 25 34 8 34 8 34 C 0 45 2 46 26 46 C 37 48 45 48 46 49 C 48 49 49 49 49 48 C 50 46 214 46 223 48 C 226 49 242 49 259 48 C 276 48 421 46 583 46 C 745 46 945 45 1029 45 C 1113 44 1185 44 1189 44 C 1231 45 1449 44 1459 43 C 1468 43 1567 42 1725 42 C 2076 42 2222 40 2226 39 C 2230 37 2450 37 2451 39 C 2452 40 2467 40 2468 39 C 2469 37 2593 37 2595 39 C 2598 40 2614 40 2617 39 C 2618 38 2624 38 2641 39 C 2655 39 2665 39 2667 39 C 2668 38 2839 37 3068 37 C 3654 36 3840 36 3841 34 C 3842 33 3981 32 4182 32 C 4528 31 4646 31 4647 28 C 4648 27 4659 27 4660 30 C 4662 30 4682 31 4720 31 C 4752 31 4788 31 4798 31 C 4903 31 5136 30 5144 30 C 5150 28 5233 28 5353 28 C 5462 28 5553 28 5556 28 C 5600 27 5820 26 6045 26 C 6350 25 6363 25 6384 24 C 6392 22 6397 24 6398 24 C 6399 26 6415 26 6423 25 C 6429 24 6806 22 7297 21 C 7488 21 7551 21 7554 20 C 7558 18 7783 18 7784 20 C 7785 20 7794 20 7809 20 C 7866 19 7916 19 7921 20 C 7924 20 7930 20 7942 20 C 7954 19 7962 19 7966 20 C 7970 20 7977 20 7987 19 C 8000 18 8005 18 8010 18 C 8011 18 8024 18 8038 18 C 8054 18 8204 18 8372 18 C 8540 16 8703 16 8734 15 C 8767 15 8811 14 8836 14 C 8860 14 8881 13 8882 12 C 8884 10 8884 7 8882 3 C 8880 1 8858 1 8286 2 z" fill="black"/><!-- width=8890 height=58 -->
<path id="gl40197" d="M 8584 2 C 8584 2 8556 2 8521 2 C 8486 3 8449 3 8438 4 C 8410 6 8086 6 8084 4 C 8083 2 8078 2 8077 4 C 8076 6 8059 6 8001 6 C 7960 6 7765 7 7568 7 C 7354 7 7206 8 7200 8 C 7194 9 6997 10 6703 10 C 6104 12 5918 12 5917 14 C 5916 15 5877 15 5876 14 C 5875 12 5760 12 5758 14 C 5757 15 5733 15 5732 14 C 5731 12 5726 12 5725 14 C 5724 15 5719 15 5718 14 C 5716 12 5668 12 5667 14 C 5666 14 5661 14 5654 14 C 5637 13 5625 13 5593 14 C 5574 15 5432 15 5229 16 C 5046 16 4869 16 4838 18 C 4754 19 4480 20 4479 18 C 4478 16 4406 16 4405 18 C 4404 20 4394 20 4393 18 C 4392 16 4387 16 4386 18 C 4384 20 4327 20 4326 18 C 4324 16 4300 16 4299 18 C 4298 20 4293 20 4292 18 C 4291 16 4262 16 4261 18 C 4260 19 4074 20 3462 21 C 3276 21 3168 22 3166 22 C 3165 25 3146 25 3145 22 C 3144 21 3130 21 3127 24 C 3123 26 3104 25 3102 22 C 3100 21 3081 21 3080 22 C 3079 24 2844 25 2126 26 C 1888 26 1814 26 1813 27 C 1812 30 1624 30 1623 27 C 1622 27 1621 27 1621 27 C 1620 30 1543 30 1542 27 C 1540 26 1536 26 1534 27 C 1534 28 1530 30 1522 28 C 1515 28 1465 28 1411 30 C 1356 30 1218 31 1104 31 C 980 31 897 32 896 33 C 895 34 880 34 879 33 C 878 31 634 31 632 32 C 632 33 496 34 319 34 C -15 34 3 34 1 40 C 1 44 1 44 6 48 C 8 49 9 50 10 51 C 70 51 129 50 189 50 C 297 50 370 49 372 49 C 374 48 558 48 848 46 C 1430 45 1627 45 1628 43 C 1629 42 1682 42 1683 44 C 1684 44 1686 44 1686 44 C 1687 42 1740 42 1741 43 C 1742 45 1756 45 1758 43 C 1759 42 1768 42 1770 44 C 1771 44 1771 44 1772 44 C 1773 42 1788 42 1789 43 C 1790 45 1800 45 1801 44 C 1802 42 2090 40 2474 40 C 2700 40 2760 40 2761 39 C 2762 37 2973 37 2974 39 C 2974 39 2977 39 2978 39 C 2979 39 2982 39 2982 39 C 2983 37 3016 37 3018 39 C 3019 40 3024 40 3025 39 C 3026 37 3112 37 3114 39 C 3115 40 3216 40 3217 39 C 3218 37 3228 37 3229 39 C 3230 40 3244 40 3246 38 C 3247 38 3338 37 3547 37 C 3958 36 4128 36 4129 34 C 4130 32 4149 32 4150 34 C 4152 36 4166 36 4167 34 C 4168 32 4188 32 4189 34 C 4191 36 4213 36 4215 34 C 4216 33 4368 33 4676 32 C 4928 32 5263 31 5420 31 C 5578 31 5712 31 5716 31 C 5721 31 5726 30 5727 30 C 5728 28 5776 27 5895 28 C 5986 28 6062 28 6064 28 C 6067 28 6166 27 6285 27 C 6451 26 6504 26 6505 25 C 6506 22 6516 22 6517 25 C 6518 26 6513 26 6748 26 C 6862 26 6943 25 6950 25 C 6956 24 7156 22 7476 22 C 8030 21 8416 20 8442 19 C 8445 19 8457 20 8468 20 C 8481 20 8491 20 8494 19 C 8499 18 8502 19 8506 20 C 8511 21 8514 21 8515 20 C 8517 19 8568 18 8697 18 C 8730 18 8782 18 8816 18 C 8835 18 8856 18 8875 18 C 8876 16 8877 15 8878 14 C 8886 6 8883 6 8850 6 C 8832 6 8820 4 8818 3 C 8817 3 8586 1 8584 2 z" fill="black"/><!-- width=8890 height=58 -->
<path id="gl40198" d="M 8446 3 C 8342 4 8329 4 8142 3 C 8035 3 7981 3 7975 4 C 7969 4 7962 6 7959 6 C 7948 4 7938 4 7932 6 C 7929 6 7924 6 7923 6 C 7921 4 7918 4 7917 6 C 7916 6 7760 7 7570 7 C 7371 7 7216 7 7203 8 C 7178 9 7077 9 7058 8 C 7051 8 7045 8 7045 9 C 7044 10 6909 10 6908 8 C 6907 7 6895 7 6860 7 C 6834 7 6780 8 6740 8 C 6699 8 6561 9 6434 9 C 6255 10 5714 13 5468 13 C 5455 13 5444 13 5443 14 C 5442 15 5421 15 5382 15 C 5377 15 5371 15 5368 15 C 5366 15 5316 15 5254 15 C 5193 15 5104 15 5054 15 C 5005 15 4820 16 4641 16 C 4464 16 4297 16 4269 16 C 4237 18 4218 18 4212 16 C 4204 15 4203 15 4200 18 C 4196 20 4129 20 3907 18 C 3852 18 3841 18 3835 19 C 3830 20 3825 20 3823 20 C 3802 16 3750 16 3741 20 C 3739 20 3627 21 3399 21 C 3212 21 3039 21 3015 22 C 2947 24 2728 25 2727 22 C 2726 21 2716 21 2715 22 C 2714 24 2694 24 2652 24 C 2570 22 2551 22 2480 24 C 2422 24 2191 25 1621 26 C 1328 27 1322 27 1317 28 C 1315 30 1222 30 993 30 C 667 30 634 31 580 33 C 561 33 514 34 462 33 C 367 33 370 33 355 32 C 349 32 277 32 194 32 C 49 32 6 33 2 36 C 0 38 2 45 4 45 C 10 46 817 45 894 44 C 994 43 1222 42 1224 44 C 1226 45 1290 45 1291 43 C 1292 42 1297 42 1304 42 C 1323 42 1327 42 1353 42 C 1366 42 1387 43 1396 43 C 1407 44 1416 44 1419 43 C 1422 43 1426 42 1429 42 C 1435 43 1444 43 1471 42 C 1482 42 1640 40 1821 40 C 2082 40 2151 40 2151 39 C 2152 37 2157 37 2161 39 C 2163 40 2168 40 2181 39 C 2194 38 2341 37 2752 37 C 3774 36 3846 36 3852 32 C 3854 32 3858 31 3861 32 C 3865 32 3868 32 3870 32 C 3876 32 4165 32 4182 32 C 4195 33 4209 33 4214 32 C 4219 32 4311 31 4418 31 C 4556 31 4615 30 4620 30 C 4626 27 4682 28 4713 30 C 4723 30 4728 30 4729 30 C 4730 27 4740 27 4741 30 C 4742 30 4746 30 4752 30 C 4776 27 4778 27 4779 30 C 4782 31 5098 31 5137 30 C 5163 27 5536 27 5538 28 C 5539 28 5545 28 5551 28 C 5559 27 6348 25 6408 25 C 6410 25 6416 25 6422 24 C 6428 24 6606 22 6945 22 C 7227 22 7474 21 7496 21 C 7518 21 7537 21 7540 21 C 7544 21 7549 21 7552 21 C 7587 21 7639 21 7820 21 C 7942 21 8041 20 8052 20 C 8064 19 8210 18 8404 18 C 8869 16 8869 16 8871 15 C 8871 14 8874 14 8875 14 C 8876 14 8877 13 8878 12 C 8880 10 8881 9 8882 9 C 8881 8 8878 7 8877 6 C 8876 4 8875 3 8872 1 C 8815 2 8757 2 8700 2 C 8604 2 8490 2 8446 3 z" fill="black"/><!-- width=8890 height=54 -->
</defs>
<use xlink:href="#gl16137" x="20" y="174"/>
<use xlink:href="#gl39680" x="177" y="178"/>
<use xlink:href="#gl15887" x="262" y="207"/>
<use xlink:href="#gl38669" x="351" y="182"/>
<use xlink:href="#gl39681" x="451" y="177"/>
<use xlink:href="#gl16652" x="545" y="173"/>
<use xlink:href="#gl15892" x="639" y="174"/>
<use xlink:href="#gl16652" x="685" y="173"/>
<use xlink:href="#gl15907" x="813" y="178"/>
<use xlink:href="#gl16134" x="872" y="205"/>
<use xlink:href="#gl16652" x="959" y="172"/>
<use xlink:href="#gl15906" x="1048" y="201"/>
<use xlink:href="#gl32526" x="1131" y="205"/>
<use xlink:href="#gl16137" x="3054" y="164"/>
<use xlink:href="#gl16653" x="3207" y="164"/>
<use xlink:href="#gl15881" x="3298" y="197"/>
<use xlink:href="#gl15907" x="3380" y="170"/>
<use xlink:href="#gl15882" x="3486" y="163"/>
<use xlink:href="#gl39682" x="3576" y="191"/>
<use xlink:href="#gl15882" x="3670" y="163"/>
<use xlink:href="#gl15906" x="3716" y="192"/>
<use xlink:href="#gl15909" x="3810" y="194"/>
<use xlink:href="#gl16133" x="3897" y="194"/>
<use xlink:href="#gl15879" x="3989" y="193"/>
<use xlink:href="#gl39683" x="4078" y="161"/>
<use xlink:href="#gl16137" x="6076" y="154"/>
<use xlink:href="#gl16653" x="6230" y="154"/>
<use xlink:href="#gl15881" x="6321" y="187"/>
<use xlink:href="#gl15907" x="6404" y="161"/>
<use xlink:href="#gl15882" x="6509" y="153"/>
<use xlink:href="#gl16648" x="6594" y="188"/>
<use xlink:href="#gl15906" x="6719" y="183"/>
<use xlink:href="#gl16133" x="6810" y="185"/>
<use xlink:href="#gl16130" x="6894" y="160"/>
<use xlink:href="#gl15889" x="6949" y="185"/>
<use xlink:href="#gl39683" x="7042" y="152"/>
<use xlink:href="#gl15907" x="7170" y="159"/>
<use xlink:href="#gl15908" x="7227" y="181"/>
<use xlink:href="#gl16652" x="7362" y="152"/>
<use xlink:href="#gl16134" x="7454" y="184"/>
<use xlink:href="#gl38673" x="7554" y="265"/>
<use xlink:href="#gl32522" x="28" y="480"/>
<use xlink:href="#gl15906" x="133" y="510"/>
<use xlink:href="#gl15907" x="217" y="486"/>
<use xlink:href="#gl16651" x="274" y="509"/>
<use xlink:href="#gl39684" x="365" y="514"/>
<use xlink:href="#gl15907" x="3051" y="475"/>
<use xlink:href="#gl15908" x="3107" y="499"/>
<use xlink:href="#gl16652" x="3242" y="469"/>
<use xlink:href="#gl15902" x="3330" y="501"/>
<use xlink:href="#gl38680" x="3430" y="582"/>
<use xlink:href="#gl39685" x="3529" y="467"/>
<use xlink:href="#gl39686" x="3619" y="499"/>
<use xlink:href="#gl15907" x="3700" y="473"/>
<use xlink:href="#gl16652" x="3802" y="467"/>
<use xlink:href="#gl15892" x="3897" y="467"/>
<use xlink:href="#gl16652" x="3942" y="466"/>
<use xlink:href="#gl15909" x="4080" y="498"/>
<use xlink:href="#gl15908" x="4168" y="495"/>
<use xlink:href="#gl15907" x="4251" y="471"/>
<use xlink:href="#gl16652" x="4353" y="465"/>
<use xlink:href="#gl39687" x="4443" y="493"/>
<use xlink:href="#gl39685" x="6082" y="458"/>
<use xlink:href="#gl34059" x="6168" y="494"/>
<use xlink:href="#gl15907" x="6253" y="465"/>
<use xlink:href="#gl16652" x="6355" y="459"/>
<use xlink:href="#gl31755" x="6446" y="458"/>
<use xlink:href="#gl16652" x="6494" y="458"/>
<use xlink:href="#gl16133" x="6630" y="491"/>
<use xlink:href="#gl15902" x="6719" y="491"/>
<use xlink:href="#gl15907" x="6804" y="464"/>
<use xlink:href="#gl39680" x="6908" y="460"/>
<use xlink:href="#gl15887" x="6994" y="490"/>
<use xlink:href="#gl15884" x="7080" y="491"/>
<use xlink:href="#gl15885" x="7166" y="490"/>
<use xlink:href="#gl15907" x="7295" y="462"/>
<use xlink:href="#gl15892" x="7355" y="457"/>
<use xlink:href="#gl31756" x="7402" y="487"/>
<use xlink:href="#gl15911" x="7541" y="483"/>
<use xlink:href="#gl39688" x="7671" y="455"/>
<use xlink:href="#gl15908" x="7727" y="484"/>
<use xlink:href="#gl15880" x="7819" y="489"/>
<use xlink:href="#gl39689" x="0" y="0"/>
<use xlink:href="#gl39690" x="519" y="609"/>
<use xlink:href="#gl39691" x="1" y="705"/>
<use xlink:href="#gl39692" x="0" y="1300"/>
<use xlink:href="#gl39693" x="0" y="1900"/>
<use xlink:href="#gl39694" x="0" y="2500"/>
<use xlink:href="#gl39936" x="0" y="3096"/>
<use xlink:href="#gl39937" x="0" y="3705"/>
<use xlink:href="#gl39938" x="2" y="4310"/>
<use xlink:href="#gl39939" x="5" y="4919"/>
<use xlink:href="#gl39940" x="0" y="5515"/>
<use xlink:href="#gl39941" x="0" y="6115"/>
<use xlink:href="#gl39942" x="5" y="6715"/>
<use xlink:href="#gl40192" x="5" y="7310"/>
<use xlink:href="#gl40193" x="5" y="7910"/>
<use xlink:href="#gl40194" x="5" y="8515"/>
<use xlink:href="#gl40195" x="5" y="9115"/>
<use xlink:href="#gl39938" x="3" y="9724"/>
<use xlink:href="#gl40196" x="5" y="10324"/>
<use xlink:href="#gl40197" x="10" y="10919"/>
<use xlink:href="#gl40198" x="10" y="11519"/>
</svg>