<svg xmlns="http://www.w3.org/2000/svg" xmlns:xlink="http://www.w3.org/1999/xlink" width="623px" height="56px" viewBox="0 0 6235 562" version="1.1">
<defs>
<path id="gl5663" d="M 41 7 C 35 8 27 9 25 9 C 16 11 6 27 6 43 C 6 50 8 52 20 62 C 32 72 36 78 39 87 C 41 102 33 118 14 131 C 7 136 4 140 8 142 C 12 146 19 142 33 131 C 64 107 64 71 34 50 C 18 39 16 35 19 30 C 22 25 24 25 39 24 C 55 22 62 17 62 9 C 62 3 60 3 41 7 z" fill="black"/><!-- width=72 height=152 -->
<path id="gl516" d="M 15 7 C 2 11 5 31 18 31 C 30 31 35 18 27 10 C 24 9 23 7 22 7 C 22 7 20 6 19 6 C 19 6 17 6 15 7 z" fill="black"/><!-- width=44 height=43 -->
<path id="gl9500" d="M 7 7 C 4 9 6 12 10 14 C 21 18 20 15 20 79 C 20 142 21 140 12 143 C 6 147 3 149 6 152 C 8 153 53 154 56 152 C 59 149 58 147 52 145 C 41 140 41 143 41 79 C 41 15 41 18 51 14 C 57 13 58 9 57 7 C 54 4 8 4 7 7 z" fill="black"/><!-- width=68 height=163 -->
<path id="gl769" d="M 48 6 C 28 14 18 29 15 61 C 14 70 13 73 11 78 C 8 81 7 83 8 84 C 15 94 15 91 14 121 C 14 130 14 139 14 147 C 13 150 12 151 11 154 C 3 162 4 163 24 163 C 44 165 50 162 41 156 C 33 152 33 149 33 118 C 33 85 31 86 47 86 C 57 86 62 85 61 79 C 59 77 55 74 46 75 C 33 77 30 73 33 51 C 36 18 46 9 66 22 C 74 28 77 28 80 24 C 92 12 69 0 48 6 z" fill="black"/><!-- width=94 height=174 -->
<path id="gl9500" d="M 7 7 C 4 9 6 12 10 14 C 21 18 20 15 20 79 C 20 142 21 140 12 143 C 6 147 3 149 6 152 C 8 153 53 154 56 152 C 59 149 58 147 52 145 C 41 140 41 143 41 79 C 41 15 41 18 51 14 C 57 13 58 9 57 7 C 54 4 8 4 7 7 z" fill="black"/><!-- width=68 height=163 -->
<path id="gl5389" d="M 83 7 C 68 13 66 15 69 22 C 71 24 73 27 73 28 C 77 33 77 66 74 71 C 73 73 73 73 59 74 C 30 75 13 89 8 116 C 3 153 32 180 65 167 C 67 166 69 165 71 163 C 73 165 74 166 75 167 C 81 171 85 171 96 168 C 107 166 109 165 108 160 C 108 159 106 157 103 156 C 95 154 95 156 95 78 C 95 4 95 4 89 6 C 87 6 85 6 83 7 M 67 86 C 75 91 75 92 75 120 C 75 153 74 156 60 156 C 48 156 38 150 32 139 C 27 131 27 110 31 102 C 39 86 55 80 67 86 z" fill="black"/><!-- width=119 height=181 -->
<path id="gl0" d="M 42 6 C 27 8 16 17 10 31 C 5 42 6 67 11 77 C 30 111 83 106 95 68 C 106 31 78 -1 42 6 M 61 18 C 81 28 82 73 63 86 C 45 99 23 78 26 47 C 27 22 42 8 61 18 z" fill="black"/><!-- width=111 height=111 -->
<path id="gl3" d="M 20 8 C 10 13 8 16 13 23 C 16 27 16 28 16 50 C 17 79 16 83 10 89 C 2 96 3 98 25 99 C 46 99 49 96 40 88 C 39 86 36 85 35 84 C 35 75 35 66 35 57 C 33 23 36 20 54 20 C 73 20 75 23 75 56 C 74 83 74 85 67 89 C 64 93 64 96 67 98 C 71 99 101 99 104 98 C 105 95 104 91 99 89 C 94 85 94 83 93 52 C 93 25 93 23 90 18 C 81 3 67 2 44 12 C 39 13 39 13 36 10 C 31 5 27 5 20 8 z" fill="black"/><!-- width=115 height=110 -->
<path id="gl0" d="M 42 6 C 27 8 16 17 10 31 C 5 42 6 67 11 77 C 30 111 83 106 95 68 C 106 31 78 -1 42 6 M 61 18 C 81 28 82 73 63 86 C 45 99 23 78 26 47 C 27 22 42 8 61 18 z" fill="black"/><!-- width=111 height=111 -->
<path id="gl1" d="M 20 11 C 18 13 14 17 11 19 C 4 23 4 25 8 30 C 11 31 12 34 13 35 C 13 36 13 50 13 66 C 13 96 14 103 23 106 C 34 111 54 109 57 103 C 61 98 58 95 49 96 C 33 96 31 94 31 58 C 30 28 30 29 42 29 C 55 30 57 30 60 28 C 62 25 62 24 60 22 C 58 18 58 18 47 18 C 35 17 34 17 31 9 C 29 3 24 3 20 11 z" fill="black"/><!-- width=71 height=121 -->
<path id="gl5394" d="M 54 6 C 33 12 20 30 18 62 C 17 73 17 75 13 78 C 8 83 8 85 13 90 C 14 91 16 93 17 94 C 17 102 17 110 17 118 C 17 131 17 145 17 147 C 16 151 16 154 12 157 C 6 163 4 166 8 167 C 13 168 46 168 49 167 C 51 165 49 161 44 159 C 36 155 36 155 35 123 C 35 113 35 103 35 93 C 36 93 38 92 38 91 C 40 90 43 90 51 90 C 59 91 60 91 62 88 C 70 81 64 76 51 77 C 35 78 34 76 36 55 C 39 19 50 11 69 24 C 78 30 85 29 87 20 C 90 9 71 1 54 6 z" fill="black"/><!-- width=96 height=180 -->
<path id="gl261" d="M 39 6 C 18 10 7 26 7 54 C 7 73 9 79 18 87 C 32 102 63 102 75 87 C 83 80 76 76 67 81 C 46 92 23 75 21 51 C 21 40 23 39 50 40 C 76 41 80 40 81 30 C 81 13 59 1 39 6 M 54 15 C 62 18 62 28 54 30 C 50 32 34 32 30 31 C 28 29 28 25 32 20 C 37 14 46 12 54 15 z" fill="black"/><!-- width=91 height=111 -->
<path id="gl6" d="M 39 3 C 18 9 7 26 7 52 C 7 80 22 96 50 94 C 65 94 78 86 78 78 C 78 74 75 74 67 78 C 47 88 21 72 21 47 C 21 37 23 37 50 37 C 78 37 79 37 80 29 C 83 13 59 0 39 3 M 57 14 C 67 22 59 29 42 29 C 29 29 26 27 29 21 C 34 12 50 8 57 14 z" fill="black"/><!-- width=91 height=106 -->
<path id="gl260" d="M 15 7 C 7 11 6 14 11 22 C 11 23 12 25 13 27 C 13 45 13 63 13 82 C 14 147 14 147 8 153 C 1 160 3 163 23 163 C 41 163 44 160 36 152 C 35 151 33 149 31 147 C 31 124 31 100 31 77 C 31 2 31 3 25 3 C 24 3 19 6 15 7 z" fill="black"/><!-- width=51 height=172 -->
<path id="gl4" d="M 16 9 C 8 13 7 16 12 24 C 13 28 14 32 14 54 C 14 80 13 86 8 87 C 6 90 3 94 4 95 C 7 99 44 99 45 95 C 47 92 44 90 40 90 C 39 90 37 87 35 86 C 34 85 33 84 32 84 C 32 74 32 65 32 56 C 32 29 32 29 34 26 C 38 22 43 22 49 24 C 59 28 66 24 66 17 C 66 4 55 2 44 11 C 37 16 34 14 32 9 C 29 4 26 3 16 9 z" fill="black"/><!-- width=76 height=108 -->
<path id="gl5" d="M 38 7 C 19 13 8 30 8 56 C 8 80 20 96 42 99 C 55 101 71 96 78 89 C 85 79 80 76 69 82 C 49 91 24 76 24 51 C 24 40 24 40 53 40 C 61 40 69 40 78 40 C 78 39 79 38 80 36 C 84 33 84 28 80 22 C 74 8 56 2 38 7 M 57 15 C 65 20 65 28 57 30 C 52 33 35 33 33 30 C 30 28 30 25 34 22 C 40 14 50 12 57 15 z" fill="black"/><!-- width=94 height=112 -->
<path id="gl260" d="M 15 7 C 7 11 6 14 11 22 C 11 23 12 25 13 27 C 13 45 13 63 13 82 C 14 147 14 147 8 153 C 1 160 3 163 23 163 C 41 163 44 160 36 152 C 35 151 33 149 31 147 C 31 124 31 100 31 77 C 31 2 31 3 25 3 C 24 3 19 6 15 7 z" fill="black"/><!-- width=51 height=172 -->
<path id="gl9" d="M 37 7 C 20 12 7 22 7 31 C 7 41 23 38 27 27 C 31 18 37 15 46 17 C 52 20 55 25 55 35 C 56 47 53 48 37 55 C 13 61 7 66 7 78 C 7 96 25 105 43 95 C 52 91 55 91 62 96 C 72 103 95 96 88 88 C 87 87 85 87 82 87 C 71 87 70 81 72 51 C 72 33 72 27 72 22 C 68 8 53 2 37 7 M 53 63 C 58 71 51 86 42 87 C 20 87 21 68 42 61 C 48 60 51 60 53 63 z" fill="black"/><!-- width=98 height=110 -->
<path id="gl772" d="M 7 7 C 5 10 6 12 12 17 C 18 21 35 42 37 49 C 40 55 25 74 10 85 C 6 89 5 89 6 92 C 8 94 8 95 18 95 C 32 95 34 94 34 85 C 32 75 39 64 45 64 C 49 64 54 69 56 75 C 59 79 59 80 56 85 C 54 94 55 95 73 95 C 93 95 97 93 85 84 C 78 78 59 55 58 49 C 55 41 66 25 79 17 C 93 10 92 6 74 6 C 60 6 60 6 59 16 C 59 31 50 37 42 29 C 39 25 37 21 39 13 C 40 7 37 6 22 6 C 13 6 8 6 7 7 z" fill="black"/><!-- width=102 height=104 -->
<path id="gl5" d="M 38 7 C 19 13 8 30 8 56 C 8 80 20 96 42 99 C 55 101 71 96 78 89 C 85 79 80 76 69 82 C 49 91 24 76 24 51 C 24 40 24 40 53 40 C 61 40 69 40 78 40 C 78 39 79 38 80 36 C 84 33 84 28 80 22 C 74 8 56 2 38 7 M 57 15 C 65 20 65 28 57 30 C 52 33 35 33 33 30 C 30 28 30 25 34 22 C 40 14 50 12 57 15 z" fill="black"/><!-- width=94 height=112 -->
<path id="gl258" d="M 77 7 C 66 11 65 14 71 25 C 74 32 75 32 75 47 C 75 70 75 69 57 70 C 26 71 11 84 7 112 C 2 148 32 175 62 161 C 69 158 70 158 76 162 C 81 165 81 165 89 164 C 106 161 112 155 101 151 C 99 149 95 148 94 145 C 93 143 93 85 93 35 C 94 26 94 17 94 8 C 93 8 91 7 91 5 C 88 3 85 3 77 7 M 66 82 C 74 87 75 91 74 118 C 74 126 74 134 74 143 C 72 143 71 145 70 145 C 59 156 37 148 29 131 C 16 102 41 68 66 82 z" fill="black"/><!-- width=118 height=176 -->
<path id="gl2" d="M 18 4 C 11 8 9 19 14 25 C 27 37 43 19 32 7 C 28 3 23 3 18 4 M 18 61 C 9 66 8 70 13 79 C 14 82 16 85 14 110 C 14 119 14 128 14 137 C 13 139 12 140 9 142 C 4 148 4 148 7 150 C 8 152 12 152 24 152 C 45 152 48 150 39 140 C 37 139 35 138 34 137 C 34 124 34 112 34 100 C 34 79 33 61 33 60 C 32 58 25 58 18 61 z" fill="black"/><!-- width=54 height=163 -->
<path id="gl259" d="M 19 8 C 9 13 8 16 13 25 C 19 38 17 88 9 88 C 9 88 8 91 7 92 C 3 98 6 100 24 100 C 46 100 48 98 40 88 C 39 87 37 86 35 83 C 35 75 35 66 35 58 C 34 29 35 27 43 22 C 49 18 62 19 69 24 C 74 29 74 34 74 55 C 74 79 74 83 69 88 C 65 92 64 97 66 98 C 66 98 74 100 83 100 C 104 100 107 97 98 88 C 97 87 95 86 93 83 C 93 75 93 66 93 58 C 93 33 93 32 96 28 C 102 17 123 17 129 29 C 132 33 132 37 132 56 C 132 81 132 85 125 88 C 122 92 122 97 124 98 C 128 100 158 100 160 97 C 163 96 163 93 158 90 C 151 85 150 82 150 55 C 150 28 150 23 145 16 C 137 3 118 2 101 12 C 93 17 90 17 83 13 C 72 4 64 3 51 8 C 40 13 38 13 35 9 C 32 4 28 4 19 8 z" fill="black"/><!-- width=172 height=109 -->
<path id="gl259" d="M 19 8 C 9 13 8 16 13 25 C 19 38 17 88 9 88 C 9 88 8 91 7 92 C 3 98 6 100 24 100 C 46 100 48 98 40 88 C 39 87 37 86 35 83 C 35 75 35 66 35 58 C 34 29 35 27 43 22 C 49 18 62 19 69 24 C 74 29 74 34 74 55 C 74 79 74 83 69 88 C 65 92 64 97 66 98 C 66 98 74 100 83 100 C 104 100 107 97 98 88 C 97 87 95 86 93 83 C 93 75 93 66 93 58 C 93 33 93 32 96 28 C 102 17 123 17 129 29 C 132 33 132 37 132 56 C 132 81 132 85 125 88 C 122 92 122 97 124 98 C 128 100 158 100 160 97 C 163 96 163 93 158 90 C 151 85 150 82 150 55 C 150 28 150 23 145 16 C 137 3 118 2 101 12 C 93 17 90 17 83 13 C 72 4 64 3 51 8 C 40 13 38 13 35 9 C 32 4 28 4 19 8 z" fill="black"/><!-- width=172 height=109 -->
<path id="gl6" d="M 39 3 C 18 9 7 26 7 52 C 7 80 22 96 50 94 C 65 94 78 86 78 78 C 78 74 75 74 67 78 C 47 88 21 72 21 47 C 21 37 23 37 50 37 C 78 37 79 37 80 29 C 83 13 59 0 39 3 M 57 14 C 67 22 59 29 42 29 C 29 29 26 27 29 21 C 34 12 50 8 57 14 z" fill="black"/><!-- width=91 height=106 -->
<path id="gl258" d="M 77 7 C 66 11 65 14 71 25 C 74 32 75 32 75 47 C 75 70 75 69 57 70 C 26 71 11 84 7 112 C 2 148 32 175 62 161 C 69 158 70 158 76 162 C 81 165 81 165 89 164 C 106 161 112 155 101 151 C 99 149 95 148 94 145 C 93 143 93 85 93 35 C 94 26 94 17 94 8 C 93 8 91 7 91 5 C 88 3 85 3 77 7 M 66 82 C 74 87 75 91 74 118 C 74 126 74 134 74 143 C 72 143 71 145 70 145 C 59 156 37 148 29 131 C 16 102 41 68 66 82 z" fill="black"/><!-- width=118 height=176 -->
<path id="gl2" d="M 18 4 C 11 8 9 19 14 25 C 27 37 43 19 32 7 C 28 3 23 3 18 4 M 18 61 C 9 66 8 70 13 79 C 14 82 16 85 14 110 C 14 119 14 128 14 137 C 13 139 12 140 9 142 C 4 148 4 148 7 150 C 8 152 12 152 24 152 C 45 152 48 150 39 140 C 37 139 35 138 34 137 C 34 124 34 112 34 100 C 34 79 33 61 33 60 C 32 58 25 58 18 61 z" fill="black"/><!-- width=54 height=163 -->
<path id="gl9" d="M 37 7 C 20 12 7 22 7 31 C 7 41 23 38 27 27 C 31 18 37 15 46 17 C 52 20 55 25 55 35 C 56 47 53 48 37 55 C 13 61 7 66 7 78 C 7 96 25 105 43 95 C 52 91 55 91 62 96 C 72 103 95 96 88 88 C 87 87 85 87 82 87 C 71 87 70 81 72 51 C 72 33 72 27 72 22 C 68 8 53 2 37 7 M 53 63 C 58 71 51 86 42 87 C 20 87 21 68 42 61 C 48 60 51 60 53 63 z" fill="black"/><!-- width=98 height=110 -->
<path id="gl1027" d="M 22 12 C 20 15 15 19 13 20 C 7 24 6 26 12 32 C 13 33 14 35 16 36 C 16 47 16 56 16 66 C 15 105 18 107 36 111 C 47 112 61 106 60 100 C 60 98 59 98 52 98 C 42 99 37 96 35 91 C 32 85 31 38 33 33 C 35 32 35 31 36 30 C 39 30 43 31 47 31 C 59 31 62 30 62 25 C 62 20 59 18 48 19 C 38 20 37 19 33 12 C 30 4 29 4 22 12 z" fill="black"/><!-- width=72 height=122 -->
<path id="gl261" d="M 39 6 C 18 10 7 26 7 54 C 7 73 9 79 18 87 C 32 102 63 102 75 87 C 83 80 76 76 67 81 C 46 92 23 75 21 51 C 21 40 23 39 50 40 C 76 41 80 40 81 30 C 81 13 59 1 39 6 M 54 15 C 62 18 62 28 54 30 C 50 32 34 32 30 31 C 28 29 28 25 32 20 C 37 14 46 12 54 15 z" fill="black"/><!-- width=91 height=111 -->
<path id="gl512" d="M 20 8 C 9 13 7 17 13 24 C 14 26 15 27 17 29 C 17 48 17 69 17 88 C 17 108 17 127 17 148 C 14 149 13 152 10 153 C 4 159 4 161 7 163 C 9 164 42 164 43 163 C 47 161 46 158 41 154 C 34 149 34 149 35 76 C 35 -1 36 1 20 8 z" fill="black"/><!-- width=55 height=175 -->
<path id="gl5639" d="M 8 6 C 6 8 6 12 10 14 C 18 19 20 23 31 53 C 45 90 45 94 35 113 C 29 125 25 129 18 130 C 4 132 6 152 19 152 C 30 152 34 146 54 98 C 64 73 90 24 93 20 C 94 18 97 15 99 14 C 104 12 105 8 102 6 C 98 2 71 4 69 7 C 68 9 68 10 70 13 C 76 19 75 23 70 38 C 57 71 54 71 46 43 C 38 19 38 20 42 14 C 47 9 47 6 42 4 C 38 3 9 3 8 6 z" fill="black"/><!-- width=114 height=161 -->
<path id="gl519" d="M 11 5 C 3 8 5 19 12 22 C 24 29 22 40 11 48 C 2 53 2 58 11 57 C 22 54 33 39 33 25 C 33 13 20 1 11 5 z" fill="black"/><!-- width=44 height=67 -->
<path id="gl1" d="M 20 11 C 18 13 14 17 11 19 C 4 23 4 25 8 30 C 11 31 12 34 13 35 C 13 36 13 50 13 66 C 13 96 14 103 23 106 C 34 111 54 109 57 103 C 61 98 58 95 49 96 C 33 96 31 94 31 58 C 30 28 30 29 42 29 C 55 30 57 30 60 28 C 62 25 62 24 60 22 C 58 18 58 18 47 18 C 35 17 34 17 31 9 C 29 3 24 3 20 11 z" fill="black"/><!-- width=71 height=121 -->
<path id="gl8" d="M 20 8 C 9 12 8 16 13 25 C 14 26 15 29 15 30 C 15 49 15 67 15 87 C 15 148 16 148 9 154 C 6 158 4 159 6 160 C 8 163 41 164 43 162 C 45 160 45 157 41 153 C 38 152 36 148 36 147 C 35 142 35 95 36 93 C 41 84 55 82 64 87 C 75 91 76 95 75 124 C 75 131 75 140 75 148 C 73 150 71 151 70 153 C 64 158 64 158 65 162 C 67 165 104 164 106 160 C 107 158 107 158 104 156 C 94 148 93 145 94 118 C 95 99 94 89 89 82 C 81 71 66 67 52 73 C 36 81 33 78 35 61 C 36 44 36 9 35 7 C 32 4 27 4 20 8 z" fill="black"/><!-- width=117 height=174 -->
<path id="gl5" d="M 38 7 C 19 13 8 30 8 56 C 8 80 20 96 42 99 C 55 101 71 96 78 89 C 85 79 80 76 69 82 C 49 91 24 76 24 51 C 24 40 24 40 53 40 C 61 40 69 40 78 40 C 78 39 79 38 80 36 C 84 33 84 28 80 22 C 74 8 56 2 38 7 M 57 15 C 65 20 65 28 57 30 C 52 33 35 33 33 30 C 30 28 30 25 34 22 C 40 14 50 12 57 15 z" fill="black"/><!-- width=94 height=112 -->
<path id="gl3" d="M 20 8 C 10 13 8 16 13 23 C 16 27 16 28 16 50 C 17 79 16 83 10 89 C 2 96 3 98 25 99 C 46 99 49 96 40 88 C 39 86 36 85 35 84 C 35 75 35 66 35 57 C 33 23 36 20 54 20 C 73 20 75 23 75 56 C 74 83 74 85 67 89 C 64 93 64 96 67 98 C 71 99 101 99 104 98 C 105 95 104 91 99 89 C 94 85 94 83 93 52 C 93 25 93 23 90 18 C 81 3 67 2 44 12 C 39 13 39 13 36 10 C 31 5 27 5 20 8 z" fill="black"/><!-- width=115 height=110 -->
<path id="gl6416" d="M 8 6 C 6 9 7 11 14 13 C 24 18 23 15 23 77 C 23 140 24 138 14 142 C 7 146 6 148 7 151 C 9 152 56 153 58 151 C 62 148 61 146 54 142 C 44 137 44 141 44 78 C 44 14 44 18 54 13 C 60 12 62 9 60 6 C 58 4 57 3 34 3 C 11 3 9 4 8 6 z" fill="black"/><!-- width=72 height=163 -->
<path id="gl259" d="M 19 8 C 9 13 8 16 13 25 C 19 38 17 88 9 88 C 9 88 8 91 7 92 C 3 98 6 100 24 100 C 46 100 48 98 40 88 C 39 87 37 86 35 83 C 35 75 35 66 35 58 C 34 29 35 27 43 22 C 49 18 62 19 69 24 C 74 29 74 34 74 55 C 74 79 74 83 69 88 C 65 92 64 97 66 98 C 66 98 74 100 83 100 C 104 100 107 97 98 88 C 97 87 95 86 93 83 C 93 75 93 66 93 58 C 93 33 93 32 96 28 C 102 17 123 17 129 29 C 132 33 132 37 132 56 C 132 81 132 85 125 88 C 122 92 122 97 124 98 C 128 100 158 100 160 97 C 163 96 163 93 158 90 C 151 85 150 82 150 55 C 150 28 150 23 145 16 C 137 3 118 2 101 12 C 93 17 90 17 83 13 C 72 4 64 3 51 8 C 40 13 38 13 35 9 C 32 4 28 4 19 8 z" fill="black"/><!-- width=172 height=109 -->
<path id="gl256" d="M 16 4 C 4 6 3 9 9 18 C 12 23 13 23 13 49 C 13 63 13 78 14 80 C 18 95 38 101 57 94 C 68 89 68 89 72 94 C 75 98 78 98 93 94 C 105 91 108 88 99 83 C 89 79 89 79 90 42 C 90 23 90 7 90 7 C 89 3 84 3 75 4 C 62 6 59 9 67 16 C 68 18 70 22 70 24 C 73 31 73 69 70 74 C 65 86 41 88 33 77 C 31 72 31 72 31 39 C 31 28 32 17 32 7 C 31 6 29 6 28 4 C 26 2 24 2 16 4 z" fill="black"/><!-- width=114 height=109 -->
<path id="gl257" d="M 31 6 C 24 8 17 13 13 20 C 6 35 11 45 33 58 C 48 69 52 77 45 85 C 37 94 25 91 19 80 C 11 66 3 67 6 82 C 7 93 13 99 28 100 C 53 104 72 83 62 62 C 60 55 56 52 42 44 C 26 34 22 26 30 18 C 37 12 46 14 53 24 C 60 33 67 29 64 18 C 62 7 50 3 31 6 z" fill="black"/><!-- width=78 height=112 -->
<path id="gl1" d="M 20 11 C 18 13 14 17 11 19 C 4 23 4 25 8 30 C 11 31 12 34 13 35 C 13 36 13 50 13 66 C 13 96 14 103 23 106 C 34 111 54 109 57 103 C 61 98 58 95 49 96 C 33 96 31 94 31 58 C 30 28 30 29 42 29 C 55 30 57 30 60 28 C 62 25 62 24 60 22 C 58 18 58 18 47 18 C 35 17 34 17 31 9 C 29 3 24 3 20 11 z" fill="black"/><!-- width=71 height=121 -->
<path id="gl513" d="M 14 8 C 4 12 3 15 8 24 C 9 25 10 27 12 30 C 12 51 12 72 12 94 C 10 165 10 160 20 161 C 24 162 31 164 37 165 C 72 172 101 146 98 111 C 96 82 71 63 45 72 C 30 78 28 76 30 49 C 31 14 31 9 30 7 C 27 4 21 4 14 8 M 56 85 C 70 90 77 101 77 118 C 78 141 68 155 50 155 C 35 155 30 147 30 118 C 28 106 30 94 30 92 C 32 83 43 80 56 85 z" fill="black"/><!-- width=112 height=177 -->
<path id="gl8454" d="M 40 7 C 4 18 0 77 32 95 C 49 103 77 98 85 83 C 88 76 83 74 72 80 C 50 91 27 75 27 49 C 27 40 27 40 56 40 C 83 41 87 40 87 30 C 87 13 62 0 40 7 M 61 17 C 65 19 66 20 66 24 C 66 29 61 32 49 32 C 37 33 33 32 33 28 C 33 18 53 11 61 17 z" fill="black"/><!-- width=97 height=111 -->
<path id="gl258" d="M 77 7 C 66 11 65 14 71 25 C 74 32 75 32 75 47 C 75 70 75 69 57 70 C 26 71 11 84 7 112 C 2 148 32 175 62 161 C 69 158 70 158 76 162 C 81 165 81 165 89 164 C 106 161 112 155 101 151 C 99 149 95 148 94 145 C 93 143 93 85 93 35 C 94 26 94 17 94 8 C 93 8 91 7 91 5 C 88 3 85 3 77 7 M 66 82 C 74 87 75 91 74 118 C 74 126 74 134 74 143 C 72 143 71 145 70 145 C 59 156 37 148 29 131 C 16 102 41 68 66 82 z" fill="black"/><!-- width=118 height=176 -->
<path id="gl0" d="M 42 6 C 27 8 16 17 10 31 C 5 42 6 67 11 77 C 30 111 83 106 95 68 C 106 31 78 -1 42 6 M 61 18 C 81 28 82 73 63 86 C 45 99 23 78 26 47 C 27 22 42 8 61 18 z" fill="black"/><!-- width=111 height=111 -->
<path id="gl2" d="M 18 4 C 11 8 9 19 14 25 C 27 37 43 19 32 7 C 28 3 23 3 18 4 M 18 61 C 9 66 8 70 13 79 C 14 82 16 85 14 110 C 14 119 14 128 14 137 C 13 139 12 140 9 142 C 4 148 4 148 7 150 C 8 152 12 152 24 152 C 45 152 48 150 39 140 C 37 139 35 138 34 137 C 34 124 34 112 34 100 C 34 79 33 61 33 60 C 32 58 25 58 18 61 z" fill="black"/><!-- width=54 height=163 -->
<path id="gl1026" d="M 21 10 C 10 14 9 18 14 26 C 15 27 16 30 18 32 C 16 40 16 50 16 58 C 16 67 16 76 16 85 C 14 87 13 88 10 91 C 9 93 8 94 6 97 C 7 97 7 98 8 98 C 12 102 42 102 44 99 C 46 97 46 94 42 91 C 36 86 34 82 34 57 C 34 32 36 28 44 24 C 49 21 62 20 67 24 C 75 27 75 30 75 58 C 75 68 75 76 75 85 C 74 87 72 88 70 91 C 64 96 64 97 67 98 C 70 102 100 102 104 98 C 106 96 106 96 102 92 C 94 85 94 84 94 55 C 94 42 93 28 93 26 C 88 9 69 3 50 12 C 43 15 39 15 37 13 C 33 6 30 6 21 10 z" fill="black"/><!-- width=116 height=111 -->
<path id="gl5405" d="M 34 7 C 12 13 3 40 18 58 C 24 66 24 70 17 77 C 8 84 8 89 17 98 C 23 103 22 106 15 115 C -9 143 34 172 74 152 C 101 138 109 103 87 92 C 79 88 79 88 63 88 C 34 89 31 89 29 83 C 27 74 31 71 49 70 C 71 68 81 58 83 38 C 84 28 88 24 94 24 C 98 24 100 22 100 18 C 100 13 98 12 87 12 C 78 12 73 11 66 8 C 56 4 41 4 34 7 M 55 17 C 72 25 67 61 49 61 C 39 61 30 51 30 38 C 30 20 43 11 55 17 M 74 108 C 89 115 86 135 67 142 C 60 144 44 144 38 142 C 23 135 22 115 36 108 C 43 104 67 104 74 108 z" fill="black"/><!-- width=110 height=169 -->
<path id="gl514" d="M 28 6 C 17 9 9 18 9 29 C 9 41 13 46 32 57 C 47 67 50 73 46 82 C 39 93 26 90 17 77 C 13 70 12 69 9 70 C 6 70 6 70 6 78 C 6 93 12 96 31 96 C 52 96 62 89 63 74 C 64 60 58 52 41 42 C 27 34 23 28 27 21 C 31 11 41 11 50 21 C 59 29 64 29 63 18 C 62 8 55 4 42 4 C 37 4 31 4 28 6 z" fill="black"/><!-- width=75 height=108 -->
<path id="gl0" d="M 42 6 C 27 8 16 17 10 31 C 5 42 6 67 11 77 C 30 111 83 106 95 68 C 106 31 78 -1 42 6 M 61 18 C 81 28 82 73 63 86 C 45 99 23 78 26 47 C 27 22 42 8 61 18 z" fill="black"/><!-- width=111 height=111 -->
<path id="gl259" d="M 19 8 C 9 13 8 16 13 25 C 19 38 17 88 9 88 C 9 88 8 91 7 92 C 3 98 6 100 24 100 C 46 100 48 98 40 88 C 39 87 37 86 35 83 C 35 75 35 66 35 58 C 34 29 35 27 43 22 C 49 18 62 19 69 24 C 74 29 74 34 74 55 C 74 79 74 83 69 88 C 65 92 64 97 66 98 C 66 98 74 100 83 100 C 104 100 107 97 98 88 C 97 87 95 86 93 83 C 93 75 93 66 93 58 C 93 33 93 32 96 28 C 102 17 123 17 129 29 C 132 33 132 37 132 56 C 132 81 132 85 125 88 C 122 92 122 97 124 98 C 128 100 158 100 160 97 C 163 96 163 93 158 90 C 151 85 150 82 150 55 C 150 28 150 23 145 16 C 137 3 118 2 101 12 C 93 17 90 17 83 13 C 72 4 64 3 51 8 C 40 13 38 13 35 9 C 32 4 28 4 19 8 z" fill="black"/><!-- width=172 height=109 -->
<path id="gl261" d="M 39 6 C 18 10 7 26 7 54 C 7 73 9 79 18 87 C 32 102 63 102 75 87 C 83 80 76 76 67 81 C 46 92 23 75 21 51 C 21 40 23 39 50 40 C 76 41 80 40 81 30 C 81 13 59 1 39 6 M 54 15 C 62 18 62 28 54 30 C 50 32 34 32 30 31 C 28 29 28 25 32 20 C 37 14 46 12 54 15 z" fill="black"/><!-- width=91 height=111 -->
<path id="gl1" d="M 20 11 C 18 13 14 17 11 19 C 4 23 4 25 8 30 C 11 31 12 34 13 35 C 13 36 13 50 13 66 C 13 96 14 103 23 106 C 34 111 54 109 57 103 C 61 98 58 95 49 96 C 33 96 31 94 31 58 C 30 28 30 29 42 29 C 55 30 57 30 60 28 C 62 25 62 24 60 22 C 58 18 58 18 47 18 C 35 17 34 17 31 9 C 29 3 24 3 20 11 z" fill="black"/><!-- width=71 height=121 -->
<path id="gl1796" d="M 20 9 C 11 14 9 17 14 25 C 18 30 18 31 18 115 C 18 126 18 138 17 150 C 15 151 14 153 12 154 C 6 161 4 163 11 164 C 15 167 40 167 44 164 C 47 163 47 158 44 156 C 38 152 38 148 38 121 C 38 113 38 104 38 97 C 39 94 40 93 40 92 C 47 84 63 83 71 92 C 76 95 77 103 77 122 C 77 145 77 150 71 154 C 62 163 66 166 88 166 C 109 166 114 163 104 156 C 97 151 97 150 97 119 C 95 90 95 90 92 84 C 84 72 66 68 50 77 C 47 78 44 79 43 78 C 36 78 36 75 38 41 C 38 17 38 12 36 9 C 34 6 29 6 20 9 z" fill="black"/><!-- width=119 height=177 -->
<path id="gl2" d="M 18 4 C 11 8 9 19 14 25 C 27 37 43 19 32 7 C 28 3 23 3 18 4 M 18 61 C 9 66 8 70 13 79 C 14 82 16 85 14 110 C 14 119 14 128 14 137 C 13 139 12 140 9 142 C 4 148 4 148 7 150 C 8 152 12 152 24 152 C 45 152 48 150 39 140 C 37 139 35 138 34 137 C 34 124 34 112 34 100 C 34 79 33 61 33 60 C 32 58 25 58 18 61 z" fill="black"/><!-- width=54 height=163 -->
<path id="gl3" d="M 20 8 C 10 13 8 16 13 23 C 16 27 16 28 16 50 C 17 79 16 83 10 89 C 2 96 3 98 25 99 C 46 99 49 96 40 88 C 39 86 36 85 35 84 C 35 75 35 66 35 57 C 33 23 36 20 54 20 C 73 20 75 23 75 56 C 74 83 74 85 67 89 C 64 93 64 96 67 98 C 71 99 101 99 104 98 C 105 95 104 91 99 89 C 94 85 94 83 93 52 C 93 25 93 23 90 18 C 81 3 67 2 44 12 C 39 13 39 13 36 10 C 31 5 27 5 20 8 z" fill="black"/><!-- width=115 height=110 -->
<path id="gl4888" d="M 34 7 C 11 14 3 39 17 59 C 23 67 23 71 17 77 C 9 84 9 89 16 96 C 22 103 22 105 17 110 C 7 122 5 129 10 139 C 19 156 53 160 77 147 C 98 135 107 110 92 96 C 86 89 79 87 58 89 C 38 90 32 89 29 83 C 26 74 33 71 49 68 C 71 67 80 59 83 38 C 85 28 86 26 92 24 C 105 22 102 11 87 11 C 82 11 76 11 70 9 C 58 5 41 4 34 7 M 55 17 C 70 28 67 55 52 60 C 42 64 33 55 30 42 C 27 23 43 8 55 17 M 74 107 C 87 114 85 130 70 139 C 64 141 48 142 41 140 C 23 136 21 112 36 105 C 42 103 67 103 74 107 z" fill="black"/><!-- width=110 height=165 -->
<path id="gl264" d="M 122 6 C 119 7 119 9 122 15 C 125 20 125 20 118 42 C 111 58 109 62 105 60 C 103 59 103 58 96 41 C 87 20 87 19 94 13 C 97 10 98 9 97 8 C 96 6 93 6 77 6 C 60 6 60 6 60 8 C 59 10 62 13 65 17 C 73 23 73 26 65 43 C 55 68 53 68 42 41 C 36 23 36 19 40 14 C 45 7 42 6 24 6 C 2 6 0 7 10 17 C 13 20 17 25 18 27 C 24 41 36 71 40 82 C 41 87 43 93 45 94 C 49 99 54 96 57 86 C 63 65 74 43 77 43 C 81 43 87 60 96 83 C 98 93 101 97 105 96 C 108 96 109 92 115 77 C 116 74 120 65 122 58 C 125 52 130 41 133 35 C 137 25 139 21 144 17 C 152 9 152 9 149 6 C 146 3 127 3 122 6 z" fill="black"/><!-- width=160 height=107 -->
<path id="gl518" d="M 21 7 C 10 12 7 15 12 22 C 15 27 15 28 15 55 C 15 64 15 73 15 81 C 13 83 12 84 10 86 C 2 94 3 95 25 97 C 44 97 49 97 47 93 C 47 90 46 89 40 86 C 34 85 32 83 32 57 C 32 35 32 28 36 23 C 39 21 46 21 50 23 C 62 30 74 18 65 8 C 60 5 55 5 46 10 C 37 13 36 13 32 8 C 28 3 30 3 21 7 z" fill="black"/><!-- width=78 height=107 -->
<path id="gl0" d="M 42 6 C 27 8 16 17 10 31 C 5 42 6 67 11 77 C 30 111 83 106 95 68 C 106 31 78 -1 42 6 M 61 18 C 81 28 82 73 63 86 C 45 99 23 78 26 47 C 27 22 42 8 61 18 z" fill="black"/><!-- width=111 height=111 -->
<path id="gl3" d="M 20 8 C 10 13 8 16 13 23 C 16 27 16 28 16 50 C 17 79 16 83 10 89 C 2 96 3 98 25 99 C 46 99 49 96 40 88 C 39 86 36 85 35 84 C 35 75 35 66 35 57 C 33 23 36 20 54 20 C 73 20 75 23 75 56 C 74 83 74 85 67 89 C 64 93 64 96 67 98 C 71 99 101 99 104 98 C 105 95 104 91 99 89 C 94 85 94 83 93 52 C 93 25 93 23 90 18 C 81 3 67 2 44 12 C 39 13 39 13 36 10 C 31 5 27 5 20 8 z" fill="black"/><!-- width=115 height=110 -->
<path id="gl5405" d="M 34 7 C 12 13 3 40 18 58 C 24 66 24 70 17 77 C 8 84 8 89 17 98 C 23 103 22 106 15 115 C -9 143 34 172 74 152 C 101 138 109 103 87 92 C 79 88 79 88 63 88 C 34 89 31 89 29 83 C 27 74 31 71 49 70 C 71 68 81 58 83 38 C 84 28 88 24 94 24 C 98 24 100 22 100 18 C 100 13 98 12 87 12 C 78 12 73 11 66 8 C 56 4 41 4 34 7 M 55 17 C 72 25 67 61 49 61 C 39 61 30 51 30 38 C 30 20 43 11 55 17 M 74 108 C 89 115 86 135 67 142 C 60 144 44 144 38 142 C 23 135 22 115 36 108 C 43 104 67 104 74 108 z" fill="black"/><!-- width=110 height=169 -->
<path id="gl516" d="M 15 7 C 2 11 5 31 18 31 C 30 31 35 18 27 10 C 24 9 23 7 22 7 C 22 7 20 6 19 6 C 19 6 17 6 15 7 z" fill="black"/><!-- width=44 height=43 -->
<path id="gl1797" d="M 12 7 C 7 10 3 31 6 35 C 8 39 9 38 16 31 C 25 21 29 20 44 20 C 66 19 64 13 64 81 C 64 148 65 142 48 151 C 44 152 43 154 45 157 C 48 160 99 160 101 157 C 103 153 102 152 96 148 C 84 143 85 147 85 82 C 85 62 85 43 85 24 C 87 24 88 22 89 21 C 91 19 93 19 106 20 C 124 20 125 21 134 33 C 137 39 141 39 143 36 C 145 33 146 27 146 20 C 147 7 146 4 139 6 C 136 6 131 7 129 7 C 125 8 102 8 76 8 C 32 8 29 8 22 6 C 14 3 15 3 12 7 z" fill="black"/><!-- width=157 height=169 -->
<path id="gl5892" d="M 9 7 C 7 8 7 10 13 15 C 21 21 21 24 20 83 C 20 141 20 139 12 145 C 0 153 3 154 31 155 C 52 155 54 155 57 153 C 59 150 57 147 51 145 C 42 143 41 138 41 110 C 41 83 40 83 58 85 C 72 85 77 86 81 91 C 88 102 90 103 93 99 C 96 97 96 64 94 59 C 91 55 87 57 83 64 C 80 71 76 72 59 74 C 47 75 47 75 43 71 C 42 70 41 69 40 69 C 41 60 41 52 41 43 C 41 13 40 15 60 15 C 80 17 85 18 91 27 C 99 40 103 36 103 15 C 102 4 104 6 54 6 C 27 6 10 6 9 7 z" fill="black"/><!-- width=111 height=166 -->
</defs>
<use xlink:href="#gl5663" x="0" y="65"/>
<use xlink:href="#gl516" x="80" y="136"/>
<use xlink:href="#gl9500" x="356" y="12"/>
<use xlink:href="#gl769" x="430" y="1"/>
<use xlink:href="#gl9500" x="561" y="13"/>
<use xlink:href="#gl5389" x="683" y="0"/>
<use xlink:href="#gl0" x="798" y="69"/>
<use xlink:href="#gl3" x="963" y="68"/>
<use xlink:href="#gl0" x="1076" y="69"/>
<use xlink:href="#gl1" x="1185" y="60"/>
<use xlink:href="#gl5394" x="1306" y="0"/>
<use xlink:href="#gl261" x="1371" y="70"/>
<use xlink:href="#gl6" x="1458" y="72"/>
<use xlink:href="#gl260" x="1547" y="4"/>
<use xlink:href="#gl4" x="1658" y="69"/>
<use xlink:href="#gl5" x="1723" y="69"/>
<use xlink:href="#gl260" x="1814" y="6"/>
<use xlink:href="#gl9" x="1865" y="70"/>
<use xlink:href="#gl772" x="1953" y="73"/>
<use xlink:href="#gl5" x="2047" y="69"/>
<use xlink:href="#gl258" x="2134" y="4"/>
<use xlink:href="#gl2" x="2305" y="14"/>
<use xlink:href="#gl259" x="2359" y="69"/>
<use xlink:href="#gl259" x="2533" y="69"/>
<use xlink:href="#gl6" x="2704" y="73"/>
<use xlink:href="#gl258" x="2790" y="4"/>
<use xlink:href="#gl2" x="2905" y="15"/>
<use xlink:href="#gl9" x="2957" y="70"/>
<use xlink:href="#gl1027" x="3049" y="59"/>
<use xlink:href="#gl261" x="3117" y="71"/>
<use xlink:href="#gl512" x="3202" y="4"/>
<use xlink:href="#gl5639" x="3251" y="73"/>
<use xlink:href="#gl519" x="3342" y="135"/>
<use xlink:href="#gl1" x="3448" y="61"/>
<use xlink:href="#gl8" x="3513" y="5"/>
<use xlink:href="#gl5" x="3626" y="70"/>
<use xlink:href="#gl3" x="3715" y="70"/>
<use xlink:href="#gl6416" x="3885" y="16"/>
<use xlink:href="#gl259" x="4016" y="70"/>
<use xlink:href="#gl256" x="4190" y="74"/>
<use xlink:href="#gl257" x="4298" y="71"/>
<use xlink:href="#gl1" x="4374" y="62"/>
<use xlink:href="#gl513" x="4496" y="6"/>
<use xlink:href="#gl8454" x="4599" y="71"/>
<use xlink:href="#gl258" x="350" y="328"/>
<use xlink:href="#gl0" x="463" y="392"/>
<use xlink:href="#gl2" x="573" y="337"/>
<use xlink:href="#gl1026" x="627" y="390"/>
<use xlink:href="#gl5405" x="737" y="392"/>
<use xlink:href="#gl514" x="893" y="394"/>
<use xlink:href="#gl0" x="966" y="393"/>
<use xlink:href="#gl259" x="1075" y="392"/>
<use xlink:href="#gl261" x="1247" y="393"/>
<use xlink:href="#gl1" x="1335" y="383"/>
<use xlink:href="#gl1796" x="1396" y="325"/>
<use xlink:href="#gl2" x="1518" y="338"/>
<use xlink:href="#gl3" x="1573" y="392"/>
<use xlink:href="#gl4888" x="1683" y="395"/>
<use xlink:href="#gl264" x="1834" y="395"/>
<use xlink:href="#gl518" x="1988" y="394"/>
<use xlink:href="#gl0" x="2058" y="393"/>
<use xlink:href="#gl3" x="2166" y="392"/>
<use xlink:href="#gl5405" x="2276" y="393"/>
<use xlink:href="#gl516" x="2383" y="461"/>
<use xlink:href="#gl1797" x="5527" y="336"/>
<use xlink:href="#gl5892" x="6124" y="340"/>
</svg>