<svg xmlns="http://www.w3.org/2000/svg" xmlns:xlink="http://www.w3.org/1999/xlink" width="492px" height="86px" viewBox="0 0 4929 864" version="1.1">
<defs>
<path id="gl42513" d="M 84 2 C 81 3 80 3 79 3 C 79 4 76 6 74 6 C 64 8 68 16 79 16 C 80 16 84 19 86 20 C 88 21 90 22 91 24 C 91 26 91 30 91 32 C 91 38 91 42 90 45 C 87 48 87 51 86 54 C 86 55 86 58 85 61 C 84 63 82 67 81 72 C 80 74 79 80 78 82 C 76 86 75 92 74 97 C 72 103 70 109 68 111 C 67 114 66 117 66 118 C 66 121 66 124 64 127 C 62 130 61 134 61 135 C 61 138 61 140 60 142 C 57 145 56 147 56 150 C 56 151 56 154 55 157 C 54 159 51 163 51 166 C 51 169 50 172 49 175 C 48 176 46 180 46 183 C 46 186 45 189 44 190 C 43 190 43 194 43 196 C 43 199 40 204 39 206 C 38 210 36 213 36 214 C 36 216 36 218 34 219 C 32 220 30 224 27 226 C 25 229 22 231 20 231 C 14 232 4 236 3 238 C 2 240 2 241 4 243 C 8 248 14 248 36 246 C 51 243 55 243 72 245 C 91 247 102 247 114 245 C 117 243 124 243 130 243 C 138 243 142 242 145 241 C 146 240 151 238 153 238 C 156 238 160 236 162 235 C 164 234 168 232 169 232 C 171 232 174 232 176 230 C 178 229 183 228 186 226 C 192 224 194 223 211 212 C 225 202 242 184 251 169 C 258 153 263 140 263 132 C 263 129 264 122 266 117 C 269 108 269 100 266 91 C 265 88 264 82 264 78 C 264 74 264 72 264 70 C 263 69 261 67 260 63 C 253 43 236 25 216 15 C 214 15 212 14 211 13 C 208 12 206 12 206 12 C 205 12 202 10 200 8 C 198 7 194 6 192 6 C 189 6 183 6 180 3 C 174 2 170 1 129 2 C 105 2 85 2 84 2 M 177 20 C 206 30 218 42 228 66 C 230 70 231 75 231 78 C 231 81 231 87 232 91 C 235 106 230 133 223 152 C 212 180 181 211 159 217 C 157 218 153 219 152 220 C 151 222 148 222 146 222 C 144 222 141 223 139 225 C 136 226 133 228 124 228 C 120 228 111 228 108 229 C 90 231 72 226 69 217 C 68 212 70 196 74 192 C 75 189 75 186 75 184 C 75 182 76 180 78 177 C 79 175 80 171 81 169 C 81 165 82 162 84 160 C 85 159 86 156 86 153 C 86 150 87 146 88 145 C 90 145 91 141 91 139 C 91 136 93 132 94 129 C 96 127 96 123 96 122 C 96 121 97 117 99 115 C 100 111 100 108 100 106 C 100 105 102 102 104 99 C 105 97 105 93 105 91 C 105 88 106 85 109 82 C 110 79 110 76 110 74 C 110 73 111 69 112 67 C 115 62 118 50 120 42 C 121 39 122 34 123 32 C 126 28 126 26 126 25 C 126 25 128 22 129 20 C 130 19 132 18 133 16 C 139 16 145 18 151 18 C 165 18 170 19 177 20 z" fill="black"/><!-- width=278 height=254 -->
<path id="gl42514" d="M 42 6 C 24 10 2 36 9 43 C 12 46 14 45 21 38 C 28 31 32 30 36 31 C 39 33 40 38 38 43 C 37 45 36 49 36 52 C 36 55 33 58 32 61 C 32 63 30 67 30 69 C 30 70 28 74 27 74 C 26 76 22 90 20 96 C 20 98 19 103 18 104 C 16 106 15 110 14 112 C 14 115 12 121 10 126 C 3 147 3 147 6 152 C 8 158 13 159 18 157 C 22 154 25 151 30 138 C 40 110 62 70 82 43 C 90 32 96 31 100 42 C 106 52 114 51 118 38 C 126 21 120 6 106 4 C 96 4 90 12 74 33 C 68 43 62 50 61 50 C 56 50 56 44 60 30 C 64 12 56 1 42 6 z" fill="black"/><!-- width=129 height=168 -->
<path id="gl42515" d="M 50 8 C 45 10 34 16 27 22 C 8 36 1 44 4 50 C 7 54 12 52 22 43 C 30 36 33 34 37 37 C 42 39 40 44 34 56 C 32 61 28 68 27 72 C 26 75 25 80 24 85 C 19 96 14 106 13 112 C 9 126 8 129 6 134 C 3 142 9 154 18 157 C 26 159 57 136 81 111 C 90 102 92 100 96 104 C 99 108 98 112 91 124 C 81 144 82 158 96 158 C 104 158 124 145 145 128 C 156 118 158 111 152 108 C 148 105 148 105 136 116 C 126 127 121 130 117 127 C 115 126 116 115 118 108 C 123 98 127 90 128 87 C 128 86 132 78 135 69 C 139 60 142 50 144 48 C 144 46 147 39 150 34 C 158 16 156 7 144 7 C 136 8 135 9 124 28 C 115 50 94 81 84 92 C 74 102 51 122 48 126 C 37 132 31 122 38 109 C 39 105 43 99 44 96 C 45 91 48 85 49 82 C 54 73 56 66 58 60 C 61 55 63 49 64 44 C 66 39 68 34 69 32 C 75 21 75 10 70 6 C 66 3 61 3 50 8 z" fill="black"/><!-- width=163 height=168 -->
<path id="gl42752" d="M 104 8 C 103 9 99 9 98 10 C 90 13 68 28 61 38 C 56 45 48 63 46 68 C 45 70 45 74 44 76 C 39 87 44 102 56 114 C 61 117 63 122 63 123 C 63 124 58 135 56 138 C 56 138 56 145 56 152 C 56 166 56 165 42 171 C 25 178 10 192 8 202 C 7 205 6 208 6 208 C 3 210 3 219 7 225 C 19 249 67 259 104 246 C 108 245 112 243 115 243 C 117 242 120 241 121 240 C 122 240 126 237 129 236 C 138 231 146 222 147 217 C 147 214 148 211 150 208 C 151 206 151 204 150 200 C 148 199 147 195 147 194 C 147 188 130 172 111 163 C 98 156 82 145 81 141 C 75 127 78 123 98 115 C 104 114 109 111 109 110 C 110 110 114 109 115 108 C 123 104 142 82 147 72 C 148 69 150 66 151 63 C 152 61 153 56 153 46 C 154 27 157 25 169 27 C 182 30 188 27 188 18 C 188 6 181 3 164 9 C 154 12 147 12 141 9 C 135 6 110 6 104 8 M 127 21 C 132 25 132 37 127 50 C 121 63 111 80 105 86 C 104 87 103 88 103 90 C 103 93 85 108 79 108 C 64 108 64 85 80 60 C 99 27 115 15 127 21 M 87 177 C 91 178 94 181 96 182 C 96 183 97 184 98 184 C 100 184 112 194 118 200 C 129 212 120 228 98 232 C 94 232 88 234 86 235 C 79 236 67 235 56 232 C 28 224 22 201 44 187 C 63 174 75 171 87 177 z" fill="black"/><!-- width=196 height=259 -->
<path id="gl42753" d="M 70 8 C 69 9 67 10 66 10 C 61 13 46 25 44 28 C 39 34 32 49 32 54 C 32 56 33 61 36 63 C 37 66 37 68 37 69 C 37 70 43 81 44 84 C 45 84 46 86 46 87 C 46 90 49 92 50 92 C 51 93 51 96 51 97 C 51 98 52 100 54 102 C 55 103 57 105 57 108 C 57 110 58 114 58 115 C 60 121 57 129 52 134 C 46 139 37 138 28 132 C 16 123 14 122 10 124 C 4 128 1 140 6 145 C 7 146 9 150 12 152 C 13 153 14 154 15 156 C 20 156 25 156 28 156 C 40 156 44 156 45 153 C 46 152 49 152 49 152 C 55 152 70 136 75 127 C 76 124 78 122 79 120 C 81 115 81 93 78 88 C 76 87 76 85 76 84 C 76 82 74 80 73 79 C 66 70 57 50 57 42 C 57 25 73 20 86 32 C 98 43 111 32 104 19 C 98 9 94 7 84 7 C 76 7 73 7 70 8 z" fill="black"/><!-- width=115 height=163 -->
<path id="gl42754" d="M 205 4 C 202 4 199 6 195 7 C 184 9 163 22 153 34 C 140 50 128 76 121 104 C 120 111 115 120 112 122 C 111 122 106 122 100 122 C 78 123 72 138 94 141 C 106 142 108 142 106 147 C 106 150 105 156 105 159 C 104 163 103 166 102 169 C 100 171 99 176 99 180 C 98 184 97 188 96 189 C 96 190 94 193 94 196 C 94 200 93 205 91 208 C 90 211 88 216 88 218 C 88 219 88 224 87 226 C 85 229 85 232 85 237 C 85 242 84 246 82 248 C 80 251 80 254 80 257 C 80 259 79 263 76 265 C 75 267 74 271 74 273 C 74 276 74 281 72 283 C 70 285 69 290 69 294 C 69 297 67 302 66 305 C 64 306 63 311 63 313 C 63 317 63 319 62 319 C 61 320 60 323 60 325 C 57 335 48 345 40 345 C 37 345 30 342 22 335 C 15 326 14 326 7 333 C 1 341 0 343 4 351 C 10 362 13 362 28 363 C 43 365 45 365 58 355 C 68 349 76 338 82 327 C 84 324 87 318 88 315 C 90 313 91 311 91 308 C 91 307 91 303 93 301 C 94 299 96 296 96 294 C 96 293 96 289 97 287 C 99 284 99 281 99 279 C 99 278 100 275 102 272 C 103 270 105 265 105 261 C 105 259 106 255 108 254 C 108 253 109 248 110 245 C 112 235 116 222 118 217 C 120 214 121 212 121 210 C 121 208 121 205 123 201 C 124 198 126 194 126 192 C 126 189 126 184 127 182 C 129 178 129 175 129 174 C 129 172 130 168 132 164 C 134 160 134 157 134 156 C 134 152 140 145 142 142 C 145 140 148 140 164 140 C 186 140 192 139 189 130 C 187 124 183 123 166 122 C 154 122 151 122 150 121 C 147 117 148 105 152 98 C 153 93 156 90 156 88 C 156 86 156 84 157 81 C 159 79 159 75 159 74 C 159 73 168 56 175 45 C 183 28 196 19 206 21 C 212 24 218 31 220 37 C 223 45 224 48 228 51 C 229 52 230 54 231 55 C 232 54 234 52 235 52 C 251 45 252 21 237 10 C 228 3 213 1 205 4 z" fill="black"/><!-- width=254 height=374 -->
<path id="gl42755" d="M 81 7 C 69 10 66 11 58 17 C 16 48 -4 121 17 149 C 42 177 98 149 121 95 C 129 75 131 70 131 50 C 131 27 129 21 119 13 C 109 4 96 2 81 7 M 97 21 C 106 25 108 36 103 54 C 101 67 96 82 94 88 C 92 90 92 92 92 92 C 92 94 89 98 87 106 C 70 138 51 153 39 143 C 26 132 34 95 59 50 C 71 26 87 15 97 21 z" fill="black"/><!-- width=143 height=169 -->
<path id="gl42756" d="M 37 8 C 30 10 18 21 14 28 C 8 36 8 39 10 42 C 14 45 16 44 25 36 C 32 30 34 30 38 32 C 42 34 40 44 37 52 C 36 56 33 60 33 61 C 33 61 32 68 30 74 C 27 81 25 88 24 92 C 22 94 21 98 20 100 C 20 102 19 104 18 106 C 16 114 10 128 10 129 C 9 129 9 132 9 133 C 9 134 8 136 7 140 C 3 150 7 156 16 156 C 20 156 26 150 26 147 C 26 147 27 144 28 141 C 37 126 39 118 49 99 C 55 86 63 72 68 66 C 72 58 76 51 78 49 C 88 33 98 30 103 40 C 105 50 115 51 118 42 C 120 39 121 34 123 32 C 126 26 126 21 122 14 C 118 7 116 4 108 6 C 97 6 87 14 73 38 C 67 46 62 51 60 49 C 57 48 57 44 61 31 C 63 15 63 13 60 8 C 55 4 44 3 37 8 z" fill="black"/><!-- width=135 height=164 -->
<path id="gl42757" d="M 200 3 C 200 3 196 4 194 7 C 192 8 188 9 186 10 C 181 13 175 21 174 27 C 174 28 172 31 171 32 C 170 32 170 33 170 34 C 170 36 168 38 166 40 C 164 43 160 49 156 54 C 153 58 148 66 146 68 C 140 76 133 86 130 92 C 129 94 127 98 126 99 C 124 100 120 106 116 112 C 112 118 106 126 104 129 C 98 136 93 144 87 153 C 78 166 76 169 70 176 C 62 187 56 195 55 196 C 54 200 45 211 37 220 C 28 229 18 236 12 236 C 6 236 0 242 3 247 C 3 248 6 248 45 248 C 79 248 82 248 79 241 C 78 238 76 237 73 236 C 62 234 58 228 63 223 C 66 222 67 220 67 219 C 67 218 68 214 70 212 C 73 210 75 206 76 204 C 78 201 79 199 81 198 C 82 196 85 193 86 189 C 92 180 96 174 99 170 C 100 168 103 165 103 164 C 103 163 105 160 108 159 C 112 154 168 153 172 157 C 177 160 177 168 175 178 C 174 183 172 194 172 204 C 171 228 166 235 152 236 C 144 237 140 242 145 246 C 146 248 228 248 229 246 C 234 242 230 237 222 236 C 211 235 207 232 204 225 C 202 223 201 220 200 219 C 201 212 201 206 202 199 C 204 188 205 164 206 145 C 206 126 207 106 207 102 C 208 98 208 87 208 79 C 208 70 210 61 211 60 C 212 54 214 4 212 3 C 211 1 201 1 200 3 M 183 56 C 184 58 184 64 182 81 C 180 91 178 105 178 115 C 177 138 178 136 152 136 C 141 136 132 136 129 136 C 123 134 126 127 136 112 C 145 102 152 90 157 81 C 170 57 175 52 180 54 C 181 54 182 55 183 56 z" fill="black"/><!-- width=240 height=259 -->
<path id="gl42758" d="M 45 7 C 34 12 20 20 14 28 C 8 34 6 39 9 41 C 12 43 15 42 23 36 C 40 25 47 32 37 53 C 35 58 30 73 26 84 C 14 115 14 115 9 129 C 3 145 2 151 7 154 C 14 160 20 156 30 136 C 36 125 41 117 52 97 C 70 64 108 23 120 23 C 130 23 130 39 119 58 C 118 60 115 65 114 70 C 112 76 109 82 108 85 C 106 89 102 97 99 106 C 96 113 92 124 89 130 C 75 158 92 165 126 146 C 137 140 153 124 153 119 C 153 112 148 112 139 119 C 128 130 123 131 119 128 C 117 125 117 124 123 110 C 126 103 130 97 130 96 C 130 96 130 93 131 91 C 142 70 153 36 153 24 C 153 12 146 4 134 4 C 118 4 98 17 78 40 C 65 54 63 56 60 53 C 57 52 59 43 64 32 C 70 19 71 12 67 7 C 62 3 53 3 45 7 z" fill="black"/><!-- width=164 height=164 -->
<path id="gl42759" d="M 57 4 C 49 9 31 32 31 40 C 31 49 37 49 45 40 C 55 30 58 32 69 61 C 70 64 73 70 75 74 C 79 84 78 86 57 108 C 37 128 36 128 28 122 C 26 120 24 118 21 118 C 7 118 0 147 14 153 C 26 159 43 148 72 112 C 80 102 86 102 90 112 C 102 146 108 154 121 154 C 132 154 154 123 150 112 C 146 105 140 108 134 118 C 128 129 122 128 116 115 C 115 110 111 102 108 97 C 99 78 99 76 121 54 C 145 27 145 27 153 36 C 162 46 172 42 175 25 C 177 12 171 4 159 4 C 145 4 130 16 108 49 C 99 61 93 61 90 49 C 88 45 86 39 85 36 C 84 32 81 27 81 25 C 80 15 70 2 64 2 C 63 3 60 3 57 4 z" fill="black"/><!-- width=187 height=168 -->
<path id="gl42760" d="M 74 4 C 61 13 59 30 67 38 C 78 49 94 38 95 19 C 97 7 84 0 74 4 M 57 97 C 37 107 20 120 16 127 C 12 134 21 137 29 131 C 36 126 38 123 42 124 C 47 126 46 132 40 146 C 29 169 25 178 20 192 C 18 198 14 209 12 214 C 4 232 3 235 4 238 C 6 246 14 248 24 245 C 46 236 78 213 78 206 C 78 197 71 197 61 206 C 47 218 41 220 37 217 C 36 214 37 209 44 195 C 50 180 64 148 67 139 C 69 135 70 132 71 129 C 75 122 82 105 82 103 C 82 94 69 90 57 97 z" fill="black"/><!-- width=106 height=255 -->
<path id="gl42761" d="M 91 6 C 59 10 17 58 10 95 C 9 98 8 103 7 104 C 4 115 7 138 13 147 C 24 163 58 159 81 138 C 92 129 95 124 88 121 C 85 119 80 121 75 125 C 65 135 49 140 41 135 C 32 131 29 114 35 98 C 37 90 41 86 49 84 C 96 73 124 51 124 28 C 124 10 112 2 91 6 M 98 23 C 104 28 98 40 84 53 C 64 69 48 75 48 64 C 48 59 56 48 69 35 C 84 20 91 17 98 23 z" fill="black"/><!-- width=135 height=166 -->
<path id="gl42762" d="M 66 2 C 64 2 61 10 56 19 C 48 37 44 40 33 40 C 13 42 6 56 25 56 C 32 56 33 56 36 58 C 37 60 38 61 39 62 C 38 63 38 66 37 67 C 36 69 34 73 34 75 C 34 78 33 80 32 82 C 31 85 30 88 28 91 C 28 93 27 97 26 98 C 25 99 24 103 24 105 C 22 108 20 115 19 121 C 16 126 14 133 14 135 C 14 138 13 141 12 142 C 10 144 10 146 10 147 C 10 148 9 153 8 157 C 6 160 4 166 4 170 C 4 172 3 175 3 177 C 6 178 7 180 8 181 C 13 183 20 184 21 183 C 21 182 24 181 26 180 C 28 180 33 177 36 175 C 39 172 45 169 50 165 C 68 153 85 135 82 130 C 79 123 75 126 57 141 C 40 156 36 157 36 142 C 36 136 36 134 38 132 C 40 130 40 128 40 126 C 40 123 42 121 43 118 C 45 116 46 112 48 109 C 48 106 49 103 50 102 C 51 102 52 99 52 97 C 52 94 52 90 54 87 C 56 85 56 81 56 79 C 56 78 57 75 58 74 C 61 73 61 70 61 69 C 61 62 67 56 75 55 C 82 55 85 54 85 48 C 85 43 84 42 80 39 C 74 36 73 32 75 26 C 76 24 78 20 78 13 C 78 9 78 6 78 2 C 76 2 74 2 72 2 C 69 2 66 2 66 2 z" fill="black"/><!-- width=92 height=193 -->
<path id="gl42763" d="M 88 2 C 86 3 81 6 74 12 C 68 16 63 16 60 14 C 57 12 55 12 46 12 C 34 12 33 12 33 19 C 33 25 36 27 44 27 C 57 27 58 30 54 42 C 50 50 51 54 55 55 C 60 56 63 52 67 45 C 74 30 81 27 87 38 C 88 40 90 43 91 45 C 91 55 91 66 91 75 C 92 121 90 148 87 154 C 85 157 84 162 84 164 C 84 166 84 169 82 171 C 81 172 79 176 79 177 C 79 180 78 183 76 183 C 75 184 74 188 72 192 C 70 195 68 199 67 200 C 66 200 63 204 62 206 C 52 222 37 226 25 218 C 18 212 14 212 8 217 C 6 218 4 219 2 220 C 2 223 2 225 2 229 C 2 237 3 237 8 242 C 9 245 12 246 13 247 C 16 247 19 247 22 247 C 31 247 45 242 52 236 C 69 220 92 196 94 190 C 96 188 98 184 100 182 C 103 180 105 176 105 176 C 105 175 106 171 109 168 C 112 165 114 162 114 160 C 114 159 115 157 116 156 C 117 154 121 150 123 145 C 126 141 132 133 135 126 C 142 115 163 74 163 70 C 163 69 164 67 165 63 C 168 61 168 57 168 56 C 168 55 169 51 170 48 C 172 45 174 42 174 39 C 174 38 175 32 176 27 C 180 15 180 13 172 6 C 168 1 164 1 158 4 C 153 8 151 13 152 19 C 152 20 152 27 151 33 C 148 39 148 48 148 50 C 148 54 147 58 145 62 C 144 64 142 68 142 70 C 142 73 142 76 140 79 C 139 82 138 85 138 86 C 138 87 138 91 136 93 C 134 96 132 103 129 108 C 126 118 120 127 116 126 C 112 126 112 109 115 87 C 116 74 116 68 115 62 C 115 57 114 50 115 44 C 115 36 114 32 112 28 C 111 26 110 22 110 21 C 110 16 106 9 100 6 C 96 2 93 1 88 2 z" fill="black"/><!-- width=187 height=254 -->
<path id="gl42764" d="M 144 8 C 142 9 140 13 139 16 C 134 25 130 26 122 22 C 115 20 115 20 105 22 C 81 28 52 52 34 82 C 33 85 30 90 27 92 C 16 110 4 142 7 153 C 8 159 12 165 14 166 C 20 168 31 168 36 165 C 51 158 60 153 67 146 C 72 142 79 136 81 134 C 91 127 96 134 88 146 C 78 165 93 175 116 164 C 122 160 127 158 127 158 C 128 158 133 156 138 151 C 142 146 148 141 150 141 C 156 138 157 130 152 127 C 148 124 148 124 146 127 C 126 144 121 146 117 144 C 111 141 111 134 115 130 C 116 130 117 128 117 128 C 117 127 117 123 120 121 C 121 118 122 115 122 114 C 123 111 126 106 127 102 C 133 90 134 84 140 70 C 145 58 147 52 151 44 C 152 42 153 37 154 33 C 156 31 157 26 158 24 C 163 13 154 2 144 8 M 117 43 C 123 49 123 54 116 68 C 112 75 110 81 110 81 C 109 84 97 102 91 109 C 72 130 46 150 40 146 C 34 142 34 133 39 123 C 40 121 42 118 42 117 C 42 115 52 92 57 84 C 68 67 86 48 96 40 C 102 37 112 38 117 43 z" fill="black"/><!-- width=168 height=177 -->
<path id="gl42758" d="M 45 7 C 34 12 20 20 14 28 C 8 34 6 39 9 41 C 12 43 15 42 23 36 C 40 25 47 32 37 53 C 35 58 30 73 26 84 C 14 115 14 115 9 129 C 3 145 2 151 7 154 C 14 160 20 156 30 136 C 36 125 41 117 52 97 C 70 64 108 23 120 23 C 130 23 130 39 119 58 C 118 60 115 65 114 70 C 112 76 109 82 108 85 C 106 89 102 97 99 106 C 96 113 92 124 89 130 C 75 158 92 165 126 146 C 137 140 153 124 153 119 C 153 112 148 112 139 119 C 128 130 123 131 119 128 C 117 125 117 124 123 110 C 126 103 130 97 130 96 C 130 96 130 93 131 91 C 142 70 153 36 153 24 C 153 12 146 4 134 4 C 118 4 98 17 78 40 C 65 54 63 56 60 53 C 57 52 59 43 64 32 C 70 19 71 12 67 7 C 62 3 53 3 45 7 z" fill="black"/><!-- width=164 height=164 -->
<path id="gl42765" d="M 172 4 C 170 6 168 6 165 6 C 158 6 156 14 162 21 C 165 26 165 43 162 50 C 159 52 158 56 158 57 C 158 58 158 61 157 63 C 156 64 154 69 154 70 C 152 78 142 105 141 108 C 140 109 140 111 140 112 C 140 118 135 120 124 117 C 112 116 103 117 98 120 C 96 121 91 123 87 126 C 76 130 75 130 66 139 C 56 146 42 159 38 165 C 37 168 33 171 31 175 C 26 181 18 199 18 201 C 18 202 16 204 15 205 C 14 205 13 207 13 208 C 13 211 13 213 12 214 C 10 217 10 220 9 223 C 9 226 8 231 7 235 C 4 241 7 255 10 261 C 15 269 30 272 38 270 C 40 269 44 267 46 267 C 60 264 78 248 94 229 C 99 223 100 223 103 223 C 105 225 105 231 103 235 C 100 238 98 252 98 259 C 99 264 99 265 104 267 C 117 272 136 263 162 237 C 170 229 172 222 168 218 C 163 217 163 217 153 226 C 139 240 135 242 132 241 C 128 241 128 241 128 232 C 128 226 128 224 129 220 C 130 218 133 214 133 211 C 133 208 135 205 136 204 C 138 202 138 200 138 199 C 138 196 139 193 140 190 C 141 188 142 183 144 181 C 144 178 145 174 147 171 C 148 169 148 166 148 165 C 148 163 150 160 151 157 C 153 154 154 151 154 150 C 154 148 154 145 156 142 C 158 139 158 135 158 135 C 158 134 159 130 160 129 C 162 127 163 122 164 120 C 164 117 165 114 166 112 C 168 111 169 108 169 105 C 169 104 171 100 172 98 C 174 96 175 93 175 92 C 175 91 175 87 176 84 C 180 75 186 56 188 49 C 189 46 190 42 192 40 C 193 38 194 36 194 34 C 194 33 194 31 195 28 C 201 19 202 7 199 3 C 195 1 177 1 172 4 M 123 133 C 127 136 126 157 122 165 C 121 168 120 171 120 172 C 120 174 118 175 117 176 C 116 176 115 177 115 178 C 115 181 112 186 104 198 C 96 210 70 234 57 243 C 46 251 43 252 36 252 C 31 251 28 243 30 238 C 31 236 32 234 32 232 C 32 231 33 226 37 220 C 40 214 42 210 42 208 C 42 207 45 204 48 200 C 51 196 55 192 56 190 C 60 182 63 177 69 171 C 73 166 76 163 78 160 C 94 138 115 126 123 133 z" fill="black"/><!-- width=211 height=278 -->
<path id="gl42766" d="M 24 7 C 22 9 16 19 12 29 C 2 47 0 55 3 58 C 8 60 9 59 24 42 C 33 32 41 30 64 27 C 104 25 104 26 91 60 C 90 64 89 68 89 71 C 87 77 87 81 82 96 C 78 105 77 110 72 125 C 71 131 68 137 67 140 C 67 141 66 145 65 148 C 64 152 62 158 61 160 C 60 163 60 166 60 168 C 60 169 59 173 58 175 C 56 177 55 183 53 189 C 52 196 49 202 48 204 C 48 206 47 210 45 214 C 41 231 31 242 20 243 C 9 244 7 245 6 248 C 3 251 3 254 8 257 C 10 260 12 260 35 257 C 52 256 62 256 71 257 C 89 258 91 258 94 256 C 100 250 96 245 87 244 C 78 243 75 240 73 237 C 72 232 75 214 77 208 C 79 203 82 193 84 186 C 85 180 88 174 93 160 C 94 157 94 152 94 151 C 94 150 95 146 96 144 C 99 140 100 134 101 128 C 104 123 106 117 107 112 C 108 108 110 104 110 101 C 110 99 111 96 111 95 C 112 94 114 87 118 75 C 121 62 130 35 133 32 C 136 26 158 25 179 29 C 192 31 197 37 197 49 C 197 55 199 60 203 60 C 205 60 210 55 210 53 C 210 52 211 49 212 48 C 214 45 216 41 217 35 C 219 30 221 24 223 21 C 226 15 226 12 223 8 C 222 6 221 6 211 8 C 200 10 198 10 123 12 C 98 12 71 12 45 12 C 43 10 41 9 37 8 C 27 3 29 3 24 7 z" fill="black"/><!-- width=233 height=269 -->
<path id="gl42767" d="M 92 8 C 87 9 82 10 80 10 C 72 12 70 19 74 27 C 78 33 78 44 75 49 C 74 51 73 55 73 57 C 73 60 72 63 70 64 C 69 66 68 69 68 72 C 68 74 67 76 66 78 C 66 79 64 81 63 85 C 62 88 60 96 57 103 C 55 109 52 116 52 120 C 52 122 51 126 50 127 C 49 128 48 134 45 140 C 44 147 42 154 39 158 C 34 171 33 176 33 181 C 32 182 31 186 30 188 C 28 190 28 193 28 195 C 28 196 27 199 25 201 C 24 205 22 207 22 208 C 22 210 22 213 21 217 C 20 219 18 224 18 226 C 16 229 15 234 14 237 C 12 242 10 247 9 250 C 8 253 7 258 6 260 C 2 268 9 277 16 274 C 22 272 27 265 34 248 C 55 207 86 166 114 147 C 129 135 134 139 134 157 C 134 169 128 193 124 195 C 124 195 124 198 124 200 C 124 202 122 206 121 210 C 120 213 117 217 117 218 C 117 219 117 222 116 224 C 114 226 114 230 114 231 C 114 235 108 244 104 249 C 99 254 97 255 91 252 C 84 249 81 249 76 253 C 69 261 74 273 85 276 C 94 278 126 254 133 238 C 134 236 139 229 142 222 C 146 214 148 208 148 208 C 148 207 150 205 151 204 C 153 199 156 189 158 182 C 158 180 160 175 162 172 C 165 164 165 135 162 130 C 147 111 122 118 87 153 C 69 170 67 171 64 169 C 63 166 64 159 70 144 C 73 135 75 127 76 123 C 78 121 79 116 80 115 C 81 114 82 111 82 110 C 82 109 82 105 84 103 C 85 100 87 97 87 94 C 87 92 88 88 90 87 C 93 80 97 72 97 66 C 98 63 99 58 100 56 C 102 54 102 50 102 49 C 102 46 103 44 104 42 C 106 39 106 37 106 36 C 106 34 108 31 110 28 C 115 19 114 8 108 7 C 103 4 103 4 92 8 z" fill="black"/><!-- width=178 height=284 -->
<path id="gl42761" d="M 91 6 C 59 10 17 58 10 95 C 9 98 8 103 7 104 C 4 115 7 138 13 147 C 24 163 58 159 81 138 C 92 129 95 124 88 121 C 85 119 80 121 75 125 C 65 135 49 140 41 135 C 32 131 29 114 35 98 C 37 90 41 86 49 84 C 96 73 124 51 124 28 C 124 10 112 2 91 6 M 98 23 C 104 28 98 40 84 53 C 64 69 48 75 48 64 C 48 59 56 48 69 35 C 84 20 91 17 98 23 z" fill="black"/><!-- width=135 height=166 -->
<path id="gl42760" d="M 74 4 C 61 13 59 30 67 38 C 78 49 94 38 95 19 C 97 7 84 0 74 4 M 57 97 C 37 107 20 120 16 127 C 12 134 21 137 29 131 C 36 126 38 123 42 124 C 47 126 46 132 40 146 C 29 169 25 178 20 192 C 18 198 14 209 12 214 C 4 232 3 235 4 238 C 6 246 14 248 24 245 C 46 236 78 213 78 206 C 78 197 71 197 61 206 C 47 218 41 220 37 217 C 36 214 37 209 44 195 C 50 180 64 148 67 139 C 69 135 70 132 71 129 C 75 122 82 105 82 103 C 82 94 69 90 57 97 z" fill="black"/><!-- width=106 height=255 -->
<path id="gl43008" d="M 42 6 C 31 10 19 21 12 34 C 4 45 15 49 22 39 C 24 38 27 36 30 34 C 43 26 44 43 31 70 C 30 74 28 76 28 79 C 28 80 27 84 26 88 C 25 92 22 96 22 97 C 22 98 22 102 21 104 C 19 106 19 110 19 111 C 19 112 18 115 16 117 C 14 120 14 122 14 123 C 14 124 13 128 12 130 C 7 139 6 148 8 152 C 10 157 18 159 21 156 C 25 153 32 140 32 136 C 32 135 33 133 34 133 C 36 132 37 129 37 128 C 37 126 38 123 39 122 C 42 120 44 114 46 109 C 58 80 87 34 94 33 C 98 33 99 34 102 39 C 108 51 116 50 122 36 C 127 24 126 18 118 10 C 109 0 93 7 78 31 C 63 52 63 52 60 51 C 56 50 56 48 58 39 C 61 30 63 14 62 12 C 58 4 51 3 42 6 z" fill="black"/><!-- width=135 height=169 -->
<path id="gl43009" d="M 78 6 C 67 8 70 19 81 21 C 94 24 96 37 85 62 C 84 64 82 69 81 73 C 81 75 79 82 78 88 C 75 93 73 100 73 104 C 72 108 70 112 69 114 C 67 120 63 132 60 145 C 57 152 56 158 55 160 C 54 163 52 166 52 170 C 51 172 50 177 49 180 C 48 181 48 184 48 187 C 48 188 46 192 45 194 C 44 196 43 200 42 204 C 36 224 32 230 22 235 C 19 236 15 237 13 237 C 7 237 3 246 7 249 C 9 252 12 252 30 251 C 40 251 57 251 66 252 C 82 252 86 252 87 246 C 88 243 84 237 81 237 C 78 237 69 232 68 229 C 66 225 69 206 74 198 C 75 195 76 193 76 190 C 76 189 78 183 80 177 C 85 163 85 162 86 157 C 88 145 103 139 115 144 C 122 146 124 151 129 172 C 130 175 132 178 132 181 C 133 183 134 187 134 189 C 138 204 139 205 140 207 C 140 208 141 212 142 216 C 150 243 158 252 183 252 C 196 253 198 253 200 249 C 206 245 204 241 193 236 C 181 230 174 219 168 194 C 166 192 165 188 164 184 C 163 182 162 176 159 171 C 158 165 156 159 154 156 C 151 147 152 138 158 136 C 170 130 176 128 187 122 C 196 116 210 100 213 88 C 218 76 217 49 212 38 C 201 16 181 7 146 4 C 120 3 82 3 78 6 M 164 24 C 200 42 190 97 148 120 C 142 122 135 126 134 126 C 132 126 128 127 127 128 C 118 132 104 132 100 126 C 99 122 100 106 103 99 C 106 90 110 81 111 74 C 112 72 114 67 114 64 C 118 52 121 45 121 43 C 121 38 128 22 130 21 C 135 19 158 21 164 24 z" fill="black"/><!-- width=225 height=259 -->
<path id="gl42761" d="M 91 6 C 59 10 17 58 10 95 C 9 98 8 103 7 104 C 4 115 7 138 13 147 C 24 163 58 159 81 138 C 92 129 95 124 88 121 C 85 119 80 121 75 125 C 65 135 49 140 41 135 C 32 131 29 114 35 98 C 37 90 41 86 49 84 C 96 73 124 51 124 28 C 124 10 112 2 91 6 M 98 23 C 104 28 98 40 84 53 C 64 69 48 75 48 64 C 48 59 56 48 69 35 C 84 20 91 17 98 23 z" fill="black"/><!-- width=135 height=166 -->
<path id="gl43010" d="M 87 7 C 82 7 78 8 76 9 C 75 10 73 10 70 10 C 68 10 62 16 62 19 C 62 20 64 25 67 27 C 74 34 74 39 72 48 C 69 51 68 56 68 58 C 68 61 67 64 66 64 C 64 66 63 69 63 72 C 63 74 62 79 61 81 C 57 90 55 94 54 102 C 52 104 51 109 50 110 C 49 112 48 115 48 117 C 48 118 48 121 46 123 C 44 126 44 129 44 130 C 44 133 43 135 42 138 C 40 140 39 144 38 146 C 37 151 33 164 30 171 C 28 174 28 177 28 178 C 28 181 27 184 26 187 C 21 198 19 205 18 210 C 18 212 16 216 16 218 C 15 220 14 224 13 228 C 12 231 10 236 9 240 C 9 243 7 248 6 251 C 3 255 3 261 7 266 C 9 271 12 271 22 271 C 32 271 33 271 42 266 C 44 265 48 263 50 261 C 55 259 63 251 73 240 C 79 230 81 226 78 224 C 74 220 70 222 60 234 C 45 249 36 253 33 247 C 32 245 34 236 38 228 C 38 225 40 222 42 217 C 43 214 44 210 45 207 C 46 205 48 202 48 200 C 48 199 49 195 50 192 C 51 188 54 184 54 184 C 54 183 54 180 55 177 C 57 175 58 171 58 169 C 58 166 58 164 60 162 C 62 159 62 156 62 154 C 62 153 63 150 66 147 C 67 145 67 141 67 140 C 67 138 68 134 69 132 C 72 129 73 127 73 126 C 73 124 73 121 74 118 C 78 111 81 98 81 94 C 81 93 84 90 85 87 C 86 84 88 80 88 79 C 88 78 88 74 91 72 C 92 69 92 66 92 63 C 92 61 93 58 94 57 C 96 56 96 52 97 50 C 97 44 100 33 105 26 C 106 24 106 19 106 15 C 106 4 105 4 87 7 M 104 192 C 103 193 96 207 91 219 C 88 223 87 228 86 228 C 85 229 85 232 84 234 C 84 236 82 242 81 246 C 79 260 87 272 100 273 C 108 273 108 275 108 232 C 108 193 108 187 104 192 z" fill="black"/><!-- width=115 height=283 -->
<path id="gl43011" d="M 116 3 C 115 4 112 7 110 10 C 102 22 99 24 92 19 C 88 16 78 16 75 19 C 74 20 72 20 72 20 C 68 20 46 32 46 33 C 46 33 45 34 44 36 C 37 39 16 62 8 76 C 2 86 2 93 2 139 C 1 168 1 168 12 163 C 25 156 48 139 51 133 C 52 130 58 129 61 132 C 63 133 63 140 60 145 C 51 156 57 166 70 166 C 79 166 79 165 92 158 C 118 144 130 130 124 124 C 121 121 118 122 109 130 C 98 140 93 142 88 140 C 85 139 84 134 86 129 C 87 128 88 124 88 122 C 88 120 91 117 92 116 C 93 115 94 111 94 108 C 94 105 96 103 97 103 C 97 103 98 99 99 96 C 100 93 102 88 103 87 C 104 85 104 82 104 82 C 104 81 105 78 106 75 C 108 74 110 69 110 67 C 110 64 112 57 116 52 C 118 46 120 40 120 39 C 120 38 121 36 122 34 C 123 33 124 30 126 27 C 126 25 127 21 128 20 C 132 16 132 9 127 6 C 122 2 120 2 116 3 M 87 39 C 91 42 93 45 93 48 C 93 51 81 76 76 84 C 75 87 73 92 72 94 C 63 108 40 130 26 139 C 18 144 15 144 12 141 C 8 139 8 128 12 122 C 14 116 19 106 19 104 C 19 100 31 76 36 68 C 45 56 62 39 70 36 C 74 34 82 36 87 39 z" fill="black"/><!-- width=140 height=178 -->
<path id="gl43012" d="M 68 2 C 64 4 62 7 58 15 C 50 32 49 34 45 37 C 42 39 39 40 32 40 C 13 42 6 56 25 56 C 33 56 38 61 37 66 C 34 76 33 79 32 82 C 31 85 30 88 28 91 C 28 93 26 100 24 105 C 20 117 18 124 15 132 C 15 135 13 144 9 152 C 3 174 3 176 7 181 C 13 189 20 187 50 169 C 58 164 78 145 81 139 C 82 134 82 134 80 132 C 76 128 72 130 61 141 C 45 156 38 158 36 150 C 34 146 36 145 38 140 C 39 136 42 133 42 132 C 42 130 43 126 44 122 C 45 118 46 115 46 114 C 46 112 48 110 50 108 C 51 104 52 100 52 99 C 52 97 52 93 54 91 C 55 87 57 81 58 78 C 64 56 67 55 85 57 C 100 58 106 57 109 51 C 114 43 106 39 90 40 C 78 42 73 38 75 30 C 81 9 81 6 76 3 C 73 1 72 1 68 2 z" fill="black"/><!-- width=121 height=198 -->
<path id="gl42760" d="M 74 4 C 61 13 59 30 67 38 C 78 49 94 38 95 19 C 97 7 84 0 74 4 M 57 97 C 37 107 20 120 16 127 C 12 134 21 137 29 131 C 36 126 38 123 42 124 C 47 126 46 132 40 146 C 29 169 25 178 20 192 C 18 198 14 209 12 214 C 4 232 3 235 4 238 C 6 246 14 248 24 245 C 46 236 78 213 78 206 C 78 197 71 197 61 206 C 47 218 41 220 37 217 C 36 214 37 209 44 195 C 50 180 64 148 67 139 C 69 135 70 132 71 129 C 75 122 82 105 82 103 C 82 94 69 90 57 97 z" fill="black"/><!-- width=106 height=255 -->
<path id="gl42755" d="M 81 7 C 69 10 66 11 58 17 C 16 48 -4 121 17 149 C 42 177 98 149 121 95 C 129 75 131 70 131 50 C 131 27 129 21 119 13 C 109 4 96 2 81 7 M 97 21 C 106 25 108 36 103 54 C 101 67 96 82 94 88 C 92 90 92 92 92 92 C 92 94 89 98 87 106 C 70 138 51 153 39 143 C 26 132 34 95 59 50 C 71 26 87 15 97 21 z" fill="black"/><!-- width=143 height=169 -->
<path id="gl42758" d="M 45 7 C 34 12 20 20 14 28 C 8 34 6 39 9 41 C 12 43 15 42 23 36 C 40 25 47 32 37 53 C 35 58 30 73 26 84 C 14 115 14 115 9 129 C 3 145 2 151 7 154 C 14 160 20 156 30 136 C 36 125 41 117 52 97 C 70 64 108 23 120 23 C 130 23 130 39 119 58 C 118 60 115 65 114 70 C 112 76 109 82 108 85 C 106 89 102 97 99 106 C 96 113 92 124 89 130 C 75 158 92 165 126 146 C 137 140 153 124 153 119 C 153 112 148 112 139 119 C 128 130 123 131 119 128 C 117 125 117 124 123 110 C 126 103 130 97 130 96 C 130 96 130 93 131 91 C 142 70 153 36 153 24 C 153 12 146 4 134 4 C 118 4 98 17 78 40 C 65 54 63 56 60 53 C 57 52 59 43 64 32 C 70 19 71 12 67 7 C 62 3 53 3 45 7 z" fill="black"/><!-- width=164 height=164 -->
<path id="gl43013" d="M 69 7 C 66 10 64 13 64 14 C 64 16 55 34 52 38 C 49 42 42 44 34 44 C 26 44 19 49 20 54 C 21 60 22 61 31 60 C 39 60 42 61 42 70 C 40 73 40 78 39 80 C 38 82 37 87 36 88 C 36 91 33 96 32 98 C 31 100 31 103 31 104 C 31 105 30 108 28 111 C 26 114 25 117 25 118 C 25 120 25 123 24 127 C 22 129 20 135 18 140 C 16 146 15 151 14 153 C 12 157 10 163 9 172 C 8 180 10 187 14 189 C 19 190 28 189 32 187 C 34 184 36 184 37 184 C 37 184 54 174 54 172 C 55 171 58 169 62 165 C 76 153 85 146 85 144 C 85 142 85 141 86 140 C 88 139 88 134 86 132 C 81 130 79 132 72 138 C 57 152 51 157 45 156 C 39 156 38 153 40 146 C 42 144 43 140 43 139 C 43 138 44 135 45 133 C 46 130 49 127 49 124 C 49 122 50 120 51 117 C 54 114 56 104 58 97 C 58 94 60 91 61 88 C 62 86 63 82 63 80 C 64 76 66 74 66 73 C 67 73 68 70 68 68 C 68 67 69 64 70 62 C 72 61 73 60 74 58 C 79 60 85 60 90 60 C 103 61 104 60 108 58 C 114 55 116 48 114 45 C 110 43 98 42 92 42 C 80 43 76 38 81 30 C 85 21 85 9 81 6 C 76 1 75 1 69 7 z" fill="black"/><!-- width=126 height=198 -->
<path id="gl42755" d="M 81 7 C 69 10 66 11 58 17 C 16 48 -4 121 17 149 C 42 177 98 149 121 95 C 129 75 131 70 131 50 C 131 27 129 21 119 13 C 109 4 96 2 81 7 M 97 21 C 106 25 108 36 103 54 C 101 67 96 82 94 88 C 92 90 92 92 92 92 C 92 94 89 98 87 106 C 70 138 51 153 39 143 C 26 132 34 95 59 50 C 71 26 87 15 97 21 z" fill="black"/><!-- width=143 height=169 -->
<path id="gl42766" d="M 24 7 C 22 9 16 19 12 29 C 2 47 0 55 3 58 C 8 60 9 59 24 42 C 33 32 41 30 64 27 C 104 25 104 26 91 60 C 90 64 89 68 89 71 C 87 77 87 81 82 96 C 78 105 77 110 72 125 C 71 131 68 137 67 140 C 67 141 66 145 65 148 C 64 152 62 158 61 160 C 60 163 60 166 60 168 C 60 169 59 173 58 175 C 56 177 55 183 53 189 C 52 196 49 202 48 204 C 48 206 47 210 45 214 C 41 231 31 242 20 243 C 9 244 7 245 6 248 C 3 251 3 254 8 257 C 10 260 12 260 35 257 C 52 256 62 256 71 257 C 89 258 91 258 94 256 C 100 250 96 245 87 244 C 78 243 75 240 73 237 C 72 232 75 214 77 208 C 79 203 82 193 84 186 C 85 180 88 174 93 160 C 94 157 94 152 94 151 C 94 150 95 146 96 144 C 99 140 100 134 101 128 C 104 123 106 117 107 112 C 108 108 110 104 110 101 C 110 99 111 96 111 95 C 112 94 114 87 118 75 C 121 62 130 35 133 32 C 136 26 158 25 179 29 C 192 31 197 37 197 49 C 197 55 199 60 203 60 C 205 60 210 55 210 53 C 210 52 211 49 212 48 C 214 45 216 41 217 35 C 219 30 221 24 223 21 C 226 15 226 12 223 8 C 222 6 221 6 211 8 C 200 10 198 10 123 12 C 98 12 71 12 45 12 C 43 10 41 9 37 8 C 27 3 29 3 24 7 z" fill="black"/><!-- width=233 height=269 -->
<path id="gl43014" d="M 78 9 C 69 13 68 14 74 24 C 75 26 76 28 78 31 C 76 33 76 36 75 38 C 74 40 73 45 73 46 C 73 48 73 50 72 51 C 70 52 69 56 69 58 C 69 61 67 64 66 67 C 64 69 64 73 64 74 C 64 76 63 79 62 80 C 61 82 60 86 58 90 C 57 94 55 102 54 109 C 51 115 48 123 46 127 C 45 132 43 138 42 141 C 40 144 40 147 40 150 C 40 151 39 153 38 156 C 37 157 36 160 36 163 C 34 165 33 170 32 172 C 31 175 30 178 30 180 C 30 181 30 184 28 188 C 25 195 21 204 20 210 C 20 213 19 217 18 218 C 18 219 16 223 15 226 C 13 232 9 243 7 249 C 2 260 6 271 14 271 C 20 271 24 267 30 254 C 38 237 49 216 51 212 C 52 211 54 208 54 207 C 54 206 56 204 58 200 C 62 196 64 193 64 192 C 69 184 97 154 111 144 C 130 128 141 136 133 162 C 132 165 130 170 130 171 C 130 174 128 184 123 195 C 123 199 121 204 121 206 C 115 224 106 243 102 247 C 99 251 97 251 86 248 C 80 247 75 249 73 254 C 70 259 72 263 76 267 C 81 272 91 273 97 270 C 98 269 100 266 102 266 C 106 265 127 243 130 238 C 130 236 133 234 134 231 C 138 228 145 212 146 207 C 146 206 147 204 148 202 C 150 202 150 200 150 199 C 150 198 151 195 152 193 C 154 190 154 187 154 186 C 154 184 156 181 157 178 C 158 176 160 170 160 164 C 160 159 162 153 163 151 C 166 140 163 126 156 120 C 148 115 133 115 123 120 C 109 127 99 134 78 156 C 68 166 67 168 64 166 C 62 164 62 157 64 151 C 66 148 67 144 68 140 C 70 130 74 120 76 116 C 78 115 78 112 78 111 C 78 110 79 108 80 105 C 82 102 82 99 82 97 C 82 96 84 92 85 90 C 87 87 88 85 88 84 C 88 82 88 79 90 76 C 91 75 93 70 93 67 C 93 63 94 60 96 58 C 97 57 98 55 98 55 C 98 54 98 50 99 48 C 100 45 102 42 103 39 C 103 38 104 34 105 33 C 106 33 108 30 108 27 C 109 25 110 20 111 19 C 116 9 112 4 96 4 C 86 4 84 6 78 9 z" fill="black"/><!-- width=172 height=278 -->
<path id="gl42760" d="M 74 4 C 61 13 59 30 67 38 C 78 49 94 38 95 19 C 97 7 84 0 74 4 M 57 97 C 37 107 20 120 16 127 C 12 134 21 137 29 131 C 36 126 38 123 42 124 C 47 126 46 132 40 146 C 29 169 25 178 20 192 C 18 198 14 209 12 214 C 4 232 3 235 4 238 C 6 246 14 248 24 245 C 46 236 78 213 78 206 C 78 197 71 197 61 206 C 47 218 41 220 37 217 C 36 214 37 209 44 195 C 50 180 64 148 67 139 C 69 135 70 132 71 129 C 75 122 82 105 82 103 C 82 94 69 90 57 97 z" fill="black"/><!-- width=106 height=255 -->
<path id="gl43015" d="M 78 6 C 48 15 27 48 37 69 C 39 72 40 78 43 80 C 45 87 45 87 50 94 C 52 97 55 100 55 103 C 55 104 56 106 57 108 C 60 110 60 127 57 132 C 50 142 37 142 26 132 C 15 122 6 126 6 138 C 6 154 22 165 38 159 C 40 158 44 157 46 156 C 60 152 75 136 79 123 C 84 110 84 109 82 103 C 80 96 76 86 75 86 C 75 86 74 84 73 81 C 73 79 72 75 70 74 C 62 64 55 43 58 34 C 63 24 76 22 86 31 C 92 37 98 39 102 36 C 108 31 106 19 100 12 C 97 9 86 2 85 3 C 85 3 81 4 78 6 z" fill="black"/><!-- width=115 height=168 -->
<path id="gl43016" d="M 97 7 C 73 8 69 9 69 15 C 68 21 70 22 79 24 C 90 25 92 26 93 36 C 94 40 93 43 92 48 C 91 50 88 55 88 57 C 88 60 87 63 86 64 C 85 66 84 69 84 72 C 82 75 82 79 81 81 C 80 82 79 87 79 91 C 78 94 76 99 75 103 C 74 106 73 110 72 111 C 72 114 70 116 70 118 C 69 121 68 124 68 127 C 67 133 62 146 61 151 C 57 159 55 166 54 171 C 54 175 52 178 51 180 C 51 182 49 189 44 205 C 44 207 43 211 42 212 C 40 214 39 219 37 223 C 33 230 26 236 21 237 C 10 238 6 242 6 247 C 7 253 12 253 34 252 C 45 252 61 252 70 252 C 88 253 92 252 93 248 C 94 242 91 240 79 237 C 73 236 69 230 70 224 C 72 216 74 205 76 199 C 78 196 78 193 78 190 C 79 189 79 186 81 183 C 82 181 82 177 82 175 C 82 174 84 170 86 166 C 87 164 88 160 88 159 C 88 158 88 154 90 152 C 92 150 93 146 93 144 C 93 142 93 139 94 136 C 97 133 98 129 98 127 C 98 126 98 122 99 120 C 102 116 103 112 103 111 C 103 110 103 106 104 104 C 105 103 108 98 108 94 C 108 91 109 87 110 85 C 111 84 111 80 112 78 C 112 74 114 70 115 68 C 116 67 116 63 116 61 C 116 58 117 55 118 52 C 120 51 121 46 122 44 C 122 42 123 37 126 34 C 127 32 127 30 127 28 C 127 27 129 25 132 24 C 145 13 180 28 184 46 C 184 49 186 54 187 57 C 190 68 186 90 176 103 C 169 114 151 127 139 130 C 112 139 120 152 148 146 C 174 141 201 122 210 106 C 211 103 213 98 216 94 C 219 86 219 52 214 43 C 200 13 164 2 97 7 z" fill="black"/><!-- width=231 height=265 -->
<path id="gl42514" d="M 42 6 C 24 10 2 36 9 43 C 12 46 14 45 21 38 C 28 31 32 30 36 31 C 39 33 40 38 38 43 C 37 45 36 49 36 52 C 36 55 33 58 32 61 C 32 63 30 67 30 69 C 30 70 28 74 27 74 C 26 76 22 90 20 96 C 20 98 19 103 18 104 C 16 106 15 110 14 112 C 14 115 12 121 10 126 C 3 147 3 147 6 152 C 8 158 13 159 18 157 C 22 154 25 151 30 138 C 40 110 62 70 82 43 C 90 32 96 31 100 42 C 106 52 114 51 118 38 C 126 21 120 6 106 4 C 96 4 90 12 74 33 C 68 43 62 50 61 50 C 56 50 56 44 60 30 C 64 12 56 1 42 6 z" fill="black"/><!-- width=129 height=168 -->
<path id="gl42755" d="M 81 7 C 69 10 66 11 58 17 C 16 48 -4 121 17 149 C 42 177 98 149 121 95 C 129 75 131 70 131 50 C 131 27 129 21 119 13 C 109 4 96 2 81 7 M 97 21 C 106 25 108 36 103 54 C 101 67 96 82 94 88 C 92 90 92 92 92 92 C 92 94 89 98 87 106 C 70 138 51 153 39 143 C 26 132 34 95 59 50 C 71 26 87 15 97 21 z" fill="black"/><!-- width=143 height=169 -->
<path id="gl43017" d="M 115 3 C 112 4 108 6 105 7 C 103 7 99 8 99 9 C 98 10 96 12 94 12 C 80 15 60 38 51 60 C 45 74 43 94 46 97 C 48 98 49 100 49 102 C 49 104 51 108 58 115 C 61 117 64 121 67 124 C 67 126 66 127 64 129 C 63 132 62 135 61 136 C 57 139 56 147 57 156 C 60 164 57 168 51 170 C 46 172 33 178 27 183 C 15 190 6 207 7 218 C 7 229 18 244 27 247 C 30 248 32 249 33 249 C 39 254 61 254 87 253 C 106 252 115 248 133 237 C 156 225 159 200 140 183 C 133 176 132 175 118 168 C 116 166 112 164 111 163 C 109 162 105 159 98 156 C 92 153 82 144 81 139 C 78 129 88 120 102 117 C 105 117 108 116 108 115 C 108 115 110 114 112 112 C 120 110 140 88 145 80 C 147 75 150 69 152 66 C 154 61 154 57 156 48 C 157 26 158 25 172 27 C 184 28 184 28 184 16 C 184 3 181 0 172 4 C 166 8 145 8 139 6 C 133 2 121 1 115 3 M 129 19 C 134 22 134 40 129 50 C 128 52 126 57 122 67 C 115 81 94 106 87 108 C 80 110 75 108 73 100 C 72 98 70 97 69 94 C 70 92 70 88 72 86 C 74 76 81 60 86 51 C 88 50 90 46 91 45 C 104 25 121 13 129 19 M 90 180 C 130 202 135 219 108 234 C 103 236 100 236 81 236 C 56 236 50 235 39 225 C 38 224 36 222 33 220 C 33 218 33 214 33 212 C 33 200 44 188 60 181 C 62 180 66 178 67 177 C 74 174 79 174 90 180 z" fill="black"/><!-- width=192 height=264 -->
<path id="gl43018" d="M 38 6 C 26 15 12 32 12 38 C 12 45 18 45 26 37 C 33 30 39 28 40 33 C 42 36 40 54 39 56 C 38 56 37 60 36 62 C 36 64 33 69 32 72 C 31 74 30 78 30 79 C 30 80 30 84 27 86 C 26 88 25 92 25 93 C 25 94 25 98 22 100 C 21 104 21 106 21 108 C 21 109 20 112 19 115 C 18 117 15 122 15 124 C 14 127 13 133 10 138 C 7 150 7 150 10 154 C 13 159 22 159 26 154 C 30 152 34 139 34 136 C 34 135 36 133 37 132 C 38 130 38 128 38 128 C 38 127 39 124 40 122 C 42 120 45 114 54 96 C 57 88 62 81 63 79 C 64 75 67 72 67 69 C 70 64 87 39 91 36 C 96 32 99 31 100 33 C 103 38 109 48 110 48 C 120 51 130 27 124 14 C 115 -6 96 2 74 38 C 68 48 67 49 64 49 C 61 49 60 46 62 32 C 64 18 64 8 61 6 C 57 1 44 2 38 6 M 8 8 C 6 9 6 21 8 24 C 10 27 13 24 13 16 C 13 9 10 6 8 8 z" fill="black"/><!-- width=135 height=169 -->
<path id="gl43019" d="M 145 9 C 142 10 140 14 139 18 C 135 25 132 26 124 24 C 102 16 73 34 42 76 C 31 91 16 118 16 122 C 16 124 15 127 14 128 C 13 130 12 136 9 142 C 7 153 7 153 9 159 C 16 181 42 175 76 144 C 87 134 91 133 93 139 C 94 141 93 144 92 148 C 85 163 88 174 102 174 C 115 174 157 145 157 135 C 157 128 148 128 140 135 C 130 144 126 146 121 146 C 115 146 114 139 118 129 C 120 126 121 123 121 122 C 121 121 123 116 126 110 C 134 93 136 85 139 79 C 141 69 145 61 148 55 C 150 52 150 50 150 48 C 150 46 151 43 152 42 C 154 39 154 37 154 34 C 154 33 156 31 158 28 C 159 26 160 22 160 19 C 162 9 151 2 145 9 M 117 43 C 124 49 124 56 115 76 C 102 103 87 121 68 135 C 52 147 50 150 44 148 C 36 146 37 134 50 106 C 55 96 55 94 63 81 C 72 66 86 50 98 42 C 105 37 111 37 117 43 z" fill="black"/><!-- width=168 height=182 -->
<path id="gl43020" d="M 48 9 C 31 13 14 24 9 34 C 4 45 13 48 22 39 C 33 31 38 30 42 34 C 44 38 44 38 43 44 C 40 51 36 66 32 72 C 31 74 31 78 31 79 C 31 79 30 82 27 85 C 26 87 25 91 25 92 C 25 93 25 96 24 98 C 22 99 21 104 20 106 C 18 112 15 121 10 133 C 3 151 3 158 8 162 C 15 168 21 163 30 145 C 33 138 37 132 37 130 C 38 130 42 122 46 114 C 50 106 55 97 57 94 C 58 92 62 87 64 82 C 75 64 105 32 115 27 C 128 20 132 40 120 62 C 118 63 117 66 117 68 C 117 70 116 74 115 76 C 110 85 108 92 98 117 C 97 121 96 124 94 127 C 90 135 85 148 85 153 C 85 162 92 166 99 162 C 105 159 106 158 114 144 C 115 140 118 133 122 128 C 124 122 129 114 132 110 C 134 106 136 104 136 103 C 136 100 146 85 151 80 C 153 78 154 75 154 74 C 154 74 160 67 166 58 C 192 28 201 21 207 27 C 210 30 208 45 205 51 C 204 54 204 57 204 58 C 204 58 202 62 201 63 C 199 66 198 68 198 69 C 198 70 198 73 196 75 C 194 78 194 80 194 81 C 194 82 193 86 190 88 C 189 91 189 93 189 94 C 189 94 188 98 187 100 C 184 103 182 109 181 112 C 180 116 177 122 176 124 C 174 127 174 130 174 130 C 174 132 172 134 171 136 C 164 150 165 158 174 162 C 178 164 178 164 187 162 C 193 160 198 158 199 158 C 199 157 201 156 201 156 C 206 156 229 136 232 129 C 237 120 228 117 220 126 C 216 129 207 136 205 136 C 201 136 199 134 199 133 C 199 130 204 118 205 116 C 206 116 207 114 207 111 C 207 109 208 106 210 105 C 211 105 212 104 212 103 C 212 102 213 99 214 96 C 216 92 218 88 218 87 C 218 86 218 85 219 84 C 222 82 222 80 222 79 C 222 76 223 74 225 72 C 226 69 226 67 226 64 C 226 62 228 60 229 57 C 231 55 232 52 232 50 C 232 49 232 44 234 40 C 243 19 225 0 205 8 C 195 13 194 14 190 15 C 186 18 170 33 162 44 C 153 55 148 58 146 54 C 146 51 146 50 147 46 C 151 38 151 20 148 14 C 144 8 138 6 130 7 C 120 9 114 12 112 13 C 111 14 109 15 106 15 C 102 19 88 31 80 40 C 68 56 63 61 61 60 C 58 57 58 54 61 50 C 62 49 63 45 63 43 C 63 42 64 38 66 36 C 73 24 72 12 63 8 C 57 6 58 6 48 9 z" fill="black"/><!-- width=246 height=174 -->
</defs>
<use xlink:href="#gl42513" x="0" y="29"/>
<use xlink:href="#gl42514" x="283" y="120"/>
<use xlink:href="#gl42515" x="408" y="120"/>
<use xlink:href="#gl42752" x="542" y="120"/>
<use xlink:href="#gl42753" x="701" y="120"/>
<use xlink:href="#gl42754" x="830" y="5"/>
<use xlink:href="#gl42755" x="990" y="117"/>
<use xlink:href="#gl42756" x="1142" y="120"/>
<use xlink:href="#gl42757" x="1315" y="24"/>
<use xlink:href="#gl42758" x="1562" y="119"/>
<use xlink:href="#gl42759" x="1714" y="120"/>
<use xlink:href="#gl42760" x="1887" y="29"/>
<use xlink:href="#gl42761" x="1982" y="119"/>
<use xlink:href="#gl42762" x="2112" y="91"/>
<use xlink:href="#gl42763" x="2160" y="120"/>
<use xlink:href="#gl42764" x="2419" y="106"/>
<use xlink:href="#gl42758" x="2596" y="117"/>
<use xlink:href="#gl42765" x="2760" y="5"/>
<use xlink:href="#gl42766" x="3049" y="13"/>
<use xlink:href="#gl42767" x="3230" y="0"/>
<use xlink:href="#gl42761" x="3404" y="116"/>
<use xlink:href="#gl42760" x="3532" y="28"/>
<use xlink:href="#gl43008" x="3633" y="115"/>
<use xlink:href="#gl43009" x="3830" y="19"/>
<use xlink:href="#gl42761" x="4041" y="115"/>
<use xlink:href="#gl43010" x="4166" y="0"/>
<use xlink:href="#gl43011" x="4272" y="105"/>
<use xlink:href="#gl43012" x="4416" y="86"/>
<use xlink:href="#gl42760" x="4517" y="25"/>
<use xlink:href="#gl42755" x="4611" y="112"/>
<use xlink:href="#gl42758" x="4765" y="114"/>
<use xlink:href="#gl43013" x="9" y="571"/>
<use xlink:href="#gl42755" x="110" y="601"/>
<use xlink:href="#gl42766" x="368" y="501"/>
<use xlink:href="#gl43014" x="552" y="489"/>
<use xlink:href="#gl42760" x="729" y="513"/>
<use xlink:href="#gl43015" x="811" y="600"/>
<use xlink:href="#gl43016" x="998" y="504"/>
<use xlink:href="#gl42514" x="1205" y="600"/>
<use xlink:href="#gl42755" x="1316" y="599"/>
<use xlink:href="#gl43017" x="1426" y="600"/>
<use xlink:href="#gl43018" x="1603" y="600"/>
<use xlink:href="#gl43019" x="1699" y="586"/>
<use xlink:href="#gl43020" x="1877" y="595"/>
</svg>