<svg xmlns="http://www.w3.org/2000/svg" xmlns:xlink="http://www.w3.org/1999/xlink" width="624px" height="87px" viewBox="0 0 6245 879" version="1.1">
<defs>
<path id="gl5661" d="M 70 6 C 67 7 64 13 60 18 C 55 25 47 35 41 41 C 36 48 28 57 26 60 C 23 65 18 71 13 76 C 0 94 2 96 32 95 C 62 94 61 92 60 120 C 60 139 61 141 69 141 C 77 141 79 139 79 119 C 77 97 79 96 89 96 C 97 96 102 94 102 89 C 102 84 99 82 90 82 C 77 82 77 82 79 41 C 79 11 79 8 77 6 C 74 3 74 3 70 6 M 59 43 C 60 46 60 53 60 62 C 60 81 60 84 46 84 C 30 84 25 79 32 70 C 53 41 56 38 59 43 z" fill="black"/><!-- width=111 height=151 -->
<path id="gl516" d="M 15 7 C 2 11 5 31 18 31 C 30 31 35 18 27 10 C 24 9 23 7 22 7 C 22 7 20 6 19 6 C 19 6 17 6 15 7 z" fill="black"/><!-- width=44 height=43 -->
<path id="gl1562" d="M 78 4 C 73 6 68 12 65 19 C 64 24 59 38 54 51 C 49 64 41 85 36 100 C 21 138 18 141 9 144 C 4 146 3 149 6 153 C 9 156 42 155 46 151 C 48 149 48 149 43 145 C 37 140 37 138 43 118 C 49 98 49 98 69 97 C 94 95 94 95 102 116 C 108 135 108 140 102 144 C 97 148 95 151 99 154 C 103 155 145 155 148 153 C 150 150 150 146 146 145 C 135 141 133 139 129 133 C 125 125 93 31 88 14 C 87 6 83 3 78 4 M 77 43 C 79 47 89 77 88 80 C 87 85 82 87 72 85 C 56 84 56 83 63 62 C 69 41 72 39 77 43 z" fill="black"/><!-- width=159 height=165 -->
<path id="gl9730" d="M 33 7 C 22 9 15 16 15 28 C 14 41 19 48 37 59 C 50 66 54 72 51 80 C 49 86 44 90 39 90 C 31 90 26 86 20 74 C 15 66 10 68 8 79 C 8 83 7 88 6 88 C 3 91 4 94 7 93 C 8 93 12 94 15 95 C 35 103 56 100 65 86 C 70 79 70 67 65 59 C 61 53 59 51 41 39 C 26 31 28 14 43 14 C 48 14 49 15 55 21 C 65 30 68 30 68 21 C 68 8 54 2 33 7 z" fill="black"/><!-- width=80 height=111 -->
<path id="gl259" d="M 19 8 C 9 13 8 16 13 25 C 19 38 17 88 9 88 C 9 88 8 91 7 92 C 3 98 6 100 24 100 C 46 100 48 98 40 88 C 39 87 37 86 35 83 C 35 75 35 66 35 58 C 34 29 35 27 43 22 C 49 18 62 19 69 24 C 74 29 74 34 74 55 C 74 79 74 83 69 88 C 65 92 64 97 66 98 C 66 98 74 100 83 100 C 104 100 107 97 98 88 C 97 87 95 86 93 83 C 93 75 93 66 93 58 C 93 33 93 32 96 28 C 102 17 123 17 129 29 C 132 33 132 37 132 56 C 132 81 132 85 125 88 C 122 92 122 97 124 98 C 128 100 158 100 160 97 C 163 96 163 93 158 90 C 151 85 150 82 150 55 C 150 28 150 23 145 16 C 137 3 118 2 101 12 C 93 17 90 17 83 13 C 72 4 64 3 51 8 C 40 13 38 13 35 9 C 32 4 28 4 19 8 z" fill="black"/><!-- width=172 height=109 -->
<path id="gl6423" d="M 19 7 C 7 9 4 12 10 21 C 10 24 13 26 14 28 C 14 37 14 45 14 54 C 14 73 14 80 15 85 C 20 100 38 106 57 98 C 68 93 68 93 73 98 C 78 102 79 102 88 100 C 103 97 103 96 104 93 C 105 91 105 90 99 87 C 91 82 92 84 92 46 C 92 10 91 9 87 7 C 82 6 68 8 66 12 C 64 13 63 13 62 14 C 64 16 66 18 67 20 C 73 26 73 27 73 52 C 73 79 72 81 63 85 C 57 88 45 88 40 85 C 32 81 32 79 32 43 C 32 32 32 21 32 10 C 31 10 30 9 30 8 C 26 7 25 6 19 7 z" fill="black"/><!-- width=115 height=112 -->
<path id="gl6413" d="M 50 7 C 25 10 8 30 8 56 C 8 83 22 98 48 101 C 67 103 96 85 86 77 C 84 74 83 74 74 80 C 53 95 26 79 26 51 C 26 24 48 9 68 24 C 77 28 80 28 84 26 C 87 21 85 13 78 9 C 74 7 57 6 50 7 z" fill="black"/><!-- width=97 height=112 -->
<path id="gl1796" d="M 20 9 C 11 14 9 17 14 25 C 18 30 18 31 18 115 C 18 126 18 138 17 150 C 15 151 14 153 12 154 C 6 161 4 163 11 164 C 15 167 40 167 44 164 C 47 163 47 158 44 156 C 38 152 38 148 38 121 C 38 113 38 104 38 97 C 39 94 40 93 40 92 C 47 84 63 83 71 92 C 76 95 77 103 77 122 C 77 145 77 150 71 154 C 62 163 66 166 88 166 C 109 166 114 163 104 156 C 97 151 97 150 97 119 C 95 90 95 90 92 84 C 84 72 66 68 50 77 C 47 78 44 79 43 78 C 36 78 36 75 38 41 C 38 17 38 12 36 9 C 34 6 29 6 20 9 z" fill="black"/><!-- width=119 height=177 -->
<path id="gl9" d="M 37 7 C 20 12 7 22 7 31 C 7 41 23 38 27 27 C 31 18 37 15 46 17 C 52 20 55 25 55 35 C 56 47 53 48 37 55 C 13 61 7 66 7 78 C 7 96 25 105 43 95 C 52 91 55 91 62 96 C 72 103 95 96 88 88 C 87 87 85 87 82 87 C 71 87 70 81 72 51 C 72 33 72 27 72 22 C 68 8 53 2 37 7 M 53 63 C 58 71 51 86 42 87 C 20 87 21 68 42 61 C 48 60 51 60 53 63 z" fill="black"/><!-- width=98 height=110 -->
<path id="gl257" d="M 31 6 C 24 8 17 13 13 20 C 6 35 11 45 33 58 C 48 69 52 77 45 85 C 37 94 25 91 19 80 C 11 66 3 67 6 82 C 7 93 13 99 28 100 C 53 104 72 83 62 62 C 60 55 56 52 42 44 C 26 34 22 26 30 18 C 37 12 46 14 53 24 C 60 33 67 29 64 18 C 62 7 50 3 31 6 z" fill="black"/><!-- width=78 height=112 -->
<path id="gl517" d="M 24 6 C 19 8 11 14 9 17 C 9 18 11 22 12 25 C 13 28 14 29 14 32 C 14 49 14 66 14 83 C 14 137 14 141 8 147 C 1 155 4 157 28 157 C 46 157 48 156 48 152 C 48 150 48 149 43 146 C 35 142 33 140 33 120 C 33 102 34 101 45 102 C 76 104 102 81 103 48 C 103 19 77 0 52 8 C 40 13 36 13 34 9 C 32 6 28 4 24 6 M 70 25 C 83 34 86 61 75 80 C 66 93 44 96 36 82 C 34 78 33 76 33 56 C 33 27 35 23 46 22 C 55 20 64 22 70 25 z" fill="black"/><!-- width=114 height=167 -->
<path id="gl0" d="M 42 6 C 27 8 16 17 10 31 C 5 42 6 67 11 77 C 30 111 83 106 95 68 C 106 31 78 -1 42 6 M 61 18 C 81 28 82 73 63 86 C 45 99 23 78 26 47 C 27 22 42 8 61 18 z" fill="black"/><!-- width=111 height=111 -->
<path id="gl257" d="M 31 6 C 24 8 17 13 13 20 C 6 35 11 45 33 58 C 48 69 52 77 45 85 C 37 94 25 91 19 80 C 11 66 3 67 6 82 C 7 93 13 99 28 100 C 53 104 72 83 62 62 C 60 55 56 52 42 44 C 26 34 22 26 30 18 C 37 12 46 14 53 24 C 60 33 67 29 64 18 C 62 7 50 3 31 6 z" fill="black"/><!-- width=78 height=112 -->
<path id="gl257" d="M 31 6 C 24 8 17 13 13 20 C 6 35 11 45 33 58 C 48 69 52 77 45 85 C 37 94 25 91 19 80 C 11 66 3 67 6 82 C 7 93 13 99 28 100 C 53 104 72 83 62 62 C 60 55 56 52 42 44 C 26 34 22 26 30 18 C 37 12 46 14 53 24 C 60 33 67 29 64 18 C 62 7 50 3 31 6 z" fill="black"/><!-- width=78 height=112 -->
<path id="gl8730" d="M 16 7 C 12 8 8 12 8 18 C 8 30 27 34 30 22 C 34 12 25 3 16 7 M 16 65 C 7 70 7 72 11 81 C 13 87 13 90 12 114 C 12 123 12 133 12 142 C 11 143 9 145 8 147 C 3 154 4 155 21 156 C 39 158 43 155 37 147 C 30 140 30 139 30 101 C 32 70 30 65 29 64 C 27 61 23 61 16 65 z" fill="black"/><!-- width=49 height=168 -->
<path id="gl513" d="M 14 8 C 4 12 3 15 8 24 C 9 25 10 27 12 30 C 12 51 12 72 12 94 C 10 165 10 160 20 161 C 24 162 31 164 37 165 C 72 172 101 146 98 111 C 96 82 71 63 45 72 C 30 78 28 76 30 49 C 31 14 31 9 30 7 C 27 4 21 4 14 8 M 56 85 C 70 90 77 101 77 118 C 78 141 68 155 50 155 C 35 155 30 147 30 118 C 28 106 30 94 30 92 C 32 83 43 80 56 85 z" fill="black"/><!-- width=112 height=177 -->
<path id="gl512" d="M 20 8 C 9 13 7 17 13 24 C 14 26 15 27 17 29 C 17 48 17 69 17 88 C 17 108 17 127 17 148 C 14 149 13 152 10 153 C 4 159 4 161 7 163 C 9 164 42 164 43 163 C 47 161 46 158 41 154 C 34 149 34 149 35 76 C 35 -1 36 1 20 8 z" fill="black"/><!-- width=55 height=175 -->
<path id="gl5" d="M 38 7 C 19 13 8 30 8 56 C 8 80 20 96 42 99 C 55 101 71 96 78 89 C 85 79 80 76 69 82 C 49 91 24 76 24 51 C 24 40 24 40 53 40 C 61 40 69 40 78 40 C 78 39 79 38 80 36 C 84 33 84 28 80 22 C 74 8 56 2 38 7 M 57 15 C 65 20 65 28 57 30 C 52 33 35 33 33 30 C 30 28 30 25 34 22 C 40 14 50 12 57 15 z" fill="black"/><!-- width=94 height=112 -->
<path id="gl519" d="M 11 5 C 3 8 5 19 12 22 C 24 29 22 40 11 48 C 2 53 2 58 11 57 C 22 54 33 39 33 25 C 33 13 20 1 11 5 z" fill="black"/><!-- width=44 height=67 -->
<path id="gl6417" d="M 42 8 C 19 15 8 33 9 60 C 10 86 27 103 54 103 C 114 103 118 9 56 7 C 50 7 44 7 42 8 M 62 19 C 74 25 79 36 79 56 C 79 78 71 91 57 93 C 41 94 28 77 28 53 C 28 26 44 10 62 19 z" fill="black"/><!-- width=113 height=115 -->
<path id="gl1026" d="M 21 10 C 10 14 9 18 14 26 C 15 27 16 30 18 32 C 16 40 16 50 16 58 C 16 67 16 76 16 85 C 14 87 13 88 10 91 C 9 93 8 94 6 97 C 7 97 7 98 8 98 C 12 102 42 102 44 99 C 46 97 46 94 42 91 C 36 86 34 82 34 57 C 34 32 36 28 44 24 C 49 21 62 20 67 24 C 75 27 75 30 75 58 C 75 68 75 76 75 85 C 74 87 72 88 70 91 C 64 96 64 97 67 98 C 70 102 100 102 104 98 C 106 96 106 96 102 92 C 94 85 94 84 94 55 C 94 42 93 28 93 26 C 88 9 69 3 50 12 C 43 15 39 15 37 13 C 33 6 30 6 21 10 z" fill="black"/><!-- width=116 height=111 -->
<path id="gl5" d="M 38 7 C 19 13 8 30 8 56 C 8 80 20 96 42 99 C 55 101 71 96 78 89 C 85 79 80 76 69 82 C 49 91 24 76 24 51 C 24 40 24 40 53 40 C 61 40 69 40 78 40 C 78 39 79 38 80 36 C 84 33 84 28 80 22 C 74 8 56 2 38 7 M 57 15 C 65 20 65 28 57 30 C 52 33 35 33 33 30 C 30 28 30 25 34 22 C 40 14 50 12 57 15 z" fill="black"/><!-- width=94 height=112 -->
<path id="gl257" d="M 31 6 C 24 8 17 13 13 20 C 6 35 11 45 33 58 C 48 69 52 77 45 85 C 37 94 25 91 19 80 C 11 66 3 67 6 82 C 7 93 13 99 28 100 C 53 104 72 83 62 62 C 60 55 56 52 42 44 C 26 34 22 26 30 18 C 37 12 46 14 53 24 C 60 33 67 29 64 18 C 62 7 50 3 31 6 z" fill="black"/><!-- width=78 height=112 -->
<path id="gl8" d="M 20 8 C 9 12 8 16 13 25 C 14 26 15 29 15 30 C 15 49 15 67 15 87 C 15 148 16 148 9 154 C 6 158 4 159 6 160 C 8 163 41 164 43 162 C 45 160 45 157 41 153 C 38 152 36 148 36 147 C 35 142 35 95 36 93 C 41 84 55 82 64 87 C 75 91 76 95 75 124 C 75 131 75 140 75 148 C 73 150 71 151 70 153 C 64 158 64 158 65 162 C 67 165 104 164 106 160 C 107 158 107 158 104 156 C 94 148 93 145 94 118 C 95 99 94 89 89 82 C 81 71 66 67 52 73 C 36 81 33 78 35 61 C 36 44 36 9 35 7 C 32 4 27 4 20 8 z" fill="black"/><!-- width=117 height=174 -->
<path id="gl0" d="M 42 6 C 27 8 16 17 10 31 C 5 42 6 67 11 77 C 30 111 83 106 95 68 C 106 31 78 -1 42 6 M 61 18 C 81 28 82 73 63 86 C 45 99 23 78 26 47 C 27 22 42 8 61 18 z" fill="black"/><!-- width=111 height=111 -->
<path id="gl256" d="M 16 4 C 4 6 3 9 9 18 C 12 23 13 23 13 49 C 13 63 13 78 14 80 C 18 95 38 101 57 94 C 68 89 68 89 72 94 C 75 98 78 98 93 94 C 105 91 108 88 99 83 C 89 79 89 79 90 42 C 90 23 90 7 90 7 C 89 3 84 3 75 4 C 62 6 59 9 67 16 C 68 18 70 22 70 24 C 73 31 73 69 70 74 C 65 86 41 88 33 77 C 31 72 31 72 31 39 C 31 28 32 17 32 7 C 31 6 29 6 28 4 C 26 2 24 2 16 4 z" fill="black"/><!-- width=114 height=109 -->
<path id="gl512" d="M 20 8 C 9 13 7 17 13 24 C 14 26 15 27 17 29 C 17 48 17 69 17 88 C 17 108 17 127 17 148 C 14 149 13 152 10 153 C 4 159 4 161 7 163 C 9 164 42 164 43 163 C 47 161 46 158 41 154 C 34 149 34 149 35 76 C 35 -1 36 1 20 8 z" fill="black"/><!-- width=55 height=175 -->
<path id="gl258" d="M 77 7 C 66 11 65 14 71 25 C 74 32 75 32 75 47 C 75 70 75 69 57 70 C 26 71 11 84 7 112 C 2 148 32 175 62 161 C 69 158 70 158 76 162 C 81 165 81 165 89 164 C 106 161 112 155 101 151 C 99 149 95 148 94 145 C 93 143 93 85 93 35 C 94 26 94 17 94 8 C 93 8 91 7 91 5 C 88 3 85 3 77 7 M 66 82 C 74 87 75 91 74 118 C 74 126 74 134 74 143 C 72 143 71 145 70 145 C 59 156 37 148 29 131 C 16 102 41 68 66 82 z" fill="black"/><!-- width=118 height=176 -->
<path id="gl5408" d="M 47 8 C 31 11 17 23 11 36 C 7 47 7 68 11 78 C 22 105 62 113 83 89 C 92 81 86 73 76 81 C 61 92 45 90 34 77 C 8 47 40 1 70 24 C 78 31 84 29 84 19 C 84 9 68 3 47 8 z" fill="black"/><!-- width=97 height=115 -->
<path id="gl6417" d="M 42 8 C 19 15 8 33 9 60 C 10 86 27 103 54 103 C 114 103 118 9 56 7 C 50 7 44 7 42 8 M 62 19 C 74 25 79 36 79 56 C 79 78 71 91 57 93 C 41 94 28 77 28 53 C 28 26 44 10 62 19 z" fill="black"/><!-- width=113 height=115 -->
<path id="gl1026" d="M 21 10 C 10 14 9 18 14 26 C 15 27 16 30 18 32 C 16 40 16 50 16 58 C 16 67 16 76 16 85 C 14 87 13 88 10 91 C 9 93 8 94 6 97 C 7 97 7 98 8 98 C 12 102 42 102 44 99 C 46 97 46 94 42 91 C 36 86 34 82 34 57 C 34 32 36 28 44 24 C 49 21 62 20 67 24 C 75 27 75 30 75 58 C 75 68 75 76 75 85 C 74 87 72 88 70 91 C 64 96 64 97 67 98 C 70 102 100 102 104 98 C 106 96 106 96 102 92 C 94 85 94 84 94 55 C 94 42 93 28 93 26 C 88 9 69 3 50 12 C 43 15 39 15 37 13 C 33 6 30 6 21 10 z" fill="black"/><!-- width=116 height=111 -->
<path id="gl777" d="M 44 6 C 29 9 18 17 12 29 C 3 48 7 75 19 86 C 37 103 68 101 83 85 C 91 75 85 68 75 75 C 68 81 65 83 55 83 C 31 83 16 55 28 32 C 37 13 55 11 72 23 C 79 31 89 21 84 11 C 80 4 58 2 44 6 z" fill="black"/><!-- width=98 height=110 -->
<path id="gl5" d="M 38 7 C 19 13 8 30 8 56 C 8 80 20 96 42 99 C 55 101 71 96 78 89 C 85 79 80 76 69 82 C 49 91 24 76 24 51 C 24 40 24 40 53 40 C 61 40 69 40 78 40 C 78 39 79 38 80 36 C 84 33 84 28 80 22 C 74 8 56 2 38 7 M 57 15 C 65 20 65 28 57 30 C 52 33 35 33 33 30 C 30 28 30 25 34 22 C 40 14 50 12 57 15 z" fill="black"/><!-- width=94 height=112 -->
<path id="gl1026" d="M 21 10 C 10 14 9 18 14 26 C 15 27 16 30 18 32 C 16 40 16 50 16 58 C 16 67 16 76 16 85 C 14 87 13 88 10 91 C 9 93 8 94 6 97 C 7 97 7 98 8 98 C 12 102 42 102 44 99 C 46 97 46 94 42 91 C 36 86 34 82 34 57 C 34 32 36 28 44 24 C 49 21 62 20 67 24 C 75 27 75 30 75 58 C 75 68 75 76 75 85 C 74 87 72 88 70 91 C 64 96 64 97 67 98 C 70 102 100 102 104 98 C 106 96 106 96 102 92 C 94 85 94 84 94 55 C 94 42 93 28 93 26 C 88 9 69 3 50 12 C 43 15 39 15 37 13 C 33 6 30 6 21 10 z" fill="black"/><!-- width=116 height=111 -->
<path id="gl1027" d="M 22 12 C 20 15 15 19 13 20 C 7 24 6 26 12 32 C 13 33 14 35 16 36 C 16 47 16 56 16 66 C 15 105 18 107 36 111 C 47 112 61 106 60 100 C 60 98 59 98 52 98 C 42 99 37 96 35 91 C 32 85 31 38 33 33 C 35 32 35 31 36 30 C 39 30 43 31 47 31 C 59 31 62 30 62 25 C 62 20 59 18 48 19 C 38 20 37 19 33 12 C 30 4 29 4 22 12 z" fill="black"/><!-- width=72 height=122 -->
<path id="gl4" d="M 16 9 C 8 13 7 16 12 24 C 13 28 14 32 14 54 C 14 80 13 86 8 87 C 6 90 3 94 4 95 C 7 99 44 99 45 95 C 47 92 44 90 40 90 C 39 90 37 87 35 86 C 34 85 33 84 32 84 C 32 74 32 65 32 56 C 32 29 32 29 34 26 C 38 22 43 22 49 24 C 59 28 66 24 66 17 C 66 4 55 2 44 11 C 37 16 34 14 32 9 C 29 4 26 3 16 9 z" fill="black"/><!-- width=76 height=108 -->
<path id="gl9484" d="M 31 12 C 12 19 3 29 7 37 C 10 44 20 40 26 29 C 30 21 32 19 37 19 C 49 19 55 30 53 44 C 52 52 47 55 36 59 C 12 65 6 70 6 84 C 7 103 24 111 41 101 C 48 96 52 96 59 101 C 67 107 80 106 84 99 C 87 95 87 94 78 92 C 69 88 69 87 70 55 C 70 37 70 27 69 24 C 65 8 50 3 31 12 M 49 66 C 59 76 47 95 33 93 C 20 88 21 73 37 66 C 43 63 46 63 49 66 z" fill="black"/><!-- width=98 height=116 -->
<path id="gl770" d="M 16 12 C 6 22 4 23 9 29 C 12 33 12 33 12 59 C 13 95 14 99 24 104 C 35 109 56 106 55 98 C 55 95 55 95 48 95 C 32 95 30 91 29 56 C 29 25 28 27 45 27 C 57 27 61 24 57 18 C 55 16 54 16 45 16 C 35 17 30 14 30 11 C 30 8 27 3 25 3 C 24 3 20 8 16 12 z" fill="black"/><!-- width=69 height=118 -->
<path id="gl5" d="M 38 7 C 19 13 8 30 8 56 C 8 80 20 96 42 99 C 55 101 71 96 78 89 C 85 79 80 76 69 82 C 49 91 24 76 24 51 C 24 40 24 40 53 40 C 61 40 69 40 78 40 C 78 39 79 38 80 36 C 84 33 84 28 80 22 C 74 8 56 2 38 7 M 57 15 C 65 20 65 28 57 30 C 52 33 35 33 33 30 C 30 28 30 25 34 22 C 40 14 50 12 57 15 z" fill="black"/><!-- width=94 height=112 -->
<path id="gl0" d="M 42 6 C 27 8 16 17 10 31 C 5 42 6 67 11 77 C 30 111 83 106 95 68 C 106 31 78 -1 42 6 M 61 18 C 81 28 82 73 63 86 C 45 99 23 78 26 47 C 27 22 42 8 61 18 z" fill="black"/><!-- width=111 height=111 -->
<path id="gl3" d="M 20 8 C 10 13 8 16 13 23 C 16 27 16 28 16 50 C 17 79 16 83 10 89 C 2 96 3 98 25 99 C 46 99 49 96 40 88 C 39 86 36 85 35 84 C 35 75 35 66 35 57 C 33 23 36 20 54 20 C 73 20 75 23 75 56 C 74 83 74 85 67 89 C 64 93 64 96 67 98 C 71 99 101 99 104 98 C 105 95 104 91 99 89 C 94 85 94 83 93 52 C 93 25 93 23 90 18 C 81 3 67 2 44 12 C 39 13 39 13 36 10 C 31 5 27 5 20 8 z" fill="black"/><!-- width=115 height=110 -->
<path id="gl1" d="M 20 11 C 18 13 14 17 11 19 C 4 23 4 25 8 30 C 11 31 12 34 13 35 C 13 36 13 50 13 66 C 13 96 14 103 23 106 C 34 111 54 109 57 103 C 61 98 58 95 49 96 C 33 96 31 94 31 58 C 30 28 30 29 42 29 C 55 30 57 30 60 28 C 62 25 62 24 60 22 C 58 18 58 18 47 18 C 35 17 34 17 31 9 C 29 3 24 3 20 11 z" fill="black"/><!-- width=71 height=121 -->
<path id="gl1796" d="M 20 9 C 11 14 9 17 14 25 C 18 30 18 31 18 115 C 18 126 18 138 17 150 C 15 151 14 153 12 154 C 6 161 4 163 11 164 C 15 167 40 167 44 164 C 47 163 47 158 44 156 C 38 152 38 148 38 121 C 38 113 38 104 38 97 C 39 94 40 93 40 92 C 47 84 63 83 71 92 C 76 95 77 103 77 122 C 77 145 77 150 71 154 C 62 163 66 166 88 166 C 109 166 114 163 104 156 C 97 151 97 150 97 119 C 95 90 95 90 92 84 C 84 72 66 68 50 77 C 47 78 44 79 43 78 C 36 78 36 75 38 41 C 38 17 38 12 36 9 C 34 6 29 6 20 9 z" fill="black"/><!-- width=119 height=177 -->
<path id="gl261" d="M 39 6 C 18 10 7 26 7 54 C 7 73 9 79 18 87 C 32 102 63 102 75 87 C 83 80 76 76 67 81 C 46 92 23 75 21 51 C 21 40 23 39 50 40 C 76 41 80 40 81 30 C 81 13 59 1 39 6 M 54 15 C 62 18 62 28 54 30 C 50 32 34 32 30 31 C 28 29 28 25 32 20 C 37 14 46 12 54 15 z" fill="black"/><!-- width=91 height=111 -->
<path id="gl5394" d="M 54 6 C 33 12 20 30 18 62 C 17 73 17 75 13 78 C 8 83 8 85 13 90 C 14 91 16 93 17 94 C 17 102 17 110 17 118 C 17 131 17 145 17 147 C 16 151 16 154 12 157 C 6 163 4 166 8 167 C 13 168 46 168 49 167 C 51 165 49 161 44 159 C 36 155 36 155 35 123 C 35 113 35 103 35 93 C 36 93 38 92 38 91 C 40 90 43 90 51 90 C 59 91 60 91 62 88 C 70 81 64 76 51 77 C 35 78 34 76 36 55 C 39 19 50 11 69 24 C 78 30 85 29 87 20 C 90 9 71 1 54 6 z" fill="black"/><!-- width=96 height=180 -->
<path id="gl5" d="M 38 7 C 19 13 8 30 8 56 C 8 80 20 96 42 99 C 55 101 71 96 78 89 C 85 79 80 76 69 82 C 49 91 24 76 24 51 C 24 40 24 40 53 40 C 61 40 69 40 78 40 C 78 39 79 38 80 36 C 84 33 84 28 80 22 C 74 8 56 2 38 7 M 57 15 C 65 20 65 28 57 30 C 52 33 35 33 33 30 C 30 28 30 25 34 22 C 40 14 50 12 57 15 z" fill="black"/><!-- width=94 height=112 -->
<path id="gl5" d="M 38 7 C 19 13 8 30 8 56 C 8 80 20 96 42 99 C 55 101 71 96 78 89 C 85 79 80 76 69 82 C 49 91 24 76 24 51 C 24 40 24 40 53 40 C 61 40 69 40 78 40 C 78 39 79 38 80 36 C 84 33 84 28 80 22 C 74 8 56 2 38 7 M 57 15 C 65 20 65 28 57 30 C 52 33 35 33 33 30 C 30 28 30 25 34 22 C 40 14 50 12 57 15 z" fill="black"/><!-- width=94 height=112 -->
<path id="gl512" d="M 20 8 C 9 13 7 17 13 24 C 14 26 15 27 17 29 C 17 48 17 69 17 88 C 17 108 17 127 17 148 C 14 149 13 152 10 153 C 4 159 4 161 7 163 C 9 164 42 164 43 163 C 47 161 46 158 41 154 C 34 149 34 149 35 76 C 35 -1 36 1 20 8 z" fill="black"/><!-- width=55 height=175 -->
<path id="gl773" d="M 46 6 C 46 6 37 7 27 7 C 7 8 4 9 4 16 C 4 22 9 23 26 21 C 34 19 43 18 47 18 C 57 18 62 16 62 12 C 62 6 52 3 46 6 z" fill="black"/><!-- width=71 height=33 -->
<path id="gl2" d="M 18 4 C 11 8 9 19 14 25 C 27 37 43 19 32 7 C 28 3 23 3 18 4 M 18 61 C 9 66 8 70 13 79 C 14 82 16 85 14 110 C 14 119 14 128 14 137 C 13 139 12 140 9 142 C 4 148 4 148 7 150 C 8 152 12 152 24 152 C 45 152 48 150 39 140 C 37 139 35 138 34 137 C 34 124 34 112 34 100 C 34 79 33 61 33 60 C 32 58 25 58 18 61 z" fill="black"/><!-- width=54 height=163 -->
<path id="gl3" d="M 20 8 C 10 13 8 16 13 23 C 16 27 16 28 16 50 C 17 79 16 83 10 89 C 2 96 3 98 25 99 C 46 99 49 96 40 88 C 39 86 36 85 35 84 C 35 75 35 66 35 57 C 33 23 36 20 54 20 C 73 20 75 23 75 56 C 74 83 74 85 67 89 C 64 93 64 96 67 98 C 71 99 101 99 104 98 C 105 95 104 91 99 89 C 94 85 94 83 93 52 C 93 25 93 23 90 18 C 81 3 67 2 44 12 C 39 13 39 13 36 10 C 31 5 27 5 20 8 z" fill="black"/><!-- width=115 height=110 -->
<path id="gl4888" d="M 34 7 C 11 14 3 39 17 59 C 23 67 23 71 17 77 C 9 84 9 89 16 96 C 22 103 22 105 17 110 C 7 122 5 129 10 139 C 19 156 53 160 77 147 C 98 135 107 110 92 96 C 86 89 79 87 58 89 C 38 90 32 89 29 83 C 26 74 33 71 49 68 C 71 67 80 59 83 38 C 85 28 86 26 92 24 C 105 22 102 11 87 11 C 82 11 76 11 70 9 C 58 5 41 4 34 7 M 55 17 C 70 28 67 55 52 60 C 42 64 33 55 30 42 C 27 23 43 8 55 17 M 74 107 C 87 114 85 130 70 139 C 64 141 48 142 41 140 C 23 136 21 112 36 105 C 42 103 67 103 74 107 z" fill="black"/><!-- width=110 height=165 -->
<path id="gl257" d="M 31 6 C 24 8 17 13 13 20 C 6 35 11 45 33 58 C 48 69 52 77 45 85 C 37 94 25 91 19 80 C 11 66 3 67 6 82 C 7 93 13 99 28 100 C 53 104 72 83 62 62 C 60 55 56 52 42 44 C 26 34 22 26 30 18 C 37 12 46 14 53 24 C 60 33 67 29 64 18 C 62 7 50 3 31 6 z" fill="black"/><!-- width=78 height=112 -->
<path id="gl0" d="M 42 6 C 27 8 16 17 10 31 C 5 42 6 67 11 77 C 30 111 83 106 95 68 C 106 31 78 -1 42 6 M 61 18 C 81 28 82 73 63 86 C 45 99 23 78 26 47 C 27 22 42 8 61 18 z" fill="black"/><!-- width=111 height=111 -->
<path id="gl5394" d="M 54 6 C 33 12 20 30 18 62 C 17 73 17 75 13 78 C 8 83 8 85 13 90 C 14 91 16 93 17 94 C 17 102 17 110 17 118 C 17 131 17 145 17 147 C 16 151 16 154 12 157 C 6 163 4 166 8 167 C 13 168 46 168 49 167 C 51 165 49 161 44 159 C 36 155 36 155 35 123 C 35 113 35 103 35 93 C 36 93 38 92 38 91 C 40 90 43 90 51 90 C 59 91 60 91 62 88 C 70 81 64 76 51 77 C 35 78 34 76 36 55 C 39 19 50 11 69 24 C 78 30 85 29 87 20 C 90 9 71 1 54 6 z" fill="black"/><!-- width=96 height=180 -->
<path id="gl1" d="M 20 11 C 18 13 14 17 11 19 C 4 23 4 25 8 30 C 11 31 12 34 13 35 C 13 36 13 50 13 66 C 13 96 14 103 23 106 C 34 111 54 109 57 103 C 61 98 58 95 49 96 C 33 96 31 94 31 58 C 30 28 30 29 42 29 C 55 30 57 30 60 28 C 62 25 62 24 60 22 C 58 18 58 18 47 18 C 35 17 34 17 31 9 C 29 3 24 3 20 11 z" fill="black"/><!-- width=71 height=121 -->
<path id="gl520" d="M 40 6 C 18 13 7 31 8 59 C 8 87 23 102 49 102 C 67 102 89 87 81 79 C 78 77 77 77 70 82 C 49 94 27 79 23 52 C 22 49 23 46 24 44 C 25 43 27 43 28 41 C 34 41 40 41 47 41 C 77 43 84 41 84 31 C 84 14 59 1 40 6 M 60 19 C 63 22 63 28 60 30 C 56 33 33 33 30 30 C 27 27 31 20 41 15 C 46 14 56 15 60 19 z" fill="black"/><!-- width=94 height=113 -->
<path id="gl3" d="M 20 8 C 10 13 8 16 13 23 C 16 27 16 28 16 50 C 17 79 16 83 10 89 C 2 96 3 98 25 99 C 46 99 49 96 40 88 C 39 86 36 85 35 84 C 35 75 35 66 35 57 C 33 23 36 20 54 20 C 73 20 75 23 75 56 C 74 83 74 85 67 89 C 64 93 64 96 67 98 C 71 99 101 99 104 98 C 105 95 104 91 99 89 C 94 85 94 83 93 52 C 93 25 93 23 90 18 C 81 3 67 2 44 12 C 39 13 39 13 36 10 C 31 5 27 5 20 8 z" fill="black"/><!-- width=115 height=110 -->
<path id="gl257" d="M 31 6 C 24 8 17 13 13 20 C 6 35 11 45 33 58 C 48 69 52 77 45 85 C 37 94 25 91 19 80 C 11 66 3 67 6 82 C 7 93 13 99 28 100 C 53 104 72 83 62 62 C 60 55 56 52 42 44 C 26 34 22 26 30 18 C 37 12 46 14 53 24 C 60 33 67 29 64 18 C 62 7 50 3 31 6 z" fill="black"/><!-- width=78 height=112 -->
<path id="gl2" d="M 18 4 C 11 8 9 19 14 25 C 27 37 43 19 32 7 C 28 3 23 3 18 4 M 18 61 C 9 66 8 70 13 79 C 14 82 16 85 14 110 C 14 119 14 128 14 137 C 13 139 12 140 9 142 C 4 148 4 148 7 150 C 8 152 12 152 24 152 C 45 152 48 150 39 140 C 37 139 35 138 34 137 C 34 124 34 112 34 100 C 34 79 33 61 33 60 C 32 58 25 58 18 61 z" fill="black"/><!-- width=54 height=163 -->
<path id="gl9763" d="M 39 6 C 16 12 4 32 7 59 C 11 85 26 97 52 97 C 76 97 92 86 96 65 C 100 53 100 49 97 40 C 92 13 66 0 39 6 M 58 16 C 81 21 86 74 64 86 C 35 101 13 47 37 22 C 42 17 48 13 52 14 C 53 14 55 16 58 16 z" fill="black"/><!-- width=110 height=109 -->
<path id="gl3" d="M 20 8 C 10 13 8 16 13 23 C 16 27 16 28 16 50 C 17 79 16 83 10 89 C 2 96 3 98 25 99 C 46 99 49 96 40 88 C 39 86 36 85 35 84 C 35 75 35 66 35 57 C 33 23 36 20 54 20 C 73 20 75 23 75 56 C 74 83 74 85 67 89 C 64 93 64 96 67 98 C 71 99 101 99 104 98 C 105 95 104 91 99 89 C 94 85 94 83 93 52 C 93 25 93 23 90 18 C 81 3 67 2 44 12 C 39 13 39 13 36 10 C 31 5 27 5 20 8 z" fill="black"/><!-- width=115 height=110 -->
<path id="gl9" d="M 37 7 C 20 12 7 22 7 31 C 7 41 23 38 27 27 C 31 18 37 15 46 17 C 52 20 55 25 55 35 C 56 47 53 48 37 55 C 13 61 7 66 7 78 C 7 96 25 105 43 95 C 52 91 55 91 62 96 C 72 103 95 96 88 88 C 87 87 85 87 82 87 C 71 87 70 81 72 51 C 72 33 72 27 72 22 C 68 8 53 2 37 7 M 53 63 C 58 71 51 86 42 87 C 20 87 21 68 42 61 C 48 60 51 60 53 63 z" fill="black"/><!-- width=98 height=110 -->
<path id="gl3" d="M 20 8 C 10 13 8 16 13 23 C 16 27 16 28 16 50 C 17 79 16 83 10 89 C 2 96 3 98 25 99 C 46 99 49 96 40 88 C 39 86 36 85 35 84 C 35 75 35 66 35 57 C 33 23 36 20 54 20 C 73 20 75 23 75 56 C 74 83 74 85 67 89 C 64 93 64 96 67 98 C 71 99 101 99 104 98 C 105 95 104 91 99 89 C 94 85 94 83 93 52 C 93 25 93 23 90 18 C 81 3 67 2 44 12 C 39 13 39 13 36 10 C 31 5 27 5 20 8 z" fill="black"/><!-- width=115 height=110 -->
<path id="gl258" d="M 77 7 C 66 11 65 14 71 25 C 74 32 75 32 75 47 C 75 70 75 69 57 70 C 26 71 11 84 7 112 C 2 148 32 175 62 161 C 69 158 70 158 76 162 C 81 165 81 165 89 164 C 106 161 112 155 101 151 C 99 149 95 148 94 145 C 93 143 93 85 93 35 C 94 26 94 17 94 8 C 93 8 91 7 91 5 C 88 3 85 3 77 7 M 66 82 C 74 87 75 91 74 118 C 74 126 74 134 74 143 C 72 143 71 145 70 145 C 59 156 37 148 29 131 C 16 102 41 68 66 82 z" fill="black"/><!-- width=118 height=176 -->
<path id="gl4" d="M 16 9 C 8 13 7 16 12 24 C 13 28 14 32 14 54 C 14 80 13 86 8 87 C 6 90 3 94 4 95 C 7 99 44 99 45 95 C 47 92 44 90 40 90 C 39 90 37 87 35 86 C 34 85 33 84 32 84 C 32 74 32 65 32 56 C 32 29 32 29 34 26 C 38 22 43 22 49 24 C 59 28 66 24 66 17 C 66 4 55 2 44 11 C 37 16 34 14 32 9 C 29 4 26 3 16 9 z" fill="black"/><!-- width=76 height=108 -->
<path id="gl5" d="M 38 7 C 19 13 8 30 8 56 C 8 80 20 96 42 99 C 55 101 71 96 78 89 C 85 79 80 76 69 82 C 49 91 24 76 24 51 C 24 40 24 40 53 40 C 61 40 69 40 78 40 C 78 39 79 38 80 36 C 84 33 84 28 80 22 C 74 8 56 2 38 7 M 57 15 C 65 20 65 28 57 30 C 52 33 35 33 33 30 C 30 28 30 25 34 22 C 40 14 50 12 57 15 z" fill="black"/><!-- width=94 height=112 -->
<path id="gl512" d="M 20 8 C 9 13 7 17 13 24 C 14 26 15 27 17 29 C 17 48 17 69 17 88 C 17 108 17 127 17 148 C 14 149 13 152 10 153 C 4 159 4 161 7 163 C 9 164 42 164 43 163 C 47 161 46 158 41 154 C 34 149 34 149 35 76 C 35 -1 36 1 20 8 z" fill="black"/><!-- width=55 height=175 -->
<path id="gl9" d="M 37 7 C 20 12 7 22 7 31 C 7 41 23 38 27 27 C 31 18 37 15 46 17 C 52 20 55 25 55 35 C 56 47 53 48 37 55 C 13 61 7 66 7 78 C 7 96 25 105 43 95 C 52 91 55 91 62 96 C 72 103 95 96 88 88 C 87 87 85 87 82 87 C 71 87 70 81 72 51 C 72 33 72 27 72 22 C 68 8 53 2 37 7 M 53 63 C 58 71 51 86 42 87 C 20 87 21 68 42 61 C 48 60 51 60 53 63 z" fill="black"/><!-- width=98 height=110 -->
<path id="gl5395" d="M 72 3 C 60 5 59 6 60 12 C 64 21 55 35 49 31 C 41 28 37 18 41 12 C 45 5 42 3 22 5 C 17 5 11 5 6 5 C 6 6 6 7 6 8 C 5 11 6 12 12 15 C 20 20 40 45 40 50 C 40 56 17 82 11 84 C 6 85 5 86 5 90 C 5 94 6 94 21 94 C 35 94 37 94 36 89 C 36 87 35 84 35 82 C 33 79 40 66 43 64 C 51 59 65 80 57 85 C 54 89 52 90 55 92 C 56 95 94 95 95 92 C 98 90 96 87 90 85 C 84 81 80 77 67 60 C 61 52 57 46 57 43 C 57 37 76 17 85 15 C 92 12 95 8 92 6 C 90 3 85 3 72 3 z" fill="black"/><!-- width=106 height=105 -->
<path id="gl9" d="M 37 7 C 20 12 7 22 7 31 C 7 41 23 38 27 27 C 31 18 37 15 46 17 C 52 20 55 25 55 35 C 56 47 53 48 37 55 C 13 61 7 66 7 78 C 7 96 25 105 43 95 C 52 91 55 91 62 96 C 72 103 95 96 88 88 C 87 87 85 87 82 87 C 71 87 70 81 72 51 C 72 33 72 27 72 22 C 68 8 53 2 37 7 M 53 63 C 58 71 51 86 42 87 C 20 87 21 68 42 61 C 48 60 51 60 53 63 z" fill="black"/><!-- width=98 height=110 -->
<path id="gl1" d="M 20 11 C 18 13 14 17 11 19 C 4 23 4 25 8 30 C 11 31 12 34 13 35 C 13 36 13 50 13 66 C 13 96 14 103 23 106 C 34 111 54 109 57 103 C 61 98 58 95 49 96 C 33 96 31 94 31 58 C 30 28 30 29 42 29 C 55 30 57 30 60 28 C 62 25 62 24 60 22 C 58 18 58 18 47 18 C 35 17 34 17 31 9 C 29 3 24 3 20 11 z" fill="black"/><!-- width=71 height=121 -->
<path id="gl2" d="M 18 4 C 11 8 9 19 14 25 C 27 37 43 19 32 7 C 28 3 23 3 18 4 M 18 61 C 9 66 8 70 13 79 C 14 82 16 85 14 110 C 14 119 14 128 14 137 C 13 139 12 140 9 142 C 4 148 4 148 7 150 C 8 152 12 152 24 152 C 45 152 48 150 39 140 C 37 139 35 138 34 137 C 34 124 34 112 34 100 C 34 79 33 61 33 60 C 32 58 25 58 18 61 z" fill="black"/><!-- width=54 height=163 -->
<path id="gl0" d="M 42 6 C 27 8 16 17 10 31 C 5 42 6 67 11 77 C 30 111 83 106 95 68 C 106 31 78 -1 42 6 M 61 18 C 81 28 82 73 63 86 C 45 99 23 78 26 47 C 27 22 42 8 61 18 z" fill="black"/><!-- width=111 height=111 -->
<path id="gl3" d="M 20 8 C 10 13 8 16 13 23 C 16 27 16 28 16 50 C 17 79 16 83 10 89 C 2 96 3 98 25 99 C 46 99 49 96 40 88 C 39 86 36 85 35 84 C 35 75 35 66 35 57 C 33 23 36 20 54 20 C 73 20 75 23 75 56 C 74 83 74 85 67 89 C 64 93 64 96 67 98 C 71 99 101 99 104 98 C 105 95 104 91 99 89 C 94 85 94 83 93 52 C 93 25 93 23 90 18 C 81 3 67 2 44 12 C 39 13 39 13 36 10 C 31 5 27 5 20 8 z" fill="black"/><!-- width=115 height=110 -->
<path id="gl9" d="M 37 7 C 20 12 7 22 7 31 C 7 41 23 38 27 27 C 31 18 37 15 46 17 C 52 20 55 25 55 35 C 56 47 53 48 37 55 C 13 61 7 66 7 78 C 7 96 25 105 43 95 C 52 91 55 91 62 96 C 72 103 95 96 88 88 C 87 87 85 87 82 87 C 71 87 70 81 72 51 C 72 33 72 27 72 22 C 68 8 53 2 37 7 M 53 63 C 58 71 51 86 42 87 C 20 87 21 68 42 61 C 48 60 51 60 53 63 z" fill="black"/><!-- width=98 height=110 -->
<path id="gl257" d="M 31 6 C 24 8 17 13 13 20 C 6 35 11 45 33 58 C 48 69 52 77 45 85 C 37 94 25 91 19 80 C 11 66 3 67 6 82 C 7 93 13 99 28 100 C 53 104 72 83 62 62 C 60 55 56 52 42 44 C 26 34 22 26 30 18 C 37 12 46 14 53 24 C 60 33 67 29 64 18 C 62 7 50 3 31 6 z" fill="black"/><!-- width=78 height=112 -->
<path id="gl6417" d="M 42 8 C 19 15 8 33 9 60 C 10 86 27 103 54 103 C 114 103 118 9 56 7 C 50 7 44 7 42 8 M 62 19 C 74 25 79 36 79 56 C 79 78 71 91 57 93 C 41 94 28 77 28 53 C 28 26 44 10 62 19 z" fill="black"/><!-- width=113 height=115 -->
<path id="gl774" d="M 19 8 C 9 13 8 14 13 25 C 15 31 15 33 15 52 C 15 79 15 81 9 88 C 1 95 3 96 24 96 C 45 97 48 95 40 86 C 34 81 34 78 34 53 C 33 25 36 20 52 20 C 72 19 75 24 74 57 C 74 66 74 73 74 80 C 72 83 70 84 68 86 C 59 95 62 96 84 96 C 106 96 108 95 99 86 C 94 83 92 80 92 77 C 92 74 92 62 92 50 C 92 26 92 25 90 19 C 83 6 64 1 48 9 C 41 13 37 13 35 8 C 31 4 26 4 19 8 z" fill="black"/><!-- width=115 height=106 -->
<path id="gl5" d="M 38 7 C 19 13 8 30 8 56 C 8 80 20 96 42 99 C 55 101 71 96 78 89 C 85 79 80 76 69 82 C 49 91 24 76 24 51 C 24 40 24 40 53 40 C 61 40 69 40 78 40 C 78 39 79 38 80 36 C 84 33 84 28 80 22 C 74 8 56 2 38 7 M 57 15 C 65 20 65 28 57 30 C 52 33 35 33 33 30 C 30 28 30 25 34 22 C 40 14 50 12 57 15 z" fill="black"/><!-- width=94 height=112 -->
<path id="gl517" d="M 24 6 C 19 8 11 14 9 17 C 9 18 11 22 12 25 C 13 28 14 29 14 32 C 14 49 14 66 14 83 C 14 137 14 141 8 147 C 1 155 4 157 28 157 C 46 157 48 156 48 152 C 48 150 48 149 43 146 C 35 142 33 140 33 120 C 33 102 34 101 45 102 C 76 104 102 81 103 48 C 103 19 77 0 52 8 C 40 13 36 13 34 9 C 32 6 28 4 24 6 M 70 25 C 83 34 86 61 75 80 C 66 93 44 96 36 82 C 34 78 33 76 33 56 C 33 27 35 23 46 22 C 55 20 64 22 70 25 z" fill="black"/><!-- width=114 height=167 -->
<path id="gl4" d="M 16 9 C 8 13 7 16 12 24 C 13 28 14 32 14 54 C 14 80 13 86 8 87 C 6 90 3 94 4 95 C 7 99 44 99 45 95 C 47 92 44 90 40 90 C 39 90 37 87 35 86 C 34 85 33 84 32 84 C 32 74 32 65 32 56 C 32 29 32 29 34 26 C 38 22 43 22 49 24 C 59 28 66 24 66 17 C 66 4 55 2 44 11 C 37 16 34 14 32 9 C 29 4 26 3 16 9 z" fill="black"/><!-- width=76 height=108 -->
<path id="gl0" d="M 42 6 C 27 8 16 17 10 31 C 5 42 6 67 11 77 C 30 111 83 106 95 68 C 106 31 78 -1 42 6 M 61 18 C 81 28 82 73 63 86 C 45 99 23 78 26 47 C 27 22 42 8 61 18 z" fill="black"/><!-- width=111 height=111 -->
<path id="gl4888" d="M 34 7 C 11 14 3 39 17 59 C 23 67 23 71 17 77 C 9 84 9 89 16 96 C 22 103 22 105 17 110 C 7 122 5 129 10 139 C 19 156 53 160 77 147 C 98 135 107 110 92 96 C 86 89 79 87 58 89 C 38 90 32 89 29 83 C 26 74 33 71 49 68 C 71 67 80 59 83 38 C 85 28 86 26 92 24 C 105 22 102 11 87 11 C 82 11 76 11 70 9 C 58 5 41 4 34 7 M 55 17 C 70 28 67 55 52 60 C 42 64 33 55 30 42 C 27 23 43 8 55 17 M 74 107 C 87 114 85 130 70 139 C 64 141 48 142 41 140 C 23 136 21 112 36 105 C 42 103 67 103 74 107 z" fill="black"/><!-- width=110 height=165 -->
<path id="gl4" d="M 16 9 C 8 13 7 16 12 24 C 13 28 14 32 14 54 C 14 80 13 86 8 87 C 6 90 3 94 4 95 C 7 99 44 99 45 95 C 47 92 44 90 40 90 C 39 90 37 87 35 86 C 34 85 33 84 32 84 C 32 74 32 65 32 56 C 32 29 32 29 34 26 C 38 22 43 22 49 24 C 59 28 66 24 66 17 C 66 4 55 2 44 11 C 37 16 34 14 32 9 C 29 4 26 3 16 9 z" fill="black"/><!-- width=76 height=108 -->
<path id="gl5" d="M 38 7 C 19 13 8 30 8 56 C 8 80 20 96 42 99 C 55 101 71 96 78 89 C 85 79 80 76 69 82 C 49 91 24 76 24 51 C 24 40 24 40 53 40 C 61 40 69 40 78 40 C 78 39 79 38 80 36 C 84 33 84 28 80 22 C 74 8 56 2 38 7 M 57 15 C 65 20 65 28 57 30 C 52 33 35 33 33 30 C 30 28 30 25 34 22 C 40 14 50 12 57 15 z" fill="black"/><!-- width=94 height=112 -->
<path id="gl257" d="M 31 6 C 24 8 17 13 13 20 C 6 35 11 45 33 58 C 48 69 52 77 45 85 C 37 94 25 91 19 80 C 11 66 3 67 6 82 C 7 93 13 99 28 100 C 53 104 72 83 62 62 C 60 55 56 52 42 44 C 26 34 22 26 30 18 C 37 12 46 14 53 24 C 60 33 67 29 64 18 C 62 7 50 3 31 6 z" fill="black"/><!-- width=78 height=112 -->
<path id="gl257" d="M 31 6 C 24 8 17 13 13 20 C 6 35 11 45 33 58 C 48 69 52 77 45 85 C 37 94 25 91 19 80 C 11 66 3 67 6 82 C 7 93 13 99 28 100 C 53 104 72 83 62 62 C 60 55 56 52 42 44 C 26 34 22 26 30 18 C 37 12 46 14 53 24 C 60 33 67 29 64 18 C 62 7 50 3 31 6 z" fill="black"/><!-- width=78 height=112 -->
<path id="gl5" d="M 38 7 C 19 13 8 30 8 56 C 8 80 20 96 42 99 C 55 101 71 96 78 89 C 85 79 80 76 69 82 C 49 91 24 76 24 51 C 24 40 24 40 53 40 C 61 40 69 40 78 40 C 78 39 79 38 80 36 C 84 33 84 28 80 22 C 74 8 56 2 38 7 M 57 15 C 65 20 65 28 57 30 C 52 33 35 33 33 30 C 30 28 30 25 34 22 C 40 14 50 12 57 15 z" fill="black"/><!-- width=94 height=112 -->
<path id="gl257" d="M 31 6 C 24 8 17 13 13 20 C 6 35 11 45 33 58 C 48 69 52 77 45 85 C 37 94 25 91 19 80 C 11 66 3 67 6 82 C 7 93 13 99 28 100 C 53 104 72 83 62 62 C 60 55 56 52 42 44 C 26 34 22 26 30 18 C 37 12 46 14 53 24 C 60 33 67 29 64 18 C 62 7 50 3 31 6 z" fill="black"/><!-- width=78 height=112 -->
<path id="gl5138" d="M 50 6 C 29 12 18 28 16 58 C 14 66 13 71 11 75 C 8 80 7 82 8 84 C 14 92 14 91 14 118 C 14 147 13 148 9 153 C 2 160 6 163 25 163 C 45 163 49 161 40 154 C 33 148 32 144 32 116 C 32 92 32 91 35 88 C 38 86 39 86 46 86 C 55 87 61 85 61 80 C 61 76 58 74 46 74 C 32 74 29 70 34 44 C 39 17 48 12 66 24 C 75 30 84 27 84 18 C 84 7 66 1 50 6 z" fill="black"/><!-- width=92 height=173 -->
<path id="gl4" d="M 16 9 C 8 13 7 16 12 24 C 13 28 14 32 14 54 C 14 80 13 86 8 87 C 6 90 3 94 4 95 C 7 99 44 99 45 95 C 47 92 44 90 40 90 C 39 90 37 87 35 86 C 34 85 33 84 32 84 C 32 74 32 65 32 56 C 32 29 32 29 34 26 C 38 22 43 22 49 24 C 59 28 66 24 66 17 C 66 4 55 2 44 11 C 37 16 34 14 32 9 C 29 4 26 3 16 9 z" fill="black"/><!-- width=76 height=108 -->
<path id="gl6417" d="M 42 8 C 19 15 8 33 9 60 C 10 86 27 103 54 103 C 114 103 118 9 56 7 C 50 7 44 7 42 8 M 62 19 C 74 25 79 36 79 56 C 79 78 71 91 57 93 C 41 94 28 77 28 53 C 28 26 44 10 62 19 z" fill="black"/><!-- width=113 height=115 -->
<path id="gl259" d="M 19 8 C 9 13 8 16 13 25 C 19 38 17 88 9 88 C 9 88 8 91 7 92 C 3 98 6 100 24 100 C 46 100 48 98 40 88 C 39 87 37 86 35 83 C 35 75 35 66 35 58 C 34 29 35 27 43 22 C 49 18 62 19 69 24 C 74 29 74 34 74 55 C 74 79 74 83 69 88 C 65 92 64 97 66 98 C 66 98 74 100 83 100 C 104 100 107 97 98 88 C 97 87 95 86 93 83 C 93 75 93 66 93 58 C 93 33 93 32 96 28 C 102 17 123 17 129 29 C 132 33 132 37 132 56 C 132 81 132 85 125 88 C 122 92 122 97 124 98 C 128 100 158 100 160 97 C 163 96 163 93 158 90 C 151 85 150 82 150 55 C 150 28 150 23 145 16 C 137 3 118 2 101 12 C 93 17 90 17 83 13 C 72 4 64 3 51 8 C 40 13 38 13 35 9 C 32 4 28 4 19 8 z" fill="black"/><!-- width=172 height=109 -->
<path id="gl0" d="M 42 6 C 27 8 16 17 10 31 C 5 42 6 67 11 77 C 30 111 83 106 95 68 C 106 31 78 -1 42 6 M 61 18 C 81 28 82 73 63 86 C 45 99 23 78 26 47 C 27 22 42 8 61 18 z" fill="black"/><!-- width=111 height=111 -->
<path id="gl3" d="M 20 8 C 10 13 8 16 13 23 C 16 27 16 28 16 50 C 17 79 16 83 10 89 C 2 96 3 98 25 99 C 46 99 49 96 40 88 C 39 86 36 85 35 84 C 35 75 35 66 35 57 C 33 23 36 20 54 20 C 73 20 75 23 75 56 C 74 83 74 85 67 89 C 64 93 64 96 67 98 C 71 99 101 99 104 98 C 105 95 104 91 99 89 C 94 85 94 83 93 52 C 93 25 93 23 90 18 C 81 3 67 2 44 12 C 39 13 39 13 36 10 C 31 5 27 5 20 8 z" fill="black"/><!-- width=115 height=110 -->
<path id="gl5" d="M 38 7 C 19 13 8 30 8 56 C 8 80 20 96 42 99 C 55 101 71 96 78 89 C 85 79 80 76 69 82 C 49 91 24 76 24 51 C 24 40 24 40 53 40 C 61 40 69 40 78 40 C 78 39 79 38 80 36 C 84 33 84 28 80 22 C 74 8 56 2 38 7 M 57 15 C 65 20 65 28 57 30 C 52 33 35 33 33 30 C 30 28 30 25 34 22 C 40 14 50 12 57 15 z" fill="black"/><!-- width=94 height=112 -->
<path id="gl259" d="M 19 8 C 9 13 8 16 13 25 C 19 38 17 88 9 88 C 9 88 8 91 7 92 C 3 98 6 100 24 100 C 46 100 48 98 40 88 C 39 87 37 86 35 83 C 35 75 35 66 35 58 C 34 29 35 27 43 22 C 49 18 62 19 69 24 C 74 29 74 34 74 55 C 74 79 74 83 69 88 C 65 92 64 97 66 98 C 66 98 74 100 83 100 C 104 100 107 97 98 88 C 97 87 95 86 93 83 C 93 75 93 66 93 58 C 93 33 93 32 96 28 C 102 17 123 17 129 29 C 132 33 132 37 132 56 C 132 81 132 85 125 88 C 122 92 122 97 124 98 C 128 100 158 100 160 97 C 163 96 163 93 158 90 C 151 85 150 82 150 55 C 150 28 150 23 145 16 C 137 3 118 2 101 12 C 93 17 90 17 83 13 C 72 4 64 3 51 8 C 40 13 38 13 35 9 C 32 4 28 4 19 8 z" fill="black"/><!-- width=172 height=109 -->
<path id="gl256" d="M 16 4 C 4 6 3 9 9 18 C 12 23 13 23 13 49 C 13 63 13 78 14 80 C 18 95 38 101 57 94 C 68 89 68 89 72 94 C 75 98 78 98 93 94 C 105 91 108 88 99 83 C 89 79 89 79 90 42 C 90 23 90 7 90 7 C 89 3 84 3 75 4 C 62 6 59 9 67 16 C 68 18 70 22 70 24 C 73 31 73 69 70 74 C 65 86 41 88 33 77 C 31 72 31 72 31 39 C 31 28 32 17 32 7 C 31 6 29 6 28 4 C 26 2 24 2 16 4 z" fill="black"/><!-- width=114 height=109 -->
<path id="gl257" d="M 31 6 C 24 8 17 13 13 20 C 6 35 11 45 33 58 C 48 69 52 77 45 85 C 37 94 25 91 19 80 C 11 66 3 67 6 82 C 7 93 13 99 28 100 C 53 104 72 83 62 62 C 60 55 56 52 42 44 C 26 34 22 26 30 18 C 37 12 46 14 53 24 C 60 33 67 29 64 18 C 62 7 50 3 31 6 z" fill="black"/><!-- width=78 height=112 -->
<path id="gl6413" d="M 50 7 C 25 10 8 30 8 56 C 8 83 22 98 48 101 C 67 103 96 85 86 77 C 84 74 83 74 74 80 C 53 95 26 79 26 51 C 26 24 48 9 68 24 C 77 28 80 28 84 26 C 87 21 85 13 78 9 C 74 7 57 6 50 7 z" fill="black"/><!-- width=97 height=112 -->
<path id="gl512" d="M 20 8 C 9 13 7 17 13 24 C 14 26 15 27 17 29 C 17 48 17 69 17 88 C 17 108 17 127 17 148 C 14 149 13 152 10 153 C 4 159 4 161 7 163 C 9 164 42 164 43 163 C 47 161 46 158 41 154 C 34 149 34 149 35 76 C 35 -1 36 1 20 8 z" fill="black"/><!-- width=55 height=175 -->
<path id="gl261" d="M 39 6 C 18 10 7 26 7 54 C 7 73 9 79 18 87 C 32 102 63 102 75 87 C 83 80 76 76 67 81 C 46 92 23 75 21 51 C 21 40 23 39 50 40 C 76 41 80 40 81 30 C 81 13 59 1 39 6 M 54 15 C 62 18 62 28 54 30 C 50 32 34 32 30 31 C 28 29 28 25 32 20 C 37 14 46 12 54 15 z" fill="black"/><!-- width=91 height=111 -->
<path id="gl5405" d="M 34 7 C 12 13 3 40 18 58 C 24 66 24 70 17 77 C 8 84 8 89 17 98 C 23 103 22 106 15 115 C -9 143 34 172 74 152 C 101 138 109 103 87 92 C 79 88 79 88 63 88 C 34 89 31 89 29 83 C 27 74 31 71 49 70 C 71 68 81 58 83 38 C 84 28 88 24 94 24 C 98 24 100 22 100 18 C 100 13 98 12 87 12 C 78 12 73 11 66 8 C 56 4 41 4 34 7 M 55 17 C 72 25 67 61 49 61 C 39 61 30 51 30 38 C 30 20 43 11 55 17 M 74 108 C 89 115 86 135 67 142 C 60 144 44 144 38 142 C 23 135 22 115 36 108 C 43 104 67 104 74 108 z" fill="black"/><!-- width=110 height=169 -->
<path id="gl1565" d="M 23 9 C 14 13 9 19 14 21 C 19 25 19 32 19 57 C 19 85 19 85 12 90 C 2 97 4 100 29 100 C 47 100 50 100 51 97 C 53 95 52 92 46 91 C 37 87 37 86 37 57 C 37 30 37 26 43 24 C 46 23 48 23 53 25 C 64 29 73 26 73 17 C 73 7 61 4 48 12 C 46 13 43 14 41 15 C 40 14 39 12 37 10 C 32 6 30 6 23 9 z" fill="black"/><!-- width=81 height=111 -->
<path id="gl0" d="M 42 6 C 27 8 16 17 10 31 C 5 42 6 67 11 77 C 30 111 83 106 95 68 C 106 31 78 -1 42 6 M 61 18 C 81 28 82 73 63 86 C 45 99 23 78 26 47 C 27 22 42 8 61 18 z" fill="black"/><!-- width=111 height=111 -->
<path id="gl256" d="M 16 4 C 4 6 3 9 9 18 C 12 23 13 23 13 49 C 13 63 13 78 14 80 C 18 95 38 101 57 94 C 68 89 68 89 72 94 C 75 98 78 98 93 94 C 105 91 108 88 99 83 C 89 79 89 79 90 42 C 90 23 90 7 90 7 C 89 3 84 3 75 4 C 62 6 59 9 67 16 C 68 18 70 22 70 24 C 73 31 73 69 70 74 C 65 86 41 88 33 77 C 31 72 31 72 31 39 C 31 28 32 17 32 7 C 31 6 29 6 28 4 C 26 2 24 2 16 4 z" fill="black"/><!-- width=114 height=109 -->
<path id="gl517" d="M 24 6 C 19 8 11 14 9 17 C 9 18 11 22 12 25 C 13 28 14 29 14 32 C 14 49 14 66 14 83 C 14 137 14 141 8 147 C 1 155 4 157 28 157 C 46 157 48 156 48 152 C 48 150 48 149 43 146 C 35 142 33 140 33 120 C 33 102 34 101 45 102 C 76 104 102 81 103 48 C 103 19 77 0 52 8 C 40 13 36 13 34 9 C 32 6 28 4 24 6 M 70 25 C 83 34 86 61 75 80 C 66 93 44 96 36 82 C 34 78 33 76 33 56 C 33 27 35 23 46 22 C 55 20 64 22 70 25 z" fill="black"/><!-- width=114 height=167 -->
<path id="gl770" d="M 16 12 C 6 22 4 23 9 29 C 12 33 12 33 12 59 C 13 95 14 99 24 104 C 35 109 56 106 55 98 C 55 95 55 95 48 95 C 32 95 30 91 29 56 C 29 25 28 27 45 27 C 57 27 61 24 57 18 C 55 16 54 16 45 16 C 35 17 30 14 30 11 C 30 8 27 3 25 3 C 24 3 20 8 16 12 z" fill="black"/><!-- width=69 height=118 -->
<path id="gl0" d="M 42 6 C 27 8 16 17 10 31 C 5 42 6 67 11 77 C 30 111 83 106 95 68 C 106 31 78 -1 42 6 M 61 18 C 81 28 82 73 63 86 C 45 99 23 78 26 47 C 27 22 42 8 61 18 z" fill="black"/><!-- width=111 height=111 -->
<path id="gl1027" d="M 22 12 C 20 15 15 19 13 20 C 7 24 6 26 12 32 C 13 33 14 35 16 36 C 16 47 16 56 16 66 C 15 105 18 107 36 111 C 47 112 61 106 60 100 C 60 98 59 98 52 98 C 42 99 37 96 35 91 C 32 85 31 38 33 33 C 35 32 35 31 36 30 C 39 30 43 31 47 31 C 59 31 62 30 62 25 C 62 20 59 18 48 19 C 38 20 37 19 33 12 C 30 4 29 4 22 12 z" fill="black"/><!-- width=72 height=122 -->
<path id="gl1796" d="M 20 9 C 11 14 9 17 14 25 C 18 30 18 31 18 115 C 18 126 18 138 17 150 C 15 151 14 153 12 154 C 6 161 4 163 11 164 C 15 167 40 167 44 164 C 47 163 47 158 44 156 C 38 152 38 148 38 121 C 38 113 38 104 38 97 C 39 94 40 93 40 92 C 47 84 63 83 71 92 C 76 95 77 103 77 122 C 77 145 77 150 71 154 C 62 163 66 166 88 166 C 109 166 114 163 104 156 C 97 151 97 150 97 119 C 95 90 95 90 92 84 C 84 72 66 68 50 77 C 47 78 44 79 43 78 C 36 78 36 75 38 41 C 38 17 38 12 36 9 C 34 6 29 6 20 9 z" fill="black"/><!-- width=119 height=177 -->
<path id="gl5" d="M 38 7 C 19 13 8 30 8 56 C 8 80 20 96 42 99 C 55 101 71 96 78 89 C 85 79 80 76 69 82 C 49 91 24 76 24 51 C 24 40 24 40 53 40 C 61 40 69 40 78 40 C 78 39 79 38 80 36 C 84 33 84 28 80 22 C 74 8 56 2 38 7 M 57 15 C 65 20 65 28 57 30 C 52 33 35 33 33 30 C 30 28 30 25 34 22 C 40 14 50 12 57 15 z" fill="black"/><!-- width=94 height=112 -->
<path id="gl1026" d="M 21 10 C 10 14 9 18 14 26 C 15 27 16 30 18 32 C 16 40 16 50 16 58 C 16 67 16 76 16 85 C 14 87 13 88 10 91 C 9 93 8 94 6 97 C 7 97 7 98 8 98 C 12 102 42 102 44 99 C 46 97 46 94 42 91 C 36 86 34 82 34 57 C 34 32 36 28 44 24 C 49 21 62 20 67 24 C 75 27 75 30 75 58 C 75 68 75 76 75 85 C 74 87 72 88 70 91 C 64 96 64 97 67 98 C 70 102 100 102 104 98 C 106 96 106 96 102 92 C 94 85 94 84 94 55 C 94 42 93 28 93 26 C 88 9 69 3 50 12 C 43 15 39 15 37 13 C 33 6 30 6 21 10 z" fill="black"/><!-- width=116 height=111 -->
<path id="gl261" d="M 39 6 C 18 10 7 26 7 54 C 7 73 9 79 18 87 C 32 102 63 102 75 87 C 83 80 76 76 67 81 C 46 92 23 75 21 51 C 21 40 23 39 50 40 C 76 41 80 40 81 30 C 81 13 59 1 39 6 M 54 15 C 62 18 62 28 54 30 C 50 32 34 32 30 31 C 28 29 28 25 32 20 C 37 14 46 12 54 15 z" fill="black"/><!-- width=91 height=111 -->
<path id="gl772" d="M 7 7 C 5 10 6 12 12 17 C 18 21 35 42 37 49 C 40 55 25 74 10 85 C 6 89 5 89 6 92 C 8 94 8 95 18 95 C 32 95 34 94 34 85 C 32 75 39 64 45 64 C 49 64 54 69 56 75 C 59 79 59 80 56 85 C 54 94 55 95 73 95 C 93 95 97 93 85 84 C 78 78 59 55 58 49 C 55 41 66 25 79 17 C 93 10 92 6 74 6 C 60 6 60 6 59 16 C 59 31 50 37 42 29 C 39 25 37 21 39 13 C 40 7 37 6 22 6 C 13 6 8 6 7 7 z" fill="black"/><!-- width=102 height=104 -->
<path id="gl768" d="M 19 11 C 14 16 11 19 11 19 C 7 19 8 24 11 28 C 12 29 13 31 16 33 C 16 42 16 50 16 59 C 16 95 16 99 27 105 C 37 110 59 106 58 99 C 58 95 58 95 49 95 C 33 94 33 91 32 55 C 32 26 32 27 48 27 C 59 28 62 27 62 22 C 62 17 58 14 48 16 C 39 17 33 13 33 9 C 33 7 31 4 28 4 C 27 4 23 7 19 11 z" fill="black"/><!-- width=73 height=117 -->
<path id="gl516" d="M 15 7 C 2 11 5 31 18 31 C 30 31 35 18 27 10 C 24 9 23 7 22 7 C 22 7 20 6 19 6 C 19 6 17 6 15 7 z" fill="black"/><!-- width=44 height=43 -->
<path id="gl1797" d="M 12 7 C 7 10 3 31 6 35 C 8 39 9 38 16 31 C 25 21 29 20 44 20 C 66 19 64 13 64 81 C 64 148 65 142 48 151 C 44 152 43 154 45 157 C 48 160 99 160 101 157 C 103 153 102 152 96 148 C 84 143 85 147 85 82 C 85 62 85 43 85 24 C 87 24 88 22 89 21 C 91 19 93 19 106 20 C 124 20 125 21 134 33 C 137 39 141 39 143 36 C 145 33 146 27 146 20 C 147 7 146 4 139 6 C 136 6 131 7 129 7 C 125 8 102 8 76 8 C 32 8 29 8 22 6 C 14 3 15 3 12 7 z" fill="black"/><!-- width=157 height=169 -->
<path id="gl17667" d="M 8 7 C 6 9 7 12 13 16 C 22 21 22 21 21 81 C 21 142 21 139 11 144 C 6 147 3 152 7 153 C 8 153 19 153 33 153 C 55 154 58 153 59 152 C 61 148 59 147 51 143 C 42 141 42 138 42 111 C 42 82 40 82 63 84 C 79 85 79 85 86 97 C 89 101 90 102 94 100 C 97 97 97 61 94 58 C 91 55 87 56 84 64 C 80 71 76 72 60 74 C 40 74 42 75 42 44 C 42 37 42 29 42 21 C 42 21 43 19 44 18 C 45 17 47 16 48 14 C 53 14 58 16 63 16 C 82 17 86 18 91 27 C 100 40 105 38 103 21 C 103 4 107 4 54 4 C 17 4 8 6 8 7 z" fill="black"/><!-- width=113 height=163 -->
</defs>
<use xlink:href="#gl5661" x="0" y="63"/>
<use xlink:href="#gl516" x="111" y="134"/>
<use xlink:href="#gl1562" x="351" y="10"/>
<use xlink:href="#gl9730" x="492" y="68"/>
<use xlink:href="#gl259" x="627" y="67"/>
<use xlink:href="#gl6423" x="799" y="66"/>
<use xlink:href="#gl6413" x="907" y="66"/>
<use xlink:href="#gl1796" x="996" y="0"/>
<use xlink:href="#gl9" x="1165" y="68"/>
<use xlink:href="#gl257" x="1253" y="68"/>
<use xlink:href="#gl517" x="1381" y="67"/>
<use xlink:href="#gl0" x="1493" y="69"/>
<use xlink:href="#gl257" x="1598" y="68"/>
<use xlink:href="#gl257" x="1670" y="69"/>
<use xlink:href="#gl8730" x="1749" y="11"/>
<use xlink:href="#gl513" x="1802" y="3"/>
<use xlink:href="#gl512" x="1910" y="3"/>
<use xlink:href="#gl5" x="1963" y="68"/>
<use xlink:href="#gl519" x="2058" y="134"/>
<use xlink:href="#gl6417" x="2158" y="66"/>
<use xlink:href="#gl1026" x="2269" y="67"/>
<use xlink:href="#gl5" x="2381" y="69"/>
<use xlink:href="#gl257" x="2523" y="69"/>
<use xlink:href="#gl8" x="2595" y="4"/>
<use xlink:href="#gl0" x="2709" y="70"/>
<use xlink:href="#gl256" x="2818" y="72"/>
<use xlink:href="#gl512" x="2928" y="3"/>
<use xlink:href="#gl258" x="2982" y="5"/>
<use xlink:href="#gl5408" x="3147" y="67"/>
<use xlink:href="#gl6417" x="3235" y="68"/>
<use xlink:href="#gl1026" x="3346" y="68"/>
<use xlink:href="#gl777" x="3459" y="72"/>
<use xlink:href="#gl5" x="3548" y="69"/>
<use xlink:href="#gl1026" x="3637" y="68"/>
<use xlink:href="#gl1027" x="3752" y="59"/>
<use xlink:href="#gl4" x="3824" y="70"/>
<use xlink:href="#gl9484" x="3892" y="67"/>
<use xlink:href="#gl770" x="3986" y="63"/>
<use xlink:href="#gl5" x="4048" y="70"/>
<use xlink:href="#gl0" x="4191" y="71"/>
<use xlink:href="#gl3" x="4300" y="71"/>
<use xlink:href="#gl1" x="4472" y="63"/>
<use xlink:href="#gl1796" x="4534" y="5"/>
<use xlink:href="#gl261" x="4651" y="72"/>
<use xlink:href="#gl5394" x="4793" y="2"/>
<use xlink:href="#gl5" x="4856" y="72"/>
<use xlink:href="#gl5" x="4942" y="71"/>
<use xlink:href="#gl512" x="5030" y="5"/>
<use xlink:href="#gl773" x="5084" y="108"/>
<use xlink:href="#gl2" x="364" y="336"/>
<use xlink:href="#gl3" x="419" y="390"/>
<use xlink:href="#gl4888" x="529" y="392"/>
<use xlink:href="#gl257" x="628" y="391"/>
<use xlink:href="#gl0" x="757" y="392"/>
<use xlink:href="#gl5394" x="864" y="322"/>
<use xlink:href="#gl1" x="998" y="382"/>
<use xlink:href="#gl520" x="1062" y="390"/>
<use xlink:href="#gl3" x="1152" y="391"/>
<use xlink:href="#gl257" x="1263" y="391"/>
<use xlink:href="#gl2" x="1340" y="337"/>
<use xlink:href="#gl9763" x="1392" y="393"/>
<use xlink:href="#gl3" x="1502" y="391"/>
<use xlink:href="#gl9" x="1670" y="393"/>
<use xlink:href="#gl3" x="1762" y="392"/>
<use xlink:href="#gl258" x="1875" y="327"/>
<use xlink:href="#gl4" x="2047" y="392"/>
<use xlink:href="#gl5" x="2112" y="392"/>
<use xlink:href="#gl512" x="2200" y="326"/>
<use xlink:href="#gl9" x="2253" y="394"/>
<use xlink:href="#gl5395" x="2338" y="396"/>
<use xlink:href="#gl9" x="2435" y="393"/>
<use xlink:href="#gl1" x="2529" y="384"/>
<use xlink:href="#gl2" x="2597" y="339"/>
<use xlink:href="#gl0" x="2650" y="393"/>
<use xlink:href="#gl3" x="2759" y="392"/>
<use xlink:href="#gl9" x="2926" y="394"/>
<use xlink:href="#gl257" x="3014" y="394"/>
<use xlink:href="#gl6417" x="3139" y="391"/>
<use xlink:href="#gl774" x="3252" y="393"/>
<use xlink:href="#gl5" x="3364" y="392"/>
<use xlink:href="#gl517" x="3508" y="391"/>
<use xlink:href="#gl4" x="3624" y="394"/>
<use xlink:href="#gl0" x="3692" y="394"/>
<use xlink:href="#gl4888" x="3796" y="395"/>
<use xlink:href="#gl4" x="3902" y="393"/>
<use xlink:href="#gl5" x="3967" y="393"/>
<use xlink:href="#gl257" x="4054" y="394"/>
<use xlink:href="#gl257" x="4124" y="394"/>
<use xlink:href="#gl5" x="4197" y="394"/>
<use xlink:href="#gl257" x="4282" y="394"/>
<use xlink:href="#gl5138" x="4415" y="327"/>
<use xlink:href="#gl4" x="4479" y="395"/>
<use xlink:href="#gl6417" x="4545" y="392"/>
<use xlink:href="#gl259" x="4658" y="394"/>
<use xlink:href="#gl0" x="360" y="710"/>
<use xlink:href="#gl3" x="469" y="710"/>
<use xlink:href="#gl5" x="581" y="709"/>
<use xlink:href="#gl259" x="727" y="710"/>
<use xlink:href="#gl256" x="900" y="714"/>
<use xlink:href="#gl257" x="1008" y="711"/>
<use xlink:href="#gl6413" x="1079" y="710"/>
<use xlink:href="#gl512" x="1169" y="643"/>
<use xlink:href="#gl261" x="1224" y="712"/>
<use xlink:href="#gl5405" x="1362" y="710"/>
<use xlink:href="#gl1565" x="1463" y="709"/>
<use xlink:href="#gl0" x="1537" y="712"/>
<use xlink:href="#gl256" x="1647" y="714"/>
<use xlink:href="#gl517" x="1757" y="710"/>
<use xlink:href="#gl770" x="1928" y="704"/>
<use xlink:href="#gl0" x="1992" y="711"/>
<use xlink:href="#gl1027" x="2154" y="700"/>
<use xlink:href="#gl1796" x="2218" y="644"/>
<use xlink:href="#gl5" x="2332" y="711"/>
<use xlink:href="#gl1026" x="2475" y="709"/>
<use xlink:href="#gl261" x="2592" y="713"/>
<use xlink:href="#gl772" x="2675" y="714"/>
<use xlink:href="#gl768" x="2773" y="705"/>
<use xlink:href="#gl516" x="2845" y="780"/>
<use xlink:href="#gl1797" x="5536" y="654"/>
<use xlink:href="#gl17667" x="6132" y="659"/>
</svg>