<svg xmlns="http://www.w3.org/2000/svg" xmlns:xlink="http://www.w3.org/1999/xlink" width="318px" height="27px" viewBox="0 0 3183 278" version="1.1">
<defs>
<path id="gl33797" d="M 112 2 C 75 3 74 3 73 5 C 71 9 73 10 81 14 C 92 19 93 25 89 39 C 83 61 71 103 65 121 C 57 145 56 151 46 181 C 34 221 31 229 16 232 C 4 236 1 239 7 242 C 9 243 77 243 83 242 C 91 240 85 235 76 233 C 63 231 61 221 67 199 C 74 173 77 164 81 151 C 88 125 91 124 125 127 C 151 129 157 133 159 142 C 161 154 163 155 165 155 C 169 155 172 148 175 136 C 176 133 181 116 182 112 C 187 103 190 91 189 89 C 185 86 182 87 175 97 C 164 112 157 113 121 115 C 92 115 92 113 105 74 C 109 61 115 44 117 35 C 121 26 123 21 125 19 C 127 17 127 16 128 15 C 136 15 143 15 152 15 C 188 16 194 17 201 25 C 203 27 203 29 203 34 C 203 41 207 49 211 49 C 213 50 217 43 219 34 C 219 32 220 26 221 23 C 225 14 225 7 223 4 C 221 2 200 2 112 2 z" fill="black"/><!-- width=233 height=255 -->
<path id="gl5912" d="M 35 7 C 24 12 9 28 9 35 C 9 40 12 40 17 35 C 28 26 34 23 38 29 C 42 34 35 53 16 114 C 4 146 4 146 8 151 C 14 158 19 153 31 130 C 44 94 59 66 75 45 C 90 26 94 23 101 38 C 106 47 111 45 116 35 C 124 17 115 1 101 4 C 91 8 83 18 66 43 C 53 66 48 65 54 39 C 58 22 59 17 57 12 C 54 3 47 2 35 7 z" fill="black"/><!-- width=128 height=163 -->
<path id="gl5913" d="M 74 7 C 48 16 21 48 12 83 C 2 114 6 140 21 150 C 59 174 118 118 125 52 C 128 41 127 39 124 27 C 118 7 98 0 74 7 M 94 16 C 104 21 107 39 100 62 C 85 117 56 154 36 143 C 24 135 24 117 34 85 C 51 38 78 7 94 16 z" fill="black"/><!-- width=138 height=165 -->
<path id="gl5916" d="M 41 7 C 28 12 18 19 10 29 C 6 36 12 40 19 34 C 29 25 36 23 41 26 C 45 29 45 32 40 48 C 37 54 35 63 34 67 C 32 70 30 76 29 81 C 18 107 6 141 6 145 C 6 152 15 154 20 148 C 23 146 29 134 36 119 C 56 80 67 65 92 39 C 107 24 114 19 120 19 C 130 19 131 28 123 48 C 115 70 98 113 93 125 C 85 146 86 152 96 152 C 102 152 103 151 120 119 C 128 104 129 102 141 82 C 152 64 178 35 191 24 C 207 12 215 21 208 43 C 203 56 185 102 178 118 C 168 139 167 142 169 147 C 171 152 174 153 184 152 C 203 148 236 124 232 115 C 231 112 229 113 221 119 C 206 134 196 134 199 120 C 199 118 206 104 212 89 C 218 74 225 56 228 49 C 241 14 230 -1 202 7 C 187 12 176 21 160 41 C 142 65 140 64 146 36 C 149 18 149 10 141 6 C 126 -1 99 12 76 41 C 54 69 51 65 63 32 C 65 24 69 15 69 13 C 69 3 57 1 41 7 z" fill="black"/><!-- width=243 height=162 -->
<path id="gl33797" d="M 112 2 C 75 3 74 3 73 5 C 71 9 73 10 81 14 C 92 19 93 25 89 39 C 83 61 71 103 65 121 C 57 145 56 151 46 181 C 34 221 31 229 16 232 C 4 236 1 239 7 242 C 9 243 77 243 83 242 C 91 240 85 235 76 233 C 63 231 61 221 67 199 C 74 173 77 164 81 151 C 88 125 91 124 125 127 C 151 129 157 133 159 142 C 161 154 163 155 165 155 C 169 155 172 148 175 136 C 176 133 181 116 182 112 C 187 103 190 91 189 89 C 185 86 182 87 175 97 C 164 112 157 113 121 115 C 92 115 92 113 105 74 C 109 61 115 44 117 35 C 121 26 123 21 125 19 C 127 17 127 16 128 15 C 136 15 143 15 152 15 C 188 16 194 17 201 25 C 203 27 203 29 203 34 C 203 41 207 49 211 49 C 213 50 217 43 219 34 C 219 32 220 26 221 23 C 225 14 225 7 223 4 C 221 2 200 2 112 2 z" fill="black"/><!-- width=233 height=255 -->
<path id="gl6150" d="M 86 6 C 45 17 4 76 8 122 C 9 151 26 161 54 152 C 73 144 91 128 86 122 C 84 120 83 121 71 128 C 57 138 49 141 40 137 C 32 132 29 127 30 110 C 30 87 34 83 58 78 C 101 68 131 37 118 14 C 114 4 102 2 86 6 M 99 18 C 107 27 95 47 69 63 C 37 84 37 63 68 30 C 83 16 92 12 99 18 z" fill="black"/><!-- width=132 height=164 -->
<path id="gl5915" d="M 139 7 C 137 9 134 12 134 13 C 134 13 134 15 132 18 C 129 21 126 21 118 19 C 98 10 63 32 36 72 C 4 118 -1 161 20 161 C 32 161 54 148 74 131 C 90 115 95 117 87 139 C 83 151 83 155 88 158 C 95 166 123 154 143 135 C 150 128 150 127 148 124 C 145 122 144 122 133 131 C 120 141 112 144 109 137 C 107 133 109 128 117 106 C 121 97 128 78 134 64 C 139 49 146 32 149 25 C 155 10 155 9 151 6 C 148 2 143 2 139 7 M 112 32 C 122 40 121 52 105 81 C 93 104 67 131 48 140 C 23 154 29 111 58 67 C 78 38 99 24 112 32 z" fill="black"/><!-- width=163 height=172 -->
<path id="gl5912" d="M 35 7 C 24 12 9 28 9 35 C 9 40 12 40 17 35 C 28 26 34 23 38 29 C 42 34 35 53 16 114 C 4 146 4 146 8 151 C 14 158 19 153 31 130 C 44 94 59 66 75 45 C 90 26 94 23 101 38 C 106 47 111 45 116 35 C 124 17 115 1 101 4 C 91 8 83 18 66 43 C 53 66 48 65 54 39 C 58 22 59 17 57 12 C 54 3 47 2 35 7 z" fill="black"/><!-- width=128 height=163 -->
<path id="gl17679" d="M 71 7 C 59 12 45 24 39 36 C 33 51 34 61 50 93 C 61 114 62 123 57 132 C 50 145 38 145 22 131 C 16 126 13 126 9 130 C 3 136 7 151 16 155 C 20 158 38 157 45 155 C 64 148 76 131 78 113 C 80 100 78 94 64 67 C 54 48 52 35 60 27 C 66 19 75 19 84 27 C 96 35 102 34 102 23 C 102 9 87 1 71 7 z" fill="black"/><!-- width=112 height=168 -->
<path id="gl5918" d="M 65 6 C 64 6 61 14 56 23 C 47 40 46 41 32 43 C 21 45 18 46 18 50 C 18 53 19 54 28 54 C 35 54 39 58 39 62 C 39 63 35 75 31 90 C 21 117 8 160 7 168 C 3 183 12 186 26 179 C 54 167 84 139 76 133 C 74 130 72 131 58 145 C 45 157 40 160 36 158 C 32 156 31 151 34 144 C 37 131 59 67 61 62 C 64 54 67 53 80 54 C 101 56 107 54 107 47 C 107 42 103 41 89 42 C 70 43 68 40 74 23 C 78 13 78 8 75 6 C 74 3 68 3 65 6 z" fill="black"/><!-- width=116 height=194 -->
<path id="gl5913" d="M 74 7 C 48 16 21 48 12 83 C 2 114 6 140 21 150 C 59 174 118 118 125 52 C 128 41 127 39 124 27 C 118 7 98 0 74 7 M 94 16 C 104 21 107 39 100 62 C 85 117 56 154 36 143 C 24 135 24 117 34 85 C 51 38 78 7 94 16 z" fill="black"/><!-- width=138 height=165 -->
<path id="gl33798" d="M 90 2 C 70 3 66 4 64 8 C 63 10 68 14 72 14 C 91 14 92 24 81 58 C 78 73 74 82 74 85 C 74 86 74 90 73 92 C 70 98 67 108 62 124 C 60 130 57 140 55 147 C 51 159 49 164 42 192 C 33 218 25 231 13 232 C 8 234 3 240 7 241 C 13 242 120 242 124 240 C 127 238 132 237 134 237 C 140 236 157 228 164 222 C 184 206 195 178 189 153 C 187 141 183 135 168 121 C 158 112 159 110 172 104 C 207 90 219 56 201 27 C 196 20 186 12 182 12 C 182 12 180 10 180 9 C 171 3 142 1 90 2 M 150 14 C 165 18 176 26 180 34 C 182 44 181 62 177 70 C 168 90 154 99 127 105 C 110 109 105 109 100 105 C 94 102 96 99 106 60 C 110 49 114 36 116 30 C 117 24 120 20 123 16 C 129 10 132 10 150 14 M 129 120 C 140 123 148 129 153 138 C 171 166 159 207 127 224 C 109 232 78 234 68 224 C 60 217 61 211 74 166 C 87 124 88 121 96 117 C 100 115 117 116 129 120 z" fill="black"/><!-- width=222 height=250 -->
<path id="gl6150" d="M 86 6 C 45 17 4 76 8 122 C 9 151 26 161 54 152 C 73 144 91 128 86 122 C 84 120 83 121 71 128 C 57 138 49 141 40 137 C 32 132 29 127 30 110 C 30 87 34 83 58 78 C 101 68 131 37 118 14 C 114 4 102 2 86 6 M 99 18 C 107 27 95 47 69 63 C 37 84 37 63 68 30 C 83 16 92 12 99 18 z" fill="black"/><!-- width=132 height=164 -->
<path id="gl5908" d="M 91 4 C 72 9 68 12 73 22 C 78 29 78 34 62 82 C 53 106 44 136 40 148 C 33 170 20 210 9 240 C 6 250 4 257 4 258 C 7 265 14 267 19 261 C 20 259 26 248 33 237 C 53 194 73 169 102 144 C 136 116 143 133 125 191 C 115 221 106 241 100 246 C 96 250 96 250 89 247 C 82 245 78 245 75 248 C 69 256 73 264 82 267 C 91 269 112 254 127 234 C 137 220 151 186 158 161 C 171 105 132 99 84 149 C 60 174 58 175 58 162 C 58 156 78 98 105 22 C 111 8 110 4 100 4 C 96 4 93 4 91 4 z" fill="black"/><!-- width=170 height=276 -->
<path id="gl5915" d="M 139 7 C 137 9 134 12 134 13 C 134 13 134 15 132 18 C 129 21 126 21 118 19 C 98 10 63 32 36 72 C 4 118 -1 161 20 161 C 32 161 54 148 74 131 C 90 115 95 117 87 139 C 83 151 83 155 88 158 C 95 166 123 154 143 135 C 150 128 150 127 148 124 C 145 122 144 122 133 131 C 120 141 112 144 109 137 C 107 133 109 128 117 106 C 121 97 128 78 134 64 C 139 49 146 32 149 25 C 155 10 155 9 151 6 C 148 2 143 2 139 7 M 112 32 C 122 40 121 52 105 81 C 93 104 67 131 48 140 C 23 154 29 111 58 67 C 78 38 99 24 112 32 z" fill="black"/><!-- width=163 height=172 -->
<path id="gl33799" d="M 43 6 C 31 10 10 26 7 33 C 6 36 4 37 4 38 C 4 39 6 40 7 40 C 8 42 8 43 9 44 C 12 40 15 38 18 34 C 27 26 32 24 37 26 C 43 28 42 38 31 61 C 16 92 7 127 10 138 C 13 151 18 153 32 152 C 70 146 114 100 130 48 C 139 21 135 4 122 4 C 114 4 112 6 112 28 C 114 51 112 56 102 78 C 93 96 87 103 75 115 C 55 136 38 142 33 129 C 30 121 32 112 45 78 C 49 68 52 58 54 56 C 55 54 57 48 58 43 C 66 22 67 19 66 14 C 64 4 56 2 43 6 z" fill="black"/><!-- width=144 height=163 -->
<path id="gl5909" d="M 70 8 C 62 15 60 29 68 35 C 74 41 85 37 90 26 C 99 10 84 -2 70 8 M 54 97 C 35 107 17 120 18 125 C 18 129 23 129 29 124 C 39 117 42 117 45 119 C 47 123 47 126 36 152 C 24 181 9 219 7 228 C 1 246 20 245 52 224 C 67 214 73 207 73 202 C 73 195 70 196 56 209 C 36 226 29 220 40 195 C 42 188 49 170 57 153 C 64 136 71 119 73 114 C 82 93 75 86 54 97 z" fill="black"/><!-- width=102 height=251 -->
<path id="gl5913" d="M 74 7 C 48 16 21 48 12 83 C 2 114 6 140 21 150 C 59 174 118 118 125 52 C 128 41 127 39 124 27 C 118 7 98 0 74 7 M 94 16 C 104 21 107 39 100 62 C 85 117 56 154 36 143 C 24 135 24 117 34 85 C 51 38 78 7 94 16 z" fill="black"/><!-- width=138 height=165 -->
<path id="gl5912" d="M 35 7 C 24 12 9 28 9 35 C 9 40 12 40 17 35 C 28 26 34 23 38 29 C 42 34 35 53 16 114 C 4 146 4 146 8 151 C 14 158 19 153 31 130 C 44 94 59 66 75 45 C 90 26 94 23 101 38 C 106 47 111 45 116 35 C 124 17 115 1 101 4 C 91 8 83 18 66 43 C 53 66 48 65 54 39 C 58 22 59 17 57 12 C 54 3 47 2 35 7 z" fill="black"/><!-- width=128 height=163 -->
<path id="gl25114" d="M 69 6 C 50 14 38 28 34 43 C 33 53 35 60 46 83 C 61 112 61 123 50 133 C 43 140 34 139 20 128 C 13 122 8 123 6 129 C 1 138 8 149 18 153 C 41 159 71 138 75 113 C 79 98 75 88 62 66 C 51 46 50 37 55 27 C 59 18 72 16 80 22 C 93 32 96 33 98 27 C 106 11 87 -1 69 6 z" fill="black"/><!-- width=109 height=163 -->
</defs>
<use xlink:href="#gl33797" x="0" y="22"/>
<use xlink:href="#gl5912" x="197" y="114"/>
<use xlink:href="#gl5913" x="310" y="113"/>
<use xlink:href="#gl5916" x="461" y="114"/>
<use xlink:href="#gl33797" x="798" y="22"/>
<use xlink:href="#gl6150" x="983" y="113"/>
<use xlink:href="#gl5915" x="1100" y="104"/>
<use xlink:href="#gl5912" x="1274" y="113"/>
<use xlink:href="#gl17679" x="1374" y="110"/>
<use xlink:href="#gl5918" x="1576" y="81"/>
<use xlink:href="#gl5913" x="1674" y="112"/>
<use xlink:href="#gl33798" x="1901" y="22"/>
<use xlink:href="#gl6150" x="2114" y="111"/>
<use xlink:href="#gl5908" x="2236" y="0"/>
<use xlink:href="#gl5915" x="2401" y="104"/>
<use xlink:href="#gl33799" x="2578" y="113"/>
<use xlink:href="#gl5909" x="2723" y="25"/>
<use xlink:href="#gl5913" x="2820" y="111"/>
<use xlink:href="#gl5912" x="2972" y="111"/>
<use xlink:href="#gl25114" x="3074" y="113"/>
</svg>