<svg xmlns="http://www.w3.org/2000/svg" xmlns:xlink="http://www.w3.org/1999/xlink" width="215px" height="37px" viewBox="0 0 2159 374" version="1.1">
<defs>
<path id="gl42504" d="M 70 9 C 66 10 58 14 54 16 C 49 20 43 24 40 25 C 33 30 21 45 21 50 C 21 51 20 54 19 55 C 18 56 16 61 15 66 C 15 70 14 76 14 78 C 13 79 13 87 13 97 C 13 105 12 117 10 124 C 7 145 9 226 14 243 C 21 271 28 279 61 296 C 74 303 88 303 99 298 C 102 297 106 296 111 295 C 129 294 150 279 158 264 C 163 253 166 246 166 240 C 166 237 166 234 168 231 C 171 225 171 220 172 207 C 172 192 169 190 142 192 C 121 194 120 195 118 211 C 118 230 115 243 108 249 C 96 259 73 249 67 234 C 64 225 63 200 63 145 C 64 105 64 92 66 90 C 67 87 68 84 68 82 C 69 76 74 67 76 66 C 80 62 97 54 99 54 C 105 54 116 66 116 73 C 116 74 118 87 121 99 C 122 105 129 106 147 106 C 170 106 174 104 172 88 C 171 78 169 64 165 58 C 164 56 163 52 163 52 C 163 49 156 37 148 30 C 140 21 121 13 111 13 C 108 13 103 12 100 9 C 92 6 81 6 70 9 z" fill="black"/><!-- width=183 height=313 -->
<path id="gl42505" d="M 27 8 C 25 9 20 12 16 13 C 13 14 9 15 8 15 C 8 16 7 72 7 139 C 7 208 6 264 6 267 C 3 279 6 285 14 287 C 16 287 21 289 25 290 C 33 293 46 291 52 288 C 54 287 55 285 56 284 C 56 259 56 234 56 210 C 56 127 56 127 62 120 C 74 108 91 114 94 130 C 96 141 96 189 94 235 C 93 278 93 282 98 285 C 102 288 133 288 139 287 C 142 284 142 283 144 252 C 145 218 145 220 145 205 C 144 198 145 192 145 192 C 145 190 146 156 147 115 C 147 111 135 93 128 87 C 117 76 90 74 75 81 C 63 87 60 87 57 80 C 55 76 55 42 57 33 C 58 24 56 14 51 9 C 48 6 33 4 27 8 z" fill="black"/><!-- width=163 height=302 -->
<path id="gl42506" d="M 51 7 C 51 7 48 9 43 10 C 31 14 27 18 21 31 C 15 43 9 60 9 66 C 9 74 21 81 36 81 C 50 82 56 76 58 64 C 60 60 61 57 64 54 C 66 52 67 50 68 49 C 72 49 75 49 79 49 C 86 48 92 49 93 49 C 97 51 102 60 102 64 C 102 72 92 85 87 85 C 86 85 85 86 85 87 C 84 88 81 90 79 90 C 76 90 73 91 73 91 C 72 92 68 93 64 93 C 60 94 55 96 54 97 C 51 98 46 99 42 102 C 34 104 24 114 24 117 C 24 118 21 122 19 124 C 16 127 15 130 15 132 C 15 133 14 135 13 136 C 12 140 9 153 9 163 C 9 186 12 198 19 206 C 20 207 22 211 22 212 C 24 214 31 222 33 222 C 33 222 37 224 40 225 C 52 231 72 225 88 212 C 96 206 100 206 105 212 C 108 217 109 217 127 218 C 136 218 144 219 146 220 C 152 223 154 213 151 202 C 150 200 150 194 150 189 C 150 184 151 157 151 127 C 151 92 152 72 152 70 C 156 64 156 51 153 46 C 151 44 150 40 150 39 C 150 37 135 22 133 22 C 132 22 130 21 128 19 C 127 18 124 18 123 18 C 123 18 121 16 118 15 C 114 12 99 10 79 9 C 70 8 60 7 57 7 C 55 7 52 7 51 7 M 99 122 C 104 128 103 141 96 170 C 93 184 72 192 63 182 C 52 170 52 147 66 135 C 69 130 82 122 88 120 C 93 117 96 117 99 122 z" fill="black"/><!-- width=168 height=240 -->
<path id="gl42507" d="M 84 3 C 82 3 79 6 76 8 C 64 16 60 18 54 10 C 48 4 43 3 27 4 C 19 4 14 6 12 7 C 10 8 10 18 10 69 C 10 103 9 163 9 201 C 9 240 8 273 8 276 C 8 283 16 285 37 285 C 55 286 60 271 52 237 C 46 207 52 194 68 210 C 80 220 117 219 128 208 C 135 201 141 189 145 176 C 150 153 151 56 146 39 C 141 24 134 10 128 10 C 127 10 122 9 116 7 C 106 3 93 1 84 3 M 86 43 C 88 44 92 48 94 50 C 96 52 97 54 98 55 C 98 70 98 85 97 100 C 97 124 97 148 97 153 C 97 182 70 192 58 169 C 57 168 56 165 55 164 C 55 147 55 130 55 114 C 56 54 56 52 72 43 C 78 39 80 39 86 43 z" fill="black"/><!-- width=163 height=297 -->
<path id="gl42508" d="M 36 7 C 24 9 20 15 21 33 C 24 54 25 55 22 61 C 21 64 20 67 15 69 C 8 74 6 78 7 90 C 7 99 8 103 16 109 C 20 111 22 114 24 115 C 24 120 22 189 22 219 C 22 237 22 253 22 255 C 24 261 31 269 39 275 C 42 276 44 277 46 278 C 52 278 58 278 63 278 C 90 278 91 278 91 257 C 91 243 88 237 82 237 C 79 237 74 235 72 230 C 70 226 70 224 72 196 C 72 181 72 160 72 151 C 70 117 73 112 84 109 C 91 106 93 103 93 91 C 94 76 93 75 84 72 C 73 68 73 67 73 40 C 73 15 73 15 62 14 C 60 14 54 12 50 10 C 45 8 42 7 42 7 C 40 7 38 7 36 7 z" fill="black"/><!-- width=105 height=288 -->
<path id="gl42509" d="M 81 8 C 79 9 76 9 74 10 C 73 10 68 12 63 13 C 60 14 54 16 51 16 C 49 16 45 18 44 19 C 44 20 42 20 40 20 C 38 20 30 26 24 33 C 18 40 13 52 12 64 C 10 69 9 74 9 74 C 7 78 7 148 9 159 C 10 164 10 171 10 175 C 10 184 14 195 20 202 C 26 211 40 223 45 223 C 46 223 49 223 52 224 C 55 226 60 226 63 226 C 68 226 70 228 73 230 C 75 231 76 232 81 231 C 85 230 87 230 88 231 C 91 232 92 232 98 230 C 105 225 110 223 116 220 C 122 217 136 202 136 199 C 136 198 138 195 139 194 C 141 193 142 190 142 187 C 142 183 142 178 145 175 C 148 166 148 159 145 154 C 142 151 141 151 126 151 C 117 151 108 151 106 151 C 100 150 98 153 96 166 C 92 183 91 184 76 186 C 58 187 55 182 55 156 C 55 150 55 144 55 138 C 55 136 56 135 57 134 C 62 130 67 130 73 133 C 76 135 85 135 100 133 C 105 132 116 130 126 130 C 150 132 147 134 147 96 C 147 80 146 64 146 62 C 145 60 144 56 144 54 C 141 40 133 28 122 21 C 120 20 115 18 112 16 C 105 12 100 10 97 10 C 96 9 93 9 91 8 C 90 7 87 7 86 7 C 85 7 82 7 81 8 M 86 57 C 94 61 97 67 97 78 C 97 88 96 90 87 90 C 85 90 81 91 80 92 C 75 94 61 94 58 92 C 55 88 55 66 58 61 C 63 54 76 52 86 57 z" fill="black"/><!-- width=158 height=245 -->
<path id="gl42510" d="M 79 7 C 73 9 68 13 64 18 C 61 24 52 26 51 20 C 51 20 50 18 49 15 C 45 12 14 10 10 14 C 9 15 8 15 7 16 C 7 46 7 75 7 105 C 7 165 6 196 4 202 C 2 216 4 217 30 217 C 55 217 52 220 54 178 C 54 160 55 144 56 140 C 56 136 56 133 56 130 C 54 123 54 110 56 105 C 57 102 58 97 58 93 C 58 87 58 86 62 82 C 72 74 76 70 82 70 C 97 72 100 62 99 26 C 98 6 93 2 79 7 z" fill="black"/><!-- width=110 height=225 -->
<path id="gl42511" d="M 87 6 C 80 7 75 10 74 18 C 73 28 64 42 55 48 C 45 54 44 54 40 54 C 39 54 36 55 33 56 C 31 57 25 58 20 58 C 8 60 7 61 7 79 C 7 91 7 92 9 94 C 10 96 12 97 13 98 C 19 97 25 97 31 97 C 42 97 51 96 52 96 C 58 94 63 97 66 102 C 69 105 69 106 68 122 C 68 132 67 162 67 189 C 67 217 66 249 66 260 C 66 266 64 273 64 280 C 67 282 68 283 70 285 C 75 289 75 290 80 289 C 86 288 88 288 93 288 C 97 289 100 288 110 285 C 116 283 116 279 116 226 C 116 200 116 170 117 160 C 117 138 117 92 116 48 C 116 36 116 24 116 12 C 115 12 114 10 112 9 C 109 7 100 6 87 6 z" fill="black"/><!-- width=130 height=298 -->
<path id="gl42512" d="M 86 7 C 78 8 75 9 73 18 C 72 21 69 27 67 30 C 64 34 62 38 61 40 C 58 44 50 50 46 50 C 46 50 44 51 42 52 C 39 54 33 55 27 56 C 19 56 15 57 12 60 C 9 61 8 62 6 63 C 6 67 6 72 6 76 C 6 81 6 86 6 91 C 8 92 9 93 10 94 C 12 96 13 97 14 98 C 20 97 26 97 33 97 C 67 96 66 94 64 132 C 64 142 63 165 64 182 C 64 223 64 234 63 242 C 61 269 62 282 66 284 C 74 290 105 288 112 282 C 116 278 116 263 116 175 C 117 48 116 13 114 12 C 111 10 94 4 94 6 C 94 6 91 6 86 7 z" fill="black"/><!-- width=129 height=297 -->
</defs>
<use xlink:href="#gl42504" x="0" y="0"/>
<use xlink:href="#gl42505" x="273" y="5"/>
<use xlink:href="#gl42506" x="513" y="73"/>
<use xlink:href="#gl42507" x="768" y="77"/>
<use xlink:href="#gl42508" x="1003" y="15"/>
<use xlink:href="#gl42509" x="1185" y="68"/>
<use xlink:href="#gl42510" x="1440" y="73"/>
<use xlink:href="#gl42511" x="1780" y="5"/>
<use xlink:href="#gl42512" x="2030" y="5"/>
</svg>