<svg xmlns="http://www.w3.org/2000/svg" xmlns:xlink="http://www.w3.org/1999/xlink" width="616px" height="85px" viewBox="0 0 6167 853" version="1.1">
<defs>
<path id="gl22795" d="M 85 3 C 67 6 65 12 79 16 C 90 19 92 31 86 48 C 83 55 79 67 65 118 C 62 127 57 143 54 154 C 50 164 47 177 44 184 C 33 220 26 232 14 232 C 12 232 9 235 8 236 C 7 237 6 238 4 240 C 6 240 7 241 8 241 C 10 243 15 243 30 242 C 41 242 61 242 74 242 C 101 243 123 243 131 241 C 133 240 138 238 144 237 C 155 235 165 232 170 230 C 172 229 177 226 182 224 C 216 210 242 181 253 148 C 261 121 261 82 253 61 C 251 55 248 50 241 41 C 237 35 222 22 213 18 C 201 13 199 12 196 12 C 195 12 193 10 190 9 C 189 8 184 7 179 7 C 175 6 170 4 167 3 C 164 2 96 2 85 3 M 149 14 C 152 14 159 15 164 16 C 222 26 245 76 223 147 C 217 167 193 199 177 208 C 171 211 167 213 158 218 C 154 220 150 222 149 222 C 148 222 146 223 143 224 C 136 228 105 232 91 231 C 66 229 57 218 66 196 C 67 194 70 187 71 181 C 73 175 77 161 80 150 C 86 131 95 105 97 97 C 97 95 100 86 102 78 C 119 21 120 18 129 14 C 135 12 142 12 149 14 z" fill="black"/><!-- width=271 height=252 -->
<path id="gl6150" d="M 86 6 C 45 17 4 76 8 122 C 9 151 26 161 54 152 C 73 144 91 128 86 122 C 84 120 83 121 71 128 C 57 138 49 141 40 137 C 32 132 29 127 30 110 C 30 87 34 83 58 78 C 101 68 131 37 118 14 C 114 4 102 2 86 6 M 99 18 C 107 27 95 47 69 63 C 37 84 37 63 68 30 C 83 16 92 12 99 18 z" fill="black"/><!-- width=132 height=164 -->
<path id="gl5915" d="M 139 7 C 137 9 134 12 134 13 C 134 13 134 15 132 18 C 129 21 126 21 118 19 C 98 10 63 32 36 72 C 4 118 -1 161 20 161 C 32 161 54 148 74 131 C 90 115 95 117 87 139 C 83 151 83 155 88 158 C 95 166 123 154 143 135 C 150 128 150 127 148 124 C 145 122 144 122 133 131 C 120 141 112 144 109 137 C 107 133 109 128 117 106 C 121 97 128 78 134 64 C 139 49 146 32 149 25 C 155 10 155 9 151 6 C 148 2 143 2 139 7 M 112 32 C 122 40 121 52 105 81 C 93 104 67 131 48 140 C 23 154 29 111 58 67 C 78 38 99 24 112 32 z" fill="black"/><!-- width=163 height=172 -->
<path id="gl6155" d="M 93 3 C 81 6 69 9 67 12 C 63 15 63 17 69 24 C 74 30 73 36 60 74 C 54 94 44 125 39 142 C 33 159 27 179 24 187 C 15 213 6 250 6 252 C 6 266 25 268 44 256 C 66 244 84 218 73 217 C 71 216 67 219 55 232 C 42 245 40 247 36 247 C 28 247 28 240 35 220 C 38 212 46 185 55 159 C 63 132 78 88 88 60 C 94 42 99 24 105 7 C 104 7 103 6 103 4 C 99 3 98 2 93 3 z" fill="black"/><!-- width=114 height=274 -->
<path id="gl5909" d="M 70 8 C 62 15 60 29 68 35 C 74 41 85 37 90 26 C 99 10 84 -2 70 8 M 54 97 C 35 107 17 120 18 125 C 18 129 23 129 29 124 C 39 117 42 117 45 119 C 47 123 47 126 36 152 C 24 181 9 219 7 228 C 1 246 20 245 52 224 C 67 214 73 207 73 202 C 73 195 70 196 56 209 C 36 226 29 220 40 195 C 42 188 49 170 57 153 C 64 136 71 119 73 114 C 82 93 75 86 54 97 z" fill="black"/><!-- width=102 height=251 -->
<path id="gl6154" d="M 47 6 C 28 13 8 29 11 36 C 12 39 15 39 22 34 C 34 25 41 24 44 30 C 45 35 42 41 20 102 C 4 145 3 149 8 154 C 14 160 18 156 33 126 C 56 80 64 68 91 41 C 110 23 115 19 121 19 C 131 19 132 30 122 55 C 118 63 111 79 107 90 C 102 102 96 118 93 127 C 84 147 84 153 94 155 C 109 159 158 126 150 117 C 149 115 147 115 138 122 C 126 133 121 136 117 132 C 115 128 115 125 122 109 C 154 36 158 14 142 6 C 127 -1 100 13 73 47 C 52 73 49 66 64 26 C 69 14 69 9 62 6 C 58 3 55 3 47 6 z" fill="black"/><!-- width=162 height=166 -->
<path id="gl5914" d="M 101 7 C 75 14 53 40 46 70 C 41 89 42 99 55 110 C 64 119 64 119 59 130 C 55 140 55 144 56 155 C 57 163 56 165 41 171 C 7 185 -3 214 14 232 C 44 258 127 247 144 214 C 152 196 143 183 107 161 C 84 148 77 141 75 135 C 72 124 78 118 94 113 C 126 102 150 69 151 37 C 151 24 155 20 166 23 C 182 25 192 17 182 7 C 177 3 174 3 165 7 C 155 9 145 9 137 7 C 127 3 113 3 101 7 M 127 17 C 133 25 130 39 121 59 C 101 97 80 115 68 103 C 62 96 64 78 77 57 C 96 22 117 6 127 17 M 85 173 C 95 178 112 189 116 194 C 133 215 113 233 75 233 C 29 233 13 206 44 181 C 59 170 72 167 85 173 z" fill="black"/><!-- width=193 height=255 -->
<path id="gl10267" d="M 201 4 C 193 5 192 11 194 35 C 197 61 181 95 156 118 C 143 131 136 135 129 135 C 108 135 110 100 136 43 C 148 17 148 10 137 7 C 131 4 118 17 118 28 C 118 29 117 36 114 45 C 104 73 91 95 68 117 C 49 135 41 140 35 133 C 29 127 30 118 49 72 C 53 60 57 49 65 28 C 67 21 67 13 62 8 C 53 0 35 7 15 26 C 5 35 3 39 4 41 C 4 46 9 45 19 36 C 32 24 39 23 39 36 C 39 41 38 46 32 61 C 19 93 8 124 8 133 C 8 163 41 159 76 122 C 92 105 95 106 93 125 C 92 146 103 156 121 152 C 142 147 165 130 181 109 C 193 93 196 90 203 76 C 223 36 222 1 201 4 z" fill="black"/><!-- width=226 height=162 -->
<path id="gl5909" d="M 70 8 C 62 15 60 29 68 35 C 74 41 85 37 90 26 C 99 10 84 -2 70 8 M 54 97 C 35 107 17 120 18 125 C 18 129 23 129 29 124 C 39 117 42 117 45 119 C 47 123 47 126 36 152 C 24 181 9 219 7 228 C 1 246 20 245 52 224 C 67 214 73 207 73 202 C 73 195 70 196 56 209 C 36 226 29 220 40 195 C 42 188 49 170 57 153 C 64 136 71 119 73 114 C 82 93 75 86 54 97 z" fill="black"/><!-- width=102 height=251 -->
<path id="gl5918" d="M 65 6 C 64 6 61 14 56 23 C 47 40 46 41 32 43 C 21 45 18 46 18 50 C 18 53 19 54 28 54 C 35 54 39 58 39 62 C 39 63 35 75 31 90 C 21 117 8 160 7 168 C 3 183 12 186 26 179 C 54 167 84 139 76 133 C 74 130 72 131 58 145 C 45 157 40 160 36 158 C 32 156 31 151 34 144 C 37 131 59 67 61 62 C 64 54 67 53 80 54 C 101 56 107 54 107 47 C 107 42 103 41 89 42 C 70 43 68 40 74 23 C 78 13 78 8 75 6 C 74 3 68 3 65 6 z" fill="black"/><!-- width=116 height=194 -->
<path id="gl5908" d="M 91 4 C 72 9 68 12 73 22 C 78 29 78 34 62 82 C 53 106 44 136 40 148 C 33 170 20 210 9 240 C 6 250 4 257 4 258 C 7 265 14 267 19 261 C 20 259 26 248 33 237 C 53 194 73 169 102 144 C 136 116 143 133 125 191 C 115 221 106 241 100 246 C 96 250 96 250 89 247 C 82 245 78 245 75 248 C 69 256 73 264 82 267 C 91 269 112 254 127 234 C 137 220 151 186 158 161 C 171 105 132 99 84 149 C 60 174 58 175 58 162 C 58 156 78 98 105 22 C 111 8 110 4 100 4 C 96 4 93 4 91 4 z" fill="black"/><!-- width=170 height=276 -->
<path id="gl5917" d="M 91 6 C 73 7 71 8 69 12 C 68 14 69 15 78 18 C 89 21 91 27 87 42 C 77 80 39 203 32 218 C 28 225 21 232 15 234 C 6 237 2 241 7 243 C 8 244 71 244 75 244 C 80 242 79 239 72 236 C 57 228 57 222 73 173 C 75 166 78 157 79 154 C 83 140 90 136 102 134 C 115 134 120 140 125 161 C 130 179 143 221 147 227 C 150 238 162 244 180 245 C 186 245 189 245 191 244 C 198 241 197 239 189 234 C 174 226 173 225 162 195 C 154 173 148 147 148 139 C 148 133 151 130 160 127 C 197 115 216 84 209 49 C 206 30 194 18 169 9 C 159 6 127 4 91 6 M 157 19 C 202 38 186 107 132 124 C 109 132 97 132 93 124 C 90 118 90 118 104 71 C 108 60 112 48 113 43 C 119 20 122 16 139 16 C 148 16 151 16 157 19 z" fill="black"/><!-- width=222 height=255 -->
<path id="gl6150" d="M 86 6 C 45 17 4 76 8 122 C 9 151 26 161 54 152 C 73 144 91 128 86 122 C 84 120 83 121 71 128 C 57 138 49 141 40 137 C 32 132 29 127 30 110 C 30 87 34 83 58 78 C 101 68 131 37 118 14 C 114 4 102 2 86 6 M 99 18 C 107 27 95 47 69 63 C 37 84 37 63 68 30 C 83 16 92 12 99 18 z" fill="black"/><!-- width=132 height=164 -->
<path id="gl5915" d="M 139 7 C 137 9 134 12 134 13 C 134 13 134 15 132 18 C 129 21 126 21 118 19 C 98 10 63 32 36 72 C 4 118 -1 161 20 161 C 32 161 54 148 74 131 C 90 115 95 117 87 139 C 83 151 83 155 88 158 C 95 166 123 154 143 135 C 150 128 150 127 148 124 C 145 122 144 122 133 131 C 120 141 112 144 109 137 C 107 133 109 128 117 106 C 121 97 128 78 134 64 C 139 49 146 32 149 25 C 155 10 155 9 151 6 C 148 2 143 2 139 7 M 112 32 C 122 40 121 52 105 81 C 93 104 67 131 48 140 C 23 154 29 111 58 67 C 78 38 99 24 112 32 z" fill="black"/><!-- width=163 height=172 -->
<path id="gl6155" d="M 93 3 C 81 6 69 9 67 12 C 63 15 63 17 69 24 C 74 30 73 36 60 74 C 54 94 44 125 39 142 C 33 159 27 179 24 187 C 15 213 6 250 6 252 C 6 266 25 268 44 256 C 66 244 84 218 73 217 C 71 216 67 219 55 232 C 42 245 40 247 36 247 C 28 247 28 240 35 220 C 38 212 46 185 55 159 C 63 132 78 88 88 60 C 94 42 99 24 105 7 C 104 7 103 6 103 4 C 99 3 98 2 93 3 z" fill="black"/><!-- width=114 height=274 -->
<path id="gl38406" d="M 106 4 C 78 6 69 7 68 9 C 62 14 64 15 76 18 C 88 21 91 24 91 30 C 91 34 88 49 86 54 C 85 56 84 58 84 60 C 84 61 84 63 81 67 C 80 70 74 91 69 108 C 69 110 67 118 64 126 C 57 147 56 150 55 156 C 52 165 42 198 37 212 C 32 224 26 230 14 234 C 3 237 1 240 6 242 C 8 244 80 243 85 241 C 88 240 88 240 86 238 C 85 237 82 236 80 236 C 66 232 64 232 64 218 C 63 208 64 206 68 194 C 70 188 73 180 74 177 C 74 175 75 171 76 169 C 78 166 79 163 79 162 C 79 159 79 156 80 153 C 82 151 82 148 82 146 C 82 145 84 141 85 139 C 87 136 88 133 88 130 C 88 128 90 124 91 121 C 92 116 93 114 100 91 C 102 86 104 79 105 75 C 106 72 109 63 110 57 C 111 51 114 44 115 42 C 116 39 117 37 117 34 C 117 30 124 18 129 16 C 146 10 172 24 181 40 C 186 49 186 70 182 82 C 177 98 166 114 153 120 C 151 121 148 123 147 124 C 146 126 144 127 142 127 C 141 127 138 127 136 128 C 134 129 130 132 128 132 C 122 133 120 139 122 141 C 126 142 135 142 141 140 C 144 139 148 138 152 138 C 157 136 165 134 172 129 C 174 129 177 127 180 126 C 186 122 199 110 204 102 C 216 81 216 51 202 32 C 198 25 182 13 175 12 C 172 10 170 10 168 9 C 160 6 130 3 106 4 z" fill="black"/><!-- width=222 height=255 -->
<path id="gl5912" d="M 35 7 C 24 12 9 28 9 35 C 9 40 12 40 17 35 C 28 26 34 23 38 29 C 42 34 35 53 16 114 C 4 146 4 146 8 151 C 14 158 19 153 31 130 C 44 94 59 66 75 45 C 90 26 94 23 101 38 C 106 47 111 45 116 35 C 124 17 115 1 101 4 C 91 8 83 18 66 43 C 53 66 48 65 54 39 C 58 22 59 17 57 12 C 54 3 47 2 35 7 z" fill="black"/><!-- width=128 height=163 -->
<path id="gl5913" d="M 74 7 C 48 16 21 48 12 83 C 2 114 6 140 21 150 C 59 174 118 118 125 52 C 128 41 127 39 124 27 C 118 7 98 0 74 7 M 94 16 C 104 21 107 39 100 62 C 85 117 56 154 36 143 C 24 135 24 117 34 85 C 51 38 78 7 94 16 z" fill="black"/><!-- width=138 height=165 -->
<path id="gl38407" d="M 74 4 C 61 7 57 10 63 19 C 66 21 66 24 66 30 C 66 38 64 40 56 60 C 55 66 52 72 51 74 C 50 78 49 81 48 84 C 45 90 40 103 33 123 C 30 135 25 146 24 150 C 22 153 21 159 20 163 C 19 166 16 175 15 180 C 1 228 0 247 13 260 C 14 261 15 262 18 264 C 22 264 27 264 32 264 C 44 264 48 264 50 261 C 51 260 54 260 56 260 C 57 260 60 259 61 258 C 63 256 67 255 69 254 C 81 247 108 223 116 210 C 127 193 130 189 133 182 C 157 134 132 96 91 120 C 90 120 86 122 84 123 C 81 124 74 132 66 140 C 42 168 40 159 61 106 C 68 88 72 79 74 73 C 74 72 75 68 75 68 C 76 67 79 62 81 55 C 87 39 92 26 94 21 C 94 19 96 16 97 16 C 98 14 99 8 98 6 C 96 2 87 2 74 4 M 114 127 C 121 132 121 147 115 163 C 100 198 75 232 50 249 C 20 270 15 224 43 183 C 44 181 46 177 48 176 C 56 163 82 136 94 129 C 100 126 109 126 114 127 z" fill="black"/><!-- width=154 height=274 -->
<path id="gl6155" d="M 93 3 C 81 6 69 9 67 12 C 63 15 63 17 69 24 C 74 30 73 36 60 74 C 54 94 44 125 39 142 C 33 159 27 179 24 187 C 15 213 6 250 6 252 C 6 266 25 268 44 256 C 66 244 84 218 73 217 C 71 216 67 219 55 232 C 42 245 40 247 36 247 C 28 247 28 240 35 220 C 38 212 46 185 55 159 C 63 132 78 88 88 60 C 94 42 99 24 105 7 C 104 7 103 6 103 4 C 99 3 98 2 93 3 z" fill="black"/><!-- width=114 height=274 -->
<path id="gl6150" d="M 86 6 C 45 17 4 76 8 122 C 9 151 26 161 54 152 C 73 144 91 128 86 122 C 84 120 83 121 71 128 C 57 138 49 141 40 137 C 32 132 29 127 30 110 C 30 87 34 83 58 78 C 101 68 131 37 118 14 C 114 4 102 2 86 6 M 99 18 C 107 27 95 47 69 63 C 37 84 37 63 68 30 C 83 16 92 12 99 18 z" fill="black"/><!-- width=132 height=164 -->
<path id="gl25115" d="M 49 4 C 31 8 13 20 8 30 C 4 40 10 40 21 31 C 32 23 38 23 42 30 C 43 35 43 34 17 110 C 13 120 8 132 7 137 C 2 150 3 155 12 155 C 18 155 20 150 30 131 C 38 113 45 102 52 90 C 70 58 107 20 119 20 C 128 20 130 30 119 55 C 117 60 114 70 111 75 C 108 85 100 104 91 128 C 82 149 83 155 93 155 C 99 155 102 153 114 130 C 121 114 127 103 138 85 C 150 64 188 23 197 20 C 205 17 210 23 209 32 C 207 37 200 57 195 70 C 194 74 189 85 187 93 C 183 102 178 115 175 121 C 162 150 164 156 181 154 C 199 153 234 126 231 117 C 229 114 226 115 218 122 C 206 133 199 135 197 128 C 195 126 200 113 207 97 C 217 74 228 43 231 32 C 237 2 211 -3 180 19 C 176 21 169 31 161 38 C 142 64 137 64 143 41 C 148 26 148 18 144 12 C 132 -4 103 7 74 45 C 63 58 59 62 57 60 C 54 59 54 53 62 34 C 68 13 69 9 62 6 C 59 4 54 3 49 4 z" fill="black"/><!-- width=242 height=165 -->
<path id="gl25114" d="M 69 6 C 50 14 38 28 34 43 C 33 53 35 60 46 83 C 61 112 61 123 50 133 C 43 140 34 139 20 128 C 13 122 8 123 6 129 C 1 138 8 149 18 153 C 41 159 71 138 75 113 C 79 98 75 88 62 66 C 51 46 50 37 55 27 C 59 18 72 16 80 22 C 93 32 96 33 98 27 C 106 11 87 -1 69 6 z" fill="black"/><!-- width=109 height=163 -->
<path id="gl38408" d="M 43 9 C 33 19 33 30 42 37 C 49 43 56 40 64 30 C 78 15 56 -2 43 9 M 15 112 C 4 120 2 136 12 142 C 27 152 44 128 32 115 C 28 110 20 110 15 112 z" fill="black"/><!-- width=76 height=153 -->
<path id="gl28170" d="M 26 6 C 22 8 15 20 15 22 C 15 22 15 25 14 25 C 12 28 6 42 4 45 C 3 49 4 49 7 50 C 9 51 10 50 18 43 C 33 26 48 21 78 22 C 84 22 90 22 96 22 C 97 24 97 25 98 26 C 102 30 102 32 98 45 C 96 51 91 66 87 78 C 81 97 72 126 63 157 C 50 201 46 212 40 224 C 34 236 27 241 19 241 C 12 241 8 244 8 246 C 8 251 10 251 51 251 C 93 251 93 251 92 246 C 92 244 91 244 85 242 C 69 239 66 230 72 213 C 73 211 74 205 75 200 C 78 194 80 188 81 185 C 82 181 85 169 88 161 C 91 150 93 140 96 137 C 97 133 98 125 100 120 C 102 115 105 104 108 96 C 110 87 114 78 115 73 C 116 68 118 61 120 57 C 121 54 122 50 122 48 C 122 45 125 40 127 36 C 133 22 135 21 159 22 C 189 22 198 27 199 43 C 199 61 209 56 213 37 C 213 36 215 33 216 31 C 219 22 222 14 222 10 C 222 6 217 4 210 8 C 205 10 198 12 122 12 C 97 12 72 12 46 12 C 44 10 42 9 39 8 C 36 7 31 4 30 4 C 28 3 27 3 26 6 z" fill="black"/><!-- width=230 height=259 -->
<path id="gl5909" d="M 70 8 C 62 15 60 29 68 35 C 74 41 85 37 90 26 C 99 10 84 -2 70 8 M 54 97 C 35 107 17 120 18 125 C 18 129 23 129 29 124 C 39 117 42 117 45 119 C 47 123 47 126 36 152 C 24 181 9 219 7 228 C 1 246 20 245 52 224 C 67 214 73 207 73 202 C 73 195 70 196 56 209 C 36 226 29 220 40 195 C 42 188 49 170 57 153 C 64 136 71 119 73 114 C 82 93 75 86 54 97 z" fill="black"/><!-- width=102 height=251 -->
<path id="gl5916" d="M 41 7 C 28 12 18 19 10 29 C 6 36 12 40 19 34 C 29 25 36 23 41 26 C 45 29 45 32 40 48 C 37 54 35 63 34 67 C 32 70 30 76 29 81 C 18 107 6 141 6 145 C 6 152 15 154 20 148 C 23 146 29 134 36 119 C 56 80 67 65 92 39 C 107 24 114 19 120 19 C 130 19 131 28 123 48 C 115 70 98 113 93 125 C 85 146 86 152 96 152 C 102 152 103 151 120 119 C 128 104 129 102 141 82 C 152 64 178 35 191 24 C 207 12 215 21 208 43 C 203 56 185 102 178 118 C 168 139 167 142 169 147 C 171 152 174 153 184 152 C 203 148 236 124 232 115 C 231 112 229 113 221 119 C 206 134 196 134 199 120 C 199 118 206 104 212 89 C 218 74 225 56 228 49 C 241 14 230 -1 202 7 C 187 12 176 21 160 41 C 142 65 140 64 146 36 C 149 18 149 10 141 6 C 126 -1 99 12 76 41 C 54 69 51 65 63 32 C 65 24 69 15 69 13 C 69 3 57 1 41 7 z" fill="black"/><!-- width=243 height=162 -->
<path id="gl6148" d="M 85 4 C 44 16 7 69 7 115 C 7 141 15 152 34 152 C 46 152 55 150 64 144 C 74 138 85 128 85 125 C 85 119 83 117 75 123 C 55 139 44 140 34 131 C 28 126 27 117 28 103 C 31 85 34 81 50 78 C 57 76 70 73 73 72 C 74 70 78 69 81 68 C 90 64 103 55 110 48 C 132 24 116 -3 85 4 M 95 15 C 110 22 90 51 58 67 C 46 73 40 70 43 62 C 48 45 79 14 90 13 C 91 13 93 14 95 15 z" fill="black"/><!-- width=131 height=163 -->
<path id="gl38409" d="M 86 3 C 84 4 84 4 88 8 C 91 9 94 12 97 12 C 106 12 110 21 106 33 C 105 36 104 40 103 44 C 102 46 100 51 99 55 C 98 58 96 63 94 67 C 92 72 91 75 91 76 C 85 91 79 105 79 108 C 79 110 78 112 76 112 C 75 114 74 117 74 120 C 73 122 72 126 70 127 C 69 128 69 130 69 132 C 69 133 68 135 66 138 C 64 140 63 142 63 144 C 63 144 63 147 62 150 C 60 152 60 156 58 157 C 58 158 58 160 57 162 C 56 163 55 165 55 166 C 54 171 50 182 46 188 C 46 190 44 196 42 200 C 34 220 30 225 14 231 C 10 232 7 234 3 235 C 4 235 6 236 7 237 C 10 240 7 240 44 240 C 74 240 76 240 78 237 C 80 234 79 232 68 230 C 61 226 61 226 60 222 C 57 216 60 200 63 195 C 64 194 64 192 64 189 C 64 187 66 184 67 183 C 68 183 69 180 69 176 C 70 174 72 170 73 168 C 74 166 74 164 74 163 C 74 162 75 159 76 157 C 79 152 81 144 84 138 C 85 134 86 130 87 128 C 88 126 90 123 90 121 C 90 120 90 117 91 117 C 92 116 94 108 98 98 C 104 74 115 51 120 51 C 122 50 126 72 128 105 C 128 114 132 138 134 164 C 136 172 138 190 138 204 C 139 222 139 225 141 229 C 141 230 142 231 144 231 C 145 231 146 230 147 229 C 150 226 169 199 169 198 C 169 196 182 180 192 169 C 195 164 199 160 199 159 C 199 159 201 156 204 153 C 207 150 210 146 210 145 C 210 144 211 144 211 144 C 212 144 213 141 216 138 C 218 135 220 130 223 128 C 225 126 226 122 226 122 C 226 121 229 118 231 116 C 236 110 253 87 259 79 C 265 70 277 58 280 57 C 286 56 285 60 270 111 C 267 120 264 132 262 138 C 260 145 256 156 255 160 C 244 201 238 214 231 223 C 228 225 224 229 224 229 C 218 229 205 234 205 236 C 205 240 210 242 218 241 C 220 241 238 240 255 240 C 282 240 288 240 289 237 C 290 235 289 234 284 232 C 278 231 271 226 270 222 C 267 218 268 204 272 189 C 276 181 279 166 280 159 C 282 157 283 153 283 151 C 286 142 289 134 290 127 C 292 116 295 109 297 102 C 298 98 298 94 298 94 C 298 90 315 34 319 28 C 322 20 332 13 339 12 C 344 12 346 10 349 7 C 354 2 351 2 324 2 C 295 2 296 1 289 15 C 282 28 265 54 254 66 C 252 69 247 74 244 78 C 236 90 228 100 223 105 C 218 111 212 118 202 133 C 200 138 196 141 196 142 C 195 142 192 147 187 154 C 175 170 169 176 165 175 C 160 174 162 175 158 151 C 156 135 153 123 151 94 C 150 86 148 74 147 67 C 146 58 144 26 144 7 C 144 2 140 2 114 2 C 94 2 87 2 86 3 z" fill="black"/><!-- width=361 height=250 -->
<path id="gl5915" d="M 139 7 C 137 9 134 12 134 13 C 134 13 134 15 132 18 C 129 21 126 21 118 19 C 98 10 63 32 36 72 C 4 118 -1 161 20 161 C 32 161 54 148 74 131 C 90 115 95 117 87 139 C 83 151 83 155 88 158 C 95 166 123 154 143 135 C 150 128 150 127 148 124 C 145 122 144 122 133 131 C 120 141 112 144 109 137 C 107 133 109 128 117 106 C 121 97 128 78 134 64 C 139 49 146 32 149 25 C 155 10 155 9 151 6 C 148 2 143 2 139 7 M 112 32 C 122 40 121 52 105 81 C 93 104 67 131 48 140 C 23 154 29 111 58 67 C 78 38 99 24 112 32 z" fill="black"/><!-- width=163 height=172 -->
<path id="gl6154" d="M 47 6 C 28 13 8 29 11 36 C 12 39 15 39 22 34 C 34 25 41 24 44 30 C 45 35 42 41 20 102 C 4 145 3 149 8 154 C 14 160 18 156 33 126 C 56 80 64 68 91 41 C 110 23 115 19 121 19 C 131 19 132 30 122 55 C 118 63 111 79 107 90 C 102 102 96 118 93 127 C 84 147 84 153 94 155 C 109 159 158 126 150 117 C 149 115 147 115 138 122 C 126 133 121 136 117 132 C 115 128 115 125 122 109 C 154 36 158 14 142 6 C 127 -1 100 13 73 47 C 52 73 49 66 64 26 C 69 14 69 9 62 6 C 58 3 55 3 47 6 z" fill="black"/><!-- width=162 height=166 -->
<path id="gl5915" d="M 139 7 C 137 9 134 12 134 13 C 134 13 134 15 132 18 C 129 21 126 21 118 19 C 98 10 63 32 36 72 C 4 118 -1 161 20 161 C 32 161 54 148 74 131 C 90 115 95 117 87 139 C 83 151 83 155 88 158 C 95 166 123 154 143 135 C 150 128 150 127 148 124 C 145 122 144 122 133 131 C 120 141 112 144 109 137 C 107 133 109 128 117 106 C 121 97 128 78 134 64 C 139 49 146 32 149 25 C 155 10 155 9 151 6 C 148 2 143 2 139 7 M 112 32 C 122 40 121 52 105 81 C 93 104 67 131 48 140 C 23 154 29 111 58 67 C 78 38 99 24 112 32 z" fill="black"/><!-- width=163 height=172 -->
<path id="gl5914" d="M 101 7 C 75 14 53 40 46 70 C 41 89 42 99 55 110 C 64 119 64 119 59 130 C 55 140 55 144 56 155 C 57 163 56 165 41 171 C 7 185 -3 214 14 232 C 44 258 127 247 144 214 C 152 196 143 183 107 161 C 84 148 77 141 75 135 C 72 124 78 118 94 113 C 126 102 150 69 151 37 C 151 24 155 20 166 23 C 182 25 192 17 182 7 C 177 3 174 3 165 7 C 155 9 145 9 137 7 C 127 3 113 3 101 7 M 127 17 C 133 25 130 39 121 59 C 101 97 80 115 68 103 C 62 96 64 78 77 57 C 96 22 117 6 127 17 M 85 173 C 95 178 112 189 116 194 C 133 215 113 233 75 233 C 29 233 13 206 44 181 C 59 170 72 167 85 173 z" fill="black"/><!-- width=193 height=255 -->
<path id="gl38410" d="M 81 6 C 79 6 75 7 74 7 C 73 8 70 8 69 9 C 68 12 67 12 66 12 C 61 12 40 30 33 40 C 32 43 28 46 27 49 C 18 61 10 76 7 97 C 1 121 4 138 16 147 C 21 150 43 151 50 148 C 66 142 85 127 84 121 C 82 117 80 117 74 122 C 62 130 60 132 46 135 C 44 136 42 136 39 136 C 36 136 34 139 34 142 C 34 145 31 147 28 148 C 27 148 28 138 30 136 C 32 135 32 135 30 129 C 26 120 25 116 26 106 C 26 88 32 80 45 78 C 48 78 51 76 54 75 C 55 74 58 74 60 74 C 62 74 66 73 68 70 C 69 69 73 68 74 68 C 76 68 82 64 97 56 C 111 46 117 37 117 26 C 117 8 99 -1 81 6 M 94 18 C 102 28 87 49 60 64 C 36 78 33 66 54 39 C 70 18 88 8 94 18 z" fill="black"/><!-- width=130 height=159 -->
<path id="gl25115" d="M 49 4 C 31 8 13 20 8 30 C 4 40 10 40 21 31 C 32 23 38 23 42 30 C 43 35 43 34 17 110 C 13 120 8 132 7 137 C 2 150 3 155 12 155 C 18 155 20 150 30 131 C 38 113 45 102 52 90 C 70 58 107 20 119 20 C 128 20 130 30 119 55 C 117 60 114 70 111 75 C 108 85 100 104 91 128 C 82 149 83 155 93 155 C 99 155 102 153 114 130 C 121 114 127 103 138 85 C 150 64 188 23 197 20 C 205 17 210 23 209 32 C 207 37 200 57 195 70 C 194 74 189 85 187 93 C 183 102 178 115 175 121 C 162 150 164 156 181 154 C 199 153 234 126 231 117 C 229 114 226 115 218 122 C 206 133 199 135 197 128 C 195 126 200 113 207 97 C 217 74 228 43 231 32 C 237 2 211 -3 180 19 C 176 21 169 31 161 38 C 142 64 137 64 143 41 C 148 26 148 18 144 12 C 132 -4 103 7 74 45 C 63 58 59 62 57 60 C 54 59 54 53 62 34 C 68 13 69 9 62 6 C 59 4 54 3 49 4 z" fill="black"/><!-- width=242 height=165 -->
<path id="gl6150" d="M 86 6 C 45 17 4 76 8 122 C 9 151 26 161 54 152 C 73 144 91 128 86 122 C 84 120 83 121 71 128 C 57 138 49 141 40 137 C 32 132 29 127 30 110 C 30 87 34 83 58 78 C 101 68 131 37 118 14 C 114 4 102 2 86 6 M 99 18 C 107 27 95 47 69 63 C 37 84 37 63 68 30 C 83 16 92 12 99 18 z" fill="black"/><!-- width=132 height=164 -->
<path id="gl6154" d="M 47 6 C 28 13 8 29 11 36 C 12 39 15 39 22 34 C 34 25 41 24 44 30 C 45 35 42 41 20 102 C 4 145 3 149 8 154 C 14 160 18 156 33 126 C 56 80 64 68 91 41 C 110 23 115 19 121 19 C 131 19 132 30 122 55 C 118 63 111 79 107 90 C 102 102 96 118 93 127 C 84 147 84 153 94 155 C 109 159 158 126 150 117 C 149 115 147 115 138 122 C 126 133 121 136 117 132 C 115 128 115 125 122 109 C 154 36 158 14 142 6 C 127 -1 100 13 73 47 C 52 73 49 66 64 26 C 69 14 69 9 62 6 C 58 3 55 3 47 6 z" fill="black"/><!-- width=162 height=166 -->
<path id="gl5918" d="M 65 6 C 64 6 61 14 56 23 C 47 40 46 41 32 43 C 21 45 18 46 18 50 C 18 53 19 54 28 54 C 35 54 39 58 39 62 C 39 63 35 75 31 90 C 21 117 8 160 7 168 C 3 183 12 186 26 179 C 54 167 84 139 76 133 C 74 130 72 131 58 145 C 45 157 40 160 36 158 C 32 156 31 151 34 144 C 37 131 59 67 61 62 C 64 54 67 53 80 54 C 101 56 107 54 107 47 C 107 42 103 41 89 42 C 70 43 68 40 74 23 C 78 13 78 8 75 6 C 74 3 68 3 65 6 z" fill="black"/><!-- width=116 height=194 -->
<path id="gl38411" d="M 26 3 C 21 4 16 9 16 13 C 16 16 20 21 22 21 C 24 21 26 22 28 25 C 39 34 31 55 12 67 C 7 69 6 72 6 74 C 6 76 9 79 10 76 C 10 76 13 75 15 74 C 28 68 34 62 46 50 C 52 42 55 27 50 18 C 45 8 34 1 26 3 z" fill="black"/><!-- width=62 height=86 -->
<path id="gl38412" d="M 164 4 C 164 4 158 6 151 7 C 144 7 135 8 134 9 C 132 10 127 12 123 12 C 120 12 115 13 114 14 C 112 15 110 16 109 16 C 106 16 94 20 91 24 C 90 24 87 25 86 25 C 79 28 55 48 43 61 C 26 79 14 103 7 140 C 0 180 15 228 40 242 C 43 243 46 244 48 244 C 52 248 62 252 64 252 C 66 253 70 253 73 255 C 82 258 117 258 128 255 C 132 254 138 253 142 252 C 151 250 164 247 171 243 C 177 241 180 237 180 229 C 180 223 188 190 193 175 C 196 165 202 159 211 156 C 217 153 219 150 217 147 C 214 146 148 145 141 146 C 133 147 138 156 147 156 C 154 156 164 160 165 165 C 166 170 165 178 164 184 C 162 188 162 193 160 194 C 160 196 156 213 153 218 C 152 219 152 222 152 223 C 152 228 140 240 132 243 C 121 249 85 246 70 238 C 43 226 31 199 34 156 C 37 114 62 64 91 44 C 94 42 98 39 98 38 C 100 34 126 24 135 21 C 138 21 141 20 144 19 C 146 18 153 16 170 16 C 177 16 186 16 193 16 C 195 18 198 19 200 20 C 210 25 212 30 214 44 C 216 58 217 61 222 60 C 225 58 228 54 229 48 C 229 45 230 40 231 39 C 232 37 234 34 234 34 C 234 33 234 31 235 28 C 238 20 238 16 234 13 C 228 10 211 7 199 7 C 192 6 181 4 175 4 C 170 4 165 4 164 4 z" fill="black"/><!-- width=246 height=265 -->
<path id="gl5913" d="M 74 7 C 48 16 21 48 12 83 C 2 114 6 140 21 150 C 59 174 118 118 125 52 C 128 41 127 39 124 27 C 118 7 98 0 74 7 M 94 16 C 104 21 107 39 100 62 C 85 117 56 154 36 143 C 24 135 24 117 34 85 C 51 38 78 7 94 16 z" fill="black"/><!-- width=138 height=165 -->
<path id="gl38413" d="M 139 7 C 136 10 134 15 133 18 C 129 22 128 22 120 20 C 117 18 112 18 110 18 C 106 18 92 22 88 24 C 88 25 86 26 85 26 C 76 28 49 52 45 61 C 45 62 43 66 40 68 C 38 72 37 74 37 75 C 37 76 36 78 34 78 C 31 81 21 100 15 115 C 3 142 4 162 18 164 C 22 165 37 160 40 157 C 42 156 43 156 44 156 C 45 156 48 154 48 154 C 48 153 51 151 55 150 C 58 147 63 144 66 141 C 68 139 74 134 79 130 C 93 117 96 121 88 142 C 84 156 84 157 88 162 C 94 169 109 164 130 150 C 145 140 153 132 151 127 C 148 123 146 124 141 129 C 138 132 126 141 122 144 C 118 146 115 146 111 141 C 109 138 110 130 118 109 C 122 99 127 88 128 84 C 130 80 133 74 134 70 C 135 68 135 64 135 63 C 135 62 145 39 148 30 C 150 27 151 25 151 25 C 151 24 151 21 153 18 C 156 12 156 8 152 4 C 147 0 145 1 139 7 M 112 33 C 120 38 121 48 116 61 C 110 75 100 94 92 105 C 90 108 87 111 86 114 C 84 117 78 122 76 122 C 75 122 69 127 64 132 C 58 138 52 141 52 141 C 52 141 50 142 49 144 C 46 146 44 146 42 146 C 15 146 55 58 91 34 C 97 31 108 30 112 33 z" fill="black"/><!-- width=163 height=177 -->
<path id="gl6155" d="M 93 3 C 81 6 69 9 67 12 C 63 15 63 17 69 24 C 74 30 73 36 60 74 C 54 94 44 125 39 142 C 33 159 27 179 24 187 C 15 213 6 250 6 252 C 6 266 25 268 44 256 C 66 244 84 218 73 217 C 71 216 67 219 55 232 C 42 245 40 247 36 247 C 28 247 28 240 35 220 C 38 212 46 185 55 159 C 63 132 78 88 88 60 C 94 42 99 24 105 7 C 104 7 103 6 103 4 C 99 3 98 2 93 3 z" fill="black"/><!-- width=114 height=274 -->
<path id="gl38414" d="M 62 6 C 54 8 38 9 30 9 C 6 10 2 12 2 21 C 2 28 3 28 16 27 C 24 27 31 26 34 25 C 38 25 49 24 60 22 C 86 21 91 19 91 10 C 91 3 88 3 62 6 z" fill="black"/><!-- width=100 height=36 -->
<path id="gl38415" d="M 114 6 C 111 6 105 7 100 7 C 83 10 63 25 55 41 C 51 52 49 54 49 69 C 49 93 58 109 88 137 C 99 147 109 157 111 162 C 125 182 125 205 113 224 C 108 232 98 239 96 239 C 94 240 92 240 88 243 C 78 246 58 246 47 241 C 32 235 24 224 18 204 C 15 193 12 189 9 193 C 7 195 2 215 2 221 C 2 245 37 260 81 256 C 110 252 133 234 143 209 C 145 201 145 198 145 184 C 145 156 140 147 108 114 C 82 91 78 85 75 70 C 68 44 85 19 111 15 C 128 13 142 17 150 26 C 155 30 155 31 155 41 C 156 53 157 55 161 55 C 165 55 170 47 170 42 C 170 41 171 37 172 34 C 176 27 176 18 173 15 C 165 8 131 2 114 6 z" fill="black"/><!-- width=185 height=264 -->
<path id="gl6148" d="M 85 4 C 44 16 7 69 7 115 C 7 141 15 152 34 152 C 46 152 55 150 64 144 C 74 138 85 128 85 125 C 85 119 83 117 75 123 C 55 139 44 140 34 131 C 28 126 27 117 28 103 C 31 85 34 81 50 78 C 57 76 70 73 73 72 C 74 70 78 69 81 68 C 90 64 103 55 110 48 C 132 24 116 -3 85 4 M 95 15 C 110 22 90 51 58 67 C 46 73 40 70 43 62 C 48 45 79 14 90 13 C 91 13 93 14 95 15 z" fill="black"/><!-- width=131 height=163 -->
<path id="gl5918" d="M 65 6 C 64 6 61 14 56 23 C 47 40 46 41 32 43 C 21 45 18 46 18 50 C 18 53 19 54 28 54 C 35 54 39 58 39 62 C 39 63 35 75 31 90 C 21 117 8 160 7 168 C 3 183 12 186 26 179 C 54 167 84 139 76 133 C 74 130 72 131 58 145 C 45 157 40 160 36 158 C 32 156 31 151 34 144 C 37 131 59 67 61 62 C 64 54 67 53 80 54 C 101 56 107 54 107 47 C 107 42 103 41 89 42 C 70 43 68 40 74 23 C 78 13 78 8 75 6 C 74 3 68 3 65 6 z" fill="black"/><!-- width=116 height=194 -->
<path id="gl5918" d="M 65 6 C 64 6 61 14 56 23 C 47 40 46 41 32 43 C 21 45 18 46 18 50 C 18 53 19 54 28 54 C 35 54 39 58 39 62 C 39 63 35 75 31 90 C 21 117 8 160 7 168 C 3 183 12 186 26 179 C 54 167 84 139 76 133 C 74 130 72 131 58 145 C 45 157 40 160 36 158 C 32 156 31 151 34 144 C 37 131 59 67 61 62 C 64 54 67 53 80 54 C 101 56 107 54 107 47 C 107 42 103 41 89 42 C 70 43 68 40 74 23 C 78 13 78 8 75 6 C 74 3 68 3 65 6 z" fill="black"/><!-- width=116 height=194 -->
<path id="gl17684" d="M 71 7 C 60 13 59 31 70 36 C 83 43 100 19 88 7 C 84 3 76 3 71 7 M 58 93 C 43 99 16 118 16 124 C 16 128 20 128 29 123 C 37 117 41 116 43 117 C 48 121 48 121 31 162 C 24 180 19 193 15 202 C 14 207 12 215 9 220 C -1 249 13 252 52 226 C 70 214 76 206 71 201 C 69 198 69 198 59 207 C 48 218 42 221 37 220 C 32 218 33 210 40 195 C 44 183 53 162 64 135 C 65 130 70 121 72 115 C 81 94 76 87 58 93 z" fill="black"/><!-- width=103 height=253 -->
<path id="gl6154" d="M 47 6 C 28 13 8 29 11 36 C 12 39 15 39 22 34 C 34 25 41 24 44 30 C 45 35 42 41 20 102 C 4 145 3 149 8 154 C 14 160 18 156 33 126 C 56 80 64 68 91 41 C 110 23 115 19 121 19 C 131 19 132 30 122 55 C 118 63 111 79 107 90 C 102 102 96 118 93 127 C 84 147 84 153 94 155 C 109 159 158 126 150 117 C 149 115 147 115 138 122 C 126 133 121 136 117 132 C 115 128 115 125 122 109 C 154 36 158 14 142 6 C 127 -1 100 13 73 47 C 52 73 49 66 64 26 C 69 14 69 9 62 6 C 58 3 55 3 47 6 z" fill="black"/><!-- width=162 height=166 -->
<path id="gl25106" d="M 112 4 C 88 8 65 26 53 53 C 39 81 41 100 55 112 C 65 121 66 123 60 135 C 55 145 55 150 56 158 C 58 163 56 168 53 169 C 52 170 45 173 38 176 C 13 188 0 208 8 225 C 18 245 45 254 87 248 C 122 243 146 226 146 208 C 146 192 139 183 110 166 C 84 152 81 148 77 144 C 72 131 77 122 91 117 C 124 107 151 72 151 39 C 151 22 154 19 168 22 C 176 24 181 22 185 18 C 187 13 187 12 183 7 C 179 3 176 3 163 7 C 153 9 145 9 137 6 C 133 3 119 2 112 4 M 125 15 C 140 24 122 73 95 100 C 81 116 66 112 66 93 C 66 76 87 35 104 21 C 114 12 119 12 125 15 M 89 179 C 113 192 122 202 122 212 C 122 239 50 246 32 221 C 24 209 30 196 49 182 C 64 171 75 171 89 179 z" fill="black"/><!-- width=196 height=260 -->
<path id="gl38411" d="M 26 3 C 21 4 16 9 16 13 C 16 16 20 21 22 21 C 24 21 26 22 28 25 C 39 34 31 55 12 67 C 7 69 6 72 6 74 C 6 76 9 79 10 76 C 10 76 13 75 15 74 C 28 68 34 62 46 50 C 52 42 55 27 50 18 C 45 8 34 1 26 3 z" fill="black"/><!-- width=62 height=86 -->
<path id="gl5915" d="M 139 7 C 137 9 134 12 134 13 C 134 13 134 15 132 18 C 129 21 126 21 118 19 C 98 10 63 32 36 72 C 4 118 -1 161 20 161 C 32 161 54 148 74 131 C 90 115 95 117 87 139 C 83 151 83 155 88 158 C 95 166 123 154 143 135 C 150 128 150 127 148 124 C 145 122 144 122 133 131 C 120 141 112 144 109 137 C 107 133 109 128 117 106 C 121 97 128 78 134 64 C 139 49 146 32 149 25 C 155 10 155 9 151 6 C 148 2 143 2 139 7 M 112 32 C 122 40 121 52 105 81 C 93 104 67 131 48 140 C 23 154 29 111 58 67 C 78 38 99 24 112 32 z" fill="black"/><!-- width=163 height=172 -->
<path id="gl6154" d="M 47 6 C 28 13 8 29 11 36 C 12 39 15 39 22 34 C 34 25 41 24 44 30 C 45 35 42 41 20 102 C 4 145 3 149 8 154 C 14 160 18 156 33 126 C 56 80 64 68 91 41 C 110 23 115 19 121 19 C 131 19 132 30 122 55 C 118 63 111 79 107 90 C 102 102 96 118 93 127 C 84 147 84 153 94 155 C 109 159 158 126 150 117 C 149 115 147 115 138 122 C 126 133 121 136 117 132 C 115 128 115 125 122 109 C 154 36 158 14 142 6 C 127 -1 100 13 73 47 C 52 73 49 66 64 26 C 69 14 69 9 62 6 C 58 3 55 3 47 6 z" fill="black"/><!-- width=162 height=166 -->
<path id="gl17680" d="M 179 3 C 178 3 174 4 170 4 C 157 8 156 10 161 20 C 164 27 164 32 158 50 C 156 56 150 73 145 87 C 134 121 134 121 122 117 C 89 107 36 147 14 203 C -1 246 4 273 33 268 C 52 264 68 252 89 228 C 103 211 108 215 101 238 C 96 252 96 258 99 263 C 107 271 122 267 143 249 C 162 232 168 223 163 221 C 160 218 158 220 146 232 C 133 243 128 246 123 243 C 121 240 121 234 123 224 C 125 221 127 214 129 208 C 131 203 133 197 134 193 C 134 190 137 184 138 179 C 149 145 156 122 167 92 C 168 87 170 83 172 80 C 172 78 173 73 174 69 C 176 66 180 55 182 46 C 186 39 190 28 191 25 C 196 14 196 7 193 4 C 192 3 181 2 179 3 M 119 126 C 133 134 121 174 96 206 C 79 227 48 252 37 253 C 28 255 25 251 26 239 C 27 218 58 169 87 140 C 102 127 111 122 119 126 z" fill="black"/><!-- width=204 height=279 -->
<path id="gl17676" d="M 79 4 C 74 6 72 7 70 9 C 68 10 67 10 66 12 C 67 13 70 13 71 14 C 73 15 78 16 82 18 C 95 20 96 26 86 55 C 80 73 78 83 71 105 C 70 109 68 117 67 120 C 59 147 49 178 49 179 C 49 183 39 214 36 222 C 30 232 25 236 14 238 C 6 241 3 245 7 247 C 8 248 68 248 85 248 C 86 247 86 246 86 245 C 86 241 85 241 79 240 C 60 236 61 228 80 159 C 85 147 89 131 90 126 C 92 121 95 113 96 109 C 96 106 98 98 101 92 C 102 88 103 82 105 80 C 106 78 107 71 109 65 C 124 16 126 13 140 13 C 149 13 161 16 168 22 C 196 41 190 95 156 117 C 147 124 138 127 135 127 C 133 127 123 135 123 136 C 123 144 152 140 172 129 C 208 109 224 71 210 37 C 203 24 188 13 170 7 C 160 4 95 3 79 4 z" fill="black"/><!-- width=225 height=257 -->
<path id="gl5912" d="M 35 7 C 24 12 9 28 9 35 C 9 40 12 40 17 35 C 28 26 34 23 38 29 C 42 34 35 53 16 114 C 4 146 4 146 8 151 C 14 158 19 153 31 130 C 44 94 59 66 75 45 C 90 26 94 23 101 38 C 106 47 111 45 116 35 C 124 17 115 1 101 4 C 91 8 83 18 66 43 C 53 66 48 65 54 39 C 58 22 59 17 57 12 C 54 3 47 2 35 7 z" fill="black"/><!-- width=128 height=163 -->
<path id="gl17678" d="M 73 6 C 29 22 -4 100 10 140 C 22 165 64 162 90 133 C 123 98 136 38 118 14 C 110 3 89 0 73 6 M 95 15 C 119 27 88 124 55 144 C 31 157 20 135 32 96 C 48 41 77 6 95 15 z" fill="black"/><!-- width=139 height=168 -->
<path id="gl38407" d="M 74 4 C 61 7 57 10 63 19 C 66 21 66 24 66 30 C 66 38 64 40 56 60 C 55 66 52 72 51 74 C 50 78 49 81 48 84 C 45 90 40 103 33 123 C 30 135 25 146 24 150 C 22 153 21 159 20 163 C 19 166 16 175 15 180 C 1 228 0 247 13 260 C 14 261 15 262 18 264 C 22 264 27 264 32 264 C 44 264 48 264 50 261 C 51 260 54 260 56 260 C 57 260 60 259 61 258 C 63 256 67 255 69 254 C 81 247 108 223 116 210 C 127 193 130 189 133 182 C 157 134 132 96 91 120 C 90 120 86 122 84 123 C 81 124 74 132 66 140 C 42 168 40 159 61 106 C 68 88 72 79 74 73 C 74 72 75 68 75 68 C 76 67 79 62 81 55 C 87 39 92 26 94 21 C 94 19 96 16 97 16 C 98 14 99 8 98 6 C 96 2 87 2 74 4 M 114 127 C 121 132 121 147 115 163 C 100 198 75 232 50 249 C 20 270 15 224 43 183 C 44 181 46 177 48 176 C 56 163 82 136 94 129 C 100 126 109 126 114 127 z" fill="black"/><!-- width=154 height=274 -->
<path id="gl6155" d="M 93 3 C 81 6 69 9 67 12 C 63 15 63 17 69 24 C 74 30 73 36 60 74 C 54 94 44 125 39 142 C 33 159 27 179 24 187 C 15 213 6 250 6 252 C 6 266 25 268 44 256 C 66 244 84 218 73 217 C 71 216 67 219 55 232 C 42 245 40 247 36 247 C 28 247 28 240 35 220 C 38 212 46 185 55 159 C 63 132 78 88 88 60 C 94 42 99 24 105 7 C 104 7 103 6 103 4 C 99 3 98 2 93 3 z" fill="black"/><!-- width=114 height=274 -->
<path id="gl6150" d="M 86 6 C 45 17 4 76 8 122 C 9 151 26 161 54 152 C 73 144 91 128 86 122 C 84 120 83 121 71 128 C 57 138 49 141 40 137 C 32 132 29 127 30 110 C 30 87 34 83 58 78 C 101 68 131 37 118 14 C 114 4 102 2 86 6 M 99 18 C 107 27 95 47 69 63 C 37 84 37 63 68 30 C 83 16 92 12 99 18 z" fill="black"/><!-- width=132 height=164 -->
<path id="gl25115" d="M 49 4 C 31 8 13 20 8 30 C 4 40 10 40 21 31 C 32 23 38 23 42 30 C 43 35 43 34 17 110 C 13 120 8 132 7 137 C 2 150 3 155 12 155 C 18 155 20 150 30 131 C 38 113 45 102 52 90 C 70 58 107 20 119 20 C 128 20 130 30 119 55 C 117 60 114 70 111 75 C 108 85 100 104 91 128 C 82 149 83 155 93 155 C 99 155 102 153 114 130 C 121 114 127 103 138 85 C 150 64 188 23 197 20 C 205 17 210 23 209 32 C 207 37 200 57 195 70 C 194 74 189 85 187 93 C 183 102 178 115 175 121 C 162 150 164 156 181 154 C 199 153 234 126 231 117 C 229 114 226 115 218 122 C 206 133 199 135 197 128 C 195 126 200 113 207 97 C 217 74 228 43 231 32 C 237 2 211 -3 180 19 C 176 21 169 31 161 38 C 142 64 137 64 143 41 C 148 26 148 18 144 12 C 132 -4 103 7 74 45 C 63 58 59 62 57 60 C 54 59 54 53 62 34 C 68 13 69 9 62 6 C 59 4 54 3 49 4 z" fill="black"/><!-- width=242 height=165 -->
<path id="gl38414" d="M 62 6 C 54 8 38 9 30 9 C 6 10 2 12 2 21 C 2 28 3 28 16 27 C 24 27 31 26 34 25 C 38 25 49 24 60 22 C 86 21 91 19 91 10 C 91 3 88 3 62 6 z" fill="black"/><!-- width=100 height=36 -->
<path id="gl38415" d="M 114 6 C 111 6 105 7 100 7 C 83 10 63 25 55 41 C 51 52 49 54 49 69 C 49 93 58 109 88 137 C 99 147 109 157 111 162 C 125 182 125 205 113 224 C 108 232 98 239 96 239 C 94 240 92 240 88 243 C 78 246 58 246 47 241 C 32 235 24 224 18 204 C 15 193 12 189 9 193 C 7 195 2 215 2 221 C 2 245 37 260 81 256 C 110 252 133 234 143 209 C 145 201 145 198 145 184 C 145 156 140 147 108 114 C 82 91 78 85 75 70 C 68 44 85 19 111 15 C 128 13 142 17 150 26 C 155 30 155 31 155 41 C 156 53 157 55 161 55 C 165 55 170 47 170 42 C 170 41 171 37 172 34 C 176 27 176 18 173 15 C 165 8 131 2 114 6 z" fill="black"/><!-- width=185 height=264 -->
<path id="gl17678" d="M 73 6 C 29 22 -4 100 10 140 C 22 165 64 162 90 133 C 123 98 136 38 118 14 C 110 3 89 0 73 6 M 95 15 C 119 27 88 124 55 144 C 31 157 20 135 32 96 C 48 41 77 6 95 15 z" fill="black"/><!-- width=139 height=168 -->
<path id="gl6155" d="M 93 3 C 81 6 69 9 67 12 C 63 15 63 17 69 24 C 74 30 73 36 60 74 C 54 94 44 125 39 142 C 33 159 27 179 24 187 C 15 213 6 250 6 252 C 6 266 25 268 44 256 C 66 244 84 218 73 217 C 71 216 67 219 55 232 C 42 245 40 247 36 247 C 28 247 28 240 35 220 C 38 212 46 185 55 159 C 63 132 78 88 88 60 C 94 42 99 24 105 7 C 104 7 103 6 103 4 C 99 3 98 2 93 3 z" fill="black"/><!-- width=114 height=274 -->
<path id="gl38416" d="M 49 4 C 46 6 43 7 42 7 C 40 7 38 8 38 9 C 37 10 33 13 28 14 C 22 19 12 28 4 38 C 2 42 2 43 3 46 C 4 50 4 50 14 40 C 32 21 48 22 40 42 C 38 46 30 70 27 75 C 27 78 26 82 25 85 C 18 100 13 116 13 123 C 13 129 12 135 12 139 C 9 151 21 160 33 157 C 36 156 39 154 40 154 C 42 154 45 154 48 152 C 50 151 54 150 55 150 C 56 150 57 150 57 148 C 57 148 61 146 64 144 C 70 141 76 136 90 123 C 96 118 103 110 105 104 C 108 102 110 97 112 94 C 115 92 117 88 117 86 C 117 85 118 82 120 81 C 121 81 122 79 122 79 C 122 78 122 75 123 74 C 127 68 134 44 135 28 C 138 8 126 -2 116 7 C 112 10 112 7 112 40 C 114 49 112 57 112 60 C 111 63 108 70 103 84 C 103 86 100 90 98 93 C 96 96 94 99 94 99 C 94 103 78 121 68 128 C 64 130 62 134 61 134 C 58 138 48 142 45 142 C 33 142 30 124 37 109 C 40 102 60 46 63 36 C 64 32 66 28 66 26 C 69 18 67 8 61 4 C 56 2 55 2 49 4 z" fill="black"/><!-- width=144 height=168 -->
<path id="gl17684" d="M 71 7 C 60 13 59 31 70 36 C 83 43 100 19 88 7 C 84 3 76 3 71 7 M 58 93 C 43 99 16 118 16 124 C 16 128 20 128 29 123 C 37 117 41 116 43 117 C 48 121 48 121 31 162 C 24 180 19 193 15 202 C 14 207 12 215 9 220 C -1 249 13 252 52 226 C 70 214 76 206 71 201 C 69 198 69 198 59 207 C 48 218 42 221 37 220 C 32 218 33 210 40 195 C 44 183 53 162 64 135 C 65 130 70 121 72 115 C 81 94 76 87 58 93 z" fill="black"/><!-- width=103 height=253 -->
<path id="gl6154" d="M 47 6 C 28 13 8 29 11 36 C 12 39 15 39 22 34 C 34 25 41 24 44 30 C 45 35 42 41 20 102 C 4 145 3 149 8 154 C 14 160 18 156 33 126 C 56 80 64 68 91 41 C 110 23 115 19 121 19 C 131 19 132 30 122 55 C 118 63 111 79 107 90 C 102 102 96 118 93 127 C 84 147 84 153 94 155 C 109 159 158 126 150 117 C 149 115 147 115 138 122 C 126 133 121 136 117 132 C 115 128 115 125 122 109 C 154 36 158 14 142 6 C 127 -1 100 13 73 47 C 52 73 49 66 64 26 C 69 14 69 9 62 6 C 58 3 55 3 47 6 z" fill="black"/><!-- width=162 height=166 -->
<path id="gl25106" d="M 112 4 C 88 8 65 26 53 53 C 39 81 41 100 55 112 C 65 121 66 123 60 135 C 55 145 55 150 56 158 C 58 163 56 168 53 169 C 52 170 45 173 38 176 C 13 188 0 208 8 225 C 18 245 45 254 87 248 C 122 243 146 226 146 208 C 146 192 139 183 110 166 C 84 152 81 148 77 144 C 72 131 77 122 91 117 C 124 107 151 72 151 39 C 151 22 154 19 168 22 C 176 24 181 22 185 18 C 187 13 187 12 183 7 C 179 3 176 3 163 7 C 153 9 145 9 137 6 C 133 3 119 2 112 4 M 125 15 C 140 24 122 73 95 100 C 81 116 66 112 66 93 C 66 76 87 35 104 21 C 114 12 119 12 125 15 M 89 179 C 113 192 122 202 122 212 C 122 239 50 246 32 221 C 24 209 30 196 49 182 C 64 171 75 171 89 179 z" fill="black"/><!-- width=196 height=260 -->
</defs>
<use xlink:href="#gl22795" x="0" y="17"/>
<use xlink:href="#gl6150" x="264" y="109"/>
<use xlink:href="#gl5915" x="377" y="102"/>
<use xlink:href="#gl6155" x="540" y="0"/>
<use xlink:href="#gl5909" x="624" y="22"/>
<use xlink:href="#gl6154" x="721" y="109"/>
<use xlink:href="#gl5914" x="854" y="110"/>
<use xlink:href="#gl10267" x="1110" y="110"/>
<use xlink:href="#gl5909" x="1332" y="22"/>
<use xlink:href="#gl5918" x="1427" y="80"/>
<use xlink:href="#gl5908" x="1515" y="0"/>
<use xlink:href="#gl5917" x="1757" y="16"/>
<use xlink:href="#gl6150" x="1957" y="111"/>
<use xlink:href="#gl5915" x="2069" y="102"/>
<use xlink:href="#gl6155" x="2232" y="1"/>
<use xlink:href="#gl38406" x="2385" y="17"/>
<use xlink:href="#gl5912" x="2582" y="111"/>
<use xlink:href="#gl5913" x="2691" y="110"/>
<use xlink:href="#gl38407" x="2841" y="1"/>
<use xlink:href="#gl6155" x="2993" y="2"/>
<use xlink:href="#gl6150" x="3072" y="110"/>
<use xlink:href="#gl25115" x="3200" y="110"/>
<use xlink:href="#gl25114" x="3435" y="112"/>
<use xlink:href="#gl38408" x="3537" y="118"/>
<use xlink:href="#gl28170" x="3720" y="12"/>
<use xlink:href="#gl5909" x="3891" y="23"/>
<use xlink:href="#gl5916" x="3987" y="112"/>
<use xlink:href="#gl6148" x="4236" y="112"/>
<use xlink:href="#gl38409" x="4415" y="22"/>
<use xlink:href="#gl5915" x="4732" y="103"/>
<use xlink:href="#gl6154" x="4900" y="110"/>
<use xlink:href="#gl5915" x="5060" y="104"/>
<use xlink:href="#gl5914" x="5187" y="111"/>
<use xlink:href="#gl38410" x="5356" y="113"/>
<use xlink:href="#gl25115" x="5479" y="110"/>
<use xlink:href="#gl6150" x="5726" y="111"/>
<use xlink:href="#gl6154" x="5852" y="110"/>
<use xlink:href="#gl5918" x="6022" y="82"/>
<use xlink:href="#gl38411" x="6105" y="219"/>
<use xlink:href="#gl38412" x="28" y="492"/>
<use xlink:href="#gl5913" x="252" y="592"/>
<use xlink:href="#gl38413" x="388" y="583"/>
<use xlink:href="#gl6155" x="557" y="483"/>
<use xlink:href="#gl38414" x="652" y="652"/>
<use xlink:href="#gl38415" x="757" y="494"/>
<use xlink:href="#gl6148" x="924" y="594"/>
<use xlink:href="#gl5918" x="1051" y="562"/>
<use xlink:href="#gl5918" x="1153" y="563"/>
<use xlink:href="#gl17684" x="1255" y="503"/>
<use xlink:href="#gl6154" x="1357" y="592"/>
<use xlink:href="#gl25106" x="1494" y="593"/>
<use xlink:href="#gl38411" x="1655" y="703"/>
<use xlink:href="#gl5915" x="1837" y="585"/>
<use xlink:href="#gl6154" x="2010" y="593"/>
<use xlink:href="#gl17680" x="2177" y="482"/>
<use xlink:href="#gl17676" x="2433" y="500"/>
<use xlink:href="#gl5912" x="2638" y="592"/>
<use xlink:href="#gl17678" x="2751" y="592"/>
<use xlink:href="#gl38407" x="2908" y="484"/>
<use xlink:href="#gl6155" x="3064" y="485"/>
<use xlink:href="#gl6150" x="3150" y="593"/>
<use xlink:href="#gl25115" x="3282" y="593"/>
<use xlink:href="#gl38414" x="3542" y="653"/>
<use xlink:href="#gl38415" x="3648" y="495"/>
<use xlink:href="#gl17678" x="3818" y="593"/>
<use xlink:href="#gl6155" x="3964" y="484"/>
<use xlink:href="#gl38416" x="4060" y="593"/>
<use xlink:href="#gl17684" x="4207" y="506"/>
<use xlink:href="#gl6154" x="4309" y="593"/>
<use xlink:href="#gl25106" x="4446" y="592"/>
</svg>