<svg xmlns="http://www.w3.org/2000/svg" xmlns:xlink="http://www.w3.org/1999/xlink" width="890px" height="499px" viewBox="0 0 8909 4992" version="1.1">
<defs>
<path id="gl27906" d="M 12 3 C 8 6 6 13 6 22 C 6 32 9 32 19 24 C 26 15 49 12 56 18 C 56 18 57 19 58 19 C 58 36 58 52 58 69 C 57 126 58 124 49 128 C 45 128 42 130 40 132 C 40 133 39 134 38 134 C 39 135 42 135 43 136 C 49 139 90 139 91 136 C 93 134 92 132 86 129 C 78 124 78 126 78 69 C 78 12 76 16 91 16 C 110 16 116 18 122 28 C 123 30 124 31 127 31 C 130 32 132 30 133 18 C 135 4 133 1 123 4 C 116 6 34 6 25 4 C 14 1 14 1 12 3 z" fill="black"/><!-- width=144 height=148 -->
<path id="gl12053" d="M 18 8 C 9 11 8 15 14 22 C 15 24 16 27 16 49 C 16 57 16 66 16 73 C 14 75 13 76 11 78 C 3 87 5 88 29 87 C 42 87 43 87 43 85 C 44 82 43 81 40 80 C 33 76 33 74 33 49 C 33 20 34 16 47 21 C 55 23 57 23 61 20 C 70 10 56 0 43 8 C 37 11 36 11 31 8 C 27 3 27 3 18 8 z" fill="black"/><!-- width=73 height=99 -->
<path id="gl12052" d="M 12 7 C 5 15 11 28 21 26 C 37 24 35 5 20 3 C 17 3 15 5 12 7 M 17 57 C 7 62 6 65 11 72 C 12 76 14 79 14 101 C 14 108 14 116 14 124 C 11 126 10 127 8 129 C 1 138 3 140 23 140 C 39 140 42 138 34 130 C 29 124 29 120 30 86 C 30 51 30 49 17 57 z" fill="black"/><!-- width=49 height=149 -->
<path id="gl14086" d="M 28 8 C 9 15 3 35 15 52 C 20 61 20 62 15 67 C 7 77 7 79 14 88 C 19 94 19 95 13 102 C -8 129 29 154 67 135 C 89 124 97 99 83 86 C 77 80 71 79 50 80 C 33 80 33 80 29 78 C 20 69 26 63 45 62 C 63 61 72 53 74 35 C 77 26 77 25 84 23 C 94 18 90 11 78 11 C 73 11 67 9 61 8 C 47 4 35 4 28 8 M 48 15 C 57 19 61 35 56 46 C 50 58 36 58 30 45 C 22 28 35 8 48 15 M 67 96 C 75 101 77 111 71 120 C 61 133 31 133 25 120 C 20 111 24 99 33 96 C 37 94 62 94 67 96 z" fill="black"/><!-- width=100 height=153 -->
<path id="gl11294" d="M 26 6 C 8 12 2 31 12 49 C 18 60 18 61 12 68 C 7 74 7 77 12 84 C 16 91 16 95 12 100 C 0 113 3 129 20 136 C 47 147 83 129 87 103 C 89 84 78 77 49 78 C 32 79 29 78 25 73 C 20 66 26 61 43 60 C 55 59 60 56 65 50 C 68 47 72 36 72 31 C 72 27 76 24 81 21 C 91 18 88 9 76 9 C 71 9 64 8 58 7 C 47 3 33 3 26 6 M 49 16 C 65 30 49 64 33 50 C 22 42 21 25 31 16 C 36 10 43 10 49 16 M 64 94 C 78 101 72 122 55 126 C 47 128 33 126 29 124 C 18 117 18 101 27 95 C 33 91 56 90 64 94 z" fill="black"/><!-- width=97 height=149 -->
<path id="gl11047" d="M 40 3 C 17 7 3 31 8 57 C 11 69 16 78 27 84 C 43 91 74 84 74 72 C 74 67 70 67 63 70 C 44 79 24 67 22 45 C 21 34 23 34 48 34 C 55 34 63 36 69 36 C 70 34 72 33 73 32 C 76 28 76 24 74 18 C 68 7 55 2 40 3 M 53 14 C 57 17 57 23 52 26 C 48 28 32 28 31 26 C 22 18 43 7 53 14 z" fill="black"/><!-- width=86 height=99 -->
<path id="gl11048" d="M 14 10 C 8 14 7 18 10 25 C 14 34 13 69 9 79 C 6 85 6 86 7 87 C 10 91 38 90 38 87 C 38 86 37 85 35 82 C 29 76 29 72 29 52 C 29 26 31 19 41 23 C 52 27 59 25 59 17 C 59 8 51 6 41 10 C 38 12 35 14 34 14 C 32 14 30 12 29 10 C 24 7 21 7 14 10 z" fill="black"/><!-- width=70 height=102 -->
<path id="gl27907" d="M 20 6 C 8 9 12 27 24 27 C 37 27 40 12 30 6 C 25 3 24 3 20 6 M 22 55 C 12 58 9 62 13 70 C 15 74 15 78 15 96 C 16 123 16 122 13 126 C 2 135 4 138 24 138 C 43 138 48 134 38 128 C 33 126 33 121 34 92 C 36 56 36 58 32 55 C 30 52 28 52 22 55 z" fill="black"/><!-- width=54 height=150 -->
<path id="gl11303" d="M 17 9 C 9 13 8 17 11 23 C 13 28 14 30 13 53 C 13 61 13 70 13 78 C 12 79 11 81 9 82 C 6 86 6 87 6 89 C 8 94 37 94 39 89 C 39 87 39 86 37 84 C 32 78 30 75 30 53 C 30 24 33 21 49 19 C 65 19 69 26 69 52 C 69 74 68 78 63 81 C 55 89 59 92 78 91 C 96 91 97 90 90 82 C 86 78 86 76 86 70 C 86 37 85 26 82 19 C 76 7 60 3 45 11 C 37 14 35 14 32 9 C 27 6 24 6 17 9 z" fill="black"/><!-- width=106 height=102 -->
<path id="gl14086" d="M 28 8 C 9 15 3 35 15 52 C 20 61 20 62 15 67 C 7 77 7 79 14 88 C 19 94 19 95 13 102 C -8 129 29 154 67 135 C 89 124 97 99 83 86 C 77 80 71 79 50 80 C 33 80 33 80 29 78 C 20 69 26 63 45 62 C 63 61 72 53 74 35 C 77 26 77 25 84 23 C 94 18 90 11 78 11 C 73 11 67 9 61 8 C 47 4 35 4 28 8 M 48 15 C 57 19 61 35 56 46 C 50 58 36 58 30 45 C 22 28 35 8 48 15 M 67 96 C 75 101 77 111 71 120 C 61 133 31 133 25 120 C 20 111 24 99 33 96 C 37 94 62 94 67 96 z" fill="black"/><!-- width=100 height=153 -->
<path id="gl10785" d="M 42 6 C 28 7 18 14 12 27 C 7 37 7 62 11 70 C 21 91 47 98 67 85 C 79 77 77 67 63 74 C 47 83 28 73 22 52 C 19 38 23 37 48 37 C 73 38 75 37 75 27 C 75 13 60 3 42 6 M 50 14 C 58 18 59 26 52 29 C 47 31 33 31 31 28 C 27 24 29 18 38 14 C 44 12 45 12 50 14 z" fill="black"/><!-- width=86 height=103 -->
<path id="gl11033" d="M 69 4 C 63 6 62 8 63 14 C 65 19 64 21 60 34 C 57 42 54 49 54 51 C 51 56 46 54 43 47 C 42 44 39 39 38 34 C 34 26 33 18 36 12 C 37 7 34 6 21 6 C 12 6 8 6 7 7 C 4 9 4 9 11 16 C 16 21 29 49 34 68 C 42 90 48 92 54 73 C 60 57 78 21 83 17 C 87 12 89 7 87 6 C 84 4 74 4 69 4 z" fill="black"/><!-- width=98 height=95 -->
<path id="gl11021" d="M 37 6 C 31 8 21 13 18 17 C 3 32 3 67 18 80 C 31 94 58 94 70 80 C 78 74 72 68 63 73 C 45 83 24 70 21 48 C 20 43 21 42 24 40 C 25 39 26 37 26 37 C 34 37 41 37 47 37 C 70 39 73 37 75 31 C 80 17 57 2 37 6 M 50 14 C 53 17 57 21 56 25 C 54 30 35 32 30 29 C 23 21 39 10 50 14 z" fill="black"/><!-- width=86 height=102 -->
<path id="gl11306" d="M 21 7 C 11 11 8 16 12 26 C 13 30 14 37 14 53 C 14 73 14 73 11 80 C 7 86 7 87 8 89 C 11 91 30 91 34 89 C 35 87 37 87 37 86 C 37 84 35 81 34 80 C 29 70 29 32 34 24 C 39 17 48 14 59 21 C 68 24 69 28 69 53 C 69 73 69 73 64 79 C 60 86 60 89 64 90 C 69 91 90 90 91 89 C 94 87 94 87 87 76 C 85 74 85 68 85 49 C 85 37 84 24 84 22 C 79 7 60 1 45 9 C 39 13 35 13 29 8 C 26 4 24 4 21 7 z" fill="black"/><!-- width=104 height=102 -->
<path id="gl11284" d="M 14 13 C 6 22 6 22 9 27 C 12 30 12 32 13 58 C 13 90 14 91 23 96 C 33 101 52 97 52 90 C 52 87 52 87 44 87 C 30 86 29 83 29 52 C 29 26 29 26 42 27 C 50 27 52 27 54 24 C 59 19 55 14 43 16 C 34 16 32 14 29 8 C 27 3 23 4 14 13 z" fill="black"/><!-- width=65 height=110 -->
<path id="gl3351" d="M 26 6 C 12 11 6 21 10 34 C 11 40 16 46 27 53 C 41 60 45 66 40 77 C 35 87 24 83 12 66 C 8 60 3 64 5 74 C 7 94 45 96 55 75 C 61 63 55 51 36 39 C 22 31 18 22 27 15 C 32 11 36 12 44 18 C 51 26 54 27 56 24 C 58 18 58 13 53 10 C 49 6 48 6 39 6 C 34 6 27 6 26 6 z" fill="black"/><!-- width=68 height=99 -->
<path id="gl10786" d="M 9 8 C 2 16 9 31 19 28 C 32 26 29 6 17 6 C 14 6 12 6 9 8 M 9 66 C 3 73 7 88 16 88 C 19 88 26 84 27 81 C 32 69 18 58 9 66 z" fill="black"/><!-- width=38 height=99 -->
<path id="gl11530" d="M 67 3 C 63 6 59 11 57 18 C 53 32 19 115 16 122 C 14 125 11 127 9 130 C 4 132 4 137 7 139 C 8 139 14 140 22 140 C 38 140 39 139 34 130 C 32 122 32 121 37 106 C 43 88 44 86 65 86 C 83 86 84 89 91 110 C 94 121 94 126 90 130 C 84 139 88 140 111 139 C 117 139 122 139 129 139 C 129 137 129 136 129 135 C 130 132 129 131 125 129 C 119 126 115 120 111 110 C 105 96 80 23 79 16 C 76 9 73 2 70 3 C 69 3 68 3 67 3 M 68 42 C 72 47 78 68 76 72 C 74 76 70 79 63 78 C 49 76 48 73 54 55 C 60 38 63 36 68 42 z" fill="black"/><!-- width=140 height=148 -->
<path id="gl13589" d="M 16 7 C 7 12 7 13 10 21 C 12 25 12 28 12 50 C 12 57 12 66 12 74 C 11 76 10 77 8 79 C 3 87 3 89 21 87 C 38 87 40 86 33 79 C 32 77 31 76 30 75 C 30 67 30 60 30 52 C 28 27 30 23 37 18 C 42 16 54 16 59 20 C 65 25 66 27 66 52 C 66 59 65 66 65 74 C 64 75 62 77 62 79 C 56 87 57 89 75 87 C 92 87 94 86 87 79 C 86 77 85 76 84 75 C 84 66 84 57 84 49 C 82 23 82 22 80 16 C 74 6 56 2 43 8 C 36 12 33 12 31 8 C 26 3 23 3 16 7 z" fill="black"/><!-- width=101 height=100 -->
<path id="gl11037" d="M 10 7 C 6 8 6 12 8 14 C 19 24 23 27 30 36 C 38 48 38 51 30 62 C 21 72 17 76 12 79 C 8 81 7 82 7 85 C 7 90 9 90 21 90 C 35 88 35 88 34 81 C 34 75 35 69 40 64 C 47 55 59 70 53 82 C 51 86 51 86 53 87 C 55 88 82 90 86 88 C 90 87 88 83 83 80 C 77 76 71 70 64 59 C 55 48 54 46 55 41 C 57 35 74 18 79 17 C 81 17 83 14 85 13 C 87 8 83 7 71 7 C 58 7 57 7 57 17 C 57 31 47 37 41 27 C 38 23 37 21 38 15 C 38 10 38 8 37 8 C 35 7 13 7 10 7 z" fill="black"/><!-- width=98 height=99 -->
<path id="gl11282" d="M 19 4 C 7 9 9 26 21 26 C 28 26 34 21 34 17 C 34 8 25 2 19 4 M 17 58 C 13 60 10 62 10 64 C 9 68 9 69 13 76 C 14 80 14 86 14 99 C 14 121 14 128 9 131 C 2 139 4 141 23 141 C 37 141 42 140 40 135 C 39 134 37 132 36 132 C 32 132 31 124 31 91 C 31 68 31 58 30 57 C 29 54 24 54 17 58 z" fill="black"/><!-- width=51 height=152 -->
<path id="gl11293" d="M 41 3 C 2 11 -4 68 30 85 C 39 89 55 89 64 86 C 96 73 99 24 68 8 C 64 6 50 2 48 3 C 47 3 45 3 41 3 M 58 17 C 71 26 75 51 67 66 C 53 94 22 75 25 40 C 26 17 44 6 58 17 z" fill="black"/><!-- width=101 height=99 -->
<path id="gl11300" d="M 13 6 C 6 8 4 11 8 17 C 12 22 12 23 12 46 C 12 69 12 71 14 76 C 20 87 38 92 51 85 C 60 81 60 81 66 85 C 70 88 73 88 86 85 C 94 82 94 78 88 75 C 82 71 81 66 82 35 C 82 3 82 3 70 4 C 59 6 56 9 61 16 C 65 22 65 28 65 45 C 65 64 64 70 59 73 C 55 77 44 77 38 75 C 29 71 29 69 29 36 C 28 2 28 1 13 6 z" fill="black"/><!-- width=103 height=98 -->
<path id="gl11295" d="M 26 7 C 5 11 3 38 24 50 C 35 57 43 64 43 68 C 43 85 25 86 16 71 C 8 58 0 67 7 81 C 12 94 44 94 54 81 C 63 67 58 52 39 40 C 29 34 25 30 25 25 C 25 12 35 10 45 20 C 53 26 56 28 58 21 C 59 17 56 10 50 7 C 48 5 33 5 26 7 z" fill="black"/><!-- width=70 height=101 -->
<path id="gl16396" d="M 20 4 C 17 7 4 19 4 21 C 4 23 6 25 7 26 C 9 30 9 34 9 57 C 10 81 10 84 13 88 C 18 98 32 102 42 97 C 52 92 51 87 41 87 C 28 87 26 81 26 52 C 26 24 25 25 40 25 C 48 25 49 25 51 21 C 53 17 49 14 41 15 C 32 15 31 15 24 7 C 23 4 21 4 20 4 z" fill="black"/><!-- width=62 height=110 -->
<path id="gl12302" d="M 19 7 C 9 10 8 15 13 23 C 15 29 16 58 15 107 C 15 117 14 126 14 136 C 13 137 11 140 10 141 C 3 148 5 149 21 150 C 39 152 44 148 38 141 C 33 136 33 130 33 109 C 33 82 34 79 49 79 C 64 79 68 83 68 110 C 69 130 68 136 63 142 C 57 148 62 150 77 150 C 94 150 100 147 93 142 C 87 138 86 135 86 113 C 86 101 86 89 85 86 C 82 68 65 61 46 69 C 38 73 37 73 34 70 C 32 68 32 68 33 39 C 33 15 33 9 32 8 C 29 4 25 4 19 7 z" fill="black"/><!-- width=106 height=160 -->
<path id="gl11293" d="M 41 3 C 2 11 -4 68 30 85 C 39 89 55 89 64 86 C 96 73 99 24 68 8 C 64 6 50 2 48 3 C 47 3 45 3 41 3 M 58 17 C 71 26 75 51 67 66 C 53 94 22 75 25 40 C 26 17 44 6 58 17 z" fill="black"/><!-- width=101 height=99 -->
<path id="gl11531" d="M 11 6 C 6 7 4 9 7 16 C 9 22 9 24 9 44 C 11 74 12 79 22 84 C 31 88 39 88 48 84 C 57 81 59 81 63 84 C 66 86 67 87 68 88 C 71 87 74 87 78 86 C 92 83 94 79 87 74 C 81 71 81 69 81 37 C 81 14 79 7 78 6 C 77 3 66 3 61 6 C 56 8 56 11 59 17 C 64 23 66 56 62 66 C 57 78 37 81 29 68 C 27 64 27 62 27 36 C 27 14 27 7 26 6 C 23 3 16 3 11 6 z" fill="black"/><!-- width=102 height=98 -->
<path id="gl14086" d="M 28 8 C 9 15 3 35 15 52 C 20 61 20 62 15 67 C 7 77 7 79 14 88 C 19 94 19 95 13 102 C -8 129 29 154 67 135 C 89 124 97 99 83 86 C 77 80 71 79 50 80 C 33 80 33 80 29 78 C 20 69 26 63 45 62 C 63 61 72 53 74 35 C 77 26 77 25 84 23 C 94 18 90 11 78 11 C 73 11 67 9 61 8 C 47 4 35 4 28 8 M 48 15 C 57 19 61 35 56 46 C 50 58 36 58 30 45 C 22 28 35 8 48 15 M 67 96 C 75 101 77 111 71 120 C 61 133 31 133 25 120 C 20 111 24 99 33 96 C 37 94 62 94 67 96 z" fill="black"/><!-- width=100 height=153 -->
<path id="gl12302" d="M 19 7 C 9 10 8 15 13 23 C 15 29 16 58 15 107 C 15 117 14 126 14 136 C 13 137 11 140 10 141 C 3 148 5 149 21 150 C 39 152 44 148 38 141 C 33 136 33 130 33 109 C 33 82 34 79 49 79 C 64 79 68 83 68 110 C 69 130 68 136 63 142 C 57 148 62 150 77 150 C 94 150 100 147 93 142 C 87 138 86 135 86 113 C 86 101 86 89 85 86 C 82 68 65 61 46 69 C 38 73 37 73 34 70 C 32 68 32 68 33 39 C 33 15 33 9 32 8 C 29 4 25 4 19 7 z" fill="black"/><!-- width=106 height=160 -->
<path id="gl11284" d="M 14 13 C 6 22 6 22 9 27 C 12 30 12 32 13 58 C 13 90 14 91 23 96 C 33 101 52 97 52 90 C 52 87 52 87 44 87 C 30 86 29 83 29 52 C 29 26 29 26 42 27 C 50 27 52 27 54 24 C 59 19 55 14 43 16 C 34 16 32 14 29 8 C 27 3 23 4 14 13 z" fill="black"/><!-- width=65 height=110 -->
<path id="gl3351" d="M 26 6 C 12 11 6 21 10 34 C 11 40 16 46 27 53 C 41 60 45 66 40 77 C 35 87 24 83 12 66 C 8 60 3 64 5 74 C 7 94 45 96 55 75 C 61 63 55 51 36 39 C 22 31 18 22 27 15 C 32 11 36 12 44 18 C 51 26 54 27 56 24 C 58 18 58 13 53 10 C 49 6 48 6 39 6 C 34 6 27 6 26 6 z" fill="black"/><!-- width=68 height=99 -->
<path id="gl10786" d="M 9 8 C 2 16 9 31 19 28 C 32 26 29 6 17 6 C 14 6 12 6 9 8 M 9 66 C 3 73 7 88 16 88 C 19 88 26 84 27 81 C 32 69 18 58 9 66 z" fill="black"/><!-- width=38 height=99 -->
<path id="gl12305" d="M 10 7 C 4 8 6 10 12 16 C 19 22 19 22 18 79 C 18 126 18 126 9 131 C 4 135 3 138 8 140 C 9 140 19 140 30 140 C 48 140 49 140 49 137 C 50 135 48 133 45 131 C 37 126 36 123 36 103 C 36 86 37 85 39 83 C 47 76 55 82 68 103 C 86 131 97 141 113 142 C 120 143 121 142 124 141 C 127 137 127 136 119 131 C 109 125 98 113 88 97 C 74 78 74 77 85 67 C 106 51 103 21 80 9 C 77 8 74 7 72 6 C 62 6 53 6 43 6 C 27 6 13 6 10 7 M 57 15 C 74 20 83 38 76 56 C 72 66 67 70 53 73 C 38 76 36 72 36 44 C 36 13 38 10 57 15 z" fill="black"/><!-- width=136 height=153 -->
<path id="gl14088" d="M 34 4 C 15 10 7 23 7 43 C 6 63 12 74 25 81 C 42 90 74 81 71 69 C 71 65 68 65 60 69 C 43 77 24 66 20 45 C 19 40 20 38 23 36 C 25 34 25 34 46 34 C 68 34 70 34 73 29 C 76 23 71 12 60 6 C 54 3 41 2 34 4 M 52 14 C 60 21 53 27 38 27 C 26 27 24 23 30 15 C 37 9 47 8 52 14 z" fill="black"/><!-- width=85 height=96 -->
<path id="gl13574" d="M 39 6 C 35 7 23 12 17 15 C 4 20 2 35 12 35 C 15 35 19 33 23 25 C 28 15 35 13 41 18 C 52 25 48 52 36 52 C 30 52 15 57 11 62 C 2 69 4 83 15 89 C 22 92 28 92 35 88 C 44 84 45 84 53 88 C 61 92 67 92 73 89 C 75 88 77 86 77 86 C 77 84 74 81 72 80 C 63 79 62 77 63 47 C 63 24 63 20 61 17 C 57 8 47 3 39 6 M 45 58 C 51 66 42 84 34 81 C 34 81 31 80 29 80 C 22 79 20 68 26 62 C 35 55 41 53 45 58 z" fill="black"/><!-- width=85 height=101 -->
<path id="gl13845" d="M 18 6 C 8 9 7 14 12 22 C 13 27 13 29 13 79 C 13 133 13 133 8 139 C 2 144 6 146 22 146 C 40 146 43 145 35 137 C 34 135 33 134 32 132 C 32 112 32 91 32 70 C 32 16 30 8 29 6 C 27 3 23 3 18 6 z" fill="black"/><!-- width=49 height=158 -->
<path id="gl11035" d="M 41 7 C 26 8 15 15 9 28 C 6 37 6 63 11 72 C 25 99 68 99 83 72 C 100 37 78 2 41 7 M 55 18 C 64 23 71 39 69 55 C 66 97 22 88 24 45 C 25 22 39 9 55 18 z" fill="black"/><!-- width=100 height=102 -->
<path id="gl12309" d="M 67 4 C 59 9 57 12 62 20 C 65 25 66 26 66 42 C 66 65 66 63 48 65 C 19 66 4 80 4 109 C 4 138 28 156 53 147 C 61 144 62 144 66 147 C 70 150 76 150 86 148 C 94 146 94 146 94 142 C 94 140 92 138 90 137 C 83 135 83 136 83 68 C 83 33 83 4 82 4 C 80 2 73 2 67 4 M 61 77 C 62 78 63 79 65 80 C 65 88 65 95 65 102 C 66 132 65 136 54 137 C 22 142 9 90 38 74 C 44 71 56 72 61 77 z" fill="black"/><!-- width=105 height=161 -->
<path id="gl11022" d="M 69 6 C 61 9 59 13 63 19 C 66 23 66 26 66 41 C 67 63 67 63 48 64 C 33 64 26 67 18 74 C 4 88 2 119 14 135 C 22 145 40 151 51 146 C 61 143 63 143 68 146 C 73 149 73 149 81 147 C 95 145 97 141 90 135 C 83 129 83 127 84 62 C 84 -1 85 0 69 6 M 59 74 C 66 79 67 80 66 106 C 66 113 66 121 66 129 C 64 129 63 130 62 132 C 53 141 30 132 25 117 C 17 90 40 61 59 74 z" fill="black"/><!-- width=106 height=158 -->
<path id="gl11295" d="M 26 7 C 5 11 3 38 24 50 C 35 57 43 64 43 68 C 43 85 25 86 16 71 C 8 58 0 67 7 81 C 12 94 44 94 54 81 C 63 67 58 52 39 40 C 29 34 25 30 25 25 C 25 12 35 10 45 20 C 53 26 56 28 58 21 C 59 17 56 10 50 7 C 48 5 33 5 26 7 z" fill="black"/><!-- width=70 height=101 -->
<path id="gl11269" d="M 41 6 C 18 10 6 28 7 55 C 8 77 18 90 38 96 C 75 106 106 68 92 32 C 85 13 62 1 41 6 M 57 18 C 85 25 87 73 60 83 C 37 92 16 70 21 43 C 25 25 40 13 57 18 z" fill="black"/><!-- width=107 height=108 -->
<path id="gl27908" d="M 52 3 C 9 3 8 4 6 7 C 3 8 3 9 4 12 C 4 13 6 14 6 16 C 21 16 37 16 52 16 C 76 16 99 16 100 16 C 107 14 106 4 99 3 C 97 3 76 3 52 3 z" fill="black"/><!-- width=115 height=26 -->
<path id="gl16398" d="M 7 7 C 4 8 6 11 12 13 C 18 18 18 20 18 48 C 18 77 18 80 11 82 C 4 86 3 87 4 89 C 7 92 46 92 49 89 C 50 87 49 86 43 83 C 35 81 35 80 35 48 C 35 17 34 18 43 12 C 45 11 46 9 46 8 C 46 4 8 3 7 7 z" fill="black"/><!-- width=59 height=102 -->
<path id="gl11269" d="M 41 6 C 18 10 6 28 7 55 C 8 77 18 90 38 96 C 75 106 106 68 92 32 C 85 13 62 1 41 6 M 57 18 C 85 25 87 73 60 83 C 37 92 16 70 21 43 C 25 25 40 13 57 18 z" fill="black"/><!-- width=107 height=108 -->
<path id="gl11269" d="M 41 6 C 18 10 6 28 7 55 C 8 77 18 90 38 96 C 75 106 106 68 92 32 C 85 13 62 1 41 6 M 57 18 C 85 25 87 73 60 83 C 37 92 16 70 21 43 C 25 25 40 13 57 18 z" fill="black"/><!-- width=107 height=108 -->
<path id="gl27909" d="M 71 2 C 64 6 63 8 60 17 C 58 21 54 31 52 37 C 48 44 44 53 43 57 C 38 74 19 117 17 122 C 15 125 12 127 10 127 C 7 128 4 133 6 136 C 7 137 13 137 20 137 C 42 138 47 136 38 128 C 34 123 34 122 38 105 C 44 86 46 85 65 85 C 86 85 86 86 92 103 C 97 120 97 123 92 128 C 83 136 87 137 111 137 C 132 137 137 137 137 133 C 137 130 134 128 128 127 C 123 126 117 121 115 115 C 114 110 94 54 92 47 C 91 43 88 36 87 31 C 85 25 82 20 82 19 C 82 14 80 7 77 4 C 75 1 74 1 71 2 M 69 38 C 74 42 81 68 80 71 C 77 75 72 76 63 75 C 51 74 51 71 57 53 C 63 36 64 34 69 38 z" fill="black"/><!-- width=144 height=148 -->
<path id="gl11034" d="M 12 8 C 6 11 6 14 8 22 C 11 28 12 30 12 80 C 12 96 12 113 12 131 C 11 133 9 134 8 137 C 3 147 4 148 19 148 C 27 148 32 147 33 145 C 35 144 35 144 29 134 C 27 129 27 127 28 69 C 28 23 27 8 25 7 C 24 4 18 4 12 8 z" fill="black"/><!-- width=44 height=159 -->
<path id="gl11284" d="M 14 13 C 6 22 6 22 9 27 C 12 30 12 32 13 58 C 13 90 14 91 23 96 C 33 101 52 97 52 90 C 52 87 52 87 44 87 C 30 86 29 83 29 52 C 29 26 29 26 42 27 C 50 27 52 27 54 24 C 59 19 55 14 43 16 C 34 16 32 14 29 8 C 27 3 23 4 14 13 z" fill="black"/><!-- width=65 height=110 -->
<path id="gl11047" d="M 40 3 C 17 7 3 31 8 57 C 11 69 16 78 27 84 C 43 91 74 84 74 72 C 74 67 70 67 63 70 C 44 79 24 67 22 45 C 21 34 23 34 48 34 C 55 34 63 36 69 36 C 70 34 72 33 73 32 C 76 28 76 24 74 18 C 68 7 55 2 40 3 M 53 14 C 57 17 57 23 52 26 C 48 28 32 28 31 26 C 22 18 43 7 53 14 z" fill="black"/><!-- width=86 height=99 -->
<path id="gl11286" d="M 18 9 C 9 13 7 17 12 23 C 17 32 17 74 9 81 C 3 88 4 90 23 91 C 31 91 40 91 41 90 C 43 88 43 86 40 84 C 31 80 30 77 30 52 C 30 21 32 18 47 24 C 56 28 62 24 62 15 C 62 8 52 4 42 10 C 36 14 34 14 30 10 C 26 6 25 6 18 9 z" fill="black"/><!-- width=73 height=102 -->
<path id="gl11019" d="M 16 8 C 10 12 10 15 12 23 C 17 32 16 71 12 76 C 3 87 5 88 23 88 C 40 88 42 87 38 82 C 32 73 32 72 32 51 C 32 22 35 17 50 17 C 60 17 63 20 67 27 C 71 33 70 71 66 76 C 57 86 58 88 76 88 C 95 90 98 87 91 80 C 86 73 85 70 85 46 C 85 22 85 18 78 12 C 72 5 55 3 45 8 C 38 12 36 12 32 8 C 30 5 22 5 16 8 z" fill="black"/><!-- width=106 height=100 -->
<path id="gl13846" d="M 28 8 C 11 15 2 25 8 31 C 12 36 20 32 23 23 C 32 8 48 15 48 32 C 48 43 45 47 30 50 C 16 53 8 57 6 66 C 2 83 21 95 37 85 C 43 81 45 81 55 86 C 60 88 62 90 67 88 C 77 87 80 80 72 77 C 63 73 62 71 63 43 C 65 22 63 20 62 16 C 56 5 45 2 28 8 M 46 56 C 50 61 47 73 40 77 C 35 80 26 77 23 71 C 20 61 40 46 46 56 z" fill="black"/><!-- width=88 height=100 -->
<path id="gl11284" d="M 14 13 C 6 22 6 22 9 27 C 12 30 12 32 13 58 C 13 90 14 91 23 96 C 33 101 52 97 52 90 C 52 87 52 87 44 87 C 30 86 29 83 29 52 C 29 26 29 26 42 27 C 50 27 52 27 54 24 C 59 19 55 14 43 16 C 34 16 32 14 29 8 C 27 3 23 4 14 13 z" fill="black"/><!-- width=65 height=110 -->
<path id="gl11030" d="M 12 7 C 4 13 9 24 19 24 C 27 24 29 21 29 14 C 29 4 19 0 12 7 M 17 55 C 8 59 8 63 11 72 C 12 77 13 83 13 99 C 13 120 12 124 7 130 C 3 135 7 136 21 137 C 36 137 39 136 36 130 C 29 121 29 124 29 89 C 29 78 29 67 31 57 C 29 55 28 55 27 54 C 23 52 24 52 17 55 z" fill="black"/><!-- width=48 height=147 -->
<path id="gl11033" d="M 69 4 C 63 6 62 8 63 14 C 65 19 64 21 60 34 C 57 42 54 49 54 51 C 51 56 46 54 43 47 C 42 44 39 39 38 34 C 34 26 33 18 36 12 C 37 7 34 6 21 6 C 12 6 8 6 7 7 C 4 9 4 9 11 16 C 16 21 29 49 34 68 C 42 90 48 92 54 73 C 60 57 78 21 83 17 C 87 12 89 7 87 6 C 84 4 74 4 69 4 z" fill="black"/><!-- width=98 height=95 -->
<path id="gl11021" d="M 37 6 C 31 8 21 13 18 17 C 3 32 3 67 18 80 C 31 94 58 94 70 80 C 78 74 72 68 63 73 C 45 83 24 70 21 48 C 20 43 21 42 24 40 C 25 39 26 37 26 37 C 34 37 41 37 47 37 C 70 39 73 37 75 31 C 80 17 57 2 37 6 M 50 14 C 53 17 57 21 56 25 C 54 30 35 32 30 29 C 23 21 39 10 50 14 z" fill="black"/><!-- width=86 height=102 -->
<path id="gl11297" d="M 15 8 C 9 12 7 15 11 22 C 13 26 13 30 13 72 C 14 119 13 126 8 133 C 3 139 6 140 23 140 C 30 140 37 140 39 140 C 44 139 42 135 39 133 C 33 130 31 126 30 112 C 29 103 30 100 31 96 C 34 91 34 91 44 91 C 79 92 103 55 88 24 C 80 8 61 2 45 8 C 37 12 34 12 31 8 C 26 4 22 4 15 8 M 58 20 C 69 25 74 35 73 51 C 72 73 56 88 40 80 C 31 77 31 74 31 50 C 31 42 31 34 31 26 C 33 25 34 24 35 23 C 40 18 50 17 58 20 z" fill="black"/><!-- width=103 height=151 -->
<path id="gl11293" d="M 41 3 C 2 11 -4 68 30 85 C 39 89 55 89 64 86 C 96 73 99 24 68 8 C 64 6 50 2 48 3 C 47 3 45 3 41 3 M 58 17 C 71 26 75 51 67 66 C 53 94 22 75 25 40 C 26 17 44 6 58 17 z" fill="black"/><!-- width=101 height=99 -->
<path id="gl11295" d="M 26 7 C 5 11 3 38 24 50 C 35 57 43 64 43 68 C 43 85 25 86 16 71 C 8 58 0 67 7 81 C 12 94 44 94 54 81 C 63 67 58 52 39 40 C 29 34 25 30 25 25 C 25 12 35 10 45 20 C 53 26 56 28 58 21 C 59 17 56 10 50 7 C 48 5 33 5 26 7 z" fill="black"/><!-- width=70 height=101 -->
<path id="gl11295" d="M 26 7 C 5 11 3 38 24 50 C 35 57 43 64 43 68 C 43 85 25 86 16 71 C 8 58 0 67 7 81 C 12 94 44 94 54 81 C 63 67 58 52 39 40 C 29 34 25 30 25 25 C 25 12 35 10 45 20 C 53 26 56 28 58 21 C 59 17 56 10 50 7 C 48 5 33 5 26 7 z" fill="black"/><!-- width=70 height=101 -->
<path id="gl11030" d="M 12 7 C 4 13 9 24 19 24 C 27 24 29 21 29 14 C 29 4 19 0 12 7 M 17 55 C 8 59 8 63 11 72 C 12 77 13 83 13 99 C 13 120 12 124 7 130 C 3 135 7 136 21 137 C 36 137 39 136 36 130 C 29 121 29 124 29 89 C 29 78 29 67 31 57 C 29 55 28 55 27 54 C 23 52 24 52 17 55 z" fill="black"/><!-- width=48 height=147 -->
<path id="gl11264" d="M 12 7 C 4 11 4 12 7 22 C 11 29 11 31 11 86 C 11 133 11 142 12 143 C 14 145 36 150 42 150 C 77 150 99 117 86 86 C 79 69 57 59 42 66 C 27 71 26 68 27 34 C 27 13 27 9 26 7 C 23 3 18 3 12 7 M 53 78 C 64 83 71 96 69 112 C 68 139 41 150 29 129 C 26 123 26 87 28 81 C 32 73 41 72 53 78 z" fill="black"/><!-- width=100 height=160 -->
<path id="gl11030" d="M 12 7 C 4 13 9 24 19 24 C 27 24 29 21 29 14 C 29 4 19 0 12 7 M 17 55 C 8 59 8 63 11 72 C 12 77 13 83 13 99 C 13 120 12 124 7 130 C 3 135 7 136 21 137 C 36 137 39 136 36 130 C 29 121 29 124 29 89 C 29 78 29 67 31 57 C 29 55 28 55 27 54 C 23 52 24 52 17 55 z" fill="black"/><!-- width=48 height=147 -->
<path id="gl13845" d="M 18 6 C 8 9 7 14 12 22 C 13 27 13 29 13 79 C 13 133 13 133 8 139 C 2 144 6 146 22 146 C 40 146 43 145 35 137 C 34 135 33 134 32 132 C 32 112 32 91 32 70 C 32 16 30 8 29 6 C 27 3 23 3 18 6 z" fill="black"/><!-- width=49 height=158 -->
<path id="gl11030" d="M 12 7 C 4 13 9 24 19 24 C 27 24 29 21 29 14 C 29 4 19 0 12 7 M 17 55 C 8 59 8 63 11 72 C 12 77 13 83 13 99 C 13 120 12 124 7 130 C 3 135 7 136 21 137 C 36 137 39 136 36 130 C 29 121 29 124 29 89 C 29 78 29 67 31 57 C 29 55 28 55 27 54 C 23 52 24 52 17 55 z" fill="black"/><!-- width=48 height=147 -->
<path id="gl11284" d="M 14 13 C 6 22 6 22 9 27 C 12 30 12 32 13 58 C 13 90 14 91 23 96 C 33 101 52 97 52 90 C 52 87 52 87 44 87 C 30 86 29 83 29 52 C 29 26 29 26 42 27 C 50 27 52 27 54 24 C 59 19 55 14 43 16 C 34 16 32 14 29 8 C 27 3 23 4 14 13 z" fill="black"/><!-- width=65 height=110 -->
<path id="gl11282" d="M 19 4 C 7 9 9 26 21 26 C 28 26 34 21 34 17 C 34 8 25 2 19 4 M 17 58 C 13 60 10 62 10 64 C 9 68 9 69 13 76 C 14 80 14 86 14 99 C 14 121 14 128 9 131 C 2 139 4 141 23 141 C 37 141 42 140 40 135 C 39 134 37 132 36 132 C 32 132 31 124 31 91 C 31 68 31 58 30 57 C 29 54 24 54 17 58 z" fill="black"/><!-- width=51 height=152 -->
<path id="gl11021" d="M 37 6 C 31 8 21 13 18 17 C 3 32 3 67 18 80 C 31 94 58 94 70 80 C 78 74 72 68 63 73 C 45 83 24 70 21 48 C 20 43 21 42 24 40 C 25 39 26 37 26 37 C 34 37 41 37 47 37 C 70 39 73 37 75 31 C 80 17 57 2 37 6 M 50 14 C 53 17 57 21 56 25 C 54 30 35 32 30 29 C 23 21 39 10 50 14 z" fill="black"/><!-- width=86 height=102 -->
<path id="gl11295" d="M 26 7 C 5 11 3 38 24 50 C 35 57 43 64 43 68 C 43 85 25 86 16 71 C 8 58 0 67 7 81 C 12 94 44 94 54 81 C 63 67 58 52 39 40 C 29 34 25 30 25 25 C 25 12 35 10 45 20 C 53 26 56 28 58 21 C 59 17 56 10 50 7 C 48 5 33 5 26 7 z" fill="black"/><!-- width=70 height=101 -->
<path id="gl10786" d="M 9 8 C 2 16 9 31 19 28 C 32 26 29 6 17 6 C 14 6 12 6 9 8 M 9 66 C 3 73 7 88 16 88 C 19 88 26 84 27 81 C 32 69 18 58 9 66 z" fill="black"/><!-- width=38 height=99 -->
<path id="gl12560" d="M 69 6 C 65 8 62 12 56 30 C 16 133 18 131 10 132 C 4 134 3 138 7 140 C 9 143 10 143 24 143 C 44 142 46 140 39 133 C 33 128 34 125 39 108 C 45 90 45 90 67 90 C 86 89 86 89 91 106 C 97 125 98 127 92 133 C 85 142 86 142 109 143 C 131 143 138 142 138 138 C 138 136 137 136 132 133 C 128 132 124 131 122 130 C 120 127 115 116 115 114 C 115 113 112 106 109 98 C 106 90 102 80 101 75 C 100 69 96 61 93 54 C 91 48 87 37 86 30 C 80 10 79 8 75 7 C 73 6 72 6 72 6 C 72 6 71 6 69 6 M 69 42 C 73 45 81 72 80 74 C 79 78 73 80 65 79 C 56 78 53 75 53 71 C 53 67 60 46 62 42 C 63 39 68 39 69 42 z" fill="black"/><!-- width=147 height=154 -->
<path id="gl13589" d="M 16 7 C 7 12 7 13 10 21 C 12 25 12 28 12 50 C 12 57 12 66 12 74 C 11 76 10 77 8 79 C 3 87 3 89 21 87 C 38 87 40 86 33 79 C 32 77 31 76 30 75 C 30 67 30 60 30 52 C 28 27 30 23 37 18 C 42 16 54 16 59 20 C 65 25 66 27 66 52 C 66 59 65 66 65 74 C 64 75 62 77 62 79 C 56 87 57 89 75 87 C 92 87 94 86 87 79 C 86 77 85 76 84 75 C 84 66 84 57 84 49 C 82 23 82 22 80 16 C 74 6 56 2 43 8 C 36 12 33 12 31 8 C 26 3 23 3 16 7 z" fill="black"/><!-- width=101 height=100 -->
<path id="gl11037" d="M 10 7 C 6 8 6 12 8 14 C 19 24 23 27 30 36 C 38 48 38 51 30 62 C 21 72 17 76 12 79 C 8 81 7 82 7 85 C 7 90 9 90 21 90 C 35 88 35 88 34 81 C 34 75 35 69 40 64 C 47 55 59 70 53 82 C 51 86 51 86 53 87 C 55 88 82 90 86 88 C 90 87 88 83 83 80 C 77 76 71 70 64 59 C 55 48 54 46 55 41 C 57 35 74 18 79 17 C 81 17 83 14 85 13 C 87 8 83 7 71 7 C 58 7 57 7 57 17 C 57 31 47 37 41 27 C 38 23 37 21 38 15 C 38 10 38 8 37 8 C 35 7 13 7 10 7 z" fill="black"/><!-- width=98 height=99 -->
<path id="gl11282" d="M 19 4 C 7 9 9 26 21 26 C 28 26 34 21 34 17 C 34 8 25 2 19 4 M 17 58 C 13 60 10 62 10 64 C 9 68 9 69 13 76 C 14 80 14 86 14 99 C 14 121 14 128 9 131 C 2 139 4 141 23 141 C 37 141 42 140 40 135 C 39 134 37 132 36 132 C 32 132 31 124 31 91 C 31 68 31 58 30 57 C 29 54 24 54 17 58 z" fill="black"/><!-- width=51 height=152 -->
<path id="gl11283" d="M 39 7 C 19 12 8 28 8 51 C 8 76 23 91 48 91 C 73 91 86 79 91 56 C 96 24 70 0 39 7 M 56 17 C 80 29 76 82 51 82 C 37 82 28 69 26 51 C 24 26 40 9 56 17 z" fill="black"/><!-- width=102 height=102 -->
<path id="gl11031" d="M 13 7 C 5 8 3 11 7 20 C 8 22 10 29 10 45 C 10 69 11 76 15 83 C 22 90 37 93 49 87 C 56 83 56 83 61 87 C 66 90 70 90 79 88 C 90 85 92 82 85 76 C 79 73 78 68 79 36 C 79 5 79 6 69 6 C 56 7 54 10 59 20 C 61 25 61 26 61 45 C 61 74 59 78 45 78 C 27 78 26 75 26 37 C 26 21 26 8 25 8 C 22 6 17 6 13 7 z" fill="black"/><!-- width=100 height=100 -->
<path id="gl11295" d="M 26 7 C 5 11 3 38 24 50 C 35 57 43 64 43 68 C 43 85 25 86 16 71 C 8 58 0 67 7 81 C 12 94 44 94 54 81 C 63 67 58 52 39 40 C 29 34 25 30 25 25 C 25 12 35 10 45 20 C 53 26 56 28 58 21 C 59 17 56 10 50 7 C 48 5 33 5 26 7 z" fill="black"/><!-- width=70 height=101 -->
<path id="gl11264" d="M 12 7 C 4 11 4 12 7 22 C 11 29 11 31 11 86 C 11 133 11 142 12 143 C 14 145 36 150 42 150 C 77 150 99 117 86 86 C 79 69 57 59 42 66 C 27 71 26 68 27 34 C 27 13 27 9 26 7 C 23 3 18 3 12 7 M 53 78 C 64 83 71 96 69 112 C 68 139 41 150 29 129 C 26 123 26 87 28 81 C 32 73 41 72 53 78 z" fill="black"/><!-- width=100 height=160 -->
<path id="gl11021" d="M 37 6 C 31 8 21 13 18 17 C 3 32 3 67 18 80 C 31 94 58 94 70 80 C 78 74 72 68 63 73 C 45 83 24 70 21 48 C 20 43 21 42 24 40 C 25 39 26 37 26 37 C 34 37 41 37 47 37 C 70 39 73 37 75 31 C 80 17 57 2 37 6 M 50 14 C 53 17 57 21 56 25 C 54 30 35 32 30 29 C 23 21 39 10 50 14 z" fill="black"/><!-- width=86 height=102 -->
<path id="gl12302" d="M 19 7 C 9 10 8 15 13 23 C 15 29 16 58 15 107 C 15 117 14 126 14 136 C 13 137 11 140 10 141 C 3 148 5 149 21 150 C 39 152 44 148 38 141 C 33 136 33 130 33 109 C 33 82 34 79 49 79 C 64 79 68 83 68 110 C 69 130 68 136 63 142 C 57 148 62 150 77 150 C 94 150 100 147 93 142 C 87 138 86 135 86 113 C 86 101 86 89 85 86 C 82 68 65 61 46 69 C 38 73 37 73 34 70 C 32 68 32 68 33 39 C 33 15 33 9 32 8 C 29 4 25 4 19 7 z" fill="black"/><!-- width=106 height=160 -->
<path id="gl11011" d="M 37 6 C 17 9 4 21 7 29 C 8 37 18 34 24 24 C 29 14 33 13 42 17 C 48 21 51 33 47 41 C 44 46 41 48 29 51 C 12 56 7 59 7 71 C 7 87 22 96 37 87 C 44 83 46 83 56 87 C 63 92 68 92 76 88 C 81 86 79 82 73 78 C 63 74 63 73 64 47 C 64 22 64 17 59 12 C 54 6 46 3 37 6 M 44 56 C 48 58 48 58 47 66 C 47 78 36 84 27 76 C 17 67 34 48 44 56 z" fill="black"/><!-- width=89 height=102 -->
<path id="gl771" d="M 11 4 C 4 7 4 9 9 14 C 13 18 17 23 19 29 C 25 44 39 76 42 82 C 45 98 53 97 59 79 C 60 74 64 65 67 59 C 70 53 75 43 79 35 C 82 27 85 22 90 17 C 98 7 96 3 77 4 C 69 4 66 7 69 13 C 71 21 71 22 59 55 C 55 65 49 60 43 42 C 34 22 34 21 37 14 C 39 9 39 8 37 7 C 35 6 16 3 11 4 z" fill="black"/><!-- width=106 height=103 -->
<path id="gl11043" d="M 14 6 C 4 11 7 27 18 27 C 31 27 33 8 21 6 C 18 6 16 6 14 6 M 14 59 C 8 63 7 65 9 73 C 13 84 13 122 8 131 C 3 140 4 140 21 140 C 34 140 38 139 36 135 C 29 126 28 124 29 90 C 29 58 29 57 23 57 C 21 57 17 57 14 59 z" fill="black"/><!-- width=47 height=151 -->
<path id="gl11293" d="M 41 3 C 2 11 -4 68 30 85 C 39 89 55 89 64 86 C 96 73 99 24 68 8 C 64 6 50 2 48 3 C 47 3 45 3 41 3 M 58 17 C 71 26 75 51 67 66 C 53 94 22 75 25 40 C 26 17 44 6 58 17 z" fill="black"/><!-- width=101 height=99 -->
<path id="gl11044" d="M 17 7 C 8 12 7 14 11 23 C 16 33 14 74 8 79 C 6 81 6 86 8 88 C 21 88 38 88 39 86 C 42 85 42 84 36 79 C 34 78 32 75 31 74 C 31 67 31 58 31 50 C 31 19 32 17 45 22 C 58 26 67 16 58 8 C 54 4 48 4 42 8 C 37 12 34 12 29 8 C 26 4 22 4 17 7 z" fill="black"/><!-- width=72 height=99 -->
<path id="gl11534" d="M 24 7 C 13 12 8 21 12 32 C 13 40 17 44 30 51 C 44 60 46 67 43 74 C 38 86 26 83 15 67 C 10 59 3 65 7 77 C 11 95 48 95 58 77 C 64 63 58 50 40 39 C 26 31 22 25 29 17 C 34 11 39 11 48 19 C 55 26 59 26 59 19 C 60 8 55 3 40 3 C 32 3 29 5 24 7 z" fill="black"/><!-- width=70 height=101 -->
<path id="gl10786" d="M 9 8 C 2 16 9 31 19 28 C 32 26 29 6 17 6 C 14 6 12 6 9 8 M 9 66 C 3 73 7 88 16 88 C 19 88 26 84 27 81 C 32 69 18 58 9 66 z" fill="black"/><!-- width=38 height=99 -->
<path id="gl27910" d="M 6507 1 C 6505 1 6216 2 5864 2 C 5512 2 5212 3 5198 3 C 5127 4 5008 4 5007 4 C 5006 3 5005 3 5005 3 C 5004 6 4951 6 4950 4 C 4948 2 4940 2 4939 4 C 4938 6 4918 4 4885 3 C 4876 2 4779 2 4669 2 C 4388 2 4348 2 4344 4 C 4340 6 4338 6 4335 4 C 4334 4 4329 4 4324 4 C 4320 4 4316 6 4315 6 C 4314 4 4267 4 4177 6 C 4154 6 4146 6 4143 4 C 4141 3 4138 2 4131 4 C 4125 4 3880 6 3159 6 C 2629 6 2007 7 1779 7 C 1550 8 1353 8 1341 8 C 1327 7 1321 8 1320 8 C 1318 10 1284 10 1282 8 C 1281 7 1267 7 1266 8 C 1264 10 1231 10 1230 9 C 1228 8 1225 8 1220 9 C 1215 9 1208 9 1195 8 C 1180 7 1167 7 1126 7 C 1099 7 1074 8 1070 8 C 949 7 566 8 564 9 C 560 12 505 12 501 9 C 498 7 481 7 477 9 C 474 12 457 12 453 9 C 450 7 446 7 444 9 C 441 12 428 12 424 9 C 422 8 422 8 420 9 C 416 12 406 10 404 8 C 403 7 393 7 392 8 C 391 10 381 10 380 8 C 379 7 374 7 373 9 C 370 10 349 10 346 9 C 345 7 331 7 330 8 C 328 10 324 10 322 8 C 321 7 312 7 310 8 C 310 9 258 9 159 10 C 76 10 8 10 6 10 C 1 12 0 18 3 21 C 6 22 109 22 748 22 C 1156 22 1614 21 1764 21 C 2619 22 2926 21 2929 20 C 2930 18 2936 18 2937 20 C 2938 21 2990 21 2991 20 C 2992 18 3325 18 3326 20 C 3327 21 3340 21 3342 20 C 3343 18 3453 18 3454 20 C 3456 21 3760 21 3770 19 C 3775 19 3782 19 3793 19 C 3800 20 3811 20 3816 19 C 3831 18 4322 18 4324 20 C 4327 21 4328 21 4330 20 C 4332 19 4336 18 4350 19 C 4370 19 4369 19 4392 18 C 4410 18 4556 16 5595 16 C 6458 16 6714 16 6722 14 C 6727 14 6733 13 6738 14 C 6748 15 6748 15 6764 14 C 6772 14 6812 13 6852 13 C 6933 13 6932 14 6930 7 C 6927 1 6943 1 6718 1 C 6604 1 6510 1 6507 1 z" fill="black"/><!-- width=6937 height=30 -->
<path id="gl27911" d="M 6523 2 C 6501 2 6485 3 6484 4 C 6483 6 6478 6 6476 4 C 6475 2 6259 2 6258 4 C 6257 4 6254 4 6247 4 C 6229 3 6222 3 6219 4 C 6218 4 5798 6 5167 6 C 3613 7 3285 7 3278 8 C 3270 10 3080 10 3079 9 C 3078 7 3069 7 3068 9 C 3067 10 3062 10 3061 8 C 3060 8 3060 8 3058 8 C 3057 10 3046 10 3045 9 C 3044 7 3036 7 3034 9 C 3033 10 2995 10 2994 8 C 2992 7 2973 8 2955 9 C 2949 9 2946 9 2944 8 C 2942 7 2913 7 2782 7 C 2523 7 2498 8 2488 9 C 2482 9 2480 9 2478 9 C 2477 7 2471 7 2468 9 C 2464 12 2424 10 2422 8 C 2421 7 2397 7 2395 9 C 2393 12 2213 10 2209 8 C 2206 6 2201 6 2199 8 C 2197 9 1596 10 265 10 C 25 10 10 12 8 13 C 7 14 4 16 3 16 C 0 19 2 21 7 22 C 9 22 13 24 13 25 C 15 26 108 26 110 25 C 111 22 117 22 118 24 C 120 26 130 26 130 24 C 130 22 146 22 147 24 C 148 26 154 26 154 24 C 154 22 171 22 172 25 C 176 27 785 26 790 24 C 792 22 792 22 795 24 C 798 26 1002 26 1005 24 C 1006 22 1011 22 1012 24 C 1013 26 1018 26 1019 24 C 1020 22 1044 22 1046 24 C 1047 26 1080 26 1082 24 C 1083 22 1102 22 1103 25 C 1104 25 1106 25 1106 25 C 1107 22 1116 22 1118 25 C 1119 25 1120 25 1120 25 C 1121 22 1458 22 1459 24 C 1460 26 1465 26 1466 24 C 1467 22 1477 22 1478 25 C 1479 25 1479 25 1480 25 C 1482 22 1568 22 1569 24 C 1570 26 1676 26 1677 25 C 1678 22 1689 21 1693 24 C 1697 26 1704 26 1705 24 C 1706 22 1731 22 1733 24 C 1734 26 1877 26 1878 24 C 1879 22 2202 22 2203 25 C 2205 25 2206 25 2206 25 C 2207 22 2418 22 2420 24 C 2421 26 2452 26 2456 24 C 2459 22 2465 22 2468 25 C 2469 26 2474 26 2475 25 C 2475 24 2483 24 2494 24 C 2524 25 2548 25 2570 24 C 2592 21 2619 22 2621 24 C 2622 26 2637 26 2638 24 C 2639 22 2817 22 3518 22 C 4629 22 4816 21 4819 19 C 4822 18 4823 18 4826 19 C 4831 21 4880 21 4882 19 C 4883 18 5200 18 5201 19 C 5202 21 5207 21 5208 19 C 5209 18 5238 18 5239 19 C 5241 21 5255 21 5256 19 C 5257 18 5267 18 5268 19 C 5269 21 5307 21 5308 19 C 5309 19 5312 19 5316 19 C 5339 21 5738 22 5740 19 C 5741 18 6093 18 6095 20 C 6096 20 6097 20 6097 20 C 6098 18 6108 18 6109 19 C 6110 21 6147 21 6149 19 C 6150 18 6209 18 6210 19 C 6211 21 6242 21 6245 19 C 6247 18 6248 18 6254 19 C 6260 21 6301 20 6319 19 C 6324 19 6463 18 6629 18 C 6795 18 6930 18 6932 18 C 6933 18 6934 15 6935 13 C 6936 12 6938 10 6938 9 C 6938 8 6936 8 6935 7 C 6933 6 6928 4 6904 4 C 6884 4 6876 4 6875 3 C 6873 2 6873 2 6873 3 C 6872 6 6742 6 6740 4 C 6738 3 6601 2 6523 2 z" fill="black"/><!-- width=6946 height=33 -->
<path id="gl27912" d="M 6431 2 C 6377 2 6346 3 6344 4 C 6343 6 6338 6 6337 4 C 6336 2 6331 2 6330 4 C 6328 7 6314 7 6311 4 C 6306 2 6298 2 6296 4 C 6295 6 6281 6 6280 4 C 6278 2 6264 2 6263 4 C 6262 4 5830 6 5081 6 C 3795 7 3878 7 3875 8 C 3874 10 3870 10 3867 8 C 3863 6 3647 7 3645 8 C 3643 10 3639 10 3637 8 C 3635 7 3287 7 3284 9 C 3283 10 2952 10 2950 9 C 2949 7 2944 7 2943 9 C 2942 10 2937 10 2936 8 C 2932 6 2524 7 2519 9 C 2516 12 2510 10 2508 8 C 2508 8 2507 8 2506 9 C 2504 10 2487 10 2484 9 C 2483 7 2469 7 2468 9 C 2465 10 2221 10 2220 9 C 2219 7 2214 7 2213 9 C 2212 9 1919 10 1263 10 C 332 10 236 12 234 14 C 232 15 223 15 222 13 C 219 12 25 12 22 13 C 22 14 18 14 13 14 C 0 14 -2 19 7 24 C 12 26 14 26 63 26 C 94 26 115 25 116 24 C 117 22 122 22 123 25 C 127 27 823 27 828 24 C 832 21 839 21 843 24 C 846 26 900 27 905 24 C 907 22 907 22 911 24 C 915 26 1026 27 1029 25 C 1030 22 1035 22 1036 24 C 1037 26 1090 26 1091 24 C 1092 22 1097 22 1098 24 C 1100 26 1114 26 1115 24 C 1116 22 1140 22 1142 24 C 1143 26 1148 26 1149 24 C 1150 22 1544 22 1545 24 C 1546 26 1575 26 1576 24 C 1578 22 1592 22 1593 24 C 1596 26 1665 26 1668 25 C 1669 22 1678 22 1680 25 C 1682 26 1886 26 1889 24 C 1890 22 1904 22 1905 24 C 1907 26 1926 26 1927 24 C 1928 22 2433 22 2434 24 C 2435 26 2488 26 2489 24 C 2490 22 2702 22 3534 22 C 4667 22 4855 21 4858 20 C 4859 18 4868 18 4870 19 C 4871 21 4880 21 4882 19 C 4883 18 4902 18 4903 19 C 4904 21 4914 21 4915 19 C 4916 18 5253 18 5254 20 C 5255 20 5255 20 5256 20 C 5257 18 5277 18 5278 20 C 5280 22 5734 21 5737 20 C 5738 18 6069 18 6071 19 C 6072 21 6081 21 6083 19 C 6084 18 6137 18 6138 19 C 6139 21 6182 21 6183 19 C 6185 18 6223 18 6224 19 C 6225 21 6230 21 6231 19 C 6233 18 6237 18 6239 19 C 6240 21 6307 21 6308 19 C 6311 18 6328 18 6330 19 C 6331 20 6331 20 6332 19 C 6334 19 6413 18 6633 18 C 6923 18 6932 18 6933 15 C 6935 13 6935 8 6933 7 C 6932 6 6918 4 6878 4 C 6843 4 6822 4 6822 4 C 6821 2 6816 2 6815 4 C 6814 6 6798 6 6797 4 C 6796 2 6764 2 6762 4 C 6761 6 6752 6 6750 3 C 6748 2 6625 2 6623 4 C 6622 6 6616 6 6615 4 C 6613 2 6555 2 6431 2 z" fill="black"/><!-- width=6941 height=33 -->
<path id="gl27913" d="M 6031 2 C 6027 3 6024 3 6022 4 C 6021 6 6002 6 6001 4 C 6000 2 5932 2 5931 4 C 5929 6 5912 6 5910 4 C 5908 3 5907 3 5907 4 C 5906 6 5896 6 5895 4 C 5894 2 5774 2 5773 4 C 5772 6 5743 4 5742 3 C 5740 2 5689 3 5688 4 C 5686 6 5517 6 5516 4 C 5515 2 5505 2 5504 3 C 5503 4 5149 6 4584 6 C 4078 6 3579 7 3474 7 C 3369 7 3278 8 3271 7 C 3264 7 3259 8 3258 8 C 3256 10 3199 10 3198 8 C 3196 7 3187 7 3186 8 C 3184 10 3156 10 3154 8 C 3153 8 3152 8 3152 8 C 3151 10 3112 10 3111 8 C 3110 7 3105 7 3104 8 C 3103 10 3088 10 3087 8 C 3086 7 3067 7 2731 7 C 2458 7 2434 7 2431 9 C 2426 12 2420 12 2416 9 C 2413 7 2396 7 2392 9 C 2390 12 2380 12 2378 9 C 2376 7 2362 7 2360 8 C 2359 10 2245 10 2242 8 C 2240 7 2199 7 2197 8 C 2196 10 2186 10 2185 8 C 2184 8 2184 8 2182 8 C 2181 9 2178 9 2174 9 C 2170 9 2053 9 1914 9 C 1742 9 1658 9 1657 8 C 1656 7 1646 7 1645 8 C 1644 10 1634 10 1633 8 C 1632 7 1627 7 1626 8 C 1623 10 1549 10 1546 9 C 1545 7 1521 7 1520 8 C 1519 10 1509 10 1508 8 C 1507 7 1497 7 1496 8 C 1494 10 686 12 684 9 C 680 7 676 7 675 9 C 674 10 604 10 340 10 C 230 10 120 10 8 12 C 7 12 6 13 4 14 C 1 19 1 20 6 22 C 10 26 38 27 39 25 C 40 22 174 22 178 25 C 182 27 214 27 217 25 C 218 22 223 22 224 24 C 226 26 236 27 240 25 C 243 22 247 22 248 25 C 249 26 307 26 308 25 C 309 22 314 22 315 25 C 318 27 757 26 760 24 C 764 21 789 21 794 24 C 799 26 804 26 808 24 C 813 21 836 21 838 24 C 840 26 849 26 852 24 C 854 21 864 21 866 24 C 870 26 877 26 880 24 C 884 21 903 21 906 24 C 907 26 926 26 927 24 C 930 22 1047 22 1050 25 C 1051 26 1056 26 1057 25 C 1058 22 1758 22 1760 24 C 1761 26 1776 26 1777 25 C 1778 24 2430 22 3849 21 C 4478 21 4612 20 4614 19 C 4616 18 4656 16 4658 19 C 4660 21 4699 21 4700 20 C 4701 18 4711 16 4716 19 C 4719 21 4723 21 4724 19 C 4725 18 4740 18 4741 19 C 4742 21 4752 21 4753 19 C 4754 18 4773 18 4774 19 C 4776 21 4780 21 4782 19 C 4784 18 5402 18 5403 19 C 5404 21 5414 21 5415 19 C 5418 18 5478 18 5480 19 C 5481 20 5481 20 5482 19 C 5484 18 5522 18 5523 19 C 5524 21 5582 21 5583 19 C 5584 18 5656 18 5658 19 C 5658 20 5659 20 5660 19 C 5661 18 5788 18 6200 18 C 6892 16 6906 16 6908 15 C 6909 13 6914 13 6915 15 C 6916 16 6922 16 6924 15 C 6924 14 6925 14 6926 14 C 6928 14 6930 13 6932 12 C 6932 10 6933 9 6934 9 C 6933 8 6932 8 6931 7 C 6930 6 6927 4 6926 4 C 6925 4 6922 4 6922 3 C 6920 2 6092 2 6090 4 C 6088 6 6074 6 6073 4 C 6072 3 6042 2 6031 2 z" fill="black"/><!-- width=6942 height=34 -->
<path id="gl27905" d="M 691 3 C 691 3 538 4 350 4 C 164 4 10 6 8 6 C 1 8 1 19 7 21 C 13 24 712 24 723 21 C 724 21 727 19 728 18 C 730 13 728 7 723 6 C 721 4 692 2 691 3 z" fill="black"/><!-- width=739 height=33 -->
<path id="gl27914" d="M 6489 4 C 6480 6 6213 6 5896 6 C 5236 7 5169 7 5167 8 C 5166 10 5136 10 5135 9 C 5133 7 5059 7 5057 8 C 5056 10 5051 10 5050 8 C 5046 6 4022 7 4000 9 C 3995 9 3993 9 3992 9 C 3990 7 3896 7 3894 9 C 3892 10 3460 10 3460 9 C 3458 7 3434 7 3433 9 C 3432 10 3422 10 3421 9 C 3420 7 3410 7 3409 9 C 3408 10 2756 10 2753 9 C 2752 7 2738 7 2737 9 C 2735 10 2721 10 2720 9 C 2719 7 2704 7 2703 9 C 2702 10 2692 10 2691 9 C 2690 7 2686 7 2683 9 C 2678 12 2650 12 2648 9 C 2647 7 2632 7 2631 9 C 2630 10 2606 10 2604 9 C 2603 7 2590 7 2586 9 C 2583 10 2558 10 2408 10 C 2310 10 2230 10 2227 10 C 2226 10 2152 10 2063 10 C 1895 10 1459 10 921 10 C 450 12 265 12 263 13 C 261 14 226 14 135 14 C 0 14 0 14 4 21 C 4 22 6 24 7 25 C 8 27 9 27 496 27 C 1046 26 1170 26 1173 24 C 1174 22 1193 22 1194 24 C 1196 26 1205 26 1207 24 C 1208 22 1213 22 1214 24 C 1215 26 1220 26 1221 24 C 1222 22 1246 22 1247 25 C 1250 27 1372 27 1375 25 C 1376 22 1381 22 1382 25 C 1384 26 1978 26 1980 25 C 1981 22 2048 22 2050 24 C 2051 26 2056 26 2057 24 C 2058 22 2077 22 2078 24 C 2080 26 2206 26 2206 24 C 2206 22 2215 22 2219 25 C 2223 26 2573 26 2576 24 C 2577 22 2582 22 2583 24 C 2584 26 2666 26 2668 24 C 2671 21 2678 21 2683 24 C 2687 26 2708 26 2710 24 C 2713 22 2734 22 2737 24 C 2737 25 2738 25 2740 24 C 2744 22 2768 22 2770 25 C 2771 25 2773 25 2773 24 C 2775 22 2789 21 2793 24 C 2797 26 2800 26 2801 24 C 2803 22 2807 22 2809 25 C 2810 25 2810 25 2811 25 C 2812 22 2823 22 2823 24 C 2823 26 2834 26 2835 24 C 2836 22 2846 22 2847 24 C 2848 26 2863 26 2864 25 C 2866 22 2946 22 2948 24 C 2949 26 2954 26 2955 24 C 2956 22 3676 22 3678 24 C 3679 26 3699 26 3700 24 C 3701 22 3711 22 3712 24 C 3713 25 3713 25 3714 24 C 3715 24 3869 22 4277 22 C 4967 21 4931 21 4933 20 C 4934 18 4939 18 4943 20 C 4944 21 4945 21 4946 20 C 4950 18 4961 18 4961 19 C 4961 21 5005 21 5006 19 C 5008 18 5022 18 5023 20 C 5026 22 5129 22 5131 20 C 5133 18 5142 18 5143 20 C 5143 21 6606 22 6663 20 C 6681 20 6750 19 6815 19 C 6893 19 6935 18 6938 16 C 6940 15 6940 12 6939 9 C 6935 4 6936 4 6724 4 C 6609 6 6513 4 6509 4 C 6505 4 6496 4 6489 4 z" fill="black"/><!-- width=6946 height=33 -->
<path id="gl27915" d="M 6374 4 C 6369 4 6356 6 6344 6 C 6272 4 5348 7 5220 8 C 5200 8 5168 8 5146 8 C 5120 7 5108 8 5107 9 C 5106 10 5032 9 5011 8 C 4984 6 4254 7 4194 9 C 4179 9 4173 9 4172 9 C 4171 7 4166 7 4165 9 C 4164 10 4153 10 4152 9 C 4150 7 4142 7 4141 8 C 4140 9 4154 9 3156 10 C 2144 12 1377 12 1372 13 C 1371 13 1363 13 1353 12 C 1341 12 1335 12 1334 13 C 1333 15 1292 14 1266 13 C 1258 12 1254 13 1252 13 C 1250 14 1246 14 1240 14 C 1220 13 1215 12 1184 12 C 1164 12 1148 13 1144 14 C 1138 14 1136 14 1131 13 C 1122 10 610 12 603 14 C 598 16 597 16 590 14 C 579 12 540 12 535 14 C 531 15 530 15 525 14 C 520 13 508 13 476 13 C 393 14 364 14 334 13 C 313 12 303 13 302 13 C 301 14 258 14 154 14 C 75 14 8 15 6 15 C 1 16 0 25 4 27 C 7 27 88 28 276 27 C 480 27 544 27 547 28 C 552 31 577 31 582 28 C 585 26 602 26 613 27 C 616 28 620 28 622 27 C 626 27 628 27 633 28 C 638 31 639 31 650 28 C 669 26 686 26 696 28 C 705 31 729 31 736 28 C 739 27 856 27 1116 27 C 1323 27 1657 27 1857 27 C 2058 27 2344 27 2494 27 C 2803 27 2977 26 3024 25 C 3069 22 3348 22 3349 25 C 3350 26 3356 26 3428 26 C 3446 26 3540 26 3638 26 C 3748 26 3826 25 3848 25 C 3871 24 3944 24 4102 24 C 4374 25 4370 25 4375 22 C 4378 22 4381 22 4387 24 C 4393 26 4394 26 4400 25 C 4404 24 4408 24 4411 22 C 4453 22 4875 21 5320 21 C 6195 21 6548 21 6555 18 C 6560 16 6560 16 6564 19 C 6568 21 6705 20 6732 19 C 6738 18 6744 18 6745 18 C 6745 18 6786 19 6836 18 C 6933 18 6932 18 6932 12 C 6932 4 6936 6 6822 6 C 6754 6 6716 4 6716 4 C 6716 3 6710 3 6699 3 C 6669 4 6549 6 6546 3 C 6543 3 6542 3 6538 4 C 6535 4 6531 4 6524 4 C 6514 2 6512 2 6504 4 C 6496 7 6494 7 6487 6 C 6477 3 6438 3 6434 6 C 6432 6 6415 6 6387 3 C 6384 3 6378 3 6374 4 z" fill="black"/><!-- width=6942 height=39 -->
<path id="gl28160" d="M 6903 1 C 6903 1 6643 2 6325 2 C 5857 2 5745 3 5744 4 C 5742 6 5710 6 5708 4 C 5707 2 5596 2 5595 4 C 5594 6 5580 6 5578 4 C 5577 2 5530 2 5528 3 C 5527 6 5517 6 5516 4 C 5515 2 5409 2 5408 4 C 5407 6 5373 6 5372 4 C 5371 2 5323 2 5322 4 C 5320 6 4677 6 4676 4 C 4675 2 4591 2 4587 4 C 4582 7 4580 7 4575 4 C 4572 3 4532 2 4531 4 C 4530 6 4522 6 4521 4 C 4520 2 4436 2 4430 4 C 4425 6 4423 6 4416 4 C 4405 2 4393 2 4392 4 C 4390 6 4186 6 3474 6 C 2349 6 2124 7 2121 8 C 2120 10 2108 10 2107 8 C 2106 7 2011 7 2010 8 C 2008 10 1914 10 1910 8 C 1905 6 1364 6 1362 8 C 1360 10 1212 10 1210 8 C 1209 7 1204 7 1203 8 C 1202 10 1101 10 1100 8 C 1098 6 601 7 597 9 C 594 12 577 12 573 9 C 572 8 571 8 570 9 C 566 12 526 10 524 9 C 520 6 458 7 453 9 C 451 12 447 12 444 9 C 440 7 423 7 420 9 C 417 12 415 12 410 9 C 406 7 388 7 387 8 C 386 10 362 10 361 8 C 360 7 302 7 301 8 C 300 10 280 10 279 8 C 279 8 278 8 277 8 C 276 9 231 10 140 10 C 16 10 4 10 3 13 C 0 16 4 24 14 24 C 15 24 18 24 18 25 C 19 25 19 25 20 25 C 22 22 615 22 618 24 C 619 25 619 25 620 24 C 622 21 774 22 776 24 C 777 25 777 25 778 24 C 780 22 988 22 1760 22 C 2824 22 3032 21 3034 20 C 3036 18 3112 18 3114 19 C 3115 21 3120 21 3121 19 C 3122 18 3146 18 3147 19 C 3148 21 3163 21 3164 19 C 3165 18 3232 18 3234 19 C 3235 21 3244 21 3246 19 C 3247 18 3252 18 3253 20 C 3255 21 3901 21 3903 20 C 3904 18 3914 18 3915 20 C 3918 21 3939 21 3942 19 C 3943 18 3986 18 3987 20 C 3988 20 3988 20 3990 20 C 3991 18 4015 18 4016 20 C 4018 21 4081 21 4086 20 C 4088 18 4089 18 4094 19 C 4096 20 4099 20 4100 19 C 4102 18 4130 18 4131 20 C 4135 22 4557 21 4566 19 C 4570 18 4575 16 4582 18 C 4587 18 4599 19 4610 19 C 4671 21 4675 21 4676 20 C 4677 18 4696 18 4698 19 C 4699 21 4704 21 4705 19 C 4707 18 5540 18 5542 19 C 5544 21 5568 21 5569 19 C 5570 18 5672 18 6016 18 C 6661 16 6843 16 6846 15 C 6847 14 6860 14 6888 14 C 6914 14 6930 13 6932 13 C 6934 10 6934 8 6931 6 C 6930 6 6927 4 6927 3 C 6926 2 6924 2 6922 2 C 6920 2 6915 1 6912 1 C 6908 1 6904 1 6903 1 z" fill="black"/><!-- width=6942 height=34 -->
<path id="gl28161" d="M 6819 2 C 6818 2 6816 3 6815 4 C 6814 6 6803 6 6802 3 C 6801 3 6797 3 6791 3 C 6786 3 6774 4 6765 3 C 6728 3 6316 3 6242 4 C 6199 4 5775 6 5298 6 C 4217 7 3856 7 3854 9 C 3850 10 3819 9 3795 8 C 3781 7 3768 7 3755 8 C 3750 8 3664 8 3562 8 C 3460 8 3353 8 3323 9 C 3247 10 2980 10 2979 8 C 2978 8 2978 8 2977 8 C 2976 10 2947 10 2946 9 C 2944 7 2940 7 2938 9 C 2937 10 2928 10 2926 9 C 2925 7 2825 7 2824 9 C 2823 10 2812 10 2811 9 C 2810 7 2632 7 2630 9 C 2627 12 2620 12 2613 9 C 2607 7 2580 7 2577 9 C 2574 10 2574 10 2571 9 C 2566 8 2528 7 2525 9 C 2522 10 2247 12 2244 9 C 2243 7 2238 7 2237 9 C 2236 10 2053 10 1336 10 C 568 10 385 12 234 13 C 222 13 206 14 199 14 C 189 14 184 14 183 13 C 181 12 30 12 27 13 C 26 14 21 14 16 15 C 3 15 1 18 7 22 C 8 24 9 25 12 27 C 19 27 26 27 33 27 C 419 27 1018 26 1096 26 C 1214 25 1215 25 1235 25 C 1244 25 1251 25 1252 25 C 1253 25 1264 25 1276 26 C 1294 26 1298 26 1301 25 C 1305 22 1306 22 1312 24 C 1315 25 1322 26 1327 26 C 1331 26 1436 26 1557 26 C 1698 26 1812 26 1868 25 C 1993 24 2188 22 2189 24 C 2190 26 2209 26 2211 24 C 2212 22 2221 22 2223 25 C 2224 26 2237 26 2273 26 C 2301 26 2400 26 2496 25 C 2596 25 2681 25 2698 24 C 2737 22 2756 22 2759 24 C 2763 25 2767 25 2789 24 C 2807 22 2905 22 3025 22 C 3211 24 4784 22 4847 21 C 4889 21 4914 20 4915 19 C 4916 19 4920 19 4926 19 C 4931 19 4937 19 4940 19 C 5006 19 5046 19 5047 19 C 5049 21 5063 21 5064 19 C 5065 18 5089 18 5091 19 C 5092 21 5129 21 5130 19 C 5131 18 5161 18 5163 19 C 5164 20 5178 20 5179 19 C 5182 18 5200 18 5201 20 C 5203 22 5735 22 5774 19 C 5790 19 5796 19 5797 19 C 5798 20 5800 20 5804 20 C 5817 19 5834 18 5835 19 C 5838 21 5941 21 5943 19 C 5944 19 5948 19 5954 19 C 5965 20 5979 20 6009 19 C 6024 19 6031 19 6032 19 C 6033 21 6043 21 6044 19 C 6045 18 6061 18 6062 20 C 6062 20 6075 21 6102 20 C 6122 20 6173 20 6211 20 C 6302 20 6428 19 6445 19 C 6460 18 6467 18 6476 19 C 6479 19 6504 19 6532 18 C 6573 18 6582 18 6585 19 C 6587 21 6588 21 6594 20 C 6601 18 6629 18 6635 19 C 6639 20 6640 20 6643 19 C 6646 18 6672 18 6788 18 C 6866 19 6930 18 6934 18 C 6938 18 6939 16 6940 13 C 6945 6 6945 6 6896 6 C 6869 4 6852 4 6851 3 C 6850 2 6822 1 6819 2 z" fill="black"/><!-- width=6951 height=33 -->
</defs>
<use xlink:href="#gl27906" x="9" y="0"/>
<use xlink:href="#gl12053" x="120" y="51"/>
<use xlink:href="#gl12052" x="188" y="0"/>
<use xlink:href="#gl14086" x="235" y="51"/>
<use xlink:href="#gl11294" x="325" y="53"/>
<use xlink:href="#gl11047" x="413" y="53"/>
<use xlink:href="#gl11048" x="499" y="48"/>
<use xlink:href="#gl27907" x="560" y="0"/>
<use xlink:href="#gl11303" x="614" y="47"/>
<use xlink:href="#gl14086" x="715" y="49"/>
<use xlink:href="#gl10785" x="854" y="48"/>
<use xlink:href="#gl11033" x="931" y="51"/>
<use xlink:href="#gl11021" x="1020" y="49"/>
<use xlink:href="#gl11306" x="1104" y="48"/>
<use xlink:href="#gl11284" x="1208" y="40"/>
<use xlink:href="#gl3351" x="1266" y="49"/>
<use xlink:href="#gl10786" x="1337" y="52"/>
<use xlink:href="#gl11530" x="5" y="1322"/>
<use xlink:href="#gl13589" x="141" y="1372"/>
<use xlink:href="#gl11037" x="236" y="1373"/>
<use xlink:href="#gl11282" x="330" y="1318"/>
<use xlink:href="#gl11293" x="377" y="1373"/>
<use xlink:href="#gl11300" x="478" y="1374"/>
<use xlink:href="#gl11295" x="578" y="1372"/>
<use xlink:href="#gl16396" x="700" y="1363"/>
<use xlink:href="#gl12302" x="754" y="1310"/>
<use xlink:href="#gl11293" x="856" y="1373"/>
<use xlink:href="#gl11531" x="960" y="1373"/>
<use xlink:href="#gl14086" x="1055" y="1372"/>
<use xlink:href="#gl12302" x="1146" y="1309"/>
<use xlink:href="#gl11284" x="1252" y="1362"/>
<use xlink:href="#gl3351" x="1311" y="1371"/>
<use xlink:href="#gl10786" x="1381" y="1373"/>
<use xlink:href="#gl12305" x="1960" y="2201"/>
<use xlink:href="#gl14088" x="2082" y="2256"/>
<use xlink:href="#gl13574" x="2160" y="2251"/>
<use xlink:href="#gl13845" x="2242" y="2194"/>
<use xlink:href="#gl11035" x="2339" y="2252"/>
<use xlink:href="#gl12309" x="2437" y="2194"/>
<use xlink:href="#gl11022" x="2538" y="2195"/>
<use xlink:href="#gl11295" x="2638" y="2252"/>
<use xlink:href="#gl11269" x="2753" y="2244"/>
<use xlink:href="#gl27908" x="2848" y="2287"/>
<use xlink:href="#gl16398" x="2960" y="2248"/>
<use xlink:href="#gl11269" x="3021" y="2244"/>
<use xlink:href="#gl11269" x="3122" y="2244"/>
<use xlink:href="#gl27909" x="1" y="3087"/>
<use xlink:href="#gl11034" x="139" y="3076"/>
<use xlink:href="#gl11284" x="187" y="3127"/>
<use xlink:href="#gl11047" x="244" y="3138"/>
<use xlink:href="#gl11286" x="327" y="3133"/>
<use xlink:href="#gl11019" x="393" y="3135"/>
<use xlink:href="#gl13846" x="495" y="3136"/>
<use xlink:href="#gl11284" x="580" y="3128"/>
<use xlink:href="#gl11030" x="642" y="3084"/>
<use xlink:href="#gl11033" x="686" y="3137"/>
<use xlink:href="#gl11021" x="775" y="3135"/>
<use xlink:href="#gl11297" x="906" y="3134"/>
<use xlink:href="#gl11293" x="1005" y="3136"/>
<use xlink:href="#gl11295" x="1103" y="3134"/>
<use xlink:href="#gl11295" x="1167" y="3135"/>
<use xlink:href="#gl11030" x="1237" y="3084"/>
<use xlink:href="#gl11264" x="1286" y="3075"/>
<use xlink:href="#gl11030" x="1388" y="3084"/>
<use xlink:href="#gl13845" x="1436" y="3077"/>
<use xlink:href="#gl11030" x="1488" y="3083"/>
<use xlink:href="#gl11284" x="1538" y="3125"/>
<use xlink:href="#gl11282" x="1599" y="3083"/>
<use xlink:href="#gl11021" x="1646" y="3133"/>
<use xlink:href="#gl11295" x="1725" y="3132"/>
<use xlink:href="#gl10786" x="1797" y="3136"/>
<use xlink:href="#gl12560" x="0" y="4397"/>
<use xlink:href="#gl13589" x="139" y="4450"/>
<use xlink:href="#gl11037" x="234" y="4450"/>
<use xlink:href="#gl11282" x="328" y="4399"/>
<use xlink:href="#gl11283" x="374" y="4448"/>
<use xlink:href="#gl11031" x="479" y="4450"/>
<use xlink:href="#gl11295" x="575" y="4449"/>
<use xlink:href="#gl11264" x="695" y="4390"/>
<use xlink:href="#gl11021" x="790" y="4448"/>
<use xlink:href="#gl12302" x="870" y="4389"/>
<use xlink:href="#gl11011" x="973" y="4449"/>
<use xlink:href="#gl771" x="1047" y="4447"/>
<use xlink:href="#gl11043" x="1145" y="4396"/>
<use xlink:href="#gl11293" x="1190" y="4450"/>
<use xlink:href="#gl11044" x="1292" y="4450"/>
<use xlink:href="#gl11534" x="1352" y="4448"/>
<use xlink:href="#gl10786" x="1425" y="4451"/>
<use xlink:href="#gl27910" x="1962" y="115"/>
<use xlink:href="#gl27911" x="1963" y="552"/>
<use xlink:href="#gl27912" x="1963" y="1435"/>
<use xlink:href="#gl27913" x="1962" y="1882"/>
<use xlink:href="#gl27905" x="3337" y="2319"/>
<use xlink:href="#gl27914" x="1958" y="3197"/>
<use xlink:href="#gl27915" x="1962" y="3638"/>
<use xlink:href="#gl28160" x="1957" y="4517"/>
<use xlink:href="#gl28161" x="1958" y="4959"/>
</svg>