<svg xmlns="http://www.w3.org/2000/svg" xmlns:xlink="http://www.w3.org/1999/xlink" width="626px" height="179px" viewBox="0 0 6263 1791" version="1.1">
<defs>
<path id="gl44292" d="M 6 8 C 2 10 3 14 13 33 C 15 38 16 43 16 43 C 16 43 28 69 33 79 C 36 82 36 87 36 111 C 36 121 34 130 34 139 C 36 140 37 141 38 142 C 40 145 42 145 50 145 C 63 145 63 145 62 123 C 61 92 62 84 70 67 C 75 60 80 48 84 42 C 86 36 90 27 92 24 C 98 12 97 7 84 7 C 69 7 68 8 61 28 C 56 46 54 51 49 50 C 46 50 40 40 40 37 C 40 36 39 33 38 31 C 37 30 36 26 36 22 C 34 15 31 8 27 7 C 22 6 8 7 6 8 z" fill="black"/><!-- width=105 height=153 -->
<path id="gl15885" d="M 30 6 C 11 12 8 18 8 56 C 8 96 11 101 24 108 C 40 117 64 112 71 100 C 81 85 79 75 67 75 C 59 74 55 76 54 82 C 48 100 30 95 30 76 C 30 64 35 61 58 63 C 79 64 79 64 77 44 C 76 23 72 13 61 8 C 55 6 38 4 30 6 M 50 28 C 54 32 54 38 51 43 C 48 46 37 46 33 43 C 24 32 42 17 50 28 z" fill="black"/><!-- width=90 height=123 -->
<path id="gl31753" d="M 26 7 C 13 11 8 17 8 29 C 8 46 12 52 32 66 C 47 75 49 78 49 84 C 49 94 38 97 32 89 C 31 88 28 84 28 84 C 28 79 24 77 16 77 C 8 77 7 78 7 84 C 7 103 21 113 43 112 C 61 112 71 104 74 90 C 77 74 72 64 51 53 C 41 46 34 41 33 37 C 28 26 43 19 49 31 C 54 38 57 39 64 39 C 72 39 74 38 74 31 C 74 12 51 0 26 7 z" fill="black"/><!-- width=87 height=124 -->
<path id="gl44293" d="M 12 8 C 10 8 8 9 8 10 C 7 13 7 140 8 142 C 9 145 20 147 25 146 C 32 144 33 142 32 133 C 32 127 33 121 33 116 C 33 111 33 109 32 105 C 31 102 30 98 31 87 C 32 70 32 70 36 74 C 39 78 50 102 50 105 C 50 106 51 109 52 111 C 54 114 56 118 57 121 C 57 123 60 128 61 132 C 64 142 66 144 76 145 C 87 146 92 145 93 141 C 93 140 93 123 93 105 C 93 87 93 60 94 44 C 94 7 94 6 79 6 C 66 6 66 6 68 46 C 69 75 68 80 64 80 C 62 80 61 79 60 75 C 58 73 57 69 56 67 C 51 57 50 54 50 50 C 50 46 48 42 45 38 C 43 33 40 26 39 21 C 34 9 32 6 21 7 C 18 7 13 7 12 8 z" fill="black"/><!-- width=105 height=158 -->
<path id="gl15902" d="M 34 6 C 18 9 12 17 9 36 C 8 51 9 86 12 93 C 15 106 25 111 43 111 C 70 111 77 104 79 75 C 82 41 78 19 68 12 C 61 6 45 3 34 6 M 49 25 C 55 28 55 29 55 60 C 55 68 55 78 55 87 C 55 88 54 89 52 90 C 47 95 40 95 35 89 C 34 88 33 87 31 86 C 31 77 31 68 31 60 C 31 33 33 29 39 25 C 44 23 44 23 49 25 z" fill="black"/><!-- width=92 height=124 -->
<path id="gl26117" d="M 18 4 C 4 7 3 9 12 14 C 21 21 21 19 21 69 C 20 122 20 128 13 133 C 8 136 9 140 15 141 C 21 142 45 141 46 140 C 48 137 47 134 43 133 C 36 129 35 124 34 80 C 32 47 32 42 36 41 C 39 40 40 41 58 63 C 67 74 82 92 92 103 C 102 114 113 126 115 131 C 129 148 134 142 133 114 C 133 107 133 82 133 61 C 133 47 134 34 134 20 C 136 19 137 18 140 15 C 150 6 145 3 122 4 C 102 6 101 7 109 14 C 118 20 120 25 119 52 C 119 63 120 76 120 82 C 122 93 122 95 119 97 C 115 102 113 101 93 76 C 84 65 73 52 68 47 C 57 35 43 19 41 13 C 36 6 30 3 18 4 z" fill="black"/><!-- width=153 height=151 -->
<path id="gl11531" d="M 11 6 C 6 7 4 9 7 16 C 9 22 9 24 9 44 C 11 74 12 79 22 84 C 31 88 39 88 48 84 C 57 81 59 81 63 84 C 66 86 67 87 68 88 C 71 87 74 87 78 86 C 92 83 94 79 87 74 C 81 71 81 69 81 37 C 81 14 79 7 78 6 C 77 3 66 3 61 6 C 56 8 56 11 59 17 C 64 23 66 56 62 66 C 57 78 37 81 29 68 C 27 64 27 62 27 36 C 27 14 27 7 26 6 C 23 3 16 3 11 6 z" fill="black"/><!-- width=102 height=98 -->
<path id="gl11008" d="M 17 8 C 11 12 8 15 12 22 C 13 24 13 31 13 51 C 13 58 13 67 13 75 C 12 77 11 79 9 80 C 3 89 6 90 24 90 C 36 90 41 88 37 83 C 33 75 31 73 31 55 C 30 25 34 18 48 18 C 57 18 57 19 62 23 C 63 25 64 26 67 28 C 67 36 66 44 66 52 C 66 60 66 68 66 75 C 64 77 63 79 62 80 C 56 88 60 90 75 90 C 93 90 95 89 88 79 C 86 78 85 75 84 74 C 84 67 84 60 84 52 C 84 28 85 24 93 20 C 99 17 110 18 115 23 C 116 24 117 25 118 28 C 118 35 118 44 118 51 C 118 60 118 67 118 75 C 117 77 116 79 115 80 C 113 83 112 84 111 86 C 112 86 113 88 113 89 C 120 93 145 91 145 86 C 145 85 144 83 142 80 C 140 78 139 77 137 74 C 137 67 137 60 137 53 C 137 26 137 20 131 13 C 121 3 108 2 94 11 C 84 15 83 15 73 11 C 64 4 58 4 48 8 C 37 12 36 12 33 8 C 28 4 24 4 17 8 z" fill="black"/><!-- width=156 height=102 -->
<path id="gl44294" d="M 16 7 C 7 10 6 13 10 22 C 12 24 13 26 14 28 C 13 48 13 67 13 86 C 13 117 14 145 14 146 C 15 149 20 151 25 151 C 27 151 33 151 37 152 C 50 157 72 151 81 139 C 99 120 98 95 80 76 C 70 66 56 62 45 67 C 31 73 30 69 31 34 C 33 3 32 2 16 7 M 56 79 C 85 93 76 147 46 143 C 33 140 31 135 31 107 C 31 98 31 91 31 83 C 32 81 33 81 34 80 C 38 76 49 76 56 79 z" fill="black"/><!-- width=110 height=163 -->
<path id="gl10785" d="M 42 6 C 28 7 18 14 12 27 C 7 37 7 62 11 70 C 21 91 47 98 67 85 C 79 77 77 67 63 74 C 47 83 28 73 22 52 C 19 38 23 37 48 37 C 73 38 75 37 75 27 C 75 13 60 3 42 6 M 50 14 C 58 18 59 26 52 29 C 47 31 33 31 31 28 C 27 24 29 18 38 14 C 44 12 45 12 50 14 z" fill="black"/><!-- width=86 height=103 -->
<path id="gl11044" d="M 17 7 C 8 12 7 14 11 23 C 16 33 14 74 8 79 C 6 81 6 86 8 88 C 21 88 38 88 39 86 C 42 85 42 84 36 79 C 34 78 32 75 31 74 C 31 67 31 58 31 50 C 31 19 32 17 45 22 C 58 26 67 16 58 8 C 54 4 48 4 42 8 C 37 12 34 12 29 8 C 26 4 22 4 17 7 z" fill="black"/><!-- width=72 height=99 -->
<path id="gl11291" d="M 34 6 C 13 13 3 36 9 61 C 16 87 49 98 73 82 C 99 66 97 22 69 8 C 62 3 43 3 34 6 M 56 14 C 79 26 78 74 54 79 C 37 83 21 58 27 34 C 32 17 43 9 56 14 z" fill="black"/><!-- width=104 height=99 -->
<path id="gl11521" d="M 43 8 C 25 15 18 27 15 54 C 14 64 13 68 10 71 C 7 76 7 76 10 82 C 13 86 13 86 13 110 C 13 119 13 127 13 136 C 12 138 10 139 9 142 C 3 150 4 152 24 152 C 45 153 47 152 38 143 C 36 142 34 141 32 139 C 32 131 31 122 31 114 C 30 82 30 82 43 82 C 53 81 57 80 57 75 C 57 71 54 69 45 70 C 31 70 30 68 31 49 C 35 20 43 12 59 21 C 68 27 71 27 75 24 C 87 12 64 0 43 8 z" fill="black"/><!-- width=88 height=164 -->
<path id="gl13846" d="M 28 8 C 11 15 2 25 8 31 C 12 36 20 32 23 23 C 32 8 48 15 48 32 C 48 43 45 47 30 50 C 16 53 8 57 6 66 C 2 83 21 95 37 85 C 43 81 45 81 55 86 C 60 88 62 90 67 88 C 77 87 80 80 72 77 C 63 73 62 71 63 43 C 65 22 63 20 62 16 C 56 5 45 2 28 8 M 46 56 C 50 61 47 73 40 77 C 35 80 26 77 23 71 C 20 61 40 46 46 56 z" fill="black"/><!-- width=88 height=100 -->
<path id="gl11019" d="M 16 8 C 10 12 10 15 12 23 C 17 32 16 71 12 76 C 3 87 5 88 23 88 C 40 88 42 87 38 82 C 32 73 32 72 32 51 C 32 22 35 17 50 17 C 60 17 63 20 67 27 C 71 33 70 71 66 76 C 57 86 58 88 76 88 C 95 90 98 87 91 80 C 86 73 85 70 85 46 C 85 22 85 18 78 12 C 72 5 55 3 45 8 C 38 12 36 12 32 8 C 30 5 22 5 16 8 z" fill="black"/><!-- width=106 height=100 -->
<path id="gl11029" d="M 7 6 C 5 7 5 10 8 12 C 17 20 20 22 26 33 C 38 47 38 48 25 62 C 20 68 14 75 10 76 C 1 82 5 87 19 87 C 30 87 33 85 31 79 C 30 67 39 54 45 59 C 52 63 54 72 52 77 C 48 85 50 85 67 85 C 89 85 90 84 76 73 C 72 71 54 47 53 43 C 53 42 53 39 53 36 C 54 33 70 17 76 15 C 87 8 84 3 68 3 C 56 3 53 6 54 15 C 56 21 50 29 45 29 C 40 30 35 22 36 15 C 36 8 36 7 34 6 C 31 3 11 3 7 6 z" fill="black"/><!-- width=95 height=98 -->
<path id="gl11030" d="M 12 7 C 4 13 9 24 19 24 C 27 24 29 21 29 14 C 29 4 19 0 12 7 M 17 55 C 8 59 8 63 11 72 C 12 77 13 83 13 99 C 13 120 12 124 7 130 C 3 135 7 136 21 137 C 36 137 39 136 36 130 C 29 121 29 124 29 89 C 29 78 29 67 31 57 C 29 55 28 55 27 54 C 23 52 24 52 17 55 z" fill="black"/><!-- width=48 height=147 -->
<path id="gl11021" d="M 37 6 C 31 8 21 13 18 17 C 3 32 3 67 18 80 C 31 94 58 94 70 80 C 78 74 72 68 63 73 C 45 83 24 70 21 48 C 20 43 21 42 24 40 C 25 39 26 37 26 37 C 34 37 41 37 47 37 C 70 39 73 37 75 31 C 80 17 57 2 37 6 M 50 14 C 53 17 57 21 56 25 C 54 30 35 32 30 29 C 23 21 39 10 50 14 z" fill="black"/><!-- width=86 height=102 -->
<path id="gl11522" d="M 20 6 C 19 7 6 20 6 23 C 6 23 7 25 8 28 C 11 33 11 34 11 60 C 12 87 12 88 14 92 C 22 100 40 102 48 94 C 52 89 50 87 41 87 C 28 87 27 82 27 52 C 27 28 27 25 39 27 C 49 28 52 27 55 23 C 57 19 54 17 41 16 C 38 16 34 16 30 16 C 29 14 29 13 28 11 C 25 6 24 6 20 6 z" fill="black"/><!-- width=64 height=109 -->
<path id="gl11296" d="M 8 7 C 6 8 6 12 10 16 C 16 21 18 25 26 47 C 36 75 37 77 36 86 C 36 99 25 116 18 117 C 3 120 4 137 18 137 C 26 137 30 132 42 104 C 60 63 78 26 86 18 C 95 8 94 6 77 6 C 61 6 60 7 65 15 C 67 21 67 23 60 42 C 50 64 48 63 38 35 C 36 23 35 21 36 18 C 40 10 40 8 36 6 C 32 4 12 4 8 7 z" fill="black"/><!-- width=103 height=148 -->
<path id="gl10785" d="M 42 6 C 28 7 18 14 12 27 C 7 37 7 62 11 70 C 21 91 47 98 67 85 C 79 77 77 67 63 74 C 47 83 28 73 22 52 C 19 38 23 37 48 37 C 73 38 75 37 75 27 C 75 13 60 3 42 6 M 50 14 C 58 18 59 26 52 29 C 47 31 33 31 31 28 C 27 24 29 18 38 14 C 44 12 45 12 50 14 z" fill="black"/><!-- width=86 height=103 -->
<path id="gl11297" d="M 15 8 C 9 12 7 15 11 22 C 13 26 13 30 13 72 C 14 119 13 126 8 133 C 3 139 6 140 23 140 C 30 140 37 140 39 140 C 44 139 42 135 39 133 C 33 130 31 126 30 112 C 29 103 30 100 31 96 C 34 91 34 91 44 91 C 79 92 103 55 88 24 C 80 8 61 2 45 8 C 37 12 34 12 31 8 C 26 4 22 4 15 8 M 58 20 C 69 25 74 35 73 51 C 72 73 56 88 40 80 C 31 77 31 74 31 50 C 31 42 31 34 31 26 C 33 25 34 24 35 23 C 40 18 50 17 58 20 z" fill="black"/><!-- width=103 height=151 -->
<path id="gl11282" d="M 19 4 C 7 9 9 26 21 26 C 28 26 34 21 34 17 C 34 8 25 2 19 4 M 17 58 C 13 60 10 62 10 64 C 9 68 9 69 13 76 C 14 80 14 86 14 99 C 14 121 14 128 9 131 C 2 139 4 141 23 141 C 37 141 42 140 40 135 C 39 134 37 132 36 132 C 32 132 31 124 31 91 C 31 68 31 58 30 57 C 29 54 24 54 17 58 z" fill="black"/><!-- width=51 height=152 -->
<path id="gl11295" d="M 26 7 C 5 11 3 38 24 50 C 35 57 43 64 43 68 C 43 85 25 86 16 71 C 8 58 0 67 7 81 C 12 94 44 94 54 81 C 63 67 58 52 39 40 C 29 34 25 30 25 25 C 25 12 35 10 45 20 C 53 26 56 28 58 21 C 59 17 56 10 50 7 C 48 5 33 5 26 7 z" fill="black"/><!-- width=70 height=101 -->
<path id="gl11293" d="M 41 3 C 2 11 -4 68 30 85 C 39 89 55 89 64 86 C 96 73 99 24 68 8 C 64 6 50 2 48 3 C 47 3 45 3 41 3 M 58 17 C 71 26 75 51 67 66 C 53 94 22 75 25 40 C 26 17 44 6 58 17 z" fill="black"/><!-- width=101 height=99 -->
<path id="gl11308" d="M 71 6 C 62 11 61 13 65 22 C 67 28 68 30 68 45 C 68 66 68 66 50 67 C 22 68 7 83 7 111 C 7 140 27 159 52 151 C 63 147 65 147 71 151 C 76 154 76 154 85 151 C 97 149 101 144 92 140 C 85 136 85 135 86 68 C 86 20 86 7 85 6 C 82 3 77 3 71 6 M 58 76 C 67 80 68 83 68 109 C 68 135 67 139 57 140 C 36 144 20 119 26 95 C 28 87 38 76 45 75 C 50 73 55 75 58 76 z" fill="black"/><!-- width=109 height=164 -->
<path id="gl11021" d="M 37 6 C 31 8 21 13 18 17 C 3 32 3 67 18 80 C 31 94 58 94 70 80 C 78 74 72 68 63 73 C 45 83 24 70 21 48 C 20 43 21 42 24 40 C 25 39 26 37 26 37 C 34 37 41 37 47 37 C 70 39 73 37 75 31 C 80 17 57 2 37 6 M 50 14 C 53 17 57 21 56 25 C 54 30 35 32 30 29 C 23 21 39 10 50 14 z" fill="black"/><!-- width=86 height=102 -->
<path id="gl11295" d="M 26 7 C 5 11 3 38 24 50 C 35 57 43 64 43 68 C 43 85 25 86 16 71 C 8 58 0 67 7 81 C 12 94 44 94 54 81 C 63 67 58 52 39 40 C 29 34 25 30 25 25 C 25 12 35 10 45 20 C 53 26 56 28 58 21 C 59 17 56 10 50 7 C 48 5 33 5 26 7 z" fill="black"/><!-- width=70 height=101 -->
<path id="gl15875" d="M 16 6 C 10 7 10 13 16 15 C 19 16 22 19 22 21 C 26 25 26 41 24 56 C 22 63 21 80 20 94 C 19 121 18 127 12 132 C 2 141 6 144 26 144 C 47 144 49 141 39 132 C 37 131 36 129 33 127 C 33 115 33 103 33 91 C 35 39 36 38 53 77 C 57 89 63 101 65 103 C 66 106 70 115 73 124 C 83 148 86 148 96 124 C 100 115 105 106 107 101 C 111 96 113 91 113 91 C 113 91 114 86 118 80 C 120 74 124 66 125 62 C 129 55 132 50 135 50 C 138 50 138 56 138 90 C 137 126 137 129 131 133 C 127 136 125 141 129 142 C 129 142 138 143 149 143 C 168 143 168 143 170 141 C 172 137 171 135 165 132 C 159 129 158 126 156 76 C 155 21 155 20 165 15 C 170 14 171 13 171 10 C 171 6 167 4 155 6 C 141 6 140 7 135 19 C 131 28 126 39 114 61 C 111 67 106 79 102 88 C 91 112 89 112 79 90 C 76 82 70 71 67 66 C 54 38 50 30 48 21 C 45 16 44 10 43 9 C 42 6 27 3 16 6 z" fill="black"/><!-- width=182 height=153 -->
<path id="gl11011" d="M 37 6 C 17 9 4 21 7 29 C 8 37 18 34 24 24 C 29 14 33 13 42 17 C 48 21 51 33 47 41 C 44 46 41 48 29 51 C 12 56 7 59 7 71 C 7 87 22 96 37 87 C 44 83 46 83 56 87 C 63 92 68 92 76 88 C 81 86 79 82 73 78 C 63 74 63 73 64 47 C 64 22 64 17 59 12 C 54 6 46 3 37 6 M 44 56 C 48 58 48 58 47 66 C 47 78 36 84 27 76 C 17 67 34 48 44 56 z" fill="black"/><!-- width=89 height=102 -->
<path id="gl11029" d="M 7 6 C 5 7 5 10 8 12 C 17 20 20 22 26 33 C 38 47 38 48 25 62 C 20 68 14 75 10 76 C 1 82 5 87 19 87 C 30 87 33 85 31 79 C 30 67 39 54 45 59 C 52 63 54 72 52 77 C 48 85 50 85 67 85 C 89 85 90 84 76 73 C 72 71 54 47 53 43 C 53 42 53 39 53 36 C 54 33 70 17 76 15 C 87 8 84 3 68 3 C 56 3 53 6 54 15 C 56 21 50 29 45 29 C 40 30 35 22 36 15 C 36 8 36 7 34 6 C 31 3 11 3 7 6 z" fill="black"/><!-- width=95 height=98 -->
<path id="gl12052" d="M 12 7 C 5 15 11 28 21 26 C 37 24 35 5 20 3 C 17 3 15 5 12 7 M 17 57 C 7 62 6 65 11 72 C 12 76 14 79 14 101 C 14 108 14 116 14 124 C 11 126 10 127 8 129 C 1 138 3 140 23 140 C 39 140 42 138 34 130 C 29 124 29 120 30 86 C 30 51 30 49 17 57 z" fill="black"/><!-- width=49 height=149 -->
<path id="gl11008" d="M 17 8 C 11 12 8 15 12 22 C 13 24 13 31 13 51 C 13 58 13 67 13 75 C 12 77 11 79 9 80 C 3 89 6 90 24 90 C 36 90 41 88 37 83 C 33 75 31 73 31 55 C 30 25 34 18 48 18 C 57 18 57 19 62 23 C 63 25 64 26 67 28 C 67 36 66 44 66 52 C 66 60 66 68 66 75 C 64 77 63 79 62 80 C 56 88 60 90 75 90 C 93 90 95 89 88 79 C 86 78 85 75 84 74 C 84 67 84 60 84 52 C 84 28 85 24 93 20 C 99 17 110 18 115 23 C 116 24 117 25 118 28 C 118 35 118 44 118 51 C 118 60 118 67 118 75 C 117 77 116 79 115 80 C 113 83 112 84 111 86 C 112 86 113 88 113 89 C 120 93 145 91 145 86 C 145 85 144 83 142 80 C 140 78 139 77 137 74 C 137 67 137 60 137 53 C 137 26 137 20 131 13 C 121 3 108 2 94 11 C 84 15 83 15 73 11 C 64 4 58 4 48 8 C 37 12 36 12 33 8 C 28 4 24 4 17 8 z" fill="black"/><!-- width=156 height=102 -->
<path id="gl11300" d="M 13 6 C 6 8 4 11 8 17 C 12 22 12 23 12 46 C 12 69 12 71 14 76 C 20 87 38 92 51 85 C 60 81 60 81 66 85 C 70 88 73 88 86 85 C 94 82 94 78 88 75 C 82 71 81 66 82 35 C 82 3 82 3 70 4 C 59 6 56 9 61 16 C 65 22 65 28 65 45 C 65 64 64 70 59 73 C 55 77 44 77 38 75 C 29 71 29 69 29 36 C 28 2 28 1 13 6 z" fill="black"/><!-- width=103 height=98 -->
<path id="gl11008" d="M 17 8 C 11 12 8 15 12 22 C 13 24 13 31 13 51 C 13 58 13 67 13 75 C 12 77 11 79 9 80 C 3 89 6 90 24 90 C 36 90 41 88 37 83 C 33 75 31 73 31 55 C 30 25 34 18 48 18 C 57 18 57 19 62 23 C 63 25 64 26 67 28 C 67 36 66 44 66 52 C 66 60 66 68 66 75 C 64 77 63 79 62 80 C 56 88 60 90 75 90 C 93 90 95 89 88 79 C 86 78 85 75 84 74 C 84 67 84 60 84 52 C 84 28 85 24 93 20 C 99 17 110 18 115 23 C 116 24 117 25 118 28 C 118 35 118 44 118 51 C 118 60 118 67 118 75 C 117 77 116 79 115 80 C 113 83 112 84 111 86 C 112 86 113 88 113 89 C 120 93 145 91 145 86 C 145 85 144 83 142 80 C 140 78 139 77 137 74 C 137 67 137 60 137 53 C 137 26 137 20 131 13 C 121 3 108 2 94 11 C 84 15 83 15 73 11 C 64 4 58 4 48 8 C 37 12 36 12 33 8 C 28 4 24 4 17 8 z" fill="black"/><!-- width=156 height=102 -->
<path id="gl11020" d="M 69 8 C 61 12 60 15 64 22 C 67 27 67 31 67 44 C 68 66 68 66 49 66 C 24 68 12 79 7 102 C 2 135 26 159 55 148 C 57 148 60 147 63 146 C 64 147 66 148 68 148 C 74 152 78 152 87 150 C 98 146 98 145 91 139 C 85 132 85 132 85 67 C 85 15 85 9 84 7 C 81 4 75 4 69 8 M 60 76 C 67 81 68 85 68 108 C 68 134 66 138 54 138 C 34 138 25 127 25 106 C 25 82 43 68 60 76 z" fill="black"/><!-- width=106 height=162 -->
<path id="gl13846" d="M 28 8 C 11 15 2 25 8 31 C 12 36 20 32 23 23 C 32 8 48 15 48 32 C 48 43 45 47 30 50 C 16 53 8 57 6 66 C 2 83 21 95 37 85 C 43 81 45 81 55 86 C 60 88 62 90 67 88 C 77 87 80 80 72 77 C 63 73 62 71 63 43 C 65 22 63 20 62 16 C 56 5 45 2 28 8 M 46 56 C 50 61 47 73 40 77 C 35 80 26 77 23 71 C 20 61 40 46 46 56 z" fill="black"/><!-- width=88 height=100 -->
<path id="gl11030" d="M 12 7 C 4 13 9 24 19 24 C 27 24 29 21 29 14 C 29 4 19 0 12 7 M 17 55 C 8 59 8 63 11 72 C 12 77 13 83 13 99 C 13 120 12 124 7 130 C 3 135 7 136 21 137 C 36 137 39 136 36 130 C 29 121 29 124 29 89 C 29 78 29 67 31 57 C 29 55 28 55 27 54 C 23 52 24 52 17 55 z" fill="black"/><!-- width=48 height=147 -->
<path id="gl13845" d="M 18 6 C 8 9 7 14 12 22 C 13 27 13 29 13 79 C 13 133 13 133 8 139 C 2 144 6 146 22 146 C 40 146 43 145 35 137 C 34 135 33 134 32 132 C 32 112 32 91 32 70 C 32 16 30 8 29 6 C 27 3 23 3 18 6 z" fill="black"/><!-- width=49 height=158 -->
<path id="gl11296" d="M 8 7 C 6 8 6 12 10 16 C 16 21 18 25 26 47 C 36 75 37 77 36 86 C 36 99 25 116 18 117 C 3 120 4 137 18 137 C 26 137 30 132 42 104 C 60 63 78 26 86 18 C 95 8 94 6 77 6 C 61 6 60 7 65 15 C 67 21 67 23 60 42 C 50 64 48 63 38 35 C 36 23 35 21 36 18 C 40 10 40 8 36 6 C 32 4 12 4 8 7 z" fill="black"/><!-- width=103 height=148 -->
<path id="gl6410" d="M 36 6 C 28 7 12 16 10 20 C 5 27 6 33 12 33 C 18 33 21 31 25 23 C 33 7 52 18 50 37 C 48 43 43 48 36 50 C 13 56 6 62 6 75 C 6 90 23 99 37 90 C 43 86 50 86 56 90 C 62 94 74 94 77 90 C 82 86 81 85 75 82 C 65 77 65 76 66 47 C 66 25 66 22 65 17 C 60 6 50 2 36 6 M 47 59 C 51 64 48 74 43 79 C 38 85 22 81 22 72 C 22 61 41 51 47 59 z" fill="black"/><!-- width=91 height=105 -->
<path id="gl11303" d="M 17 9 C 9 13 8 17 11 23 C 13 28 14 30 13 53 C 13 61 13 70 13 78 C 12 79 11 81 9 82 C 6 86 6 87 6 89 C 8 94 37 94 39 89 C 39 87 39 86 37 84 C 32 78 30 75 30 53 C 30 24 33 21 49 19 C 65 19 69 26 69 52 C 69 74 68 78 63 81 C 55 89 59 92 78 91 C 96 91 97 90 90 82 C 86 78 86 76 86 70 C 86 37 85 26 82 19 C 76 7 60 3 45 11 C 37 14 35 14 32 9 C 27 6 24 6 17 9 z" fill="black"/><!-- width=106 height=102 -->
<path id="gl11029" d="M 7 6 C 5 7 5 10 8 12 C 17 20 20 22 26 33 C 38 47 38 48 25 62 C 20 68 14 75 10 76 C 1 82 5 87 19 87 C 30 87 33 85 31 79 C 30 67 39 54 45 59 C 52 63 54 72 52 77 C 48 85 50 85 67 85 C 89 85 90 84 76 73 C 72 71 54 47 53 43 C 53 42 53 39 53 36 C 54 33 70 17 76 15 C 87 8 84 3 68 3 C 56 3 53 6 54 15 C 56 21 50 29 45 29 C 40 30 35 22 36 15 C 36 8 36 7 34 6 C 31 3 11 3 7 6 z" fill="black"/><!-- width=95 height=98 -->
<path id="gl12052" d="M 12 7 C 5 15 11 28 21 26 C 37 24 35 5 20 3 C 17 3 15 5 12 7 M 17 57 C 7 62 6 65 11 72 C 12 76 14 79 14 101 C 14 108 14 116 14 124 C 11 126 10 127 8 129 C 1 138 3 140 23 140 C 39 140 42 138 34 130 C 29 124 29 120 30 86 C 30 51 30 49 17 57 z" fill="black"/><!-- width=49 height=149 -->
<path id="gl10785" d="M 42 6 C 28 7 18 14 12 27 C 7 37 7 62 11 70 C 21 91 47 98 67 85 C 79 77 77 67 63 74 C 47 83 28 73 22 52 C 19 38 23 37 48 37 C 73 38 75 37 75 27 C 75 13 60 3 42 6 M 50 14 C 58 18 59 26 52 29 C 47 31 33 31 31 28 C 27 24 29 18 38 14 C 44 12 45 12 50 14 z" fill="black"/><!-- width=86 height=103 -->
<path id="gl18195" d="M 20 9 C 16 14 13 17 9 19 C 6 22 6 24 9 29 C 11 30 12 34 13 35 C 13 36 13 49 13 62 C 13 92 14 94 22 99 C 32 107 55 103 54 96 C 54 92 54 92 46 92 C 30 89 30 87 30 56 C 30 27 29 29 49 28 C 62 28 65 27 65 22 C 65 16 64 14 50 17 C 35 18 32 17 30 9 C 29 4 24 3 20 9 z" fill="black"/><!-- width=73 height=114 -->
<path id="gl11299" d="M 10 4 C 4 7 3 9 9 15 C 14 21 14 21 24 47 C 35 78 36 85 27 102 C 22 112 22 112 15 116 C 7 121 5 122 5 127 C 5 135 15 139 22 133 C 27 129 28 125 43 91 C 58 58 76 23 83 16 C 91 8 89 4 73 4 C 61 4 58 5 61 13 C 64 19 64 22 58 38 C 48 62 45 62 36 35 C 35 30 34 26 32 21 C 33 19 33 16 34 15 C 38 5 35 4 22 4 C 17 4 11 4 10 4 z" fill="black"/><!-- width=97 height=146 -->
<path id="gl43792" d="M 69 5 C 25 11 2 44 7 90 C 10 115 25 133 50 141 C 71 149 113 147 122 138 C 130 132 133 116 131 112 C 128 108 124 110 116 119 C 106 133 94 138 77 136 C 44 131 26 109 26 75 C 26 38 50 14 85 16 C 102 17 109 21 115 32 C 119 41 125 45 127 40 C 128 36 128 21 126 17 C 124 7 97 2 69 5 z" fill="black"/><!-- width=139 height=158 -->
<path id="gl13846" d="M 28 8 C 11 15 2 25 8 31 C 12 36 20 32 23 23 C 32 8 48 15 48 32 C 48 43 45 47 30 50 C 16 53 8 57 6 66 C 2 83 21 95 37 85 C 43 81 45 81 55 86 C 60 88 62 90 67 88 C 77 87 80 80 72 77 C 63 73 62 71 63 43 C 65 22 63 20 62 16 C 56 5 45 2 28 8 M 46 56 C 50 61 47 73 40 77 C 35 80 26 77 23 71 C 20 61 40 46 46 56 z" fill="black"/><!-- width=88 height=100 -->
<path id="gl11284" d="M 14 13 C 6 22 6 22 9 27 C 12 30 12 32 13 58 C 13 90 14 91 23 96 C 33 101 52 97 52 90 C 52 87 52 87 44 87 C 30 86 29 83 29 52 C 29 26 29 26 42 27 C 50 27 52 27 54 24 C 59 19 55 14 43 16 C 34 16 32 14 29 8 C 27 3 23 4 14 13 z" fill="black"/><!-- width=65 height=110 -->
<path id="gl13846" d="M 28 8 C 11 15 2 25 8 31 C 12 36 20 32 23 23 C 32 8 48 15 48 32 C 48 43 45 47 30 50 C 16 53 8 57 6 66 C 2 83 21 95 37 85 C 43 81 45 81 55 86 C 60 88 62 90 67 88 C 77 87 80 80 72 77 C 63 73 62 71 63 43 C 65 22 63 20 62 16 C 56 5 45 2 28 8 M 46 56 C 50 61 47 73 40 77 C 35 80 26 77 23 71 C 20 61 40 46 46 56 z" fill="black"/><!-- width=88 height=100 -->
<path id="gl11295" d="M 26 7 C 5 11 3 38 24 50 C 35 57 43 64 43 68 C 43 85 25 86 16 71 C 8 58 0 67 7 81 C 12 94 44 94 54 81 C 63 67 58 52 39 40 C 29 34 25 30 25 25 C 25 12 35 10 45 20 C 53 26 56 28 58 21 C 59 17 56 10 50 7 C 48 5 33 5 26 7 z" fill="black"/><!-- width=70 height=101 -->
<path id="gl11284" d="M 14 13 C 6 22 6 22 9 27 C 12 30 12 32 13 58 C 13 90 14 91 23 96 C 33 101 52 97 52 90 C 52 87 52 87 44 87 C 30 86 29 83 29 52 C 29 26 29 26 42 27 C 50 27 52 27 54 24 C 59 19 55 14 43 16 C 34 16 32 14 29 8 C 27 3 23 4 14 13 z" fill="black"/><!-- width=65 height=110 -->
<path id="gl11286" d="M 18 9 C 9 13 7 17 12 23 C 17 32 17 74 9 81 C 3 88 4 90 23 91 C 31 91 40 91 41 90 C 43 88 43 86 40 84 C 31 80 30 77 30 52 C 30 21 32 18 47 24 C 56 28 62 24 62 15 C 62 8 52 4 42 10 C 36 14 34 14 30 10 C 26 6 25 6 18 9 z" fill="black"/><!-- width=73 height=102 -->
<path id="gl11035" d="M 41 7 C 26 8 15 15 9 28 C 6 37 6 63 11 72 C 25 99 68 99 83 72 C 100 37 78 2 41 7 M 55 18 C 64 23 71 39 69 55 C 66 97 22 88 24 45 C 25 22 39 9 55 18 z" fill="black"/><!-- width=100 height=102 -->
<path id="gl29455" d="M 15 9 C 9 14 9 15 13 26 C 15 34 15 35 14 80 C 14 128 14 131 8 134 C 6 137 6 140 8 142 C 14 143 40 143 42 142 C 44 139 44 138 40 134 C 32 130 31 127 31 111 C 31 93 32 93 46 93 C 80 93 103 63 93 31 C 87 13 64 2 47 9 C 36 14 37 14 32 9 C 27 6 23 6 15 9 M 63 24 C 87 36 75 87 48 83 C 34 81 31 77 32 49 C 32 25 34 24 40 20 C 43 19 57 20 63 24 z" fill="black"/><!-- width=105 height=154 -->
<path id="gl12302" d="M 19 7 C 9 10 8 15 13 23 C 15 29 16 58 15 107 C 15 117 14 126 14 136 C 13 137 11 140 10 141 C 3 148 5 149 21 150 C 39 152 44 148 38 141 C 33 136 33 130 33 109 C 33 82 34 79 49 79 C 64 79 68 83 68 110 C 69 130 68 136 63 142 C 57 148 62 150 77 150 C 94 150 100 147 93 142 C 87 138 86 135 86 113 C 86 101 86 89 85 86 C 82 68 65 61 46 69 C 38 73 37 73 34 70 C 32 68 32 68 33 39 C 33 15 33 9 32 8 C 29 4 25 4 19 7 z" fill="black"/><!-- width=106 height=160 -->
<path id="gl11030" d="M 12 7 C 4 13 9 24 19 24 C 27 24 29 21 29 14 C 29 4 19 0 12 7 M 17 55 C 8 59 8 63 11 72 C 12 77 13 83 13 99 C 13 120 12 124 7 130 C 3 135 7 136 21 137 C 36 137 39 136 36 130 C 29 121 29 124 29 89 C 29 78 29 67 31 57 C 29 55 28 55 27 54 C 23 52 24 52 17 55 z" fill="black"/><!-- width=48 height=147 -->
<path id="gl11042" d="M 44 6 C 27 10 16 17 10 30 C 6 39 6 59 10 68 C 20 91 54 97 72 80 C 80 72 78 63 68 70 C 50 82 30 74 24 55 C 16 29 39 5 60 18 C 70 25 77 25 77 16 C 77 6 63 2 44 6 z" fill="black"/><!-- width=87 height=101 -->
<path id="gl11030" d="M 12 7 C 4 13 9 24 19 24 C 27 24 29 21 29 14 C 29 4 19 0 12 7 M 17 55 C 8 59 8 63 11 72 C 12 77 13 83 13 99 C 13 120 12 124 7 130 C 3 135 7 136 21 137 C 36 137 39 136 36 130 C 29 121 29 124 29 89 C 29 78 29 67 31 57 C 29 55 28 55 27 54 C 23 52 24 52 17 55 z" fill="black"/><!-- width=48 height=147 -->
<path id="gl11008" d="M 17 8 C 11 12 8 15 12 22 C 13 24 13 31 13 51 C 13 58 13 67 13 75 C 12 77 11 79 9 80 C 3 89 6 90 24 90 C 36 90 41 88 37 83 C 33 75 31 73 31 55 C 30 25 34 18 48 18 C 57 18 57 19 62 23 C 63 25 64 26 67 28 C 67 36 66 44 66 52 C 66 60 66 68 66 75 C 64 77 63 79 62 80 C 56 88 60 90 75 90 C 93 90 95 89 88 79 C 86 78 85 75 84 74 C 84 67 84 60 84 52 C 84 28 85 24 93 20 C 99 17 110 18 115 23 C 116 24 117 25 118 28 C 118 35 118 44 118 51 C 118 60 118 67 118 75 C 117 77 116 79 115 80 C 113 83 112 84 111 86 C 112 86 113 88 113 89 C 120 93 145 91 145 86 C 145 85 144 83 142 80 C 140 78 139 77 137 74 C 137 67 137 60 137 53 C 137 26 137 20 131 13 C 121 3 108 2 94 11 C 84 15 83 15 73 11 C 64 4 58 4 48 8 C 37 12 36 12 33 8 C 28 4 24 4 17 8 z" fill="black"/><!-- width=156 height=102 -->
<path id="gl13846" d="M 28 8 C 11 15 2 25 8 31 C 12 36 20 32 23 23 C 32 8 48 15 48 32 C 48 43 45 47 30 50 C 16 53 8 57 6 66 C 2 83 21 95 37 85 C 43 81 45 81 55 86 C 60 88 62 90 67 88 C 77 87 80 80 72 77 C 63 73 62 71 63 43 C 65 22 63 20 62 16 C 56 5 45 2 28 8 M 46 56 C 50 61 47 73 40 77 C 35 80 26 77 23 71 C 20 61 40 46 46 56 z" fill="black"/><!-- width=88 height=100 -->
<path id="gl14086" d="M 28 8 C 9 15 3 35 15 52 C 20 61 20 62 15 67 C 7 77 7 79 14 88 C 19 94 19 95 13 102 C -8 129 29 154 67 135 C 89 124 97 99 83 86 C 77 80 71 79 50 80 C 33 80 33 80 29 78 C 20 69 26 63 45 62 C 63 61 72 53 74 35 C 77 26 77 25 84 23 C 94 18 90 11 78 11 C 73 11 67 9 61 8 C 47 4 35 4 28 8 M 48 15 C 57 19 61 35 56 46 C 50 58 36 58 30 45 C 22 28 35 8 48 15 M 67 96 C 75 101 77 111 71 120 C 61 133 31 133 25 120 C 20 111 24 99 33 96 C 37 94 62 94 67 96 z" fill="black"/><!-- width=100 height=153 -->
<path id="gl11047" d="M 40 3 C 17 7 3 31 8 57 C 11 69 16 78 27 84 C 43 91 74 84 74 72 C 74 67 70 67 63 70 C 44 79 24 67 22 45 C 21 34 23 34 48 34 C 55 34 63 36 69 36 C 70 34 72 33 73 32 C 76 28 76 24 74 18 C 68 7 55 2 40 3 M 53 14 C 57 17 57 23 52 26 C 48 28 32 28 31 26 C 22 18 43 7 53 14 z" fill="black"/><!-- width=86 height=99 -->
<path id="gl44295" d="M 32 3 C 26 4 19 9 14 15 C 6 26 13 42 30 49 C 44 56 50 67 42 75 C 34 82 22 79 18 68 C 13 55 3 58 7 73 C 9 84 15 87 32 87 C 50 87 61 79 61 62 C 61 51 55 45 40 37 C 27 31 24 22 30 16 C 36 10 42 10 49 18 C 55 24 57 25 60 21 C 63 18 62 14 56 8 C 50 2 49 2 32 3 z" fill="black"/><!-- width=72 height=96 -->
<path id="gl11530" d="M 67 3 C 63 6 59 11 57 18 C 53 32 19 115 16 122 C 14 125 11 127 9 130 C 4 132 4 137 7 139 C 8 139 14 140 22 140 C 38 140 39 139 34 130 C 32 122 32 121 37 106 C 43 88 44 86 65 86 C 83 86 84 89 91 110 C 94 121 94 126 90 130 C 84 139 88 140 111 139 C 117 139 122 139 129 139 C 129 137 129 136 129 135 C 130 132 129 131 125 129 C 119 126 115 120 111 110 C 105 96 80 23 79 16 C 76 9 73 2 70 3 C 69 3 68 3 67 3 M 68 42 C 72 47 78 68 76 72 C 74 76 70 79 63 78 C 49 76 48 73 54 55 C 60 38 63 36 68 42 z" fill="black"/><!-- width=140 height=148 -->
<path id="gl11303" d="M 17 9 C 9 13 8 17 11 23 C 13 28 14 30 13 53 C 13 61 13 70 13 78 C 12 79 11 81 9 82 C 6 86 6 87 6 89 C 8 94 37 94 39 89 C 39 87 39 86 37 84 C 32 78 30 75 30 53 C 30 24 33 21 49 19 C 65 19 69 26 69 52 C 69 74 68 78 63 81 C 55 89 59 92 78 91 C 96 91 97 90 90 82 C 86 78 86 76 86 70 C 86 37 85 26 82 19 C 76 7 60 3 45 11 C 37 14 35 14 32 9 C 27 6 24 6 17 9 z" fill="black"/><!-- width=106 height=102 -->
<path id="gl11029" d="M 7 6 C 5 7 5 10 8 12 C 17 20 20 22 26 33 C 38 47 38 48 25 62 C 20 68 14 75 10 76 C 1 82 5 87 19 87 C 30 87 33 85 31 79 C 30 67 39 54 45 59 C 52 63 54 72 52 77 C 48 85 50 85 67 85 C 89 85 90 84 76 73 C 72 71 54 47 53 43 C 53 42 53 39 53 36 C 54 33 70 17 76 15 C 87 8 84 3 68 3 C 56 3 53 6 54 15 C 56 21 50 29 45 29 C 40 30 35 22 36 15 C 36 8 36 7 34 6 C 31 3 11 3 7 6 z" fill="black"/><!-- width=95 height=98 -->
<path id="gl11030" d="M 12 7 C 4 13 9 24 19 24 C 27 24 29 21 29 14 C 29 4 19 0 12 7 M 17 55 C 8 59 8 63 11 72 C 12 77 13 83 13 99 C 13 120 12 124 7 130 C 3 135 7 136 21 137 C 36 137 39 136 36 130 C 29 121 29 124 29 89 C 29 78 29 67 31 57 C 29 55 28 55 27 54 C 23 52 24 52 17 55 z" fill="black"/><!-- width=48 height=147 -->
<path id="gl11293" d="M 41 3 C 2 11 -4 68 30 85 C 39 89 55 89 64 86 C 96 73 99 24 68 8 C 64 6 50 2 48 3 C 47 3 45 3 41 3 M 58 17 C 71 26 75 51 67 66 C 53 94 22 75 25 40 C 26 17 44 6 58 17 z" fill="black"/><!-- width=101 height=99 -->
<path id="gl11531" d="M 11 6 C 6 7 4 9 7 16 C 9 22 9 24 9 44 C 11 74 12 79 22 84 C 31 88 39 88 48 84 C 57 81 59 81 63 84 C 66 86 67 87 68 88 C 71 87 74 87 78 86 C 92 83 94 79 87 74 C 81 71 81 69 81 37 C 81 14 79 7 78 6 C 77 3 66 3 61 6 C 56 8 56 11 59 17 C 64 23 66 56 62 66 C 57 78 37 81 29 68 C 27 64 27 62 27 36 C 27 14 27 7 26 6 C 23 3 16 3 11 6 z" fill="black"/><!-- width=102 height=98 -->
<path id="gl11534" d="M 24 7 C 13 12 8 21 12 32 C 13 40 17 44 30 51 C 44 60 46 67 43 74 C 38 86 26 83 15 67 C 10 59 3 65 7 77 C 11 95 48 95 58 77 C 64 63 58 50 40 39 C 26 31 22 25 29 17 C 34 11 39 11 48 19 C 55 26 59 26 59 19 C 60 8 55 3 40 3 C 32 3 29 5 24 7 z" fill="black"/><!-- width=70 height=101 -->
<path id="gl44294" d="M 16 7 C 7 10 6 13 10 22 C 12 24 13 26 14 28 C 13 48 13 67 13 86 C 13 117 14 145 14 146 C 15 149 20 151 25 151 C 27 151 33 151 37 152 C 50 157 72 151 81 139 C 99 120 98 95 80 76 C 70 66 56 62 45 67 C 31 73 30 69 31 34 C 33 3 32 2 16 7 M 56 79 C 85 93 76 147 46 143 C 33 140 31 135 31 107 C 31 98 31 91 31 83 C 32 81 33 81 34 80 C 38 76 49 76 56 79 z" fill="black"/><!-- width=110 height=163 -->
<path id="gl11021" d="M 37 6 C 31 8 21 13 18 17 C 3 32 3 67 18 80 C 31 94 58 94 70 80 C 78 74 72 68 63 73 C 45 83 24 70 21 48 C 20 43 21 42 24 40 C 25 39 26 37 26 37 C 34 37 41 37 47 37 C 70 39 73 37 75 31 C 80 17 57 2 37 6 M 50 14 C 53 17 57 21 56 25 C 54 30 35 32 30 29 C 23 21 39 10 50 14 z" fill="black"/><!-- width=86 height=102 -->
<path id="gl11533" d="M 13 8 C 6 13 4 15 8 25 C 12 36 12 134 8 141 C 4 148 6 149 13 151 C 31 155 39 151 32 141 C 31 140 30 137 28 136 C 28 129 28 120 28 112 C 28 105 27 96 27 88 C 30 86 31 85 32 83 C 41 76 56 78 61 86 C 66 97 65 134 59 142 C 54 149 59 153 73 153 C 82 153 90 151 90 148 C 90 147 89 146 86 143 C 83 136 82 134 82 112 C 82 99 80 86 80 84 C 76 68 57 62 42 70 C 33 73 33 73 31 70 C 28 68 27 66 27 38 C 27 27 27 18 27 8 C 27 7 26 7 25 7 C 20 4 20 4 13 8 z" fill="black"/><!-- width=99 height=164 -->
<path id="gl13846" d="M 28 8 C 11 15 2 25 8 31 C 12 36 20 32 23 23 C 32 8 48 15 48 32 C 48 43 45 47 30 50 C 16 53 8 57 6 66 C 2 83 21 95 37 85 C 43 81 45 81 55 86 C 60 88 62 90 67 88 C 77 87 80 80 72 77 C 63 73 62 71 63 43 C 65 22 63 20 62 16 C 56 5 45 2 28 8 M 46 56 C 50 61 47 73 40 77 C 35 80 26 77 23 71 C 20 61 40 46 46 56 z" fill="black"/><!-- width=88 height=100 -->
<path id="gl771" d="M 11 4 C 4 7 4 9 9 14 C 13 18 17 23 19 29 C 25 44 39 76 42 82 C 45 98 53 97 59 79 C 60 74 64 65 67 59 C 70 53 75 43 79 35 C 82 27 85 22 90 17 C 98 7 96 3 77 4 C 69 4 66 7 69 13 C 71 21 71 22 59 55 C 55 65 49 60 43 42 C 34 22 34 21 37 14 C 39 9 39 8 37 7 C 35 6 16 3 11 4 z" fill="black"/><!-- width=106 height=103 -->
<path id="gl12052" d="M 12 7 C 5 15 11 28 21 26 C 37 24 35 5 20 3 C 17 3 15 5 12 7 M 17 57 C 7 62 6 65 11 72 C 12 76 14 79 14 101 C 14 108 14 116 14 124 C 11 126 10 127 8 129 C 1 138 3 140 23 140 C 39 140 42 138 34 130 C 29 124 29 120 30 86 C 30 51 30 49 17 57 z" fill="black"/><!-- width=49 height=149 -->
<path id="gl11293" d="M 41 3 C 2 11 -4 68 30 85 C 39 89 55 89 64 86 C 96 73 99 24 68 8 C 64 6 50 2 48 3 C 47 3 45 3 41 3 M 58 17 C 71 26 75 51 67 66 C 53 94 22 75 25 40 C 26 17 44 6 58 17 z" fill="black"/><!-- width=101 height=99 -->
<path id="gl11302" d="M 14 8 C 7 11 5 14 9 21 C 11 24 11 28 11 49 C 11 56 11 64 11 73 C 10 74 9 75 8 77 C 3 84 4 86 21 86 C 37 87 42 84 35 80 C 28 76 27 73 28 47 C 28 18 30 15 43 21 C 49 23 51 23 55 20 C 61 14 56 5 48 5 C 44 5 36 9 35 11 C 34 12 33 12 28 8 C 23 4 20 4 14 8 z" fill="black"/><!-- width=67 height=97 -->
<path id="gl11534" d="M 24 7 C 13 12 8 21 12 32 C 13 40 17 44 30 51 C 44 60 46 67 43 74 C 38 86 26 83 15 67 C 10 59 3 65 7 77 C 11 95 48 95 58 77 C 64 63 58 50 40 39 C 26 31 22 25 29 17 C 34 11 39 11 48 19 C 55 26 59 26 59 19 C 60 8 55 3 40 3 C 32 3 29 5 24 7 z" fill="black"/><!-- width=70 height=101 -->
<path id="gl44296" d="M 4 3 C 1 6 1 13 4 15 C 7 16 82 16 746 16 C 3534 16 5276 18 5282 20 C 5287 21 5288 21 5290 20 C 5293 18 5355 18 5394 20 C 5418 21 5422 21 5425 19 C 5427 18 5458 18 5640 18 C 6108 19 6240 18 6243 18 C 6246 16 6247 15 6247 13 C 6248 6 6265 6 6018 6 C 5870 6 5791 4 5790 4 C 5788 2 5770 2 5769 4 C 5768 6 5752 6 5751 3 C 5749 2 5414 2 5400 4 C 5392 4 5385 4 5374 4 C 5355 2 5334 2 5332 4 C 5331 6 5320 6 5319 4 C 5318 2 5258 2 5256 4 C 5254 4 5251 4 5247 4 C 5230 2 5181 2 5178 4 C 5173 7 5167 7 5162 4 C 5158 2 5127 2 5126 4 C 5125 6 5114 6 5113 4 C 5112 2 5074 2 5073 4 C 5072 6 4742 4 4734 3 C 4730 3 4729 3 4728 3 C 4726 6 4682 6 4681 3 C 4680 2 4581 2 4198 2 C 3732 3 3691 3 3657 4 C 3646 4 3640 4 3639 4 C 3637 2 3572 3 3561 4 C 3556 4 3554 4 3553 4 C 3550 2 3571 2 2605 2 C 1992 2 1742 2 1742 3 C 1740 6 1737 6 1735 4 C 1731 1 8 1 4 3 z" fill="black"/><!-- width=6255 height=30 -->
<path id="gl44297" d="M 10 4 C 8 6 6 7 4 8 C 4 8 3 9 3 12 C 2 18 0 18 96 18 C 158 18 186 19 188 20 C 190 20 192 20 193 20 C 194 18 256 19 265 20 C 267 20 268 20 270 20 C 271 18 714 18 715 20 C 716 20 722 20 734 20 C 756 19 759 19 771 20 C 777 21 781 20 783 20 C 786 19 790 19 802 19 C 829 20 1093 20 1191 19 C 1261 18 1284 19 1285 19 C 1286 21 1291 21 1292 20 C 1294 18 1414 18 1423 20 C 1428 20 1430 21 1431 20 C 1432 18 1482 18 1483 20 C 1483 21 1504 21 1507 20 C 1508 18 1516 18 1593 20 C 1611 20 1621 20 1624 20 C 1630 18 1842 18 2004 19 C 2119 20 2304 20 2469 19 C 2571 19 2613 19 2614 19 C 2616 21 2620 21 2622 20 C 2623 18 2728 18 2731 20 C 2732 21 2745 20 2761 19 C 2766 19 2768 19 2769 19 C 2770 21 2832 21 2833 19 C 2834 19 2836 19 2841 19 C 2845 19 2882 20 2923 19 C 2965 19 3030 19 3067 19 C 3105 19 3141 19 3148 19 C 3157 19 3170 19 3180 19 C 3266 20 3583 20 3688 19 C 3793 19 3823 19 3825 20 C 3828 20 3830 20 3836 20 C 3841 20 3864 19 3888 19 C 4110 20 4286 20 4287 19 C 4288 19 4296 19 4305 19 C 4315 19 4328 20 4335 20 C 4342 20 4348 20 4350 20 C 4351 19 4359 19 4375 19 C 4399 20 4722 20 4869 20 C 4912 19 4951 19 4954 19 C 4958 20 4972 19 4988 19 C 5006 19 5018 19 5022 19 C 5029 21 5052 21 5106 21 C 5128 21 5293 21 5472 21 C 5649 21 5850 21 5917 20 C 6064 19 6058 19 6076 20 C 6086 20 6091 20 6092 20 C 6093 18 6103 18 6104 20 C 6105 21 6112 20 6129 19 C 6133 19 6136 19 6138 19 C 6139 20 6157 20 6186 20 C 6212 20 6235 21 6238 21 C 6243 22 6244 21 6248 19 C 6253 14 6253 14 6248 9 C 6247 8 6246 7 6244 6 C 6148 6 6051 6 5955 6 C 5778 6 5665 4 5662 4 C 5660 3 5655 3 5648 4 C 5635 7 5526 6 5520 4 C 5516 3 5514 3 5508 4 C 5500 6 4548 6 4495 4 C 4483 4 4466 3 4459 4 C 4450 4 4436 4 4426 4 C 4418 4 4398 4 4383 4 C 4368 4 4352 3 4347 3 C 4322 3 4260 3 4182 4 C 4040 6 3966 6 3956 4 C 3950 3 3946 3 3943 3 C 3936 6 3301 6 3282 4 C 3270 3 3064 3 2974 4 C 2877 6 2536 4 2534 3 C 2533 3 2529 3 2524 3 C 2508 4 2424 6 2418 3 C 2413 2 2410 2 2409 3 C 2408 6 2085 6 2084 3 C 2083 3 2080 2 2076 3 C 2072 4 2061 4 2052 4 C 2043 4 1990 3 1934 3 C 1861 3 1820 3 1790 4 C 1767 4 1746 6 1742 6 C 1740 6 1683 6 1618 6 C 1534 6 1498 4 1498 4 C 1497 2 1490 2 1490 4 C 1490 6 1380 6 1378 3 C 1377 3 1372 3 1365 3 C 1348 4 1287 4 1280 3 C 1275 2 1273 3 1272 3 C 1270 6 1221 6 1220 4 C 1219 2 1204 2 1203 4 C 1203 4 1201 4 1198 4 C 1196 4 1190 3 1185 3 C 1150 4 1016 4 928 4 C 769 4 757 4 750 4 C 746 3 744 3 742 4 C 742 4 733 4 721 4 C 688 3 628 3 363 4 C 188 4 127 4 126 4 C 124 3 123 3 123 4 C 122 6 79 6 78 3 C 76 3 76 3 75 3 C 74 6 31 6 30 4 C 28 2 14 2 10 4 z" fill="black"/><!-- width=6260 height=30 -->
<path id="gl44298" d="M 4 2 C 2 2 1 3 1 7 C 1 12 4 13 14 13 C 19 13 22 14 22 15 C 25 16 301 16 303 15 C 305 13 420 13 421 15 C 422 15 422 15 423 15 C 425 13 689 13 690 15 C 691 16 710 16 712 15 C 713 13 723 13 724 15 C 725 15 757 16 840 16 C 879 16 916 16 954 16 C 955 15 958 14 959 13 C 964 10 965 6 962 2 C 959 1 9 0 4 2 z" fill="black"/><!-- width=970 height=24 -->
<path id="gl44299" d="M 46 4 C 8 4 7 4 4 7 C 1 10 2 15 6 18 C 10 19 938 19 956 18 C 966 16 970 14 968 9 C 968 8 967 7 965 6 C 957 4 129 2 46 4 z" fill="black"/><!-- width=976 height=27 -->
<path id="gl44300" d="M 3 5 C 0 9 0 10 4 15 C 7 17 27 17 483 17 C 642 17 800 17 959 17 C 960 16 961 15 962 14 C 966 11 966 8 961 4 C 960 4 959 3 958 2 C 879 2 800 2 722 2 C 446 2 405 2 178 2 C 120 2 64 2 7 2 C 5 3 4 4 3 5 z" fill="black"/><!-- width=972 height=25 -->
<path id="gl44299" d="M 46 4 C 8 4 7 4 4 7 C 1 10 2 15 6 18 C 10 19 938 19 956 18 C 966 16 970 14 968 9 C 968 8 967 7 965 6 C 957 4 129 2 46 4 z" fill="black"/><!-- width=976 height=27 -->
<path id="gl44300" d="M 3 5 C 0 9 0 10 4 15 C 7 17 27 17 483 17 C 642 17 800 17 959 17 C 960 16 961 15 962 14 C 966 11 966 8 961 4 C 960 4 959 3 958 2 C 879 2 800 2 722 2 C 446 2 405 2 178 2 C 120 2 64 2 7 2 C 5 3 4 4 3 5 z" fill="black"/><!-- width=972 height=25 -->
<path id="gl44299" d="M 46 4 C 8 4 7 4 4 7 C 1 10 2 15 6 18 C 10 19 938 19 956 18 C 966 16 970 14 968 9 C 968 8 967 7 965 6 C 957 4 129 2 46 4 z" fill="black"/><!-- width=976 height=27 -->
<path id="gl44301" d="M 21 2 C 18 2 14 3 13 3 C 13 4 9 6 7 6 C 3 7 2 8 2 12 C 2 18 4 18 31 18 C 44 19 55 19 56 20 C 57 21 76 21 78 20 C 79 18 112 18 114 20 C 115 21 273 21 275 20 C 276 18 766 18 767 20 C 768 21 778 21 779 20 C 780 18 934 18 935 20 C 936 21 941 21 942 20 C 943 19 948 19 954 18 C 965 18 968 16 968 12 C 968 8 966 7 962 6 C 959 6 957 4 957 3 C 957 2 936 2 935 3 C 934 6 915 6 913 3 C 913 3 911 3 910 3 C 909 3 906 3 906 3 C 906 4 865 4 790 4 C 714 4 673 4 673 3 C 672 2 667 2 666 3 C 665 6 540 6 539 3 C 538 2 533 2 532 3 C 530 6 194 6 193 3 C 192 3 192 3 190 3 C 189 6 141 6 140 3 C 140 3 135 3 132 3 C 128 3 123 3 123 3 C 122 6 74 6 73 3 C 73 3 70 3 69 3 C 68 3 66 3 66 3 C 64 6 45 6 44 4 C 43 2 31 2 21 2 z" fill="black"/><!-- width=975 height=28 -->
<path id="gl44299" d="M 46 4 C 8 4 7 4 4 7 C 1 10 2 15 6 18 C 10 19 938 19 956 18 C 966 16 970 14 968 9 C 968 8 967 7 965 6 C 957 4 129 2 46 4 z" fill="black"/><!-- width=976 height=27 -->
</defs>
<use xlink:href="#gl44292" x="3608" y="144"/>
<use xlink:href="#gl15885" x="3700" y="178"/>
<use xlink:href="#gl31753" x="3786" y="178"/>
<use xlink:href="#gl44293" x="5639" y="144"/>
<use xlink:href="#gl15902" x="5744" y="179"/>
<use xlink:href="#gl26117" x="9" y="672"/>
<use xlink:href="#gl11531" x="162" y="727"/>
<use xlink:href="#gl11008" x="263" y="723"/>
<use xlink:href="#gl44294" x="416" y="663"/>
<use xlink:href="#gl10785" x="514" y="724"/>
<use xlink:href="#gl11044" x="600" y="724"/>
<use xlink:href="#gl11291" x="709" y="726"/>
<use xlink:href="#gl11521" x="811" y="661"/>
<use xlink:href="#gl13846" x="929" y="725"/>
<use xlink:href="#gl11019" x="1012" y="725"/>
<use xlink:href="#gl11029" x="1113" y="727"/>
<use xlink:href="#gl11030" x="1206" y="675"/>
<use xlink:href="#gl11021" x="1253" y="724"/>
<use xlink:href="#gl11522" x="1338" y="715"/>
<use xlink:href="#gl11296" x="1389" y="726"/>
<use xlink:href="#gl10785" x="1530" y="724"/>
<use xlink:href="#gl11297" x="1612" y="723"/>
<use xlink:href="#gl11282" x="1714" y="672"/>
<use xlink:href="#gl11295" x="1763" y="725"/>
<use xlink:href="#gl11293" x="1827" y="726"/>
<use xlink:href="#gl11308" x="1925" y="663"/>
<use xlink:href="#gl11021" x="2027" y="724"/>
<use xlink:href="#gl11295" x="2106" y="725"/>
<use xlink:href="#gl15875" x="7" y="990"/>
<use xlink:href="#gl11011" x="187" y="1044"/>
<use xlink:href="#gl11029" x="265" y="1046"/>
<use xlink:href="#gl12052" x="357" y="993"/>
<use xlink:href="#gl11008" x="408" y="1043"/>
<use xlink:href="#gl11300" x="565" y="1046"/>
<use xlink:href="#gl11008" x="666" y="1043"/>
<use xlink:href="#gl11020" x="871" y="983"/>
<use xlink:href="#gl13846" x="973" y="1045"/>
<use xlink:href="#gl11030" x="1059" y="994"/>
<use xlink:href="#gl13845" x="1107" y="986"/>
<use xlink:href="#gl11296" x="1150" y="1045"/>
<use xlink:href="#gl6410" x="1292" y="1042"/>
<use xlink:href="#gl11303" x="1376" y="1042"/>
<use xlink:href="#gl11029" x="1475" y="1047"/>
<use xlink:href="#gl12052" x="1569" y="993"/>
<use xlink:href="#gl10785" x="1615" y="1044"/>
<use xlink:href="#gl18195" x="1698" y="1032"/>
<use xlink:href="#gl11299" x="1756" y="1046"/>
<use xlink:href="#gl43792" x="9" y="1311"/>
<use xlink:href="#gl13846" x="145" y="1367"/>
<use xlink:href="#gl11284" x="229" y="1358"/>
<use xlink:href="#gl13846" x="287" y="1367"/>
<use xlink:href="#gl11295" x="366" y="1366"/>
<use xlink:href="#gl11284" x="435" y="1357"/>
<use xlink:href="#gl11286" x="496" y="1364"/>
<use xlink:href="#gl11035" x="559" y="1365"/>
<use xlink:href="#gl29455" x="655" y="1364"/>
<use xlink:href="#gl12302" x="757" y="1306"/>
<use xlink:href="#gl11030" x="865" y="1317"/>
<use xlink:href="#gl11042" x="911" y="1366"/>
<use xlink:href="#gl11030" x="1047" y="1317"/>
<use xlink:href="#gl11008" x="1096" y="1365"/>
<use xlink:href="#gl13846" x="1250" y="1367"/>
<use xlink:href="#gl14086" x="1330" y="1367"/>
<use xlink:href="#gl11047" x="1420" y="1368"/>
<use xlink:href="#gl44295" x="1496" y="1368"/>
<use xlink:href="#gl11530" x="0" y="1638"/>
<use xlink:href="#gl11303" x="133" y="1686"/>
<use xlink:href="#gl11029" x="232" y="1690"/>
<use xlink:href="#gl11030" x="325" y="1639"/>
<use xlink:href="#gl11293" x="371" y="1690"/>
<use xlink:href="#gl11531" x="474" y="1691"/>
<use xlink:href="#gl11534" x="569" y="1689"/>
<use xlink:href="#gl44294" x="685" y="1627"/>
<use xlink:href="#gl11021" x="785" y="1688"/>
<use xlink:href="#gl11533" x="869" y="1627"/>
<use xlink:href="#gl13846" x="968" y="1689"/>
<use xlink:href="#gl771" x="1041" y="1687"/>
<use xlink:href="#gl12052" x="1139" y="1638"/>
<use xlink:href="#gl11293" x="1186" y="1690"/>
<use xlink:href="#gl11302" x="1291" y="1690"/>
<use xlink:href="#gl11534" x="1348" y="1689"/>
<use xlink:href="#gl44296" x="4" y="0"/>
<use xlink:href="#gl44297" x="3" y="394"/>
<use xlink:href="#gl44298" x="3258" y="802"/>
<use xlink:href="#gl44299" x="5262" y="799"/>
<use xlink:href="#gl44300" x="3253" y="1119"/>
<use xlink:href="#gl44299" x="5265" y="1118"/>
<use xlink:href="#gl44300" x="3257" y="1440"/>
<use xlink:href="#gl44299" x="5268" y="1439"/>
<use xlink:href="#gl44301" x="3253" y="1762"/>
<use xlink:href="#gl44299" x="5262" y="1762"/>
</svg>