<svg xmlns="http://www.w3.org/2000/svg" xmlns:xlink="http://www.w3.org/1999/xlink" width="623px" height="88px" viewBox="0 0 6235 880" version="1.1">
<defs>
<path id="gl9480" d="M 21 8 C 8 15 1 26 6 30 C 7 32 10 31 16 25 C 30 12 49 21 46 39 C 45 52 31 71 15 85 C 7 91 5 97 7 99 C 7 100 15 100 41 100 C 78 100 76 102 81 93 C 88 79 85 74 74 81 C 65 88 37 89 35 83 C 34 80 34 80 49 62 C 64 46 68 36 64 22 C 60 7 37 0 21 8 z" fill="black"/><!-- width=94 height=113 -->
<path id="gl516" d="M 15 7 C 2 11 5 31 18 31 C 30 31 35 18 27 10 C 24 9 23 7 22 7 C 22 7 20 6 19 6 C 19 6 17 6 15 7 z" fill="black"/><!-- width=44 height=43 -->
<path id="gl9500" d="M 7 7 C 4 9 6 12 10 14 C 21 18 20 15 20 79 C 20 142 21 140 12 143 C 6 147 3 149 6 152 C 8 153 53 154 56 152 C 59 149 58 147 52 145 C 41 140 41 143 41 79 C 41 15 41 18 51 14 C 57 13 58 9 57 7 C 54 4 8 4 7 7 z" fill="black"/><!-- width=68 height=163 -->
<path id="gl4875" d="M 29 6 C 14 7 8 16 8 28 C 8 42 11 45 32 59 C 44 66 48 76 40 85 C 34 94 22 90 13 76 C 7 68 3 68 3 76 C 2 91 11 98 29 97 C 49 96 59 87 59 72 C 59 59 54 51 38 43 C 23 34 18 25 25 18 C 32 11 42 12 48 21 C 55 29 59 29 59 19 C 59 7 49 2 29 6 z" fill="black"/><!-- width=71 height=108 -->
<path id="gl8" d="M 20 8 C 9 12 8 16 13 25 C 14 26 15 29 15 30 C 15 49 15 67 15 87 C 15 148 16 148 9 154 C 6 158 4 159 6 160 C 8 163 41 164 43 162 C 45 160 45 157 41 153 C 38 152 36 148 36 147 C 35 142 35 95 36 93 C 41 84 55 82 64 87 C 75 91 76 95 75 124 C 75 131 75 140 75 148 C 73 150 71 151 70 153 C 64 158 64 158 65 162 C 67 165 104 164 106 160 C 107 158 107 158 104 156 C 94 148 93 145 94 118 C 95 99 94 89 89 82 C 81 71 66 67 52 73 C 36 81 33 78 35 61 C 36 44 36 9 35 7 C 32 4 27 4 20 8 z" fill="black"/><!-- width=117 height=174 -->
<path id="gl0" d="M 42 6 C 27 8 16 17 10 31 C 5 42 6 67 11 77 C 30 111 83 106 95 68 C 106 31 78 -1 42 6 M 61 18 C 81 28 82 73 63 86 C 45 99 23 78 26 47 C 27 22 42 8 61 18 z" fill="black"/><!-- width=111 height=111 -->
<path id="gl256" d="M 16 4 C 4 6 3 9 9 18 C 12 23 13 23 13 49 C 13 63 13 78 14 80 C 18 95 38 101 57 94 C 68 89 68 89 72 94 C 75 98 78 98 93 94 C 105 91 108 88 99 83 C 89 79 89 79 90 42 C 90 23 90 7 90 7 C 89 3 84 3 75 4 C 62 6 59 9 67 16 C 68 18 70 22 70 24 C 73 31 73 69 70 74 C 65 86 41 88 33 77 C 31 72 31 72 31 39 C 31 28 32 17 32 7 C 31 6 29 6 28 4 C 26 2 24 2 16 4 z" fill="black"/><!-- width=114 height=109 -->
<path id="gl260" d="M 15 7 C 7 11 6 14 11 22 C 11 23 12 25 13 27 C 13 45 13 63 13 82 C 14 147 14 147 8 153 C 1 160 3 163 23 163 C 41 163 44 160 36 152 C 35 151 33 149 31 147 C 31 124 31 100 31 77 C 31 2 31 3 25 3 C 24 3 19 6 15 7 z" fill="black"/><!-- width=51 height=172 -->
<path id="gl258" d="M 77 7 C 66 11 65 14 71 25 C 74 32 75 32 75 47 C 75 70 75 69 57 70 C 26 71 11 84 7 112 C 2 148 32 175 62 161 C 69 158 70 158 76 162 C 81 165 81 165 89 164 C 106 161 112 155 101 151 C 99 149 95 148 94 145 C 93 143 93 85 93 35 C 94 26 94 17 94 8 C 93 8 91 7 91 5 C 88 3 85 3 77 7 M 66 82 C 74 87 75 91 74 118 C 74 126 74 134 74 143 C 72 143 71 145 70 145 C 59 156 37 148 29 131 C 16 102 41 68 66 82 z" fill="black"/><!-- width=118 height=176 -->
<path id="gl517" d="M 24 6 C 19 8 11 14 9 17 C 9 18 11 22 12 25 C 13 28 14 29 14 32 C 14 49 14 66 14 83 C 14 137 14 141 8 147 C 1 155 4 157 28 157 C 46 157 48 156 48 152 C 48 150 48 149 43 146 C 35 142 33 140 33 120 C 33 102 34 101 45 102 C 76 104 102 81 103 48 C 103 19 77 0 52 8 C 40 13 36 13 34 9 C 32 6 28 4 24 6 M 70 25 C 83 34 86 61 75 80 C 66 93 44 96 36 82 C 34 78 33 76 33 56 C 33 27 35 23 46 22 C 55 20 64 22 70 25 z" fill="black"/><!-- width=114 height=167 -->
<path id="gl518" d="M 21 7 C 10 12 7 15 12 22 C 15 27 15 28 15 55 C 15 64 15 73 15 81 C 13 83 12 84 10 86 C 2 94 3 95 25 97 C 44 97 49 97 47 93 C 47 90 46 89 40 86 C 34 85 32 83 32 57 C 32 35 32 28 36 23 C 39 21 46 21 50 23 C 62 30 74 18 65 8 C 60 5 55 5 46 10 C 37 13 36 13 32 8 C 28 3 30 3 21 7 z" fill="black"/><!-- width=78 height=107 -->
<path id="gl7" d="M 37 6 C 18 9 1 26 4 33 C 8 41 19 36 24 26 C 26 19 31 16 36 16 C 47 16 50 22 50 36 C 50 47 48 49 33 54 C 9 60 2 68 4 83 C 7 98 23 104 39 95 C 42 94 46 92 48 90 C 50 92 54 94 57 95 C 65 100 72 101 78 96 C 87 93 87 88 78 87 C 68 85 65 79 68 54 C 69 23 68 13 58 8 C 52 4 43 3 37 6 M 48 62 C 57 70 48 88 34 88 C 17 88 18 68 37 62 C 44 58 44 58 48 62 z" fill="black"/><!-- width=94 height=110 -->
<path id="gl777" d="M 44 6 C 29 9 18 17 12 29 C 3 48 7 75 19 86 C 37 103 68 101 83 85 C 91 75 85 68 75 75 C 68 81 65 83 55 83 C 31 83 16 55 28 32 C 37 13 55 11 72 23 C 79 31 89 21 84 11 C 80 4 58 2 44 6 z" fill="black"/><!-- width=98 height=110 -->
<path id="gl1" d="M 20 11 C 18 13 14 17 11 19 C 4 23 4 25 8 30 C 11 31 12 34 13 35 C 13 36 13 50 13 66 C 13 96 14 103 23 106 C 34 111 54 109 57 103 C 61 98 58 95 49 96 C 33 96 31 94 31 58 C 30 28 30 29 42 29 C 55 30 57 30 60 28 C 62 25 62 24 60 22 C 58 18 58 18 47 18 C 35 17 34 17 31 9 C 29 3 24 3 20 11 z" fill="black"/><!-- width=71 height=121 -->
<path id="gl2" d="M 18 4 C 11 8 9 19 14 25 C 27 37 43 19 32 7 C 28 3 23 3 18 4 M 18 61 C 9 66 8 70 13 79 C 14 82 16 85 14 110 C 14 119 14 128 14 137 C 13 139 12 140 9 142 C 4 148 4 148 7 150 C 8 152 12 152 24 152 C 45 152 48 150 39 140 C 37 139 35 138 34 137 C 34 124 34 112 34 100 C 34 79 33 61 33 60 C 32 58 25 58 18 61 z" fill="black"/><!-- width=54 height=163 -->
<path id="gl262" d="M 41 6 C 31 10 23 13 17 21 C 2 38 3 72 21 87 C 37 101 66 100 80 85 C 87 76 82 71 73 77 C 50 93 21 73 23 45 C 25 30 33 18 46 15 C 52 13 58 15 67 21 C 78 28 86 23 82 13 C 78 5 58 1 41 6 z" fill="black"/><!-- width=93 height=108 -->
<path id="gl6" d="M 39 3 C 18 9 7 26 7 52 C 7 80 22 96 50 94 C 65 94 78 86 78 78 C 78 74 75 74 67 78 C 47 88 21 72 21 47 C 21 37 23 37 50 37 C 78 37 79 37 80 29 C 83 13 59 0 39 3 M 57 14 C 67 22 59 29 42 29 C 29 29 26 27 29 21 C 34 12 50 8 57 14 z" fill="black"/><!-- width=91 height=106 -->
<path id="gl5" d="M 38 7 C 19 13 8 30 8 56 C 8 80 20 96 42 99 C 55 101 71 96 78 89 C 85 79 80 76 69 82 C 49 91 24 76 24 51 C 24 40 24 40 53 40 C 61 40 69 40 78 40 C 78 39 79 38 80 36 C 84 33 84 28 80 22 C 74 8 56 2 38 7 M 57 15 C 65 20 65 28 57 30 C 52 33 35 33 33 30 C 30 28 30 25 34 22 C 40 14 50 12 57 15 z" fill="black"/><!-- width=94 height=112 -->
<path id="gl7" d="M 37 6 C 18 9 1 26 4 33 C 8 41 19 36 24 26 C 26 19 31 16 36 16 C 47 16 50 22 50 36 C 50 47 48 49 33 54 C 9 60 2 68 4 83 C 7 98 23 104 39 95 C 42 94 46 92 48 90 C 50 92 54 94 57 95 C 65 100 72 101 78 96 C 87 93 87 88 78 87 C 68 85 65 79 68 54 C 69 23 68 13 58 8 C 52 4 43 3 37 6 M 48 62 C 57 70 48 88 34 88 C 17 88 18 68 37 62 C 44 58 44 58 48 62 z" fill="black"/><!-- width=94 height=110 -->
<path id="gl5142" d="M 41 6 C 17 13 4 30 7 59 C 8 82 18 96 40 99 C 59 104 88 88 83 78 C 81 75 78 75 71 80 C 50 96 23 78 23 49 C 23 19 48 4 69 22 C 75 28 82 24 82 17 C 82 6 64 1 41 6 z" fill="black"/><!-- width=92 height=112 -->
<path id="gl8" d="M 20 8 C 9 12 8 16 13 25 C 14 26 15 29 15 30 C 15 49 15 67 15 87 C 15 148 16 148 9 154 C 6 158 4 159 6 160 C 8 163 41 164 43 162 C 45 160 45 157 41 153 C 38 152 36 148 36 147 C 35 142 35 95 36 93 C 41 84 55 82 64 87 C 75 91 76 95 75 124 C 75 131 75 140 75 148 C 73 150 71 151 70 153 C 64 158 64 158 65 162 C 67 165 104 164 106 160 C 107 158 107 158 104 156 C 94 148 93 145 94 118 C 95 99 94 89 89 82 C 81 71 66 67 52 73 C 36 81 33 78 35 61 C 36 44 36 9 35 7 C 32 4 27 4 20 8 z" fill="black"/><!-- width=117 height=174 -->
<path id="gl513" d="M 14 8 C 4 12 3 15 8 24 C 9 25 10 27 12 30 C 12 51 12 72 12 94 C 10 165 10 160 20 161 C 24 162 31 164 37 165 C 72 172 101 146 98 111 C 96 82 71 63 45 72 C 30 78 28 76 30 49 C 31 14 31 9 30 7 C 27 4 21 4 14 8 M 56 85 C 70 90 77 101 77 118 C 78 141 68 155 50 155 C 35 155 30 147 30 118 C 28 106 30 94 30 92 C 32 83 43 80 56 85 z" fill="black"/><!-- width=112 height=177 -->
<path id="gl5391" d="M 36 5 C 17 12 7 26 6 49 C 3 78 20 98 46 98 C 65 98 88 83 79 75 C 78 73 71 75 70 76 C 70 78 66 80 64 81 C 45 89 22 73 21 49 C 21 39 21 39 47 39 C 79 40 83 39 80 25 C 78 10 54 0 36 5 M 58 16 C 61 20 63 23 60 27 C 56 31 30 31 27 27 C 22 18 47 8 58 16 z" fill="black"/><!-- width=92 height=109 -->
<path id="gl8" d="M 20 8 C 9 12 8 16 13 25 C 14 26 15 29 15 30 C 15 49 15 67 15 87 C 15 148 16 148 9 154 C 6 158 4 159 6 160 C 8 163 41 164 43 162 C 45 160 45 157 41 153 C 38 152 36 148 36 147 C 35 142 35 95 36 93 C 41 84 55 82 64 87 C 75 91 76 95 75 124 C 75 131 75 140 75 148 C 73 150 71 151 70 153 C 64 158 64 158 65 162 C 67 165 104 164 106 160 C 107 158 107 158 104 156 C 94 148 93 145 94 118 C 95 99 94 89 89 82 C 81 71 66 67 52 73 C 36 81 33 78 35 61 C 36 44 36 9 35 7 C 32 4 27 4 20 8 z" fill="black"/><!-- width=117 height=174 -->
<path id="gl7" d="M 37 6 C 18 9 1 26 4 33 C 8 41 19 36 24 26 C 26 19 31 16 36 16 C 47 16 50 22 50 36 C 50 47 48 49 33 54 C 9 60 2 68 4 83 C 7 98 23 104 39 95 C 42 94 46 92 48 90 C 50 92 54 94 57 95 C 65 100 72 101 78 96 C 87 93 87 88 78 87 C 68 85 65 79 68 54 C 69 23 68 13 58 8 C 52 4 43 3 37 6 M 48 62 C 57 70 48 88 34 88 C 17 88 18 68 37 62 C 44 58 44 58 48 62 z" fill="black"/><!-- width=94 height=110 -->
<path id="gl1025" d="M 7 8 C 4 11 4 11 12 17 C 18 23 19 24 26 38 C 28 47 33 59 36 65 C 39 72 42 80 43 84 C 48 102 54 100 62 80 C 67 68 70 60 84 31 C 88 24 90 19 95 16 C 102 11 102 9 99 7 C 97 4 77 4 72 6 C 69 7 69 12 72 16 C 74 19 74 22 68 37 C 62 56 59 63 57 63 C 54 63 51 59 48 51 C 46 46 43 38 42 34 C 38 26 38 18 41 14 C 46 7 42 4 23 4 C 11 4 9 6 7 8 z" fill="black"/><!-- width=110 height=107 -->
<path id="gl2" d="M 18 4 C 11 8 9 19 14 25 C 27 37 43 19 32 7 C 28 3 23 3 18 4 M 18 61 C 9 66 8 70 13 79 C 14 82 16 85 14 110 C 14 119 14 128 14 137 C 13 139 12 140 9 142 C 4 148 4 148 7 150 C 8 152 12 152 24 152 C 45 152 48 150 39 140 C 37 139 35 138 34 137 C 34 124 34 112 34 100 C 34 79 33 61 33 60 C 32 58 25 58 18 61 z" fill="black"/><!-- width=54 height=163 -->
<path id="gl0" d="M 42 6 C 27 8 16 17 10 31 C 5 42 6 67 11 77 C 30 111 83 106 95 68 C 106 31 78 -1 42 6 M 61 18 C 81 28 82 73 63 86 C 45 99 23 78 26 47 C 27 22 42 8 61 18 z" fill="black"/><!-- width=111 height=111 -->
<path id="gl4" d="M 16 9 C 8 13 7 16 12 24 C 13 28 14 32 14 54 C 14 80 13 86 8 87 C 6 90 3 94 4 95 C 7 99 44 99 45 95 C 47 92 44 90 40 90 C 39 90 37 87 35 86 C 34 85 33 84 32 84 C 32 74 32 65 32 56 C 32 29 32 29 34 26 C 38 22 43 22 49 24 C 59 28 66 24 66 17 C 66 4 55 2 44 11 C 37 16 34 14 32 9 C 29 4 26 3 16 9 z" fill="black"/><!-- width=76 height=108 -->
<path id="gl9" d="M 37 7 C 20 12 7 22 7 31 C 7 41 23 38 27 27 C 31 18 37 15 46 17 C 52 20 55 25 55 35 C 56 47 53 48 37 55 C 13 61 7 66 7 78 C 7 96 25 105 43 95 C 52 91 55 91 62 96 C 72 103 95 96 88 88 C 87 87 85 87 82 87 C 71 87 70 81 72 51 C 72 33 72 27 72 22 C 68 8 53 2 37 7 M 53 63 C 58 71 51 86 42 87 C 20 87 21 68 42 61 C 48 60 51 60 53 63 z" fill="black"/><!-- width=98 height=110 -->
<path id="gl5398" d="M 18 7 C 7 10 4 15 10 23 C 12 24 12 25 13 26 C 13 46 13 65 13 85 C 14 150 13 152 7 157 C 4 158 4 159 4 162 C 4 164 6 164 21 165 C 31 165 39 165 41 164 C 43 163 43 159 39 156 C 31 151 31 153 32 76 C 32 -2 34 1 18 7 z" fill="black"/><!-- width=53 height=176 -->
<path id="gl777" d="M 44 6 C 29 9 18 17 12 29 C 3 48 7 75 19 86 C 37 103 68 101 83 85 C 91 75 85 68 75 75 C 68 81 65 83 55 83 C 31 83 16 55 28 32 C 37 13 55 11 72 23 C 79 31 89 21 84 11 C 80 4 58 2 44 6 z" fill="black"/><!-- width=98 height=110 -->
<path id="gl8" d="M 20 8 C 9 12 8 16 13 25 C 14 26 15 29 15 30 C 15 49 15 67 15 87 C 15 148 16 148 9 154 C 6 158 4 159 6 160 C 8 163 41 164 43 162 C 45 160 45 157 41 153 C 38 152 36 148 36 147 C 35 142 35 95 36 93 C 41 84 55 82 64 87 C 75 91 76 95 75 124 C 75 131 75 140 75 148 C 73 150 71 151 70 153 C 64 158 64 158 65 162 C 67 165 104 164 106 160 C 107 158 107 158 104 156 C 94 148 93 145 94 118 C 95 99 94 89 89 82 C 81 71 66 67 52 73 C 36 81 33 78 35 61 C 36 44 36 9 35 7 C 32 4 27 4 20 8 z" fill="black"/><!-- width=117 height=174 -->
<path id="gl7" d="M 37 6 C 18 9 1 26 4 33 C 8 41 19 36 24 26 C 26 19 31 16 36 16 C 47 16 50 22 50 36 C 50 47 48 49 33 54 C 9 60 2 68 4 83 C 7 98 23 104 39 95 C 42 94 46 92 48 90 C 50 92 54 94 57 95 C 65 100 72 101 78 96 C 87 93 87 88 78 87 C 68 85 65 79 68 54 C 69 23 68 13 58 8 C 52 4 43 3 37 6 M 48 62 C 57 70 48 88 34 88 C 17 88 18 68 37 62 C 44 58 44 58 48 62 z" fill="black"/><!-- width=94 height=110 -->
<path id="gl3" d="M 20 8 C 10 13 8 16 13 23 C 16 27 16 28 16 50 C 17 79 16 83 10 89 C 2 96 3 98 25 99 C 46 99 49 96 40 88 C 39 86 36 85 35 84 C 35 75 35 66 35 57 C 33 23 36 20 54 20 C 73 20 75 23 75 56 C 74 83 74 85 67 89 C 64 93 64 96 67 98 C 71 99 101 99 104 98 C 105 95 104 91 99 89 C 94 85 94 83 93 52 C 93 25 93 23 90 18 C 81 3 67 2 44 12 C 39 13 39 13 36 10 C 31 5 27 5 20 8 z" fill="black"/><!-- width=115 height=110 -->
<path id="gl521" d="M 35 6 C 11 11 1 37 15 58 C 20 64 20 68 17 73 C 7 81 7 85 14 95 C 20 102 20 105 14 112 C 7 119 6 122 6 129 C 6 165 77 163 92 128 C 101 111 96 94 80 89 C 77 88 70 86 55 88 C 34 88 34 88 30 85 C 22 77 28 69 46 67 C 68 66 77 58 80 37 C 81 28 84 24 90 23 C 103 20 97 11 83 11 C 78 11 72 11 66 8 C 55 4 42 3 35 6 M 55 17 C 68 29 63 57 47 59 C 37 62 28 50 28 36 C 28 19 44 8 55 17 M 73 105 C 85 112 83 132 68 139 C 59 143 42 143 34 139 C 18 130 20 107 39 102 C 47 101 67 102 73 105 z" fill="black"/><!-- width=106 height=166 -->
<path id="gl522" d="M 36 8 C 14 14 2 38 7 66 C 9 90 22 101 47 101 C 66 101 85 89 78 79 C 77 77 77 77 72 79 C 61 85 59 87 53 87 C 36 87 21 70 21 53 C 21 42 20 42 49 42 C 58 42 66 43 74 43 C 76 42 77 41 78 39 C 85 32 78 18 65 10 C 58 7 45 6 36 8 M 54 18 C 60 20 62 27 58 31 C 55 35 32 36 29 32 C 26 30 26 27 31 22 C 38 16 47 14 54 18 z" fill="black"/><!-- width=91 height=113 -->
<path id="gl1" d="M 20 11 C 18 13 14 17 11 19 C 4 23 4 25 8 30 C 11 31 12 34 13 35 C 13 36 13 50 13 66 C 13 96 14 103 23 106 C 34 111 54 109 57 103 C 61 98 58 95 49 96 C 33 96 31 94 31 58 C 30 28 30 29 42 29 C 55 30 57 30 60 28 C 62 25 62 24 60 22 C 58 18 58 18 47 18 C 35 17 34 17 31 9 C 29 3 24 3 20 11 z" fill="black"/><!-- width=71 height=121 -->
<path id="gl8" d="M 20 8 C 9 12 8 16 13 25 C 14 26 15 29 15 30 C 15 49 15 67 15 87 C 15 148 16 148 9 154 C 6 158 4 159 6 160 C 8 163 41 164 43 162 C 45 160 45 157 41 153 C 38 152 36 148 36 147 C 35 142 35 95 36 93 C 41 84 55 82 64 87 C 75 91 76 95 75 124 C 75 131 75 140 75 148 C 73 150 71 151 70 153 C 64 158 64 158 65 162 C 67 165 104 164 106 160 C 107 158 107 158 104 156 C 94 148 93 145 94 118 C 95 99 94 89 89 82 C 81 71 66 67 52 73 C 36 81 33 78 35 61 C 36 44 36 9 35 7 C 32 4 27 4 20 8 z" fill="black"/><!-- width=117 height=174 -->
<path id="gl6" d="M 39 3 C 18 9 7 26 7 52 C 7 80 22 96 50 94 C 65 94 78 86 78 78 C 78 74 75 74 67 78 C 47 88 21 72 21 47 C 21 37 23 37 50 37 C 78 37 79 37 80 29 C 83 13 59 0 39 3 M 57 14 C 67 22 59 29 42 29 C 29 29 26 27 29 21 C 34 12 50 8 57 14 z" fill="black"/><!-- width=91 height=106 -->
<path id="gl3" d="M 20 8 C 10 13 8 16 13 23 C 16 27 16 28 16 50 C 17 79 16 83 10 89 C 2 96 3 98 25 99 C 46 99 49 96 40 88 C 39 86 36 85 35 84 C 35 75 35 66 35 57 C 33 23 36 20 54 20 C 73 20 75 23 75 56 C 74 83 74 85 67 89 C 64 93 64 96 67 98 C 71 99 101 99 104 98 C 105 95 104 91 99 89 C 94 85 94 83 93 52 C 93 25 93 23 90 18 C 81 3 67 2 44 12 C 39 13 39 13 36 10 C 31 5 27 5 20 8 z" fill="black"/><!-- width=115 height=110 -->
<path id="gl256" d="M 16 4 C 4 6 3 9 9 18 C 12 23 13 23 13 49 C 13 63 13 78 14 80 C 18 95 38 101 57 94 C 68 89 68 89 72 94 C 75 98 78 98 93 94 C 105 91 108 88 99 83 C 89 79 89 79 90 42 C 90 23 90 7 90 7 C 89 3 84 3 75 4 C 62 6 59 9 67 16 C 68 18 70 22 70 24 C 73 31 73 69 70 74 C 65 86 41 88 33 77 C 31 72 31 72 31 39 C 31 28 32 17 32 7 C 31 6 29 6 28 4 C 26 2 24 2 16 4 z" fill="black"/><!-- width=114 height=109 -->
<path id="gl259" d="M 19 8 C 9 13 8 16 13 25 C 19 38 17 88 9 88 C 9 88 8 91 7 92 C 3 98 6 100 24 100 C 46 100 48 98 40 88 C 39 87 37 86 35 83 C 35 75 35 66 35 58 C 34 29 35 27 43 22 C 49 18 62 19 69 24 C 74 29 74 34 74 55 C 74 79 74 83 69 88 C 65 92 64 97 66 98 C 66 98 74 100 83 100 C 104 100 107 97 98 88 C 97 87 95 86 93 83 C 93 75 93 66 93 58 C 93 33 93 32 96 28 C 102 17 123 17 129 29 C 132 33 132 37 132 56 C 132 81 132 85 125 88 C 122 92 122 97 124 98 C 128 100 158 100 160 97 C 163 96 163 93 158 90 C 151 85 150 82 150 55 C 150 28 150 23 145 16 C 137 3 118 2 101 12 C 93 17 90 17 83 13 C 72 4 64 3 51 8 C 40 13 38 13 35 9 C 32 4 28 4 19 8 z" fill="black"/><!-- width=172 height=109 -->
<path id="gl513" d="M 14 8 C 4 12 3 15 8 24 C 9 25 10 27 12 30 C 12 51 12 72 12 94 C 10 165 10 160 20 161 C 24 162 31 164 37 165 C 72 172 101 146 98 111 C 96 82 71 63 45 72 C 30 78 28 76 30 49 C 31 14 31 9 30 7 C 27 4 21 4 14 8 M 56 85 C 70 90 77 101 77 118 C 78 141 68 155 50 155 C 35 155 30 147 30 118 C 28 106 30 94 30 92 C 32 83 43 80 56 85 z" fill="black"/><!-- width=112 height=177 -->
<path id="gl5" d="M 38 7 C 19 13 8 30 8 56 C 8 80 20 96 42 99 C 55 101 71 96 78 89 C 85 79 80 76 69 82 C 49 91 24 76 24 51 C 24 40 24 40 53 40 C 61 40 69 40 78 40 C 78 39 79 38 80 36 C 84 33 84 28 80 22 C 74 8 56 2 38 7 M 57 15 C 65 20 65 28 57 30 C 52 33 35 33 33 30 C 30 28 30 25 34 22 C 40 14 50 12 57 15 z" fill="black"/><!-- width=94 height=112 -->
<path id="gl4" d="M 16 9 C 8 13 7 16 12 24 C 13 28 14 32 14 54 C 14 80 13 86 8 87 C 6 90 3 94 4 95 C 7 99 44 99 45 95 C 47 92 44 90 40 90 C 39 90 37 87 35 86 C 34 85 33 84 32 84 C 32 74 32 65 32 56 C 32 29 32 29 34 26 C 38 22 43 22 49 24 C 59 28 66 24 66 17 C 66 4 55 2 44 11 C 37 16 34 14 32 9 C 29 4 26 3 16 9 z" fill="black"/><!-- width=76 height=108 -->
<path id="gl0" d="M 42 6 C 27 8 16 17 10 31 C 5 42 6 67 11 77 C 30 111 83 106 95 68 C 106 31 78 -1 42 6 M 61 18 C 81 28 82 73 63 86 C 45 99 23 78 26 47 C 27 22 42 8 61 18 z" fill="black"/><!-- width=111 height=111 -->
<path id="gl5138" d="M 50 6 C 29 12 18 28 16 58 C 14 66 13 71 11 75 C 8 80 7 82 8 84 C 14 92 14 91 14 118 C 14 147 13 148 9 153 C 2 160 6 163 25 163 C 45 163 49 161 40 154 C 33 148 32 144 32 116 C 32 92 32 91 35 88 C 38 86 39 86 46 86 C 55 87 61 85 61 80 C 61 76 58 74 46 74 C 32 74 29 70 34 44 C 39 17 48 12 66 24 C 75 30 84 27 84 18 C 84 7 66 1 50 6 z" fill="black"/><!-- width=92 height=173 -->
<path id="gl1027" d="M 22 12 C 20 15 15 19 13 20 C 7 24 6 26 12 32 C 13 33 14 35 16 36 C 16 47 16 56 16 66 C 15 105 18 107 36 111 C 47 112 61 106 60 100 C 60 98 59 98 52 98 C 42 99 37 96 35 91 C 32 85 31 38 33 33 C 35 32 35 31 36 30 C 39 30 43 31 47 31 C 59 31 62 30 62 25 C 62 20 59 18 48 19 C 38 20 37 19 33 12 C 30 4 29 4 22 12 z" fill="black"/><!-- width=72 height=122 -->
<path id="gl2" d="M 18 4 C 11 8 9 19 14 25 C 27 37 43 19 32 7 C 28 3 23 3 18 4 M 18 61 C 9 66 8 70 13 79 C 14 82 16 85 14 110 C 14 119 14 128 14 137 C 13 139 12 140 9 142 C 4 148 4 148 7 150 C 8 152 12 152 24 152 C 45 152 48 150 39 140 C 37 139 35 138 34 137 C 34 124 34 112 34 100 C 34 79 33 61 33 60 C 32 58 25 58 18 61 z" fill="black"/><!-- width=54 height=163 -->
<path id="gl259" d="M 19 8 C 9 13 8 16 13 25 C 19 38 17 88 9 88 C 9 88 8 91 7 92 C 3 98 6 100 24 100 C 46 100 48 98 40 88 C 39 87 37 86 35 83 C 35 75 35 66 35 58 C 34 29 35 27 43 22 C 49 18 62 19 69 24 C 74 29 74 34 74 55 C 74 79 74 83 69 88 C 65 92 64 97 66 98 C 66 98 74 100 83 100 C 104 100 107 97 98 88 C 97 87 95 86 93 83 C 93 75 93 66 93 58 C 93 33 93 32 96 28 C 102 17 123 17 129 29 C 132 33 132 37 132 56 C 132 81 132 85 125 88 C 122 92 122 97 124 98 C 128 100 158 100 160 97 C 163 96 163 93 158 90 C 151 85 150 82 150 55 C 150 28 150 23 145 16 C 137 3 118 2 101 12 C 93 17 90 17 83 13 C 72 4 64 3 51 8 C 40 13 38 13 35 9 C 32 4 28 4 19 8 z" fill="black"/><!-- width=172 height=109 -->
<path id="gl261" d="M 39 6 C 18 10 7 26 7 54 C 7 73 9 79 18 87 C 32 102 63 102 75 87 C 83 80 76 76 67 81 C 46 92 23 75 21 51 C 21 40 23 39 50 40 C 76 41 80 40 81 30 C 81 13 59 1 39 6 M 54 15 C 62 18 62 28 54 30 C 50 32 34 32 30 31 C 28 29 28 25 32 20 C 37 14 46 12 54 15 z" fill="black"/><!-- width=91 height=111 -->
<path id="gl4875" d="M 29 6 C 14 7 8 16 8 28 C 8 42 11 45 32 59 C 44 66 48 76 40 85 C 34 94 22 90 13 76 C 7 68 3 68 3 76 C 2 91 11 98 29 97 C 49 96 59 87 59 72 C 59 59 54 51 38 43 C 23 34 18 25 25 18 C 32 11 42 12 48 21 C 55 29 59 29 59 19 C 59 7 49 2 29 6 z" fill="black"/><!-- width=71 height=108 -->
<path id="gl3" d="M 20 8 C 10 13 8 16 13 23 C 16 27 16 28 16 50 C 17 79 16 83 10 89 C 2 96 3 98 25 99 C 46 99 49 96 40 88 C 39 86 36 85 35 84 C 35 75 35 66 35 57 C 33 23 36 20 54 20 C 73 20 75 23 75 56 C 74 83 74 85 67 89 C 64 93 64 96 67 98 C 71 99 101 99 104 98 C 105 95 104 91 99 89 C 94 85 94 83 93 52 C 93 25 93 23 90 18 C 81 3 67 2 44 12 C 39 13 39 13 36 10 C 31 5 27 5 20 8 z" fill="black"/><!-- width=115 height=110 -->
<path id="gl5" d="M 38 7 C 19 13 8 30 8 56 C 8 80 20 96 42 99 C 55 101 71 96 78 89 C 85 79 80 76 69 82 C 49 91 24 76 24 51 C 24 40 24 40 53 40 C 61 40 69 40 78 40 C 78 39 79 38 80 36 C 84 33 84 28 80 22 C 74 8 56 2 38 7 M 57 15 C 65 20 65 28 57 30 C 52 33 35 33 33 30 C 30 28 30 25 34 22 C 40 14 50 12 57 15 z" fill="black"/><!-- width=94 height=112 -->
<path id="gl262" d="M 41 6 C 31 10 23 13 17 21 C 2 38 3 72 21 87 C 37 101 66 100 80 85 C 87 76 82 71 73 77 C 50 93 21 73 23 45 C 25 30 33 18 46 15 C 52 13 58 15 67 21 C 78 28 86 23 82 13 C 78 5 58 1 41 6 z" fill="black"/><!-- width=93 height=108 -->
<path id="gl261" d="M 39 6 C 18 10 7 26 7 54 C 7 73 9 79 18 87 C 32 102 63 102 75 87 C 83 80 76 76 67 81 C 46 92 23 75 21 51 C 21 40 23 39 50 40 C 76 41 80 40 81 30 C 81 13 59 1 39 6 M 54 15 C 62 18 62 28 54 30 C 50 32 34 32 30 31 C 28 29 28 25 32 20 C 37 14 46 12 54 15 z" fill="black"/><!-- width=91 height=111 -->
<path id="gl4875" d="M 29 6 C 14 7 8 16 8 28 C 8 42 11 45 32 59 C 44 66 48 76 40 85 C 34 94 22 90 13 76 C 7 68 3 68 3 76 C 2 91 11 98 29 97 C 49 96 59 87 59 72 C 59 59 54 51 38 43 C 23 34 18 25 25 18 C 32 11 42 12 48 21 C 55 29 59 29 59 19 C 59 7 49 2 29 6 z" fill="black"/><!-- width=71 height=108 -->
<path id="gl257" d="M 31 6 C 24 8 17 13 13 20 C 6 35 11 45 33 58 C 48 69 52 77 45 85 C 37 94 25 91 19 80 C 11 66 3 67 6 82 C 7 93 13 99 28 100 C 53 104 72 83 62 62 C 60 55 56 52 42 44 C 26 34 22 26 30 18 C 37 12 46 14 53 24 C 60 33 67 29 64 18 C 62 7 50 3 31 6 z" fill="black"/><!-- width=78 height=112 -->
<path id="gl9" d="M 37 7 C 20 12 7 22 7 31 C 7 41 23 38 27 27 C 31 18 37 15 46 17 C 52 20 55 25 55 35 C 56 47 53 48 37 55 C 13 61 7 66 7 78 C 7 96 25 105 43 95 C 52 91 55 91 62 96 C 72 103 95 96 88 88 C 87 87 85 87 82 87 C 71 87 70 81 72 51 C 72 33 72 27 72 22 C 68 8 53 2 37 7 M 53 63 C 58 71 51 86 42 87 C 20 87 21 68 42 61 C 48 60 51 60 53 63 z" fill="black"/><!-- width=98 height=110 -->
<path id="gl4" d="M 16 9 C 8 13 7 16 12 24 C 13 28 14 32 14 54 C 14 80 13 86 8 87 C 6 90 3 94 4 95 C 7 99 44 99 45 95 C 47 92 44 90 40 90 C 39 90 37 87 35 86 C 34 85 33 84 32 84 C 32 74 32 65 32 56 C 32 29 32 29 34 26 C 38 22 43 22 49 24 C 59 28 66 24 66 17 C 66 4 55 2 44 11 C 37 16 34 14 32 9 C 29 4 26 3 16 9 z" fill="black"/><!-- width=76 height=108 -->
<path id="gl5639" d="M 8 6 C 6 8 6 12 10 14 C 18 19 20 23 31 53 C 45 90 45 94 35 113 C 29 125 25 129 18 130 C 4 132 6 152 19 152 C 30 152 34 146 54 98 C 64 73 90 24 93 20 C 94 18 97 15 99 14 C 104 12 105 8 102 6 C 98 2 71 4 69 7 C 68 9 68 10 70 13 C 76 19 75 23 70 38 C 57 71 54 71 46 43 C 38 19 38 20 42 14 C 47 9 47 6 42 4 C 38 3 9 3 8 6 z" fill="black"/><!-- width=114 height=161 -->
<path id="gl769" d="M 48 6 C 28 14 18 29 15 61 C 14 70 13 73 11 78 C 8 81 7 83 8 84 C 15 94 15 91 14 121 C 14 130 14 139 14 147 C 13 150 12 151 11 154 C 3 162 4 163 24 163 C 44 165 50 162 41 156 C 33 152 33 149 33 118 C 33 85 31 86 47 86 C 57 86 62 85 61 79 C 59 77 55 74 46 75 C 33 77 30 73 33 51 C 36 18 46 9 66 22 C 74 28 77 28 80 24 C 92 12 69 0 48 6 z" fill="black"/><!-- width=94 height=174 -->
<path id="gl0" d="M 42 6 C 27 8 16 17 10 31 C 5 42 6 67 11 77 C 30 111 83 106 95 68 C 106 31 78 -1 42 6 M 61 18 C 81 28 82 73 63 86 C 45 99 23 78 26 47 C 27 22 42 8 61 18 z" fill="black"/><!-- width=111 height=111 -->
<path id="gl4" d="M 16 9 C 8 13 7 16 12 24 C 13 28 14 32 14 54 C 14 80 13 86 8 87 C 6 90 3 94 4 95 C 7 99 44 99 45 95 C 47 92 44 90 40 90 C 39 90 37 87 35 86 C 34 85 33 84 32 84 C 32 74 32 65 32 56 C 32 29 32 29 34 26 C 38 22 43 22 49 24 C 59 28 66 24 66 17 C 66 4 55 2 44 11 C 37 16 34 14 32 9 C 29 4 26 3 16 9 z" fill="black"/><!-- width=76 height=108 -->
<path id="gl259" d="M 19 8 C 9 13 8 16 13 25 C 19 38 17 88 9 88 C 9 88 8 91 7 92 C 3 98 6 100 24 100 C 46 100 48 98 40 88 C 39 87 37 86 35 83 C 35 75 35 66 35 58 C 34 29 35 27 43 22 C 49 18 62 19 69 24 C 74 29 74 34 74 55 C 74 79 74 83 69 88 C 65 92 64 97 66 98 C 66 98 74 100 83 100 C 104 100 107 97 98 88 C 97 87 95 86 93 83 C 93 75 93 66 93 58 C 93 33 93 32 96 28 C 102 17 123 17 129 29 C 132 33 132 37 132 56 C 132 81 132 85 125 88 C 122 92 122 97 124 98 C 128 100 158 100 160 97 C 163 96 163 93 158 90 C 151 85 150 82 150 55 C 150 28 150 23 145 16 C 137 3 118 2 101 12 C 93 17 90 17 83 13 C 72 4 64 3 51 8 C 40 13 38 13 35 9 C 32 4 28 4 19 8 z" fill="black"/><!-- width=172 height=109 -->
<path id="gl263" d="M 9 4 C 4 7 4 9 9 16 C 16 22 17 22 26 46 C 41 86 42 89 33 107 C 27 119 23 123 16 125 C 3 129 2 144 14 147 C 24 149 29 142 53 88 C 57 79 63 67 66 62 C 69 56 74 44 78 37 C 82 29 87 22 91 17 C 100 7 99 3 82 3 C 67 3 63 6 69 14 C 72 19 72 22 66 38 C 58 58 57 61 53 61 C 49 61 47 57 41 39 C 36 23 36 19 38 13 C 41 9 41 8 38 7 C 36 4 14 3 9 4 z" fill="black"/><!-- width=107 height=157 -->
<path id="gl9" d="M 37 7 C 20 12 7 22 7 31 C 7 41 23 38 27 27 C 31 18 37 15 46 17 C 52 20 55 25 55 35 C 56 47 53 48 37 55 C 13 61 7 66 7 78 C 7 96 25 105 43 95 C 52 91 55 91 62 96 C 72 103 95 96 88 88 C 87 87 85 87 82 87 C 71 87 70 81 72 51 C 72 33 72 27 72 22 C 68 8 53 2 37 7 M 53 63 C 58 71 51 86 42 87 C 20 87 21 68 42 61 C 48 60 51 60 53 63 z" fill="black"/><!-- width=98 height=110 -->
<path id="gl3" d="M 20 8 C 10 13 8 16 13 23 C 16 27 16 28 16 50 C 17 79 16 83 10 89 C 2 96 3 98 25 99 C 46 99 49 96 40 88 C 39 86 36 85 35 84 C 35 75 35 66 35 57 C 33 23 36 20 54 20 C 73 20 75 23 75 56 C 74 83 74 85 67 89 C 64 93 64 96 67 98 C 71 99 101 99 104 98 C 105 95 104 91 99 89 C 94 85 94 83 93 52 C 93 25 93 23 90 18 C 81 3 67 2 44 12 C 39 13 39 13 36 10 C 31 5 27 5 20 8 z" fill="black"/><!-- width=115 height=110 -->
<path id="gl772" d="M 7 7 C 5 10 6 12 12 17 C 18 21 35 42 37 49 C 40 55 25 74 10 85 C 6 89 5 89 6 92 C 8 94 8 95 18 95 C 32 95 34 94 34 85 C 32 75 39 64 45 64 C 49 64 54 69 56 75 C 59 79 59 80 56 85 C 54 94 55 95 73 95 C 93 95 97 93 85 84 C 78 78 59 55 58 49 C 55 41 66 25 79 17 C 93 10 92 6 74 6 C 60 6 60 6 59 16 C 59 31 50 37 42 29 C 39 25 37 21 39 13 C 40 7 37 6 22 6 C 13 6 8 6 7 7 z" fill="black"/><!-- width=102 height=104 -->
<path id="gl2" d="M 18 4 C 11 8 9 19 14 25 C 27 37 43 19 32 7 C 28 3 23 3 18 4 M 18 61 C 9 66 8 70 13 79 C 14 82 16 85 14 110 C 14 119 14 128 14 137 C 13 139 12 140 9 142 C 4 148 4 148 7 150 C 8 152 12 152 24 152 C 45 152 48 150 39 140 C 37 139 35 138 34 137 C 34 124 34 112 34 100 C 34 79 33 61 33 60 C 32 58 25 58 18 61 z" fill="black"/><!-- width=54 height=163 -->
<path id="gl5" d="M 38 7 C 19 13 8 30 8 56 C 8 80 20 96 42 99 C 55 101 71 96 78 89 C 85 79 80 76 69 82 C 49 91 24 76 24 51 C 24 40 24 40 53 40 C 61 40 69 40 78 40 C 78 39 79 38 80 36 C 84 33 84 28 80 22 C 74 8 56 2 38 7 M 57 15 C 65 20 65 28 57 30 C 52 33 35 33 33 30 C 30 28 30 25 34 22 C 40 14 50 12 57 15 z" fill="black"/><!-- width=94 height=112 -->
<path id="gl4894" d="M 14 13 C 6 22 6 23 9 28 C 12 32 12 33 13 63 C 13 91 13 93 16 97 C 21 107 32 111 44 107 C 58 103 59 97 46 96 C 31 94 31 93 29 58 C 29 49 29 41 28 33 C 29 32 31 31 32 29 C 34 26 36 26 44 27 C 53 28 57 27 57 22 C 57 18 56 17 44 16 C 41 16 37 16 33 16 C 32 14 32 12 31 11 C 27 3 24 4 14 13 z" fill="black"/><!-- width=67 height=118 -->
<path id="gl263" d="M 9 4 C 4 7 4 9 9 16 C 16 22 17 22 26 46 C 41 86 42 89 33 107 C 27 119 23 123 16 125 C 3 129 2 144 14 147 C 24 149 29 142 53 88 C 57 79 63 67 66 62 C 69 56 74 44 78 37 C 82 29 87 22 91 17 C 100 7 99 3 82 3 C 67 3 63 6 69 14 C 72 19 72 22 66 38 C 58 58 57 61 53 61 C 49 61 47 57 41 39 C 36 23 36 19 38 13 C 41 9 41 8 38 7 C 36 4 14 3 9 4 z" fill="black"/><!-- width=107 height=157 -->
<path id="gl512" d="M 20 8 C 9 13 7 17 13 24 C 14 26 15 27 17 29 C 17 48 17 69 17 88 C 17 108 17 127 17 148 C 14 149 13 152 10 153 C 4 159 4 161 7 163 C 9 164 42 164 43 163 C 47 161 46 158 41 154 C 34 149 34 149 35 76 C 35 -1 36 1 20 8 z" fill="black"/><!-- width=55 height=175 -->
<path id="gl5391" d="M 36 5 C 17 12 7 26 6 49 C 3 78 20 98 46 98 C 65 98 88 83 79 75 C 78 73 71 75 70 76 C 70 78 66 80 64 81 C 45 89 22 73 21 49 C 21 39 21 39 47 39 C 79 40 83 39 80 25 C 78 10 54 0 36 5 M 58 16 C 61 20 63 23 60 27 C 56 31 30 31 27 27 C 22 18 47 8 58 16 z" fill="black"/><!-- width=92 height=109 -->
<path id="gl1025" d="M 7 8 C 4 11 4 11 12 17 C 18 23 19 24 26 38 C 28 47 33 59 36 65 C 39 72 42 80 43 84 C 48 102 54 100 62 80 C 67 68 70 60 84 31 C 88 24 90 19 95 16 C 102 11 102 9 99 7 C 97 4 77 4 72 6 C 69 7 69 12 72 16 C 74 19 74 22 68 37 C 62 56 59 63 57 63 C 54 63 51 59 48 51 C 46 46 43 38 42 34 C 38 26 38 18 41 14 C 46 7 42 4 23 4 C 11 4 9 6 7 8 z" fill="black"/><!-- width=110 height=107 -->
<path id="gl261" d="M 39 6 C 18 10 7 26 7 54 C 7 73 9 79 18 87 C 32 102 63 102 75 87 C 83 80 76 76 67 81 C 46 92 23 75 21 51 C 21 40 23 39 50 40 C 76 41 80 40 81 30 C 81 13 59 1 39 6 M 54 15 C 62 18 62 28 54 30 C 50 32 34 32 30 31 C 28 29 28 25 32 20 C 37 14 46 12 54 15 z" fill="black"/><!-- width=91 height=111 -->
<path id="gl512" d="M 20 8 C 9 13 7 17 13 24 C 14 26 15 27 17 29 C 17 48 17 69 17 88 C 17 108 17 127 17 148 C 14 149 13 152 10 153 C 4 159 4 161 7 163 C 9 164 42 164 43 163 C 47 161 46 158 41 154 C 34 149 34 149 35 76 C 35 -1 36 1 20 8 z" fill="black"/><!-- width=55 height=175 -->
<path id="gl514" d="M 28 6 C 17 9 9 18 9 29 C 9 41 13 46 32 57 C 47 67 50 73 46 82 C 39 93 26 90 17 77 C 13 70 12 69 9 70 C 6 70 6 70 6 78 C 6 93 12 96 31 96 C 52 96 62 89 63 74 C 64 60 58 52 41 42 C 27 34 23 28 27 21 C 31 11 41 11 50 21 C 59 29 64 29 63 18 C 62 8 55 4 42 4 C 37 4 31 4 28 6 z" fill="black"/><!-- width=75 height=108 -->
<path id="gl768" d="M 19 11 C 14 16 11 19 11 19 C 7 19 8 24 11 28 C 12 29 13 31 16 33 C 16 42 16 50 16 59 C 16 95 16 99 27 105 C 37 110 59 106 58 99 C 58 95 58 95 49 95 C 33 94 33 91 32 55 C 32 26 32 27 48 27 C 59 28 62 27 62 22 C 62 17 58 14 48 16 C 39 17 33 13 33 9 C 33 7 31 4 28 4 C 27 4 23 7 19 11 z" fill="black"/><!-- width=73 height=117 -->
<path id="gl0" d="M 42 6 C 27 8 16 17 10 31 C 5 42 6 67 11 77 C 30 111 83 106 95 68 C 106 31 78 -1 42 6 M 61 18 C 81 28 82 73 63 86 C 45 99 23 78 26 47 C 27 22 42 8 61 18 z" fill="black"/><!-- width=111 height=111 -->
<path id="gl258" d="M 77 7 C 66 11 65 14 71 25 C 74 32 75 32 75 47 C 75 70 75 69 57 70 C 26 71 11 84 7 112 C 2 148 32 175 62 161 C 69 158 70 158 76 162 C 81 165 81 165 89 164 C 106 161 112 155 101 151 C 99 149 95 148 94 145 C 93 143 93 85 93 35 C 94 26 94 17 94 8 C 93 8 91 7 91 5 C 88 3 85 3 77 7 M 66 82 C 74 87 75 91 74 118 C 74 126 74 134 74 143 C 72 143 71 145 70 145 C 59 156 37 148 29 131 C 16 102 41 68 66 82 z" fill="black"/><!-- width=118 height=176 -->
<path id="gl5" d="M 38 7 C 19 13 8 30 8 56 C 8 80 20 96 42 99 C 55 101 71 96 78 89 C 85 79 80 76 69 82 C 49 91 24 76 24 51 C 24 40 24 40 53 40 C 61 40 69 40 78 40 C 78 39 79 38 80 36 C 84 33 84 28 80 22 C 74 8 56 2 38 7 M 57 15 C 65 20 65 28 57 30 C 52 33 35 33 33 30 C 30 28 30 25 34 22 C 40 14 50 12 57 15 z" fill="black"/><!-- width=94 height=112 -->
<path id="gl262" d="M 41 6 C 31 10 23 13 17 21 C 2 38 3 72 21 87 C 37 101 66 100 80 85 C 87 76 82 71 73 77 C 50 93 21 73 23 45 C 25 30 33 18 46 15 C 52 13 58 15 67 21 C 78 28 86 23 82 13 C 78 5 58 1 41 6 z" fill="black"/><!-- width=93 height=108 -->
<path id="gl4" d="M 16 9 C 8 13 7 16 12 24 C 13 28 14 32 14 54 C 14 80 13 86 8 87 C 6 90 3 94 4 95 C 7 99 44 99 45 95 C 47 92 44 90 40 90 C 39 90 37 87 35 86 C 34 85 33 84 32 84 C 32 74 32 65 32 56 C 32 29 32 29 34 26 C 38 22 43 22 49 24 C 59 28 66 24 66 17 C 66 4 55 2 44 11 C 37 16 34 14 32 9 C 29 4 26 3 16 9 z" fill="black"/><!-- width=76 height=108 -->
<path id="gl261" d="M 39 6 C 18 10 7 26 7 54 C 7 73 9 79 18 87 C 32 102 63 102 75 87 C 83 80 76 76 67 81 C 46 92 23 75 21 51 C 21 40 23 39 50 40 C 76 41 80 40 81 30 C 81 13 59 1 39 6 M 54 15 C 62 18 62 28 54 30 C 50 32 34 32 30 31 C 28 29 28 25 32 20 C 37 14 46 12 54 15 z" fill="black"/><!-- width=91 height=111 -->
<path id="gl7" d="M 37 6 C 18 9 1 26 4 33 C 8 41 19 36 24 26 C 26 19 31 16 36 16 C 47 16 50 22 50 36 C 50 47 48 49 33 54 C 9 60 2 68 4 83 C 7 98 23 104 39 95 C 42 94 46 92 48 90 C 50 92 54 94 57 95 C 65 100 72 101 78 96 C 87 93 87 88 78 87 C 68 85 65 79 68 54 C 69 23 68 13 58 8 C 52 4 43 3 37 6 M 48 62 C 57 70 48 88 34 88 C 17 88 18 68 37 62 C 44 58 44 58 48 62 z" fill="black"/><!-- width=94 height=110 -->
<path id="gl514" d="M 28 6 C 17 9 9 18 9 29 C 9 41 13 46 32 57 C 47 67 50 73 46 82 C 39 93 26 90 17 77 C 13 70 12 69 9 70 C 6 70 6 70 6 78 C 6 93 12 96 31 96 C 52 96 62 89 63 74 C 64 60 58 52 41 42 C 27 34 23 28 27 21 C 31 11 41 11 50 21 C 59 29 64 29 63 18 C 62 8 55 4 42 4 C 37 4 31 4 28 6 z" fill="black"/><!-- width=75 height=108 -->
<path id="gl6" d="M 39 3 C 18 9 7 26 7 52 C 7 80 22 96 50 94 C 65 94 78 86 78 78 C 78 74 75 74 67 78 C 47 88 21 72 21 47 C 21 37 23 37 50 37 C 78 37 79 37 80 29 C 83 13 59 0 39 3 M 57 14 C 67 22 59 29 42 29 C 29 29 26 27 29 21 C 34 12 50 8 57 14 z" fill="black"/><!-- width=91 height=106 -->
<path id="gl1" d="M 20 11 C 18 13 14 17 11 19 C 4 23 4 25 8 30 C 11 31 12 34 13 35 C 13 36 13 50 13 66 C 13 96 14 103 23 106 C 34 111 54 109 57 103 C 61 98 58 95 49 96 C 33 96 31 94 31 58 C 30 28 30 29 42 29 C 55 30 57 30 60 28 C 62 25 62 24 60 22 C 58 18 58 18 47 18 C 35 17 34 17 31 9 C 29 3 24 3 20 11 z" fill="black"/><!-- width=71 height=121 -->
<path id="gl0" d="M 42 6 C 27 8 16 17 10 31 C 5 42 6 67 11 77 C 30 111 83 106 95 68 C 106 31 78 -1 42 6 M 61 18 C 81 28 82 73 63 86 C 45 99 23 78 26 47 C 27 22 42 8 61 18 z" fill="black"/><!-- width=111 height=111 -->
<path id="gl7" d="M 37 6 C 18 9 1 26 4 33 C 8 41 19 36 24 26 C 26 19 31 16 36 16 C 47 16 50 22 50 36 C 50 47 48 49 33 54 C 9 60 2 68 4 83 C 7 98 23 104 39 95 C 42 94 46 92 48 90 C 50 92 54 94 57 95 C 65 100 72 101 78 96 C 87 93 87 88 78 87 C 68 85 65 79 68 54 C 69 23 68 13 58 8 C 52 4 43 3 37 6 M 48 62 C 57 70 48 88 34 88 C 17 88 18 68 37 62 C 44 58 44 58 48 62 z" fill="black"/><!-- width=94 height=110 -->
<path id="gl259" d="M 19 8 C 9 13 8 16 13 25 C 19 38 17 88 9 88 C 9 88 8 91 7 92 C 3 98 6 100 24 100 C 46 100 48 98 40 88 C 39 87 37 86 35 83 C 35 75 35 66 35 58 C 34 29 35 27 43 22 C 49 18 62 19 69 24 C 74 29 74 34 74 55 C 74 79 74 83 69 88 C 65 92 64 97 66 98 C 66 98 74 100 83 100 C 104 100 107 97 98 88 C 97 87 95 86 93 83 C 93 75 93 66 93 58 C 93 33 93 32 96 28 C 102 17 123 17 129 29 C 132 33 132 37 132 56 C 132 81 132 85 125 88 C 122 92 122 97 124 98 C 128 100 158 100 160 97 C 163 96 163 93 158 90 C 151 85 150 82 150 55 C 150 28 150 23 145 16 C 137 3 118 2 101 12 C 93 17 90 17 83 13 C 72 4 64 3 51 8 C 40 13 38 13 35 9 C 32 4 28 4 19 8 z" fill="black"/><!-- width=172 height=109 -->
<path id="gl2" d="M 18 4 C 11 8 9 19 14 25 C 27 37 43 19 32 7 C 28 3 23 3 18 4 M 18 61 C 9 66 8 70 13 79 C 14 82 16 85 14 110 C 14 119 14 128 14 137 C 13 139 12 140 9 142 C 4 148 4 148 7 150 C 8 152 12 152 24 152 C 45 152 48 150 39 140 C 37 139 35 138 34 137 C 34 124 34 112 34 100 C 34 79 33 61 33 60 C 32 58 25 58 18 61 z" fill="black"/><!-- width=54 height=163 -->
<path id="gl512" d="M 20 8 C 9 13 7 17 13 24 C 14 26 15 27 17 29 C 17 48 17 69 17 88 C 17 108 17 127 17 148 C 14 149 13 152 10 153 C 4 159 4 161 7 163 C 9 164 42 164 43 163 C 47 161 46 158 41 154 C 34 149 34 149 35 76 C 35 -1 36 1 20 8 z" fill="black"/><!-- width=55 height=175 -->
<path id="gl258" d="M 77 7 C 66 11 65 14 71 25 C 74 32 75 32 75 47 C 75 70 75 69 57 70 C 26 71 11 84 7 112 C 2 148 32 175 62 161 C 69 158 70 158 76 162 C 81 165 81 165 89 164 C 106 161 112 155 101 151 C 99 149 95 148 94 145 C 93 143 93 85 93 35 C 94 26 94 17 94 8 C 93 8 91 7 91 5 C 88 3 85 3 77 7 M 66 82 C 74 87 75 91 74 118 C 74 126 74 134 74 143 C 72 143 71 145 70 145 C 59 156 37 148 29 131 C 16 102 41 68 66 82 z" fill="black"/><!-- width=118 height=176 -->
<path id="gl258" d="M 77 7 C 66 11 65 14 71 25 C 74 32 75 32 75 47 C 75 70 75 69 57 70 C 26 71 11 84 7 112 C 2 148 32 175 62 161 C 69 158 70 158 76 162 C 81 165 81 165 89 164 C 106 161 112 155 101 151 C 99 149 95 148 94 145 C 93 143 93 85 93 35 C 94 26 94 17 94 8 C 93 8 91 7 91 5 C 88 3 85 3 77 7 M 66 82 C 74 87 75 91 74 118 C 74 126 74 134 74 143 C 72 143 71 145 70 145 C 59 156 37 148 29 131 C 16 102 41 68 66 82 z" fill="black"/><!-- width=118 height=176 -->
<path id="gl5391" d="M 36 5 C 17 12 7 26 6 49 C 3 78 20 98 46 98 C 65 98 88 83 79 75 C 78 73 71 75 70 76 C 70 78 66 80 64 81 C 45 89 22 73 21 49 C 21 39 21 39 47 39 C 79 40 83 39 80 25 C 78 10 54 0 36 5 M 58 16 C 61 20 63 23 60 27 C 56 31 30 31 27 27 C 22 18 47 8 58 16 z" fill="black"/><!-- width=92 height=109 -->
<path id="gl521" d="M 35 6 C 11 11 1 37 15 58 C 20 64 20 68 17 73 C 7 81 7 85 14 95 C 20 102 20 105 14 112 C 7 119 6 122 6 129 C 6 165 77 163 92 128 C 101 111 96 94 80 89 C 77 88 70 86 55 88 C 34 88 34 88 30 85 C 22 77 28 69 46 67 C 68 66 77 58 80 37 C 81 28 84 24 90 23 C 103 20 97 11 83 11 C 78 11 72 11 66 8 C 55 4 42 3 35 6 M 55 17 C 68 29 63 57 47 59 C 37 62 28 50 28 36 C 28 19 44 8 55 17 M 73 105 C 85 112 83 132 68 139 C 59 143 42 143 34 139 C 18 130 20 107 39 102 C 47 101 67 102 73 105 z" fill="black"/><!-- width=106 height=166 -->
<path id="gl518" d="M 21 7 C 10 12 7 15 12 22 C 15 27 15 28 15 55 C 15 64 15 73 15 81 C 13 83 12 84 10 86 C 2 94 3 95 25 97 C 44 97 49 97 47 93 C 47 90 46 89 40 86 C 34 85 32 83 32 57 C 32 35 32 28 36 23 C 39 21 46 21 50 23 C 62 30 74 18 65 8 C 60 5 55 5 46 10 C 37 13 36 13 32 8 C 28 3 30 3 21 7 z" fill="black"/><!-- width=78 height=107 -->
<path id="gl5" d="M 38 7 C 19 13 8 30 8 56 C 8 80 20 96 42 99 C 55 101 71 96 78 89 C 85 79 80 76 69 82 C 49 91 24 76 24 51 C 24 40 24 40 53 40 C 61 40 69 40 78 40 C 78 39 79 38 80 36 C 84 33 84 28 80 22 C 74 8 56 2 38 7 M 57 15 C 65 20 65 28 57 30 C 52 33 35 33 33 30 C 30 28 30 25 34 22 C 40 14 50 12 57 15 z" fill="black"/><!-- width=94 height=112 -->
<path id="gl5" d="M 38 7 C 19 13 8 30 8 56 C 8 80 20 96 42 99 C 55 101 71 96 78 89 C 85 79 80 76 69 82 C 49 91 24 76 24 51 C 24 40 24 40 53 40 C 61 40 69 40 78 40 C 78 39 79 38 80 36 C 84 33 84 28 80 22 C 74 8 56 2 38 7 M 57 15 C 65 20 65 28 57 30 C 52 33 35 33 33 30 C 30 28 30 25 34 22 C 40 14 50 12 57 15 z" fill="black"/><!-- width=94 height=112 -->
<path id="gl516" d="M 15 7 C 2 11 5 31 18 31 C 30 31 35 18 27 10 C 24 9 23 7 22 7 C 22 7 20 6 19 6 C 19 6 17 6 15 7 z" fill="black"/><!-- width=44 height=43 -->
<path id="gl1797" d="M 12 7 C 7 10 3 31 6 35 C 8 39 9 38 16 31 C 25 21 29 20 44 20 C 66 19 64 13 64 81 C 64 148 65 142 48 151 C 44 152 43 154 45 157 C 48 160 99 160 101 157 C 103 153 102 152 96 148 C 84 143 85 147 85 82 C 85 62 85 43 85 24 C 87 24 88 22 89 21 C 91 19 93 19 106 20 C 124 20 125 21 134 33 C 137 39 141 39 143 36 C 145 33 146 27 146 20 C 147 7 146 4 139 6 C 136 6 131 7 129 7 C 125 8 102 8 76 8 C 32 8 29 8 22 6 C 14 3 15 3 12 7 z" fill="black"/><!-- width=157 height=169 -->
<path id="gl5892" d="M 9 7 C 7 8 7 10 13 15 C 21 21 21 24 20 83 C 20 141 20 139 12 145 C 0 153 3 154 31 155 C 52 155 54 155 57 153 C 59 150 57 147 51 145 C 42 143 41 138 41 110 C 41 83 40 83 58 85 C 72 85 77 86 81 91 C 88 102 90 103 93 99 C 96 97 96 64 94 59 C 91 55 87 57 83 64 C 80 71 76 72 59 74 C 47 75 47 75 43 71 C 42 70 41 69 40 69 C 41 60 41 52 41 43 C 41 13 40 15 60 15 C 80 17 85 18 91 27 C 99 40 103 36 103 15 C 102 4 104 6 54 6 C 27 6 10 6 9 7 z" fill="black"/><!-- width=111 height=166 -->
</defs>
<use xlink:href="#gl9480" x="0" y="66"/>
<use xlink:href="#gl516" x="97" y="137"/>
<use xlink:href="#gl9500" x="358" y="15"/>
<use xlink:href="#gl4875" x="485" y="72"/>
<use xlink:href="#gl8" x="553" y="4"/>
<use xlink:href="#gl0" x="667" y="70"/>
<use xlink:href="#gl256" x="777" y="73"/>
<use xlink:href="#gl260" x="889" y="6"/>
<use xlink:href="#gl258" x="940" y="5"/>
<use xlink:href="#gl517" x="1108" y="68"/>
<use xlink:href="#gl518" x="1222" y="70"/>
<use xlink:href="#gl7" x="1294" y="70"/>
<use xlink:href="#gl777" x="1379" y="70"/>
<use xlink:href="#gl1" x="1472" y="60"/>
<use xlink:href="#gl2" x="1540" y="14"/>
<use xlink:href="#gl262" x="1594" y="70"/>
<use xlink:href="#gl6" x="1683" y="72"/>
<use xlink:href="#gl5" x="1824" y="68"/>
<use xlink:href="#gl7" x="1914" y="69"/>
<use xlink:href="#gl5142" x="2001" y="67"/>
<use xlink:href="#gl8" x="2088" y="3"/>
<use xlink:href="#gl513" x="2258" y="2"/>
<use xlink:href="#gl5391" x="2365" y="70"/>
<use xlink:href="#gl8" x="2452" y="3"/>
<use xlink:href="#gl7" x="2567" y="69"/>
<use xlink:href="#gl1025" x="2647" y="70"/>
<use xlink:href="#gl2" x="2752" y="13"/>
<use xlink:href="#gl0" x="2806" y="67"/>
<use xlink:href="#gl4" x="2917" y="67"/>
<use xlink:href="#gl9" x="2984" y="67"/>
<use xlink:href="#gl5398" x="3077" y="2"/>
<use xlink:href="#gl777" x="3182" y="68"/>
<use xlink:href="#gl8" x="3272" y="2"/>
<use xlink:href="#gl7" x="3387" y="68"/>
<use xlink:href="#gl3" x="3476" y="66"/>
<use xlink:href="#gl521" x="3589" y="68"/>
<use xlink:href="#gl522" x="3689" y="65"/>
<use xlink:href="#gl1" x="3833" y="57"/>
<use xlink:href="#gl8" x="3898" y="0"/>
<use xlink:href="#gl6" x="4013" y="69"/>
<use xlink:href="#gl3" x="4155" y="65"/>
<use xlink:href="#gl256" x="4272" y="68"/>
<use xlink:href="#gl259" x="4384" y="65"/>
<use xlink:href="#gl513" x="4558" y="0"/>
<use xlink:href="#gl5" x="4664" y="65"/>
<use xlink:href="#gl4" x="4757" y="65"/>
<use xlink:href="#gl0" x="4881" y="65"/>
<use xlink:href="#gl5138" x="4992" y="0"/>
<use xlink:href="#gl1027" x="354" y="381"/>
<use xlink:href="#gl2" x="423" y="337"/>
<use xlink:href="#gl259" x="480" y="391"/>
<use xlink:href="#gl261" x="651" y="393"/>
<use xlink:href="#gl4875" x="739" y="394"/>
<use xlink:href="#gl3" x="865" y="391"/>
<use xlink:href="#gl5" x="977" y="392"/>
<use xlink:href="#gl262" x="1066" y="394"/>
<use xlink:href="#gl261" x="1155" y="393"/>
<use xlink:href="#gl4875" x="1243" y="394"/>
<use xlink:href="#gl257" x="1310" y="391"/>
<use xlink:href="#gl9" x="1381" y="392"/>
<use xlink:href="#gl4" x="1477" y="390"/>
<use xlink:href="#gl5639" x="1543" y="394"/>
<use xlink:href="#gl769" x="1705" y="323"/>
<use xlink:href="#gl0" x="1765" y="391"/>
<use xlink:href="#gl4" x="1876" y="391"/>
<use xlink:href="#gl259" x="2002" y="390"/>
<use xlink:href="#gl263" x="2170" y="395"/>
<use xlink:href="#gl9" x="2322" y="391"/>
<use xlink:href="#gl3" x="2414" y="389"/>
<use xlink:href="#gl772" x="2525" y="393"/>
<use xlink:href="#gl2" x="2625" y="335"/>
<use xlink:href="#gl5" x="2677" y="389"/>
<use xlink:href="#gl4894" x="2771" y="380"/>
<use xlink:href="#gl263" x="2830" y="393"/>
<use xlink:href="#gl512" x="2984" y="323"/>
<use xlink:href="#gl5391" x="3039" y="390"/>
<use xlink:href="#gl1025" x="3119" y="391"/>
<use xlink:href="#gl261" x="3223" y="390"/>
<use xlink:href="#gl512" x="3308" y="323"/>
<use xlink:href="#gl514" x="3361" y="391"/>
<use xlink:href="#gl768" x="3490" y="381"/>
<use xlink:href="#gl0" x="3557" y="388"/>
<use xlink:href="#gl258" x="3717" y="324"/>
<use xlink:href="#gl5" x="3829" y="388"/>
<use xlink:href="#gl262" x="3918" y="389"/>
<use xlink:href="#gl4" x="4011" y="388"/>
<use xlink:href="#gl261" x="4078" y="389"/>
<use xlink:href="#gl7" x="4166" y="388"/>
<use xlink:href="#gl514" x="4251" y="390"/>
<use xlink:href="#gl6" x="4325" y="390"/>
<use xlink:href="#gl1" x="4469" y="378"/>
<use xlink:href="#gl0" x="4534" y="387"/>
<use xlink:href="#gl7" x="4698" y="388"/>
<use xlink:href="#gl259" x="356" y="711"/>
<use xlink:href="#gl2" x="528" y="658"/>
<use xlink:href="#gl512" x="582" y="645"/>
<use xlink:href="#gl258" x="636" y="647"/>
<use xlink:href="#gl258" x="803" y="648"/>
<use xlink:href="#gl5391" x="915" y="713"/>
<use xlink:href="#gl521" x="1002" y="714"/>
<use xlink:href="#gl518" x="1103" y="712"/>
<use xlink:href="#gl5" x="1170" y="712"/>
<use xlink:href="#gl5" x="1258" y="710"/>
<use xlink:href="#gl516" x="1352" y="779"/>
<use xlink:href="#gl1797" x="5527" y="645"/>
<use xlink:href="#gl5892" x="6124" y="649"/>
</svg>